<svg width="167" height="182" viewBox="0 0 167 182" fill="none" xmlns="http://www.w3.org/2000/svg">
<mask id="mask0_6892_29081" style="mask-type:alpha" maskUnits="userSpaceOnUse" x="0" y="0" width="167" height="182">
<rect x="0.302734" width="165.841" height="182" fill="#C4C4C4"/>
</mask>
<g mask="url(#mask0_6892_29081)">
<path fill-rule="evenodd" clip-rule="evenodd" d="M87.6348 84.4786L80.9399 49.2645L53.6414 50.8128V86.8639C53.6414 86.8639 57.0507 91.8211 66.106 92.2547C80.0121 92.9211 87.6348 84.4786 87.6348 84.4786Z" fill="#FFC4A3"/>
<path fill-rule="evenodd" clip-rule="evenodd" d="M37.7323 33.7499C43.7416 34.5068 44.2564 25.8379 47.553 20.0578C50.8495 14.2784 60.1204 10.2193 64.9514 11.3831C68.6756 12.2812 69.9067 16.7557 69.9067 16.7557C69.9067 16.7557 74.6442 12.1458 80.0015 16.2739C86.3941 21.2008 87.0065 37.6793 92.9266 35.985C92.9266 35.985 94.2172 46.1401 84.1229 46.6851L37.7323 33.7499Z" fill="#2E186A"/>
<path fill-rule="evenodd" clip-rule="evenodd" d="M-54.8854 249.745C-50.4522 249.48 -50.6825 241.488 -50.6825 241.488L-42.4745 233.083L-39.9366 238.648C-39.9366 238.648 -42.5241 242.825 -42.969 247.747C-43.348 251.924 -38.552 253.361 -36.0303 248.82C-33.0136 243.387 -30.7722 240.101 -27.3279 235.56C-24.8385 232.274 -24.6407 226.775 -24.6407 226.775C-24.6407 226.775 -5.76937 214.985 10.9932 201.923C10.0043 197.217 7.59795 190.76 1.79586 185.542C-3.92322 180.423 -10.4333 179.036 -15.4115 178.904C-19.5314 183.858 -24.0308 189.39 -28.3992 194.955C-41.9963 212.293 -56.0392 233.034 -57.5063 238.862C-59.0888 245.121 -58.693 249.976 -54.8854 249.745Z" fill="#FFC4A3"/>
<path fill-rule="evenodd" clip-rule="evenodd" d="M-15.411 178.904C-10.4333 179.036 -3.9227 180.423 1.79638 185.542C7.59795 190.76 10.0048 197.217 10.9932 201.923C6.92757 205.091 2.73929 208.183 -1.27566 211.051C-1.26939 210.951 -0.851191 203.724 -5.48848 196.413C-10.6604 188.26 -21.7644 186.652 -21.7644 186.652L-21.7723 186.651C-19.5993 183.971 -17.4581 181.365 -15.411 178.904Z" fill="#F99175"/>
<path fill-rule="evenodd" clip-rule="evenodd" d="M1.15292 186.249C17.8413 143.109 27.1664 91.272 34.5384 89.9523C34.5384 89.9523 38.2918 109.436 36.4378 137.164C34.1474 171.414 26.4454 188.698 26.4454 188.698C20.0893 194.928 34.7415 215.029 26.4454 221.118C26.4464 221.102 18.2341 222.748 10.5081 216.866C2.52776 210.789 3.27908 213.039 3.27908 213.039C14.6922 198.942 1.15292 186.249 1.15292 186.249Z" fill="#00AC45"/>
<path fill-rule="evenodd" clip-rule="evenodd" d="M34.5324 89.9506C34.5324 89.9506 32.7233 158.354 18.9341 208.686C18.9341 208.686 31.6932 216.821 66.3052 216.769C102.369 216.715 122.212 203.903 122.212 203.903C106.184 148.258 105.656 84.8715 105.656 84.8715C105.656 84.8715 87.2853 83.6805 67.5416 85.3878C47.2476 87.1422 34.5324 89.9506 34.5324 89.9506Z" fill="#00AC45"/>
<path fill-rule="evenodd" clip-rule="evenodd" d="M22.9771 192.374C23.1703 192.374 23.3431 192.239 23.3854 192.043C28.9812 165.768 31.906 137.314 33.3731 118.071C33.3904 117.841 33.2181 117.639 32.9884 117.621C32.7842 117.6 32.5576 117.776 32.5394 118.007C31.0743 137.224 28.1548 165.637 22.5683 191.868C22.5203 192.095 22.6644 192.317 22.8894 192.365C22.9192 192.371 22.9484 192.374 22.9771 192.374Z" fill="#2E186A"/>
<path fill-rule="evenodd" clip-rule="evenodd" d="M105.656 84.8726C113.622 85.2858 118.945 90.8587 135.118 111.293C149.915 129.991 162.21 146.28 162.21 155.052C162.21 163.722 147.165 175.72 138.784 172.666C130.379 169.605 102.977 136.063 95.4576 121.924L105.656 84.8726Z" fill="#00AC45"/>
<path fill-rule="evenodd" clip-rule="evenodd" d="M61.2738 50.3806L62.3101 72.546C62.3101 72.546 59.3342 75.3843 53.6339 76.5539V50.8137L61.2738 50.3806Z" fill="#F99175"/>
<path fill-rule="evenodd" clip-rule="evenodd" d="M110.12 143.618C110.211 143.618 110.301 143.588 110.378 143.529C110.559 143.387 110.591 143.124 110.449 142.941C103.823 134.462 98.4966 126.729 95.836 121.726C95.7269 121.522 95.4715 121.446 95.2705 121.554C95.0674 121.662 94.9902 121.916 95.0988 122.12C97.7813 127.164 103.136 134.941 109.791 143.457C109.874 143.564 109.996 143.618 110.12 143.618Z" fill="#2E186A"/>
<path fill-rule="evenodd" clip-rule="evenodd" d="M78.978 27.3858C78.978 27.3858 72.2529 25.5283 62.2181 25.5283C50.9585 25.5278 46.1171 30.9396 44.8802 44.0128C43.6444 57.0856 46.4549 72.4761 60.4356 72.5902C72.4878 72.688 83.4759 65.9507 78.978 27.3858Z" fill="#FFC4A3"/>
<path fill-rule="evenodd" clip-rule="evenodd" d="M82.4191 43.224C82.4191 43.224 74.007 43.9333 72.908 39.5986C71.4565 33.873 75.5524 26.4573 71.7411 23.0515L80.8214 25.2113L82.4191 43.224Z" fill="#2E186A"/>
<path fill-rule="evenodd" clip-rule="evenodd" d="M63.2172 22.4436C58.6609 22.4436 58.4515 30.4901 54.6668 35.9536C51.4736 40.5635 42.2821 40.4395 37.7382 33.7515C37.7382 33.7515 43.3064 35.5059 47.9265 29.0537C54.5639 19.7848 63.2172 22.4436 63.2172 22.4436Z" fill="#2E186A"/>
<path fill-rule="evenodd" clip-rule="evenodd" d="M53.6414 76.5536L85.562 73.5778L87.6348 84.4792C87.6348 84.4792 80.0126 92.9217 66.106 92.2553C57.0507 91.8211 53.6414 86.8645 53.6414 86.8645V76.5536Z" fill="#00AC45"/>
<path fill-rule="evenodd" clip-rule="evenodd" d="M73.5978 92.139C73.625 92.139 73.6521 92.1369 73.6793 92.1306C82.8338 90.3213 87.7342 84.9885 87.9394 84.762C88.0934 84.591 88.0804 84.3263 87.9096 84.172C87.7394 84.0182 87.4752 84.0297 87.3202 84.2007C87.2711 84.2546 82.3863 89.5565 73.5179 91.3104C73.2908 91.3544 73.1441 91.5751 73.189 91.8016C73.2282 92.0009 73.4031 92.139 73.5978 92.139Z" fill="#2E186A"/>
<path fill-rule="evenodd" clip-rule="evenodd" d="M135.334 90.7894C135.334 90.7894 131.247 114.056 129.516 132.336C133.076 135.506 139.603 139.684 148.816 139.304C155.706 139.007 160.815 136.117 164.293 133.128C162.233 107.847 156.283 69.2563 154.14 61.4787C150.778 49.1602 148.652 44.272 144.811 45.6592C140.147 47.3273 143.921 62.1723 143.921 62.1723C143.921 62.1723 140.691 61.8584 139.043 63.6751C139.043 63.6751 140.757 58.391 137.114 57.4829C132.796 56.4257 130.109 65.5409 129.005 71.3204C127.983 76.7536 127.637 87.4866 135.334 90.7894Z" fill="#FFC4A3"/>
<path fill-rule="evenodd" clip-rule="evenodd" d="M130.339 124.659C130.376 124.689 137.003 129.996 147.691 128.572C157.372 127.282 163.053 120.331 163.056 120.328C163.546 124.811 163.968 129.137 164.293 133.129C160.815 136.118 155.706 139.008 148.817 139.305C139.603 139.685 133.076 135.507 129.516 132.336C129.752 129.847 130.032 127.263 130.339 124.659Z" fill="#F99175"/>
<path fill-rule="evenodd" clip-rule="evenodd" d="M145.768 174.317C133.475 174.317 128.462 162.07 128.736 144.456C128.82 139.063 129.472 131.94 130.334 124.654C130.336 124.657 136.257 133.111 147.587 133.111C158.9 133.111 163.492 124.685 163.507 124.657C164.422 133.674 165.01 141.779 164.997 147.415C164.949 167.655 157.374 174.317 145.768 174.317Z" fill="#00AC45"/>
<path fill-rule="evenodd" clip-rule="evenodd" d="M128.738 144.877C128.965 144.877 129.152 144.694 129.155 144.465C129.23 139.667 129.767 133.019 130.75 124.706C130.778 124.476 130.614 124.269 130.384 124.242C130.16 124.21 129.947 124.378 129.922 124.608C128.934 132.949 128.395 139.626 128.32 144.452C128.316 144.684 128.5 144.873 128.731 144.877H128.738Z" fill="#2E186A"/>
<path fill-rule="evenodd" clip-rule="evenodd" d="M77.4123 43.5603C77.4123 43.5603 79.9711 40.0828 84.4966 41.5794C89.5589 43.2537 89.2858 50.8164 85.1148 53.3967C81.6256 55.555 77.6462 54.6866 77.6462 54.6866L77.4123 43.5603Z" fill="#FFC4A3"/>
<path fill-rule="evenodd" clip-rule="evenodd" d="M136.808 75.5303C137.041 75.5349 137.244 75.3477 137.244 75.1102C137.243 74.8795 137.056 74.6933 136.826 74.6933C136.819 74.6938 136.815 74.6933 136.808 74.6933C136.234 74.6933 135.453 74.5787 134.958 74.0395C134.546 73.5901 134.378 72.9039 134.459 72.001C134.704 69.2601 136.865 65.6801 139.279 64.0209C139.47 63.8902 139.517 63.6297 139.387 63.4388C139.256 63.2494 138.996 63.2002 138.806 63.331C136.17 65.144 133.895 68.919 133.627 71.9257C133.525 73.0744 133.766 73.9746 134.343 74.6059C134.898 75.2106 135.75 75.5303 136.808 75.5303Z" fill="#2E186A"/>
<path fill-rule="evenodd" clip-rule="evenodd" d="M139.819 79.6108C140.472 79.6108 141.116 79.4278 141.641 79.0663C143.77 77.6001 144.801 74.187 144.844 74.0422C144.91 73.8209 144.784 73.5881 144.563 73.5217C144.337 73.4574 144.109 73.5834 144.043 73.8036C144.033 73.8366 143.053 77.0797 141.168 78.3769C140.438 78.8801 139.384 78.912 138.549 78.4528C138.12 78.2174 137.405 77.6519 137.444 76.5163C137.516 74.402 138.625 68.5781 142.835 67.0397C146.975 65.5296 149.993 67.0052 150.024 67.0204C150.229 67.1224 150.48 67.0413 150.584 66.8357C150.688 66.6296 150.607 66.378 150.402 66.2739C150.267 66.2044 147.046 64.61 142.549 66.2535C137.905 67.9504 136.687 74.2163 136.609 76.4886C136.57 77.6446 137.131 78.6285 138.148 79.1866C138.664 79.4701 139.245 79.6108 139.819 79.6108Z" fill="#2E186A"/>
<path fill-rule="evenodd" clip-rule="evenodd" d="M141.331 89.0179C141.366 89.0179 141.401 89.0137 141.437 89.0043C141.66 88.9457 141.793 88.7172 141.734 88.4933C139.96 81.7063 143.318 77.256 143.352 77.2121C143.494 77.0295 143.461 76.7664 143.279 76.6252C143.097 76.4819 142.836 76.5158 142.693 76.6979C142.543 76.8904 139.042 81.5013 140.927 88.7057C140.976 88.894 141.145 89.0179 141.331 89.0179Z" fill="#2E186A"/>
<path fill-rule="evenodd" clip-rule="evenodd" d="M148.82 63.5563C148.985 63.5563 149.142 63.4569 149.207 63.2932C149.293 63.0792 149.189 62.8355 148.975 62.7497C148.867 62.7057 146.308 61.7077 143.905 61.7532C143.675 61.76 143.493 61.953 143.5 62.1842C143.505 62.4144 143.678 62.6105 143.929 62.5901C146.128 62.5221 148.639 63.517 148.665 63.5259C148.715 63.5463 148.768 63.5563 148.82 63.5563Z" fill="#2E186A"/>
<path fill-rule="evenodd" clip-rule="evenodd" d="M79.6967 47.8697C79.8586 47.8697 80.0121 47.7745 80.0799 47.6171C81.3612 44.6381 84.2635 45.3009 84.3878 45.3286C84.6076 45.384 84.8368 45.246 84.8921 45.0216C84.9464 44.7972 84.8102 44.5707 84.5862 44.5163C84.5496 44.5074 80.8756 43.6485 79.3135 47.2854C79.2221 47.4978 79.3198 47.7437 79.5312 47.8352C79.585 47.8587 79.6414 47.8697 79.6967 47.8697Z" fill="#2E186A"/>
<path fill-rule="evenodd" clip-rule="evenodd" d="M72.5368 43.0695C72.6568 43.0695 72.7774 43.0172 72.8594 42.9168C73.0056 42.7384 72.9795 42.4748 72.8025 42.3278C72.6856 42.2311 69.9607 39.906 71.4905 35.4065C73.9657 28.12 74.1135 23.961 71.941 22.691C71.7426 22.5733 71.4858 22.6407 71.3704 22.8411C71.2534 23.0404 71.3213 23.2972 71.5202 23.4133C72.7242 24.1169 73.5585 26.7228 70.699 35.1366C68.9776 40.2041 72.1373 42.8645 72.2731 42.9754C72.3509 43.0387 72.4433 43.0695 72.5368 43.0695Z" fill="#2E186A"/>
<path fill-rule="evenodd" clip-rule="evenodd" d="M37.8894 32.4937C41.6297 32.4937 42.9887 28.9341 44.4276 25.169C44.9884 23.7013 45.5679 22.1828 46.3088 20.816C48.9093 16.0162 55.2346 12.5785 62.0485 12.2621C62.2788 12.2516 62.4573 12.056 62.4458 11.8248C62.4354 11.5941 62.2286 11.4147 62.0094 11.4267C54.9145 11.7552 48.31 15.3686 45.5747 20.4174C44.8077 21.8318 44.2178 23.3764 43.6466 24.8698C42.2578 28.5078 41.0538 31.6557 37.881 31.6557C37.833 31.6552 37.7756 31.651 37.7348 31.6547C37.5088 31.6547 37.324 31.8341 37.317 32.0611C37.3109 32.2928 37.4926 32.4848 37.7239 32.4916C37.7792 32.4932 37.8346 32.4937 37.8894 32.4937Z" fill="#2E186A"/>
<path fill-rule="evenodd" clip-rule="evenodd" d="M92.9915 34.916C93.2008 34.916 93.3825 34.7575 93.406 34.5441C93.4316 34.3139 93.2661 34.1068 93.0374 34.0817C90.6295 33.8133 88.6795 29.9781 86.6161 25.9164C84.5904 21.9295 82.4962 17.8082 79.5892 16.2729C79.385 16.1662 79.1323 16.2431 79.0248 16.4482C78.9167 16.6532 78.995 16.9059 79.1992 17.0136C81.8723 18.4244 83.9054 22.4259 85.8711 26.2962C88.0409 30.5645 90.0886 34.5958 92.944 34.9133C92.9602 34.9154 92.9763 34.916 92.9915 34.916Z" fill="#2E186A"/>
<path fill-rule="evenodd" clip-rule="evenodd" d="M49.7391 42.3438C49.7391 43.096 49.1304 43.7059 48.3796 43.7059C47.6283 43.7059 47.0195 43.096 47.0195 42.3438C47.0195 41.5916 47.6283 40.9817 48.3796 40.9817C49.1304 40.9817 49.7391 41.5916 49.7391 42.3438Z" fill="#2E186A"/>
<path fill-rule="evenodd" clip-rule="evenodd" d="M66.7219 44.0122C66.7219 44.7644 66.1132 45.3743 65.3624 45.3743C64.6111 45.3743 64.0023 44.7644 64.0023 44.0122C64.0023 43.2601 64.6111 42.6501 65.3624 42.6501C66.1132 42.6501 66.7219 43.2601 66.7219 44.0122Z" fill="#2E186A"/>
<path fill-rule="evenodd" clip-rule="evenodd" d="M71.5166 38.4025C70.8404 39.0966 69.1937 38.493 67.4316 38.0609C65.6899 37.5525 63.9628 37.2507 63.7237 36.3102C63.4496 35.3984 65.6184 33.9035 68.349 34.6316C71.0764 35.3686 72.2089 37.7497 71.5166 38.4025Z" fill="#2E186A"/>
<path fill-rule="evenodd" clip-rule="evenodd" d="M54.008 51.9402C54.4747 51.9402 54.9598 51.8455 55.4406 51.6237C55.6505 51.5274 55.7413 51.279 55.6453 51.0687C55.5492 50.859 55.3023 50.7674 55.0913 50.8637C53.9427 51.3925 52.6672 50.9562 51.9979 50.2532C51.7551 49.9964 51.233 49.3159 51.645 48.5203C51.7891 48.242 51.9916 48.0694 52.2621 47.992C52.9419 47.7979 53.914 48.242 54.2283 48.4298C54.34 48.4962 54.4763 48.5067 54.5964 48.4591C54.7159 48.4109 54.8084 48.3105 54.8439 48.1855L56.0019 44.129C56.065 43.9067 55.9371 43.6755 55.7158 43.6117C55.4923 43.5448 55.2615 43.6766 55.1989 43.8984L54.1787 47.472C53.6571 47.2455 52.7977 46.9704 52.0334 47.1869C51.5364 47.3287 51.1563 47.6473 50.9041 48.1348C50.4457 49.0193 50.629 50.0267 51.3933 50.8302C51.9817 51.4479 52.9471 51.9402 54.008 51.9402Z" fill="#F99175"/>
<path fill-rule="evenodd" clip-rule="evenodd" d="M58.1229 55.5968C55.6272 55.9326 54.4374 54.2635 53.1739 55.6533C51.7073 57.2654 54.359 61.5814 58.658 60.6733C62.3388 59.8955 63.3037 55.6036 61.6794 54.8593C60.442 54.2917 59.6949 55.3855 58.1229 55.5968Z" fill="#2E186A"/>
<path fill-rule="evenodd" clip-rule="evenodd" d="M55.9459 60.5294C56.7426 60.7909 57.6526 60.884 58.6634 60.6701C60.9695 60.1831 62.2074 58.3173 62.4131 56.8077C61.9693 56.6555 61.5072 56.5425 61.0149 56.5216C58.5323 56.4185 56.4163 58.1619 55.9459 60.5294Z" fill="#FF5A5A"/>
<path fill-rule="evenodd" clip-rule="evenodd" d="M62.5159 56.9372C62.6788 55.9653 62.4449 55.1148 61.797 54.8177C60.5277 54.2355 59.7613 55.3575 58.1485 55.5746C55.5876 55.9188 54.368 54.2067 53.0711 55.6321C52.6947 56.0464 52.5835 56.6338 52.6957 57.2678C53.7519 57.7898 55.2154 58.2527 57.155 58.2156C59.5279 58.1696 61.337 57.522 62.5159 56.9372Z" fill="#DADEE8"/>
<path fill-rule="evenodd" clip-rule="evenodd" d="M118.999 39.0665H120.647C121.557 39.0665 122.295 38.3274 122.295 37.4151V35.7643H117.35V37.4151C117.35 38.3274 118.089 39.0665 118.999 39.0665Z" fill="#848CAE"/>
<path fill-rule="evenodd" clip-rule="evenodd" d="M117.768 37.8249H121.889C122.799 37.8249 123.537 37.0857 123.537 36.1735V27.9172H116.12V36.1735C116.12 37.0857 116.858 37.8249 117.768 37.8249Z" fill="#DADEE8"/>
<path fill-rule="evenodd" clip-rule="evenodd" d="M111.586 19.6635C111.586 14.1916 115.276 9.75586 119.827 9.75586C124.379 9.75586 128.069 14.1916 128.069 19.6635C128.069 22.214 127.263 24.5339 125.945 26.2872C125.226 27.2444 124.772 28.3732 124.772 29.5711C124.772 30.4833 124.034 31.2224 123.124 31.2224H116.531C115.621 31.2224 114.882 30.4833 114.882 29.5711C114.882 28.3732 114.429 27.2444 113.71 26.2872C112.392 24.5339 111.586 22.2135 111.586 19.6635Z" fill="#2E186A"/>
<path fill-rule="evenodd" clip-rule="evenodd" d="M116.085 36.0165H123.585C123.816 36.0165 124.002 35.8292 124.002 35.598C124.002 35.3668 123.816 35.1796 123.585 35.1796H116.085C115.854 35.1796 115.668 35.3668 115.668 35.598C115.668 35.8292 115.854 36.0165 116.085 36.0165Z" fill="#848CAE"/>
<path fill-rule="evenodd" clip-rule="evenodd" d="M116.085 33.2912H123.585C123.816 33.2912 124.002 33.1044 124.002 32.8727C124.002 32.6415 123.816 32.4542 123.585 32.4542H116.085C115.854 32.4542 115.668 32.6415 115.668 32.8727C115.668 33.1044 115.854 33.2912 116.085 33.2912Z" fill="#848CAE"/>
<path fill-rule="evenodd" clip-rule="evenodd" d="M117.97 31.2202H118.805V25.0332H120.854V31.2202H121.69V24.1963H117.97V31.2202Z" fill="#848CAE"/>
<path fill-rule="evenodd" clip-rule="evenodd" d="M122.498 22.5584C122.949 22.5584 123.316 22.9261 123.316 23.378C123.316 23.83 122.949 24.1977 122.498 24.1977H121.68V23.378C121.68 22.9261 122.047 22.5584 122.498 22.5584ZM120.844 25.0346H122.498C123.409 25.0346 124.152 24.2918 124.152 23.378C124.152 22.4642 123.409 21.7214 122.498 21.7214C121.586 21.7214 120.844 22.4642 120.844 23.378V25.0346Z" fill="#848CAE"/>
<path fill-rule="evenodd" clip-rule="evenodd" d="M117.968 24.1977H117.15C116.698 24.1977 116.331 23.83 116.331 23.378C116.331 22.9261 116.698 22.5584 117.15 22.5584C117.601 22.5584 117.968 22.9261 117.968 23.378V24.1977ZM117.15 25.0346H118.803V23.378C118.803 22.4642 118.062 21.7214 117.15 21.7214C116.238 21.7214 115.496 22.4642 115.496 23.378C115.496 24.2918 116.238 25.0346 117.15 25.0346Z" fill="#848CAE"/>
<path fill-rule="evenodd" clip-rule="evenodd" d="M114.679 14.847C114.679 16.2149 115.786 17.3238 117.151 17.3238C118.517 17.3238 119.624 16.2149 119.624 14.847C119.624 13.4792 118.517 12.3702 117.151 12.3702C115.786 12.3702 114.679 13.4792 114.679 14.847Z" fill="#DADEE8"/>
<path fill-rule="evenodd" clip-rule="evenodd" d="M113.444 18.7709C113.444 19.4551 113.997 20.0095 114.68 20.0095C115.363 20.0095 115.916 19.4551 115.916 18.7709C115.916 18.0867 115.363 17.5322 114.68 17.5322C113.997 17.5322 113.444 18.0867 113.444 18.7709Z" fill="#DADEE8"/>
<path fill-rule="evenodd" clip-rule="evenodd" d="M119.821 6.25476C120.167 6.25476 120.448 5.97386 120.448 5.62706V2.32435C120.448 1.97807 120.167 1.69666 119.821 1.69666C119.475 1.69666 119.195 1.97807 119.195 2.32435V5.62706C119.195 5.97386 119.475 6.25476 119.821 6.25476Z" fill="#2E186A"/>
<path fill-rule="evenodd" clip-rule="evenodd" d="M111.796 9.61959C111.92 9.61959 112.045 9.58298 112.154 9.50608C112.438 9.30731 112.506 8.91553 112.308 8.6315L110.417 5.92614C110.219 5.64211 109.83 5.57306 109.544 5.77235C109.261 5.97112 109.193 6.36238 109.391 6.64694L111.282 9.3523C111.404 9.52648 111.598 9.61959 111.796 9.61959Z" fill="#2E186A"/>
<path fill-rule="evenodd" clip-rule="evenodd" d="M127.867 9.62094C128.064 9.62094 128.259 9.52783 128.381 9.3526L130.271 6.64724C130.469 6.36373 130.401 5.97247 130.117 5.7737C129.833 5.57545 129.442 5.64345 129.245 5.928L127.355 8.63336C127.156 8.91687 127.225 9.30866 127.508 9.50743C127.618 9.58432 127.743 9.62094 127.867 9.62094Z" fill="#2E186A"/>
</g>
</svg>
