<svg id="Notification_Icon" data-name="Notification Icon" xmlns="http://www.w3.org/2000/svg" width="21.859" height="21.869" viewBox="0 0 21.859 21.869">
  <g id="Union" fill="none">
    <path d="M15.3,17.5h5.012a1.547,1.547,0,0,0,1.093-2.64l-1.093-1.093a2.187,2.187,0,0,1-.64-1.546v-3.5A8.711,8.711,0,1,0,2.25,8.742l.01,3.448a2.187,2.187,0,0,1-.667,1.58L.468,14.855A1.535,1.535,0,0,0,1.535,17.5H6.558a4.372,4.372,0,1,0,8.743,0Zm3.853-2.573.933.933H1.794l.938-.906A3.828,3.828,0,0,0,3.9,12.184l-.01-3.448a7.072,7.072,0,1,1,14.144-.021v3.5A3.828,3.828,0,0,0,19.154,14.922ZM13.662,17.5H8.2a2.732,2.732,0,1,0,5.465,0Z" stroke="none"/>
    <path d="M 10.92929077148438 21.8687572479248 C 8.514861106872559 21.8687572479248 6.557570934295654 19.91055679321289 6.557570934295654 17.4950065612793 L 1.534560799598694 17.4950065612793 C 0.6870507597923279 17.4950065612793 7.714843945905159e-07 16.80763626098633 7.714843945905159e-07 15.95972633361816 C 7.714843945905159e-07 15.54330635070801 0.1690807640552521 15.14474678039551 0.4684707820415497 14.85544681549072 L 1.593040823936462 13.76875686645508 C 2.021140813827515 13.35508632659912 2.262120723724365 12.78466701507568 2.260330677032471 12.18921661376953 L 2.249990701675415 8.741597175598145 C 2.23551082611084 3.917996644973755 6.139950752258301 -3.283386149632861e-06 10.96133041381836 -3.283386149632861e-06 C 15.77249050140381 -3.283386149632861e-06 19.67271995544434 3.902026653289795 19.67271995544434 8.715426445007324 L 19.67271995544434 12.21541690826416 C 19.67271995544434 12.79541683197021 19.90301132202148 13.35165691375732 20.31294059753418 13.76176643371582 L 21.40587043762207 14.85520648956299 C 21.69574165344238 15.14520645141602 21.85858154296875 15.53852653503418 21.85858154296875 15.94864654541016 C 21.85858154296875 16.80267715454102 21.16658020019531 17.4950065612793 20.31295013427734 17.4950065612793 L 15.30101108551025 17.4950065612793 C 15.30101108551025 19.91055679321289 13.34372043609619 21.8687572479248 10.92929077148438 21.8687572479248 Z M 8.19697093963623 17.4950065612793 C 8.19697093963623 19.00472640991211 9.420270919799805 20.22859764099121 10.92929077148438 20.22859764099121 C 12.43831062316895 20.22859764099121 13.66161060333252 19.00472640991211 13.66161060333252 17.4950065612793 L 8.19697093963623 17.4950065612793 Z M 20.08659172058105 15.8548469543457 L 19.15372085571289 14.92153644561768 C 18.43634033203125 14.20382690429688 18.0333309173584 13.23040676116943 18.0333309173584 12.21541690826416 L 18.0333309173584 8.715426445007324 C 18.03332138061523 4.80786657333374 14.86708068847656 1.640156745910645 10.96133041381836 1.640156745910645 C 7.047290802001953 1.640156745910645 3.877620697021484 4.820826530456543 3.889370679855347 8.736666679382324 L 3.899720668792725 12.18429660797119 C 3.902840852737427 13.22631645202637 3.481130838394165 14.22456645965576 2.73197078704834 14.948486328125 L 1.794010758399963 15.8548469543457 L 20.08659172058105 15.8548469543457 Z" stroke="none" fill="#838383"/>
  </g>
</svg>
