<svg xmlns="http://www.w3.org/2000/svg" width="21" height="21" viewBox="0 0 21 21">
  <path id="backlink" d="M6.539,13.535l7-7a.656.656,0,1,1,.928.928l-7,7a.656.656,0,1,1-.928-.928Zm7.895-1.155a.654.654,0,0,0,.464-.192l5.911-5.911a.656.656,0,0,0,0-.928L15.653.194a.656.656,0,0,0-.928,0L8.814,6.1a.656.656,0,0,0,0,.928l1.232,1.232a.656.656,0,1,0,.928-.928l-.768-.768,4.982-4.983,4.227,4.227L14.433,10.8l-.768-.768a.656.656,0,1,0-.928.928l1.233,1.232a.654.654,0,0,0,.464.192Zm-3.48.358a.656.656,0,1,0-.928.928l.768.768L5.812,19.417,1.584,15.19l4.982-4.983.768.768a.656.656,0,1,0,.928-.928L7.031,8.815a.656.656,0,0,0-.928,0L.192,14.726a.656.656,0,0,0,0,.928l5.155,5.155a.656.656,0,0,0,.928,0L12.186,14.9a.656.656,0,0,0,0-.928Zm9.39,3.752h-6.4a.656.656,0,1,0,0,1.313h6.4a.656.656,0,1,0,0-1.313Z" transform="translate(0 -0.001)" fill="#707070"/>
</svg>
