<svg width="672" height="456" viewBox="0 0 672 456" fill="none" xmlns="http://www.w3.org/2000/svg">
<g opacity="0.1">
<path d="M47.9691 259.952L259.104 211.826L211.136 0.000286058L0.000261725 48.1259L47.9691 259.952Z" fill="#EDEDF4"/>
<path d="M191.08 111.235C187.567 95.7856 178.086 82.3659 164.72 73.9225C151.354 65.4791 135.194 62.7022 119.788 66.2012C118.283 66.5456 116.726 66.9694 115.353 67.3933L129.558 130.017L191.978 115.792C191.714 114.335 191.424 112.745 191.08 111.235Z" fill="#219653"/>
<path d="M185.037 126.786L122.59 141.012L108.411 78.3877C97.5235 81.7674 87.8301 88.2084 80.4802 96.9471C73.1303 105.686 68.4322 116.356 66.9428 127.692C65.4534 139.028 67.2352 150.555 72.0769 160.906C76.9187 171.257 84.6173 179.998 94.2602 186.093C103.903 192.188 115.086 195.381 126.482 195.293C137.879 195.206 149.011 191.841 158.56 185.599C168.109 179.357 175.673 170.499 180.357 160.075C185.04 149.651 186.646 138.098 184.984 126.786H185.037Z" fill="#219653"/>
</g>
<g opacity="0.2">
<path opacity="0.2" d="M516.651 453.305C516.325 453.922 515.946 454.51 515.517 455.061C511.742 452.391 507.902 449.776 504 447.215C504.079 447.051 504.164 446.88 504.256 446.709C505.16 444.953 506.518 443.475 508.189 442.428C510.345 441.112 512.777 440.797 514.744 441.862C516.71 442.927 517.864 445.104 517.982 447.63C518.051 449.607 517.592 451.566 516.651 453.305Z" fill="#3F3D56"/>
<path opacity="0.2" d="M521.925 443.395C524.299 438.898 523.449 433.778 520.026 431.959C516.603 430.14 511.903 432.311 509.529 436.807C507.155 441.304 508.005 446.424 511.429 448.243C514.852 450.062 519.551 447.892 521.925 443.395Z" fill="#3F3D56"/>
<path opacity="0.2" d="M527.181 433.444C529.555 428.947 528.705 423.827 525.282 422.008C521.859 420.189 517.159 422.359 514.785 426.856C512.411 431.353 513.261 436.473 516.684 438.292C520.107 440.111 524.807 437.94 527.181 433.444Z" fill="#3F3D56"/>
<path opacity="0.2" d="M532.438 423.485C534.812 418.988 533.962 413.868 530.539 412.049C527.115 410.23 522.416 412.4 520.042 416.897C517.668 421.394 518.518 426.514 521.941 428.333C525.364 430.152 530.064 427.981 532.438 423.485Z" fill="#3F3D56"/>
<path opacity="0.2" d="M537.696 413.529C540.07 409.032 539.22 403.912 535.797 402.093C532.373 400.274 527.674 402.444 525.3 406.941C522.926 411.438 523.776 416.558 527.199 418.377C530.622 420.196 535.322 418.025 537.696 413.529Z" fill="#3F3D56"/>
<path opacity="0.2" d="M544.216 329.733C543.941 328.212 543.771 326.674 543.704 325.13L561.403 331.101L543.704 321.894C543.962 317.292 545.155 312.792 547.21 308.67C549.265 304.547 552.139 300.89 555.654 297.923L572.802 322.789L559.489 295.121C563.401 292.67 567.774 291.052 572.335 290.369C576.897 289.686 581.55 289.953 586.005 291.151C590.46 292.35 594.621 294.456 598.23 297.338C601.839 300.219 604.818 303.815 606.982 307.902C609.146 311.988 610.448 316.478 610.809 321.091C611.169 325.704 610.578 330.343 609.075 334.717C607.572 339.092 605.187 343.109 602.069 346.52C598.951 349.93 595.168 352.66 590.953 354.54C591.387 356.925 591.563 359.351 591.478 361.774L564.503 361.557L591.065 365.943C590.169 371.481 587.912 376.708 584.496 381.151C581.081 385.593 576.616 389.112 571.504 391.388C572.63 397.615 571.987 404.035 569.648 409.913C567.309 415.791 563.368 420.89 558.276 424.626C553.185 428.363 547.148 430.587 540.856 431.044C534.563 431.501 528.27 430.172 522.696 427.209C517.121 424.247 512.49 419.77 509.331 414.291C506.173 408.812 504.615 402.552 504.836 396.227C505.057 389.902 507.047 383.767 510.58 378.523C514.113 373.279 519.045 369.139 524.813 366.575C523.472 359.137 524.661 351.464 528.188 344.786C531.714 338.107 537.375 332.811 544.261 329.746L544.216 329.733Z" fill="#219653"/>
<path opacity="0.1" d="M587.537 376.348C584.016 383.035 578.351 388.336 571.457 391.395C572.583 397.622 571.94 404.042 569.601 409.92C567.262 415.798 563.321 420.896 558.229 424.633C553.138 428.37 547.101 430.594 540.809 431.051C534.517 431.508 528.223 430.179 522.649 427.216C517.074 424.254 512.443 419.777 509.284 414.298C506.126 408.819 504.568 402.559 504.789 396.234C505.01 389.909 507.001 383.774 510.533 378.53C514.066 373.286 518.998 369.146 524.766 366.582C523.461 359.4 589.307 373 587.537 376.348Z" fill="black"/>
</g>
<path opacity="0.1" d="M565.479 110.719C564.73 108.316 564.148 105.864 563.737 103.381L593.466 109.432L563.119 98.1444C562.621 90.7325 563.642 83.2971 566.119 76.293C568.595 69.289 572.476 62.8636 577.523 57.4101L610.105 93.8541L583.151 52.1081C588.968 47.413 595.688 43.9629 602.895 41.9717C610.101 39.9805 617.641 39.4908 625.045 40.533C632.449 41.5751 639.56 44.1269 645.936 48.03C652.312 51.933 657.817 57.1041 662.11 63.2221C666.403 69.3402 669.392 76.2747 670.891 83.5954C672.391 90.916 672.369 98.4666 670.827 105.778C669.285 113.09 666.255 120.007 661.927 126.1C657.598 132.193 652.063 137.332 645.664 141.198C646.832 144.943 647.594 148.801 647.939 152.709L604.438 157.748L648.11 159.489C647.77 168.557 645.172 177.396 640.553 185.209C635.934 193.021 629.439 199.559 621.655 204.231C624.704 213.998 624.941 224.425 622.341 234.32C619.74 244.216 614.407 253.181 606.95 260.19C599.493 267.2 590.213 271.972 580.171 273.96C570.128 275.949 559.729 275.074 550.161 271.435C540.593 267.797 532.242 261.542 526.062 253.385C519.883 245.228 516.124 235.498 515.215 225.308C514.307 215.117 516.285 204.876 520.925 195.756C525.564 186.636 532.677 179.004 541.451 173.733C537.799 162.058 538.181 149.494 542.535 138.062C546.889 126.63 554.964 116.993 565.46 110.7L565.479 110.719Z" fill="#219653"/>
</svg>
