<svg width="173" height="163" viewBox="0 0 173 163" fill="none" xmlns="http://www.w3.org/2000/svg">
<path fill-rule="evenodd" clip-rule="evenodd" d="M166.676 0L105.918 0.023675L111.135 3.93005V162.68H124.991V153.745C124.991 151.567 126.761 149.792 128.933 149.792H155.818C157.99 149.792 159.76 151.567 159.76 153.745V162.68H172.436V5.80037C172.436 2.60425 169.863 0 166.676 0Z" fill="#5D21D1"/>
<path fill-rule="evenodd" clip-rule="evenodd" d="M102.401 162.179V153.3C102.401 151.122 100.63 149.347 98.4588 149.347H21.8151C19.6435 149.347 17.8731 151.122 17.8731 153.3V162.131H0.972335L0.94873 6.06577C0.94873 3.15375 3.30918 0.786248 6.21253 0.786248L105.587 0.762573C108.774 0.762573 111.347 3.36682 111.347 6.56294V162.297L102.401 162.179Z" fill="white"/>
<path fill-rule="evenodd" clip-rule="evenodd" d="M105.587 0.0444336L6.212 0.0681086C2.91773 0.0681086 0.240234 2.7536 0.240234 6.05788L0.263839 162.123C0.263898 162.516 0.580923 162.834 0.971973 162.834H17.8728C18.2639 162.834 18.5809 162.516 18.5809 162.123V153.293C18.5809 151.507 20.0342 150.049 21.8147 150.049H98.4585C100.239 150.049 101.692 151.507 101.692 153.293V162.171C101.692 162.559 102.004 162.876 102.391 162.881L111.337 162.999C111.732 163.005 112.055 162.685 112.055 162.289V6.55505C112.055 2.96304 109.161 0.0444336 105.587 0.0444336ZM6.21594 1.48815L105.591 1.46448L105.674 1.46516C108.426 1.51015 110.642 3.77341 110.642 6.5546L110.642 161.569L103.112 161.469V153.292C103.112 150.722 101.025 148.628 98.4623 148.628H21.8185L21.7377 148.629C19.2121 148.672 17.1684 150.749 17.1684 153.292L17.1682 161.413H1.68365L1.66028 6.05732C1.66028 3.53766 3.70368 1.48815 6.21594 1.48815Z" fill="#2E186A"/>
<path fill-rule="evenodd" clip-rule="evenodd" d="M96.0822 140.701H17.5501C13.561 140.701 10.3271 137.458 10.3271 133.457V19.13C10.3271 15.129 13.561 11.8855 17.5501 11.8855H96.0822C100.071 11.8855 103.305 15.129 103.305 19.13V133.48C103.305 137.481 100.071 140.701 96.0822 140.701Z" fill="#2E186A"/>
<rect x="111.019" y="67.9572" width="61.4189" height="17.3538" fill="#2E186A"/>
<path fill-rule="evenodd" clip-rule="evenodd" d="M146.052 78.2318C146.939 78.2318 147.657 77.511 147.657 76.6219C147.657 75.7327 146.939 75.012 146.052 75.012C145.166 75.012 144.447 75.7327 144.447 76.6219C144.447 77.511 145.166 78.2318 146.052 78.2318Z" fill="white"/>
<path fill-rule="evenodd" clip-rule="evenodd" d="M137.569 78.2318C138.455 78.2318 139.174 77.511 139.174 76.6219C139.174 75.7327 138.455 75.012 137.569 75.012C136.682 75.012 135.964 75.7327 135.964 76.6219C135.964 77.511 136.682 78.2318 137.569 78.2318Z" fill="white"/>
<path fill-rule="evenodd" clip-rule="evenodd" d="M164.627 78.6831H155.02C154.524 78.6831 154.123 78.2806 154.123 77.7834V75.4869C154.123 74.9898 154.524 74.5873 155.02 74.5873H164.627C165.123 74.5873 165.524 74.9898 165.524 75.4869V77.7834C165.524 78.2806 165.123 78.6831 164.627 78.6831Z" fill="#5D21D1"/>
<path fill-rule="evenodd" clip-rule="evenodd" d="M128.459 78.6831H118.852C118.356 78.6831 117.955 78.2806 117.955 77.7834V75.4869C117.955 74.9898 118.356 74.5873 118.852 74.5873H128.459C128.955 74.5873 129.356 74.9898 129.356 75.4869V77.7834C129.356 78.2806 128.955 78.6831 128.459 78.6831Z" fill="#5D21D1"/>
<rect x="111.448" y="10.8171" width="60.9232" height="15.4361" fill="#2E186A"/>
<rect x="111.575" y="92.6096" width="60.8288" height="25.9004" fill="#2E186A"/>
<path fill-rule="evenodd" clip-rule="evenodd" d="M172.365 34.7571V36.1776H112.079V34.7571H172.365Z" fill="white"/>
<path fill-rule="evenodd" clip-rule="evenodd" d="M112.079 46.4045H172.365V47.825H112.079V46.4045Z" fill="white"/>
<path fill-rule="evenodd" clip-rule="evenodd" d="M172.365 58.08V59.5005H112.079V58.08H172.365Z" fill="white"/>
<path fill-rule="evenodd" clip-rule="evenodd" d="M98.1577 11.9123H61.4528C48.1398 10.7996 8.50792 14.2561 6.43073 24.6494C4.35353 35.0664 26.4945 39.3753 26.4945 39.3753C17.3832 62.6951 25.4559 71.5732 34.5201 76.8764C37.5886 82.369 42.0263 86.5358 47.3373 88.4772L47.2665 88.6192C44.4811 91.0577 42.2623 96.2189 43.9618 100.244C37.8955 97.8998 30.9558 98.7758 25.5976 102.564L10.4907 97.1422C7.94141 96.8581 5.88782 99.273 6.61956 101.735C8.9092 109.43 13.2996 114.188 17.1 117.029C16.9111 118.213 16.8167 119.468 16.7695 120.77C16.7459 121.504 16.7459 122.214 16.7459 122.901C14.1258 124.534 10.113 127.423 6.3127 131.944C4.89644 133.625 5.41573 135.922 6.76119 137.461C9.92419 141.012 17.1472 143.711 25.2907 141.367H98.1577C101.061 141.367 103.422 139 103.422 136.088V17.8784C103.422 15.0137 101.061 11.9123 98.1577 11.9123Z" fill="#00AC45"/>
<path fill-rule="evenodd" clip-rule="evenodd" d="M56.4096 102.518C56.7385 98.0634 59.9678 95.7629 64.2849 95.939C68.1409 96.0962 71.7401 98.2268 72.1675 100.973L72.1852 101.096C72.2723 101.736 72.2825 102.352 72.2402 103.878L72.1938 105.408C72.1067 108.492 72.171 110.341 72.538 112.425C73.0786 115.494 74.238 118.006 76.2126 119.968C78.5631 122.304 82.0412 123.817 86.8684 124.38C87.2569 124.425 87.5352 124.778 87.49 125.167C87.4448 125.557 87.0933 125.836 86.7048 125.791C81.5797 125.193 77.8066 123.552 75.2158 120.977C73.0138 118.789 71.7314 116.01 71.1434 112.672L71.1 112.419C70.7576 110.362 70.6943 108.501 70.7728 105.559L70.8236 103.866C70.8662 102.33 70.8542 101.765 70.7676 101.188C70.4668 99.2555 67.4863 97.4912 64.2274 97.3583C60.65 97.2124 58.1394 98.9739 57.8306 102.515L57.7657 103.286C57.6859 104.185 57.5568 105.569 57.5488 105.659L57.5015 106.208C57.1134 110.841 57.1019 114.518 57.6768 118.229C58.8202 125.609 62.1691 130.874 68.454 133.448C68.816 133.596 68.9897 134.011 68.8418 134.374C68.694 134.737 68.2806 134.911 67.9186 134.763C61.1158 131.977 57.4905 126.278 56.2773 118.447C55.6814 114.6 55.6933 110.823 56.0906 106.084L56.3711 102.978C56.3887 102.777 56.4024 102.614 56.4096 102.518Z" fill="#2E186A"/>
<path fill-rule="evenodd" clip-rule="evenodd" d="M61.0966 97.0866C61.1699 96.7013 61.5408 96.4486 61.9249 96.5221C62.3091 96.5957 62.5611 96.9676 62.4878 97.3529L62.4202 97.712C61.3325 103.567 60.9873 108.928 62.1686 111.349C62.3405 111.702 62.1951 112.127 61.8438 112.299C61.4925 112.472 61.0684 112.326 60.8965 111.974C60.0924 110.326 59.8886 107.691 60.1239 104.303C60.2884 101.932 60.6498 99.4349 61.0966 97.0866Z" fill="#2E186A"/>
<path fill-rule="evenodd" clip-rule="evenodd" d="M66.0567 97.1547C66.1328 96.77 66.5054 96.5199 66.889 96.5962C67.2727 96.6725 67.522 97.0463 67.4459 97.4311L67.3806 97.7656C66.3285 103.225 66.0009 108.439 67.194 110.798C67.3709 111.148 67.2316 111.575 66.8828 111.753C66.534 111.93 66.1078 111.79 65.9309 111.44C65.1133 109.824 64.8965 107.269 65.1183 104.007C65.2732 101.728 65.6285 99.3199 66.0567 97.1547Z" fill="#2E186A"/>
<path fill-rule="evenodd" clip-rule="evenodd" d="M45.0848 88.7595C50.0104 85.6368 59.0417 89.2041 67.2187 96.3286C67.514 96.5859 67.5454 97.0345 67.2889 97.3306C67.0325 97.6267 66.5852 97.6583 66.29 97.401C58.5457 90.6536 50.0445 87.2956 45.8415 89.9602C45.5109 90.1698 45.0735 90.0709 44.8645 89.7393C44.6556 89.4078 44.7542 88.9691 45.0848 88.7595Z" fill="#2E186A"/>
<path fill-rule="evenodd" clip-rule="evenodd" d="M42.2914 98.2116C42.6574 98.0734 43.0658 98.259 43.2036 98.6261C44.4906 102.056 46.6137 103.505 50.9222 104.578L51.3017 104.672C53.6686 105.263 55.3477 105.829 56.891 106.569C57.2439 106.738 57.3931 107.162 57.2243 107.516C57.0556 107.87 56.6328 108.02 56.28 107.851C54.7563 107.12 53.0697 106.563 50.5845 105.958C48.3674 105.406 46.8257 104.816 45.4883 103.903C43.8682 102.796 42.6781 101.258 41.8781 99.1265C41.7403 98.7594 41.9254 98.3498 42.2914 98.2116Z" fill="#2E186A"/>
<path fill-rule="evenodd" clip-rule="evenodd" d="M51.4948 100.853C51.6407 100.504 52.0318 100.333 52.3829 100.457L52.4217 100.472L57.2606 102.509C57.6213 102.66 57.791 103.077 57.6397 103.438C57.4938 103.787 57.1027 103.958 56.7516 103.833L56.7127 103.818L51.8738 101.782C51.5132 101.631 51.3435 101.214 51.4948 100.853Z" fill="#2E186A"/>
<path fill-rule="evenodd" clip-rule="evenodd" d="M54.8519 95.2182C55.0338 94.8875 55.44 94.7595 55.7756 94.9197L55.814 94.9395L59.9212 97.2123C60.2636 97.4017 60.3881 97.8338 60.1991 98.1772C60.0172 98.508 59.611 98.636 59.2754 98.4758L59.237 98.456L55.1299 96.1832C54.7874 95.9937 54.663 95.5617 54.8519 95.2182Z" fill="#2E186A"/>
<path fill-rule="evenodd" clip-rule="evenodd" d="M5.87673 133.049C6.13149 132.771 6.55548 132.744 6.84345 132.978L6.95675 133.077C6.97263 133.09 6.99061 133.105 7.01068 133.122C7.13311 133.224 7.27957 133.338 7.44928 133.462C7.93972 133.821 8.5141 134.182 9.16596 134.519C10.8762 135.403 12.7952 135.964 14.8865 136.049C17.5581 136.157 20.3393 135.475 23.2075 133.836C23.5473 133.642 23.9797 133.761 24.1733 134.102C24.3669 134.443 24.2484 134.876 23.9086 135.07C20.8104 136.841 17.7665 137.587 14.8294 137.468C12.5181 137.375 10.4012 136.755 8.51719 135.781C7.85314 135.438 7.26017 135.072 6.74241 134.702L6.61453 134.61C6.28059 134.366 6.04658 134.171 5.91785 134.052C5.63018 133.787 5.61177 133.337 5.87673 133.049Z" fill="#2E186A"/>
<path fill-rule="evenodd" clip-rule="evenodd" d="M8.41166 98.3603C8.78347 98.2971 9.13669 98.5369 9.22006 98.9009L9.24445 99.025L9.25023 99.0525C9.27217 99.1559 9.30087 99.2773 9.33704 99.4155C9.44201 99.8163 9.58532 100.266 9.77254 100.751C10.3097 102.144 11.0892 103.538 12.1544 104.839C13.9196 106.994 16.2928 108.675 19.3755 109.703C19.7466 109.827 19.9474 110.229 19.824 110.601C19.7006 110.974 19.2997 111.175 18.9286 111.051C15.5863 109.937 12.991 108.098 11.06 105.74C9.89334 104.316 9.04059 102.79 8.45165 101.263C8.24472 100.727 8.0853 100.227 7.96724 99.7763L7.93345 99.6443C7.88111 99.4346 7.84841 99.2772 7.83185 99.1793C7.76648 98.7926 8.02607 98.4259 8.41166 98.3603Z" fill="#2E186A"/>
<path fill-rule="evenodd" clip-rule="evenodd" d="M78.7953 23.5092L78.6885 23.5815L73.3788 27.1257C71.181 28.5967 69.4231 29.8028 67.7155 31.0236L67.2881 31.3303C60.7774 36.0202 56.2525 40.1083 53.7303 43.9677C51.5099 47.3651 51.02 50.3739 52.4169 53.0541L52.4528 53.1219L52.518 53.222C55.1447 57.2106 58.7862 58.8902 63.2643 58.6942L63.4016 58.6876C66.6713 58.5172 70.2004 57.3691 73.7923 55.5461C75.1653 54.8493 76.439 54.1092 77.6497 53.3358L77.852 53.2059C78.0804 53.0586 78.2872 52.9225 78.5312 52.7597L79.06 52.407L79.1221 52.3676C79.1314 52.3618 79.1403 52.3564 79.1489 52.3512L79.3938 52.2118C79.7587 52.0105 79.7162 52.0978 80.0559 52.4385C80.1738 52.5568 80.2464 52.713 80.2607 52.8797C81.1275 62.9492 83.495 70.0605 87.1997 74.7356C90.3004 78.6483 94.264 80.8099 99.3021 81.7656C99.6864 81.8385 99.939 82.21 99.8663 82.5954C99.7936 82.9809 99.4232 83.2342 99.0389 83.1613C93.6861 82.146 89.4188 79.8188 86.091 75.6194C82.3863 70.9444 79.9856 64.0534 78.9935 54.5167L78.9589 54.1785L78.9122 54.2095C78.783 54.2942 78.6547 54.3774 78.5163 54.4662L78.4105 54.534C77.1629 55.3309 75.8498 56.0939 74.4317 56.8136C70.679 58.7182 66.9729 59.9239 63.4751 60.1062C58.4035 60.3705 54.1969 58.4363 51.2492 53.8714C51.239 53.8557 51.2295 53.8396 51.2206 53.8231C49.4812 50.5967 50.0401 47.0231 52.5458 43.189C55.245 39.0588 60.0195 34.7811 66.8935 29.8669L67.4296 29.4852C68.9853 28.3825 70.612 27.2698 72.5923 25.9444L77.9279 22.3826C77.9541 22.3649 77.9788 22.3482 78.0018 22.3326C78.3257 22.1128 78.766 22.198 78.9851 22.5229C79.2042 22.8478 79.1193 23.2894 78.7953 23.5092Z" fill="#2E186A"/>
<path fill-rule="evenodd" clip-rule="evenodd" d="M58.4718 11.8993C58.8183 11.7173 59.2462 11.8516 59.4276 12.1991C59.609 12.5466 59.4752 12.9758 59.1287 13.1577C55.4729 15.0774 51.6184 17.9941 47.3364 21.9525C38.7921 29.8521 33.4906 39.8328 31.603 50.5381C29.9083 60.1491 31.1209 69.8009 34.7444 77.1298C34.9181 77.4812 34.775 77.9074 34.4246 78.0816C34.0742 78.2559 33.6493 78.1123 33.4756 77.7609C29.7137 70.1521 28.4624 60.1925 30.2084 50.2907C32.149 39.2844 37.6 29.0223 46.3765 20.908C50.742 16.8724 54.6895 13.8854 58.4718 11.8993Z" fill="#2E186A"/>
<path fill-rule="evenodd" clip-rule="evenodd" d="M59.1792 47.2878C60.2482 47.2878 61.1148 46.4187 61.1148 45.3465C61.1148 44.2743 60.2482 43.4052 59.1792 43.4052C58.1102 43.4052 57.2437 44.2743 57.2437 45.3465C57.2437 46.4187 58.1102 47.2878 59.1792 47.2878Z" fill="#2E186A"/>
<path fill-rule="evenodd" clip-rule="evenodd" d="M61.3711 53.3744C62.4401 53.3744 63.3067 52.5052 63.3067 51.433C63.3067 50.3609 62.4401 49.4917 61.3711 49.4917C60.3021 49.4917 59.4355 50.3609 59.4355 51.433C59.4355 52.5052 60.3021 53.3744 61.3711 53.3744Z" fill="#2E186A"/>
<path fill-rule="evenodd" clip-rule="evenodd" d="M68.3115 55.2374C69.3805 55.2374 70.2471 54.3683 70.2471 53.2961C70.2471 52.2239 69.3805 51.3547 68.3115 51.3547C67.2426 51.3547 66.376 52.2239 66.376 53.2961C66.376 54.3683 67.2426 55.2374 68.3115 55.2374Z" fill="#2E186A"/>
<path fill-rule="evenodd" clip-rule="evenodd" d="M67.0664 49.8182C69.6216 49.8182 71.6929 47.7407 71.6929 45.1779C71.6929 42.6151 69.6216 40.5376 67.0664 40.5376C64.5113 40.5376 62.4399 42.6151 62.4399 45.1779C62.4399 47.7407 64.5113 49.8182 67.0664 49.8182Z" fill="#2E186A"/>
<path fill-rule="evenodd" clip-rule="evenodd" d="M16.4522 26.5498C17.5212 26.5498 18.3877 25.6806 18.3877 24.6085C18.3877 23.5363 17.5212 22.6671 16.4522 22.6671C15.3832 22.6671 14.5166 23.5363 14.5166 24.6085C14.5166 25.6806 15.3832 26.5498 16.4522 26.5498Z" fill="#2E186A"/>
<path fill-rule="evenodd" clip-rule="evenodd" d="M18.7465 21.4353C20.9417 21.5064 22.7829 19.7781 22.8537 17.5763C22.8773 16.9134 22.6649 16.0848 22.4052 15.5166C19.7143 15.8954 17.2358 16.8898 14.9934 17.671C14.9226 19.8491 16.5749 21.3643 18.7465 21.4353Z" fill="#2E186A"/>
<path fill-rule="evenodd" clip-rule="evenodd" d="M8.8791 21.2682C8.83189 22.4282 9.79967 23.3752 10.9799 23.2568C11.8297 23.1858 12.5614 22.5229 12.7266 21.6706C12.9155 20.5816 12.1837 19.5872 11.1687 19.3978C10.3426 19.8713 9.58723 20.3922 8.92631 20.9841C8.9027 21.1024 8.8791 21.1971 8.8791 21.2682Z" fill="#2E186A"/>
<path fill-rule="evenodd" clip-rule="evenodd" d="M27.4961 114.292C29.0795 114.039 30.2335 113.018 30.0735 112.011C29.9136 111.004 28.5003 110.392 26.9169 110.645C25.3334 110.898 24.1795 111.92 24.3394 112.927C24.4994 113.934 25.9127 114.545 27.4961 114.292Z" fill="#2E186A"/>
<path fill-rule="evenodd" clip-rule="evenodd" d="M31.5781 127.831C33.1616 127.578 34.3155 126.556 34.1556 125.549C33.9956 124.542 32.5823 123.931 30.9989 124.184C29.4155 124.437 28.2615 125.458 28.4214 126.465C28.5814 127.473 29.9947 128.084 31.5781 127.831Z" fill="#2E186A"/>
<path fill-rule="evenodd" clip-rule="evenodd" d="M34.9914 111.87L38.4848 114.072C38.9805 114.38 39.1222 115.066 38.7917 115.54L36.6909 118.641C36.1952 119.375 35.0386 119.186 34.8262 118.31L33.4335 113.007C33.1738 112.083 34.1888 111.349 34.9914 111.87Z" fill="#2E186A"/>
<path fill-rule="evenodd" clip-rule="evenodd" d="M39.8359 110.198C39.8931 109.81 40.2532 109.542 40.64 109.6C42.9678 109.945 43.6377 111.296 42.3784 112.733C42.1293 113.017 41.7996 113.309 41.4186 113.592L41.3432 113.647L41.3769 113.649C42.0349 113.685 42.6275 113.768 43.0935 113.905L43.1794 113.931C44.0972 114.224 44.6626 114.795 44.5148 115.65C44.3913 116.363 43.733 117.08 42.5199 117.918C42.1979 118.141 41.7569 118.06 41.5349 117.737C41.3129 117.414 41.394 116.972 41.716 116.749C42.2229 116.398 42.596 116.088 42.8387 115.824C42.9855 115.665 43.069 115.539 43.103 115.459L43.1067 115.449L43.0978 115.442C43.0389 115.399 42.9398 115.35 42.8031 115.303L42.7501 115.285C41.8426 114.995 40.011 114.982 38.3617 115.197C37.5267 115.306 37.2337 114.123 38.0224 113.827C39.2966 113.35 40.7022 112.494 41.3146 111.795C41.4373 111.655 41.518 111.533 41.5567 111.44L41.5761 111.388C41.5771 111.385 41.578 111.384 41.5787 111.383L41.5807 111.381L41.576 111.376C41.5554 111.353 41.5071 111.317 41.419 111.272L41.384 111.255C41.1726 111.154 40.8551 111.068 40.4328 111.005C40.0459 110.947 39.7787 110.586 39.8359 110.198Z" fill="#2E186A"/>
<path fill-rule="evenodd" clip-rule="evenodd" d="M31.2228 81.5833C31.3844 81.2261 31.8042 81.0679 32.1603 81.23C32.5164 81.3921 32.6741 81.8131 32.5125 82.1703C29.3821 89.0889 29.9934 97.9337 35.5139 106.834C35.7205 107.167 35.6188 107.605 35.2867 107.812C34.9546 108.019 34.5179 107.917 34.3114 107.584C28.5419 98.2826 27.8959 88.9361 31.2228 81.5833Z" fill="white"/>
<path fill-rule="evenodd" clip-rule="evenodd" d="M41.1847 80.854C41.4185 80.5395 41.8622 80.4747 42.1757 80.7091C42.4893 80.9436 42.5539 81.3886 42.3202 81.7031C37.7608 87.8369 36.4885 96.6234 39.9649 106.444C40.0958 106.814 39.9031 107.22 39.5345 107.351C39.166 107.482 38.7611 107.289 38.6303 106.919C34.9966 96.6544 36.3408 87.3706 41.1847 80.854Z" fill="white"/>
<path fill-rule="evenodd" clip-rule="evenodd" d="M38.8757 126.377C38.9292 125.988 39.2866 125.717 39.674 125.77C40.0615 125.824 40.3322 126.182 40.2787 126.571C39.6187 131.365 40.2875 136.41 41.9978 141.101C43.4553 145.098 45.5951 148.545 47.5763 150.303C47.8692 150.563 47.8965 151.012 47.6373 151.306C47.3782 151.6 46.9306 151.627 46.6377 151.367C44.463 149.437 42.2004 145.792 40.6677 141.589C38.8817 136.69 38.1822 131.414 38.8757 126.377Z" fill="#2E186A"/>
<path fill-rule="evenodd" clip-rule="evenodd" d="M43.7707 124.441C44.1606 124.41 44.5017 124.702 44.5327 125.093C44.9161 129.932 46.6458 134.721 49.3136 138.932C51.5893 142.524 54.4127 145.424 56.7278 146.712C57.0698 146.902 57.1934 147.334 57.0037 147.677C56.8141 148.02 56.3831 148.144 56.041 147.954C53.4988 146.54 50.512 143.472 48.1182 139.694C45.3324 135.297 43.5237 130.289 43.1209 125.206C43.0899 124.815 43.3809 124.473 43.7707 124.441Z" fill="#2E186A"/>
</svg>
