<svg width="62" height="19" viewBox="0 0 62 19" fill="none" xmlns="http://www.w3.org/2000/svg">
<path d="M9.62238 0.0976562C4.50786 0.0976562 0.440918 4.27352 0.440918 9.36018C0.440918 14.5026 4.50786 18.6795 9.62238 18.6795C14.7639 18.6795 18.7763 14.5033 18.7763 9.3618C18.7771 4.27514 14.7639 0.0976562 9.62238 0.0976562ZM9.62238 4.02933C13.7984 4.02933 16.8577 6.68136 18.1505 9.3618C16.8577 12.0832 13.7984 14.7478 9.62238 14.7478C5.41933 14.7478 2.38459 12.0823 1.09268 9.3618C2.38459 6.68223 5.4202 4.03095 9.62238 4.03095V4.02933V4.02933ZM9.62238 4.45087C6.90189 4.45087 4.68388 6.65275 4.68388 9.36018C4.68388 12.1085 6.90189 14.2987 9.62238 14.2987C12.3429 14.2987 14.5317 12.1084 14.5317 9.3618C14.5317 6.65437 12.3429 4.45087 9.62238 4.45087Z" fill="#8C8C8C"/>
<path d="M27.5554 1.2002C22.7534 1.2002 19.4067 4.84542 19.4067 9.27917V9.33267C19.4067 13.8213 22.8216 17.3727 27.4338 17.3727C30.4399 17.3727 32.2359 16.2975 33.8412 14.5695L31.6509 12.3678C30.426 13.4821 29.3229 14.2047 27.5408 14.2047C24.8613 14.2047 22.9979 11.9579 22.9979 9.27917V9.23864C22.9979 6.55906 24.9022 4.36823 27.5408 4.36823C29.1052 4.36823 30.3297 5.03495 31.5406 6.13707L33.731 3.60622C32.2754 2.1785 30.5075 1.2002 27.5554 1.2002Z" fill="#8C8C8C"/>
<path d="M35.1382 1.47168V17.0995H42.5784C46.1006 17.0995 48.4264 15.673 48.4264 12.8176V12.7625C48.4264 10.6679 47.3123 9.61941 45.5016 8.92645C46.6176 8.30139 47.5558 7.32223 47.5558 5.55413V5.5136C47.5558 4.43759 47.2017 3.56737 46.4808 2.84655C45.5842 1.96293 44.1829 1.47168 42.4 1.47168H35.1382ZM38.4829 4.47758H41.8844C43.34 4.47758 44.1413 5.06238 44.1413 6.08268V6.1378C44.1413 7.2939 43.1761 7.78343 41.6526 7.78343L38.4829 7.78505V4.47758V4.47758ZM38.4829 10.6418H42.4697C44.223 10.6418 45.0119 11.2953 45.0119 12.3425V12.396C45.0119 13.5521 44.0879 14.0822 42.5784 14.0822L38.4829 14.0838V10.6418V10.6418Z" fill="#8C8C8C"/>
<path d="M55.1668 1.24219C51.984 1.24219 49.6997 3.11869 49.6997 5.96019V6.00235C49.6997 9.10501 51.7387 9.97606 54.8814 10.7787C57.4931 11.4578 58.0365 11.8926 58.0365 12.7632V12.8183C58.0365 13.7289 57.1787 14.2872 55.778 14.2872C53.982 14.2872 52.5135 13.5513 51.1119 12.3952L49.0723 14.8304C50.9492 16.5036 53.3429 17.3207 55.7099 17.3207V17.3191C59.0833 17.3191 61.4493 15.577 61.4493 12.4778V12.4373C61.4493 9.70377 59.6546 8.5724 56.4849 7.74363C53.7923 7.04893 53.1109 6.70973 53.1109 5.68943V5.6489C53.1109 4.88716 53.8048 4.27565 55.1246 4.27565C56.4444 4.27565 57.8048 4.85942 59.1925 5.824L60.9743 3.22829C59.396 1.96337 57.452 1.24219 55.1668 1.24219Z" fill="#8C8C8C"/>
</svg>
