<svg width="33" height="32" viewBox="0 0 33 32" fill="none" xmlns="http://www.w3.org/2000/svg">
<path d="M20.0635 11.72L14.3435 17.4534L12.1435 15.2534C12.024 15.1138 11.8769 15.0004 11.7115 14.9204C11.5461 14.8404 11.3659 14.7954 11.1823 14.7883C10.9986 14.7812 10.8155 14.8121 10.6444 14.8792C10.4733 14.9462 10.3179 15.0479 10.188 15.1778C10.058 15.3078 9.95637 15.4632 9.88934 15.6343C9.82231 15.8054 9.79136 15.9885 9.79846 16.1721C9.80555 16.3557 9.85052 16.5359 9.93055 16.7013C10.0106 16.8667 10.1239 17.0138 10.2635 17.1334L13.3969 20.28C13.5214 20.4036 13.6692 20.5014 13.8316 20.5677C13.9941 20.6341 14.168 20.6677 14.3435 20.6667C14.6933 20.6652 15.0285 20.5263 15.2769 20.28L21.9435 13.6134C22.0685 13.4894 22.1677 13.3419 22.2354 13.1795C22.3031 13.017 22.3379 12.8427 22.3379 12.6667C22.3379 12.4907 22.3031 12.3164 22.2354 12.1539C22.1677 11.9914 22.0685 11.844 21.9435 11.72C21.6937 11.4717 21.3558 11.3323 21.0035 11.3323C20.6513 11.3323 20.3133 11.4717 20.0635 11.72ZM16.4369 2.66669C13.7998 2.66669 11.2219 3.44867 9.02925 4.91376C6.8366 6.37884 5.12763 8.46123 4.11846 10.8976C3.10929 13.3339 2.84525 16.0148 3.35972 18.6012C3.87419 21.1876 5.14406 23.5634 7.00876 25.4281C8.87347 27.2928 11.2492 28.5627 13.8357 29.0772C16.4221 29.5916 19.103 29.3276 21.5393 28.3184C23.9757 27.3092 26.058 25.6003 27.5231 23.4076C28.9882 21.215 29.7702 18.6371 29.7702 16C29.7702 14.2491 29.4253 12.5152 28.7552 10.8976C28.0852 9.2799 27.1031 7.81004 25.8649 6.57193C24.6268 5.33382 23.157 4.35169 21.5393 3.68163C19.9216 3.01156 18.1878 2.66669 16.4369 2.66669ZM16.4369 26.6667C14.3272 26.6667 12.2649 26.0411 10.5108 24.869C8.75665 23.697 7.38948 22.0311 6.58214 20.082C5.77481 18.1329 5.56357 15.9882 5.97515 13.9191C6.38672 11.8499 7.40262 9.94931 8.89438 8.45755C10.3861 6.96579 12.2868 5.94989 14.3559 5.53831C16.425 5.12674 18.5697 5.33797 20.5188 6.14531C22.4679 6.95264 24.1338 8.31981 25.3059 10.0739C26.4779 11.8281 27.1035 13.8904 27.1035 16C27.1035 18.829 25.9797 21.5421 23.9793 23.5425C21.9789 25.5429 19.2658 26.6667 16.4369 26.6667Z" fill="#33B86A"/>
</svg>
