<svg width="13" height="13" viewBox="0 0 13 13" fill="none" xmlns="http://www.w3.org/2000/svg">
<path d="M11.7546 2H10.3115C9.99763 2 9.69916 2.1541 9.51454 2.41827L4.67746 9.27406L2.48662 6.16694C2.302 5.90592 2.00661 5.74867 1.68967 5.74867H0.246551C0.0465451 5.74867 -0.0703818 5.98139 0.046545 6.14807L3.88051 11.5824C3.97109 11.7116 4.09049 11.8169 4.22881 11.8895C4.36714 11.9621 4.52041 12 4.67592 12C4.83144 12 4.98471 11.9621 5.12304 11.8895C5.26136 11.8169 5.38076 11.7116 5.47133 11.5824L11.9515 2.3994C12.0715 2.23272 11.9546 2 11.7546 2Z" fill="#00AC45"/>
</svg>
