<svg width="328" height="204" viewBox="0 0 328 204" fill="none" xmlns="http://www.w3.org/2000/svg">
<path fill-rule="evenodd" clip-rule="evenodd" d="M326.481 84.1068L313.738 77.0342V36.1543H280.547V58.6109L190.472 8.61279L0.881104 120.419V202.422L327.178 202.493L326.481 84.1068Z" fill="#A1F7C4"/>
<path fill-rule="evenodd" clip-rule="evenodd" d="M297.182 7.23542C297.182 7.23542 294.956 -2.7251 287.324 0.727219C279.357 4.33096 288.482 22.2891 296.517 24.8356C296.82 24.9285 297.135 24.974 297.452 24.9705C297.769 24.974 298.086 24.9285 298.389 24.8356C306.405 22.2863 314.543 3.63719 307.12 0.727219C299.316 -2.32866 297.182 7.23542 297.182 7.23542Z" fill="#00AC45"/>
<path fill-rule="evenodd" clip-rule="evenodd" d="M166.709 203.424V139.732C166.709 116.251 168.697 88.1098 226.386 88.308C284.334 89.3542 286.063 116.251 286.063 139.732V203.424H166.709Z" fill="#00AC45"/>
<rect x="99.9868" y="188.423" width="166.186" height="14.5333" fill="#2E186A"/>
<path fill-rule="evenodd" clip-rule="evenodd" d="M317.423 181.216C315.769 179.974 313.764 180.417 312.038 181.364C311.894 180.362 311.762 179.745 311.762 179.745H276.875C276.875 179.745 274.848 189.656 277.809 194.626C280.771 199.595 289.027 202.249 289.027 202.249H299.615C299.615 202.249 307.888 199.603 310.833 194.626C311.091 194.187 311.309 193.726 311.486 193.249C313.279 192.742 315.04 192.127 316.758 191.407C318.515 190.73 319.756 189.143 319.987 187.278C320.247 184.949 319.275 182.654 317.423 181.216ZM317.565 186.959C317.458 187.96 316.785 188.812 315.834 189.147C314.301 189.772 313.076 190.205 312.18 190.494C312.471 188.367 312.523 186.214 312.335 184.076C313.487 183.25 315.029 182.46 315.95 183.157C317.094 184.072 317.702 185.501 317.565 186.959Z" fill="#5D21D1"/>
<path fill-rule="evenodd" clip-rule="evenodd" d="M209.997 99.4518C209.997 99.4518 227.609 95.6884 234.279 99.16C238.44 101.327 243.219 107.336 250.694 128.406C250.799 128.697 232.823 139.855 232.823 139.855L233.278 186.971L171.93 186.115L175.791 153.161C175.791 153.161 168.415 146.898 168.514 138.479C168.613 130.06 168.919 130.377 168.919 130.377L158.772 128.623C158.772 128.623 164.058 111.16 170.397 107.386C170.397 107.37 180.983 102.232 209.997 99.4518Z" fill="#5D21D1"/>
<path fill-rule="evenodd" clip-rule="evenodd" d="M222.929 140.697L229.845 161.854C229.845 161.854 207.962 169.312 194.216 170.505C193.598 170.56 181.181 175.347 182.455 175.95C189.9 179.482 181.879 181.77 191.726 180.446C191.726 180.446 215.04 185.649 244.547 180.25C248.093 179.603 251.893 176.575 252.925 173.125C255.464 164.591 255.892 141.531 249.144 126.874L222.929 140.697Z" fill="white"/>
<path fill-rule="evenodd" clip-rule="evenodd" d="M222.542 139.966L222.498 139.991C222.172 140.189 222.022 140.586 222.142 140.953L228.803 161.331L228.05 161.578L227.207 161.852L226.307 162.14L225.351 162.442C222.074 163.472 218.593 164.501 215.057 165.462C212.065 166.275 209.165 167.002 206.407 167.621L205.77 167.762C205.665 167.785 205.56 167.808 205.455 167.831L204.829 167.966L204.21 168.097L203.598 168.223C203.497 168.244 203.396 168.264 203.295 168.285L202.694 168.404L202.101 168.519L201.514 168.63L200.936 168.736C200.84 168.753 200.745 168.77 200.65 168.787L200.083 168.886C199.989 168.902 199.895 168.918 199.802 168.934L199.247 169.026C199.063 169.056 198.881 169.085 198.699 169.114L198.16 169.196C197.982 169.223 197.804 169.249 197.629 169.274L197.106 169.347C196.068 169.488 195.079 169.6 194.143 169.681L194.102 169.686C194.094 169.688 194.085 169.689 194.077 169.691L193.986 169.711L193.873 169.741L193.737 169.781L193.636 169.812L193.406 169.887L193.074 169.999L192.775 170.105L192.363 170.253L191.631 170.526L191.136 170.714L190.616 170.915L189.64 171.3L188.859 171.615L188.075 171.937L187.302 172.261L186.79 172.479L186.297 172.693L185.824 172.901L185.521 173.037L185.228 173.17L184.945 173.3L184.673 173.427L184.411 173.552L184.16 173.673L183.921 173.791L183.694 173.906C183.657 173.924 183.621 173.943 183.585 173.962L183.376 174.071C183.342 174.089 183.308 174.107 183.276 174.124L183.07 174.236L182.88 174.344C182.512 174.556 182.229 174.746 182.028 174.919C181.809 175.108 181.657 175.294 181.579 175.545C181.429 176.03 181.668 176.491 182.1 176.695C183.555 177.386 184.431 178.039 184.886 178.663C185.135 179.005 185.223 179.228 185.302 179.7L185.327 179.857L185.348 179.998L185.365 180.104L185.385 180.206L185.406 180.303L185.43 180.397C185.583 180.966 185.872 181.321 186.465 181.501L186.564 181.529C186.649 181.551 186.739 181.57 186.836 181.586L186.955 181.603C186.995 181.608 187.037 181.613 187.08 181.618L187.211 181.629C187.233 181.631 187.256 181.633 187.278 181.634L187.419 181.642C187.443 181.643 187.467 181.644 187.492 181.644L187.643 181.648L187.8 181.648C187.827 181.648 187.854 181.648 187.881 181.648L188.049 181.645L188.225 181.639L188.407 181.63L188.598 181.619L188.898 181.598L189.215 181.572L189.438 181.551L189.787 181.515L190.155 181.475L190.411 181.445L190.952 181.379L191.381 181.324L191.691 181.282L191.946 181.335L192.267 181.399L192.661 181.475L193.091 181.555L193.398 181.61L193.855 181.69L194.325 181.77C194.405 181.784 194.485 181.797 194.566 181.81L195.058 181.89L195.563 181.969C195.649 181.982 195.735 181.995 195.821 182.008L196.348 182.086L196.888 182.164L197.442 182.241L198.009 182.317L198.59 182.392C204.303 183.117 210.692 183.545 217.595 183.526C226.491 183.501 235.578 182.73 244.696 181.062C248.645 180.341 252.621 177.026 253.716 173.361C253.816 173.025 253.912 172.671 254.004 172.299L254.082 171.976C254.108 171.867 254.134 171.757 254.159 171.645L254.233 171.305C254.269 171.133 254.305 170.958 254.34 170.781L254.41 170.421C254.455 170.179 254.499 169.932 254.542 169.68L254.605 169.298L254.666 168.909C254.676 168.844 254.686 168.778 254.696 168.712L254.754 168.313L254.809 167.908L254.863 167.496L254.914 167.077L254.964 166.653L255.011 166.223L255.055 165.787C255.063 165.714 255.07 165.64 255.077 165.567L255.118 165.123L255.158 164.673L255.195 164.219C255.2 164.143 255.206 164.066 255.212 163.99L255.246 163.528L255.277 163.062C255.282 162.983 255.286 162.905 255.291 162.827L255.319 162.354L255.344 161.876L255.367 161.395L255.387 160.91L255.405 160.422L255.42 159.929L255.433 159.434L255.444 158.936C255.445 158.852 255.447 158.769 255.448 158.685L255.455 158.182L255.459 157.677L255.46 157.169L255.459 156.659L255.455 156.147L255.449 155.632C255.448 155.546 255.446 155.46 255.445 155.374L255.435 154.858C255.433 154.771 255.431 154.685 255.428 154.599L255.414 154.08L255.397 153.56L255.377 153.038C255.367 152.778 255.355 152.516 255.342 152.255C254.87 142.498 253.053 133.389 249.895 126.528C249.697 126.098 249.177 125.922 248.757 126.143L222.542 139.966ZM248.748 128.016L248.811 128.159C251.613 134.691 253.249 143.216 253.69 152.335L253.702 152.591L253.725 153.102L253.744 153.612L253.761 154.122L253.775 154.63C253.777 154.715 253.779 154.799 253.781 154.884L253.791 155.39L253.798 155.894L253.803 156.397L253.806 156.897L253.806 157.395C253.806 157.478 253.805 157.561 253.805 157.643L253.801 158.138L253.795 158.63L253.786 159.119L253.774 159.605L253.761 160.088L253.745 160.567C253.742 160.647 253.739 160.726 253.736 160.805L253.716 161.279L253.694 161.749L253.67 162.215L253.643 162.677L253.615 163.135C253.61 163.21 253.605 163.286 253.599 163.362L253.567 163.812L253.533 164.258L253.496 164.698L253.457 165.134L253.416 165.563L253.373 165.988L253.328 166.407L253.28 166.819L253.231 167.226C253.222 167.293 253.214 167.36 253.205 167.427L253.152 167.824L253.098 168.214L253.041 168.598L252.983 168.975L252.922 169.344C252.912 169.405 252.901 169.466 252.891 169.526L252.827 169.885C252.817 169.944 252.806 170.003 252.795 170.062L252.729 170.409C252.717 170.466 252.706 170.523 252.695 170.58L252.625 170.915C252.614 170.97 252.602 171.025 252.59 171.08L252.518 171.403C252.397 171.934 252.268 172.431 252.131 172.889C251.221 175.935 247.756 178.824 244.398 179.437C235.382 181.086 226.392 181.849 217.591 181.874C210.762 181.893 204.444 181.47 198.799 180.753L198.227 180.679C198.133 180.667 198.039 180.654 197.946 180.642L197.394 180.566L196.855 180.49L196.33 180.414L195.818 180.336C195.734 180.323 195.651 180.31 195.568 180.297L195.077 180.219L194.6 180.141L194.138 180.063L193.69 179.984L193.246 179.904L192.839 179.827L192.277 179.716L191.906 179.639C191.81 179.617 191.712 179.613 191.615 179.626L190.938 179.715L190.562 179.762L190.093 179.818L189.559 179.877L189.171 179.916L188.818 179.947L188.653 179.96L188.497 179.971L188.207 179.987L188.01 179.995L187.888 179.998L187.772 180L187.613 179.998L187.515 179.995L187.423 179.991L187.338 179.985L187.259 179.977L187.187 179.967C187.175 179.965 187.164 179.964 187.153 179.962L187.114 179.955L187.079 179.948L187.023 179.934L187.014 179.931L186.99 179.79L186.966 179.627C186.718 178.028 186.022 176.938 183.877 175.748L183.815 175.714L183.979 175.623L184.155 175.528L184.353 175.425L184.564 175.317L184.787 175.206L185.022 175.092L185.268 174.974L185.659 174.791L185.932 174.665L186.216 174.536L186.661 174.337L187.127 174.133L187.614 173.924L187.949 173.781L188.481 173.558L189.029 173.331L189.535 173.125L190.453 172.758L191.35 172.404L192.187 172.081L192.773 171.858L193.418 171.619L193.815 171.476L194.07 171.389L194.213 171.344L194.267 171.33C194.272 171.329 194.276 171.328 194.28 171.327L194.289 171.326C195.923 171.184 197.708 170.953 199.628 170.638L200.209 170.541L200.797 170.439L201.393 170.332L201.997 170.22C202.098 170.201 202.2 170.182 202.302 170.163L202.918 170.044C203.021 170.024 203.125 170.003 203.229 169.983L203.856 169.857C203.961 169.835 204.066 169.814 204.172 169.792L204.811 169.659C204.918 169.636 205.025 169.613 205.133 169.59L205.782 169.451C205.891 169.427 206 169.403 206.11 169.379L206.77 169.232C209.554 168.607 212.477 167.874 215.492 167.055C218.828 166.149 222.114 165.182 225.228 164.212L226.094 163.94L227.042 163.64L227.934 163.353L229.313 162.902L230.112 162.635L230.157 162.618C230.556 162.456 230.766 162.011 230.631 161.597L223.931 141.101L248.748 128.016Z" fill="#2E186A"/>
<path fill-rule="evenodd" clip-rule="evenodd" d="M187.427 87.0217L190.118 101.36L180.859 104.875C180.859 104.875 179.334 118.96 194.646 120.744C215.969 123.222 219.375 107.43 220.61 102.202C214.798 101.211 214.1 101.004 214.1 101.004L211.185 69.8345L187.427 87.0217Z" fill="white"/>
<path fill-rule="evenodd" clip-rule="evenodd" d="M186.941 86.3535L186.897 86.3879C186.668 86.5784 186.558 86.879 186.613 87.1744L189.177 100.833L180.564 104.104C180.273 104.214 180.069 104.478 180.036 104.787L180.024 104.913L180.011 105.104C179.869 107.523 180.25 110.44 181.601 113.259C183.771 117.784 187.96 120.797 194.55 121.565C201.017 122.316 206.261 121.47 210.409 119.242C213.878 117.379 216.459 114.625 218.331 111.178L218.49 110.881L218.644 110.588L218.791 110.298L218.933 110.012L219.069 109.728C219.136 109.586 219.201 109.445 219.264 109.304L219.389 109.023C219.45 108.882 219.509 108.741 219.568 108.599L219.682 108.316C219.739 108.173 219.794 108.03 219.848 107.886L219.954 107.596L220.058 107.302C220.076 107.253 220.093 107.203 220.109 107.154L220.21 106.853C220.227 106.802 220.243 106.751 220.26 106.7L220.358 106.391C220.39 106.287 220.422 106.181 220.454 106.075L220.55 105.751L220.645 105.42L220.739 105.079L220.833 104.73C220.849 104.67 220.865 104.611 220.881 104.551L220.975 104.186L221.119 103.616L221.265 103.019L221.364 102.605C221.381 102.534 221.398 102.464 221.415 102.392C221.524 101.928 221.219 101.469 220.749 101.388L219.103 101.105L217.572 100.836L216.32 100.608L215.412 100.437L214.867 100.329L212.008 69.7583C211.949 69.1214 211.218 68.7909 210.699 69.1662L186.941 86.3535ZM188.337 87.3823L210.497 71.3513L213.277 101.08C213.308 101.416 213.541 101.699 213.866 101.795L213.94 101.815L214.121 101.857L214.344 101.905L214.935 102.025L215.802 102.19L216.906 102.392L218.082 102.601L219.601 102.865L219.511 103.229L219.409 103.636C219.375 103.769 219.342 103.899 219.308 104.028L219.208 104.408C219.191 104.47 219.174 104.532 219.158 104.593L219.057 104.955C219.041 105.014 219.024 105.073 219.007 105.131L218.906 105.478L218.804 105.814C218.753 105.981 218.701 106.144 218.648 106.304L218.542 106.622C218.256 107.461 217.943 108.236 217.571 109.027L217.428 109.324C217.379 109.423 217.33 109.523 217.279 109.623L217.124 109.926C217.044 110.079 216.962 110.233 216.878 110.389C215.151 113.569 212.792 116.085 209.627 117.786C205.793 119.845 200.888 120.636 194.742 119.922C188.72 119.22 185.02 116.56 183.095 112.544L183.014 112.371C181.949 110.07 181.59 107.677 181.645 105.652L181.651 105.457L190.413 102.13L190.459 102.111C190.805 101.956 191.003 101.582 190.932 101.206L188.337 87.3823Z" fill="#2E186A"/>
<ellipse rx="12.3044" ry="12.5174" transform="matrix(0.94703 -0.321145 0.322065 0.946718 215.323 83.0202)" fill="#2E186A"/>
<ellipse rx="10.4405" ry="9.0757" transform="matrix(0.941053 -0.338259 0.339217 0.940708 215.484 103.405)" fill="#2E186A"/>
<ellipse rx="9.33687" ry="8.11407" transform="matrix(0.998211 -0.0597971 0.0599877 0.998199 212.73 120.301)" fill="#2E186A"/>
<path fill-rule="evenodd" clip-rule="evenodd" d="M201.593 134.349C201.844 138.041 205.494 140.824 209.744 140.568C213.993 140.312 217.23 137.113 216.979 133.424C216.728 129.735 213.171 126.721 208.922 126.977C204.673 127.233 201.339 130.655 201.593 134.349Z" fill="#2E186A"/>
<path fill-rule="evenodd" clip-rule="evenodd" d="M199.729 146.715C201.431 150.082 200.499 152.331 199.178 153.724C198.903 154.016 198.837 154.448 199.013 154.808C199.188 155.169 199.569 155.384 199.969 155.348C205.087 154.748 213.756 152.678 212.929 145.512C212.546 142.128 209.38 139.513 205.462 139.694C201.544 139.876 198.196 143.673 199.729 146.715Z" fill="#2E186A"/>
<path fill-rule="evenodd" clip-rule="evenodd" d="M220.611 93.6583C221.22 93.658 221.714 94.1507 221.714 94.7589C221.715 95.3486 221.251 95.8304 220.667 95.8594L220.612 95.8608L211.19 95.8663C210.581 95.8666 210.087 95.3739 210.086 94.7657C210.086 94.1759 210.55 93.6942 211.134 93.6652L211.189 93.6638L220.611 93.6583Z" fill="#00AC45"/>
<path fill-rule="evenodd" clip-rule="evenodd" d="M208.515 111.464C208.582 110.878 209.098 110.452 209.681 110.49L209.736 110.495L218 111.433C218.605 111.502 219.04 112.048 218.971 112.652C218.904 113.238 218.388 113.664 217.805 113.627L217.75 113.622L209.486 112.683C208.881 112.614 208.446 112.069 208.515 111.464Z" fill="#00AC45"/>
<path fill-rule="evenodd" clip-rule="evenodd" d="M207.72 126.812C207.811 126.229 208.344 125.825 208.925 125.886L208.98 125.894L212.658 126.466C213.26 126.56 213.672 127.123 213.578 127.724C213.487 128.307 212.954 128.711 212.373 128.649L212.318 128.642L208.64 128.07C208.038 127.976 207.626 127.413 207.72 126.812Z" fill="#00AC45"/>
<path fill-rule="evenodd" clip-rule="evenodd" d="M204.88 139.706C204.982 139.125 205.523 138.73 206.102 138.802L206.157 138.811L208.71 139.257C209.31 139.361 209.711 139.932 209.607 140.531C209.505 141.112 208.964 141.506 208.384 141.434L208.33 141.426L205.777 140.98C205.177 140.875 204.775 140.305 204.88 139.706Z" fill="#00AC45"/>
<path fill-rule="evenodd" clip-rule="evenodd" d="M201.779 72.1297L203.558 72.1903C203.558 72.1903 213.711 71.7085 211.427 62.5547C209.696 55.6142 202.97 57.178 199.821 58.337" fill="white"/>
<path fill-rule="evenodd" clip-rule="evenodd" d="M199.534 57.5615C201.845 56.7107 204.169 56.2859 206.273 56.5906C209.243 57.0205 211.362 58.8833 212.228 62.3545C213.415 67.1112 211.626 70.2471 208.003 71.9049C207.038 72.3465 206.012 72.6474 204.988 72.836L204.776 72.8735C204.707 72.8852 204.64 72.896 204.576 72.9061L204.387 72.934C204.357 72.9383 204.327 72.9424 204.298 72.9463L204.129 72.9676L203.973 72.9849L203.832 72.9984L203.706 73.0082L203.595 73.0147L203.562 73.0156L203.528 73.0151L201.749 72.9546C201.293 72.939 200.935 72.5569 200.951 72.101C200.966 71.6614 201.322 71.3138 201.757 71.3035L201.806 71.3037L203.548 71.363L203.716 71.3491L203.821 71.3385C204.081 71.311 204.373 71.2695 204.688 71.2115C205.587 71.0461 206.484 70.7827 207.314 70.4032C210.253 69.0584 211.605 66.6888 210.623 62.7537C209.922 59.9424 208.349 58.5602 206.035 58.2253C204.257 57.9678 202.182 58.3472 200.106 59.1113C199.677 59.2691 199.202 59.0501 199.043 58.6221C198.885 58.1941 199.105 57.7192 199.534 57.5615Z" fill="#2E186A"/>
<path fill-rule="evenodd" clip-rule="evenodd" d="M165.606 74.1554C166.709 78.3208 173.926 96.8818 187.219 94.528C200.513 92.1741 205.534 77.6959 203.091 65.0704C200.648 52.4449 192.116 43.7949 183.662 45.097C175.208 46.3992 157.607 44.0178 165.606 74.1554Z" fill="white"/>
<path fill-rule="evenodd" clip-rule="evenodd" d="M183.534 44.2829L183.301 44.3176L182.981 44.3617L182.641 44.4044L182.272 44.4468L181.754 44.5015L180.894 44.5851L179.118 44.7533L178.336 44.832L177.913 44.8775L177.455 44.9302L177.104 44.9741L176.77 45.0193L176.431 45.0688L176.266 45.0942L175.93 45.1484L175.576 45.2082C175.459 45.2284 175.342 45.2491 175.227 45.2704L174.883 45.3358C170.101 46.2758 166.763 48.2036 164.726 51.8804C162.113 56.5943 162.018 63.871 164.805 74.3691C165.731 77.8678 168.151 83.196 171.174 87.2795C175.657 93.3331 181.085 96.4548 187.362 95.3433C193.927 94.1807 198.902 90.1062 201.802 84.0074C204.446 78.447 205.179 71.5151 203.902 64.9158C201.394 51.9562 192.543 42.8953 183.534 44.2829ZM202.276 65.2302C203.488 71.495 202.794 78.0694 200.306 83.2999C197.627 88.9344 193.087 92.6527 187.072 93.7179C181.522 94.7006 176.651 91.8992 172.504 86.2985C169.612 82.3939 167.279 77.2551 166.403 73.9475C163.715 63.8215 163.805 56.9525 166.172 52.6811C167.998 49.3856 171.072 47.6897 175.684 46.8671L176.024 46.8083L176.345 46.7551L176.612 46.7131L176.939 46.6648L177.236 46.6239L177.547 46.5842L177.878 46.5448L178.237 46.5048L178.918 46.4339L180.29 46.3016L181.451 46.1923L182.155 46.1217L182.565 46.0771L182.94 46.033L183.289 45.9881L183.539 45.9531L183.785 45.9164C191.757 44.6886 199.918 53.0433 202.276 65.2302Z" fill="#2E186A"/>
<path fill-rule="evenodd" clip-rule="evenodd" d="M174.274 63.9277C174.711 63.8692 175.113 64.1621 175.196 64.5885L175.204 64.6364L176.939 77.5381L179.878 76.6655C180.3 76.5401 180.744 76.7672 180.892 77.1756L180.907 77.2217C181.032 77.6433 180.805 78.0859 180.396 78.2336L180.35 78.2488L176.484 79.3968C176.013 79.5367 175.528 79.2381 175.436 78.7632L175.428 78.7151L173.564 64.8562C173.503 64.4041 173.821 63.9884 174.274 63.9277Z" fill="#2E186A"/>
<path fill-rule="evenodd" clip-rule="evenodd" d="M182.526 60.8827C183.641 60.6752 184.778 60.9564 185.877 61.5353C186.243 61.7278 186.546 61.9211 186.772 62.0847L186.888 62.1709C186.924 62.1985 186.958 62.2249 186.988 62.25C187.342 62.5389 187.394 63.0592 187.105 63.4122C186.827 63.7517 186.334 63.8128 185.982 63.5602L185.889 63.4879L185.804 63.4257L185.729 63.3737C185.544 63.2455 185.333 63.1165 185.105 62.9963C184.306 62.575 183.514 62.3792 182.83 62.5066C182.374 62.5914 181.962 62.8197 181.584 63.2304C181.275 63.5663 180.751 63.5885 180.415 63.2799C180.078 62.9713 180.056 62.4489 180.365 62.1129C180.985 61.4392 181.718 61.0331 182.526 60.8827Z" fill="#2E186A"/>
<path fill-rule="evenodd" clip-rule="evenodd" d="M168.969 65.8065C169.818 65.681 170.698 65.7766 171.552 66.0089C171.641 66.033 171.724 66.0572 171.802 66.081L171.951 66.1281C171.974 66.1359 171.997 66.1435 172.019 66.1511L172.145 66.1954L172.254 66.2368C172.287 66.25 172.318 66.2626 172.346 66.2745C172.765 66.4541 172.96 66.9397 172.78 67.3589C172.606 67.7632 172.148 67.9582 171.739 67.8105L171.644 67.773L171.554 67.7396C171.425 67.6933 171.279 67.6465 171.117 67.6027C170.465 67.4253 169.802 67.3532 169.212 67.4405C168.415 67.5584 167.829 67.9506 167.45 68.7297C167.251 69.14 166.756 69.311 166.345 69.1117C165.934 68.9124 165.762 68.4183 165.962 68.008C166.592 66.7128 167.655 66.0009 168.969 65.8065Z" fill="#2E186A"/>
<ellipse rx="1.33711" ry="2.11472" transform="matrix(0.942053 -0.335463 0.336427 0.94171 182.586 70.6107)" fill="#2E186A"/>
<ellipse rx="1.33713" ry="2.11472" transform="matrix(0.942053 -0.335465 0.336425 0.94171 170.393 74.7953)" fill="#2E186A"/>
<path fill-rule="evenodd" clip-rule="evenodd" d="M180.811 55.4522C175.8 57.5154 173.752 64.1724 176.067 70.2863C178.382 76.4003 184.239 79.8029 189.25 77.7397C194.262 75.6765 196.31 69.0195 193.995 62.9055C191.679 56.7916 185.823 53.3889 180.811 55.4522ZM181.374 56.9438C185.389 55.2915 190.375 58.1876 192.41 63.5592C194.445 68.9308 192.701 74.5967 188.686 76.2491C184.672 77.9014 179.685 75.0053 177.651 69.6337C175.616 64.2621 177.36 58.5961 181.374 56.9438Z" fill="#00AC45"/>
<path fill-rule="evenodd" clip-rule="evenodd" d="M159.819 63.2351C154.808 65.2983 152.76 71.9552 155.075 78.0692C157.39 84.1832 163.247 87.5859 168.259 85.5227C173.27 83.4595 175.318 76.8026 173.003 70.6886C170.687 64.5746 164.831 61.1719 159.819 63.2351ZM160.382 64.7268C164.397 63.0745 169.384 65.9707 171.418 71.3423C173.453 76.7139 171.709 82.3799 167.695 84.0322C163.68 85.6844 158.694 82.7883 156.659 77.4167C154.624 72.045 156.368 66.3791 160.382 64.7268Z" fill="#00AC45"/>
<path fill-rule="evenodd" clip-rule="evenodd" d="M175.549 65.9905C175.977 65.8304 176.454 66.0469 176.614 66.474C176.769 66.8859 176.573 67.3432 176.175 67.5189L176.13 67.5373L171.164 69.3956C170.736 69.5557 170.259 69.3392 170.099 68.9121C169.944 68.5002 170.14 68.0428 170.538 67.8672L170.583 67.8488L175.549 65.9905Z" fill="#00AC45"/>
<path fill-rule="evenodd" clip-rule="evenodd" d="M203.11 56.4104C203.556 56.3107 203.998 56.5907 204.098 57.0358C204.194 57.465 203.937 57.891 203.519 58.0103L203.472 58.0223L191.336 60.7368C190.89 60.8365 190.448 60.5565 190.348 60.1114C190.252 59.6822 190.509 59.2562 190.927 59.1369L190.974 59.1249L203.11 56.4104Z" fill="#00AC45"/>
<path fill-rule="evenodd" clip-rule="evenodd" d="M185.187 80.8554L185.088 80.971C185.07 80.9911 185.052 81.0117 185.034 81.0326L184.916 81.1627C184.619 81.4846 184.284 81.807 183.921 82.1062C183 82.8662 182.069 83.3348 181.213 83.3954L181.121 83.4004C180.511 83.4228 180.135 84.0751 180.422 84.6134L180.461 84.6861L180.512 84.7747L180.574 84.8782L180.647 84.9953C180.66 85.0159 180.674 85.037 180.687 85.0586C180.894 85.3792 181.128 85.6999 181.39 86.0025C182.689 87.5063 184.231 88.1031 185.744 86.9359C186.594 86.2808 187.055 85.3687 187.187 84.3027C187.29 83.4688 187.189 82.6039 186.961 81.7605L186.938 81.6772L186.892 81.5197C186.884 81.4945 186.877 81.4699 186.869 81.4458L186.825 81.3077L186.782 81.1834L186.742 81.0734L186.704 80.9783C186.699 80.9637 186.693 80.9498 186.687 80.9365C186.448 80.371 185.702 80.2589 185.304 80.7118L185.187 80.8554ZM185.516 82.9065L185.527 82.9774C185.581 83.3665 185.591 83.7471 185.547 84.1021C185.466 84.7563 185.209 85.2654 184.735 85.6306C184.114 86.1099 183.444 85.8508 182.645 84.9253L182.54 84.8006L182.642 84.7659C183.441 84.4831 184.222 84.0049 184.977 83.3818C185.137 83.2503 185.291 83.1156 185.44 82.9788L185.516 82.9065Z" fill="#2E186A"/>
<path fill-rule="evenodd" clip-rule="evenodd" d="M151.728 60.6057C149.729 38.8319 169.376 32.7173 184.508 40.9517C200.209 31.2775 209.665 40.2111 215.634 47.1185C221.409 53.8002 222.58 64.738 216.914 73.8231C213.969 78.5445 208.642 78.7015 203.292 79.8522L203.678 72.1602C204.8 72.0721 213.566 71.1058 211.429 62.5246C210.646 59.3944 208.851 57.9958 206.824 57.5085C206.507 58.5739 205.468 59.331 203.389 59.5788C196.194 60.4378 190.241 55.2703 187.048 51.6941L183.632 53.9598L156.393 63.7662C155.346 64.0801 154.213 63.9065 153.308 63.2935C152.403 62.6806 151.823 61.6934 151.728 60.6057Z" fill="#2E186A"/>
<path fill-rule="evenodd" clip-rule="evenodd" d="M135.008 96.9104C129.689 93.5682 124.144 84.1968 121.496 86.8645C121 87.3656 120.016 89.0945 122.417 91.5612L122.031 91.407C121.904 91.3697 121.772 91.3475 121.64 91.341C118.918 91.2171 118.761 94.1381 122.191 97.3564L123.371 98.0639C121.08 95.8422 118.601 98.8898 120.857 101.158C122.384 102.684 125.495 105.838 125.955 106.389C129.41 111.102 134.503 115.312 138.364 113.861C149.038 109.844 138.639 94.8291 138.639 94.8291C136.205 93.4525 133.464 90.6747 130.18 87.0379C128.109 84.7474 125.597 86.4378 126.234 88.3677L126.84 89.2101C124.634 87.0077 122.743 85.5981 121.499 86.8535C121.003 87.3545 120.018 89.0835 122.42 91.5502" fill="white"/>
<path fill-rule="evenodd" clip-rule="evenodd" d="M126.84 85.3706C128.095 84.7838 129.612 85.1755 130.794 86.4833L131.355 87.1013L131.627 87.3993L132.027 87.8329L132.542 88.3864L133.038 88.9124L133.398 89.2892L133.749 89.6512L134.09 89.9987L134.423 90.3321L134.639 90.5465L134.957 90.8568L135.165 91.0562L135.369 91.2497L135.57 91.4374L135.767 91.6194L135.962 91.7957L136.153 91.9666L136.341 92.132L136.527 92.292L136.71 92.4468L136.89 92.5964L137.068 92.7409L137.243 92.8803L137.417 93.0149L137.588 93.1446L137.757 93.2696L137.924 93.3899L138.089 93.5056L138.252 93.6168L138.414 93.7237L138.574 93.8262L138.733 93.9245C138.76 93.9405 138.786 93.9564 138.812 93.9721L138.969 94.0642C138.995 94.0792 139.021 94.0941 139.047 94.1088C139.156 94.1702 139.249 94.2553 139.32 94.3578L139.467 94.5764L139.528 94.6693L139.669 94.8884L139.819 95.1252L139.976 95.3789C140.002 95.4226 140.029 95.4669 140.057 95.512C140.602 96.4107 141.146 97.3984 141.654 98.4468C142.691 100.584 143.446 102.694 143.796 104.69C144.618 109.383 143.108 112.957 138.655 114.632C134.749 116.1 129.628 112.723 125.415 107.048L125.304 106.898L125.241 106.826L125.056 106.624L124.696 106.244L123.891 105.408L122.894 104.387L121.539 103.013L121.106 102.576L120.27 101.739C118.946 100.407 118.791 98.6053 119.767 97.4051C119.967 97.1589 120.197 96.9599 120.447 96.8093L120.503 96.7763L120.445 96.7064C119.44 95.4891 118.863 94.2817 118.787 93.2207L118.782 93.1301C118.726 91.8524 119.415 90.9373 120.562 90.6263L120.647 90.6046L120.62 90.5573C120.064 89.5615 119.914 88.6176 120.084 87.8036L120.106 87.706C120.232 87.1798 120.493 86.7103 120.864 86.3195L120.911 86.2711C121.122 86.0581 121.348 85.8943 121.588 85.7772L121.624 85.7597C122.062 85.5491 122.535 85.4995 123.041 85.5933L123.083 85.6013C123.415 85.6634 123.758 85.7842 124.11 85.9597L124.192 86.0012C124.557 86.1915 124.936 86.4386 125.343 86.7495L125.469 86.8472L125.482 86.8113C125.713 86.2138 126.163 85.709 126.772 85.4037L126.84 85.3706ZM129.41 93.0883L127.154 90.723L126.687 90.2392L126.537 90.0866L126.307 89.8552L126.086 89.6356L125.872 89.4272L125.666 89.2297C125.632 89.1976 125.599 89.166 125.566 89.1349L125.37 88.953L125.181 88.7811L124.998 88.6187L124.82 88.4654L124.646 88.321C124.589 88.2743 124.533 88.2289 124.478 88.1849L124.322 88.0642L124.173 87.952C123.098 87.1606 122.474 87.052 122.084 87.4441C121.961 87.5688 121.85 87.7503 121.779 87.9703L121.759 88.0359L121.744 88.0958C121.722 88.1897 121.708 88.2891 121.702 88.393L121.7 88.4717C121.693 89.177 122.077 90.0117 123.013 90.9733C123.1 91.063 123.163 91.1675 123.202 91.2784L123.223 91.3478C123.382 91.9319 122.819 92.5721 122.153 92.3431L122.11 92.3269L121.77 92.191L121.733 92.1819C121.711 92.1773 121.689 92.1736 121.667 92.1707L121.602 92.1648C120.737 92.1255 120.407 92.4204 120.435 93.0578C120.475 93.9573 121.205 95.2408 122.56 96.5641L122.624 96.6256L122.647 96.6339C123.07 96.7865 123.489 97.0424 123.879 97.4051L123.948 97.4702C124.641 98.1429 123.816 99.2399 122.986 98.794L122.945 98.7708L121.863 98.1219L121.847 98.1193C121.544 98.0792 121.281 98.1862 121.082 98.4103L121.051 98.4466C120.625 98.9711 120.698 99.8255 121.441 100.573L122.562 101.697L123.878 103.031L124.858 104.032L125.81 105.018L126.303 105.539L126.475 105.727L126.572 105.837L126.59 105.859L126.623 105.9C127.467 107.052 128.348 108.099 129.242 109.02L129.486 109.268C132.581 112.37 135.793 113.943 138.072 113.087C141.393 111.837 142.653 109.401 142.3 105.935L142.273 105.7L142.242 105.461C142.237 105.421 142.231 105.381 142.225 105.341L142.187 105.098C142.18 105.057 142.173 105.016 142.166 104.975C141.846 103.15 141.141 101.178 140.165 99.1673C139.68 98.168 139.161 97.2247 138.641 96.3676L138.489 96.1192L138.344 95.8873L138.207 95.6724L138.06 95.4479L137.971 95.3956L137.794 95.2879L137.615 95.176L137.436 95.0596C137.406 95.0398 137.376 95.0199 137.345 94.9997L137.164 94.8766L136.981 94.7488L136.796 94.6162C136.765 94.5937 136.734 94.571 136.703 94.5481L136.516 94.4082L136.327 94.2633L136.136 94.1132L135.942 93.958L135.746 93.7974L135.548 93.6314L135.347 93.4598L135.144 93.2827L134.938 93.0998L134.728 92.911L134.516 92.7164L134.3 92.5156L134.081 92.3088L133.859 92.0957L133.632 91.8762L133.402 91.6503L133.169 91.4178L132.81 91.0566L132.442 90.68L132.064 90.2878L131.676 89.8796L131.411 89.5983L131.141 89.3097L130.726 88.8627L130.3 88.3986L130.009 88.0794L129.565 87.5902C128.27 86.1575 126.722 86.8086 126.983 87.9762L126.988 87.9995L127.499 88.7095L127.713 88.9243L127.981 89.1985L130.336 91.6649L130.602 91.9424L130.877 92.2269L131.144 92.4999L131.402 92.7618L131.775 93.1348C131.816 93.175 131.856 93.2147 131.896 93.2541L132.133 93.4855L132.363 93.7076L132.589 93.9209L132.809 94.1259L133.025 94.3231C133.06 94.3553 133.096 94.3872 133.131 94.4188L133.341 94.605C133.376 94.6355 133.411 94.6657 133.445 94.6956L133.652 94.8719L133.855 95.0422C133.889 95.0701 133.923 95.0978 133.957 95.1252L134.159 95.2874L134.357 95.4423C134.734 95.7335 135.097 95.9894 135.448 96.2102C135.835 96.4532 135.951 96.9631 135.708 97.3491C135.464 97.7352 134.954 97.8512 134.567 97.6082C134.168 97.3577 133.762 97.0713 133.344 96.7489C133.24 96.6684 133.136 96.5864 133.032 96.5027L132.823 96.3331C132.788 96.3044 132.753 96.2755 132.718 96.2464L132.508 96.0691L132.295 95.8862L132.081 95.6972L131.863 95.5017L131.642 95.2992L131.418 95.0892L131.072 94.7594L130.835 94.5289C130.795 94.4897 130.754 94.4502 130.714 94.4103L130.468 94.1661L130.215 93.9123L129.955 93.6483L129.687 93.3738L129.41 93.0883Z" fill="#2E186A"/>
<path fill-rule="evenodd" clip-rule="evenodd" d="M122.949 97.6619C123.266 97.3339 123.79 97.3251 124.118 97.6422C124.457 97.9692 124.776 98.2812 125.091 98.5926L125.561 99.061C125.639 99.1396 125.718 99.2186 125.797 99.2983L126.355 99.8646L127.525 101.059L127.757 101.293C128.314 101.855 128.804 102.332 129.347 102.838C129.681 103.15 129.699 103.673 129.387 104.006C129.075 104.339 128.551 104.357 128.218 104.045C127.658 103.524 127.153 103.032 126.582 102.456L126.031 101.896L124.857 100.699L124.389 100.227C123.926 99.7625 123.469 99.3129 122.968 98.8297C122.64 98.5127 122.631 97.9898 122.949 97.6619Z" fill="#2E186A"/>
<path fill-rule="evenodd" clip-rule="evenodd" d="M121.634 90.5031L121.683 90.5038C122.488 90.5399 123.26 90.9643 124.274 91.8574L124.446 92.0106L124.622 92.1726C124.652 92.2003 124.682 92.2284 124.712 92.2569L124.896 92.4322L125.085 92.6164C125.117 92.6479 125.15 92.6797 125.182 92.712L125.315 92.8468L127.322 94.9214L128.005 95.6177L128.583 96.2022L129.077 96.6935L129.359 96.9698L129.543 97.1463L129.598 97.1985C130.32 97.8768 131.025 98.4915 131.737 99.0572C132.095 99.3412 132.154 99.8607 131.87 100.218C131.586 100.575 131.065 100.634 130.708 100.35C129.957 99.7541 129.218 99.1096 128.464 98.4013L128.287 98.2323L128.012 97.9653L127.62 97.5767L127.276 97.2323L126.731 96.6803L125.304 95.218L124.11 93.9775L123.943 93.8118L123.781 93.6545L123.625 93.5057C123.6 93.4815 123.574 93.4578 123.549 93.4343L123.402 93.2979C123.377 93.2758 123.354 93.2541 123.33 93.2327L123.19 93.1085L123.056 92.9923C123.012 92.9549 122.969 92.9188 122.927 92.8841L122.802 92.7837C122.762 92.7515 122.722 92.7207 122.683 92.6911L122.569 92.6062C122.513 92.5656 122.459 92.5279 122.407 92.493L122.304 92.4269C122.037 92.2606 121.819 92.1729 121.642 92.1563L121.609 92.154C121.152 92.1335 120.799 91.7475 120.819 91.2919C120.839 90.8525 121.199 90.5087 121.634 90.5031Z" fill="#2E186A"/>
<path fill-rule="evenodd" clip-rule="evenodd" d="M135.32 114.041L138.905 130.493C138.905 130.493 150.61 134.592 154.741 124.582L148.875 109.677C149.013 107.75 147.772 104.289 147.552 101.856C147.304 99.0062 143.374 92.0218 143.35 89.8248C143.314 86.3808 137.189 87.0002 138.863 94.3784L138.94 94.7831C138.94 94.7831 140.849 98.6731 138.629 102.12C136.409 105.567 137.785 107.304 137.785 107.304" fill="white"/>
<path fill-rule="evenodd" clip-rule="evenodd" d="M140.102 87.3C142.013 86.3683 144.105 87.5212 144.175 89.7367L144.178 89.8725L144.184 89.9635L144.194 90.0594L144.214 90.1961L144.234 90.306L144.259 90.423L144.279 90.5052L144.312 90.6353L144.338 90.7269L144.366 90.8225L144.429 91.0267L144.465 91.1356L144.545 91.3681L144.636 91.6213L144.766 91.9692L144.884 92.2744L145.016 92.6052L145.278 93.25L145.537 93.8746L146.046 95.0773L146.418 95.9491L146.73 96.6905L146.959 97.2408L147.168 97.7553L147.265 97.9998L147.403 98.3513L147.531 98.6853L147.649 99.0028L147.723 99.2057L147.825 99.4975L147.918 99.775L147.975 99.9526L148.028 100.125L148.077 100.291L148.123 100.453L148.164 100.609L148.202 100.761C148.208 100.786 148.214 100.811 148.22 100.835L148.252 100.981L148.281 101.122L148.307 101.26L148.329 101.395L148.348 101.526L148.364 101.654L148.383 101.851L148.406 102.067L148.434 102.289L148.456 102.442L148.48 102.6L148.522 102.848L148.554 103.023L148.607 103.301L148.668 103.6L148.737 103.924L148.841 104.398L149.189 105.926L149.317 106.507L149.362 106.721L149.425 107.024L149.499 107.397L149.531 107.572L149.574 107.82L149.612 108.053L149.643 108.272L149.661 108.411L149.676 108.546L149.689 108.676L149.699 108.803L149.707 108.926L149.713 109.046L149.716 109.164L149.717 109.28L149.716 109.395L149.711 109.542L155.511 124.279C155.582 124.459 155.587 124.658 155.526 124.841L155.506 124.896C153.938 128.694 151.223 130.9 147.73 131.752C145.303 132.344 142.738 132.241 140.29 131.715C139.903 131.631 139.547 131.543 139.227 131.453L138.956 131.375L138.741 131.308L138.631 131.271C138.377 131.182 138.183 130.976 138.11 130.719L138.096 130.667L134.512 114.215C134.415 113.769 134.698 113.329 135.144 113.232C135.575 113.139 136 113.399 136.117 113.817L136.128 113.864L139.61 129.844L139.674 129.863C139.921 129.932 140.194 130.001 140.489 130.067L140.639 130.1C142.862 130.578 145.189 130.672 147.337 130.148C150.196 129.45 152.407 127.727 153.785 124.707L153.847 124.568L148.106 109.978C148.068 109.882 148.049 109.781 148.048 109.678L148.051 109.617L148.057 109.514C148.057 109.497 148.058 109.479 148.059 109.462L148.061 109.355L148.061 109.246C148.061 109.227 148.06 109.209 148.06 109.19L148.056 109.075L148.049 108.956L148.039 108.831L148.026 108.701L148.01 108.565L147.991 108.422L147.969 108.271L147.944 108.112L147.915 107.944L147.883 107.767L147.829 107.482L147.766 107.173L147.669 106.719L147.534 106.107L147.253 104.875L147.139 104.363L147.064 104.012L146.997 103.688L146.938 103.385L146.903 103.194L146.871 103.01L146.842 102.833L146.816 102.661L146.792 102.493L146.771 102.329L146.752 102.167L146.736 102.006L146.728 101.926C146.725 101.892 146.722 101.858 146.718 101.823L146.704 101.716L146.687 101.604L146.666 101.488L146.642 101.368C146.638 101.347 146.633 101.327 146.629 101.306L146.599 101.178C146.594 101.156 146.589 101.134 146.583 101.112L146.549 100.977L146.51 100.836L146.468 100.69L146.422 100.538L146.346 100.298L146.291 100.131L146.2 99.8673L146.1 99.5888L146.029 99.3943L145.953 99.1926L145.788 98.7667L145.607 98.3095L145.459 97.9451L145.246 97.4294L144.954 96.7344L144.337 95.2861L143.92 94.2964L143.65 93.6456L143.452 93.1577L143.345 92.8869L143.183 92.4697L143.096 92.2384L143.016 92.0203L142.944 91.8146L142.899 91.684L142.857 91.5582L142.8 91.3781L142.749 91.2077L142.719 91.0989L142.69 90.9938L142.653 90.8424L142.631 90.7453L142.602 90.6047L142.586 90.514L142.571 90.4254L142.559 90.3387L142.549 90.2582L142.541 90.179L142.534 90.1008C142.53 90.0404 142.526 89.9806 142.524 89.9212L142.523 89.8323C142.512 88.8158 141.7 88.3593 140.828 88.7843C139.638 89.3647 139.023 91.2057 139.641 94.0642L139.676 94.2227L139.734 94.5256L139.752 94.5669C139.77 94.6069 139.788 94.6498 139.807 94.6956L139.866 94.8413C139.876 94.867 139.886 94.8934 139.896 94.9204L139.958 95.0908L140.021 95.2771C140.043 95.3417 140.064 95.4089 140.085 95.4786L140.115 95.576C140.676 97.4617 140.736 99.4636 139.952 101.366C139.803 101.728 139.625 102.079 139.416 102.42L139.325 102.565C138.15 104.39 137.989 105.707 138.344 106.6L138.374 106.672L138.399 106.727L138.426 106.778L138.434 106.79C138.717 107.148 138.657 107.668 138.298 107.951C137.94 108.234 137.42 108.173 137.136 107.815C137.036 107.688 136.916 107.486 136.805 107.208C136.249 105.806 136.478 103.932 137.933 101.672C138.127 101.371 138.29 101.059 138.422 100.738C139.041 99.2359 138.992 97.6021 138.529 96.0466C138.466 95.8344 138.399 95.6402 138.332 95.4666L138.276 95.3241L138.246 95.2536L138.198 95.1452C138.173 95.0956 138.154 95.0437 138.14 94.9903L138.128 94.9365L138.051 94.5318L138.028 94.4311C137.259 90.8859 138.134 88.2598 140.102 87.3Z" fill="#2E186A"/>
<path fill-rule="evenodd" clip-rule="evenodd" d="M261.373 180.859H210.085L185.196 120.567C184.702 119.309 183.519 118.422 182.342 118.422L96.3619 119.482C94.7213 119.482 91.8728 121.569 92.5622 123.317L117.44 186.577C117.933 187.835 119.116 188.724 120.294 188.724H185.571L185.532 188.821H253.917C262.917 188.826 261.373 180.859 261.373 180.859Z" fill="white"/>
<path fill-rule="evenodd" clip-rule="evenodd" d="M146.316 146.385C146.316 146.385 142.629 145.529 142.943 148.588C142.943 148.582 145.96 149.711 146.316 146.385Z" fill="#5D21D1"/>
<path fill-rule="evenodd" clip-rule="evenodd" d="M149.745 155.822C148.567 154.768 147.146 154.024 145.609 153.655C145.75 153.299 145.786 152.91 145.714 152.535C145.444 151.254 144.514 150.212 143.27 149.798C142.849 148.939 141.746 146.806 140.905 145.985C140.575 145.685 140.066 145.699 139.755 146.018C139.443 146.336 139.441 146.845 139.749 147.166C140.226 147.631 141.001 148.989 141.564 150.087C141.144 150.52 140.977 151.137 141.12 151.722C141.28 152.497 141.691 153.199 142.289 153.718C141.916 153.839 141.564 154.017 141.246 154.247C139.214 155.753 139.719 158.902 142.377 161.278C145.035 163.654 148.838 164.362 150.87 162.853C152.902 161.344 152.403 158.209 149.745 155.822Z" fill="#5D21D1"/>
<path fill-rule="evenodd" clip-rule="evenodd" d="M177.249 122.416C178.812 122.416 180.173 123.564 180.983 125.533L206.026 187.285C206.197 187.707 205.993 188.189 205.57 188.36C205.161 188.525 204.698 188.341 204.512 187.949L204.492 187.904L179.491 126.254C178.925 124.822 178.114 124.102 177.318 124.069L177.262 124.068L94.6982 125.34C94.2413 125.347 93.8653 124.983 93.8583 124.527C93.8515 124.087 94.1902 123.722 94.624 123.69L94.6726 123.688L177.249 122.416Z" fill="#2E186A"/>
<path fill-rule="evenodd" clip-rule="evenodd" d="M260.769 180.035C261.226 180.035 261.596 180.404 261.596 180.861C261.596 181.3 261.252 181.66 260.817 181.685L260.769 181.686H212.133L214.235 187.207C214.392 187.619 214.198 188.077 213.801 188.254L213.756 188.273C213.344 188.429 212.885 188.236 212.707 187.839L212.689 187.794L210.16 181.154C209.96 180.629 210.332 180.068 210.884 180.036L210.933 180.035H260.769Z" fill="#2E186A"/>
<rect x="229.762" y="187.131" width="8.86797" height="4.69121" rx="2.34561" transform="rotate(-180 229.762 187.131)" fill="#5D21D1"/>
<rect x="240.197" y="187.131" width="8.86802" height="4.69121" rx="2.34561" transform="rotate(-180 240.197 187.131)" fill="#00AC45"/>
<path fill-rule="evenodd" clip-rule="evenodd" d="M205.677 167.799C206.086 167.635 206.548 167.82 206.734 168.213L206.753 168.257L211.703 180.549C211.873 180.973 211.668 181.454 211.244 181.624C210.835 181.788 210.372 181.603 210.187 181.21L210.168 181.166L205.218 168.873C205.048 168.45 205.253 167.969 205.677 167.799Z" fill="#2E186A"/>
<path fill-rule="evenodd" clip-rule="evenodd" d="M235.64 184.833C235.688 184.379 236.096 184.051 236.55 184.099C242.583 184.738 243.728 191.511 238.789 196.421C235.747 199.446 230.898 200.947 225.148 200.995C220.216 201.036 214.941 199.971 211.009 198.214L210.807 198.123C207.407 196.564 204.218 196.048 201.243 196.397C198.881 196.674 196.756 197.482 194.887 198.656C194.063 199.174 193.346 199.727 192.74 200.279C192.561 200.443 192.403 200.596 192.267 200.735L192.142 200.866L192.037 200.982C191.741 201.329 191.219 201.372 190.871 201.077C190.522 200.782 190.48 200.26 190.775 199.913L190.839 199.839L190.915 199.756L191.003 199.662L191.104 199.558L191.216 199.446L191.341 199.325L191.477 199.196L191.625 199.059C192.3 198.444 193.095 197.83 194.005 197.258C196.073 195.959 198.428 195.064 201.05 194.756C204.269 194.379 207.694 194.916 211.293 196.529L211.497 196.621C215.224 198.33 220.355 199.383 225.134 199.343C230.491 199.298 234.934 197.923 237.622 195.251C241.678 191.218 240.832 186.214 236.375 185.741C235.921 185.693 235.592 185.286 235.64 184.833Z" fill="white"/>
<path fill-rule="evenodd" clip-rule="evenodd" d="M189.3 196.472C189.3 196.472 189.342 194.79 187.37 193.754C185.398 192.719 183.874 194.242 183.874 194.242L189.3 196.472Z" fill="white"/>
<path fill-rule="evenodd" clip-rule="evenodd" d="M192.561 200.279C192.649 199.109 191.32 197.562 187.791 195.618C184.261 193.674 182.359 192.006 175.404 191.918C168.003 191.821 164.879 196.199 164.154 197.223C163.506 198.14 162.593 199.676 163.288 200.728C163.983 201.779 163.936 201.829 164.854 202.104C165.773 202.379 191.08 202.104 191.08 202.104C191.08 202.104 192.401 202.404 192.561 200.279Z" fill="#00AC45"/>
<path fill-rule="evenodd" clip-rule="evenodd" d="M142.925 201.918C142.874 200.796 142.637 199.691 142.225 198.647C139.84 192.552 130.263 195.423 128.934 196.72L125.349 202.942L142.898 203.013L142.925 201.918Z" fill="#00AC45"/>
<path fill-rule="evenodd" clip-rule="evenodd" d="M135.149 194.085C134.182 194.125 133.168 194.275 132.219 194.494L131.962 194.555C130.344 194.954 128.95 195.548 128.355 196.128C128.301 196.181 128.254 196.242 128.217 196.307L124.632 202.529C124.315 203.078 124.711 203.764 125.346 203.767L142.894 203.838C143.344 203.84 143.713 203.482 143.724 203.033L143.752 201.938L143.751 201.879C143.696 200.667 143.44 199.472 142.994 198.343C141.782 195.246 138.878 193.931 135.149 194.085ZM141.525 199.128C141.84 199.975 142.03 200.862 142.09 201.762L142.099 201.927L142.093 202.183L126.777 202.121L129.587 197.245L129.621 197.218C129.832 197.056 130.171 196.882 130.597 196.711L130.772 196.643L130.956 196.575L131.148 196.508L131.347 196.443C131.381 196.432 131.415 196.421 131.45 196.411L131.66 196.347L131.876 196.286L132.097 196.226L132.324 196.168C132.4 196.149 132.477 196.131 132.555 196.113L132.789 196.061C132.829 196.052 132.868 196.044 132.908 196.036L133.147 195.988C133.629 195.895 134.124 195.822 134.613 195.777L134.857 195.757C134.978 195.748 135.099 195.741 135.219 195.736C138.316 195.608 140.544 196.617 141.456 198.947L141.525 199.128Z" fill="#2E186A"/>
<path fill-rule="evenodd" clip-rule="evenodd" d="M134.251 196.902C134.332 196.453 134.763 196.155 135.212 196.236L135.257 196.245L135.355 196.267C135.514 196.306 135.717 196.371 135.953 196.468C136.463 196.679 136.97 196.982 137.442 197.396C138.792 198.579 139.582 200.406 139.554 202.936C139.549 203.392 139.175 203.758 138.718 203.752C138.261 203.747 137.895 203.374 137.9 202.917C137.923 200.862 137.333 199.498 136.351 198.637C136.022 198.349 135.671 198.139 135.322 197.995L135.218 197.954L135.127 197.921C135.113 197.916 135.099 197.912 135.086 197.908L135.015 197.886C135.004 197.883 134.994 197.88 134.985 197.877L134.936 197.865L134.918 197.862C134.468 197.78 134.17 197.351 134.251 196.902Z" fill="#2E186A"/>
<path fill-rule="evenodd" clip-rule="evenodd" d="M130.588 197.964C130.728 197.529 131.194 197.29 131.629 197.43C131.657 197.439 131.688 197.449 131.721 197.462L131.83 197.506C131.928 197.547 132.041 197.601 132.167 197.669C132.53 197.864 132.891 198.121 133.228 198.449C134.321 199.513 134.904 201.052 134.72 203.075C134.679 203.53 134.277 203.865 133.822 203.824C133.367 203.782 133.031 203.381 133.072 202.927C133.211 201.403 132.813 200.352 132.074 199.632C131.853 199.417 131.616 199.249 131.382 199.123C131.323 199.091 131.267 199.064 131.217 199.042L131.152 199.014L131.123 199.003C130.688 198.863 130.449 198.398 130.588 197.964Z" fill="#2E186A"/>
<path fill-rule="evenodd" clip-rule="evenodd" d="M134.135 176.924C132.182 175.813 130.126 174.892 127.997 174.171C120.615 171.886 111.485 172.28 105.027 173.031C101.685 171.241 98.2426 169.642 94.7174 168.244C89.3762 166.118 80.9991 162.085 74.1551 161.237C58.1454 159.252 53.4742 167.569 48.1717 169.174C37.4397 172.417 32.9257 180.352 32.9919 187.785C31.9477 187.686 30.9176 187.473 29.9201 187.149C24.3087 185.304 20.0512 179.473 27.4384 173.384C46.0484 158.024 33.7309 143.805 24.5128 143.477C13.4085 143.081 15.9206 153.113 22.3068 153.636C28.6931 154.159 26.341 162.564 21.4106 165.372C16.9077 167.935 7.67303 174.022 10.0499 186.163C12.2725 197.525 19.7424 200.933 30.8521 202.2C34.3846 202.551 37.944 202.538 41.4738 202.161C41.7275 202.282 41.984 202.401 42.2487 202.508H83.3181C98.7157 203.609 116.824 202.233 128.502 202.233C131.367 200.834 134.532 198.332 136.143 196.361C146.334 185.511 137.102 178.604 134.135 176.924Z" fill="#00AC45"/>
<path fill-rule="evenodd" clip-rule="evenodd" d="M121.139 173.203C121.156 172.834 121.798 171.4 122.025 171.056C123.219 169.244 126.307 166.579 129.944 164.418C131.279 163.625 132.977 163.724 133.835 164.897C136.162 168.101 134.455 175.537 134.472 179.298" fill="#00AC45"/>
<path fill-rule="evenodd" clip-rule="evenodd" d="M132.4 165.774C132.596 166.187 132.421 166.679 132.008 166.875L131.875 166.941L131.702 167.032C131.445 167.17 131.156 167.335 130.845 167.528C129.953 168.078 129.06 168.732 128.23 169.483C126.275 171.252 124.979 173.268 124.622 175.503C124.55 175.954 124.126 176.261 123.675 176.189C123.224 176.117 122.917 175.694 122.988 175.243C123.413 172.586 124.908 170.259 127.119 168.259C128.03 167.435 129.002 166.723 129.975 166.123C130.267 165.942 130.542 165.782 130.795 165.644L130.977 165.546L131.168 165.447L131.298 165.383C131.711 165.187 132.204 165.362 132.4 165.774Z" fill="#2E186A"/>
<path fill-rule="evenodd" clip-rule="evenodd" d="M140.353 180.312C143.432 179.613 146.691 179.617 149.752 180.04C149.864 180.056 149.974 180.072 150.081 180.088L150.394 180.137C150.546 180.161 150.692 180.187 150.83 180.212L151.102 180.263L151.393 180.323C151.404 180.326 151.414 180.328 151.424 180.33C151.869 180.433 152.146 180.876 152.044 181.321C151.945 181.749 151.528 182.022 151.099 181.949L150.849 181.897L150.659 181.86L150.533 181.837L150.266 181.79L149.982 181.744L149.681 181.699C149.63 181.691 149.577 181.684 149.525 181.676C146.646 181.278 143.575 181.274 140.72 181.923C138.59 182.406 136.73 183.231 135.208 184.441C134.851 184.725 134.33 184.666 134.046 184.309C133.761 183.952 133.82 183.432 134.178 183.148C135.909 181.773 137.995 180.847 140.353 180.312Z" fill="#2E186A"/>
<path fill-rule="evenodd" clip-rule="evenodd" d="M150.381 186.741C150.757 186.999 150.853 187.513 150.594 187.889C150.335 188.265 149.82 188.36 149.443 188.101C147.364 186.673 144.338 186.094 141.076 186.317C140.853 186.333 140.63 186.352 140.41 186.375L140.146 186.404C140.103 186.409 140.059 186.415 140.016 186.42L139.756 186.454C139.67 186.466 139.585 186.478 139.5 186.491L139.247 186.531C139.205 186.538 139.163 186.545 139.122 186.552L138.875 186.597C138.834 186.604 138.793 186.612 138.753 186.62L138.512 186.668C138.472 186.676 138.433 186.684 138.394 186.693L138.161 186.745C138.084 186.762 138.008 186.78 137.933 186.798L137.711 186.854C137.674 186.864 137.638 186.873 137.602 186.883L137.389 186.942C137.319 186.961 137.251 186.982 137.183 187.002L136.984 187.064C136.821 187.116 136.666 187.17 136.519 187.225L136.347 187.291C136.319 187.302 136.292 187.313 136.265 187.324L136.106 187.392C135.72 187.562 135.421 187.739 135.232 187.912L135.196 187.947C134.873 188.27 134.349 188.27 134.026 187.947C133.703 187.625 133.703 187.102 134.026 186.779C134.644 186.162 135.887 185.611 137.428 185.221L137.688 185.157C137.775 185.136 137.863 185.116 137.952 185.097L138.222 185.039C138.358 185.011 138.496 184.985 138.635 184.959L138.915 184.91C139.057 184.886 139.199 184.864 139.343 184.843L139.632 184.803C139.971 184.758 140.316 184.721 140.664 184.692L140.963 184.67C144.565 184.423 147.95 185.07 150.381 186.741Z" fill="#2E186A"/>
<path fill-rule="evenodd" clip-rule="evenodd" d="M107.439 186.309C110.232 186.156 113.101 186.594 115.004 187.35C115.429 187.519 115.636 187.999 115.467 188.423C115.298 188.847 114.817 189.054 114.392 188.885C112.718 188.22 110.088 187.818 107.53 187.958C104.33 188.134 101.465 189.103 99.2812 190.95C98.9326 191.245 98.4106 191.202 98.1153 190.854C97.8199 190.506 97.8631 189.985 98.2117 189.69C100.697 187.588 103.904 186.503 107.439 186.309Z" fill="#2E186A"/>
<path fill-rule="evenodd" clip-rule="evenodd" d="M97.3301 184.461C100.235 182.541 103.811 181.69 107.37 181.891C110.62 182.075 113.565 183.141 115.188 184.737C115.513 185.058 115.517 185.58 115.196 185.905C114.876 186.23 114.352 186.234 114.027 185.914C112.724 184.632 110.157 183.703 107.276 183.54C104.058 183.358 100.835 184.125 98.2435 185.838C97.8626 186.09 97.3493 185.986 97.0971 185.605C96.8448 185.225 96.9492 184.713 97.3301 184.461Z" fill="#2E186A"/>
<path fill-rule="evenodd" clip-rule="evenodd" d="M116.058 173.218C116.049 172.479 115.926 171.745 115.692 171.044C114.032 167.713 111.845 164.671 109.214 162.036C108.009 160.827 106.181 161.067 104.899 162.036C101.618 164.497 98.8326 170.845 101.124 178.199" fill="#00AC45"/>
<path fill-rule="evenodd" clip-rule="evenodd" d="M106.607 163.642C106.882 163.277 107.401 163.204 107.766 163.478C108.117 163.742 108.198 164.23 107.96 164.592L107.78 164.841L107.65 165.026L107.512 165.228C107.464 165.298 107.415 165.371 107.365 165.447C106.934 166.1 106.502 166.817 106.099 167.574C105.332 169.018 104.766 170.43 104.487 171.731C104.093 173.563 104.296 175.031 105.171 176.078C105.464 176.428 105.417 176.949 105.066 177.241C104.715 177.533 104.193 177.486 103.901 177.136C102.651 175.641 102.379 173.668 102.869 171.384C103.185 169.915 103.804 168.368 104.638 166.8C105.067 165.993 105.525 165.232 105.984 164.537L106.064 164.418L106.217 164.191L106.362 163.983L106.528 163.749L106.577 163.683L106.607 163.642Z" fill="#2E186A"/>
<path fill-rule="evenodd" clip-rule="evenodd" d="M118.337 183.118C118.337 181.863 118.991 181.5 119.788 181.502C120.585 181.505 121.23 181.871 121.227 183.129C121.224 184.388 120.491 184.14 119.694 184.137C118.897 184.134 118.335 184.377 118.337 183.118Z" fill="#2E186A"/>
<path fill-rule="evenodd" clip-rule="evenodd" d="M127.534 183.05C127.534 181.792 128.171 181.425 128.968 181.423C129.764 181.42 130.418 181.781 130.421 183.039C130.424 184.297 129.696 184.016 128.899 184.019C128.102 184.022 127.536 184.308 127.534 183.05Z" fill="#2E186A"/>
<path fill-rule="evenodd" clip-rule="evenodd" d="M127.042 184.984L125.308 186.881C125.046 187.152 124.615 187.167 124.335 186.914L122.548 185.306C122.357 185.137 122.286 184.87 122.37 184.629C122.453 184.388 122.673 184.221 122.928 184.205L126.452 183.9C126.725 183.86 126.994 183.995 127.126 184.237C127.257 184.479 127.224 184.777 127.042 184.984Z" fill="#2E186A"/>
<path fill-rule="evenodd" clip-rule="evenodd" d="M124.61 186.981C124.988 186.757 125.473 186.868 125.716 187.227L125.743 187.269C126.03 187.752 126.493 188.152 126.904 188.28C127.248 188.388 127.503 188.304 127.763 187.914L127.797 187.862C128.039 187.475 128.549 187.357 128.937 187.599C129.324 187.841 129.442 188.35 129.2 188.737C127.889 190.831 125.494 190.085 124.321 188.113C124.087 187.72 124.217 187.214 124.61 186.981Z" fill="#2E186A"/>
<path fill-rule="evenodd" clip-rule="evenodd" d="M124.741 185.485C125.192 185.41 125.618 185.714 125.693 186.164C126.31 189.877 122.677 191.866 120.084 188.81C119.789 188.462 119.832 187.941 120.181 187.646C120.53 187.351 121.052 187.394 121.347 187.742C122.799 189.454 124.415 188.569 124.061 186.435C123.986 185.985 124.29 185.56 124.741 185.485Z" fill="#2E186A"/>
<path fill-rule="evenodd" clip-rule="evenodd" d="M73.4747 176.785C73.8587 176.538 74.3706 176.648 74.6182 177.032C74.8658 177.415 74.7552 177.926 74.3713 178.173C70.6297 180.582 67.7603 185.711 67.216 191.528C66.9253 194.626 68.7566 197.312 72.0678 199.572C73.1715 200.325 74.3589 200.972 75.5466 201.509C75.9102 201.674 76.2506 201.818 76.5607 201.941L76.7617 202.019L76.8913 202.068L77.1084 202.146C77.5412 202.292 77.7732 202.761 77.6267 203.193C77.4801 203.625 77.0106 203.857 76.5778 203.711L76.4324 203.659L76.1596 203.557L76.0935 203.532C75.7212 203.388 75.3078 203.215 74.8632 203.014C73.5937 202.439 72.3239 201.747 71.1341 200.935C70.6278 200.59 70.1503 200.233 69.704 199.865L69.4834 199.68C66.7591 197.356 65.2668 194.592 65.5687 191.374C66.1583 185.073 69.2865 179.481 73.4747 176.785Z" fill="#2E186A"/>
<path fill-rule="evenodd" clip-rule="evenodd" d="M89.3114 189.119C89.767 189.084 90.1645 189.425 90.1992 189.88C90.3108 191.339 90.9755 192.471 92.7951 193.295L92.8911 193.336L92.9896 193.375L93.0569 193.399L93.1257 193.421L93.1962 193.443L93.3055 193.472L93.381 193.49L93.4588 193.507L93.5391 193.523L93.6647 193.543L93.752 193.555L93.8424 193.566L93.9842 193.58L94.134 193.591L94.2923 193.599L94.4598 193.604L94.6371 193.606L94.7609 193.605L94.9557 193.602L95.0919 193.599L95.3059 193.591L95.6105 193.576L95.8541 193.561L96.2909 193.529L96.8692 193.481L97.3993 193.431L97.9762 193.374L99.2815 193.233L100.483 193.097L101.267 193.007L102.043 192.922L102.588 192.865L103.273 192.797L103.76 192.752L104.074 192.725L104.382 192.701L104.832 192.667L105.126 192.648L105.562 192.622L105.995 192.6L106.428 192.582C110.856 192.421 114.293 192.999 116.96 194.66C120.327 196.76 122.165 199.912 121.533 203.161C121.446 203.608 121.012 203.901 120.563 203.814C120.115 203.727 119.822 203.293 119.909 202.846C120.393 200.356 118.921 197.83 116.083 196.061C113.795 194.635 110.724 194.101 106.701 194.226L106.348 194.238L106.069 194.25L105.649 194.271L105.367 194.288L105.083 194.306L104.647 194.337L104.351 194.36L103.892 194.399L103.415 194.443L102.916 194.492L102.209 194.565L101.643 194.627L98.2511 195.014L97.324 195.111L96.8865 195.15L96.6812 195.166L96.3622 195.187L95.9581 195.209L95.848 195.215C94.1674 195.299 92.9796 195.191 92.1128 194.8C89.6899 193.703 88.7038 192.023 88.5496 190.006C88.5148 189.551 88.8559 189.154 89.3114 189.119Z" fill="#2E186A"/>
<path fill-rule="evenodd" clip-rule="evenodd" d="M111.868 196.903C111.949 196.454 112.38 196.156 112.829 196.237L112.874 196.246L112.972 196.268C113.131 196.307 113.334 196.372 113.57 196.47C114.08 196.68 114.587 196.983 115.059 197.397C116.409 198.58 117.199 200.407 117.171 202.937C117.166 203.393 116.792 203.759 116.335 203.754C115.878 203.749 115.512 203.375 115.517 202.919C115.54 200.863 114.95 199.499 113.968 198.639C113.639 198.351 113.288 198.14 112.939 197.996L112.835 197.955L112.744 197.923C112.73 197.918 112.716 197.913 112.703 197.909L112.632 197.887C112.621 197.884 112.611 197.881 112.602 197.878L112.553 197.866L112.535 197.863C112.085 197.782 111.787 197.352 111.868 196.903Z" fill="#2E186A"/>
<path fill-rule="evenodd" clip-rule="evenodd" d="M108.205 197.967C108.344 197.533 108.81 197.294 109.245 197.433C109.371 197.473 109.557 197.55 109.783 197.672C110.147 197.867 110.508 198.124 110.845 198.452C111.939 199.515 112.522 201.055 112.337 203.079C112.295 203.534 111.893 203.868 111.438 203.827C110.983 203.785 110.648 203.384 110.689 202.929C110.828 201.406 110.431 200.354 109.691 199.635C109.47 199.42 109.233 199.252 108.999 199.126C108.92 199.084 108.848 199.05 108.786 199.024L108.74 199.006C108.305 198.867 108.066 198.402 108.205 197.967Z" fill="#2E186A"/>
<path fill-rule="evenodd" clip-rule="evenodd" d="M33.1245 186.292C33.5591 186.364 33.8578 186.762 33.8114 187.194L33.7875 187.363L33.7698 187.507L33.7523 187.669C33.7494 187.697 33.7466 187.726 33.7438 187.756C33.5239 190.107 33.7784 192.821 34.8705 195.377C36.181 198.443 38.535 200.787 42.1886 202.155C42.6164 202.315 42.8331 202.791 42.6727 203.218C42.5123 203.645 42.0354 203.862 41.6076 203.701C37.5184 202.17 34.8321 199.496 33.3487 196.025C32.1322 193.178 31.8532 190.204 32.0965 187.603L32.1191 187.379L32.1409 187.193L32.161 187.046L32.1728 186.971C32.2477 186.521 32.6738 186.217 33.1245 186.292Z" fill="#2E186A"/>
<path fill-rule="evenodd" clip-rule="evenodd" d="M326.367 202.075C326.722 202.075 327.009 202.506 327.009 203.037C327.009 203.55 326.742 203.969 326.405 203.998L326.367 204H1.44241C1.08792 204 0.800537 203.569 0.800537 203.037C0.800537 202.525 1.06776 202.106 1.4047 202.077L1.44241 202.075H326.367Z" fill="#2E186A"/>
</svg>
