<svg width="640" height="432" viewBox="0 0 640 432" fill="none" xmlns="http://www.w3.org/2000/svg">
<g clip-path="url(#clip0)">
<g filter="url(#filter0_d)">
<path d="M51.9155 15.7635C51.9155 13.9611 53.3767 12.5 55.1791 12.5H386.371C388.174 12.5 389.635 13.9611 389.635 15.7635V195.159C389.635 196.962 388.174 198.423 386.371 198.423H55.1791C53.3767 198.423 51.9155 196.962 51.9155 195.159V15.7635Z" fill="white" stroke="#D9D9D9"/>
<path d="M84.6201 150.247V148.144H88.5505V160.033H86.2021V150.247H84.6201ZM98.7974 150.117H93.5134V152.906C93.7417 152.623 94.0679 152.395 94.4919 152.221C94.9159 152.036 95.367 151.944 95.8455 151.944C96.7153 151.944 97.4275 152.134 97.982 152.514C98.5365 152.894 98.9387 153.384 99.1888 153.982C99.4388 154.569 99.5639 155.2 99.5639 155.874C99.5639 157.125 99.2051 158.13 98.4875 158.891C97.7807 159.652 96.7696 160.033 95.4541 160.033C94.2146 160.033 93.2252 159.723 92.4859 159.103C91.7465 158.483 91.328 157.673 91.2302 156.673H93.4481C93.546 157.108 93.7634 157.456 94.1005 157.717C94.4484 157.978 94.8887 158.108 95.4215 158.108C96.0629 158.108 96.5468 157.907 96.873 157.505C97.1991 157.102 97.3622 156.57 97.3622 155.907C97.3622 155.233 97.1936 154.721 96.8567 154.373C96.5305 154.015 96.0466 153.835 95.4052 153.835C94.9485 153.835 94.5679 153.949 94.2636 154.178C93.9591 154.406 93.7417 154.711 93.6112 155.091H91.4259V148.111H98.7974V150.117Z" fill="#CF1322"/>
<path d="M107.525 147.964V160.033H106.041V147.964H107.525ZM118.209 155.222C118.209 155.504 118.193 155.804 118.16 156.119H111.017C111.071 156.999 111.37 157.689 111.914 158.19C112.468 158.679 113.137 158.924 113.92 158.924C114.561 158.924 115.094 158.777 115.518 158.484C115.953 158.179 116.257 157.777 116.431 157.277H118.029C117.79 158.136 117.312 158.837 116.594 159.381C115.877 159.914 114.985 160.18 113.92 160.18C113.072 160.18 112.311 159.989 111.636 159.609C110.973 159.229 110.451 158.691 110.071 157.994C109.69 157.288 109.5 156.473 109.5 155.548C109.5 154.623 109.685 153.814 110.055 153.118C110.424 152.422 110.941 151.89 111.604 151.52C112.278 151.14 113.05 150.949 113.92 150.949C114.768 150.949 115.518 151.133 116.17 151.503C116.823 151.873 117.323 152.384 117.671 153.036C118.029 153.677 118.209 154.406 118.209 155.222ZM116.676 154.912C116.676 154.346 116.551 153.863 116.301 153.46C116.051 153.048 115.708 152.738 115.273 152.531C114.849 152.314 114.376 152.205 113.854 152.205C113.104 152.205 112.463 152.444 111.93 152.922C111.408 153.4 111.109 154.064 111.033 154.912H116.676ZM123.332 160.18C122.647 160.18 122.032 160.065 121.489 159.837C120.945 159.598 120.516 159.271 120.2 158.859C119.885 158.435 119.711 157.95 119.679 157.407H121.212C121.255 157.853 121.462 158.218 121.831 158.5C122.212 158.782 122.707 158.924 123.315 158.924C123.881 158.924 124.326 158.798 124.653 158.549C124.979 158.299 125.142 157.983 125.142 157.603C125.142 157.211 124.968 156.923 124.62 156.739C124.272 156.543 123.734 156.352 123.005 156.168C122.342 155.993 121.799 155.82 121.375 155.646C120.962 155.461 120.603 155.194 120.298 154.847C120.005 154.488 119.858 154.02 119.858 153.444C119.858 152.988 119.994 152.569 120.266 152.188C120.537 151.808 120.924 151.508 121.424 151.291C121.924 151.063 122.495 150.949 123.136 150.949C124.125 150.949 124.924 151.199 125.533 151.699C126.142 152.2 126.468 152.885 126.512 153.754H125.028C124.995 153.286 124.805 152.911 124.457 152.629C124.12 152.346 123.663 152.205 123.087 152.205C122.554 152.205 122.13 152.319 121.815 152.547C121.5 152.775 121.342 153.074 121.342 153.444C121.342 153.738 121.434 153.982 121.619 154.178C121.815 154.362 122.054 154.516 122.337 154.635C122.63 154.744 123.033 154.868 123.544 155.01C124.185 155.184 124.707 155.357 125.109 155.532C125.512 155.695 125.854 155.944 126.137 156.282C126.43 156.619 126.583 157.06 126.593 157.603C126.593 158.092 126.457 158.532 126.186 158.924C125.914 159.315 125.528 159.625 125.028 159.853C124.538 160.071 123.973 160.18 123.332 160.18ZM131.852 160.18C131.167 160.18 130.553 160.065 130.009 159.837C129.466 159.598 129.036 159.271 128.721 158.859C128.406 158.435 128.232 157.95 128.199 157.407H129.732C129.776 157.853 129.982 158.218 130.352 158.5C130.733 158.782 131.227 158.924 131.836 158.924C132.401 158.924 132.847 158.798 133.173 158.549C133.499 158.299 133.663 157.983 133.663 157.603C133.663 157.211 133.489 156.923 133.141 156.739C132.793 156.543 132.255 156.352 131.526 156.168C130.863 155.993 130.319 155.82 129.895 155.646C129.482 155.461 129.123 155.194 128.819 154.847C128.525 154.488 128.379 154.02 128.379 153.444C128.379 152.988 128.515 152.569 128.786 152.188C129.058 151.808 129.444 151.508 129.944 151.291C130.444 151.063 131.015 150.949 131.657 150.949C132.646 150.949 133.445 151.199 134.054 151.699C134.663 152.2 134.989 152.885 135.032 153.754H133.548C133.516 153.286 133.326 152.911 132.978 152.629C132.641 152.346 132.184 152.205 131.608 152.205C131.075 152.205 130.651 152.319 130.336 152.547C130.02 152.775 129.863 153.074 129.863 153.444C129.863 153.738 129.955 153.982 130.14 154.178C130.336 154.362 130.575 154.516 130.857 154.635C131.151 154.744 131.553 154.868 132.064 155.01C132.706 155.184 133.228 155.357 133.63 155.532C134.032 155.695 134.375 155.944 134.657 156.282C134.951 156.619 135.103 157.06 135.114 157.603C135.114 158.092 134.978 158.532 134.706 158.924C134.435 159.315 134.049 159.625 133.548 159.853C133.059 160.071 132.494 160.18 131.852 160.18ZM143.367 152.319V157.587C143.367 158.022 143.46 158.332 143.644 158.516C143.829 158.691 144.15 158.777 144.607 158.777H145.699V160.033H144.362C143.536 160.033 142.916 159.842 142.503 159.462C142.09 159.082 141.883 158.456 141.883 157.587V152.319H140.725V151.096H141.883V148.845H143.367V151.096H145.699V152.319H143.367ZM151.934 150.933C152.608 150.933 153.217 151.079 153.76 151.373C154.304 151.655 154.728 152.086 155.032 152.661C155.347 153.237 155.505 153.938 155.505 154.765V160.033H154.037V154.977C154.037 154.085 153.814 153.407 153.369 152.939C152.923 152.461 152.314 152.221 151.542 152.221C150.759 152.221 150.134 152.466 149.667 152.955C149.21 153.444 148.982 154.157 148.982 155.091V160.033H147.498V147.964H148.982V152.368C149.275 151.911 149.678 151.557 150.189 151.308C150.71 151.058 151.292 150.933 151.934 150.933ZM157.375 155.532C157.375 154.618 157.56 153.819 157.929 153.134C158.299 152.438 158.805 151.9 159.446 151.52C160.098 151.14 160.822 150.949 161.615 150.949C162.398 150.949 163.078 151.117 163.654 151.454C164.23 151.792 164.659 152.216 164.942 152.727V151.096H166.443V160.033H164.942V158.369C164.649 158.891 164.208 159.327 163.621 159.674C163.045 160.012 162.371 160.18 161.599 160.18C160.805 160.18 160.088 159.984 159.446 159.593C158.805 159.201 158.299 158.652 157.929 157.945C157.56 157.239 157.375 156.434 157.375 155.532ZM164.942 155.548C164.942 154.874 164.806 154.287 164.534 153.787C164.263 153.286 163.893 152.906 163.425 152.645C162.969 152.373 162.463 152.237 161.909 152.237C161.354 152.237 160.849 152.368 160.392 152.629C159.935 152.89 159.571 153.27 159.299 153.77C159.028 154.271 158.892 154.858 158.892 155.532C158.892 156.217 159.028 156.815 159.299 157.326C159.571 157.826 159.935 158.211 160.392 158.484C160.849 158.744 161.354 158.875 161.909 158.875C162.463 158.875 162.969 158.744 163.425 158.484C163.893 158.211 164.263 157.826 164.534 157.326C164.806 156.815 164.942 156.222 164.942 155.548ZM173.305 150.933C174.392 150.933 175.273 151.264 175.947 151.927C176.621 152.58 176.957 153.526 176.957 154.765V160.033H175.49V154.977C175.49 154.085 175.267 153.407 174.822 152.939C174.376 152.461 173.767 152.221 172.995 152.221C172.212 152.221 171.587 152.466 171.12 152.955C170.663 153.444 170.435 154.157 170.435 155.091V160.033H168.951V151.096H170.435V152.368C170.728 151.911 171.125 151.557 171.625 151.308C172.136 151.058 172.696 150.933 173.305 150.933ZM185.215 152.743C185.508 152.232 185.942 151.808 186.519 151.471C187.107 151.123 187.785 150.949 188.558 150.949C189.351 150.949 190.068 151.14 190.711 151.52C191.363 151.9 191.874 152.438 192.244 153.134C192.613 153.819 192.798 154.618 192.798 155.532C192.798 156.434 192.613 157.239 192.244 157.945C191.874 158.652 191.363 159.201 190.711 159.593C190.068 159.984 189.351 160.18 188.558 160.18C187.797 160.18 187.123 160.012 186.536 159.674C185.959 159.327 185.518 158.896 185.215 158.386V164.273H183.731V151.096H185.215V152.743ZM191.282 155.532C191.282 154.858 191.145 154.271 190.874 153.77C190.602 153.27 190.232 152.89 189.765 152.629C189.308 152.368 188.803 152.237 188.248 152.237C187.704 152.237 187.198 152.373 186.731 152.645C186.275 152.906 185.905 153.292 185.622 153.803C185.35 154.303 185.215 154.884 185.215 155.548C185.215 156.222 185.35 156.815 185.622 157.326C185.905 157.826 186.275 158.211 186.731 158.484C187.198 158.744 187.704 158.875 188.248 158.875C188.803 158.875 189.308 158.744 189.765 158.484C190.232 158.211 190.602 157.826 190.874 157.326C191.145 156.815 191.282 156.217 191.282 155.532ZM196.236 152.547C196.497 152.037 196.867 151.639 197.345 151.357C197.834 151.074 198.426 150.933 199.122 150.933V152.466H198.731C197.067 152.466 196.236 153.368 196.236 155.173V160.033H194.752V151.096H196.236V152.547ZM208.989 155.222C208.989 155.504 208.973 155.804 208.94 156.119H201.797C201.852 156.999 202.151 157.689 202.694 158.19C203.248 158.679 203.917 158.924 204.7 158.924C205.342 158.924 205.874 158.777 206.298 158.484C206.733 158.179 207.038 157.777 207.211 157.277H208.81C208.571 158.136 208.092 158.837 207.374 159.381C206.657 159.914 205.766 160.18 204.7 160.18C203.852 160.18 203.092 159.989 202.417 159.609C201.754 159.229 201.232 158.691 200.851 157.994C200.471 157.288 200.28 156.473 200.28 155.548C200.28 154.623 200.466 153.814 200.835 153.118C201.205 152.422 201.722 151.89 202.384 151.52C203.059 151.14 203.83 150.949 204.7 150.949C205.548 150.949 206.298 151.133 206.95 151.503C207.603 151.873 208.103 152.384 208.451 153.036C208.81 153.677 208.989 154.406 208.989 155.222ZM207.456 154.912C207.456 154.346 207.332 153.863 207.081 153.46C206.831 153.048 206.489 152.738 206.053 152.531C205.629 152.314 205.156 152.205 204.635 152.205C203.884 152.205 203.243 152.444 202.71 152.922C202.188 153.4 201.89 154.064 201.813 154.912H207.456ZM214.276 158.663L217.048 151.096H218.63L215.124 160.033H213.395L209.889 151.096H211.487L214.276 158.663ZM220.857 149.644C220.574 149.644 220.335 149.546 220.139 149.351C219.943 149.155 219.846 148.915 219.846 148.633C219.846 148.351 219.943 148.111 220.139 147.916C220.335 147.72 220.574 147.622 220.857 147.622C221.129 147.622 221.357 147.72 221.542 147.916C221.737 148.111 221.835 148.351 221.835 148.633C221.835 148.915 221.737 149.155 221.542 149.351C221.357 149.546 221.129 149.644 220.857 149.644ZM221.574 151.096V160.033H220.09V151.096H221.574ZM228.001 160.18C227.164 160.18 226.403 159.989 225.718 159.609C225.044 159.229 224.511 158.691 224.12 157.994C223.74 157.288 223.549 156.473 223.549 155.548C223.549 154.635 223.745 153.831 224.136 153.134C224.539 152.428 225.082 151.89 225.767 151.52C226.452 151.14 227.218 150.949 228.066 150.949C228.914 150.949 229.681 151.14 230.366 151.52C231.051 151.89 231.589 152.422 231.981 153.118C232.383 153.814 232.584 154.623 232.584 155.548C232.584 156.473 232.378 157.288 231.964 157.994C231.563 158.691 231.013 159.229 230.317 159.609C229.622 159.989 228.849 160.18 228.001 160.18ZM228.001 158.875C228.534 158.875 229.035 158.749 229.502 158.5C229.97 158.25 230.345 157.875 230.627 157.375C230.92 156.874 231.067 156.266 231.067 155.548C231.067 154.83 230.927 154.222 230.643 153.721C230.361 153.221 229.991 152.852 229.534 152.612C229.078 152.363 228.583 152.237 228.05 152.237C227.507 152.237 227.006 152.363 226.55 152.612C226.104 152.852 225.746 153.221 225.473 153.721C225.202 154.222 225.066 154.83 225.066 155.548C225.066 156.277 225.196 156.89 225.457 157.391C225.729 157.891 226.088 158.267 226.533 158.516C226.98 158.756 227.469 158.875 228.001 158.875ZM242.462 151.096V160.033H240.978V158.712C240.694 159.169 240.298 159.527 239.787 159.788C239.287 160.038 238.732 160.163 238.124 160.163C237.428 160.163 236.803 160.022 236.248 159.739C235.694 159.446 235.254 159.01 234.927 158.435C234.611 157.859 234.454 157.158 234.454 156.331V151.096H235.922V156.135C235.922 157.016 236.144 157.696 236.591 158.174C237.036 158.642 237.645 158.875 238.417 158.875C239.21 158.875 239.836 158.63 240.293 158.141C240.75 157.652 240.978 156.939 240.978 156.005V151.096H242.462ZM248.131 160.18C247.446 160.18 246.833 160.065 246.288 159.837C245.745 159.598 245.316 159.271 245 158.859C244.685 158.435 244.511 157.95 244.478 157.407H246.011C246.055 157.853 246.262 158.218 246.631 158.5C247.012 158.782 247.506 158.924 248.115 158.924C248.681 158.924 249.126 158.798 249.452 158.549C249.778 158.299 249.941 157.983 249.941 157.603C249.941 157.211 249.768 156.923 249.42 156.739C249.072 156.543 248.534 156.352 247.805 156.168C247.143 155.993 246.598 155.82 246.174 155.646C245.761 155.461 245.403 155.194 245.098 154.847C244.804 154.488 244.657 154.02 244.657 153.444C244.657 152.988 244.794 152.569 245.065 152.188C245.337 151.808 245.724 151.508 246.223 151.291C246.724 151.063 247.294 150.949 247.935 150.949C248.925 150.949 249.724 151.199 250.333 151.699C250.943 152.2 251.269 152.885 251.311 153.754H249.827C249.795 153.286 249.605 152.911 249.256 152.629C248.92 152.346 248.464 152.205 247.887 152.205C247.355 152.205 246.931 152.319 246.614 152.547C246.3 152.775 246.141 153.074 246.141 153.444C246.141 153.738 246.234 153.982 246.419 154.178C246.614 154.362 246.854 154.516 247.136 154.635C247.43 154.744 247.833 154.868 248.343 155.01C248.985 155.184 249.507 155.357 249.909 155.532C250.312 155.695 250.654 155.944 250.936 156.282C251.23 156.619 251.383 157.06 251.393 157.603C251.393 158.092 251.257 158.532 250.985 158.924C250.714 159.315 250.328 159.625 249.827 159.853C249.338 160.071 248.773 160.18 248.131 160.18ZM268.584 150.933C269.28 150.933 269.9 151.079 270.443 151.373C270.986 151.655 271.416 152.086 271.731 152.661C272.046 153.237 272.204 153.938 272.204 154.765V160.033H270.736V154.977C270.736 154.085 270.513 153.407 270.068 152.939C269.632 152.461 269.04 152.221 268.29 152.221C267.518 152.221 266.904 152.471 266.447 152.971C265.99 153.46 265.762 154.173 265.762 155.108V160.033H264.294V154.977C264.294 154.085 264.071 153.407 263.626 152.939C263.19 152.461 262.598 152.221 261.848 152.221C261.077 152.221 260.462 152.471 260.005 152.971C259.548 153.46 259.32 154.173 259.32 155.108V160.033H257.836V151.096H259.32V152.384C259.614 151.916 260.005 151.557 260.494 151.308C260.995 151.058 261.543 150.933 262.142 150.933C262.892 150.933 263.555 151.101 264.131 151.438C264.707 151.776 265.137 152.27 265.42 152.922C265.669 152.291 266.083 151.802 266.659 151.454C267.235 151.107 267.877 150.933 268.584 150.933ZM278.537 160.18C277.699 160.18 276.939 159.989 276.254 159.609C275.579 159.229 275.047 158.691 274.655 157.994C274.274 157.288 274.085 156.473 274.085 155.548C274.085 154.635 274.28 153.831 274.672 153.134C275.073 152.428 275.618 151.89 276.303 151.52C276.988 151.14 277.754 150.949 278.602 150.949C279.45 150.949 280.217 151.14 280.902 151.52C281.587 151.89 282.125 152.422 282.516 153.118C282.918 153.814 283.12 154.623 283.12 155.548C283.12 156.473 282.913 157.288 282.5 157.994C282.097 158.691 281.548 159.229 280.853 159.609C280.156 159.989 279.385 160.18 278.537 160.18ZM278.537 158.875C279.069 158.875 279.569 158.749 280.037 158.5C280.504 158.25 280.879 157.875 281.163 157.375C281.456 156.874 281.603 156.266 281.603 155.548C281.603 154.83 281.461 154.222 281.179 153.721C280.895 153.221 280.526 152.852 280.07 152.612C279.613 152.363 279.118 152.237 278.586 152.237C278.041 152.237 277.542 152.363 277.085 152.612C276.639 152.852 276.28 153.221 276.009 153.721C275.737 154.222 275.601 154.83 275.601 155.548C275.601 156.277 275.732 156.89 275.993 157.391C276.264 157.891 276.622 158.267 277.069 158.516C277.514 158.756 278.004 158.875 278.537 158.875ZM289.425 150.933C290.512 150.933 291.393 151.264 292.067 151.927C292.74 152.58 293.078 153.526 293.078 154.765V160.033H291.61V154.977C291.61 154.085 291.387 153.407 290.941 152.939C290.496 152.461 289.886 152.221 289.115 152.221C288.332 152.221 287.707 152.466 287.239 152.955C286.783 153.444 286.554 154.157 286.554 155.091V160.033H285.07V151.096H286.554V152.368C286.848 151.911 287.244 151.557 287.745 151.308C288.256 151.058 288.816 150.933 289.425 150.933ZM297.312 152.319V157.587C297.312 158.022 297.405 158.332 297.589 158.516C297.775 158.691 298.095 158.777 298.551 158.777H299.644V160.033H298.307C297.481 160.033 296.862 159.842 296.448 159.462C296.035 159.082 295.828 158.456 295.828 157.587V152.319H294.67V151.096H295.828V148.845H297.312V151.096H299.644V152.319H297.312ZM305.879 150.933C306.553 150.933 307.161 151.079 307.706 151.373C308.249 151.655 308.673 152.086 308.978 152.661C309.293 153.237 309.451 153.938 309.451 154.765V160.033H307.983V154.977C307.983 154.085 307.76 153.407 307.314 152.939C306.868 152.461 306.259 152.221 305.488 152.221C304.705 152.221 304.079 152.466 303.612 152.955C303.155 153.444 302.927 154.157 302.927 155.091V160.033H301.443V147.964H302.927V152.368C303.221 151.911 303.622 151.557 304.134 151.308C304.656 151.058 305.237 150.933 305.879 150.933Z" fill="#262626"/>
<path d="M88.1698 116.913C90.8996 114.638 93.075 112.747 94.6958 111.24C96.3166 109.704 97.6674 108.112 98.7479 106.463C99.8284 104.813 100.369 103.193 100.369 101.6C100.369 100.15 100.027 99.0125 99.345 98.1879C98.6626 97.3633 97.6104 96.9509 96.1887 96.9509C94.7669 96.9509 93.6721 97.4343 92.9044 98.4012C92.1366 99.3395 91.7385 100.633 91.7101 102.283H85.9092C86.023 98.8704 87.0323 96.2827 88.9376 94.5197C90.8712 92.7567 93.3167 91.8752 96.274 91.8752C99.5156 91.8752 102.004 92.7424 103.738 94.477C105.473 96.1832 106.34 98.4438 106.34 101.259C106.34 103.477 105.743 105.595 104.549 107.614C103.354 109.633 101.99 111.396 100.454 112.903C98.9185 114.382 96.9138 116.174 94.4399 118.278H107.023V123.226H85.9518V118.79L88.1698 116.913ZM115.989 107.188C113.146 105.709 111.724 103.42 111.724 100.321C111.724 98.785 112.108 97.3916 112.875 96.1405C113.672 94.8609 114.852 93.8514 116.416 93.1121C118.008 92.3444 119.942 91.9605 122.217 91.9605C124.492 91.9605 126.411 92.3444 127.975 93.1121C129.567 93.8514 130.747 94.8609 131.515 96.1405C132.311 97.3916 132.709 98.785 132.709 100.321C132.709 101.885 132.325 103.264 131.558 104.458C130.79 105.624 129.766 106.534 128.487 107.188C130.051 107.87 131.273 108.865 132.155 110.174C133.036 111.482 133.477 113.031 133.477 114.823C133.477 116.756 132.98 118.448 131.984 119.899C131.018 121.32 129.681 122.415 127.975 123.183C126.269 123.951 124.349 124.334 122.217 124.334C120.084 124.334 118.164 123.951 116.458 123.183C114.781 122.415 113.444 121.32 112.449 119.899C111.482 118.448 110.999 116.756 110.999 114.823C110.999 113.031 111.44 111.482 112.321 110.174C113.202 108.837 114.425 107.842 115.989 107.188ZM126.908 101.174C126.908 99.7802 126.482 98.6997 125.629 97.932C124.804 97.1642 123.667 96.7803 122.217 96.7803C120.795 96.7803 119.657 97.1642 118.804 97.932C117.98 98.6997 117.567 99.7945 117.567 101.216C117.567 102.496 117.994 103.52 118.847 104.287C119.728 105.055 120.852 105.439 122.217 105.439C123.582 105.439 124.705 105.055 125.586 104.287C126.468 103.491 126.908 102.453 126.908 101.174ZM122.217 109.79C120.596 109.79 119.273 110.202 118.25 111.027C117.255 111.851 116.757 113.031 116.757 114.567C116.757 115.989 117.24 117.155 118.207 118.064C119.202 118.946 120.539 119.387 122.217 119.387C123.894 119.387 125.217 118.932 126.183 118.022C127.15 117.112 127.634 115.96 127.634 114.567C127.634 113.06 127.136 111.894 126.141 111.069C125.146 110.216 123.837 109.79 122.217 109.79ZM145.104 114.908C145.331 116.159 145.843 117.126 146.639 117.809C147.464 118.462 148.559 118.79 149.923 118.79C151.686 118.79 152.966 118.064 153.762 116.614C154.558 115.136 154.957 112.662 154.957 109.192C154.303 110.102 153.378 110.813 152.184 111.325C151.018 111.837 149.753 112.093 148.388 112.093C146.568 112.093 144.919 111.723 143.44 110.984C141.99 110.216 140.838 109.093 139.985 107.614C139.132 106.107 138.706 104.287 138.706 102.155C138.706 98.9983 139.644 96.4959 141.521 94.6476C143.397 92.7709 145.957 91.8325 149.198 91.8325C153.236 91.8325 156.08 93.1263 157.729 95.714C159.407 98.3017 160.246 102.197 160.246 107.401C160.246 111.098 159.919 114.126 159.265 116.486C158.639 118.846 157.544 120.638 155.98 121.861C154.445 123.083 152.341 123.695 149.668 123.695C147.563 123.695 145.772 123.297 144.293 122.5C142.814 121.676 141.677 120.609 140.881 119.301C140.113 117.965 139.672 116.5 139.559 114.908H145.104ZM149.625 107.23C151.104 107.23 152.269 106.775 153.122 105.866C153.976 104.956 154.402 103.733 154.402 102.197C154.402 100.52 153.947 99.2258 153.037 98.3159C152.156 97.3775 150.947 96.9083 149.412 96.9083C147.876 96.9083 146.653 97.3916 145.743 98.3585C144.862 99.2969 144.421 100.548 144.421 102.112C144.421 103.619 144.848 104.856 145.701 105.823C146.582 106.761 147.89 107.23 149.625 107.23Z" fill="black"/>
<path d="M186.209 100.77C186.088 100.648 185.943 100.55 185.784 100.484C185.625 100.418 185.454 100.384 185.282 100.384C185.109 100.384 184.938 100.418 184.779 100.484C184.62 100.55 184.476 100.648 184.354 100.77L180.055 105.082V93.2038C180.055 92.8572 179.917 92.5247 179.672 92.2797C179.427 92.0346 179.095 91.897 178.747 91.897C178.401 91.897 178.069 92.0346 177.824 92.2797C177.578 92.5247 177.442 92.8572 177.442 93.2038V105.082L173.142 100.77C172.896 100.524 172.562 100.386 172.214 100.386C171.866 100.386 171.532 100.524 171.286 100.77C171.04 101.016 170.902 101.35 170.902 101.698C170.902 102.046 171.04 102.38 171.286 102.626L177.82 109.16C177.945 109.279 178.091 109.372 178.252 109.434C178.407 109.503 178.577 109.539 178.747 109.539C178.919 109.539 179.089 109.503 179.244 109.434C179.405 109.372 179.552 109.279 179.676 109.16L186.209 102.626C186.332 102.504 186.429 102.36 186.495 102.2C186.562 102.041 186.596 101.87 186.596 101.698C186.596 101.525 186.562 101.355 186.495 101.195C186.429 101.036 186.332 100.892 186.209 100.77Z" fill="#CF1322"/>
<path d="M91.0293 60.9262L88.5178 56.4902H87.4414V60.9262H85.1582V49.5427H89.4311C90.3118 49.5427 91.062 49.7004 91.6817 50.0156C92.3014 50.3201 92.7635 50.7386 93.0679 51.2714C93.3832 51.7933 93.5409 52.3804 93.5409 53.0327C93.5409 53.7829 93.3235 54.4625 92.8885 55.0713C92.4536 55.6694 91.8068 56.0825 90.9478 56.3108L93.6713 60.9262H91.0293ZM87.4414 54.7778H89.3495C89.9693 54.7778 90.4313 54.631 90.7358 54.3374C91.0402 54.033 91.1924 53.6145 91.1924 53.0817C91.1924 52.5598 91.0402 52.1575 90.7358 51.8748C90.4313 51.5813 89.9693 51.4345 89.3495 51.4345H87.4414V54.7778ZM104.005 56.2129C104.005 56.5391 103.983 56.8327 103.94 57.0936H97.3347C97.3891 57.746 97.6174 58.2569 98.0196 58.6266C98.4219 58.9963 98.9166 59.1811 99.5037 59.1811C100.352 59.1811 100.955 58.8169 101.314 58.0884H103.777C103.516 58.9582 103.016 59.6758 102.276 60.2412C101.537 60.7957 100.629 61.0729 99.5526 61.0729C98.6829 61.0729 97.9001 60.8826 97.2042 60.5021C96.5192 60.1107 95.981 59.5616 95.5896 58.8549C95.2091 58.1483 95.0188 57.3328 95.0188 56.4086C95.0188 55.4737 95.2091 54.6527 95.5896 53.946C95.9702 53.2394 96.5029 52.6957 97.1879 52.3152C97.8728 51.9347 98.6612 51.7444 99.5526 51.7444C100.412 51.7444 101.178 51.9291 101.852 52.2989C102.537 52.6686 103.065 53.1958 103.434 53.8808C103.815 54.5548 104.005 55.3323 104.005 56.2129ZM101.64 55.5606C101.629 54.9735 101.417 54.5059 101.004 54.158C100.591 53.7993 100.085 53.6199 99.4874 53.6199C98.9221 53.6199 98.4436 53.7939 98.0522 54.1417C97.6717 54.4788 97.438 54.9518 97.351 55.5606H101.64ZM109.814 53.7666H108.232V60.9262H105.916V53.7666H104.889V51.8911H105.916V51.4345C105.916 50.3255 106.231 49.5101 106.862 48.9882C107.493 48.4663 108.444 48.2217 109.716 48.2543V50.1787C109.162 50.1678 108.776 50.2603 108.558 50.456C108.341 50.6517 108.232 51.0051 108.232 51.516V51.8911H109.814V53.7666ZM119.693 56.2129C119.693 56.5391 119.671 56.8327 119.627 57.0936H113.022C113.077 57.746 113.305 58.2569 113.707 58.6266C114.11 58.9963 114.604 59.1811 115.191 59.1811C116.039 59.1811 116.643 58.8169 117.002 58.0884H119.464C119.203 58.9582 118.703 59.6758 117.964 60.2412C117.225 60.7957 116.317 61.0729 115.24 61.0729C114.371 61.0729 113.588 60.8826 112.892 60.5021C112.207 60.1107 111.669 59.5616 111.277 58.8549C110.897 58.1483 110.706 57.3328 110.706 56.4086C110.706 55.4737 110.897 54.6527 111.277 53.946C111.658 53.2394 112.191 52.6957 112.876 52.3152C113.56 51.9347 114.349 51.7444 115.24 51.7444C116.099 51.7444 116.866 51.9291 117.54 52.2989C118.225 52.6686 118.752 53.1958 119.122 53.8808C119.502 54.5548 119.693 55.3323 119.693 56.2129ZM117.328 55.5606C117.317 54.9735 117.105 54.5059 116.692 54.158C116.279 53.7993 115.773 53.6199 115.175 53.6199C114.61 53.6199 114.131 53.7939 113.74 54.1417C113.359 54.4788 113.126 54.9518 113.039 55.5606H117.328ZM123.642 53.2937C123.936 52.8153 124.316 52.4402 124.784 52.1684C125.262 51.8965 125.806 51.7607 126.415 51.7607V54.158H125.811C125.094 54.158 124.55 54.3265 124.18 54.6636C123.822 55.0007 123.642 55.5878 123.642 56.425V60.9262H121.359V51.8911H123.642V53.2937ZM130.236 53.2937C130.529 52.8153 130.91 52.4402 131.377 52.1684C131.856 51.8965 132.399 51.7607 133.008 51.7607V54.158H132.405C131.687 54.158 131.144 54.3265 130.774 54.6636C130.415 55.0007 130.236 55.5878 130.236 56.425V60.9262H127.953V51.8911H130.236V53.2937ZM135.704 50.8148C135.302 50.8148 134.965 50.6897 134.693 50.4397C134.432 50.1787 134.302 49.8579 134.302 49.4774C134.302 49.097 134.432 48.7816 134.693 48.5315C134.965 48.2706 135.302 48.1401 135.704 48.1401C136.106 48.1401 136.438 48.2706 136.699 48.5315C136.971 48.7816 137.107 49.097 137.107 49.4774C137.107 49.8579 136.971 50.1787 136.699 50.4397C136.438 50.6897 136.106 50.8148 135.704 50.8148ZM136.829 51.8911V60.9262H134.546V51.8911H136.829ZM144.092 51.7607C145.168 51.7607 146.038 52.1031 146.701 52.7881C147.365 53.4622 147.696 54.4081 147.696 55.6258V60.9262H145.413V55.9357C145.413 55.2181 145.234 54.669 144.875 54.2885C144.516 53.8971 144.027 53.7014 143.407 53.7014C142.776 53.7014 142.276 53.8971 141.907 54.2885C141.548 54.669 141.368 55.2181 141.368 55.9357V60.9262H139.085V51.8911H141.368V53.0164C141.673 52.625 142.059 52.3206 142.526 52.1031C143.005 51.8748 143.527 51.7607 144.092 51.7607ZM153.406 51.7444C154.081 51.7444 154.673 51.8802 155.184 52.1521C155.695 52.413 156.097 52.7555 156.391 53.1795V51.8911H158.69V60.9914C158.69 61.8285 158.522 62.5733 158.185 63.2257C157.848 63.8889 157.342 64.4108 156.668 64.7913C155.994 65.1827 155.179 65.3784 154.222 65.3784C152.939 65.3784 151.884 65.0795 151.058 64.4814C150.243 63.8834 149.78 63.068 149.672 62.0351H151.939C152.058 62.4483 152.314 62.7744 152.705 63.0137C153.107 63.2637 153.591 63.3888 154.157 63.3888C154.82 63.3888 155.358 63.1877 155.771 62.7853C156.184 62.3939 156.391 61.7959 156.391 60.9914V59.5888C156.097 60.0129 155.69 60.3663 155.168 60.6489C154.657 60.9315 154.07 61.0729 153.406 61.0729C152.645 61.0729 151.949 60.8772 151.319 60.4858C150.688 60.0944 150.188 59.5453 149.819 58.8386C149.46 58.1211 149.28 57.3002 149.28 56.376C149.28 55.4627 149.46 54.6527 149.819 53.946C150.188 53.2394 150.683 52.6957 151.303 52.3152C151.933 51.9347 152.634 51.7444 153.406 51.7444ZM156.391 56.4086C156.391 55.8541 156.282 55.3812 156.065 54.9898C155.847 54.5875 155.554 54.2831 155.184 54.0765C154.814 53.8591 154.418 53.7503 153.994 53.7503C153.57 53.7503 153.178 53.8536 152.819 54.0602C152.461 54.2668 152.167 54.5712 151.939 54.9735C151.721 55.3649 151.613 55.8324 151.613 56.376C151.613 56.9196 151.721 57.3981 151.939 57.8112C152.167 58.2135 152.461 58.5234 152.819 58.7408C153.189 58.9582 153.58 59.067 153.994 59.067C154.418 59.067 154.814 58.9637 155.184 58.7571C155.554 58.5397 155.847 58.2352 156.065 57.8438C156.282 57.4415 156.391 56.9631 156.391 56.4086ZM164.219 56.376C164.219 55.4627 164.399 54.6527 164.758 53.946C165.127 53.2394 165.627 52.6957 166.258 52.3152C166.888 51.9347 167.59 51.7444 168.362 51.7444C168.949 51.7444 169.509 51.8748 170.042 52.1358C170.574 52.3858 170.998 52.7229 171.314 53.1469V48.8577H173.629V60.9262H171.314V59.5888C171.031 60.0346 170.634 60.3934 170.123 60.6652C169.612 60.9371 169.02 61.0729 168.345 61.0729C167.584 61.0729 166.888 60.8772 166.258 60.4858C165.627 60.0944 165.127 59.5453 164.758 58.8386C164.399 58.1211 164.219 57.3002 164.219 56.376ZM171.33 56.4086C171.33 55.8541 171.221 55.3812 171.004 54.9898C170.786 54.5875 170.493 54.2831 170.123 54.0765C169.753 53.8591 169.357 53.7503 168.933 53.7503C168.509 53.7503 168.117 53.8536 167.758 54.0602C167.4 54.2668 167.106 54.5712 166.878 54.9735C166.66 55.3649 166.552 55.8324 166.552 56.376C166.552 56.9196 166.66 57.3981 166.878 57.8112C167.106 58.2135 167.4 58.5234 167.758 58.7408C168.128 58.9582 168.519 59.067 168.933 59.067C169.357 59.067 169.753 58.9637 170.123 58.7571C170.493 58.5397 170.786 58.2352 171.004 57.8438C171.221 57.4415 171.33 56.9631 171.33 56.4086ZM179.872 61.0729C179.001 61.0729 178.218 60.8826 177.523 60.5021C176.827 60.1107 176.278 59.5616 175.876 58.8549C175.484 58.1483 175.289 57.3328 175.289 56.4086C175.289 55.4844 175.49 54.669 175.892 53.9623C176.305 53.2557 176.865 52.712 177.572 52.3315C178.278 51.9401 179.066 51.7444 179.937 51.7444C180.806 51.7444 181.594 51.9401 182.302 52.3315C183.008 52.712 183.562 53.2557 183.965 53.9623C184.378 54.669 184.585 55.4844 184.585 56.4086C184.585 57.3328 184.373 58.1483 183.949 58.8549C183.535 59.5616 182.97 60.1107 182.253 60.5021C181.545 60.8826 180.752 61.0729 179.872 61.0729ZM179.872 59.0833C180.284 59.0833 180.671 58.9854 181.03 58.7897C181.398 58.5831 181.692 58.2788 181.91 57.8764C182.127 57.4741 182.236 56.9848 182.236 56.4086C182.236 55.5497 182.008 54.8919 181.551 54.4353C181.105 53.9677 180.557 53.734 179.904 53.734C179.252 53.734 178.702 53.9677 178.257 54.4353C177.822 54.8919 177.605 55.5497 177.605 56.4086C177.605 57.2676 177.817 57.9307 178.241 58.3983C178.675 58.8549 179.219 59.0833 179.872 59.0833ZM197.48 51.7607C198.589 51.7607 199.481 52.1031 200.155 52.7881C200.84 53.4622 201.182 54.4081 201.182 55.6258V60.9262H198.899V55.9357C198.899 55.229 198.719 54.6908 198.361 54.3211C198.002 53.9406 197.513 53.7503 196.893 53.7503C196.273 53.7503 195.779 53.9406 195.409 54.3211C195.05 54.6908 194.871 55.229 194.871 55.9357V60.9262H192.587V55.9357C192.587 55.229 192.408 54.6908 192.049 54.3211C191.69 53.9406 191.201 53.7503 190.581 53.7503C189.95 53.7503 189.451 53.9406 189.081 54.3211C188.722 54.6908 188.543 55.229 188.543 55.9357V60.9262H186.26V51.8911H188.543V52.9838C188.836 52.6033 189.211 52.3042 189.668 52.0868C190.136 51.8694 190.647 51.7607 191.201 51.7607C191.907 51.7607 192.538 51.9128 193.093 52.2173C193.647 52.5109 194.076 52.9349 194.381 53.4894C194.675 52.9675 195.099 52.5489 195.653 52.2336C196.219 51.9184 196.828 51.7607 197.48 51.7607ZM202.761 56.376C202.761 55.4627 202.941 54.6527 203.3 53.946C203.67 53.2394 204.164 52.6957 204.784 52.3152C205.415 51.9347 206.116 51.7444 206.888 51.7444C207.561 51.7444 208.148 51.8802 208.649 52.1521C209.159 52.4239 209.567 52.7664 209.872 53.1795V51.8911H212.172V60.9262H209.872V59.6051C209.579 60.0292 209.171 60.3826 208.649 60.6652C208.138 60.9371 207.545 61.0729 206.871 61.0729C206.11 61.0729 205.415 60.8772 204.784 60.4858C204.164 60.0944 203.67 59.5453 203.3 58.8386C202.941 58.1211 202.761 57.3002 202.761 56.376ZM209.872 56.4086C209.872 55.8541 209.763 55.3812 209.546 54.9898C209.329 54.5875 209.035 54.2831 208.665 54.0765C208.295 53.8591 207.899 53.7503 207.475 53.7503C207.051 53.7503 206.659 53.8536 206.3 54.0602C205.942 54.2668 205.648 54.5712 205.42 54.9735C205.203 55.3649 205.094 55.8324 205.094 56.376C205.094 56.9196 205.203 57.3981 205.42 57.8112C205.648 58.2135 205.942 58.5234 206.3 58.7408C206.671 58.9582 207.062 59.067 207.475 59.067C207.899 59.067 208.295 58.9637 208.665 58.7571C209.035 58.5397 209.329 58.2352 209.546 57.8438C209.763 57.4415 209.872 56.9631 209.872 56.4086ZM215.559 50.8148C215.157 50.8148 214.82 50.6897 214.548 50.4397C214.287 50.1787 214.156 49.8579 214.156 49.4774C214.156 49.097 214.287 48.7816 214.548 48.5315C214.82 48.2706 215.157 48.1401 215.559 48.1401C215.961 48.1401 216.293 48.2706 216.554 48.5315C216.826 48.7816 216.961 49.097 216.961 49.4774C216.961 49.8579 216.826 50.1787 216.554 50.4397C216.293 50.6897 215.961 50.8148 215.559 50.8148ZM216.684 51.8911V60.9262H214.401V51.8911H216.684ZM223.948 51.7607C225.024 51.7607 225.893 52.1031 226.557 52.7881C227.219 53.4622 227.552 54.4081 227.552 55.6258V60.9262H225.269V55.9357C225.269 55.2181 225.089 54.669 224.731 54.2885C224.372 53.8971 223.882 53.7014 223.263 53.7014C222.632 53.7014 222.131 53.8971 221.762 54.2885C221.404 54.669 221.224 55.2181 221.224 55.9357V60.9262H218.941V51.8911H221.224V53.0164C221.528 52.625 221.914 52.3206 222.382 52.1031C222.86 51.8748 223.382 51.7607 223.948 51.7607ZM233.18 61.0729C232.441 61.0729 231.777 60.9425 231.19 60.6815C230.603 60.4097 230.136 60.0455 229.787 59.5888C229.451 59.1322 229.266 58.6266 229.233 58.0721H231.533C231.576 58.42 231.745 58.7082 232.038 58.9365C232.343 59.1648 232.718 59.279 233.163 59.279C233.599 59.279 233.936 59.192 234.175 59.018C234.425 58.844 234.55 58.6212 234.55 58.3494C234.55 58.0558 234.398 57.8384 234.093 57.697C233.799 57.5449 233.326 57.3818 232.674 57.2078C232 57.0447 231.446 56.8762 231.011 56.7022C230.587 56.5282 230.218 56.2619 229.902 55.9031C229.598 55.5443 229.445 55.0604 229.445 54.4516C229.445 53.9514 229.587 53.4948 229.869 53.0817C230.163 52.6686 230.577 52.3424 231.108 52.1031C231.653 51.8639 232.289 51.7444 233.017 51.7444C234.093 51.7444 234.952 52.0162 235.593 52.5598C236.236 53.0926 236.588 53.8156 236.653 54.7289H234.468C234.435 54.3701 234.284 54.0874 234.011 53.8808C233.75 53.6634 233.398 53.5546 232.951 53.5546C232.539 53.5546 232.217 53.6308 231.989 53.7829C231.772 53.9351 231.663 54.1471 231.663 54.419C231.663 54.7235 231.816 54.9572 232.12 55.1203C232.424 55.2724 232.897 55.4301 233.538 55.5932C234.191 55.7563 234.729 55.9248 235.153 56.0988C235.577 56.2728 235.942 56.5445 236.246 56.9142C236.562 57.273 236.725 57.7514 236.735 58.3494C236.735 58.8713 236.588 59.3388 236.295 59.7519C236.012 60.165 235.6 60.4912 235.055 60.7305C234.523 60.9588 233.897 61.0729 233.18 61.0729Z" fill="black"/>
</g>
<g filter="url(#filter1_d)">
<path d="M115.396 125.406H446.588C448.39 125.406 449.851 126.868 449.851 128.67V305.557C449.851 307.359 448.39 308.82 446.588 308.82H115.396C113.594 308.82 112.132 307.359 112.132 305.557V128.67C112.132 126.868 113.594 125.406 115.396 125.406Z" fill="white" stroke="#D9D9D9"/>
<path d="M144.577 276.635C145.621 275.766 146.452 275.042 147.072 274.466C147.692 273.879 148.208 273.27 148.621 272.639C149.034 272.008 149.241 271.389 149.241 270.78C149.241 270.226 149.111 269.79 148.85 269.475C148.589 269.161 148.186 269.002 147.643 269.002C147.099 269.002 146.681 269.187 146.387 269.557C146.093 269.916 145.941 270.41 145.93 271.041H143.712C143.756 269.736 144.142 268.747 144.87 268.073C145.61 267.399 146.545 267.062 147.675 267.062C148.915 267.062 149.866 267.393 150.529 268.057C151.193 268.709 151.524 269.573 151.524 270.65C151.524 271.498 151.296 272.308 150.839 273.08C150.383 273.851 149.861 274.526 149.274 275.102C148.687 275.668 147.92 276.353 146.974 277.157H151.785V279.049H143.729V277.353L144.577 276.635ZM160.791 269.051L156.453 279.212H154.137L158.508 269.312H152.93V267.355H160.791V269.051Z" fill="#00AC45"/>
<path d="M177.184 270.111C177.88 270.111 178.499 270.258 179.043 270.552C179.587 270.834 180.016 271.264 180.332 271.84C180.647 272.416 180.804 273.117 180.804 273.944V279.212H179.337V274.156C179.337 273.264 179.114 272.585 178.668 272.117C178.233 271.639 177.641 271.4 176.89 271.4C176.118 271.4 175.504 271.649 175.048 272.15C174.591 272.639 174.363 273.352 174.363 274.286V279.212H172.895V274.156C172.895 273.264 172.672 272.585 172.226 272.117C171.791 271.639 171.199 271.4 170.448 271.4C169.676 271.4 169.062 271.649 168.606 272.15C168.149 272.639 167.921 273.352 167.921 274.286V279.212H166.437V270.275H167.921V271.563C168.214 271.095 168.606 270.736 169.095 270.487C169.595 270.237 170.144 270.111 170.742 270.111C171.492 270.111 172.155 270.28 172.732 270.617C173.308 270.954 173.737 271.449 174.02 272.101C174.27 271.47 174.683 270.981 175.26 270.633C175.836 270.286 176.477 270.111 177.184 270.111ZM187.137 279.358C186.3 279.358 185.538 279.168 184.853 278.788C184.179 278.408 183.647 277.869 183.255 277.173C182.875 276.467 182.684 275.651 182.684 274.727C182.684 273.814 182.88 273.009 183.271 272.313C183.674 271.607 184.217 271.069 184.902 270.699C185.587 270.318 186.354 270.128 187.202 270.128C188.05 270.128 188.816 270.318 189.501 270.699C190.186 271.069 190.725 271.601 191.116 272.297C191.518 272.993 191.719 273.802 191.719 274.727C191.719 275.651 191.513 276.467 191.1 277.173C190.697 277.869 190.148 278.408 189.452 278.788C188.757 279.168 187.985 279.358 187.137 279.358ZM187.137 278.054C187.669 278.054 188.17 277.928 188.637 277.679C189.105 277.429 189.48 277.054 189.762 276.553C190.056 276.053 190.203 275.444 190.203 274.727C190.203 274.009 190.061 273.401 189.779 272.9C189.496 272.4 189.126 272.031 188.67 271.791C188.213 271.542 187.718 271.416 187.186 271.416C186.642 271.416 186.142 271.542 185.685 271.791C185.239 272.031 184.881 272.4 184.609 272.9C184.337 273.401 184.201 274.009 184.201 274.727C184.201 275.456 184.332 276.069 184.592 276.57C184.864 277.07 185.223 277.445 185.669 277.695C186.115 277.935 186.604 278.054 187.137 278.054ZM195.155 271.726C195.416 271.215 195.785 270.818 196.264 270.535C196.753 270.253 197.346 270.111 198.042 270.111V271.644H197.65C195.987 271.644 195.155 272.546 195.155 274.352V279.212H193.671V270.275H195.155V271.726ZM207.909 274.401C207.909 274.683 207.893 274.983 207.86 275.298H200.717C200.771 276.178 201.07 276.868 201.614 277.369C202.168 277.858 202.837 278.103 203.62 278.103C204.261 278.103 204.794 277.956 205.218 277.662C205.653 277.358 205.957 276.956 206.131 276.456H207.73C207.49 277.315 207.012 278.016 206.294 278.559C205.577 279.093 204.685 279.358 203.62 279.358C202.772 279.358 202.011 279.168 201.337 278.788C200.673 278.408 200.151 277.869 199.771 277.173C199.39 276.467 199.2 275.651 199.2 274.727C199.2 273.802 199.385 272.993 199.755 272.297C200.124 271.601 200.641 271.069 201.304 270.699C201.978 270.318 202.75 270.128 203.62 270.128C204.468 270.128 205.218 270.312 205.87 270.682C206.523 271.052 207.023 271.563 207.371 272.215C207.73 272.856 207.909 273.585 207.909 274.401ZM206.376 274.091C206.376 273.525 206.251 273.042 206.001 272.639C205.751 272.227 205.408 271.917 204.973 271.71C204.549 271.493 204.076 271.384 203.555 271.384C202.804 271.384 202.163 271.623 201.63 272.101C201.108 272.579 200.809 273.243 200.733 274.091H206.376ZM216.026 271.498V276.765C216.026 277.201 216.119 277.511 216.303 277.695C216.488 277.869 216.809 277.956 217.266 277.956H218.358V279.212H217.021C216.195 279.212 215.575 279.021 215.162 278.641C214.749 278.261 214.542 277.635 214.542 276.765V271.498H213.384V270.275H214.542V268.024H216.026V270.275H218.358V271.498H216.026ZM224.592 270.111C225.267 270.111 225.875 270.258 226.419 270.552C226.963 270.834 227.387 271.264 227.691 271.84C228.006 272.416 228.164 273.117 228.164 273.944V279.212H226.696V274.156C226.696 273.264 226.473 272.585 226.028 272.117C225.582 271.639 224.973 271.4 224.201 271.4C223.418 271.4 222.793 271.644 222.326 272.134C221.869 272.623 221.641 273.336 221.641 274.27V279.212H220.156V267.143H221.641V271.547C221.934 271.09 222.336 270.736 222.847 270.487C223.369 270.237 223.951 270.111 224.592 270.111ZM230.034 274.71C230.034 273.797 230.219 272.998 230.588 272.313C230.958 271.617 231.464 271.079 232.105 270.699C232.757 270.318 233.48 270.128 234.274 270.128C235.057 270.128 235.736 270.296 236.313 270.633C236.889 270.971 237.318 271.395 237.601 271.905V270.275H239.101V279.212H237.601V277.548C237.307 278.07 236.867 278.505 236.28 278.853C235.704 279.19 235.03 279.358 234.258 279.358C233.464 279.358 232.746 279.163 232.105 278.771C231.464 278.38 230.958 277.83 230.588 277.124C230.219 276.418 230.034 275.612 230.034 274.71ZM237.601 274.727C237.601 274.053 237.465 273.466 237.193 272.965C236.921 272.465 236.552 272.085 236.084 271.824C235.628 271.552 235.122 271.416 234.568 271.416C234.013 271.416 233.508 271.547 233.051 271.808C232.594 272.068 232.23 272.449 231.958 272.949C231.686 273.45 231.55 274.037 231.55 274.71C231.55 275.395 231.686 275.994 231.958 276.504C232.23 277.005 232.594 277.39 233.051 277.662C233.508 277.923 234.013 278.054 234.568 278.054C235.122 278.054 235.628 277.923 236.084 277.662C236.552 277.39 236.921 277.005 237.193 276.504C237.465 275.994 237.601 275.4 237.601 274.727ZM245.963 270.111C247.051 270.111 247.932 270.443 248.605 271.106C249.28 271.759 249.616 272.705 249.616 273.944V279.212H248.149V274.156C248.149 273.264 247.927 272.585 247.48 272.117C247.035 271.639 246.426 271.4 245.653 271.4C244.871 271.4 244.246 271.644 243.778 272.134C243.321 272.623 243.093 273.336 243.093 274.27V279.212H241.609V270.275H243.093V271.547C243.386 271.09 243.784 270.736 244.283 270.487C244.795 270.237 245.355 270.111 245.963 270.111ZM257.874 271.922C258.167 271.411 258.601 270.987 259.178 270.65C259.765 270.302 260.444 270.128 261.217 270.128C262.01 270.128 262.727 270.318 263.37 270.699C264.022 271.079 264.533 271.617 264.903 272.313C265.271 272.998 265.457 273.797 265.457 274.71C265.457 275.612 265.271 276.418 264.903 277.124C264.533 277.83 264.022 278.38 263.37 278.771C262.727 279.163 262.01 279.358 261.217 279.358C260.455 279.358 259.782 279.19 259.195 278.853C258.618 278.505 258.177 278.075 257.874 277.565V283.452H256.39V270.275H257.874V271.922ZM263.94 274.71C263.94 274.037 263.804 273.45 263.533 272.949C263.26 272.449 262.89 272.068 262.424 271.808C261.967 271.547 261.462 271.416 260.907 271.416C260.363 271.416 259.857 271.552 259.39 271.824C258.934 272.085 258.564 272.471 258.281 272.982C258.009 273.482 257.874 274.063 257.874 274.727C257.874 275.4 258.009 275.994 258.281 276.504C258.564 277.005 258.934 277.39 259.39 277.662C259.857 277.923 260.363 278.054 260.907 278.054C261.462 278.054 261.967 277.923 262.424 277.662C262.89 277.39 263.26 277.005 263.533 276.504C263.804 275.994 263.94 275.395 263.94 274.71ZM268.895 271.726C269.155 271.215 269.526 270.818 270.004 270.535C270.493 270.253 271.085 270.111 271.781 270.111V271.644H271.39C269.726 271.644 268.895 272.546 268.895 274.352V279.212H267.41V270.275H268.895V271.726ZM281.648 274.401C281.648 274.683 281.632 274.983 281.599 275.298H274.456C274.511 276.178 274.81 276.868 275.353 277.369C275.907 277.858 276.576 278.103 277.359 278.103C278.001 278.103 278.533 277.956 278.957 277.662C279.392 277.358 279.697 276.956 279.87 276.456H281.469C281.23 277.315 280.751 278.016 280.033 278.559C279.316 279.093 278.425 279.358 277.359 279.358C276.511 279.358 275.75 279.168 275.076 278.788C274.413 278.408 273.891 277.869 273.51 277.173C273.13 276.467 272.939 275.651 272.939 274.727C272.939 273.802 273.125 272.993 273.494 272.297C273.864 271.601 274.381 271.069 275.043 270.699C275.718 270.318 276.489 270.128 277.359 270.128C278.207 270.128 278.957 270.312 279.609 270.682C280.262 271.052 280.762 271.563 281.11 272.215C281.469 272.856 281.648 273.585 281.648 274.401ZM280.115 274.091C280.115 273.525 279.991 273.042 279.74 272.639C279.49 272.227 279.148 271.917 278.712 271.71C278.288 271.493 277.815 271.384 277.294 271.384C276.543 271.384 275.902 271.623 275.369 272.101C274.847 272.579 274.549 273.243 274.472 274.091H280.115ZM286.934 277.842L289.707 270.275H291.289L287.782 279.212H286.054L282.547 270.275H284.146L286.934 277.842ZM293.516 268.823C293.233 268.823 292.994 268.725 292.798 268.53C292.602 268.334 292.504 268.094 292.504 267.812C292.504 267.53 292.602 267.29 292.798 267.094C292.994 266.899 293.233 266.801 293.516 266.801C293.788 266.801 294.016 266.899 294.201 267.094C294.396 267.29 294.494 267.53 294.494 267.812C294.494 268.094 294.396 268.334 294.201 268.53C294.016 268.725 293.788 268.823 293.516 268.823ZM294.233 270.275V279.212H292.749V270.275H294.233ZM300.66 279.358C299.823 279.358 299.062 279.168 298.377 278.788C297.703 278.408 297.17 277.869 296.779 277.173C296.399 276.467 296.208 275.651 296.208 274.727C296.208 273.814 296.404 273.009 296.795 272.313C297.198 271.607 297.741 271.069 298.426 270.699C299.111 270.318 299.877 270.128 300.725 270.128C301.573 270.128 302.34 270.318 303.025 270.699C303.71 271.069 304.248 271.601 304.639 272.297C305.042 272.993 305.243 273.802 305.243 274.727C305.243 275.651 305.037 276.467 304.623 277.173C304.222 277.869 303.672 278.408 302.976 278.788C302.281 279.168 301.508 279.358 300.66 279.358ZM300.66 278.054C301.193 278.054 301.694 277.928 302.16 277.679C302.628 277.429 303.004 277.054 303.286 276.553C303.579 276.053 303.726 275.444 303.726 274.727C303.726 274.009 303.586 273.401 303.302 272.9C303.02 272.4 302.65 272.031 302.193 271.791C301.736 271.542 301.242 271.416 300.709 271.416C300.166 271.416 299.665 271.542 299.209 271.791C298.763 272.031 298.404 272.4 298.132 272.9C297.861 273.401 297.725 274.009 297.725 274.727C297.725 275.456 297.855 276.069 298.116 276.57C298.388 277.07 298.747 277.445 299.192 277.695C299.639 277.935 300.128 278.054 300.66 278.054ZM315.121 270.275V279.212H313.637V277.891C313.353 278.347 312.957 278.706 312.446 278.967C311.946 279.217 311.391 279.342 310.783 279.342C310.087 279.342 309.462 279.2 308.907 278.918C308.353 278.625 307.912 278.189 307.586 277.613C307.27 277.038 307.113 276.336 307.113 275.51V270.275H308.581V275.314C308.581 276.195 308.803 276.875 309.25 277.353C309.695 277.82 310.304 278.054 311.076 278.054C311.869 278.054 312.495 277.809 312.952 277.32C313.408 276.831 313.637 276.118 313.637 275.183V270.275H315.121ZM320.79 279.358C320.105 279.358 319.492 279.244 318.947 279.016C318.404 278.776 317.975 278.45 317.659 278.037C317.344 277.613 317.17 277.129 317.137 276.586H318.67C318.714 277.031 318.921 277.396 319.29 277.679C319.671 277.961 320.165 278.103 320.774 278.103C321.34 278.103 321.785 277.977 322.111 277.728C322.437 277.478 322.6 277.162 322.6 276.782C322.6 276.39 322.427 276.102 322.078 275.917C321.731 275.722 321.193 275.531 320.464 275.347C319.801 275.172 319.257 274.999 318.833 274.825C318.42 274.64 318.061 274.373 317.757 274.026C317.463 273.667 317.316 273.199 317.316 272.623C317.316 272.166 317.453 271.747 317.724 271.367C317.996 270.987 318.383 270.687 318.882 270.47C319.382 270.242 319.953 270.128 320.594 270.128C321.584 270.128 322.383 270.377 322.992 270.878C323.601 271.379 323.928 272.063 323.97 272.933H322.486C322.454 272.465 322.264 272.09 321.915 271.808C321.579 271.525 321.123 271.384 320.545 271.384C320.014 271.384 319.589 271.498 319.273 271.726C318.958 271.954 318.8 272.253 318.8 272.623C318.8 272.917 318.893 273.161 319.078 273.357C319.273 273.541 319.513 273.694 319.795 273.814C320.089 273.923 320.491 274.047 321.002 274.189C321.644 274.363 322.166 274.536 322.568 274.71C322.97 274.874 323.313 275.123 323.595 275.461C323.889 275.798 324.042 276.238 324.052 276.782C324.052 277.271 323.916 277.711 323.644 278.103C323.373 278.494 322.987 278.804 322.486 279.032C321.997 279.249 321.432 279.358 320.79 279.358ZM341.242 270.111C341.939 270.111 342.558 270.258 343.102 270.552C343.645 270.834 344.075 271.264 344.39 271.84C344.705 272.416 344.863 273.117 344.863 273.944V279.212H343.395V274.156C343.395 273.264 343.172 272.585 342.727 272.117C342.291 271.639 341.699 271.4 340.949 271.4C340.177 271.4 339.563 271.649 339.106 272.15C338.649 272.639 338.421 273.352 338.421 274.286V279.212H336.953V274.156C336.953 273.264 336.73 272.585 336.285 272.117C335.849 271.639 335.257 271.4 334.507 271.4C333.735 271.4 333.121 271.649 332.664 272.15C332.207 272.639 331.979 273.352 331.979 274.286V279.212H330.495V270.275H331.979V271.563C332.273 271.095 332.664 270.736 333.153 270.487C333.654 270.237 334.202 270.111 334.8 270.111C335.551 270.111 336.214 270.28 336.79 270.617C337.366 270.954 337.796 271.449 338.079 272.101C338.328 271.47 338.742 270.981 339.318 270.633C339.894 270.286 340.536 270.111 341.242 270.111ZM351.196 279.358C350.358 279.358 349.597 279.168 348.913 278.788C348.238 278.408 347.706 277.869 347.314 277.173C346.933 276.467 346.743 275.651 346.743 274.727C346.743 273.814 346.939 273.009 347.331 272.313C347.732 271.607 348.276 271.069 348.961 270.699C349.646 270.318 350.413 270.128 351.261 270.128C352.109 270.128 352.876 270.318 353.56 270.699C354.245 271.069 354.784 271.601 355.175 272.297C355.576 272.993 355.778 273.802 355.778 274.727C355.778 275.651 355.571 276.467 355.159 277.173C354.756 277.869 354.207 278.408 353.512 278.788C352.815 279.168 352.044 279.358 351.196 279.358ZM351.196 278.054C351.728 278.054 352.228 277.928 352.696 277.679C353.163 277.429 353.538 277.054 353.821 276.553C354.115 276.053 354.262 275.444 354.262 274.727C354.262 274.009 354.12 273.401 353.838 272.9C353.554 272.4 353.185 272.031 352.729 271.791C352.272 271.542 351.777 271.416 351.245 271.416C350.7 271.416 350.201 271.542 349.744 271.791C349.298 272.031 348.939 272.4 348.668 272.9C348.396 273.401 348.26 274.009 348.26 274.727C348.26 275.456 348.391 276.069 348.652 276.57C348.923 277.07 349.281 277.445 349.728 277.695C350.173 277.935 350.663 278.054 351.196 278.054ZM362.084 270.111C363.171 270.111 364.052 270.443 364.726 271.106C365.399 271.759 365.737 272.705 365.737 273.944V279.212H364.269V274.156C364.269 273.264 364.046 272.585 363.6 272.117C363.155 271.639 362.545 271.4 361.774 271.4C360.991 271.4 360.366 271.644 359.898 272.134C359.442 272.623 359.213 273.336 359.213 274.27V279.212H357.729V270.275H359.213V271.547C359.507 271.09 359.903 270.736 360.404 270.487C360.914 270.237 361.475 270.111 362.084 270.111ZM369.971 271.498V276.765C369.971 277.201 370.064 277.511 370.248 277.695C370.434 277.869 370.754 277.956 371.21 277.956H372.303V279.212H370.966C370.14 279.212 369.52 279.021 369.106 278.641C368.694 278.261 368.487 277.635 368.487 276.765V271.498H367.329V270.275H368.487V268.024H369.971V270.275H372.303V271.498H369.971ZM378.538 270.111C379.212 270.111 379.82 270.258 380.364 270.552C380.908 270.834 381.332 271.264 381.637 271.84C381.951 272.416 382.109 273.117 382.109 273.944V279.212H380.642V274.156C380.642 273.264 380.418 272.585 379.973 272.117C379.526 271.639 378.918 271.4 378.146 271.4C377.364 271.4 376.738 271.644 376.271 272.134C375.814 272.623 375.586 273.336 375.586 274.27V279.212H374.102V267.143H375.586V271.547C375.88 271.09 376.281 270.736 376.793 270.487C377.315 270.237 377.896 270.111 378.538 270.111Z" fill="#262626"/>
<path d="M165.047 209.985L153.701 236.558H147.644L159.075 210.667H144.488V205.549H165.047V209.985ZM168.709 213.653C168.851 210.81 169.846 208.62 171.694 207.085C173.571 205.521 176.031 204.739 179.074 204.739C181.149 204.739 182.927 205.108 184.405 205.848C185.884 206.559 186.993 207.54 187.732 208.791C188.5 210.014 188.884 211.407 188.884 212.971C188.884 214.762 188.415 216.284 187.476 217.535C186.566 218.757 185.472 219.582 184.192 220.009V220.179C185.841 220.691 187.121 221.601 188.031 222.909C188.969 224.217 189.438 225.895 189.438 227.942C189.438 229.648 189.04 231.17 188.244 232.506C187.476 233.843 186.325 234.895 184.789 235.662C183.282 236.402 181.462 236.771 179.329 236.771C176.116 236.771 173.5 235.961 171.481 234.34C169.462 232.719 168.396 230.331 168.282 227.174H174.083C174.14 228.568 174.609 229.691 175.491 230.544C176.401 231.369 177.637 231.781 179.201 231.781C180.652 231.781 181.761 231.383 182.528 230.587C183.325 229.762 183.723 228.71 183.723 227.43C183.723 225.724 183.182 224.501 182.102 223.762C181.021 223.023 179.344 222.653 177.069 222.653H175.832V217.748H177.069C181.107 217.748 183.126 216.397 183.126 213.696C183.126 212.473 182.756 211.521 182.017 210.838C181.306 210.156 180.268 209.814 178.903 209.814C177.566 209.814 176.528 210.184 175.789 210.923C175.078 211.634 174.666 212.544 174.552 213.653H168.709ZM210.28 213.227C209.996 212.032 209.498 211.137 208.787 210.54C208.105 209.942 207.11 209.644 205.802 209.644C203.84 209.644 202.389 210.44 201.451 212.032C200.541 213.596 200.072 216.156 200.043 219.71C200.726 218.573 201.721 217.691 203.029 217.066C204.337 216.412 205.759 216.084 207.294 216.084C209.143 216.084 210.778 216.483 212.2 217.279C213.621 218.075 214.73 219.241 215.527 220.776C216.323 222.283 216.721 224.103 216.721 226.236C216.721 228.255 216.309 230.061 215.484 231.653C214.688 233.217 213.508 234.44 211.944 235.321C210.38 236.203 208.517 236.643 206.356 236.643C203.399 236.643 201.067 235.989 199.361 234.681C197.683 233.373 196.503 231.554 195.821 229.222C195.167 226.862 194.84 223.961 194.84 220.52C194.84 215.317 195.735 211.393 197.527 208.748C199.318 206.075 202.148 204.739 206.015 204.739C209.001 204.739 211.318 205.549 212.967 207.17C214.617 208.791 215.569 210.81 215.825 213.227H210.28ZM205.93 220.99C204.422 220.99 203.157 221.43 202.133 222.312C201.11 223.193 200.598 224.473 200.598 226.151C200.598 227.828 201.067 229.151 202.005 230.117C202.972 231.084 204.323 231.568 206.058 231.568C207.593 231.568 208.802 231.099 209.683 230.16C210.593 229.222 211.048 227.956 211.048 226.364C211.048 224.715 210.607 223.407 209.726 222.44C208.873 221.473 207.607 220.99 205.93 220.99Z" fill="black"/>
<path d="M230.25 215.083C230.371 215.205 230.516 215.302 230.675 215.368C230.834 215.434 231.005 215.468 231.178 215.468C231.35 215.468 231.521 215.434 231.68 215.368C231.839 215.302 231.984 215.205 232.105 215.083L236.405 210.793V222.611C236.405 222.956 236.542 223.286 236.788 223.53C237.033 223.774 237.365 223.911 237.712 223.911C238.058 223.911 238.391 223.774 238.635 223.53C238.881 223.286 239.018 222.956 239.018 222.611V210.793L243.317 215.083C243.564 215.328 243.898 215.466 244.246 215.466C244.593 215.466 244.927 215.328 245.174 215.083C245.42 214.839 245.558 214.506 245.558 214.16C245.558 213.814 245.42 213.482 245.174 213.237L238.639 206.737C238.515 206.618 238.368 206.526 238.208 206.464C238.052 206.395 237.883 206.359 237.712 206.359C237.54 206.359 237.371 206.395 237.215 206.464C237.055 206.526 236.908 206.618 236.784 206.737L230.25 213.237C230.127 213.358 230.03 213.502 229.964 213.66C229.897 213.819 229.863 213.989 229.863 214.16C229.863 214.332 229.897 214.502 229.964 214.66C230.03 214.819 230.127 214.962 230.25 215.083Z" fill="#00AC45"/>
<path d="M151.867 162.449V164.292H148.833V173.833H146.55V164.292H143.517V162.449H151.867ZM157.544 173.979C156.675 173.979 155.892 173.789 155.196 173.408C154.5 173.017 153.951 172.468 153.549 171.761C153.157 171.055 152.962 170.239 152.962 169.315C152.962 168.391 153.163 167.575 153.565 166.869C153.978 166.162 154.538 165.618 155.245 165.238C155.952 164.846 156.74 164.651 157.61 164.651C158.48 164.651 159.268 164.846 159.974 165.238C160.681 165.618 161.236 166.162 161.638 166.869C162.051 167.575 162.258 168.391 162.258 169.315C162.258 170.239 162.046 171.055 161.622 171.761C161.209 172.468 160.643 173.017 159.926 173.408C159.219 173.789 158.425 173.979 157.544 173.979ZM157.544 171.99C157.958 171.99 158.344 171.892 158.702 171.696C159.072 171.489 159.366 171.185 159.583 170.783C159.801 170.38 159.909 169.891 159.909 169.315C159.909 168.456 159.681 167.798 159.224 167.342C158.779 166.874 158.229 166.64 157.577 166.64C156.925 166.64 156.376 166.874 155.93 167.342C155.495 167.798 155.278 168.456 155.278 169.315C155.278 170.174 155.49 170.837 155.914 171.305C156.349 171.761 156.892 171.99 157.544 171.99ZM166.591 166.673V171.044C166.591 171.348 166.662 171.571 166.803 171.712C166.955 171.843 167.205 171.908 167.553 171.908H168.613V173.833H167.178C165.254 173.833 164.291 172.898 164.291 171.027V166.673H163.215V164.798H164.291V162.563H166.591V164.798H168.613V166.673H166.591ZM169.668 169.282C169.668 168.369 169.848 167.559 170.206 166.852C170.576 166.146 171.071 165.602 171.691 165.222C172.321 164.841 173.022 164.651 173.794 164.651C174.468 164.651 175.055 164.787 175.556 165.058C176.067 165.33 176.474 165.673 176.779 166.086V164.798H179.078V173.833H176.779V172.512C176.485 172.936 176.078 173.289 175.556 173.572C175.045 173.843 174.452 173.979 173.778 173.979C173.017 173.979 172.321 173.784 171.691 173.392C171.071 173.001 170.576 172.452 170.206 171.745C169.848 171.027 169.668 170.207 169.668 169.282ZM176.779 169.315C176.779 168.761 176.67 168.288 176.453 167.896C176.235 167.494 175.942 167.189 175.572 166.983C175.202 166.765 174.805 166.657 174.381 166.657C173.957 166.657 173.566 166.76 173.207 166.967C172.848 167.173 172.555 167.478 172.327 167.88C172.109 168.271 172 168.739 172 169.282C172 169.826 172.109 170.304 172.327 170.718C172.555 171.12 172.848 171.43 173.207 171.647C173.577 171.865 173.968 171.973 174.381 171.973C174.805 171.973 175.202 171.87 175.572 171.663C175.942 171.446 176.235 171.142 176.453 170.75C176.67 170.348 176.779 169.87 176.779 169.315ZM183.592 161.764V173.833H181.308V161.764H183.592ZM199.47 173.833H197.187L192.017 166.021V173.833H189.733V162.433H192.017L197.187 170.261V162.433H199.47V173.833ZM210.255 164.798V173.833H207.956V172.691C207.662 173.082 207.276 173.392 206.798 173.621C206.331 173.838 205.819 173.947 205.265 173.947C204.558 173.947 203.933 173.8 203.389 173.506C202.846 173.202 202.416 172.762 202.101 172.185C201.797 171.598 201.644 170.902 201.644 170.098V164.798H203.928V169.772C203.928 170.489 204.107 171.044 204.466 171.435C204.825 171.816 205.314 172.006 205.934 172.006C206.564 172.006 207.059 171.816 207.418 171.435C207.776 171.044 207.956 170.489 207.956 169.772V164.798H210.255ZM223.729 164.667C224.838 164.667 225.729 165.01 226.403 165.694C227.088 166.369 227.431 167.314 227.431 168.532V173.833H225.148V168.842C225.148 168.135 224.968 167.597 224.609 167.228C224.251 166.847 223.761 166.657 223.142 166.657C222.522 166.657 222.027 166.847 221.657 167.228C221.299 167.597 221.119 168.135 221.119 168.842V173.833H218.836V168.842C218.836 168.135 218.657 167.597 218.298 167.228C217.939 166.847 217.45 166.657 216.83 166.657C216.199 166.657 215.699 166.847 215.33 167.228C214.971 167.597 214.791 168.135 214.791 168.842V173.833H212.508V164.798H214.791V165.89C215.085 165.51 215.46 165.211 215.917 164.993C216.384 164.776 216.895 164.667 217.45 164.667C218.156 164.667 218.787 164.819 219.342 165.124C219.896 165.417 220.326 165.841 220.63 166.396C220.924 165.874 221.348 165.455 221.902 165.14C222.467 164.825 223.076 164.667 223.729 164.667ZM231.881 166.119C232.174 165.684 232.576 165.33 233.087 165.058C233.609 164.787 234.202 164.651 234.865 164.651C235.637 164.651 236.333 164.841 236.953 165.222C237.583 165.602 238.078 166.146 238.437 166.852C238.806 167.548 238.991 168.358 238.991 169.282C238.991 170.207 238.806 171.027 238.437 171.745C238.078 172.452 237.583 173.001 236.953 173.392C236.333 173.784 235.637 173.979 234.865 173.979C234.191 173.979 233.598 173.849 233.087 173.588C232.587 173.316 232.185 172.968 231.881 172.544V173.833H229.597V161.764H231.881V166.119ZM236.659 169.282C236.659 168.739 236.545 168.271 236.316 167.88C236.099 167.478 235.806 167.173 235.436 166.967C235.077 166.76 234.686 166.657 234.262 166.657C233.848 166.657 233.457 166.765 233.087 166.983C232.729 167.189 232.435 167.494 232.207 167.896C231.989 168.298 231.881 168.771 231.881 169.315C231.881 169.859 231.989 170.332 232.207 170.734C232.435 171.136 232.729 171.446 233.087 171.663C233.457 171.87 233.848 171.973 234.262 171.973C234.686 171.973 235.077 171.865 235.436 171.647C235.806 171.43 236.099 171.12 236.316 170.718C236.545 170.315 236.659 169.837 236.659 169.282ZM249.049 169.119C249.049 169.445 249.028 169.739 248.984 170H242.379C242.434 170.652 242.662 171.163 243.064 171.533C243.466 171.903 243.961 172.087 244.548 172.087C245.396 172.087 245.999 171.723 246.358 170.995H248.821C248.56 171.865 248.06 172.582 247.32 173.148C246.581 173.702 245.673 173.979 244.597 173.979C243.727 173.979 242.944 173.789 242.248 173.408C241.563 173.017 241.025 172.468 240.634 171.761C240.254 171.055 240.063 170.239 240.063 169.315C240.063 168.38 240.254 167.559 240.634 166.852C241.015 166.146 241.547 165.602 242.232 165.222C242.917 164.841 243.706 164.651 244.597 164.651C245.456 164.651 246.222 164.836 246.896 165.205C247.581 165.575 248.109 166.102 248.478 166.787C248.859 167.461 249.049 168.239 249.049 169.119ZM246.684 168.467C246.674 167.88 246.462 167.412 246.048 167.064C245.635 166.706 245.13 166.526 244.531 166.526C243.967 166.526 243.488 166.7 243.096 167.048C242.716 167.385 242.483 167.858 242.395 168.467H246.684ZM252.999 166.2C253.293 165.722 253.673 165.347 254.141 165.075C254.619 164.803 255.162 164.667 255.772 164.667V167.064H255.168C254.451 167.064 253.906 167.233 253.538 167.57C253.179 167.907 252.999 168.494 252.999 169.331V173.833H250.716V164.798H252.999V166.2ZM265.207 173.979C264.338 173.979 263.555 173.789 262.859 173.408C262.164 173.017 261.614 172.468 261.211 171.761C260.82 171.055 260.624 170.239 260.624 169.315C260.624 168.391 260.826 167.575 261.228 166.869C261.642 166.162 262.201 165.618 262.908 165.238C263.615 164.846 264.403 164.651 265.272 164.651C266.143 164.651 266.931 164.846 267.637 165.238C268.345 165.618 268.899 166.162 269.301 166.869C269.715 167.575 269.92 168.391 269.92 169.315C269.92 170.239 269.708 171.055 269.284 171.761C268.872 172.468 268.306 173.017 267.588 173.408C266.882 173.789 266.088 173.979 265.207 173.979ZM265.207 171.99C265.621 171.99 266.006 171.892 266.365 171.696C266.735 171.489 267.029 171.185 267.246 170.783C267.464 170.38 267.572 169.891 267.572 169.315C267.572 168.456 267.344 167.798 266.887 167.342C266.442 166.874 265.892 166.64 265.24 166.64C264.587 166.64 264.039 166.874 263.593 167.342C263.158 167.798 262.94 168.456 262.94 169.315C262.94 170.174 263.152 170.837 263.576 171.305C264.012 171.761 264.555 171.99 265.207 171.99ZM275.737 166.673H274.156V173.833H271.84V166.673H270.812V164.798H271.84V164.341C271.84 163.232 272.156 162.416 272.786 161.895C273.417 161.373 274.368 161.128 275.64 161.161V163.085C275.085 163.074 274.7 163.167 274.482 163.362C274.265 163.558 274.156 163.911 274.156 164.422V164.798H275.737V166.673ZM287.561 167.994C288.204 168.114 288.73 168.434 289.143 168.956C289.557 169.478 289.763 170.076 289.763 170.75C289.763 171.359 289.611 171.897 289.306 172.365C289.013 172.821 288.584 173.18 288.018 173.441C287.453 173.702 286.785 173.833 286.012 173.833H281.103V162.449H285.8C286.573 162.449 287.235 162.574 287.79 162.824C288.355 163.074 288.779 163.422 289.062 163.868C289.355 164.314 289.502 164.819 289.502 165.385C289.502 166.048 289.323 166.602 288.964 167.048C288.616 167.494 288.148 167.809 287.561 167.994ZM283.386 167.146H285.474C286.018 167.146 286.436 167.026 286.73 166.787C287.023 166.537 287.17 166.184 287.17 165.727C287.17 165.27 287.023 164.917 286.73 164.667C286.436 164.417 286.018 164.292 285.474 164.292H283.386V167.146ZM285.686 171.973C286.24 171.973 286.671 171.843 286.974 171.582C287.29 171.321 287.447 170.951 287.447 170.473C287.447 169.984 287.284 169.603 286.958 169.331C286.632 169.049 286.191 168.907 285.637 168.907H283.386V171.973H285.686ZM290.996 169.282C290.996 168.369 291.176 167.559 291.534 166.852C291.904 166.146 292.399 165.602 293.018 165.222C293.649 164.841 294.351 164.651 295.122 164.651C295.796 164.651 296.383 164.787 296.884 165.058C297.394 165.33 297.802 165.673 298.107 166.086V164.798H300.406V173.833H298.107V172.512C297.813 172.936 297.405 173.289 296.884 173.572C296.373 173.843 295.78 173.979 295.106 173.979C294.344 173.979 293.649 173.784 293.018 173.392C292.399 173.001 291.904 172.452 291.534 171.745C291.176 171.027 290.996 170.207 290.996 169.282ZM298.107 169.315C298.107 168.761 297.998 168.288 297.781 167.896C297.564 167.494 297.27 167.189 296.9 166.983C296.53 166.765 296.133 166.657 295.709 166.657C295.285 166.657 294.894 166.76 294.535 166.967C294.176 167.173 293.883 167.478 293.654 167.88C293.437 168.271 293.328 168.739 293.328 169.282C293.328 169.826 293.437 170.304 293.654 170.718C293.883 171.12 294.176 171.43 294.535 171.647C294.905 171.865 295.297 171.973 295.709 171.973C296.133 171.973 296.53 171.87 296.9 171.663C297.27 171.446 297.564 171.142 297.781 170.75C297.998 170.348 298.107 169.87 298.107 169.315ZM302.048 169.315C302.048 168.38 302.239 167.565 302.619 166.869C303.001 166.162 303.527 165.618 304.201 165.238C304.876 164.846 305.648 164.651 306.517 164.651C307.637 164.651 308.562 164.933 309.289 165.499C310.03 166.053 310.524 166.836 310.774 167.847H308.311C308.18 167.456 307.958 167.151 307.642 166.934C307.339 166.706 306.957 166.591 306.501 166.591C305.848 166.591 305.333 166.831 304.951 167.309C304.571 167.777 304.381 168.445 304.381 169.315C304.381 170.174 304.571 170.843 304.951 171.321C305.333 171.789 305.848 172.022 306.501 172.022C307.425 172.022 308.029 171.609 308.311 170.783H310.774C310.524 171.761 310.03 172.539 309.289 173.115C308.551 173.691 307.626 173.979 306.517 173.979C305.648 173.979 304.876 173.789 304.201 173.408C303.527 173.017 303.001 172.474 302.619 171.778C302.239 171.071 302.048 170.25 302.048 169.315ZM317.796 173.833L314.73 169.984V173.833H312.447V161.764H314.73V168.63L317.764 164.798H320.732L316.753 169.331L320.765 173.833H317.796ZM324.255 161.764V173.833H321.971V161.764H324.255ZM327.668 163.721C327.265 163.721 326.928 163.596 326.657 163.346C326.396 163.085 326.266 162.764 326.266 162.384C326.266 162.003 326.396 161.688 326.657 161.438C326.928 161.177 327.265 161.047 327.668 161.047C328.07 161.047 328.402 161.177 328.663 161.438C328.934 161.688 329.071 162.003 329.071 162.384C329.071 162.764 328.934 163.085 328.663 163.346C328.402 163.596 328.07 163.721 327.668 163.721ZM328.793 164.798V173.833H326.51V164.798H328.793ZM336.056 164.667C337.132 164.667 338.002 165.01 338.665 165.694C339.329 166.369 339.66 167.314 339.66 168.532V173.833H337.377V168.842C337.377 168.124 337.197 167.575 336.839 167.195C336.48 166.803 335.991 166.608 335.371 166.608C334.74 166.608 334.241 166.803 333.87 167.195C333.512 167.575 333.332 168.124 333.332 168.842V173.833H331.049V164.798H333.332V165.923C333.637 165.531 334.022 165.227 334.49 165.01C334.968 164.781 335.49 164.667 336.056 164.667ZM347.181 173.833L344.115 169.984V173.833H341.832V161.764H344.115V168.63L347.148 164.798H350.116L346.137 169.331L350.149 173.833H347.181ZM354.812 173.979C354.073 173.979 353.41 173.849 352.822 173.588C352.235 173.316 351.769 172.952 351.42 172.495C351.084 172.039 350.898 171.533 350.865 170.979H353.165C353.209 171.326 353.377 171.615 353.67 171.843C353.975 172.071 354.35 172.185 354.796 172.185C355.231 172.185 355.569 172.098 355.807 171.924C356.058 171.75 356.182 171.528 356.182 171.256C356.182 170.962 356.03 170.745 355.725 170.603C355.432 170.451 354.959 170.288 354.306 170.114C353.633 169.951 353.078 169.783 352.643 169.609C352.219 169.435 351.85 169.168 351.534 168.809C351.23 168.451 351.077 167.967 351.077 167.358C351.077 166.858 351.219 166.401 351.501 165.988C351.795 165.575 352.209 165.249 352.741 165.01C353.285 164.77 353.921 164.651 354.649 164.651C355.725 164.651 356.585 164.923 357.226 165.466C357.868 165.999 358.221 166.722 358.286 167.635H356.1C356.068 167.276 355.916 166.994 355.644 166.787C355.383 166.57 355.03 166.461 354.584 166.461C354.171 166.461 353.85 166.537 353.622 166.689C353.405 166.841 353.295 167.054 353.295 167.325C353.295 167.63 353.448 167.864 353.752 168.027C354.057 168.179 354.53 168.336 355.171 168.5C355.823 168.663 356.361 168.831 356.785 169.005C357.209 169.179 357.574 169.451 357.878 169.821C358.194 170.179 358.357 170.658 358.367 171.256C358.367 171.778 358.221 172.245 357.927 172.658C357.645 173.071 357.232 173.398 356.688 173.637C356.156 173.865 355.53 173.979 354.812 173.979Z" fill="black"/>
</g>
<g filter="url(#filter2_d)">
<path d="M246.365 210.213C246.365 208.411 247.826 206.95 249.629 206.95H580.821C582.623 206.95 584.084 208.411 584.084 210.213V389.609C584.084 391.412 582.623 392.873 580.821 392.873H249.629C247.826 392.873 246.365 391.412 246.365 389.609V210.213Z" fill="white" stroke="#D9D9D9"/>
<g filter="url(#filter3_d)">
<path d="M571.411 394C571.411 366.144 563.65 338.838 548.997 315.145C534.344 291.454 513.381 272.313 488.456 259.871C463.533 247.428 435.636 242.176 407.894 244.704C380.152 247.232 353.663 257.439 331.398 274.181L344.913 292.154C363.838 277.923 386.354 269.247 409.934 267.098C433.515 264.95 457.228 269.414 478.413 279.99C499.598 290.566 517.417 306.836 529.872 326.974C542.327 347.111 548.924 370.322 548.924 394H571.411Z" fill="#00AC45"/>
<path d="M271.582 394C271.582 370.951 276.897 348.213 287.113 327.552C297.328 306.891 312.171 288.864 330.486 274.872L344.138 292.741C328.57 304.635 315.954 319.958 307.27 337.519C298.586 355.081 294.069 374.408 294.069 394H271.582Z" fill="#2F54EB"/>
</g>
<path d="M368.32 325.822V324.028L373.653 316.396H376.311V323.832H377.746V325.822H376.311V328.138H374.028V325.822H368.32ZM374.175 318.842L370.831 323.832H374.175V318.842ZM379.2 322.039C379.2 320.158 379.536 318.684 380.211 317.619C380.896 316.553 382.027 316.021 383.604 316.021C385.179 316.021 386.305 316.553 386.979 317.619C387.664 318.684 388.007 320.158 388.007 322.039C388.007 323.93 387.664 325.414 386.979 326.491C386.305 327.567 385.179 328.105 383.604 328.105C382.027 328.105 380.896 327.567 380.211 326.491C379.536 325.414 379.2 323.93 379.2 322.039ZM385.756 322.039C385.756 321.234 385.701 320.56 385.593 320.016C385.495 319.462 385.288 319.011 384.974 318.663C384.669 318.315 384.212 318.141 383.604 318.141C382.994 318.141 382.532 318.315 382.217 318.663C381.912 319.011 381.705 319.462 381.598 320.016C381.5 320.56 381.451 321.234 381.451 322.039C381.451 322.865 381.5 323.561 381.598 324.126C381.695 324.681 381.901 325.132 382.217 325.48C382.532 325.817 382.994 325.985 383.604 325.985C384.212 325.985 384.674 325.817 384.99 325.48C385.305 325.132 385.512 324.681 385.61 324.126C385.707 323.561 385.756 322.865 385.756 322.039ZM389.482 319.168C389.482 318.342 389.722 317.695 390.2 317.227C390.689 316.76 391.314 316.526 392.075 316.526C392.837 316.526 393.457 316.76 393.935 317.227C394.424 317.695 394.668 318.342 394.668 319.168C394.668 320.005 394.424 320.658 393.935 321.125C393.457 321.593 392.837 321.827 392.075 321.827C391.314 321.827 390.689 321.593 390.2 321.125C389.722 320.658 389.482 320.005 389.482 319.168ZM399.952 316.722L393.543 328.138H391.325L397.718 316.722H399.952ZM392.059 317.896C391.461 317.896 391.162 318.32 391.162 319.168C391.162 320.027 391.461 320.457 392.059 320.457C392.353 320.457 392.581 320.353 392.744 320.147C392.907 319.929 392.989 319.603 392.989 319.168C392.989 318.32 392.679 317.896 392.059 317.896ZM396.642 325.675C396.642 324.838 396.881 324.191 397.359 323.735C397.849 323.267 398.473 323.033 399.235 323.033C399.996 323.033 400.61 323.267 401.078 323.735C401.556 324.191 401.795 324.838 401.795 325.675C401.795 326.513 401.556 327.165 401.078 327.632C400.61 328.1 399.996 328.334 399.235 328.334C398.463 328.334 397.837 328.1 397.359 327.632C396.881 327.165 396.642 326.513 396.642 325.675ZM399.219 324.403C398.599 324.403 398.289 324.827 398.289 325.675C398.289 326.534 398.599 326.964 399.219 326.964C399.827 326.964 400.132 326.534 400.132 325.675C400.132 324.827 399.827 324.403 399.219 324.403Z" fill="#2F54EB"/>
<path d="M414.429 316.771V317.978H409.488V321.81H413.499V323.017H409.488V328.138H408.003V316.771H414.429ZM420.12 328.285C419.283 328.285 418.521 328.094 417.836 327.714C417.163 327.333 416.629 326.795 416.238 326.099C415.858 325.393 415.667 324.577 415.667 323.653C415.667 322.74 415.863 321.935 416.254 321.239C416.657 320.533 417.2 319.994 417.885 319.625C418.57 319.244 419.337 319.054 420.185 319.054C421.033 319.054 421.799 319.244 422.484 319.625C423.169 319.994 423.707 320.527 424.099 321.223C424.502 321.919 424.702 322.729 424.702 323.653C424.702 324.577 424.495 325.393 424.083 326.099C423.68 326.795 423.132 327.333 422.435 327.714C421.739 328.094 420.968 328.285 420.12 328.285ZM420.12 326.98C420.653 326.98 421.152 326.855 421.62 326.605C422.088 326.355 422.463 325.98 422.745 325.48C423.039 324.979 423.186 324.371 423.186 323.653C423.186 322.935 423.044 322.327 422.762 321.826C422.479 321.326 422.109 320.957 421.653 320.717C421.196 320.467 420.702 320.342 420.168 320.342C419.625 320.342 419.125 320.467 418.668 320.717C418.223 320.957 417.864 321.326 417.592 321.826C417.319 322.327 417.184 322.935 417.184 323.653C417.184 324.382 417.314 324.996 417.575 325.496C417.848 325.996 418.206 326.371 418.652 326.621C419.097 326.86 419.586 326.98 420.12 326.98ZM428.137 316.069V328.138H426.653V316.069H428.137ZM432.152 316.069V328.138H430.667V316.069H432.152ZM438.578 328.285C437.74 328.285 436.98 328.094 436.295 327.714C435.62 327.333 435.088 326.795 434.697 326.099C434.316 325.393 434.126 324.577 434.126 323.653C434.126 322.74 434.322 321.935 434.713 321.239C435.115 320.533 435.659 319.994 436.344 319.625C437.029 319.244 437.796 319.054 438.644 319.054C439.492 319.054 440.258 319.244 440.943 319.625C441.628 319.994 442.166 320.527 442.558 321.223C442.959 321.919 443.161 322.729 443.161 323.653C443.161 324.577 442.954 325.393 442.541 326.099C442.139 326.795 441.589 327.333 440.894 327.714C440.198 328.094 439.427 328.285 438.578 328.285ZM438.578 326.98C439.11 326.98 439.611 326.855 440.079 326.605C440.546 326.355 440.921 325.98 441.204 325.48C441.498 324.979 441.644 324.371 441.644 323.653C441.644 322.935 441.503 322.327 441.22 321.826C440.937 321.326 440.568 320.957 440.111 320.717C439.655 320.467 439.159 320.342 438.627 320.342C438.083 320.342 437.584 320.467 437.127 320.717C436.68 320.957 436.322 321.326 436.051 321.826C435.778 322.327 435.643 322.935 435.643 323.653C435.643 324.382 435.773 324.996 436.034 325.496C436.305 325.996 436.664 326.371 437.111 326.621C437.556 326.86 438.045 326.98 438.578 326.98ZM457.017 319.201L454.229 328.138H452.696L450.543 321.044L448.39 328.138H446.857L444.052 319.201H445.569L447.624 326.703L449.841 319.201H451.358L453.527 326.719L455.55 319.201H457.017Z" fill="black"/>
<path d="M352.499 325.629C354.577 325.629 356.262 323.944 356.262 321.865C356.262 319.787 354.577 318.102 352.499 318.102C350.42 318.102 348.735 319.787 348.735 321.865C348.735 323.944 350.42 325.629 352.499 325.629Z" fill="#2F54EB"/>
<path d="M374.582 349.326C374.473 348.869 374.283 348.526 374.011 348.298C373.75 348.07 373.37 347.956 372.87 347.956C372.119 347.956 371.565 348.26 371.206 348.869C370.858 349.467 370.679 350.446 370.668 351.804C370.929 351.369 371.309 351.033 371.809 350.793C372.31 350.544 372.853 350.418 373.44 350.418C374.147 350.418 374.773 350.57 375.316 350.875C375.859 351.18 376.283 351.625 376.588 352.212C376.893 352.788 377.045 353.484 377.045 354.3C377.045 355.071 376.887 355.762 376.572 356.371C376.267 356.969 375.816 357.436 375.218 357.773C374.62 358.111 373.908 358.279 373.082 358.279C371.951 358.279 371.059 358.029 370.407 357.529C369.766 357.028 369.314 356.333 369.053 355.441C368.803 354.539 368.678 353.43 368.678 352.114C368.678 350.125 369.021 348.624 369.706 347.613C370.391 346.591 371.472 346.08 372.951 346.08C374.093 346.08 374.978 346.39 375.609 347.01C376.24 347.629 376.604 348.401 376.702 349.326H374.582ZM372.918 352.294C372.343 352.294 371.858 352.462 371.467 352.799C371.076 353.137 370.88 353.626 370.88 354.267C370.88 354.908 371.059 355.414 371.418 355.784C371.788 356.154 372.304 356.338 372.967 356.338C373.555 356.338 374.016 356.159 374.354 355.8C374.701 355.441 374.876 354.957 374.876 354.349C374.876 353.718 374.707 353.218 374.37 352.848C374.044 352.478 373.56 352.294 372.918 352.294ZM378.849 352.147C378.849 350.266 379.186 348.792 379.86 347.727C380.545 346.662 381.676 346.129 383.252 346.129C384.829 346.129 385.954 346.662 386.628 347.727C387.313 348.792 387.655 350.266 387.655 352.147C387.655 354.039 387.313 355.523 386.628 356.599C385.954 357.676 384.829 358.214 383.252 358.214C381.676 358.214 380.545 357.676 379.86 356.599C379.186 355.523 378.849 354.039 378.849 352.147ZM385.405 352.147C385.405 351.343 385.351 350.668 385.242 350.125C385.144 349.57 384.938 349.119 384.622 348.771C384.318 348.424 383.862 348.249 383.252 348.249C382.643 348.249 382.182 348.424 381.866 348.771C381.562 349.119 381.355 349.57 381.246 350.125C381.148 350.668 381.099 351.343 381.099 352.147C381.099 352.974 381.148 353.669 381.246 354.234C381.344 354.789 381.551 355.241 381.866 355.588C382.182 355.926 382.643 356.094 383.252 356.094C383.862 356.094 384.323 355.926 384.638 355.588C384.954 355.241 385.16 354.789 385.258 354.234C385.356 353.669 385.405 352.974 385.405 352.147ZM389.132 349.277C389.132 348.45 389.37 347.804 389.849 347.336C390.339 346.868 390.963 346.635 391.725 346.635C392.485 346.635 393.105 346.868 393.584 347.336C394.073 347.804 394.318 348.45 394.318 349.277C394.318 350.113 394.073 350.766 393.584 351.234C393.105 351.702 392.485 351.935 391.725 351.935C390.963 351.935 390.339 351.702 389.849 351.234C389.37 350.766 389.132 350.113 389.132 349.277ZM399.602 346.83L393.193 358.246H390.975L397.368 346.83H399.602ZM391.709 348.004C391.11 348.004 390.812 348.429 390.812 349.277C390.812 350.136 391.11 350.565 391.709 350.565C392.002 350.565 392.23 350.462 392.394 350.255C392.557 350.038 392.638 349.712 392.638 349.277C392.638 348.429 392.328 348.004 391.709 348.004ZM396.291 355.784C396.291 354.947 396.53 354.3 397.009 353.843C397.498 353.375 398.123 353.142 398.884 353.142C399.645 353.142 400.259 353.375 400.727 353.843C401.205 354.3 401.445 354.947 401.445 355.784C401.445 356.621 401.205 357.273 400.727 357.741C400.259 358.209 399.645 358.442 398.884 358.442C398.112 358.442 397.487 358.209 397.009 357.741C396.53 357.273 396.291 356.621 396.291 355.784ZM398.868 354.512C398.248 354.512 397.939 354.936 397.939 355.784C397.939 356.643 398.248 357.072 398.868 357.072C399.477 357.072 399.781 356.643 399.781 355.784C399.781 354.936 399.477 354.512 398.868 354.512Z" fill="#00AC45"/>
<path d="M416.59 358.246H415.106L409.137 349.195V358.246H407.653V346.863H409.137L415.106 355.898V346.863H416.59V358.246ZM423.017 358.393C422.181 358.393 421.419 358.202 420.734 357.822C420.06 357.442 419.527 356.904 419.136 356.208C418.756 355.501 418.565 354.686 418.565 353.761C418.565 352.848 418.761 352.044 419.152 351.348C419.555 350.641 420.098 350.103 420.783 349.733C421.468 349.353 422.235 349.162 423.083 349.162C423.931 349.162 424.697 349.353 425.382 349.733C426.067 350.103 426.605 350.635 426.997 351.331C427.399 352.028 427.6 352.837 427.6 353.761C427.6 354.686 427.394 355.501 426.98 356.208C426.579 356.904 426.029 357.442 425.333 357.822C424.638 358.202 423.865 358.393 423.017 358.393ZM423.017 357.088C423.551 357.088 424.051 356.963 424.518 356.713C424.986 356.464 425.361 356.088 425.643 355.588C425.937 355.087 426.083 354.479 426.083 353.761C426.083 353.044 425.943 352.435 425.659 351.935C425.377 351.434 425.007 351.065 424.55 350.826C424.094 350.576 423.599 350.451 423.066 350.451C422.523 350.451 422.023 350.576 421.566 350.826C421.121 351.065 420.762 351.434 420.49 351.935C420.219 352.435 420.082 353.044 420.082 353.761C420.082 354.49 420.212 355.104 420.473 355.604C420.745 356.105 421.104 356.48 421.55 356.73C421.996 356.969 422.485 357.088 423.017 357.088ZM433.189 350.532H431.313V358.246H429.829V350.532H428.671V349.309H429.829V348.673C429.829 347.673 430.085 346.944 430.596 346.488C431.118 346.02 431.95 345.786 433.091 345.786V347.026C432.439 347.026 431.977 347.156 431.705 347.417C431.444 347.667 431.313 348.086 431.313 348.673V349.309H433.189V350.532ZM438.817 358.393C437.98 358.393 437.218 358.202 436.534 357.822C435.86 357.442 435.327 356.904 434.935 356.208C434.555 355.501 434.364 354.686 434.364 353.761C434.364 352.848 434.56 352.044 434.952 351.348C435.354 350.641 435.897 350.103 436.582 349.733C437.267 349.353 438.034 349.162 438.882 349.162C439.73 349.162 440.497 349.353 441.181 349.733C441.866 350.103 442.405 350.635 442.796 351.331C443.199 352.028 443.399 352.837 443.399 353.761C443.399 354.686 443.194 355.501 442.78 356.208C442.378 356.904 441.829 357.442 441.133 357.822C440.438 358.202 439.665 358.393 438.817 358.393ZM438.817 357.088C439.35 357.088 439.85 356.963 440.317 356.713C440.785 356.464 441.16 356.088 441.442 355.588C441.736 355.087 441.883 354.479 441.883 353.761C441.883 353.044 441.742 352.435 441.459 351.935C441.176 351.434 440.806 351.065 440.35 350.826C439.893 350.576 439.399 350.451 438.866 350.451C438.322 350.451 437.822 350.576 437.365 350.826C436.92 351.065 436.561 351.434 436.289 351.935C436.018 352.435 435.881 353.044 435.881 353.761C435.881 354.49 436.012 355.104 436.273 355.604C436.545 356.105 436.904 356.48 437.349 356.73C437.796 356.969 438.285 357.088 438.817 357.088ZM446.836 346.178V358.246H445.352V346.178H446.836ZM450.849 346.178V358.246H449.365V346.178H450.849ZM457.276 358.393C456.439 358.393 455.677 358.202 454.992 357.822C454.319 357.442 453.786 356.904 453.394 356.208C453.014 355.501 452.823 354.686 452.823 353.761C452.823 352.848 453.019 352.044 453.411 351.348C453.813 350.641 454.356 350.103 455.041 349.733C455.726 349.353 456.493 349.162 457.341 349.162C458.189 349.162 458.955 349.353 459.64 349.733C460.325 350.103 460.864 350.635 461.255 351.331C461.658 352.028 461.858 352.837 461.858 353.761C461.858 354.686 461.651 355.501 461.239 356.208C460.836 356.904 460.288 357.442 459.592 357.822C458.895 358.202 458.124 358.393 457.276 358.393ZM457.276 357.088C457.809 357.088 458.308 356.963 458.776 356.713C459.244 356.464 459.619 356.088 459.901 355.588C460.195 355.087 460.342 354.479 460.342 353.761C460.342 353.044 460.2 352.435 459.918 351.935C459.635 351.434 459.265 351.065 458.809 350.826C458.352 350.576 457.858 350.451 457.325 350.451C456.781 350.451 456.281 350.576 455.824 350.826C455.379 351.065 455.02 351.434 454.748 351.935C454.476 352.435 454.34 353.044 454.34 353.761C454.34 354.49 454.471 355.104 454.732 355.604C455.004 356.105 455.363 356.48 455.808 356.73C456.253 356.969 456.743 357.088 457.276 357.088ZM475.716 349.309L472.927 358.246H471.394L469.241 351.152L467.088 358.246H465.555L462.75 349.309H464.267L466.322 356.811L468.54 349.309H470.057L472.226 356.827L474.248 349.309H475.716Z" fill="black"/>
<path d="M352.499 355.737C354.577 355.737 356.262 354.052 356.262 351.974C356.262 349.895 354.577 348.21 352.499 348.21C350.42 348.21 348.735 349.895 348.735 351.974C348.735 354.052 350.42 355.737 352.499 355.737Z" fill="#00AC45"/>
<path d="M280.637 253.566H284.388V255.376H278.354V243.992H280.637V253.566ZM286.997 245.264C286.595 245.264 286.258 245.139 285.986 244.889C285.725 244.628 285.594 244.308 285.594 243.927C285.594 243.547 285.725 243.231 285.986 242.981C286.258 242.72 286.595 242.59 286.997 242.59C287.399 242.59 287.731 242.72 287.992 242.981C288.264 243.231 288.399 243.547 288.399 243.927C288.399 244.308 288.264 244.628 287.992 244.889C287.731 245.139 287.399 245.264 286.997 245.264ZM288.122 246.341V255.376H285.839V246.341H288.122ZM295.385 246.21C296.461 246.21 297.331 246.553 297.994 247.238C298.657 247.912 298.989 248.858 298.989 250.076V255.376H296.706V250.385C296.706 249.668 296.526 249.119 296.168 248.738C295.809 248.347 295.32 248.151 294.7 248.151C294.069 248.151 293.569 248.347 293.199 248.738C292.841 249.119 292.661 249.668 292.661 250.385V255.376H290.378V246.341H292.661V247.466C292.966 247.075 293.352 246.77 293.819 246.553C294.298 246.325 294.819 246.21 295.385 246.21ZM306.509 255.376L303.443 251.527V255.376H301.16V243.307H303.443V250.173L306.477 246.341H309.445L305.466 250.875L309.478 255.376H306.509Z" fill="black"/>
</g>
</g>
<defs>
<filter id="filter0_d" x="23.4155" y="-2" width="398.72" height="246.923" filterUnits="userSpaceOnUse" color-interpolation-filters="sRGB">
<feFlood flood-opacity="0" result="BackgroundImageFix"/>
<feColorMatrix in="SourceAlpha" type="matrix" values="0 0 0 0 0 0 0 0 0 0 0 0 0 0 0 0 0 0 127 0" result="hardAlpha"/>
<feOffset dx="2" dy="16"/>
<feGaussianBlur stdDeviation="15"/>
<feColorMatrix type="matrix" values="0 0 0 0 0 0 0 0 0 0 0 0 0 0 0 0 0 0 0.2 0"/>
<feBlend mode="normal" in2="BackgroundImageFix" result="effect1_dropShadow"/>
<feBlend mode="normal" in="SourceGraphic" in2="effect1_dropShadow" result="shape"/>
</filter>
<filter id="filter1_d" x="83.6323" y="110.906" width="398.719" height="244.414" filterUnits="userSpaceOnUse" color-interpolation-filters="sRGB">
<feFlood flood-opacity="0" result="BackgroundImageFix"/>
<feColorMatrix in="SourceAlpha" type="matrix" values="0 0 0 0 0 0 0 0 0 0 0 0 0 0 0 0 0 0 127 0" result="hardAlpha"/>
<feOffset dx="2" dy="16"/>
<feGaussianBlur stdDeviation="15"/>
<feColorMatrix type="matrix" values="0 0 0 0 0 0 0 0 0 0 0 0 0 0 0 0 0 0 0.2 0"/>
<feBlend mode="normal" in2="BackgroundImageFix" result="effect1_dropShadow"/>
<feBlend mode="normal" in="SourceGraphic" in2="effect1_dropShadow" result="shape"/>
</filter>
<filter id="filter2_d" x="217.865" y="192.45" width="398.719" height="247.55" filterUnits="userSpaceOnUse" color-interpolation-filters="sRGB">
<feFlood flood-opacity="0" result="BackgroundImageFix"/>
<feColorMatrix in="SourceAlpha" type="matrix" values="0 0 0 0 0 0 0 0 0 0 0 0 0 0 0 0 0 0 127 0" result="hardAlpha"/>
<feOffset dx="2" dy="16"/>
<feGaussianBlur stdDeviation="15"/>
<feColorMatrix type="matrix" values="0 0 0 0 0 0 0 0 0 0 0 0 0 0 0 0 0 0 0.2 0"/>
<feBlend mode="normal" in2="BackgroundImageFix" result="effect1_dropShadow"/>
<feBlend mode="normal" in="SourceGraphic" in2="effect1_dropShadow" result="shape"/>
</filter>
<filter id="filter3_d" x="265.582" y="239.085" width="311.829" height="161.915" filterUnits="userSpaceOnUse" color-interpolation-filters="sRGB">
<feFlood flood-opacity="0" result="BackgroundImageFix"/>
<feColorMatrix in="SourceAlpha" type="matrix" values="0 0 0 0 0 0 0 0 0 0 0 0 0 0 0 0 0 0 127 0" result="hardAlpha"/>
<feOffset dy="1"/>
<feGaussianBlur stdDeviation="3"/>
<feColorMatrix type="matrix" values="0 0 0 0 0.489965 0 0 0 0 0.489965 0 0 0 0 0.570833 0 0 0 0.8 0"/>
<feBlend mode="normal" in2="BackgroundImageFix" result="effect1_dropShadow"/>
<feBlend mode="normal" in="SourceGraphic" in2="effect1_dropShadow" result="shape"/>
</filter>
<clipPath id="clip0">
<rect width="594" height="432" fill="white" transform="translate(23)"/>
</clipPath>
</defs>
</svg>
