<svg width="380" height="230" viewBox="0 0 380 230" fill="none" xmlns="http://www.w3.org/2000/svg">
<path d="M91.1437 58.2464C14.2511 54.9006 -4.76447 183.344 2.39694 230L375.299 230C375.81 207.123 402.576 77.273 322.533 40.5744C250.261 7.43832 205.382 63.2172 91.1437 58.2464Z" fill="#E8F0FF"/>
<path fill-rule="evenodd" clip-rule="evenodd" d="M252.715 162.884H8.5254C5.00604 162.884 2.14844 160.206 2.14844 156.868V34.1711H259.122V156.868C259.092 160.206 256.234 162.884 252.715 162.884Z" fill="white"/>
<path fill-rule="evenodd" clip-rule="evenodd" d="M259.122 33.2686H2.14849C1.65011 33.2686 1.24609 33.6726 1.24609 34.171V156.867C1.24609 160.711 4.51263 163.786 8.52546 163.786H252.715C256.721 163.786 259.99 160.719 260.024 156.875L260.024 34.171C260.024 33.6726 259.62 33.2686 259.122 33.2686ZM3.05072 35.0731H258.22V156.867C258.194 159.69 255.752 161.981 252.715 161.981H8.52529L8.42306 161.98C5.43125 161.929 3.05072 159.657 3.05072 156.867V35.0731Z" fill="#2E186A"/>
<path fill-rule="evenodd" clip-rule="evenodd" d="M1.36525 36.2464L1.06445 6.9184C1.06445 3.24864 3.95213 0.3008 7.50158 0.3008L253.616 0C257.166 0 260.053 2.97792 260.053 6.6176V36.2464H1.36525Z" fill="#00AC45"/>
<path fill-rule="evenodd" clip-rule="evenodd" d="M111.519 4.81274C114.083 4.81274 116.488 6.02412 118.045 8.08958L118.067 8.1195L118.087 8.15029L125.913 20.5145H260.054C260.535 20.5145 260.928 20.8902 260.955 21.3639L260.957 21.4169C260.957 21.8975 260.581 22.2903 260.107 22.3178L260.054 22.3193H125.416C125.127 22.3193 124.857 22.1813 124.688 21.9504L124.654 21.8995L116.585 9.15149L116.527 9.07614C115.334 7.5549 113.55 6.65632 111.644 6.61877L111.519 6.61755H58.9092C56.9562 6.61755 55.1205 7.52183 53.9012 9.07614L53.8431 9.15149L45.7747 21.8995C45.6211 22.1423 45.3619 22.2963 45.0778 22.3169L45.0165 22.3193L1.18994 22.5299C0.691563 22.5323 0.285608 22.1302 0.283214 21.6318C0.280905 21.1512 0.654689 20.7566 1.12825 20.7269L1.18127 20.7251L44.5138 20.5169L52.3412 8.15029C52.3478 8.13989 52.3546 8.12962 52.3616 8.1195L52.3832 8.08958C53.913 6.061 56.2597 4.85628 58.772 4.8139L58.9092 4.81274H111.519Z" fill="white"/>
<path fill-rule="evenodd" clip-rule="evenodd" d="M134.019 4.90308C136.161 4.90308 137.937 6.54193 137.988 8.602L137.989 8.69316V20.1837C137.989 20.6821 137.585 21.0861 137.087 21.0861C136.606 21.0861 136.213 20.7105 136.186 20.2367L136.184 20.1837V8.69316C136.184 7.63594 135.26 6.74568 134.093 6.70905L134.019 6.70788H111.398C110.9 6.70788 110.496 6.30386 110.496 5.80548C110.496 5.32489 110.872 4.93205 111.345 4.90461L111.398 4.90308H134.019Z" fill="white"/>
<path fill-rule="evenodd" clip-rule="evenodd" d="M11.8049 14.7996C13.9646 14.7996 15.7153 13.0488 15.7153 10.8892C15.7153 8.72951 13.9646 6.97876 11.8049 6.97876C9.64528 6.97876 7.89453 8.72951 7.89453 10.8892C7.89453 13.0488 9.64528 14.7996 11.8049 14.7996Z" fill="white"/>
<path fill-rule="evenodd" clip-rule="evenodd" d="M24.6799 14.7993C26.8396 14.7993 28.5903 13.0486 28.5903 10.8889C28.5903 8.72926 26.8396 6.97852 24.6799 6.97852C22.5203 6.97852 20.7695 8.72926 20.7695 10.8889C20.7695 13.0486 22.5203 14.7993 24.6799 14.7993Z" fill="white"/>
<path fill-rule="evenodd" clip-rule="evenodd" d="M37.5842 14.7993C39.7439 14.7993 41.4946 13.0486 41.4946 10.8889C41.4946 8.72926 39.7439 6.97852 37.5842 6.97852C35.4246 6.97852 33.6738 8.72926 33.6738 10.8889C33.6738 13.0486 35.4246 14.7993 37.5842 14.7993Z" fill="white"/>
<path fill-rule="evenodd" clip-rule="evenodd" d="M106.596 12.2202C106.911 11.8594 107.451 11.81 107.825 12.0983L107.869 12.1346L111.449 15.2629C111.824 15.5908 111.862 16.1609 111.534 16.5362C111.219 16.897 110.68 16.9464 110.305 16.6581L110.261 16.6218L106.682 13.4935C106.306 13.1655 106.268 12.5955 106.596 12.2202Z" fill="white"/>
<path fill-rule="evenodd" clip-rule="evenodd" d="M110.308 12.1518C110.69 11.8324 111.259 11.8837 111.579 12.2663C111.886 12.6342 111.85 13.1745 111.507 13.4994L111.464 13.5373L107.824 16.5754C107.442 16.8948 106.873 16.8435 106.553 16.4609C106.246 16.093 106.282 15.5527 106.625 15.2278L106.668 15.1899L110.308 12.1518Z" fill="white"/>
<path fill-rule="evenodd" clip-rule="evenodd" d="M128.279 11.3404C128.759 11.3437 129.149 11.7222 129.174 12.1961L129.175 12.2491L129.145 16.5205C129.141 17.0188 128.734 17.42 128.236 17.4165C127.755 17.4131 127.365 17.0347 127.341 16.5608L127.34 16.5077L127.37 12.2364C127.373 11.738 127.78 11.3368 128.279 11.3404Z" fill="white"/>
<path fill-rule="evenodd" clip-rule="evenodd" d="M130.409 13.4761C130.907 13.4761 131.311 13.8801 131.311 14.3785C131.311 14.8591 130.936 15.2519 130.462 15.2793L130.409 15.2809H126.107C125.609 15.2809 125.205 14.8769 125.205 14.3785C125.205 13.8979 125.581 13.5051 126.054 13.4776L126.107 13.4761H130.409Z" fill="white"/>
<path fill-rule="evenodd" clip-rule="evenodd" d="M249.645 25.3574C250.144 25.3574 250.548 25.7614 250.548 26.2598C250.548 26.7404 250.172 27.1332 249.698 27.1607L249.645 27.1622H244.742C244.244 27.1622 243.84 26.7582 243.84 26.2598C243.84 25.7792 244.216 25.3864 244.689 25.359L244.742 25.3574H249.645Z" fill="white"/>
<path fill-rule="evenodd" clip-rule="evenodd" d="M249.645 28.0647C250.144 28.0647 250.548 28.4687 250.548 28.9671C250.548 29.4477 250.172 29.8405 249.698 29.868L249.645 29.8695H244.742C244.244 29.8695 243.84 29.4655 243.84 28.9671C243.84 28.4865 244.216 28.0937 244.689 28.0662L244.742 28.0647H249.645Z" fill="white"/>
<path fill-rule="evenodd" clip-rule="evenodd" d="M249.645 30.802C250.144 30.802 250.548 31.206 250.548 31.7044C250.548 32.185 250.172 32.5778 249.698 32.6053L249.645 32.6068H244.742C244.244 32.6068 243.84 32.2028 243.84 31.7044C243.84 31.2238 244.216 30.831 244.689 30.8035L244.742 30.802H249.645Z" fill="white"/>
<path fill-rule="evenodd" clip-rule="evenodd" d="M236.14 27.4028C236.02 27.0118 235.689 26.7411 235.268 26.7411H233.283L232.681 24.846C232.561 24.4851 232.2 24.2144 231.809 24.2144C231.418 24.2144 231.057 24.455 230.936 24.846L230.335 26.7411H228.35C227.959 26.7411 227.598 26.9817 227.477 27.3728C227.357 27.7337 227.477 28.1548 227.808 28.3955L229.402 29.5686L228.801 31.4636C228.68 31.8246 228.801 32.2457 229.132 32.4864C229.282 32.6067 229.463 32.6668 229.673 32.6668C229.884 32.6668 230.034 32.6067 230.215 32.4864L231.869 31.2832L233.493 32.2156C233.824 32.3961 234.215 32.366 234.516 32.1254C234.817 31.8848 234.907 31.4937 234.817 31.1328L234.215 29.328L235.719 28.4556C236.08 28.215 236.231 27.7939 236.14 27.4028Z" fill="white"/>
<path fill-rule="evenodd" clip-rule="evenodd" d="M219.025 32.396H46.336C45.4938 32.396 44.832 31.7343 44.832 30.892V28.245C44.832 27.4027 45.4938 26.741 46.336 26.741H219.025C219.868 26.741 220.529 27.4027 220.529 28.245V30.892C220.529 31.7343 219.868 32.396 219.025 32.396Z" fill="white"/>
<path fill-rule="evenodd" clip-rule="evenodd" d="M16.0362 25.8356C16.4035 25.4987 16.9743 25.5232 17.3113 25.8905C17.6352 26.2436 17.625 26.7849 17.2973 27.1256L17.2564 27.1655L15.0662 29.1747L17.3439 31.2475C17.6984 31.5701 17.7369 32.1101 17.4411 32.4789L17.404 32.5223C17.0815 32.8767 16.5414 32.9152 16.1726 32.6195L16.1292 32.5824L13.1212 29.8451C12.7434 29.5013 12.7283 28.9167 13.0767 28.5536L13.1185 28.5127L16.0362 25.8356Z" fill="white"/>
<path fill-rule="evenodd" clip-rule="evenodd" d="M21.0681 28.3354C21.5665 28.3354 21.9705 28.7395 21.9705 29.2378C21.9705 29.7184 21.5948 30.1113 21.1211 30.1387L21.0681 30.1403H13.7286C13.2302 30.1403 12.8262 29.7362 12.8262 29.2378C12.8262 28.7573 13.2018 28.3644 13.6755 28.337L13.7286 28.3354H21.0681Z" fill="white"/>
<path fill-rule="evenodd" clip-rule="evenodd" d="M30.4215 25.887C30.7473 25.5356 31.2877 25.5021 31.6537 25.8013L31.6968 25.8388L34.5845 28.5159C34.9577 28.862 34.9689 29.4442 34.6201 29.8045L34.5783 29.8451L31.5703 32.5824C31.2017 32.9178 30.631 32.8909 30.2955 32.5223C29.973 32.1679 29.9855 31.6266 30.3146 31.2873L30.3556 31.2475L32.6366 29.1714L30.4698 27.1623C30.1183 26.8365 30.0848 26.2961 30.384 25.9301L30.4215 25.887Z" fill="white"/>
<path fill-rule="evenodd" clip-rule="evenodd" d="M33.9716 28.3354C34.47 28.3354 34.874 28.7395 34.874 29.2378C34.874 29.7184 34.4983 30.1113 34.0246 30.1387L33.9716 30.1403H26.6622C26.1638 30.1403 25.7598 29.7362 25.7598 29.2378C25.7598 28.7573 26.1354 28.3644 26.6091 28.337L26.6622 28.3354H33.9716Z" fill="white"/>
<path fill-rule="evenodd" clip-rule="evenodd" d="M241.931 11.5867C242.028 11.0978 242.502 10.7796 242.991 10.8761C243.463 10.9692 243.776 11.4138 243.711 11.8839L243.702 11.9362L243.441 13.26L244.873 13.4215C245.35 13.4752 245.699 13.8925 245.673 14.3663L245.669 14.4191C245.615 14.8967 245.198 15.2451 244.724 15.2194L244.671 15.215L242.265 14.9443C241.758 14.8873 241.403 14.4242 241.471 13.9263L241.48 13.8728L241.931 11.5867Z" fill="white"/>
<path fill-rule="evenodd" clip-rule="evenodd" d="M245.354 10.7908C245.758 10.4979 246.322 10.5873 246.615 10.9905C246.896 11.3782 246.825 11.9148 246.46 12.216L246.415 12.2509L242.896 14.8077C242.493 15.1007 241.928 15.0113 241.635 14.6081C241.354 14.2204 241.425 13.6837 241.79 13.3826L241.835 13.3476L245.354 10.7908Z" fill="white"/>
<path fill-rule="evenodd" clip-rule="evenodd" d="M248.539 6.93395C248.595 6.45662 249.014 6.11005 249.488 6.13778L249.54 6.14242L251.857 6.41314C252.363 6.47233 252.716 6.93728 252.645 7.43512L252.636 7.48857L252.155 9.86489C252.056 10.3534 251.58 10.6691 251.091 10.5702C250.62 10.4748 250.31 10.0286 250.377 9.5589L250.386 9.50663L250.673 8.09152L249.331 7.93502C248.854 7.87922 248.507 7.46048 248.535 6.9868L248.539 6.93395Z" fill="white"/>
<path fill-rule="evenodd" clip-rule="evenodd" d="M251.249 6.61237C251.65 6.31719 252.215 6.40345 252.51 6.80502C252.794 7.19114 252.725 7.7282 252.363 8.03135L252.318 8.06658L248.798 10.6535C248.397 10.9486 247.832 10.8624 247.537 10.4608C247.253 10.0747 247.322 9.53762 247.684 9.23448L247.729 9.19925L251.249 6.61237Z" fill="white"/>
<path fill-rule="evenodd" clip-rule="evenodd" d="M83.8149 118.846H37.0705C35.2356 118.846 33.7617 117.372 33.7617 115.537V89.7287C33.7617 87.8938 35.2356 86.4199 37.0705 86.4199H83.8149C85.6498 86.4199 87.1237 87.8938 87.1237 89.7287V115.537C87.1237 117.372 85.6498 118.846 83.8149 118.846Z" fill="#A1F7C4"/>
<path fill-rule="evenodd" clip-rule="evenodd" d="M213.19 77.3055H36.0489C35.1165 77.3055 34.3945 76.5535 34.3945 75.6511V63.1078C34.3945 62.1753 35.1465 61.4534 36.0489 61.4534H213.19C214.123 61.4534 214.845 62.2054 214.845 63.1078V75.6511C214.845 76.5535 214.093 77.3055 213.19 77.3055Z" fill="white"/>
<path fill-rule="evenodd" clip-rule="evenodd" d="M213.19 60.551H36.049C34.6403 60.551 33.4922 61.6847 33.4922 63.1078V75.6512C33.4922 77.0599 34.6259 78.208 36.049 78.208H213.19C214.591 78.208 215.747 77.052 215.747 75.6512V63.1078C215.747 61.6991 214.613 60.551 213.19 60.551ZM36.0488 62.356H213.19C213.611 62.356 213.942 62.691 213.942 63.108V75.6514C213.942 76.0554 213.594 76.4034 213.19 76.4034H36.0488C35.6276 76.4034 35.2968 76.0684 35.2968 75.6514V63.108C35.2968 62.6868 35.6318 62.356 36.0488 62.356Z" fill="#5D21D1"/>
<rect x="168.791" y="61.1829" width="45.872" height="16.0928" fill="#5D21D1"/>
<path fill-rule="evenodd" clip-rule="evenodd" d="M197.426 76.5537C197.276 76.5537 197.156 76.4935 197.065 76.4334L192.914 72.8238C192.403 73.0945 191.892 73.305 191.32 73.3953C190.959 73.4554 190.568 73.5156 190.207 73.5156C187.56 73.5156 185.274 71.6506 184.763 69.0638C184.462 67.6199 184.763 66.1159 185.575 64.8826C186.387 63.6493 187.65 62.8071 189.124 62.5063C189.485 62.4461 189.876 62.386 190.237 62.386C192.884 62.386 195.17 64.2509 195.682 66.8378C196.013 68.4922 195.591 70.2068 194.509 71.5002L198.419 74.8993C198.569 75.0497 198.63 75.2602 198.569 75.5009C198.539 75.6814 198.419 75.8919 198.269 76.0423L198.148 76.1927C197.968 76.4033 197.667 76.5537 197.426 76.5537ZM190.208 64.5218C189.967 64.5218 189.757 64.5519 189.516 64.582C188.614 64.7625 187.862 65.2738 187.351 66.0559C186.839 66.8079 186.659 67.7404 186.839 68.6127C187.17 70.207 188.554 71.35 190.178 71.35C190.419 71.35 190.629 71.3199 190.87 71.2898C191.772 71.1094 192.524 70.598 193.036 69.8159C193.547 69.0639 193.727 68.1314 193.547 67.2591C193.246 65.6649 191.832 64.5218 190.208 64.5218Z" fill="white"/>
<path fill-rule="evenodd" clip-rule="evenodd" d="M91.0942 72.7936H41.4622C40.8305 72.7936 40.2891 72.2822 40.2891 71.6205V66.928C40.2891 66.2963 40.8004 65.7549 41.4622 65.7549H91.0942C91.7259 65.7549 92.2673 66.2662 92.2673 66.928V71.6205C92.2673 72.2522 91.7259 72.7936 91.0942 72.7936Z" fill="#00AC45"/>
<path fill-rule="evenodd" clip-rule="evenodd" d="M85.2908 128.021H34.7864C34.1547 128.021 33.6133 127.509 33.6133 126.848V125.344C33.6133 124.712 34.1246 124.17 34.7864 124.17H85.2908C85.9224 124.17 86.4639 124.682 86.4639 125.344V126.848C86.4338 127.509 85.9224 128.021 85.2908 128.021Z" fill="#A1F7C4"/>
<path fill-rule="evenodd" clip-rule="evenodd" d="M148.307 118.846H101.563C99.7278 118.846 98.2539 117.372 98.2539 115.537V89.7287C98.2539 87.8938 99.7278 86.4199 101.563 86.4199H148.307C150.142 86.4199 151.616 87.8938 151.616 89.7287V115.537C151.616 117.372 150.142 118.846 148.307 118.846Z" fill="#00AC45"/>
<path fill-rule="evenodd" clip-rule="evenodd" d="M149.751 128.021H99.2766C98.645 128.021 98.1035 127.509 98.1035 126.848V125.344C98.1035 124.712 98.6149 124.17 99.2766 124.17H149.751C150.383 124.17 150.924 124.682 150.924 125.344V126.848C150.924 127.509 150.413 128.021 149.751 128.021Z" fill="#00AC45"/>
<path fill-rule="evenodd" clip-rule="evenodd" d="M212.798 118.846H166.024C164.189 118.846 162.715 117.372 162.715 115.537V89.7287C162.715 87.8938 164.189 86.4199 166.024 86.4199H212.768C214.603 86.4199 216.077 87.8938 216.077 89.7287V115.537C216.107 117.372 214.603 118.846 212.798 118.846Z" fill="#A1F7C4"/>
<path fill-rule="evenodd" clip-rule="evenodd" d="M214.243 128.021H163.769C163.137 128.021 162.596 127.509 162.596 126.848V125.344C162.596 124.712 163.107 124.17 163.769 124.17H214.243C214.875 124.17 215.416 124.682 215.416 125.344V126.848C215.416 127.509 214.875 128.021 214.243 128.021Z" fill="#A1F7C4"/>
<path fill-rule="evenodd" clip-rule="evenodd" d="M87.1237 143.361V162.011H33.7617V143.361C33.7617 141.526 35.2356 140.052 37.0705 140.052H83.8149C85.6498 140.052 87.1237 141.526 87.1237 143.361Z" fill="#A1F7C4"/>
<path fill-rule="evenodd" clip-rule="evenodd" d="M151.616 143.361V162.011H98.2539V143.361C98.2539 141.526 99.7278 140.052 101.563 140.052H148.307C150.142 140.052 151.616 141.526 151.616 143.361Z" fill="#A1F7C4"/>
<path fill-rule="evenodd" clip-rule="evenodd" d="M216.107 143.361V162.011H162.715V143.361C162.715 141.526 164.189 140.052 166.024 140.052H212.768C214.603 140.052 216.107 141.526 216.107 143.361Z" fill="#A1F7C4"/>
<path fill-rule="evenodd" clip-rule="evenodd" d="M281.409 115.567C280.807 113.853 277.709 113.311 264.473 117.041C246.034 122.245 233.581 124.441 234.905 127.298C241.131 130.457 280.506 120.711 281.409 115.567Z" fill="#2E186A"/>
<path fill-rule="evenodd" clip-rule="evenodd" d="M270.821 100.437L241.162 112.319C241.162 112.319 242.486 119.869 243.839 127.63C253.044 126.637 266.61 123.268 274.671 119.989C272.836 110.755 270.821 100.437 270.821 100.437Z" fill="white"/>
<path fill-rule="evenodd" clip-rule="evenodd" d="M270.486 99.5996L240.827 111.481C240.448 111.633 240.22 112.019 240.265 112.42L240.333 112.814L242.95 127.785C243.032 128.253 243.463 128.578 243.936 128.527C253.205 127.527 266.855 124.142 275.011 120.825C275.412 120.662 275.641 120.238 275.556 119.813L274.473 114.345C273.956 111.724 273.421 109.01 272.887 106.288L271.707 100.264C271.598 99.7088 271.011 99.3891 270.486 99.5996ZM242.178 112.884L270.145 101.68L271.262 107.378C271.797 110.098 272.33 112.804 272.844 115.407L273.641 119.429L273.541 119.468C265.831 122.478 253.706 125.498 244.956 126.591L244.583 126.636L242.178 112.884Z" fill="#2E186A"/>
<path fill-rule="evenodd" clip-rule="evenodd" d="M358.204 211.402C356.821 191.459 334.712 162.613 326.56 151.573C316.874 138.458 301.684 129.675 283.485 128.111C282.463 121.072 281.41 115.297 281.41 115.297C281.831 120.35 241.223 130.487 234.876 127.299L235.568 132.202C232.229 133.044 228.559 134.157 224.288 135.661C203.412 143.03 162.925 194.888 162.925 194.888C162.925 194.888 154.562 171.546 121.444 183.939C99.0047 193.866 115.218 228.518 115.218 228.518L342.683 228.037C351.707 228.037 358.836 220.396 358.204 211.402Z" fill="#5D21D1"/>
<path fill-rule="evenodd" clip-rule="evenodd" d="M302.604 189.906C307.109 189.378 311.899 189.362 316.41 190.197C321.781 191.192 326.138 193.312 329.085 196.803C329.406 197.184 329.358 197.753 328.977 198.075C328.597 198.396 328.027 198.348 327.706 197.967C325.063 194.837 321.076 192.897 316.081 191.972C311.774 191.174 307.155 191.19 302.814 191.698L302.388 191.75C301.972 191.802 301.587 191.857 301.234 191.911L300.858 191.971L300.499 192.034C300.473 192.038 300.455 192.042 300.443 192.044C300.41 192.051 300.377 192.055 300.344 192.058C296.26 192.391 286.275 194.643 272.275 198.249L270.805 198.629C270.311 198.757 269.814 198.886 269.313 199.017L268.559 199.214C262.948 200.68 257.133 202.245 251.408 203.816L247.876 204.789C246.804 205.086 245.783 205.37 244.822 205.638L241.98 206.435C241.501 206.571 241.002 206.292 240.866 205.812C240.736 205.35 240.99 204.87 241.438 204.714L241.636 204.657L244.337 203.9C245.941 203.452 247.709 202.962 249.61 202.439C255.325 200.865 261.154 199.291 266.802 197.808L268.102 197.468C268.86 197.269 269.61 197.074 270.352 196.882L272.668 196.285C286.07 192.845 295.651 190.687 299.936 190.282L300.149 190.263L300.279 190.239C300.422 190.214 300.588 190.186 300.777 190.156C301.313 190.07 301.925 189.985 302.604 189.906Z" fill="white"/>
<path fill-rule="evenodd" clip-rule="evenodd" d="M288.144 171.43C288.558 171.187 289.086 171.312 289.349 171.706L289.378 171.752L300.267 190.342C300.519 190.772 300.375 191.324 299.945 191.576C299.531 191.819 299.003 191.694 298.739 191.3L298.71 191.254L287.821 172.664C287.569 172.234 287.714 171.681 288.144 171.43Z" fill="white"/>
<path fill-rule="evenodd" clip-rule="evenodd" d="M162.772 194.029C163.263 193.944 163.73 194.274 163.815 194.765L163.836 194.9C163.862 195.073 163.893 195.317 163.924 195.627L163.934 195.722C164.104 197.491 164.104 199.578 163.825 201.858C163.433 205.053 162.534 208.186 161.015 211.128C157.849 217.26 152.302 221.986 143.957 224.742C143.484 224.899 142.974 224.642 142.817 224.168C142.661 223.695 142.918 223.185 143.391 223.029C151.288 220.42 156.462 216.012 159.411 210.3C160.826 207.56 161.666 204.632 162.033 201.638C162.296 199.497 162.295 197.54 162.137 195.894L162.114 195.666C162.102 195.557 162.09 195.456 162.078 195.362L162.05 195.159C162.044 195.118 162.039 195.089 162.036 195.072C161.951 194.581 162.28 194.114 162.772 194.029Z" fill="white"/>
<path fill-rule="evenodd" clip-rule="evenodd" d="M164.216 194.061C164.39 193.594 164.91 193.357 165.377 193.532L165.609 193.622L165.801 193.698C165.901 193.739 166.008 193.783 166.122 193.83L166.238 193.879C166.91 194.162 167.658 194.498 168.463 194.886C170.761 195.996 173.059 197.306 175.209 198.814C182.376 203.841 186.269 209.825 184.989 216.711C184.898 217.201 184.427 217.524 183.937 217.433C183.447 217.342 183.123 216.871 183.214 216.381C184.335 210.354 180.824 204.957 174.173 200.292C172.109 198.845 169.894 197.581 167.678 196.511C166.98 196.174 166.327 195.879 165.734 195.626L165.323 195.453C165.254 195.424 165.188 195.397 165.125 195.372L164.745 195.222C164.278 195.048 164.041 194.528 164.216 194.061Z" fill="white"/>
<path fill-rule="evenodd" clip-rule="evenodd" d="M216.299 173.532C216.448 173.057 216.954 172.792 217.43 172.941C217.905 173.09 218.17 173.596 218.021 174.072L217.924 174.395C217.764 174.938 217.538 175.773 217.3 176.723C216.876 178.424 216.461 180.305 216.086 182.309C215.059 187.798 214.476 193.353 214.535 198.649C214.61 205.315 215.702 211.138 217.988 215.811C220.642 221.239 224.838 224.977 230.807 226.781C231.284 226.926 231.554 227.429 231.409 227.906C231.265 228.383 230.762 228.653 230.285 228.509C223.821 226.555 219.235 222.47 216.366 216.604C213.948 211.659 212.808 205.582 212.731 198.669C212.67 193.243 213.264 187.574 214.312 181.977L214.423 181.392C215.073 178.031 215.819 175.063 216.299 173.532Z" fill="white"/>
<path fill-rule="evenodd" clip-rule="evenodd" d="M284.026 131.151C284.457 130.9 285.009 131.047 285.259 131.477C285.336 131.609 285.431 131.817 285.519 132.096C285.912 133.334 285.835 134.825 284.998 136.44C283.877 138.605 281.514 140.699 277.67 142.661C277.226 142.888 276.683 142.711 276.456 142.268C276.23 141.824 276.406 141.28 276.85 141.054C280.384 139.249 282.466 137.403 283.396 135.61C284.002 134.441 284.053 133.443 283.799 132.641C283.778 132.575 283.756 132.516 283.735 132.465L283.699 132.384C283.449 131.953 283.595 131.401 284.026 131.151Z" fill="white"/>
<path fill-rule="evenodd" clip-rule="evenodd" d="M281.155 130.199C281.248 129.709 281.72 129.387 282.209 129.48C282.699 129.572 283.021 130.044 282.929 130.534C282.9 130.685 282.834 130.924 282.717 131.238C282.531 131.735 282.264 132.281 281.903 132.862C280.895 134.486 279.34 136.093 277.135 137.578C273.125 140.276 267.387 142.287 259.635 143.353C259.141 143.421 258.686 143.075 258.618 142.582C258.55 142.088 258.895 141.633 259.389 141.565C266.883 140.535 272.361 138.615 276.127 136.08C278.122 134.738 279.497 133.316 280.37 131.91C280.667 131.431 280.882 130.993 281.026 130.606L281.066 130.496C281.12 130.342 281.147 130.241 281.155 130.199Z" fill="white"/>
<path fill-rule="evenodd" clip-rule="evenodd" d="M233.312 215.132C233.312 215.132 226.995 216.937 222.874 219.524C218.753 222.111 213.158 225.811 213.429 226.713C213.67 227.646 218.152 228.698 220.859 227.345C226.965 221.6 235.117 220.336 235.117 220.336C234.244 220.156 227.416 223.043 224.408 224.848C218.753 228.277 218.753 228.368 227.356 228.398L254.187 228.037C254.849 213.328 241.764 205.567 241.764 205.567C241.764 205.567 229.311 205.206 220.799 210.289C215.745 213.328 208.406 218.622 208.015 220.487C207.684 222.081 209.188 222.231 211.053 221.87C211.053 221.87 206.902 225.841 213.7 225.57" fill="white"/>
<path fill-rule="evenodd" clip-rule="evenodd" d="M241.498 206.465L241.209 206.464C240.847 206.464 240.414 206.47 239.919 206.485C238.909 206.516 237.821 206.581 236.676 206.686C233.575 206.969 230.507 207.506 227.649 208.352C225.263 209.059 223.115 209.957 221.263 211.063L220.916 211.273C215.227 214.735 209.159 219.427 208.898 220.67L208.871 220.806C208.838 220.996 208.865 221.011 208.999 221.057C209.344 221.173 210.005 221.154 210.881 220.984C211.749 220.816 212.306 221.86 211.711 222.487L211.606 222.593C211.582 222.618 211.554 222.648 211.523 222.683C211.397 222.821 211.27 222.973 211.154 223.132C210.933 223.435 210.78 223.721 210.723 223.947C210.671 224.153 210.69 224.211 210.849 224.312C211.263 224.576 212.189 224.727 213.664 224.668C213.717 224.666 213.769 224.669 213.821 224.676L213.827 224.677L213.872 224.638C214.349 224.227 214.956 223.763 215.701 223.219L215.975 223.019C217.652 221.805 219.855 220.354 222.394 218.76C223.427 218.111 224.635 217.482 225.984 216.873C227.535 216.174 229.191 215.536 230.847 214.971L231.273 214.828C231.622 214.712 231.953 214.605 232.263 214.507L232.547 214.419L233.064 214.265C233.543 214.128 234.042 214.405 234.179 214.885C234.311 215.347 234.058 215.828 233.61 215.984L233.076 216.145L232.981 216.174C232.513 216.319 231.991 216.488 231.429 216.68C229.824 217.227 228.219 217.845 226.726 218.518C225.447 219.096 224.31 219.688 223.354 220.288L222.635 220.741C220.508 222.088 218.65 223.319 217.194 224.366L217.034 224.481C216.066 225.182 215.319 225.773 214.827 226.233C214.739 226.314 214.661 226.39 214.593 226.461L214.544 226.512L214.593 226.535L214.66 226.564C215.092 226.745 215.689 226.9 216.345 226.993C217.669 227.18 218.998 227.095 220.011 226.727L220.045 226.714L220.057 226.701C220.211 226.539 220.404 226.372 220.643 226.19L220.735 226.121C220.919 225.984 221.116 225.846 221.353 225.687L221.458 225.617L221.651 225.46C222.382 224.872 223.15 224.322 223.951 223.808L224.219 223.638C226.569 222.167 229.081 221.069 231.592 220.286C232.232 220.086 232.839 219.918 233.405 219.778L233.551 219.742L233.625 219.72C234.378 219.491 234.928 219.392 235.261 219.445L235.299 219.453C236.265 219.652 236.249 221.02 235.311 221.218L235.048 221.264L234.857 221.301C234.79 221.315 234.72 221.329 234.647 221.344L234.323 221.415L234.058 221.477L233.902 221.528L233.787 221.566C233.015 221.827 232.012 222.216 230.914 222.679L230.53 222.843C228.353 223.777 226.178 224.839 224.876 225.62L223.985 226.162C223.49 226.465 223.103 226.706 222.788 226.907L222.531 227.072L222.398 227.183L222.28 227.283L222.159 227.386L222.304 227.398L222.524 227.412C223.273 227.456 224.167 227.476 225.808 227.488L227.344 227.495L253.308 227.146L253.309 227.13C253.356 221.249 251.163 216.122 247.442 211.759L247.305 211.6C245.985 210.073 244.568 208.755 243.154 207.651C242.66 207.265 242.203 206.935 241.795 206.66L241.634 206.553L241.498 206.465ZM212.571 226.994L212.551 226.924C212.514 226.78 212.502 226.637 212.517 226.493L212.519 226.475C211.392 226.429 210.549 226.233 209.952 225.878L209.878 225.833C209.023 225.287 208.742 224.425 208.973 223.506C209.021 223.318 209.088 223.132 209.172 222.947L209.185 222.918L209.102 222.911C208.892 222.888 208.695 222.85 208.512 222.795L208.422 222.766C207.372 222.412 206.884 221.494 207.132 220.301C207.558 218.266 213.903 213.382 220.336 209.514C222.329 208.324 224.615 207.368 227.136 206.621C230.119 205.738 233.301 205.182 236.512 204.888L236.939 204.85C238.768 204.696 240.331 204.647 241.504 204.66L241.791 204.665C241.944 204.669 242.093 204.712 242.225 204.791L242.408 204.904C242.514 204.97 242.646 205.057 242.804 205.163C243.246 205.461 243.737 205.816 244.265 206.228C245.768 207.401 247.269 208.798 248.671 210.419C252.939 215.353 255.396 221.254 255.089 228.077C255.069 228.537 254.706 228.904 254.253 228.937L254.2 228.939L227.353 229.3L225.645 229.292C221.504 229.264 220.546 229.171 219.988 228.634L219.967 228.614L219.947 228.619C217.059 229.318 213.062 228.555 212.571 226.994Z" fill="#2E186A"/>
<path fill-rule="evenodd" clip-rule="evenodd" d="M230.6 210.694C231.091 210.608 231.559 210.937 231.645 211.428C231.73 211.919 231.402 212.386 230.911 212.472C228.826 212.836 224.528 214.876 219.644 217.706L219.463 217.811C217.439 218.989 215.475 220.212 213.925 221.256L213.733 221.386C212.295 222.363 211.295 223.151 211.207 223.307C210.831 223.971 210.884 224.189 211.255 224.338C211.935 224.612 213.276 224.493 214.899 223.909C215.368 223.74 215.885 223.983 216.053 224.452C216.222 224.921 215.979 225.438 215.51 225.607C213.51 226.327 211.751 226.483 210.581 226.013C209.111 225.421 208.761 223.966 209.636 222.419C210.137 221.533 213.796 219.037 218.26 216.424L218.94 216.028C223.928 213.149 228.262 211.102 230.6 210.694Z" fill="#2E186A"/>
<path fill-rule="evenodd" clip-rule="evenodd" d="M274.31 95.1731C263.421 115.507 248.14 118.906 238.304 116.349C224.587 112.86 219.564 88.7059 230.453 68.3418C241.342 48.0077 257.074 43.2851 271.151 50.8051C285.169 58.3251 285.169 74.839 274.31 95.1731Z" fill="white"/>
<path fill-rule="evenodd" clip-rule="evenodd" d="M229.659 67.9158C224.372 77.8043 222.528 89.0982 224.265 98.8322C225.984 108.469 231.035 115.431 238.083 117.224C243.728 118.692 250.18 118.093 256.304 115.159C263.514 111.704 269.954 105.221 275.107 95.5992C286.446 74.3654 285.717 57.9178 271.998 50.2392L271.578 50.0092C256.231 41.8112 240.266 48.1089 229.659 67.9158ZM270.727 51.6003C283.759 58.5915 284.561 74.065 273.516 94.7481C268.538 104.044 262.373 110.25 255.524 113.532C249.788 116.281 243.773 116.838 238.533 115.476C232.264 113.881 227.649 107.52 226.042 98.5152C224.377 89.1832 226.154 78.3003 231.251 68.7673C241.314 49.9763 256.026 44.0249 270.296 51.3743L270.727 51.6003Z" fill="#2E186A"/>
<path fill-rule="evenodd" clip-rule="evenodd" d="M269.196 83.7728C269.196 83.7728 282.101 82.8103 278.822 93.1277C275.543 103.445 265.857 98.6023 265.857 98.6023" fill="white"/>
<path fill-rule="evenodd" clip-rule="evenodd" d="M269.385 82.8593C270.928 82.7961 272.749 82.9233 274.513 83.4026C279.154 84.6637 281.423 87.9224 279.682 93.401C278.414 97.393 276.107 99.6473 273.088 100.381C271.121 100.859 269.055 100.654 267.063 100.031L266.826 99.9551C266.213 99.7522 265.743 99.5536 265.454 99.4094C265.008 99.1865 264.828 98.6445 265.051 98.1987C265.265 97.7695 265.776 97.586 266.211 97.772L266.369 97.8457C266.429 97.8728 266.507 97.907 266.602 97.9468C266.897 98.0696 267.233 98.1932 267.602 98.3088C269.308 98.8426 271.061 99.0161 272.662 98.6271C275.052 98.0463 276.88 96.2601 277.962 92.8544C279.362 88.4494 277.766 86.1567 274.04 85.1443C272.552 84.74 270.976 84.6169 269.639 84.6562L269.322 84.6691C269.296 84.6705 269.277 84.6718 269.264 84.6727C268.767 84.7098 268.334 84.3369 268.297 83.8399C268.26 83.3429 268.632 82.91 269.129 82.8729L269.291 82.8635C269.319 82.8621 269.351 82.8607 269.385 82.8593Z" fill="#2E186A"/>
<path fill-rule="evenodd" clip-rule="evenodd" d="M234.071 80.1137C234.452 78.5136 233.922 77.0171 232.887 76.7712C231.853 76.5253 230.706 77.6231 230.326 79.2231C229.945 80.8232 230.475 82.3197 231.51 82.5656C232.544 82.8116 233.691 81.7138 234.071 80.1137Z" fill="#2E186A"/>
<path fill-rule="evenodd" clip-rule="evenodd" d="M249.995 82.2075C250.376 80.6074 249.845 79.1109 248.811 78.865C247.777 78.619 246.63 79.7168 246.249 81.3169C245.869 82.917 246.399 84.4135 247.433 84.6594C248.468 84.9053 249.615 83.8075 249.995 82.2075Z" fill="#2E186A"/>
<path fill-rule="evenodd" clip-rule="evenodd" d="M240.583 73.9823C240.79 73.5292 241.326 73.33 241.779 73.5374C242.216 73.7375 242.417 74.2426 242.244 74.6847L242.224 74.7336L234.215 92.2267L239.535 93.296C240.007 93.3906 240.318 93.8363 240.251 94.3062L240.242 94.3584C240.148 94.8296 239.702 95.1407 239.232 95.0743L239.18 95.0654L232.743 93.772C232.19 93.6609 231.878 93.0787 232.079 92.5615L232.1 92.5116L240.583 73.9823Z" fill="#2E186A"/>
<path fill-rule="evenodd" clip-rule="evenodd" d="M247.026 71.0195C249.598 69.7686 252.172 70.5224 254.514 72.4614C255.035 72.893 255.505 73.3536 255.918 73.8148L256.037 73.9499C256.226 74.1666 256.364 74.3398 256.448 74.4533C256.744 74.8542 256.659 75.4192 256.258 75.7153C255.873 76.0001 255.336 75.9325 255.032 75.5705L254.921 75.4288L254.896 75.3981C254.805 75.2846 254.697 75.1569 254.573 75.0185C254.217 74.6205 253.81 74.2219 253.363 73.8515C251.508 72.3155 249.623 71.7635 247.815 72.6426C247.367 72.8606 246.827 72.6739 246.609 72.2257C246.391 71.7775 246.577 71.2375 247.026 71.0195Z" fill="#2E186A"/>
<path fill-rule="evenodd" clip-rule="evenodd" d="M245.223 98.6325C244.467 99.633 243.543 100.243 242.47 100.533C241.222 100.871 239.848 100.761 238.518 100.366C238.248 100.286 238.004 100.2 237.79 100.116L237.67 100.067L237.551 100.014C237.061 99.7801 236.477 100.028 236.305 100.543L236.276 100.636C236.24 100.758 236.198 100.924 236.157 101.127C235.972 102.036 235.95 102.997 236.202 103.926C236.829 106.234 238.936 107.565 242.635 107.446C242.703 107.443 242.77 107.434 242.835 107.416C246.361 106.491 248.382 104.017 248.659 101.199C248.773 100.035 248.546 98.9525 248.004 98.3099C247.231 97.3932 246.078 97.5489 245.272 98.569L245.223 98.6325ZM246.723 99.6436L246.729 99.6563C246.85 99.9474 246.919 100.45 246.863 101.022L246.852 101.122C246.614 103.129 245.162 104.894 242.51 105.634L242.475 105.644L242.308 105.648C239.583 105.683 238.323 104.851 237.944 103.453L237.913 103.328C237.827 102.952 237.805 102.551 237.834 102.15L237.842 102.047L238.004 102.096C239.628 102.578 241.322 102.713 242.941 102.275C244.347 101.895 245.58 101.099 246.567 99.8446L246.698 99.6753L246.723 99.6436Z" fill="#2E186A"/>
<path fill-rule="evenodd" clip-rule="evenodd" d="M228.479 67.2619C230.463 66.6375 232.519 67.1268 234.493 68.2898C234.962 68.5665 235.391 68.8624 235.772 69.1592L235.904 69.2634C236.07 69.3961 236.193 69.503 236.271 69.575C236.637 69.9138 236.658 70.4847 236.32 70.8503C235.994 71.2017 235.453 71.2353 235.087 70.9362L234.982 70.844L234.956 70.8216C234.874 70.7507 234.776 70.6705 234.664 70.5835C234.341 70.332 233.975 70.0796 233.576 69.8446C232.001 68.916 230.426 68.5413 229.021 68.9835C228.441 69.1659 227.889 69.4879 227.364 69.9696C226.996 70.3063 226.426 70.2815 226.089 69.9141C225.752 69.5468 225.777 68.9759 226.144 68.6392C226.862 67.9809 227.645 67.5244 228.479 67.2619Z" fill="#2E186A"/>
<path fill-rule="evenodd" clip-rule="evenodd" d="M319.162 36.096C317.267 36.3968 315.312 36.9082 313.417 37.5699C299.339 42.5632 291.218 55.9187 295.278 67.4093C299.309 78.7495 313.687 84.0135 327.614 79.3511C329.78 87.1418 330.171 100.497 316.575 116.199C314.229 118.906 317.147 122.907 320.425 121.493C333.54 115.808 351.227 105.912 357.093 92.0449C366.207 70.4173 365.184 23.703 319.162 36.096Z" fill="#2E186A"/>
<path fill-rule="evenodd" clip-rule="evenodd" d="M289.892 69.7554L289.832 69.5148C288.96 66.6572 290.554 63.6191 293.412 62.7167L296.57 61.7541C299.428 60.8818 302.466 62.476 303.368 65.3336L303.428 65.5743C304.301 68.4319 302.707 71.47 299.849 72.3724L296.69 73.3349C293.803 74.2073 290.765 72.613 289.892 69.7554Z" fill="#00AC45"/>
<path fill-rule="evenodd" clip-rule="evenodd" d="M291.877 61.9048C289.471 54.4449 280.958 45.6616 256.112 40.2772C255.841 40.2472 255.54 40.2772 255.21 40.3374C242.606 37.6603 222.302 44.699 222.693 68.372C222.783 72.8238 223.896 76.9749 225.761 80.7649C226.724 76.5838 228.258 72.3726 230.424 68.3419C235.778 58.2952 242.335 52.0686 249.284 49.2411C247.75 57.3627 250.908 70.2369 268.836 84.4949C268.866 84.555 268.896 84.6152 268.956 84.7054L269.167 83.7729C269.167 83.7729 275.754 83.2917 278.311 86.7809C278.341 86.8411 278.371 86.8712 278.401 86.9313C278.431 86.9614 278.461 86.9915 278.461 87.0517C278.492 87.1118 278.522 87.1419 278.552 87.2021C278.582 87.2321 278.612 87.2923 278.612 87.3224C278.642 87.3825 278.672 87.4427 278.702 87.4728C278.732 87.5329 278.762 87.5931 278.792 87.6533C278.822 87.7134 278.852 87.7736 278.883 87.8638C278.913 87.924 278.913 87.9541 278.943 88.0142C278.973 88.0744 278.973 88.1045 279.003 88.1646C279.033 88.2248 279.033 88.2849 279.063 88.3451C279.063 88.4053 279.093 88.4353 279.093 88.4955C279.123 88.5557 279.123 88.6158 279.153 88.676C279.153 88.7061 279.183 88.7662 279.183 88.7963C279.244 89.0369 279.274 89.2776 279.274 89.5483C279.274 89.5784 279.274 89.6085 279.274 89.6686C279.274 89.7589 279.274 89.819 279.274 89.9093C279.274 89.9393 279.274 89.9995 279.274 90.0296C279.274 90.1198 279.274 90.2101 279.274 90.3003C279.274 90.3304 279.274 90.3905 279.274 90.4206C279.274 90.5109 279.274 90.6011 279.244 90.6913C279.213 90.932 279.183 91.1726 279.153 91.4133C279.063 91.9547 278.943 92.5262 278.732 93.1579C277.198 97.9707 274.25 99.4747 271.573 99.7153C271.603 99.595 271.964 105.731 271.874 105.822C275.423 104.618 279.274 102.302 283.395 98.3918C295.457 86.9915 296.961 72.4027 291.877 61.9048Z" fill="#2E186A"/>
<path fill-rule="evenodd" clip-rule="evenodd" d="M132.455 176.449C132.455 176.449 126.83 169.321 130.65 167.937C139.193 164.839 162.384 207.011 137.538 208.364C136.305 208.425 124.183 210.771 116.994 200.874C111.579 192.602 111.188 183.789 115.008 178.886C118.859 173.983 132.455 176.449 132.455 176.449Z" fill="white"/>
<path fill-rule="evenodd" clip-rule="evenodd" d="M130.343 167.088C128.191 167.867 127.974 169.891 129.004 172.418C129.289 173.118 129.666 173.851 130.112 174.601L130.266 174.856L130.423 175.108L130.521 175.261L130.362 175.243C127.952 174.964 125.489 174.846 123.177 174.982C119.042 175.224 115.941 176.237 114.299 178.328C110.078 183.746 110.796 193.052 116.239 201.369L116.264 201.405C118.437 204.397 121.169 206.503 124.327 207.833C128.185 209.457 132.084 209.791 136.068 209.426L136.436 209.39C136.799 209.352 137.406 209.282 137.553 209.268L137.588 209.265C143.792 208.927 147.62 206.098 149.012 201.292C150.188 197.232 149.555 191.916 147.463 186.172C143.423 175.078 135.194 165.329 130.343 167.088ZM137.657 207.454L137.445 207.467C137.205 207.487 136.387 207.582 136.122 207.608C132.331 207.981 128.635 207.688 125.029 206.169L124.842 206.09C122.121 204.908 119.764 203.087 117.854 200.52L117.737 200.36L117.75 200.38C112.692 192.653 112.037 184.169 115.721 179.441C116.956 177.868 119.619 176.998 123.283 176.784C125.477 176.655 127.841 176.768 130.156 177.036C130.659 177.094 131.126 177.156 131.547 177.218L131.996 177.287L132.295 177.337C133.096 177.483 133.656 176.581 133.195 175.931L133.042 175.73L132.913 175.558C132.846 175.467 132.776 175.369 132.701 175.265C132.347 174.768 131.993 174.231 131.664 173.678C131.261 173 130.924 172.345 130.676 171.737L130.598 171.54C129.99 169.959 130.115 169.091 130.958 168.785C134.412 167.533 142.052 176.584 145.768 186.79C147.741 192.207 148.331 197.16 147.28 200.79C146.12 204.792 143.017 207.118 137.657 207.454Z" fill="#2E186A"/>
<path fill-rule="evenodd" clip-rule="evenodd" d="M139.733 156.236L116.873 122.396C115.73 120.711 113.143 121.223 112.722 123.238L105.021 162.071C104.69 163.726 106.555 164.929 107.939 163.966L118.316 156.657L128.062 195.099C128.423 196.543 129.897 197.415 131.341 197.054L132.935 196.663C134.379 196.302 135.251 194.828 134.891 193.385L125.325 155.604L137.688 159.123C139.372 159.575 140.726 157.68 139.733 156.236Z" fill="#2E186A"/>
<path fill-rule="evenodd" clip-rule="evenodd" d="M118.317 177.502C124.905 175.216 135.944 176.961 138.501 180.961C141.058 184.962 138.561 184.24 138.561 184.24C138.561 184.24 141.479 186.165 141.539 187.94C141.599 189.715 141.208 191.128 141.208 191.128C141.208 191.128 143.615 191.249 142.893 193.956C142.171 196.633 141.84 197.475 141.84 197.475C141.84 197.475 142.351 202.679 138.08 203.01C133.808 203.341 125.085 206.168 121.265 203.07C117.445 199.972 111.73 179.788 118.317 177.502Z" fill="white"/>
<path fill-rule="evenodd" clip-rule="evenodd" d="M122.672 195.765C126.188 194.759 130.587 194.33 134.538 194.525C138.61 194.725 141.504 195.506 142.231 196.96C143.535 199.645 142.816 201.052 139.311 202.772C138.002 203.396 135.838 203.701 132.994 203.787C131.239 203.84 129.366 203.803 127.539 203.71L127.177 203.691C127.001 203.681 126.832 203.671 126.671 203.661L126.107 203.623L125.916 203.608C125.419 203.568 125.049 203.133 125.089 202.637C125.129 202.14 125.564 201.769 126.061 201.809L126.481 201.84L126.944 201.869C127.16 201.882 127.389 201.895 127.631 201.907C129.413 201.998 131.24 202.034 132.939 201.983L133.283 201.971C135.716 201.879 137.567 201.603 138.525 201.147L138.832 200.995C141.227 199.794 141.388 199.356 140.612 197.758C140.506 197.547 139.893 197.209 138.869 196.933C137.725 196.624 136.19 196.413 134.449 196.327C130.686 196.142 126.483 196.551 123.169 197.5C122.689 197.638 122.19 197.36 122.053 196.881C121.915 196.402 122.193 195.902 122.672 195.765Z" fill="#2E186A"/>
<path fill-rule="evenodd" clip-rule="evenodd" d="M123.119 187.96C126.15 187.502 129.21 187.258 132.077 187.345C133.69 187.393 135.193 187.546 136.566 187.817L136.801 187.865L136.943 187.89C140.164 188.485 142.635 190.252 143.576 192.42L143.619 192.524C144.599 194.918 143.395 197.104 140.635 197.467C140.14 197.532 139.687 197.185 139.622 196.69C139.557 196.196 139.905 195.743 140.399 195.678C141.966 195.472 142.488 194.524 141.949 193.207C141.291 191.599 139.32 190.167 136.626 189.667L136.451 189.635C135.121 189.356 133.636 189.197 132.023 189.149C129.278 189.066 126.321 189.301 123.389 189.744C122.591 189.865 121.849 189.993 121.177 190.122L120.955 190.165C120.786 190.198 120.629 190.23 120.487 190.26L120.055 190.353C119.57 190.465 119.085 190.163 118.973 189.677C118.864 189.209 119.142 188.741 119.597 188.608L119.698 188.583L119.904 188.538C120.073 188.502 120.265 188.462 120.477 188.42L120.607 188.394C121.362 188.246 122.205 188.098 123.119 187.96Z" fill="#2E186A"/>
<path fill-rule="evenodd" clip-rule="evenodd" d="M120.044 181.882C123.85 180.985 127.742 180.603 131.4 181.033C133.243 181.25 134.97 181.673 136.558 182.323C137.771 182.821 138.796 183.353 139.644 183.917C142.786 186.007 143.387 188.44 142.369 190.582C142.205 190.928 142.035 191.184 141.904 191.342C141.587 191.726 141.018 191.781 140.634 191.463C140.264 191.158 140.2 190.62 140.478 190.238L140.513 190.193C140.555 190.142 140.644 190.007 140.739 189.808C140.985 189.29 141.075 188.717 140.924 188.108C140.707 187.229 140.003 186.324 138.644 185.419C137.9 184.925 136.98 184.447 135.873 183.992C134.446 183.408 132.877 183.025 131.189 182.826C127.769 182.423 124.076 182.786 120.458 183.639C119.635 183.833 118.876 184.039 118.193 184.246L117.991 184.309C117.778 184.375 117.587 184.437 117.418 184.493L117.097 184.605C116.629 184.778 116.11 184.539 115.937 184.072C115.764 183.604 116.003 183.085 116.47 182.913L116.593 182.868L116.735 182.819C116.943 182.748 117.184 182.67 117.455 182.585C118.227 182.345 119.096 182.105 120.044 181.882Z" fill="#2E186A"/>
<path fill-rule="evenodd" clip-rule="evenodd" d="M130.752 175.795C130.947 175.336 131.477 175.123 131.936 175.318C132.076 175.378 132.215 175.438 132.351 175.498C135.952 177.088 138.182 178.824 139.267 180.659C140.088 182.049 140.187 183.358 139.833 184.447C139.758 184.68 139.676 184.856 139.608 184.971C139.354 185.4 138.8 185.541 138.371 185.287C137.959 185.042 137.812 184.52 138.029 184.099L138.055 184.051C138.059 184.045 138.084 183.99 138.116 183.891C138.317 183.274 138.259 182.5 137.713 181.578C136.844 180.108 134.906 178.599 131.622 177.149C131.493 177.092 131.362 177.035 131.229 176.979C130.77 176.783 130.557 176.253 130.752 175.795Z" fill="#2E186A"/>
<path fill-rule="evenodd" clip-rule="evenodd" d="M374.341 227C374.705 227 375 227.448 375 228C375 228.533 374.726 228.968 374.38 228.998L374.341 229H2.6592C2.29514 229 2 228.552 2 228C2 227.467 2.27443 227.032 2.62047 227.002L2.6592 227H374.341Z" fill="#2E186A"/>
</svg>
