<svg id="Menu_ICon" data-name="Menu ICon" xmlns="http://www.w3.org/2000/svg" width="21.859" height="21.829" viewBox="0 0 21.859 21.829">
  <g id="Union" transform="translate(0 0)" fill="none">
    <path d="M3.279,21.829A3.28,3.28,0,0,1,0,18.549v-8.38A3.281,3.281,0,0,1,1.085,7.731L8.736.842a3.278,3.278,0,0,1,4.387,0l7.651,6.889a3.281,3.281,0,0,1,1.085,2.438v8.38a3.28,3.28,0,0,1-3.279,3.28Zm16.94-11.66v8.38a1.64,1.64,0,0,1-1.639,1.64H15.3V14.175a3.28,3.28,0,0,0-3.279-3.28H9.836a3.28,3.28,0,0,0-3.279,3.28v6.014H3.279a1.64,1.64,0,0,1-1.639-1.64v-8.38A1.64,1.64,0,0,1,2.182,8.95L9.833,2.061a1.639,1.639,0,0,1,2.193,0L19.676,8.95A1.64,1.64,0,0,1,20.219,10.169ZM8.2,20.189V14.175a1.64,1.64,0,0,1,1.639-1.64h2.186a1.64,1.64,0,0,1,1.639,1.64v6.014Z" stroke="none"/>
    <path d="M 18.57980346679688 21.82929039001465 L 3.278782606124878 21.82929039001465 C 1.467962622642517 21.82929039001465 2.678832970559597e-06 20.36065101623535 2.678832970559597e-06 18.54898071289062 L 2.678832970559597e-06 10.16897010803223 C 2.678832970559597e-06 9.239040374755859 0.3945126831531525 8.35282039642334 1.085392713546753 7.730730533599854 L 8.735902786254883 0.8420805931091309 C 9.982831001281738 -0.2806887626647949 11.87574100494385 -0.28069007396698 13.12268257141113 0.8420705795288086 L 20.773193359375 7.730730533599854 C 21.46407318115234 8.35282039642334 21.85858345031738 9.239040374755859 21.85858345031738 10.16897010803223 L 21.85858345031738 18.54898071289062 C 21.85858345031738 20.36065101623535 20.39062309265137 21.82929039001465 18.57980346679688 21.82929039001465 Z M 9.836362838745117 10.89492034912109 L 12.0222225189209 10.89492034912109 C 13.83304309844971 10.89492034912109 15.30101299285889 12.36356067657471 15.30101299285889 14.17523097991943 L 15.30101299285889 20.18914031982422 L 18.57980346679688 20.18914031982422 C 19.4852123260498 20.18914031982422 20.21919250488281 19.45481109619141 20.21919250488281 18.54898071289062 L 20.21919250488281 10.16897010803223 C 20.21919250488281 9.704010963439941 20.02193260192871 9.260890960693359 19.67649269104004 8.949851036071777 L 12.02599239349365 2.061190605163574 C 11.40252208709717 1.499810457229614 10.45606327056885 1.499810457229614 9.832592964172363 2.061190605163574 L 2.182092666625977 8.949851036071777 C 1.836652636528015 9.260890960693359 1.639392733573914 9.704010963439941 1.639392733573914 10.16897010803223 L 1.639392733573914 18.54898071289062 C 1.639392733573914 19.45481109619141 2.373372793197632 20.18914031982422 3.278782606124878 20.18914031982422 L 6.557572841644287 20.18914031982422 L 6.557572841644287 14.17523097991943 C 6.557572841644287 12.36356067657471 8.025542259216309 10.89492034912109 9.836362838745117 10.89492034912109 Z M 9.836362838745117 12.53507041931152 C 8.930953025817871 12.53507041931152 8.196972846984863 13.26940059661865 8.196972846984863 14.17523097991943 L 8.196972846984863 20.18914031982422 L 13.66161251068115 20.18914031982422 L 13.66161251068115 14.17523097991943 C 13.66161251068115 13.26940059661865 12.92763233184814 12.53507041931152 12.0222225189209 12.53507041931152 L 9.836362838745117 12.53507041931152 Z" stroke="none" fill="#707070"/>
  </g>
</svg>
