<svg width="61" height="29" viewBox="0 0 61 29" fill="none" xmlns="http://www.w3.org/2000/svg">
<path d="M13.0597 9.79634C8.93579 9.79634 4.81192 9.79634 0.677934 9.79634C0.0209445 9.79634 0.0108394 9.79634 0.0108394 9.12924C0.0108394 8.03763 0.0209463 6.93591 0.000731258 5.84429C-0.00937628 5.47031 0.0815915 5.30859 0.506108 5.30859C8.87515 5.3187 17.2442 5.3187 25.6132 5.30859C26.0074 5.30859 26.1489 5.42988 26.1388 5.82408C26.1186 6.95612 26.1085 8.07806 26.1388 9.2101C26.1489 9.68516 25.967 9.80645 25.5223 9.80645C21.3782 9.78623 17.2139 9.79634 13.0597 9.79634Z" fill="#606060"/>
<path d="M13.0601 10.8576C17.1536 10.8576 21.2472 10.8576 25.3306 10.8576C26.1392 10.8576 26.1291 10.8576 26.1493 11.6965C26.1594 12.4849 26.1797 13.2834 25.7551 13.991C25.3913 14.5974 24.9162 15.0725 24.1683 15.1533C23.5113 15.2241 22.8442 15.3252 22.1771 15.3252C15.0209 15.3353 7.8648 15.3353 0.708661 15.3353C0.021349 15.3353 0.0213472 15.3353 0.0213472 14.6479C0.0213472 13.5664 0.0415647 12.495 0.0112421 11.4135C0.00113455 10.9688 0.142638 10.8374 0.58737 10.8374C4.74157 10.8576 8.90587 10.8576 13.0601 10.8576Z" fill="#606060"/>
<path d="M41.8154 10.8568C45.6361 10.8568 49.4668 10.8669 53.2875 10.8467C53.803 10.8467 53.9647 10.9983 53.9344 11.5037C53.8939 12.3527 54.0152 13.222 53.5301 14.0002C53.1561 14.5966 52.7316 15.1121 51.9533 15.1626C51.2761 15.203 50.5888 15.3344 49.9116 15.3344C42.7656 15.3445 35.6296 15.3445 28.4836 15.3445C27.8064 15.3445 27.8064 15.3445 27.8064 14.6471C27.7963 13.8082 27.7356 12.9592 28.2006 12.2112C28.6959 11.4026 29.4034 10.8669 30.3939 10.8669C34.2045 10.8467 38.015 10.8568 41.8154 10.8568Z" fill="#606060"/>
<path d="M41.8255 9.79568C38.0655 9.79568 34.3156 9.79568 30.5556 9.79568C29.2517 9.79568 28.2611 9.07805 27.9882 7.8045C27.8366 7.10708 27.8467 6.37934 27.8164 5.67181C27.8164 5.56063 28.0287 5.41912 28.1702 5.32815C28.2409 5.27761 28.3622 5.31805 28.4633 5.31805C35.953 5.31805 43.4528 5.30794 50.9424 5.32815C52.7719 5.33826 53.8837 6.29848 53.9141 8.28966C53.9343 9.79568 53.9242 9.79568 52.4182 9.79568C48.9007 9.79568 45.3631 9.79568 41.8255 9.79568Z" fill="#606060"/>
<path d="M13.0604 4.33782C8.93653 4.33782 4.81265 4.33782 0.678668 4.33782C0.0115705 4.33782 0.011573 4.33782 0.011573 3.67072C0.011573 2.60943 0.0216799 1.54814 0.00146484 0.486845C0.00146484 0.143189 0.112648 -0.0185305 0.466412 0.0016846C0.537165 0.0117921 0.59781 0.0016846 0.668563 0.0016846C8.3604 0.0016846 16.0623 0.0016846 23.7542 0.0016846C24.6436 0.0016846 25.6847 0.688996 25.8768 1.55824C26.0587 2.34663 26.0587 3.18556 26.1092 3.99416C26.1193 4.09524 25.9071 4.25696 25.7757 4.3176C25.6443 4.36814 25.4826 4.33782 25.331 4.33782C21.2475 4.33782 17.154 4.33782 13.0604 4.33782Z" fill="#606060"/>
<path d="M40.0572 4.33809C36.1961 4.33809 32.3451 4.33809 28.4841 4.33809C27.817 4.33809 27.8271 4.33809 27.8069 3.6811C27.7866 2.87249 27.7664 2.05378 28.2011 1.34625C28.6458 0.618512 29.232 0.0120613 30.1821 0.0120613C37.8942 0.0120613 45.6062 0.0120607 53.3183 0.00195312C53.8136 0.00195312 53.9955 0.173781 53.9348 0.648835C53.8641 1.29572 53.8439 1.9426 53.7428 2.57938C53.5912 3.53959 52.4591 4.3583 51.4181 4.34819C47.6277 4.31787 43.8475 4.33809 40.0572 4.33809Z" fill="#606060"/>
<path d="M7.00535 24.9469C7.00535 25.7454 6.84363 26.4327 6.52019 27.029C6.19675 27.6254 5.74191 28.0802 5.14557 28.3935C4.54922 28.7069 3.87202 28.8686 3.09374 28.8686H0.0917969V21.1768H2.75008C4.1146 21.1768 5.15567 21.5002 5.90363 22.1572C6.64148 22.8142 7.00535 23.7441 7.00535 24.9469ZM5.91374 24.9469C5.91374 23.9968 5.64083 23.269 5.09503 22.7636C4.54922 22.2583 3.76083 22.0157 2.72986 22.0157H1.18341V28.0398H2.97244C3.55868 28.0398 4.07417 27.9185 4.52901 27.6658C4.97374 27.4232 5.31739 27.0593 5.55997 26.5944C5.79245 26.1295 5.91374 25.5836 5.91374 24.9469Z" fill="#606060"/>
<path d="M9.92619 28.9798C9.30963 28.9798 8.84469 28.8282 8.53135 28.5149C8.21802 28.2015 8.06641 27.777 8.06641 27.2312C8.06641 26.6248 8.27867 26.1497 8.69307 25.8263C9.11759 25.5028 9.7948 25.3209 10.7247 25.3007L12.1094 25.2804V24.957C12.1094 24.4718 11.9982 24.1282 11.786 23.926C11.5737 23.7138 11.2402 23.6127 10.7853 23.6127C10.3305 23.6127 9.98684 23.6835 9.78469 23.8351C9.57243 23.9867 9.45114 24.2192 9.41071 24.5527L8.33931 24.4617C8.51114 23.4004 9.33996 22.8647 10.8157 22.8647C11.5939 22.8647 12.1701 23.0366 12.5643 23.3802C12.9585 23.7239 13.1505 24.209 13.1505 24.8559V27.403C13.1505 27.6962 13.1909 27.9185 13.2718 28.06C13.3527 28.2116 13.5043 28.2824 13.7266 28.2824C13.8277 28.2824 13.9389 28.2723 14.0602 28.242V28.8585C13.7974 28.9192 13.5346 28.9495 13.2718 28.9495C12.8877 28.9495 12.6148 28.8585 12.443 28.6665C12.2711 28.4744 12.1701 28.1712 12.1499 27.7669H12.1195C11.8567 28.2217 11.5535 28.5351 11.2099 28.7271C10.846 28.8888 10.4215 28.9798 9.92619 28.9798ZM10.1587 28.2521C10.5326 28.2521 10.8662 28.1712 11.1593 28.0095C11.4524 27.8478 11.6849 27.6254 11.8567 27.3323C12.0286 27.0493 12.1094 26.7561 12.1094 26.4529V25.9678L10.9875 25.988C10.5023 25.9981 10.1385 26.0385 9.88576 26.1295C9.63307 26.2204 9.44103 26.3518 9.30964 26.5338C9.17824 26.7157 9.10748 26.9583 9.10748 27.2514C9.10748 27.5749 9.19845 27.8174 9.38039 27.9893C9.56232 28.1611 9.82512 28.2521 10.1587 28.2521Z" fill="#606060"/>
<path d="M17.2137 28.8285C16.8801 28.9195 16.5263 28.9599 16.1726 28.9599C15.3539 28.9599 14.9395 28.5152 14.9395 27.6258V23.6838H14.2319V22.9662H14.9799L15.2831 21.6421H15.9704V22.9662H17.1126V23.6838H15.9704V27.4135C15.9704 27.6965 16.021 27.8987 16.1119 28.0098C16.213 28.121 16.3747 28.1817 16.6173 28.1817C16.7588 28.1817 16.9509 28.1513 17.2137 28.1008V28.8285Z" fill="#606060"/>
<path d="M19.0837 22.9668V26.7167C19.0837 27.1109 19.1241 27.404 19.205 27.6264C19.2859 27.8386 19.4071 28.0004 19.5891 28.0913C19.7609 28.1823 20.0237 28.2328 20.3573 28.2328C20.8525 28.2328 21.2366 28.0711 21.5297 27.7477C21.8127 27.4242 21.9542 26.9694 21.9542 26.4034V22.9769H22.9852V27.6264C22.9852 28.3137 22.9953 28.7382 23.0155 28.8898H22.0452C22.0452 28.8696 22.0351 28.8191 22.0351 28.7382C22.0351 28.6573 22.025 28.5664 22.025 28.4653C22.0149 28.3642 22.0149 28.1621 22.0048 27.8791H21.9846C21.7521 28.2834 21.4792 28.5765 21.1659 28.7483C20.8525 28.9201 20.4684 29.001 20.0136 29.001C19.3364 29.001 18.8411 28.8393 18.5278 28.5158C18.2145 28.1924 18.0527 27.6567 18.0527 26.9188V22.987H19.0837V22.9668Z" fill="#606060"/>
<path d="M28.1696 28.8787V25.1288C28.1696 24.5527 28.0887 24.1585 27.927 23.9463C27.7653 23.7239 27.4722 23.6228 27.0476 23.6228C26.613 23.6228 26.2694 23.7845 26.0066 24.108C25.7539 24.4314 25.6225 24.8761 25.6225 25.4624V28.8888H24.6016V24.2394C24.6016 23.5521 24.5915 23.1275 24.5713 22.9759H25.5416C25.5416 22.9961 25.5517 23.0467 25.5517 23.1275C25.5517 23.2084 25.5618 23.2994 25.5618 23.4004C25.5618 23.5015 25.5719 23.7037 25.582 23.9867H25.6023C25.8246 23.5723 26.0773 23.2792 26.3603 23.1174C26.6433 22.9557 26.9971 22.8749 27.4014 22.8749C27.8663 22.8749 28.2403 22.9658 28.5132 23.1377C28.7861 23.3196 28.9782 23.6026 29.0792 23.9867H29.0995C29.3117 23.5925 29.5745 23.2994 29.8676 23.1275C30.1709 22.9557 30.5347 22.8647 30.9694 22.8647C31.596 22.8647 32.0408 23.0265 32.3238 23.3499C32.6068 23.6733 32.7483 24.2091 32.7483 24.9469V28.8787H31.7375V25.1288C31.7375 24.5527 31.6567 24.1585 31.495 23.9463C31.3332 23.7239 31.0401 23.6228 30.6156 23.6228C30.1709 23.6228 29.8171 23.7845 29.5745 24.0979C29.3218 24.4213 29.2005 24.866 29.2005 25.4523V28.8787H28.1696Z" fill="#606060"/>
<path d="M43.9989 26.7566C43.9989 27.4641 43.7057 28.02 43.1296 28.4041C42.5535 28.7983 41.7348 28.9904 40.6836 28.9904C38.7227 28.9904 37.5907 28.3435 37.2773 27.0396L38.3285 26.8375C38.4498 27.3024 38.7126 27.636 39.1068 27.8583C39.501 28.0706 40.0367 28.1818 40.724 28.1818C41.4315 28.1818 41.9672 28.0706 42.3513 27.8381C42.7354 27.6056 42.9275 27.2721 42.9275 26.8173C42.9275 26.5646 42.8668 26.3624 42.7455 26.2108C42.6242 26.0592 42.4625 25.9278 42.2401 25.8267C42.0178 25.7256 41.7651 25.6347 41.4619 25.574C41.1586 25.5033 40.8251 25.4325 40.4612 25.3517C39.8244 25.2203 39.3494 25.0788 39.0158 24.9474C38.6823 24.816 38.4296 24.6644 38.2376 24.4925C38.0455 24.3308 37.904 24.1286 37.8029 23.9063C37.7019 23.6839 37.6513 23.4312 37.6513 23.1381C37.6513 22.4811 37.9141 21.9757 38.4397 21.6119C38.9653 21.2581 39.7234 21.0762 40.7038 21.0762C41.6135 21.0762 42.3109 21.2076 42.7961 21.4805C43.2812 21.7433 43.6148 22.2082 43.8068 22.845L42.7354 23.0269C42.6141 22.6226 42.3918 22.3194 42.0582 22.1375C41.7247 21.9555 41.2698 21.8646 40.6836 21.8646C40.0367 21.8646 39.5515 21.9656 39.218 22.1678C38.8844 22.3699 38.7126 22.6732 38.7126 23.0775C38.7126 23.3099 38.7733 23.5121 38.9047 23.6637C39.0361 23.8153 39.2281 23.9467 39.4707 24.0579C39.7133 24.1691 40.2085 24.3005 40.9464 24.4521C41.189 24.5026 41.4416 24.5633 41.6842 24.6138C41.9268 24.6745 42.1593 24.7351 42.3918 24.816C42.6141 24.8968 42.8264 24.9878 43.0184 25.0889C43.2105 25.1899 43.3823 25.3213 43.5238 25.4729C43.6653 25.6246 43.7765 25.8065 43.8675 26.0087C43.9584 26.231 43.9989 26.4736 43.9989 26.7566Z" fill="#606060"/>
<path d="M46.3233 22.9668V26.7167C46.3233 27.1109 46.3637 27.404 46.4446 27.6264C46.5255 27.8386 46.6467 28.0004 46.8287 28.0913C47.0005 28.1823 47.2633 28.2328 47.5969 28.2328C48.0921 28.2328 48.4762 28.0711 48.7693 27.7477C49.0523 27.4242 49.1938 26.9694 49.1938 26.4034V22.9769H50.2147V27.6264C50.2147 28.3137 50.2248 28.7382 50.245 28.8898H49.2747C49.2747 28.8696 49.2646 28.8191 49.2646 28.7382C49.2646 28.6573 49.2545 28.5664 49.2545 28.4653C49.2444 28.3642 49.2444 28.1621 49.2343 27.8791H49.2141C48.9816 28.2834 48.7087 28.5765 48.3954 28.7483C48.082 28.9201 47.6979 29.001 47.2431 29.001C46.5659 29.001 46.0706 28.8393 45.7573 28.5158C45.4439 28.1924 45.2822 27.6567 45.2822 26.9188V22.987H46.3233V22.9668Z" fill="#606060"/>
<path d="M51.8418 28.8796V24.3514C51.8418 23.937 51.8317 23.4821 51.8115 22.9768H52.7818C52.8122 23.6439 52.8324 24.0482 52.8324 24.1796H52.8526C53.0143 23.6742 53.2064 23.3305 53.4186 23.1385C53.6309 22.9565 53.9341 22.8555 54.3182 22.8555C54.4597 22.8555 54.5911 22.8757 54.7326 22.906V23.8056C54.5911 23.7651 54.4092 23.755 54.1868 23.755C53.7623 23.755 53.4388 23.9269 53.2165 24.2806C52.9941 24.6344 52.8829 25.1398 52.8829 25.7867V28.8695H51.8418V28.8796Z" fill="#606060"/>
<path d="M56.4926 26.1295C56.4926 26.8067 56.6341 27.3323 56.9273 27.6961C57.2204 28.06 57.6449 28.2521 58.2109 28.2521C58.6557 28.2521 59.0094 28.1712 59.2823 27.9994C59.5451 27.8275 59.7271 27.6153 59.8281 27.3525L60.7277 27.5951C60.3638 28.525 59.5249 28.9899 58.2109 28.9899C57.3012 28.9899 56.6038 28.7271 56.1288 28.2116C55.6537 27.6962 55.4111 26.9179 55.4111 25.8869C55.4111 24.9166 55.6537 24.1585 56.1288 23.643C56.6038 23.1275 57.2911 22.8647 58.1705 22.8647C59.9797 22.8647 60.8894 23.9159 60.8894 26.0082V26.1396H56.4926V26.1295ZM59.8281 25.3714C59.7675 24.7447 59.6058 24.3 59.3329 24.0069C59.06 23.7138 58.6658 23.5824 58.1503 23.5824C57.655 23.5824 57.2608 23.7441 56.9677 24.0574C56.6746 24.3809 56.523 24.8155 56.4926 25.3714H59.8281Z" fill="#606060"/>
</svg>
