<svg width="474" height="351" viewBox="0 0 474 351" fill="none" xmlns="http://www.w3.org/2000/svg">
<path fill-rule="evenodd" clip-rule="evenodd" d="M251.91 222.982L268.386 303.915L260.108 345.734L224.935 345.25C224.935 345.25 207.45 265.043 208.459 262.419C209.469 259.795 229.377 220.923 229.377 220.923L251.91 222.982Z" fill="white"/>
<path fill-rule="evenodd" clip-rule="evenodd" d="M229.487 219.717C229.021 219.674 228.574 219.904 228.336 220.303L227.914 221.123L225.023 226.777L220.907 234.848L216.777 242.974C211.167 254.035 207.759 260.866 207.328 261.984C206.979 262.894 207.554 266.766 209.092 274.97L209.532 277.295C210.813 284.015 212.573 292.741 214.706 303.016L215.49 306.78C217.197 314.953 219.019 323.538 220.847 332.058L222.354 339.06L223.751 345.508C223.871 346.058 224.355 346.453 224.918 346.461L260.091 346.945C260.676 346.953 261.183 346.543 261.297 345.969L269.575 304.15C269.606 303.993 269.606 303.831 269.574 303.674L253.098 222.74C252.991 222.216 252.553 221.824 252.021 221.776L229.487 219.717ZM209.601 262.826L209.636 262.741C210.129 261.57 212.853 256.095 217.131 247.639L219.979 242.02L223.972 234.169L230.082 222.203L250.903 224.105L267.151 303.918L259.116 344.51L225.915 344.052L224.412 337.109C224.131 335.808 223.84 334.454 223.539 333.053L222.25 327.039C220.964 321.022 219.691 315.014 218.469 309.185L216.973 302.012C214.96 292.312 213.286 284.015 212.042 277.519L211.6 275.195C210.949 271.735 210.451 268.923 210.116 266.812L209.993 266.016C209.843 265.021 209.738 264.221 209.68 263.628L209.659 263.395C209.647 263.249 209.638 263.121 209.633 263.011L209.628 262.805C209.626 262.779 209.621 262.778 209.601 262.826Z" fill="#2E186A"/>
<path fill-rule="evenodd" clip-rule="evenodd" d="M96.6402 91.6305C9.6164 86.6251 -2.78096 138.899 0.449619 178.659C3.76097 219.348 14.4219 349.932 14.4219 349.932C13.8969 350.497 221.623 350.497 221.018 349.932C221.018 349.932 210.357 219.348 207.045 178.659C203.815 138.939 182.856 86.6251 96.6402 91.6305Z" fill="#00AC45"/>
<path fill-rule="evenodd" clip-rule="evenodd" d="M94.9522 91.0122C95.6153 90.9183 96.2295 91.376 96.3241 92.0345C96.4187 92.6931 95.9579 93.3031 95.2948 93.397C68.751 97.1577 51.1693 108.444 41.2919 125.888C33.2519 140.087 30.5944 157.851 32.2163 177.623L38.7739 257.24L46.2847 348.698C46.3391 349.361 45.842 349.942 45.1744 349.996C44.5068 350.05 43.9215 349.556 43.8671 348.893L29.7988 177.819C28.1409 157.608 30.8674 139.384 39.1777 124.707C49.4371 106.588 67.6835 94.8756 94.9522 91.0122Z" fill="#2E186A"/>
<path fill-rule="evenodd" clip-rule="evenodd" d="M245.258 350L229.866 276.786C229.866 276.786 238.673 265.857 237.986 250.426C237.946 249.422 237.865 248.377 237.703 247.332C237.784 247.131 256.286 241.144 257.336 238.934C256.65 226.397 246.348 193.005 228.25 185.25C222.433 182.557 208.374 178.579 205.547 177.615C192.175 173.074 164.018 165.761 139.537 170.583C139.537 170.583 102.169 176.65 93.8064 181.593C89.2414 184.285 66.6591 198.831 62.3366 239.095C62.2558 239.698 101.401 253.4 101.401 253.4L107.461 349.598" fill="#5D21D1"/>
<path fill-rule="evenodd" clip-rule="evenodd" d="M182.008 152.26V172.524L189.641 173.977C190.973 175.874 205.793 199.206 173.124 202.031C151.802 203.888 128.3 191.375 115.66 176.56L136.578 170.828L142.878 130.826L182.008 152.26Z" fill="white"/>
<path fill-rule="evenodd" clip-rule="evenodd" d="M141.681 130.638L135.503 169.867L115.34 175.393C114.484 175.627 114.163 176.672 114.739 177.347C128.678 193.684 152.83 205.015 173.23 203.238C188.164 201.946 195.061 196.284 195.344 187.696C195.445 184.652 194.686 181.464 193.331 178.289C192.448 176.222 191.392 174.364 190.632 173.282L190.581 173.213C190.401 172.993 190.149 172.841 189.868 172.788L183.22 171.522V152.261C183.22 151.818 182.979 151.411 182.591 151.199L143.46 129.764C142.725 129.361 141.812 129.81 141.681 130.638ZM143.807 132.715L180.798 152.977V172.524L180.8 172.596C180.832 173.146 181.235 173.609 181.782 173.714L188.919 175.072L188.942 175.108C189.582 176.098 190.402 177.597 191.103 179.239C192.33 182.115 193.01 184.973 192.923 187.616C192.816 190.861 191.56 193.608 188.906 195.787C185.685 198.432 180.474 200.18 173.02 200.825L172.432 200.872C153.768 202.251 131.764 192.251 118.244 177.644L117.852 177.216L136.899 171.997C137.359 171.871 137.702 171.487 137.776 171.017L143.807 132.715Z" fill="#2E186A"/>
<rect width="9.81242" height="17.2783" transform="matrix(-0.906945 0.42125 -0.421531 -0.906814 136.243 42.9316)" fill="#00AC45"/>
<path fill-rule="evenodd" clip-rule="evenodd" d="M117.801 34.5532C127.346 34.5532 135.084 26.8182 135.084 17.2766C135.084 7.735 127.346 0 117.801 0C108.255 0 100.517 7.735 100.517 17.2766C100.517 26.8182 108.255 34.5532 117.801 34.5532Z" fill="#2E186A"/>
<path fill-rule="evenodd" clip-rule="evenodd" d="M132.338 35.078C146.956 29.8708 162.988 27.247 177.93 32.5753C223.441 51.0629 227.156 83.719 210.559 99.0984C208.701 75.9283 204.259 67.2497 195.738 62.1636C188.55 76.2513 159.152 92.7609 133.428 93.7297C133.388 93.649 134.236 116.819 136.457 116.577C136.901 117.949 141.868 130.18 141.868 130.18L139.243 154.965L83.8389 147.537C80.3661 147.537 77.6201 144.187 78.347 140.877C82.9102 120.25 85.3735 52.4757 132.338 35.078Z" fill="#2E186A"/>
<path fill-rule="evenodd" clip-rule="evenodd" d="M141.787 123.277L138.395 124.044C138.395 124.044 118.568 126.91 117.639 108.463C116.952 94.4561 130.803 94.9405 137.547 95.99" fill="white"/>
<path fill-rule="evenodd" clip-rule="evenodd" d="M124.401 95.4395C128.206 94.0883 132.856 94.0346 137.734 94.7937C138.395 94.8966 138.847 95.5157 138.744 96.1766C138.642 96.8374 138.022 97.2897 137.361 97.1868C132.845 96.4841 128.558 96.5337 125.212 97.7217C120.847 99.2718 118.565 102.603 118.849 108.402C119.221 115.788 122.706 120.001 128.386 121.905C131.432 122.927 134.682 123.151 137.525 122.918L137.756 122.898L138.056 122.867C138.108 122.861 138.149 122.856 138.178 122.852L141.52 122.097C142.173 121.949 142.822 122.358 142.969 123.01C143.111 123.64 142.736 124.265 142.124 124.441L142.055 124.459L138.663 125.226C138.632 125.233 138.6 125.239 138.569 125.243L138.408 125.264C138.241 125.285 138.01 125.309 137.723 125.332C134.581 125.589 131.022 125.344 127.615 124.201C121.026 121.992 116.853 116.947 116.429 108.523C116.092 101.644 119.038 97.344 124.401 95.4395Z" fill="#2E186A"/>
<path fill-rule="evenodd" clip-rule="evenodd" d="M210.559 99.0578C208.701 75.8878 204.38 68.0568 195.86 62.9707C188.793 76.8162 162.746 92.9626 134.075 93.6488C133.509 96.8781 133.954 94.0121 133.873 97.5239C134.034 101.157 134.317 105.315 134.64 108.786C136.861 121.905 141.828 130.14 141.828 130.14C148.895 142.936 160.444 152.623 175.87 154.036C202.765 156.458 209.953 118.635 210.559 110.239C210.842 106.082 210.559 99.0578 210.559 99.0578Z" fill="white"/>
<path fill-rule="evenodd" clip-rule="evenodd" d="M194.78 62.4202C191.328 69.1839 183.141 76.5023 172.499 82.1758C160.874 88.3732 147.371 92.1191 134.046 92.438C133.468 92.4518 132.981 92.8712 132.881 93.4399L132.62 94.9281C132.564 95.2736 132.55 95.4534 132.598 95.6899L132.646 95.8946C132.65 95.9175 132.645 95.9117 132.651 95.9848L132.661 96.1635C132.674 96.4542 132.676 96.8882 132.662 97.4959L132.662 97.5775C132.825 101.239 133.11 105.415 133.434 108.898C133.436 108.928 133.44 108.958 133.445 108.988C134.424 114.77 135.988 120.051 137.9 124.729C138.53 126.272 139.159 127.65 139.764 128.854L139.962 129.245L140.158 129.623C140.408 130.099 140.61 130.461 140.754 130.704L140.782 130.75L140.767 130.725C148.567 144.847 160.821 153.874 175.76 155.242C188.296 156.371 197.68 149.359 204.151 136.747C208.526 128.22 211.26 117.347 211.767 110.326L211.792 109.924C211.895 108.141 211.917 105.833 211.878 103.216L211.861 102.228C211.854 101.902 211.847 101.579 211.839 101.261L211.785 99.4501L211.769 99.0095L211.766 98.9609C209.986 76.7568 206.035 67.6341 196.481 61.9308C195.879 61.5717 195.099 61.7962 194.78 62.4202ZM196.307 64.6814L196.512 64.8182C204.256 70.0471 207.642 78.5462 209.299 98.5134L209.349 99.1321L209.373 99.8007C209.379 99.979 209.385 100.178 209.392 100.397L209.417 101.322C209.433 101.949 209.446 102.596 209.456 103.252L209.463 103.837C209.492 106.348 209.46 108.537 209.35 110.157C208.866 116.867 206.21 127.426 201.995 135.642C195.93 147.463 187.373 153.856 175.979 152.83C162.039 151.553 150.554 143.183 143.113 129.957L142.867 129.517L142.748 129.311C142.716 129.255 142.68 129.191 142.64 129.119C142.466 128.805 142.268 128.435 142.052 128.01C141.439 126.806 140.793 125.402 140.143 123.813L139.971 123.388C138.259 119.115 136.847 114.327 135.925 109.107L135.842 108.631L135.793 108.094C135.513 104.968 135.266 101.346 135.111 98.0785L135.085 97.5073L135.094 97.0354C135.105 96.2157 135.085 95.8136 135.028 95.4777L135.005 95.3571L135.096 94.8291L135.476 94.8149C148.742 94.2718 162.088 90.4709 173.639 84.313C184.02 78.7787 192.197 71.6941 196.22 64.8319L196.307 64.6814Z" fill="#2E186A"/>
<path fill-rule="evenodd" clip-rule="evenodd" d="M189.959 88.2176C190.595 88.1078 191.201 88.5148 191.345 89.1349L191.359 89.2047L196.649 119.802C196.773 120.518 196.243 121.175 195.528 121.217L195.456 121.219H187.702C187.033 121.219 186.491 120.677 186.491 120.008C186.491 119.363 186.995 118.836 187.631 118.799L187.702 118.797H194.016L188.972 89.6171C188.862 88.9816 189.269 88.3763 189.889 88.2317L189.959 88.2176Z" fill="#2E186A"/>
<path fill-rule="evenodd" clip-rule="evenodd" d="M169.012 87.1864C172.018 84.8312 175.367 84.1306 178.632 86.2567C179.192 86.6218 179.351 87.372 178.985 87.9324C178.62 88.4928 177.87 88.6511 177.309 88.286C175.073 86.8295 172.784 87.3083 170.507 89.0925C170.023 89.4718 169.584 89.8802 169.2 90.2875C169.094 90.4005 168.999 90.5063 168.915 90.6031L168.752 90.7979C168.342 91.3268 167.581 91.4236 167.052 91.0141C166.523 90.6047 166.427 89.8441 166.836 89.3153L166.963 89.1575C167.08 89.0172 167.239 88.8371 167.436 88.6274C167.899 88.1361 168.426 87.6458 169.012 87.1864Z" fill="#2E186A"/>
<path fill-rule="evenodd" clip-rule="evenodd" d="M174.098 128.593C174.73 128.372 175.421 128.706 175.641 129.337C176.285 131.18 177.565 132.198 179.391 132.614C180.616 132.894 181.963 132.874 183.236 132.667L183.472 132.626C183.548 132.612 183.619 132.598 183.687 132.584L183.878 132.542L183.956 132.522C184.602 132.349 185.267 132.732 185.44 133.378C185.613 134.024 185.23 134.688 184.584 134.862L184.464 134.892C184.265 134.94 183.981 134.999 183.625 135.057C182.07 135.31 180.426 135.335 178.851 134.976C176.258 134.384 174.291 132.821 173.354 130.135C173.133 129.504 173.467 128.813 174.098 128.593Z" fill="#2E186A"/>
<path fill-rule="evenodd" clip-rule="evenodd" d="M200.565 87.2117C202.378 86.4927 204.239 86.1547 206.032 86.4278C207.94 86.7184 209.594 87.694 210.852 89.4255C211.246 89.9666 211.126 90.7239 210.584 91.117C210.043 91.5101 209.285 91.3902 208.892 90.8491C208.021 89.6512 206.946 89.017 205.667 88.8221C204.364 88.6237 202.907 88.8885 201.458 89.463C201.062 89.6201 200.699 89.7882 200.377 89.9552L200.194 90.0532C200.106 90.101 200.044 90.1373 200.009 90.1589C199.439 90.51 198.693 90.3331 198.342 89.7639C197.99 89.1946 198.167 88.4486 198.737 88.0975C199.114 87.8652 199.745 87.5369 200.565 87.2117Z" fill="#2E186A"/>
<path fill-rule="evenodd" clip-rule="evenodd" d="M179.452 105.124C179.528 102.918 178.434 101.09 177.007 101.041C175.581 100.991 174.363 102.739 174.286 104.945C174.21 107.151 175.304 108.979 176.731 109.028C178.157 109.078 179.376 107.329 179.452 105.124Z" fill="#2E186A"/>
<path fill-rule="evenodd" clip-rule="evenodd" d="M206.78 105.881C206.856 103.675 205.761 101.847 204.335 101.798C202.908 101.749 201.69 103.497 201.614 105.702C201.537 107.908 202.632 109.736 204.058 109.786C205.485 109.835 206.703 108.087 206.78 105.881Z" fill="#2E186A"/>
<path fill-rule="evenodd" clip-rule="evenodd" d="M152.423 97.1509C152.043 109.635 159.507 120.103 169.288 120.401C179.068 120.699 187.157 110.705 187.538 98.221C187.919 85.7371 180.454 75.2691 170.673 74.9711C160.893 74.673 152.804 84.6669 152.423 97.1509ZM154.845 97.2249C155.189 85.9557 162.325 77.1398 170.6 77.392C178.876 77.6441 185.46 86.8779 185.116 98.1472C184.773 109.416 177.637 118.232 169.362 117.98C161.086 117.728 154.502 108.494 154.845 97.2249Z" fill="#00AC45"/>
<path fill-rule="evenodd" clip-rule="evenodd" d="M195.771 99.9892C195.39 112.473 202.855 122.941 212.635 123.239C222.416 123.537 230.505 113.543 230.885 101.059C231.266 88.5755 223.801 78.1075 214.021 77.8094C204.241 77.5114 196.152 87.5053 195.771 99.9892ZM198.193 100.064C198.537 88.7944 205.672 79.9786 213.948 80.2307C222.223 80.4828 228.808 89.7167 228.464 100.986C228.12 112.255 220.985 121.071 212.709 120.819C204.434 120.567 197.849 111.333 198.193 100.064Z" fill="#00AC45"/>
<path fill-rule="evenodd" clip-rule="evenodd" d="M196.546 95.6675C197.215 95.6675 197.758 96.2097 197.758 96.8785C197.758 97.5234 197.253 98.0505 196.617 98.0874L196.546 98.0894H186.289C185.62 98.0894 185.078 97.5473 185.078 96.8785C185.078 96.2335 185.582 95.7064 186.218 95.6695L186.289 95.6675H196.546Z" fill="#00AC45"/>
<path fill-rule="evenodd" clip-rule="evenodd" d="M153.734 92.2027C154.399 92.1318 154.996 92.6135 155.067 93.2785C155.135 93.9198 154.69 94.4974 154.061 94.6014L153.991 94.611L132.023 96.9522C131.357 97.0231 130.76 96.5415 130.69 95.8765C130.621 95.2352 131.067 94.6575 131.695 94.5535L131.766 94.5439L153.734 92.2027Z" fill="#00AC45"/>
<path fill-rule="evenodd" clip-rule="evenodd" d="M201.998 292.774C201.998 292.774 219.281 293.056 230.669 299.515C237.453 303.35 246.297 308.678 246.741 310.979C247.589 315.338 236.888 311.019 235.151 310.454" fill="white"/>
<path fill-rule="evenodd" clip-rule="evenodd" d="M202.017 291.563L202.471 291.576L202.964 291.595C203.139 291.603 203.324 291.612 203.518 291.622L203.716 291.632C205.049 291.706 206.534 291.823 208.132 291.993C212.701 292.48 217.272 293.297 221.551 294.525C225.194 295.57 228.464 296.872 231.265 298.461L232.188 298.985C242.005 304.571 247.46 308.311 247.93 310.748C248.302 312.657 247.188 313.864 245.306 314.078C244.089 314.217 242.498 313.988 240.547 313.48C239.92 313.317 239.267 313.127 238.584 312.913L238.019 312.731C237.288 312.49 236.183 312.104 235.471 311.853L234.776 311.606C234.14 311.399 233.792 310.715 233.999 310.079C234.199 309.466 234.842 309.121 235.458 309.283L235.535 309.306C235.699 309.365 237.972 310.173 238.983 310.498C239.75 310.745 240.474 310.958 241.157 311.136C242.779 311.559 244.087 311.753 244.936 311.681L245.162 311.656C245.619 311.601 245.621 311.565 245.551 311.208C245.289 309.848 239.057 305.648 230.071 300.568C227.449 299.081 224.354 297.849 220.882 296.852C216.752 295.667 212.315 294.874 207.875 294.401C206.449 294.249 205.118 294.141 203.909 294.069L203.582 294.051C203.196 294.029 202.847 294.013 202.538 294.002L201.978 293.985C201.309 293.974 200.775 293.423 200.786 292.754C200.797 292.085 201.348 291.552 202.017 291.563Z" fill="#2E186A"/>
<path fill-rule="evenodd" clip-rule="evenodd" d="M216.01 263.347L210.68 265.527L235.959 326.681L240.118 331.081C240.441 331.445 241.047 331.202 241.088 330.718L241.289 324.502L216.01 263.347Z" fill="#00AC45"/>
<path fill-rule="evenodd" clip-rule="evenodd" d="M244.883 319.093C244.439 317.115 227.721 300.121 221.583 297.134C217.625 295.236 208.62 291.321 200.463 291.321C200.342 291.321 200.261 291.281 200.14 291.281C170.419 288.495 112.349 280.745 112.349 280.745L116.629 242.761C116.629 242.761 64.6169 227.099 64.6573 227.18C60.6595 256.485 61.4671 289.06 64.9804 300.767C67.0802 307.871 74.9144 314.087 82.1832 315.419C142.797 326.52 208.136 319.295 208.136 319.295C208.418 319.335 222.108 323.412 222.108 323.412C230.507 327.166 230.184 323.21 227.6 320.102C228.004 320.506 228.367 320.869 228.69 321.313C231.598 323.977 236.161 322.927 236.888 321.918C237.615 320.909 234.384 318.003 230.144 313.401L230.669 313.764C237.695 321.918 246.055 324.3 244.883 319.093Z" fill="white"/>
<path fill-rule="evenodd" clip-rule="evenodd" d="M64.5171 225.976L64.434 225.984C64.3207 226 64.2567 226.036 63.8939 226.239L63.8274 226.297L63.6933 226.446L63.5728 226.64L63.4867 226.868L63.4626 227.016L63.4572 227.015C59.6517 254.911 60.0085 288.414 63.8202 301.114C65.9918 308.461 74.0218 315.155 81.965 316.61C85.9993 317.349 90.1183 318.019 94.3168 318.621C112.445 321.223 131.693 322.534 151.461 322.776C166.235 322.956 180.357 322.534 193.266 321.713L195.088 321.594C198.591 321.359 201.748 321.111 204.524 320.861L206.014 320.724C206.401 320.687 206.763 320.652 207.102 320.618L208.06 320.52L214.832 322.514L221.687 324.549L221.988 324.682C226.121 326.474 228.785 326.683 229.96 325.032L230.016 324.949C230.251 324.59 230.382 324.19 230.422 323.761L230.424 323.728L230.462 323.742C231.466 324.092 232.548 324.241 233.649 324.203C235.488 324.139 237.209 323.545 237.871 322.626L237.925 322.548C238.112 322.261 238.202 321.961 238.212 321.65L238.212 321.595L238.372 321.679C239.09 322.052 239.789 322.356 240.459 322.585C244.186 323.858 246.88 322.447 246.066 318.827C245.422 315.96 227.809 298.816 222.113 296.045L221.753 295.872C214.654 292.507 207.422 290.188 200.799 290.112L200.523 290.11L200.539 290.113C200.48 290.101 200.447 290.095 200.396 290.088L200.315 290.079L200.23 290.073L197.788 289.839C189.166 288.997 178.015 287.75 164.934 286.183L160.807 285.686C159.763 285.559 158.71 285.431 157.649 285.301C148.923 284.236 139.938 283.106 131.065 281.966L122.519 280.86L113.686 279.7L117.833 242.896C117.896 242.339 117.569 241.815 117.048 241.624L116.398 241.426L77.8049 229.826L65.8393 226.256L65.0785 226.036L64.9191 225.996L64.8549 225.984L64.7518 225.97C64.7139 225.967 64.6717 225.969 64.5171 225.976ZM243.703 319.369L243.702 319.358C243.876 320.134 243.785 320.425 243.583 320.531C243.214 320.724 242.377 320.681 241.242 320.293C238.397 319.321 234.742 316.635 231.587 312.974C231.52 312.896 231.443 312.827 231.359 312.769L230.834 312.405C229.645 311.583 228.273 313.158 229.253 314.221L229.678 314.678C230.901 315.981 233.83 319.075 234.466 319.803L234.572 319.925C235.055 320.485 235.393 320.924 235.596 321.256L235.648 321.344L235.6 321.367C235.514 321.406 235.418 321.443 235.314 321.479C234.821 321.649 234.207 321.76 233.565 321.783L233.405 321.787C231.972 321.805 230.632 321.389 229.62 320.519L229.589 320.491L229.565 320.459C229.287 320.092 229.016 319.805 228.457 319.246C227.366 318.155 225.682 319.69 226.668 320.876C227.237 321.56 227.663 322.267 227.87 322.858C228.028 323.309 228.026 323.572 227.986 323.628L227.978 323.634C227.965 323.641 227.935 323.654 227.872 323.673C227.682 323.73 227.387 323.749 226.991 323.71C225.971 323.611 224.5 323.154 222.602 322.306L222.529 322.276L221.859 322.074L210.713 318.773C209.158 318.318 208.437 318.114 208.307 318.096C208.231 318.085 208.155 318.081 208.079 318.085L207.914 318.1L207.06 318.189L205.785 318.313C205.326 318.357 204.833 318.402 204.307 318.45L203.158 318.551C200.426 318.787 197.352 319.021 193.967 319.242C180.885 320.094 166.526 320.538 151.49 320.354C131.821 320.114 112.677 318.81 94.661 316.224C90.4929 315.626 86.4047 314.961 82.4017 314.228C75.3249 312.931 68.046 306.864 66.1423 300.423L66.0325 300.048C62.5143 287.707 62.1464 255.967 65.637 229.004L65.6726 228.732L75.6338 231.704L94.4443 237.351L115.312 243.629L111.145 280.609C111.074 281.241 111.503 281.816 112.119 281.934L112.772 282.023L121.184 283.129C122.702 283.327 124.285 283.533 125.928 283.746C136.356 285.096 147.036 286.446 157.355 287.706L162.593 288.341L166.832 288.849C180.06 290.423 191.217 291.656 199.681 292.454L200.072 292.49L200.064 292.488C200.214 292.518 200.31 292.532 200.463 292.532C206.832 292.532 214.034 294.858 221.059 298.226C223.644 299.483 228.74 303.746 234.321 309.163L234.523 309.359C236.873 311.646 239.107 313.947 240.822 315.84L241.313 316.386C242.032 317.195 242.621 317.893 243.049 318.446L243.199 318.642C243.341 318.83 243.458 318.995 243.55 319.134L243.593 319.201C243.666 319.316 243.704 319.39 243.703 319.369Z" fill="#2E186A"/>
<path fill-rule="evenodd" clip-rule="evenodd" d="M214.354 312.075C216.749 312.315 224.07 315.36 227.175 318.01C227.312 318.127 227.417 318.268 227.488 318.422L227.508 318.468L227.523 318.481C228.305 319.118 228.976 319.776 229.524 320.454L229.648 320.612C230.058 321.14 229.961 321.901 229.433 322.31C228.904 322.72 228.143 322.624 227.733 322.095C226.532 320.546 224.376 319.007 221.552 317.56C219.876 316.703 218.074 315.931 216.271 315.261C215.639 315.026 215.053 314.821 214.528 314.646L214.045 314.49L213.883 314.439C212.48 314.016 212.895 311.929 214.354 312.075Z" fill="#2E186A"/>
<path fill-rule="evenodd" clip-rule="evenodd" d="M217.616 306.791C217.767 306.139 218.418 305.733 219.07 305.884L219.235 305.924C219.345 305.952 219.484 305.989 219.65 306.036L219.753 306.065C220.274 306.214 220.853 306.398 221.474 306.621C223.249 307.257 225.024 308.073 226.689 309.092C228.323 310.092 229.764 311.238 230.958 312.544C231.409 313.038 231.374 313.804 230.881 314.255C230.387 314.706 229.62 314.671 229.169 314.178C228.14 313.052 226.874 312.046 225.424 311.158C223.913 310.233 222.285 309.484 220.657 308.901C220.158 308.723 219.692 308.571 219.267 308.446L219.088 308.394C218.957 308.357 218.839 308.324 218.735 308.297L218.524 308.244C217.872 308.093 217.466 307.443 217.616 306.791Z" fill="#2E186A"/>
<path fill-rule="evenodd" clip-rule="evenodd" d="M290.475 336.127H151.278C148.814 336.127 146.835 334.149 146.835 331.687V328.457C146.835 325.995 148.814 324.017 151.278 324.017H290.475C292.939 324.017 294.917 325.995 294.917 328.457V331.687C294.917 334.149 292.898 336.127 290.475 336.127Z" fill="#00AC45"/>
<path fill-rule="evenodd" clip-rule="evenodd" d="M468.682 206.472H285.387C282.964 206.472 280.905 208.289 280.339 210.872L253.808 334.109H139.526C139.526 334.109 136.376 350.377 154.75 350.377C173.124 350.377 294.352 350.377 294.352 350.377L294.271 350.175H440.172C442.595 350.175 444.655 348.358 445.22 345.775L473.69 213.455C474.497 209.903 472.034 206.472 468.682 206.472Z" fill="#A1F7C4"/>
<path fill-rule="evenodd" clip-rule="evenodd" d="M375.157 276.224C375.157 273.52 377.176 270.936 379.68 270.492C382.183 270.048 384.243 271.865 384.243 274.569C384.243 276.103 383.597 277.556 382.587 278.646C383.395 278.929 384.202 279.251 384.889 279.736C389.573 282.804 389.694 289.262 385.131 294.106C380.568 298.95 373.057 300.403 368.373 297.335C363.688 294.268 363.567 287.809 368.13 282.965C370.23 280.705 372.976 279.211 375.763 278.525C375.399 277.879 375.157 277.112 375.157 276.224Z" fill="white"/>
<path fill-rule="evenodd" clip-rule="evenodd" d="M371.684 263.63C371.684 263.63 378.912 261.894 379.357 268.111C379.397 268.151 373.622 270.452 371.684 263.63Z" fill="white"/>
<path fill-rule="evenodd" clip-rule="evenodd" d="M380.568 273.278C380.447 273.278 380.325 273.278 380.204 273.237C379.558 273.035 379.195 272.39 379.397 271.744C379.599 271.098 381.375 265.285 383.031 263.307C383.475 262.782 384.242 262.742 384.727 263.186C385.252 263.63 385.292 264.397 384.848 264.881C383.718 266.254 382.183 270.815 381.698 272.43C381.577 272.914 381.093 273.278 380.568 273.278Z" fill="white"/>
<path fill-rule="evenodd" clip-rule="evenodd" d="M189.56 332.252H184.027C182.291 332.252 180.918 330.879 180.918 329.143C180.918 327.408 182.291 326.035 184.027 326.035H189.56C191.296 326.035 192.669 327.408 192.669 329.143C192.669 330.879 191.256 332.252 189.56 332.252Z" fill="#A1F7C4"/>
<path fill-rule="evenodd" clip-rule="evenodd" d="M189.56 347.146H184.027C182.291 347.146 180.918 345.774 180.918 344.038C180.918 342.303 182.291 340.93 184.027 340.93H189.56C191.296 340.93 192.669 342.303 192.669 344.038C192.669 345.774 191.256 347.146 189.56 347.146Z" fill="#00AC45"/>
<path fill-rule="evenodd" clip-rule="evenodd" d="M178.767 328.114C180.768 327.725 182.864 327.68 184.829 327.843L185.138 327.871C185.59 327.914 185.925 327.957 186.117 327.988C186.778 328.094 187.227 328.715 187.122 329.375C187.02 330.012 186.438 330.453 185.804 330.389L185.53 330.351C185.351 330.328 185.143 330.304 184.909 330.282C183.067 330.107 181.073 330.132 179.229 330.491C175.55 331.206 173.438 333.025 173.291 336.377L173.286 336.53L173.285 336.742C173.374 340.222 175.494 342.085 179.229 342.812C181.073 343.17 183.067 343.196 184.909 343.021L185.177 342.994C185.262 342.985 185.343 342.975 185.419 342.966L185.66 342.934C185.694 342.929 185.718 342.926 185.734 342.923C186.394 342.817 187.016 343.267 187.122 343.927C187.227 344.588 186.778 345.209 186.117 345.315L185.878 345.349C185.712 345.371 185.501 345.396 185.249 345.421L185.138 345.432C183.085 345.627 180.873 345.599 178.767 345.189C174.082 344.278 171.055 341.655 170.868 336.938L170.863 336.772L170.863 336.499C170.985 331.709 174.028 329.035 178.767 328.114Z" fill="#2E186A"/>
<path fill-rule="evenodd" clip-rule="evenodd" d="M302.118 206C302.791 206 303.336 206.533 303.336 207.19C303.336 207.824 302.829 208.342 302.19 208.378L302.118 208.38C300.322 208.38 298.749 209.695 298.262 211.648L298.234 211.766L269.898 339.617C269.208 342.771 271.515 347.512 273.707 347.618L273.781 347.62C274.454 347.62 274.999 348.153 274.999 348.81C274.999 349.467 274.454 350 273.781 350C269.727 350 266.6 343.725 267.488 339.252L267.516 339.117L295.854 211.26C296.543 208.184 299.097 206 302.118 206Z" fill="#2E186A"/>
<rect width="32.2245" height="31.6465" transform="matrix(0.997815 0.0660638 -0.0661171 0.997812 323.897 99.0273)" fill="white"/>
<path fill-rule="evenodd" clip-rule="evenodd" d="M356.131 99.9481L323.977 97.8198C323.31 97.7756 322.733 98.2807 322.688 98.9481L320.596 130.526C320.551 131.194 321.057 131.77 321.724 131.815L353.878 133.943C354.545 133.987 355.122 133.482 355.166 132.815L357.259 101.236C357.304 100.569 356.798 99.9923 356.131 99.9481ZM354.762 102.284L352.829 131.445L323.093 129.477L325.026 100.316L354.762 102.284Z" fill="#2E186A"/>
<path fill-rule="evenodd" clip-rule="evenodd" d="M350.717 117.35L343.222 116.854C342.555 116.81 341.978 117.315 341.934 117.982L341.437 125.474C341.393 126.141 341.898 126.718 342.566 126.762L350.06 127.259C350.728 127.303 351.305 126.798 351.349 126.13L351.846 118.639C351.89 117.971 351.384 117.394 350.717 117.35ZM349.348 119.686L349.012 124.761L343.935 124.425L344.271 119.35L349.348 119.686Z" fill="#2E186A"/>
<path fill-rule="evenodd" clip-rule="evenodd" d="M349.845 117.685C350.348 117.244 351.114 117.293 351.555 117.796C351.98 118.279 351.95 119.005 351.5 119.452L351.444 119.505L343.489 126.488C342.986 126.929 342.221 126.88 341.779 126.377C341.355 125.894 341.384 125.168 341.834 124.72L341.89 124.668L349.845 117.685Z" fill="#2E186A"/>
<path fill-rule="evenodd" clip-rule="evenodd" d="M351.493 104.809L327.761 103.238C327.093 103.194 326.516 103.699 326.472 104.366L325.997 111.536C325.952 112.203 326.458 112.78 327.125 112.824L350.858 114.396C351.526 114.44 352.103 113.935 352.147 113.267L352.622 106.097C352.666 105.43 352.161 104.853 351.493 104.809ZM350.125 107.145L349.81 111.898L328.494 110.487L328.809 105.734L350.125 107.145Z" fill="#2E186A"/>
<path fill-rule="evenodd" clip-rule="evenodd" d="M326.381 123.52L326.452 123.522L338.526 124.289C339.194 124.331 339.701 124.907 339.658 125.574C339.618 126.218 339.081 126.712 338.444 126.709L338.373 126.706L326.298 125.939C325.631 125.897 325.124 125.321 325.166 124.654C325.207 124.01 325.744 123.516 326.381 123.52Z" fill="#2E186A"/>
<path fill-rule="evenodd" clip-rule="evenodd" d="M326.698 119.769L338.772 120.576C339.44 120.621 339.945 121.198 339.9 121.865C339.857 122.509 339.319 123.001 338.682 122.995L338.611 122.993L326.536 122.185C325.869 122.141 325.364 121.564 325.409 120.896C325.452 120.253 325.99 119.76 326.627 119.766L326.698 119.769Z" fill="#2E186A"/>
<path fill-rule="evenodd" clip-rule="evenodd" d="M326.94 116.014L339.015 116.822C339.682 116.866 340.187 117.444 340.143 118.111C340.1 118.754 339.561 119.247 338.924 119.241L338.853 119.238L326.779 118.431C326.111 118.386 325.606 117.809 325.651 117.142C325.694 116.498 326.232 116.006 326.869 116.012L326.94 116.014Z" fill="#2E186A"/>
<path fill-rule="evenodd" clip-rule="evenodd" d="M351.181 104.821C351.833 104.671 352.483 105.078 352.633 105.73C352.778 106.358 352.404 106.985 351.793 107.163L351.724 107.181L327.495 112.752C326.842 112.902 326.192 112.495 326.042 111.843C325.898 111.215 326.271 110.588 326.883 110.41L326.951 110.392L351.181 104.821Z" fill="#2E186A"/>
<path fill-rule="evenodd" clip-rule="evenodd" d="M363.344 65.1392L363.111 65.797C361.803 69.8171 363.975 74.1297 367.958 75.4248L395.212 84.3849C399.199 85.6813 403.472 83.5236 404.815 79.5446L405.052 78.8744C406.36 74.8543 404.188 70.5416 400.205 69.2465L372.947 60.2853C368.954 58.9868 364.64 61.158 363.344 65.1392ZM372.198 62.5883L399.452 71.5483C402.162 72.4293 403.644 75.3723 402.757 78.0965L402.525 78.7543C401.6 81.4939 398.684 82.9666 395.965 82.0827L368.711 73.1227C366.002 72.2417 364.52 69.2987 365.406 66.5745L365.639 65.9167C366.529 63.1837 369.473 61.7021 372.198 62.5883Z" fill="#2E186A"/>
<path fill-rule="evenodd" clip-rule="evenodd" d="M396.802 86.6654C402.579 86.6654 407.261 81.9846 407.261 76.2106C407.261 70.4366 402.579 65.7559 396.802 65.7559C391.026 65.7559 386.343 70.4366 386.343 76.2106C386.343 81.9846 391.026 86.6654 396.802 86.6654Z" fill="#5D21D1"/>
<rect width="63.9445" height="63.9629" transform="matrix(0.380625 0.924729 -0.924838 0.380361 428.827 104.673)" fill="#00AC45"/>
<path fill-rule="evenodd" clip-rule="evenodd" d="M415.953 188.405C416.389 187.898 417.154 187.841 417.662 188.277C418.149 188.696 418.222 189.419 417.839 189.925L417.791 189.984L415.812 192.285C415.392 192.773 414.669 192.845 414.163 192.462L414.103 192.414L411.802 190.436C411.294 190 411.237 189.236 411.673 188.728C412.092 188.241 412.815 188.169 413.321 188.551L413.381 188.6L414.764 189.788L415.953 188.405Z" fill="#2E186A"/>
<path fill-rule="evenodd" clip-rule="evenodd" d="M408.494 184.401L403.609 180.212C403.101 179.777 402.336 179.835 401.9 180.343C401.465 180.851 401.523 181.615 402.031 182.051L406.916 186.239C407.424 186.674 408.189 186.616 408.624 186.108C409.06 185.601 409.001 184.836 408.494 184.401ZM398.724 176.024L393.839 171.835C393.332 171.4 392.567 171.459 392.131 171.966C391.695 172.474 391.754 173.238 392.262 173.674L397.147 177.862C397.655 178.298 398.419 178.239 398.855 177.731C399.291 177.224 399.232 176.459 398.724 176.024ZM388.954 167.647L384.07 163.459C383.562 163.023 382.797 163.082 382.361 163.59C381.926 164.097 381.984 164.862 382.492 165.297L387.377 169.486C387.885 169.921 388.65 169.862 389.085 169.355C389.521 168.847 389.462 168.083 388.954 167.647ZM379.185 159.27L374.3 155.082C373.792 154.646 373.027 154.705 372.592 155.213C372.156 155.72 372.215 156.485 372.723 156.92L377.607 161.109C378.115 161.544 378.88 161.485 379.316 160.978C379.751 160.47 379.693 159.706 379.185 159.27Z" fill="#2E186A"/>
<path fill-rule="evenodd" clip-rule="evenodd" d="M367.38 146.78C367.821 146.277 368.586 146.226 369.09 146.666C369.574 147.09 369.639 147.813 369.252 148.316L369.203 148.375L368.029 149.716L369.405 150.898C369.892 151.317 369.965 152.04 369.582 152.546L369.534 152.606C369.114 153.093 368.391 153.165 367.885 152.783L367.825 152.734L365.523 150.756C365.032 150.335 364.963 149.606 365.352 149.1L365.401 149.041L367.38 146.78Z" fill="#2E186A"/>
<path fill-rule="evenodd" clip-rule="evenodd" d="M373.411 143.482L377.599 138.596C378.034 138.089 377.975 137.324 377.467 136.889C376.959 136.454 376.194 136.513 375.759 137.021L371.571 141.906C371.136 142.414 371.195 143.178 371.703 143.613C372.211 144.048 372.976 143.989 373.411 143.482ZM381.786 133.711L385.973 128.826C386.409 128.318 386.35 127.554 385.842 127.119C385.334 126.683 384.569 126.742 384.134 127.25L379.946 132.135C379.511 132.643 379.57 133.408 380.078 133.843C380.586 134.278 381.351 134.219 381.786 133.711ZM390.161 123.941L394.348 119.056C394.784 118.548 394.725 117.783 394.217 117.348C393.708 116.913 392.944 116.972 392.508 117.48L388.321 122.365C387.886 122.873 387.945 123.637 388.453 124.073C388.961 124.508 389.726 124.449 390.161 123.941ZM398.536 114.171L402.723 109.286C403.158 108.778 403.099 108.013 402.591 107.578C402.083 107.143 401.318 107.202 400.883 107.71L396.696 112.595C396.26 113.103 396.319 113.867 396.827 114.302C397.336 114.737 398.1 114.679 398.536 114.171Z" fill="#2E186A"/>
<path fill-rule="evenodd" clip-rule="evenodd" d="M407.069 100.529C407.488 100.041 408.212 99.9692 408.718 100.352L408.777 100.4L411.079 102.378C411.587 102.814 411.644 103.579 411.208 104.086C410.789 104.573 410.065 104.646 409.559 104.263L409.5 104.215L408.116 103.025L406.928 104.409C406.508 104.896 405.785 104.968 405.279 104.586L405.219 104.538C404.731 104.118 404.659 103.395 405.042 102.889L405.09 102.83L407.069 100.529Z" fill="#2E186A"/>
<path fill-rule="evenodd" clip-rule="evenodd" d="M414.387 108.372L419.269 112.564C419.776 113 420.541 112.942 420.977 112.434C421.413 111.927 421.355 111.162 420.847 110.726L415.965 106.535C415.458 106.099 414.693 106.157 414.257 106.665C413.821 107.172 413.879 107.937 414.387 108.372ZM424.151 116.756L429.033 120.947C429.54 121.383 430.305 121.325 430.741 120.817C431.177 120.31 431.119 119.545 430.612 119.11L425.729 114.918C425.222 114.482 424.457 114.54 424.021 115.048C423.585 115.555 423.643 116.32 424.151 116.756ZM433.915 125.138L438.797 129.33C439.305 129.766 440.07 129.708 440.506 129.2C440.942 128.693 440.884 127.928 440.376 127.493L435.494 123.301C434.986 122.865 434.221 122.923 433.785 123.431C433.35 123.938 433.408 124.703 433.915 125.138ZM443.679 133.521L448.561 137.713C449.069 138.149 449.834 138.091 450.27 137.583C450.706 137.076 450.648 136.311 450.14 135.876L445.258 131.684C444.75 131.248 443.986 131.306 443.55 131.814C443.114 132.321 443.172 133.086 443.679 133.521Z" fill="#2E186A"/>
<path fill-rule="evenodd" clip-rule="evenodd" d="M453.306 140.168C453.726 139.681 454.449 139.608 454.955 139.991L455.015 140.039L457.317 142.017C457.801 142.433 457.876 143.15 457.501 143.656L457.454 143.716L455.515 146.016C455.084 146.528 454.32 146.593 453.808 146.163C453.316 145.748 453.237 145.026 453.614 144.516L453.662 144.456L454.828 143.072L453.435 141.876C452.948 141.457 452.875 140.734 453.258 140.228L453.306 140.168Z" fill="#2E186A"/>
<path fill-rule="evenodd" clip-rule="evenodd" d="M449.47 149.332L445.28 154.215C444.844 154.723 444.902 155.487 445.41 155.923C445.918 156.358 446.683 156.3 447.119 155.792L451.309 150.909C451.744 150.401 451.686 149.637 451.178 149.202C450.67 148.766 449.905 148.825 449.47 149.332ZM441.09 159.098L436.9 163.981C436.464 164.488 436.522 165.253 437.03 165.688C437.538 166.124 438.303 166.065 438.739 165.558L442.929 160.675C443.364 160.167 443.306 159.403 442.798 158.967C442.29 158.532 441.525 158.59 441.09 159.098ZM432.709 168.864L428.519 173.746C428.084 174.254 428.142 175.018 428.65 175.454C429.158 175.889 429.923 175.831 430.358 175.323L434.548 170.44C434.984 169.933 434.925 169.168 434.417 168.733C433.91 168.297 433.145 168.356 432.709 168.864ZM424.329 178.629L420.139 183.512C419.704 184.02 419.762 184.784 420.27 185.22C420.778 185.655 421.543 185.596 421.978 185.089L426.168 180.206C426.604 179.698 426.545 178.934 426.037 178.498C425.53 178.063 424.765 178.122 424.329 178.629Z" fill="#2E186A"/>
<path fill-rule="evenodd" clip-rule="evenodd" d="M416.277 164.185C416.713 163.678 417.478 163.621 417.985 164.057L418.263 164.303L418.382 164.409C418.695 164.692 419.057 165.027 419.464 165.414L419.904 165.836C420.945 166.843 422.082 167.998 423.295 169.298C427.247 173.536 431.198 178.442 434.885 183.96C443.825 197.335 449.783 212.082 451.363 227.899C453.359 247.888 448.183 268.296 434.476 288.765C434.104 289.321 433.351 289.47 432.795 289.098C432.239 288.726 432.09 287.973 432.462 287.418C445.858 267.413 450.892 247.567 448.952 228.14C447.415 212.755 441.604 198.372 432.871 185.305C429.259 179.902 425.39 175.097 421.522 170.949C420.171 169.5 418.917 168.237 417.793 167.169L417.372 166.772C417.283 166.688 417.196 166.608 417.113 166.531L416.758 166.207C416.582 166.048 416.463 165.943 416.405 165.893C415.897 165.457 415.84 164.692 416.277 164.185Z" fill="#2E186A"/>
<path fill-rule="evenodd" clip-rule="evenodd" d="M417.356 168.083C419.051 168.083 420.425 166.71 420.425 165.016C420.425 163.321 419.051 161.948 417.356 161.948C415.661 161.948 414.287 163.321 414.287 165.016C414.287 166.71 415.661 168.083 417.356 168.083Z" fill="#2E186A"/>
<rect width="45.4264" height="45.4115" transform="matrix(0.950377 -0.311099 0.311327 0.950303 291.436 135.829)" fill="white"/>
<path fill-rule="evenodd" clip-rule="evenodd" d="M334.228 120.546L291.059 134.674C290.423 134.883 290.076 135.567 290.285 136.202L304.426 179.36C304.634 179.996 305.319 180.343 305.954 180.134L349.123 166.006C349.759 165.798 350.105 165.114 349.897 164.478L335.756 121.32C335.548 120.684 334.863 120.338 334.228 120.546ZM333.83 123.224L347.217 164.081L306.351 177.456L292.964 136.599L333.83 123.224Z" fill="#2E186A"/>
<path fill-rule="evenodd" clip-rule="evenodd" d="M333.575 121.151C333.88 120.556 334.61 120.32 335.206 120.625C335.779 120.919 336.019 121.606 335.763 122.188L335.732 122.255L306.576 179.171C306.271 179.766 305.541 180.002 304.945 179.697C304.372 179.403 304.132 178.716 304.387 178.134L304.419 178.067L333.575 121.151Z" fill="#2E186A"/>
<path fill-rule="evenodd" clip-rule="evenodd" d="M290.404 135.284C290.695 134.709 291.382 134.467 291.965 134.719L292.032 134.75L349.375 163.774C349.972 164.076 350.211 164.804 349.908 165.401C349.617 165.976 348.931 166.218 348.347 165.966L348.28 165.934L290.937 136.911C290.341 136.609 290.102 135.881 290.404 135.284Z" fill="#2E186A"/>
</svg>
