<svg width="416" height="262" viewBox="0 0 416 262" fill="none" xmlns="http://www.w3.org/2000/svg">
<path fill-rule="evenodd" clip-rule="evenodd" d="M200.05 260.244H36.4263V147.6C36.4263 122.59 56.7081 102.334 81.7506 102.334H154.726C179.768 102.334 200.05 122.59 200.05 147.6V260.244Z" fill="#5D21D1"/>
<path fill-rule="evenodd" clip-rule="evenodd" d="M238.754 123.956C238.852 107.608 232.722 82.6307 165.289 95.0707C130.758 101.193 127.921 116.434 135.323 131.088C121.922 137.797 97.6942 153.46 76.6951 185.993C45.718 233.93 75.619 260.405 93.227 260.405C110.835 260.405 306.643 258.875 306.643 258.875C306.643 258.875 314.273 183.453 238.754 123.956Z" fill="#00AC45"/>
<path fill-rule="evenodd" clip-rule="evenodd" d="M157.008 114.35L149.965 121.579C149.965 121.579 183.485 147.046 194.376 208.366C201.452 248.226 199.039 252.688 199.039 252.688L219.81 251.58C219.81 251.58 208.234 185.31 215.441 164.338C222.647 143.366 216.06 119.821 211.169 116.011C206.278 112.201 157.008 114.35 157.008 114.35Z" fill="white"/>
<path fill-rule="evenodd" clip-rule="evenodd" d="M165.16 93.8989L164.377 107.316L157.725 114.936C157.725 114.936 177.387 127.083 196.202 148.479C196.202 148.479 211.593 132.261 214.299 106.827L178.235 111.289L175.398 97.2206L165.16 93.8989Z" fill="white"/>
<path fill-rule="evenodd" clip-rule="evenodd" d="M164.184 93.8412L163.421 106.924L156.989 114.293C156.592 114.748 156.698 115.449 157.212 115.766L157.41 115.891L157.893 116.2L158.005 116.273C158.66 116.698 159.421 117.205 160.278 117.794C162.639 119.413 165.261 121.317 168.081 123.497L168.42 123.76C176.849 130.306 185.279 137.924 193.145 146.531C193.928 147.388 194.703 148.252 195.468 149.122C195.848 149.554 196.517 149.567 196.913 149.15L197.099 148.948L197.294 148.731C197.43 148.577 197.58 148.406 197.742 148.216C198.387 147.463 199.104 146.574 199.874 145.555C202.072 142.651 204.267 139.278 206.315 135.472C210.969 126.825 214.174 117.257 215.273 106.93L215.277 106.873C215.307 106.273 214.786 105.782 214.18 105.857L179.016 110.207L176.359 97.0268C176.289 96.6809 176.038 96.3995 175.702 96.2905L165.463 92.9688C164.854 92.7711 164.222 93.2023 164.184 93.8412ZM166.063 95.2188L174.553 97.9731L177.277 111.482L177.291 111.539C177.415 112.008 177.868 112.319 178.357 112.258L213.186 107.95L213.179 108.013C211.987 117.581 208.938 126.473 204.592 134.548C202.593 138.262 200.452 141.551 198.313 144.378L198.154 144.588L197.841 144.995C197.325 145.661 196.838 146.26 196.388 146.791L196.205 147.006L195.771 146.519C195.379 146.082 194.985 145.647 194.59 145.214C186.644 136.52 178.133 128.829 169.621 122.218C166.64 119.904 163.872 117.889 161.386 116.184L160.76 115.757C160.273 115.427 159.82 115.125 159.404 114.852L159.209 114.724L165.116 107.958C165.258 107.795 165.342 107.589 165.355 107.373L166.063 95.2188Z" fill="#2E186A"/>
<path fill-rule="evenodd" clip-rule="evenodd" d="M215.504 220.871C220.819 222.109 225.091 223.281 226.265 224.16C230.08 227.059 245.959 242.56 246.514 245.1C247.101 247.64 242.438 249.04 238.59 245.133L227.275 234.353C227.275 234.353 238.786 247.445 239.699 249.464C240.612 251.483 236.079 255 229.427 246.565C222.776 238.131 221.699 238.066 221.699 238.066C221.699 238.066 229.297 248.65 230.308 251.059C231.319 253.469 224.895 255.716 219.026 244.611L183.842 243.081L185.897 215.172C185.929 215.172 203.439 218.103 215.504 220.871Z" fill="white"/>
<path fill-rule="evenodd" clip-rule="evenodd" d="M185.898 214.195C186.763 214.195 205.391 217.602 214.872 219.726L215.728 219.92L217 220.219C222.414 221.511 225.626 222.495 226.814 223.35L226.858 223.383L226.993 223.487C229.013 225.057 233.759 229.497 238.157 233.924L239.11 234.889C244.086 239.951 247.173 243.524 247.469 244.88C247.906 246.771 246.459 248.262 244.327 248.505C242.704 248.69 240.902 248.168 239.268 246.999L239.119 246.89L239.293 247.118C239.93 247.961 240.354 248.584 240.55 248.974L240.592 249.062C241.41 250.87 239.796 252.812 237.443 252.911C235.397 252.996 233.052 251.839 230.61 249.385L230.421 249.193L230.465 249.267C230.775 249.794 231.007 250.225 231.155 250.553L231.212 250.682C231.646 251.717 231.283 252.801 230.35 253.437C229.509 254.01 228.314 254.16 227.022 253.854C224.151 253.173 221.131 250.442 218.486 245.667L218.43 245.563L183.801 244.057C183.269 244.034 182.857 243.591 182.866 243.066L182.868 243.009L184.923 215.101C184.96 214.59 185.386 214.195 185.898 214.195ZM186.796 216.304L184.894 242.147L219.07 243.634C219.396 243.648 219.691 243.823 219.861 244.098L219.893 244.154C222.372 248.845 225.108 251.39 227.475 251.952C228.894 252.289 229.572 251.827 229.408 251.436C229.052 250.588 227.662 248.386 225.601 245.352L225.253 244.842C224.421 243.625 223.537 242.353 222.646 241.087L221.628 239.645L220.907 238.634C220.427 237.965 220.938 237.04 221.761 237.089C222.676 237.145 224.754 239.124 229.437 244.999L230.198 245.96C232.979 249.486 235.507 251.035 237.361 250.957C238.455 250.912 238.991 250.266 238.809 249.865L238.782 249.808C238.388 249.036 236.278 246.376 233.149 242.667L232.771 242.219L231.942 241.243C231.104 240.258 230.237 239.249 229.364 238.238L227.99 236.654L226.542 234.997C225.732 234.075 227.009 232.824 227.911 233.607L227.953 233.645L239.29 244.446C240.847 246.028 242.642 246.729 244.106 246.562C245.192 246.439 245.701 245.915 245.56 245.307C245.149 243.424 230.317 228.464 225.68 224.941L225.612 224.893C224.678 224.262 221.511 223.304 216.478 222.103L215.281 221.821L214.33 221.605C209.547 220.529 203.705 219.364 197.319 218.184L194.34 217.64C193.192 217.433 192 217.22 190.885 217.023L186.796 216.304Z" fill="#2E186A"/>
<path fill-rule="evenodd" clip-rule="evenodd" d="M124.203 260.241C124.203 260.241 180.647 256.431 186.973 254.802C193.298 253.174 190.951 248.55 195.548 246.791C200.146 245.033 201.581 243.6 201.581 243.6C195.646 234.123 201.581 218.459 201.581 218.459C201.581 218.459 200.016 218.036 195.222 217.059C190.429 216.082 191.962 211.132 185.473 210.546C178.951 209.992 123.095 216.343 123.095 216.343" fill="#00AC45"/>
<path fill-rule="evenodd" clip-rule="evenodd" d="M152.216 212.216L156.018 211.83C172.265 210.195 182.844 209.342 185.561 209.573C188.688 209.856 190.205 210.889 191.843 213.178L192.143 213.604C193.287 215.237 193.943 215.801 195.418 216.102L196.502 216.325C198.099 216.656 199.395 216.938 200.419 217.174L201.075 217.327L201.615 217.459C201.722 217.486 201.794 217.505 201.836 217.516C202.375 217.662 202.679 218.225 202.515 218.749L202.39 219.097L202.313 219.32C202.246 219.514 202.175 219.728 202.1 219.962C201.797 220.903 201.494 221.959 201.212 223.105C200.256 226.976 199.76 230.882 199.967 234.502C200.157 237.843 200.945 240.742 202.41 243.082C202.652 243.468 202.594 243.969 202.272 244.291L202.216 244.345C202.141 244.414 202.033 244.507 201.889 244.62C201.602 244.844 201.243 245.095 200.804 245.366C199.628 246.095 198.085 246.854 196.126 247.616L195.898 247.704C194.536 248.225 193.974 248.851 193.159 250.506L192.84 251.168L192.715 251.418C191.527 253.755 190.157 254.992 187.217 255.748L187.08 255.782C184.734 256.341 177.153 257.137 165.354 258.133L162.178 258.398C160.189 258.561 158.11 258.728 155.952 258.898L153.216 259.112C148.004 259.516 142.557 259.922 137.075 260.317L131.927 260.684L125.92 261.103L124.269 261.216C123.73 261.252 123.264 260.845 123.227 260.307C123.192 259.788 123.57 259.336 124.08 259.272L130.494 258.826L134.031 258.576C140.484 258.116 146.937 257.639 153.064 257.164L156.966 256.858C159.286 256.674 161.509 256.494 163.624 256.318L166.591 256.067C177.644 255.121 184.797 254.354 186.728 253.856C189.111 253.243 190.059 252.369 191.027 250.422L191.407 249.637C192.403 247.619 193.24 246.655 195.08 245.925L195.198 245.879C197.154 245.131 198.66 244.395 199.773 243.706C199.941 243.602 200.094 243.503 200.231 243.409L200.305 243.358L200.216 243.194C198.938 240.799 198.234 237.993 198.029 234.861L198.013 234.613C197.794 230.773 198.314 226.682 199.312 222.638C199.582 221.545 199.869 220.531 200.158 219.613L200.306 219.153L199.427 218.952C198.273 218.692 196.817 218.381 195.027 218.016C193.036 217.611 192.03 216.8 190.714 214.969L190.326 214.42C188.959 212.479 187.918 211.748 185.39 211.52C182.785 211.298 171.547 212.219 154.692 213.928L151.647 214.239C151.132 214.292 150.614 214.345 150.092 214.399C145.168 214.909 140.112 215.448 135.11 215.993L129.869 216.569L123.205 217.313C122.668 217.374 122.184 216.989 122.123 216.453C122.064 215.936 122.42 215.468 122.927 215.38L123.028 215.367L128.924 214.707C129.646 214.627 130.391 214.545 131.158 214.461C136.745 213.845 142.459 213.23 148.037 212.648L149.89 212.456C150.673 212.374 151.449 212.295 152.216 212.216Z" fill="#2E186A"/>
<path fill-rule="evenodd" clip-rule="evenodd" d="M125.936 199.444C125.989 198.907 126.468 198.515 127.005 198.568L127.092 198.577C127.236 198.595 127.442 198.628 127.703 198.681C128.22 198.786 128.791 198.94 129.404 199.15C131.144 199.748 132.88 200.686 134.5 202.037C137.749 204.748 140.099 208.76 141.173 214.268C141.277 214.797 140.931 215.31 140.4 215.414C139.87 215.517 139.356 215.171 139.253 214.642C138.264 209.571 136.147 205.958 133.246 203.537C131.819 202.346 130.292 201.522 128.767 200.998C128.238 200.816 127.748 200.685 127.313 200.596L127.108 200.557C127.048 200.546 126.995 200.537 126.95 200.53L126.814 200.512C126.276 200.459 125.883 199.981 125.936 199.444Z" fill="#2E186A"/>
<path fill-rule="evenodd" clip-rule="evenodd" d="M196.298 247.444C201.254 245.587 202.852 244.089 202.852 244.089C196.428 234.059 202.852 217.484 202.852 217.484C202.852 217.484 201.156 217.028 195.972 215.985C193.885 215.562 192.907 214.455 192.026 213.25C181.364 225.332 187.755 246.532 190.624 254.217C193.102 252.035 192.548 248.877 196.298 247.444Z" fill="#2E186A"/>
<path fill-rule="evenodd" clip-rule="evenodd" d="M238.755 123.957C238.722 127.018 238.494 129.754 238.396 131.903C237.744 146.916 230.472 154.894 227.57 160.886C237.19 154.959 245.994 142.194 250.33 133.792C246.743 130.47 242.863 127.181 238.755 123.957Z" fill="#2E186A"/>
<path fill-rule="evenodd" clip-rule="evenodd" d="M168.128 164.174C162.976 161.797 143.281 146.784 135.325 131.12C130.173 133.693 123.423 137.601 115.858 143.3C121.434 146.491 153.519 164.5 168.225 164.369C168.193 164.272 168.16 164.207 168.128 164.174Z" fill="#2E186A"/>
<path fill-rule="evenodd" clip-rule="evenodd" d="M171.311 158.409C171.94 158.107 172.691 158.354 173.021 158.959L173.089 159.098L173.354 159.66L173.596 160.179C173.992 161.037 174.429 162.007 174.899 163.073L175.017 163.342C176.486 166.692 177.955 170.279 179.327 173.961C180.75 177.782 181.987 181.49 182.984 185.008C184.271 189.551 185.124 193.659 185.467 197.234C185.536 197.951 185.011 198.587 184.293 198.655C183.576 198.724 182.939 198.199 182.871 197.483C182.544 194.083 181.722 190.122 180.474 185.717C179.498 182.272 178.282 178.629 176.882 174.87C175.529 171.237 174.078 167.695 172.628 164.387L172.282 163.604C171.905 162.755 171.552 161.974 171.227 161.271L170.885 160.538L170.7 160.147C170.388 159.499 170.662 158.72 171.311 158.409Z" fill="#2E186A"/>
<path fill-rule="evenodd" clip-rule="evenodd" d="M222.321 159.29C223.001 159.447 223.432 160.108 223.311 160.787L223.144 161.543L222.989 162.267C222.908 162.651 222.822 163.065 222.733 163.508C222.307 165.62 221.88 167.953 221.482 170.437C220.602 175.929 219.989 181.35 219.761 186.409C219.582 190.387 219.651 194.007 219.998 197.184C220.076 197.899 219.558 198.542 218.842 198.62C218.126 198.698 217.482 198.181 217.404 197.466C217.042 194.144 216.971 190.394 217.155 186.292C217.388 181.124 218.012 175.608 218.906 170.025L219.059 169.087C219.393 167.072 219.743 165.163 220.094 163.398L220.176 162.993C220.267 162.542 220.354 162.12 220.436 161.729L220.646 160.756L220.756 160.265C220.919 159.564 221.619 159.127 222.321 159.29Z" fill="#2E186A"/>
<path fill-rule="evenodd" clip-rule="evenodd" d="M325.329 110.313H323.144C322.231 110.313 321.514 109.596 321.514 108.684V104.516C321.514 103.604 322.231 102.888 323.144 102.888H325.329C326.242 102.888 326.959 103.604 326.959 104.516V108.684C326.959 109.596 326.242 110.313 325.329 110.313Z" fill="#A1F7C4"/>
<path fill-rule="evenodd" clip-rule="evenodd" d="M317.796 110.312H283.689C282.776 110.312 282.059 109.596 282.059 108.684V104.515C282.059 103.604 282.776 102.887 283.689 102.887H317.796C318.709 102.887 319.427 103.604 319.427 104.515V108.684C319.427 109.596 318.709 110.312 317.796 110.312Z" fill="#5D21D1"/>
<path fill-rule="evenodd" clip-rule="evenodd" d="M321.187 144.864H283.688C282.775 144.864 282.058 144.148 282.058 143.236V139.067C282.058 138.156 282.775 137.439 283.688 137.439H321.187C322.1 137.439 322.817 138.156 322.817 139.067V143.236C322.817 144.148 322.1 144.864 321.187 144.864Z" fill="#5D21D1"/>
<path fill-rule="evenodd" clip-rule="evenodd" d="M353.958 133.368H293.993C293.08 133.368 292.363 132.651 292.363 131.739V127.571C292.363 126.659 293.08 125.943 293.993 125.943H353.958C354.871 125.943 355.588 126.659 355.588 127.571V131.739C355.588 132.651 354.839 133.368 353.958 133.368Z" fill="#A1F7C4"/>
<path fill-rule="evenodd" clip-rule="evenodd" d="M391.653 133.368H360.773C359.86 133.368 359.143 132.651 359.143 131.739V127.571C359.143 126.659 359.86 125.943 360.773 125.943H391.653C392.566 125.943 393.283 126.659 393.283 127.571V131.739C393.283 132.651 392.533 133.368 391.653 133.368Z" fill="#A1F7C4"/>
<path fill-rule="evenodd" clip-rule="evenodd" d="M403.195 121.873H401.01C400.097 121.873 399.38 121.157 399.38 120.245V116.077C399.38 115.165 400.097 114.448 401.01 114.448H403.195C404.108 114.448 404.825 115.165 404.825 116.077V120.245C404.825 121.124 404.108 121.873 403.195 121.873Z" fill="#5D21D1"/>
<path fill-rule="evenodd" clip-rule="evenodd" d="M345.806 121.841H283.688C282.775 121.841 282.058 121.125 282.058 120.213V116.045C282.058 115.133 282.775 114.416 283.688 114.416H345.806C346.719 114.416 347.436 115.133 347.436 116.045V120.213C347.436 121.125 346.686 121.841 345.806 121.841Z" fill="#5D21D1"/>
<path fill-rule="evenodd" clip-rule="evenodd" d="M365.108 110.313H331C330.087 110.313 329.37 109.596 329.37 108.684V104.516C329.37 103.604 330.087 102.888 331 102.888H365.108C366.021 102.888 366.738 103.604 366.738 104.516V108.684C366.738 109.596 365.988 110.313 365.108 110.313Z" fill="#5D21D1"/>
<path fill-rule="evenodd" clip-rule="evenodd" d="M394.846 121.872H352C351.087 121.872 350.37 121.155 350.37 120.244V116.01C350.37 115.098 351.087 114.382 352 114.382H394.846C395.759 114.382 396.477 115.098 396.477 116.01V120.244C396.477 121.123 395.727 121.872 394.846 121.872Z" fill="#00AC45"/>
<path fill-rule="evenodd" clip-rule="evenodd" d="M346.196 259.916C347.859 259.916 349.294 258.777 349.685 257.148L369.38 173.911C369.902 171.664 368.206 169.515 365.891 169.515H239.114C237.451 169.515 236.016 170.655 235.625 172.283L217.984 246.793H172.04C172.04 246.793 169.497 259.916 184.333 259.916" fill="#5D21D1"/>
<path fill-rule="evenodd" clip-rule="evenodd" d="M293.306 201.555C293.306 201.555 299.143 200.155 299.502 205.17C299.502 205.17 294.871 207.059 293.306 201.555Z" fill="white"/>
<path fill-rule="evenodd" clip-rule="evenodd" d="M303.969 214.55C303.382 214.159 302.762 213.899 302.11 213.671C302.925 212.792 303.447 211.619 303.447 210.382C303.447 209.014 302.795 207.939 301.817 207.418C302.371 205.757 303.284 203.38 303.969 202.533C304.328 202.11 304.262 201.491 303.871 201.166C303.447 200.808 302.828 200.873 302.502 201.263C301.458 202.468 300.382 205.497 299.86 207.093C299.828 207.093 299.795 207.093 299.763 207.093C297.741 207.451 296.111 209.535 296.111 211.717C296.111 212.433 296.306 213.052 296.6 213.573C294.35 214.127 292.132 215.332 290.437 217.155C286.752 221.063 286.85 226.274 290.632 228.749C294.415 231.224 300.48 230.084 304.165 226.143C307.849 222.236 307.751 217.025 303.969 214.55Z" fill="white"/>
<path fill-rule="evenodd" clip-rule="evenodd" d="M54.2955 223.998C48.9829 223.998 44.6763 228.299 44.6763 233.605C44.6763 238.911 48.9829 243.212 54.2955 243.212C59.608 243.212 63.9146 238.911 63.9146 233.605C63.9146 228.299 59.608 223.998 54.2955 223.998ZM54.2957 225.953C58.5277 225.953 61.9584 229.379 61.9584 233.605C61.9584 237.832 58.5277 241.258 54.2957 241.258C50.0637 241.258 46.633 237.832 46.633 233.605C46.633 229.379 50.0637 225.953 54.2957 225.953Z" fill="white"/>
<path fill-rule="evenodd" clip-rule="evenodd" d="M82.828 259.592H66.3286C60.9158 259.592 56.5464 255.228 56.5464 249.822V221.881H92.6102V249.822C92.6102 255.228 88.2082 259.592 82.828 259.592Z" fill="#A1F7C4"/>
<path fill-rule="evenodd" clip-rule="evenodd" d="M63.9466 238.389L70.4681 234.481C70.5659 234.416 70.6637 234.384 70.7941 234.384C70.9898 234.384 71.1202 234.449 71.2506 234.579C71.3811 234.709 71.4463 234.872 71.4463 235.035C71.4463 235.263 71.3485 235.458 71.1202 235.621L65.5117 238.976L71.1202 242.33C71.3485 242.493 71.4463 242.655 71.4463 242.916C71.4463 243.111 71.3811 243.242 71.2506 243.372C71.1202 243.502 70.9572 243.567 70.7941 243.567C70.6637 243.567 70.5659 243.535 70.4681 243.47L63.9466 239.562C63.7183 239.399 63.5879 239.203 63.5879 238.976C63.5879 238.748 63.7183 238.552 63.9466 238.389Z" fill="#2E186A"/>
<path fill-rule="evenodd" clip-rule="evenodd" d="M78.2291 231.973C78.3596 231.843 78.5226 231.778 78.6856 231.778C78.8487 231.778 79.0117 231.843 79.1421 231.973C79.2726 232.104 79.3378 232.267 79.3378 232.429C79.3378 232.527 79.3052 232.625 79.2726 232.722L74.0228 245.814C73.9902 245.879 73.9576 245.944 73.8923 246.009C73.7619 246.139 73.5989 246.205 73.4358 246.205C73.2728 246.205 73.1098 246.139 72.9793 246.009C72.8489 245.879 72.7837 245.716 72.7837 245.553C72.7837 245.456 72.8163 245.358 72.8489 245.26L78.0987 232.169C78.0987 232.104 78.1639 232.039 78.2291 231.973Z" fill="#2E186A"/>
<path fill-rule="evenodd" clip-rule="evenodd" d="M88.5327 238.976C88.5327 239.203 88.4023 239.399 88.174 239.562L81.6525 243.47C81.5547 243.535 81.4569 243.567 81.3265 243.567C81.1308 243.567 81.0004 243.502 80.87 243.372C80.7395 243.242 80.6743 243.079 80.6743 242.916C80.6743 242.688 80.7721 242.493 81.0004 242.33L86.6089 238.976L81.0004 235.621C80.7721 235.458 80.6743 235.296 80.6743 235.035C80.6743 234.84 80.7395 234.709 80.87 234.579C81.0004 234.449 81.1634 234.384 81.3265 234.384C81.4569 234.384 81.5547 234.416 81.6525 234.481L88.174 238.389C88.4023 238.552 88.5327 238.748 88.5327 238.976Z" fill="#2E186A"/>
<path fill-rule="evenodd" clip-rule="evenodd" d="M74.772 211.949C75.685 221.783 57.9465 198.922 60.4247 185.701C62.9029 172.479 72.4242 173 76.4023 165.543C78.8153 161.049 78.6196 158.118 78.0979 156.49C77.9349 155.969 78.4892 155.48 78.9783 155.741C83.6412 158.281 95.8363 166.552 91.793 182.216C85.1085 205.501 72.9133 191.921 74.772 211.949Z" fill="white"/>
<path fill-rule="evenodd" clip-rule="evenodd" d="M160.496 68.5298C160.496 68.5298 147.975 68.7577 150.192 79.9602C152.442 91.1627 166.3 84.6822 166.3 84.6822L164.442 68.7577L160.496 68.5298Z" fill="white"/>
<path fill-rule="evenodd" clip-rule="evenodd" d="M160.551 67.5546C160.526 67.5532 160.501 67.5527 160.476 67.5531L160.343 67.557C159.964 67.5715 159.395 67.6215 158.692 67.7309C157.378 67.9355 156.062 68.2852 154.823 68.8186C150.399 70.7238 148.098 74.4293 149.231 80.1499C150.237 85.1622 153.487 87.4603 158.077 87.5226C160.012 87.5488 162.056 87.1787 164.089 86.5476C164.687 86.3621 165.247 86.165 165.759 85.966L165.976 85.8806C166.322 85.7424 166.572 85.633 166.713 85.5672C167.094 85.3889 167.319 84.9869 167.27 84.5693L165.411 68.6448C165.356 68.1736 164.97 67.81 164.496 67.7826L160.551 67.5546ZM160.48 69.5072L163.562 69.6853L165.241 84.0688L165.248 84.0664C164.725 84.2757 164.139 84.4855 163.508 84.6813C161.655 85.2564 159.804 85.5916 158.103 85.5685C154.379 85.5179 151.96 83.8072 151.149 79.7679C150.208 75.0148 151.972 72.1736 155.597 70.6125C156.67 70.1504 157.831 69.8421 158.993 69.6611C159.4 69.5977 159.778 69.5549 160.115 69.5289L160.34 69.5137L160.48 69.5072Z" fill="#2E186A"/>
<path fill-rule="evenodd" clip-rule="evenodd" d="M196.202 33.2301C199.495 32.9696 222.125 31.5367 224.603 50.3921C227.081 69.2475 224.407 90.0567 222.32 99.5658C220.234 109.075 176.898 104.679 174.453 103.832C172.007 102.985 169.072 100.119 169.072 100.119L163.138 71.1688C163.171 71.1688 160.725 36.161 196.202 33.2301Z" fill="white"/>
<path fill-rule="evenodd" clip-rule="evenodd" d="M196.124 32.2537C180.825 33.5176 171.127 40.6406 166.017 51.6899C164.243 55.5258 163.137 59.6175 162.566 63.7669C162.199 66.4386 162.097 68.7317 162.142 70.6152L162.152 70.9607L162.158 71.1389L162.159 71.188C162.16 71.2453 162.167 71.3036 162.179 71.3622L168.114 100.313C168.153 100.504 168.248 100.679 168.388 100.815L168.582 101L168.773 101.176C168.873 101.268 168.981 101.364 169.095 101.465C169.638 101.945 170.222 102.424 170.827 102.874C171.548 103.409 172.252 103.866 172.928 104.221C173.344 104.44 173.745 104.619 174.132 104.752C176.095 105.432 188.669 106.521 198.23 106.556L198.519 106.557C213.089 106.578 222.197 104.688 223.275 99.7725L223.397 99.2081C224.57 93.6848 225.606 86.2192 226.149 78.5502C226.85 68.647 226.717 58.9751 225.572 50.2624C224.422 41.5132 219.094 36.2027 210.996 33.7066C208.068 32.804 204.932 32.3229 201.726 32.1718C199.577 32.0705 197.778 32.1228 196.124 32.2537ZM201.634 34.1238C204.686 34.2676 207.663 34.7243 210.419 35.5738C217.839 37.8609 222.592 42.5977 223.633 50.5169C224.759 59.0876 224.89 68.6316 224.197 78.4125C223.642 86.2537 222.567 93.8758 221.365 99.3543C220.604 102.819 211.913 104.622 198.522 104.603L197.955 104.601C188.639 104.546 176.448 103.487 174.773 102.906C174.486 102.807 174.173 102.668 173.84 102.493C173.263 102.189 172.64 101.785 171.994 101.306C171.437 100.892 170.895 100.447 170.391 100.002L170.189 99.8209L169.969 99.6192L164.113 71.0531L164.103 70.758C164.049 68.9387 164.14 66.6833 164.505 64.0328C165.05 60.0635 166.107 56.1558 167.793 52.5093C172.615 42.0837 181.708 35.4055 196.282 34.2014C197.857 34.0768 199.577 34.0268 201.634 34.1238Z" fill="#2E186A"/>
<path fill-rule="evenodd" clip-rule="evenodd" d="M167.278 70.9067C169.365 72.9909 174.974 84.975 176.343 90.5437C176.343 90.5437 190.234 85.8543 210.157 85.5612C210.157 85.5612 221.015 85.7891 225.352 87.0592C225.352 87.0592 224.407 106.826 215.603 117.084C206.799 127.31 188.212 124.444 179.474 118.289C170.735 112.135 169.3 109.204 167.278 102.593C165.257 96.0147 159.909 71.4278 159.909 71.4278L167.278 70.9067Z" fill="#968BB4"/>
<path fill-rule="evenodd" clip-rule="evenodd" d="M161.604 75.1408C161.604 75.1408 155.702 66.0225 153.452 56.5785C151.3 47.6881 155.441 38.3744 163.691 34.3689C170.604 31.0472 175.723 33.6524 175.723 33.6524C175.723 33.6524 168.386 21.2125 179.375 10.2053C183.255 6.33006 188.603 4.18074 194.081 4.34357C207.483 4.73435 211.656 16.0671 211.656 16.0671C211.656 16.0671 226.004 -10.2783 255.448 5.32053C258.415 6.88367 261.774 11.28 263.372 14.2435C273.089 32.1544 241.036 53.3545 224.373 55.0153C206.048 56.8716 195.32 53.8104 189.418 49.349C193.787 51.9868 188.864 79.3417 161.604 75.1408Z" fill="#2E186A"/>
<path fill-rule="evenodd" clip-rule="evenodd" d="M197.036 97.9856C197.725 97.8737 198.376 98.3236 198.52 98.9985L198.543 99.1178C198.562 99.2157 198.602 99.3778 198.666 99.584C198.798 100.012 198.98 100.44 199.214 100.83C199.957 102.068 201.004 102.645 202.659 102.352C203.368 102.227 204.045 102.7 204.17 103.408C204.296 104.117 203.822 104.792 203.113 104.918C200.307 105.413 198.24 104.275 196.976 102.17C196.625 101.585 196.363 100.968 196.173 100.351C196.057 99.9767 195.989 99.6754 195.958 99.4803C195.842 98.7702 196.325 98.101 197.036 97.9856Z" fill="#2E186A"/>
<path fill-rule="evenodd" clip-rule="evenodd" d="M210.565 76.6796C211.259 76.6009 211.888 77.0817 211.999 77.7627L212.008 77.8271L213.964 95.0542C214.065 95.9414 213.265 96.658 212.401 96.4761L212.343 96.4623L206.278 94.8991C205.58 94.7194 205.161 94.0089 205.341 93.3123C205.515 92.6375 206.188 92.2232 206.864 92.3614L206.929 92.3765L211.159 93.4662L209.416 78.1207C209.337 77.4275 209.819 76.7998 210.5 76.6885L210.565 76.6796Z" fill="#2E186A"/>
<path fill-rule="evenodd" clip-rule="evenodd" d="M217.396 81.0039C218.369 81.0039 219.157 79.7792 219.157 78.2685C219.157 76.7577 218.369 75.533 217.396 75.533C216.424 75.533 215.635 76.7577 215.635 78.2685C215.635 79.7792 216.424 81.0039 217.396 81.0039Z" fill="#2E186A"/>
<path fill-rule="evenodd" clip-rule="evenodd" d="M200.376 80.709C201.349 80.709 202.137 79.4843 202.137 77.9735C202.137 76.4628 201.349 75.238 200.376 75.238C199.404 75.238 198.615 76.4628 198.615 77.9735C198.615 79.4843 199.404 80.709 200.376 80.709Z" fill="#2E186A"/>
<path fill-rule="evenodd" clip-rule="evenodd" d="M193.23 62.7243C195.156 61.3156 197.512 60.6148 200.241 61.0217C200.953 61.128 201.445 61.7909 201.338 62.5025C201.232 63.214 200.568 63.7046 199.856 63.5984C197.856 63.3001 196.174 63.8002 194.771 64.826C194.376 65.1156 194.035 65.4254 193.752 65.7323L193.663 65.8311C193.567 65.9389 193.502 66.0203 193.468 66.0667L193.455 66.0844C193.042 66.6742 192.229 66.8185 191.639 66.4066C191.048 65.9948 190.904 65.1827 191.316 64.5929L191.378 64.5074C191.481 64.3689 191.633 64.1846 191.833 63.9678C192.225 63.5418 192.691 63.1188 193.23 62.7243Z" fill="#2E186A"/>
<path fill-rule="evenodd" clip-rule="evenodd" d="M216.574 60.6329C217.619 60.4697 218.728 60.4643 219.805 60.7304C221.648 61.1852 223.046 62.3744 223.662 64.3665C223.875 65.0539 223.489 65.7832 222.801 65.9956C222.134 66.2013 221.428 65.8464 221.191 65.1991L221.17 65.1355C220.84 64.0691 220.178 63.5061 219.179 63.2595C218.488 63.0888 217.709 63.0926 216.978 63.2068L216.813 63.2346C216.749 63.2463 216.698 63.2569 216.66 63.2653L216.614 63.2762C215.917 63.4572 215.205 63.0396 215.024 62.3433C214.842 61.647 215.261 60.9358 215.958 60.7548L216.057 60.7306C216.186 60.7008 216.361 60.6663 216.574 60.6329Z" fill="#2E186A"/>
<path fill-rule="evenodd" clip-rule="evenodd" d="M414.151 259.429C414.691 259.429 415.129 259.866 415.129 260.406C415.129 260.926 414.722 261.351 414.208 261.381L414.151 261.383H1.73213C1.19187 261.383 0.753906 260.945 0.753906 260.406C0.753906 259.885 1.16115 259.46 1.67465 259.43L1.73213 259.429H414.151Z" fill="#2E186A"/>
</svg>
