<svg width="20" height="20" viewBox="0 0 20 20" fill="none" xmlns="http://www.w3.org/2000/svg">
<path d="M1.59771 10.5039C1.52344 10.3466 1.48492 10.1749 1.48492 10.001C1.48492 9.82706 1.52344 9.65531 1.59771 9.49805C3.44927 5.5957 6.24615 3.63281 10.0001 3.63281C6.24615 3.63281 3.44927 5.5957 1.59771 9.49805C1.52344 9.65531 1.48492 9.82706 1.48492 10.001C1.48492 10.1749 1.52344 10.3466 1.59771 10.5039C3.44927 14.4043 6.2481 16.3672 10.0001 16.3672C6.2481 16.3672 3.44927 14.4043 1.59771 10.5039Z" fill="#D6E4FF"/>
<path d="M9.99939 5.03906C6.849 5.03906 4.54236 6.63672 2.91541 10C4.54236 13.3633 6.849 14.9609 9.99939 14.9609C13.1517 14.9609 15.4584 13.3633 17.0834 10C15.4564 6.63672 13.1498 5.03906 9.99939 5.03906ZM9.92127 13.4375C8.02283 13.4375 6.48376 11.8984 6.48376 10C6.48376 8.10156 8.02283 6.5625 9.92127 6.5625C11.8197 6.5625 13.3588 8.10156 13.3588 10C13.3588 11.8984 11.8197 13.4375 9.92127 13.4375Z" fill="#D6E4FF"/>
<path d="M18.4024 9.49609C16.5508 5.5957 13.752 3.63281 10.0001 3.63281C6.24615 3.63281 3.44927 5.5957 1.59771 9.49805C1.52344 9.65531 1.48492 9.82706 1.48492 10.001C1.48492 10.1749 1.52344 10.3466 1.59771 10.5039C3.44927 14.4043 6.2481 16.3672 10.0001 16.3672C13.754 16.3672 16.5508 14.4043 18.4024 10.502C18.5528 10.1855 18.5528 9.81836 18.4024 9.49609ZM10.0001 14.9609C6.84966 14.9609 4.54302 13.3633 2.91607 10C4.54302 6.63672 6.84966 5.03906 10.0001 5.03906C13.1504 5.03906 15.4571 6.63672 17.084 10C15.459 13.3633 13.1524 14.9609 10.0001 14.9609Z" fill="#003A8C"/>
<path d="M9.92188 6.5625C8.02344 6.5625 6.48438 8.10156 6.48438 10C6.48438 11.8984 8.02344 13.4375 9.92188 13.4375C11.8203 13.4375 13.3594 11.8984 13.3594 10C13.3594 8.10156 11.8203 6.5625 9.92188 6.5625ZM9.92188 12.1875C8.71289 12.1875 7.73438 11.209 7.73438 10C7.73438 8.79102 8.71289 7.8125 9.92188 7.8125C11.1309 7.8125 12.1094 8.79102 12.1094 10C12.1094 11.209 11.1309 12.1875 9.92188 12.1875Z" fill="#003A8C"/>
</svg>
