<svg width="240" height="163" viewBox="0 0 240 163" fill="none" xmlns="http://www.w3.org/2000/svg">
<path fill-rule="evenodd" clip-rule="evenodd" d="M138.297 162.998H239.828V90.0384C239.828 74.2634 227.223 61.4667 211.683 61.4667H138.297V162.998Z" fill="#5D21D1"/>
<path fill-rule="evenodd" clip-rule="evenodd" d="M129.38 162.036C129.38 162.036 130.803 109.178 130.518 97.0253C130.213 83.1858 138.749 69.7731 141.736 67.3141C144.358 65.1599 163.888 66.9889 168.663 67.4766C167.241 72.1711 164.172 78.8368 157.811 87.7786C156.592 89.2012 155.393 90.8067 154.255 92.5747C148.971 100.846 144.988 113.1 145.577 131.207C143.565 150.879 145.232 161.793 145.232 161.793L129.38 162.036Z" fill="white"/>
<path fill-rule="evenodd" clip-rule="evenodd" d="M69.6964 79.781L82.4385 37.4686C84.3082 33.3495 85.9949 35.1235 86.7062 33.8389C88.332 30.8413 88.9823 29.5159 88.9823 29.5159C94.957 34.5934 106.866 32.3707 106.866 32.3707C106.866 32.3707 106.968 33.4718 107.049 36.816C107.13 40.1603 110.849 39.6709 110.422 44.1162L104.834 74.153L120.36 70.8291C122.555 58.7777 132.838 38.5901 170.414 48.6839C192.159 56.4123 193.073 68.5453 186.997 78.9654C189.862 79.414 196.833 83.3495 211.546 104.21C232.742 134.226 231.726 162.244 190.513 162.958C183.583 163.08 109.488 162.856 109.488 162.856L111.784 117.322C63.2136 121.91 64.5955 101.111 69.6964 79.781ZM145.276 162.207C145.276 162.207 143.609 151.256 145.621 131.517C145.479 126.807 145.621 122.504 146.028 118.569C146.028 118.528 146.028 118.487 146.048 118.426C146.089 118.059 146.129 117.692 146.17 117.325C146.17 117.264 146.19 117.182 146.19 117.121C146.231 116.774 146.272 116.428 146.312 116.101C146.333 116.02 146.333 115.938 146.353 115.857C146.394 115.53 146.454 115.204 146.495 114.878C146.515 114.776 146.515 114.694 146.536 114.592C146.576 114.287 146.637 113.96 146.678 113.654C146.698 113.552 146.719 113.471 146.719 113.369C146.78 113.063 146.82 112.757 146.881 112.472C146.902 112.37 146.922 112.268 146.942 112.186C147.003 111.901 147.064 111.595 147.105 111.309C147.125 111.207 147.145 111.105 147.166 111.024C147.227 110.738 147.288 110.453 147.349 110.167C147.369 110.066 147.389 109.984 147.41 109.882C147.471 109.597 147.532 109.311 147.613 109.046C147.633 108.944 147.654 108.862 147.674 108.76C147.735 108.475 147.816 108.21 147.877 107.945C147.897 107.863 147.918 107.761 147.938 107.68C148.019 107.415 148.08 107.129 148.162 106.864C148.182 106.782 148.202 106.701 148.223 106.619C148.304 106.354 148.385 106.089 148.446 105.824C148.466 105.743 148.487 105.661 148.507 105.6C148.588 105.335 148.67 105.07 148.751 104.804C148.771 104.723 148.792 104.662 148.812 104.601C148.893 104.335 148.974 104.07 149.076 103.805C149.096 103.744 149.117 103.683 149.137 103.622C149.239 103.357 149.32 103.092 149.422 102.827C149.442 102.765 149.462 102.725 149.483 102.684C149.584 102.419 149.686 102.133 149.787 101.868C149.808 101.827 149.808 101.787 149.828 101.766C149.93 101.481 150.031 101.216 150.153 100.93C150.153 100.91 150.173 100.889 150.173 100.869C151.393 97.8306 152.775 95.1797 154.258 92.8347C154.401 92.6307 154.522 92.4064 154.665 92.2025C154.665 92.1821 154.685 92.1617 154.685 92.1617C154.807 91.9782 154.949 91.7743 155.071 91.5908C155.091 91.5704 155.112 91.5296 155.132 91.5092C155.254 91.3257 155.376 91.1422 155.518 90.9586C155.539 90.9179 155.559 90.8975 155.579 90.8567C155.701 90.6732 155.843 90.4896 155.965 90.3265C155.986 90.3061 156.006 90.2857 156.026 90.2449C156.169 90.0614 156.291 89.8779 156.433 89.7148C156.433 89.6944 156.453 89.6944 156.453 89.674C156.9 89.103 157.347 88.532 157.794 88.0019C164.155 79.0092 167.204 72.3208 168.646 67.6307C163.871 67.1413 144.341 65.3265 141.719 67.4676C140.48 68.4872 138.305 71.3624 136.212 75.3795C136.11 75.563 136.029 75.7262 135.928 75.9097V75.9301C135.562 76.6642 135.196 77.4187 134.83 78.2139C134.83 78.2139 134.83 78.2139 134.83 78.2343C134.749 78.4178 134.668 78.6014 134.586 78.8053C134.566 78.8257 134.566 78.8461 134.546 78.8868C134.464 79.0704 134.403 79.2335 134.322 79.417C134.302 79.4374 134.302 79.4782 134.281 79.4986C134.2 79.6821 134.119 79.8656 134.038 80.0695C134.038 80.0899 134.017 80.0899 134.017 80.1103C133.855 80.5182 133.672 80.9464 133.509 81.3746C133.509 81.3746 133.509 81.3746 133.509 81.395C133.428 81.5989 133.367 81.8028 133.286 82.0067C133.265 82.0475 133.265 82.0883 133.245 82.1291C133.184 82.2922 133.123 82.4554 133.062 82.6389C133.042 82.7001 133.021 82.7408 133.001 82.802C132.94 82.9651 132.879 83.1283 132.839 83.2914C132.818 83.3526 132.798 83.3934 132.778 83.4545C132.717 83.6381 132.656 83.8216 132.595 84.0051C132.574 84.0459 132.574 84.0663 132.554 84.1071C132.412 84.5557 132.29 84.9839 132.148 85.4325C132.127 85.4733 132.127 85.5345 132.107 85.5753C132.066 85.7384 132.005 85.9219 131.965 86.0851C131.944 86.1462 131.924 86.2278 131.904 86.289C131.863 86.4521 131.822 86.5948 131.782 86.758C131.761 86.8395 131.741 86.9007 131.721 86.9823C131.68 87.1454 131.64 87.2882 131.599 87.4513C131.579 87.5125 131.558 87.594 131.538 87.6552C131.497 87.8387 131.457 88.0223 131.416 88.1854C131.396 88.2262 131.396 88.2873 131.375 88.3281C131.335 88.5524 131.274 88.7971 131.233 89.0214C131.233 89.0622 131.213 89.0826 131.213 89.1234C131.172 89.3069 131.131 89.5108 131.111 89.6944C131.091 89.7759 131.091 89.8371 131.07 89.9187C131.05 90.0818 131.01 90.2245 130.989 90.3877C130.969 90.4692 130.969 90.5508 130.949 90.6324C130.928 90.7751 130.908 90.9382 130.888 91.081C130.867 91.1626 130.867 91.2441 130.847 91.3461C130.827 91.5092 130.806 91.6519 130.786 91.8151C130.766 91.8966 130.766 91.9782 130.745 92.0598C130.725 92.2433 130.705 92.4472 130.684 92.6307C130.684 92.6715 130.684 92.7123 130.664 92.7531C130.644 92.9774 130.623 93.2221 130.603 93.4668C130.603 93.528 130.583 93.5891 130.583 93.6707C130.562 93.8338 130.562 94.0174 130.542 94.1805C130.542 94.2621 130.522 94.3436 130.522 94.4456C130.522 94.5883 130.501 94.7515 130.501 94.8942C130.501 94.9758 130.501 95.0777 130.481 95.1593C130.481 95.302 130.461 95.4652 130.461 95.6079C130.461 95.6895 130.461 95.7914 130.461 95.873C130.461 96.0361 130.461 96.1993 130.461 96.3624C130.461 96.444 130.461 96.5255 130.461 96.5867C130.461 96.8314 130.461 97.0557 130.461 97.3004C130.461 97.4228 130.461 97.5655 130.461 97.7082C130.461 97.749 130.461 97.7694 130.461 97.8102C130.461 97.9529 130.461 98.0957 130.461 98.2384C130.461 98.2588 130.461 98.2588 130.461 98.2792C130.461 98.4219 130.461 98.5647 130.461 98.7074C130.461 98.7482 130.461 98.789 130.461 98.8094C130.461 98.9725 130.461 99.1356 130.461 99.2988C130.461 99.3192 130.461 99.3396 130.461 99.36C130.461 99.5231 130.461 99.6658 130.461 99.829C130.461 99.8697 130.461 99.9105 130.461 99.9513C130.461 100.135 130.461 100.318 130.461 100.502C130.461 100.522 130.461 100.563 130.461 100.583C130.461 100.747 130.461 100.91 130.461 101.093C130.461 101.134 130.461 101.175 130.461 101.216C130.461 101.42 130.461 101.603 130.461 101.807C130.461 101.848 130.461 101.868 130.461 101.909C130.461 102.092 130.461 102.276 130.461 102.459C130.461 102.5 130.461 102.541 130.461 102.582C130.461 102.786 130.461 102.99 130.461 103.214C130.461 103.255 130.461 103.316 130.461 103.357C130.461 103.561 130.461 103.744 130.461 103.948C130.461 103.989 130.461 104.009 130.461 104.05C130.461 104.274 130.461 104.499 130.461 104.743C130.461 104.804 130.461 104.845 130.461 104.906C130.461 105.11 130.461 105.335 130.461 105.559C130.461 105.579 130.461 105.62 130.461 105.641C130.461 105.885 130.461 106.13 130.461 106.375C130.461 106.436 130.461 106.477 130.461 106.538C130.461 106.782 130.461 107.027 130.461 107.292C130.461 107.537 130.461 107.802 130.461 108.067C130.461 108.128 130.461 108.189 130.461 108.251C130.461 108.781 130.441 109.311 130.441 109.841C130.441 109.902 130.441 109.964 130.441 110.025C130.441 110.29 130.441 110.555 130.441 110.82C130.441 110.861 130.441 110.902 130.441 110.922C130.441 111.167 130.441 111.432 130.441 111.676C130.441 111.738 130.441 111.778 130.441 111.84C130.441 112.125 130.44 112.411 130.42 112.716C130.42 112.737 130.42 112.757 130.42 112.757C130.42 113.022 130.42 113.308 130.4 113.573C130.4 113.634 130.4 113.695 130.4 113.756C130.4 114.042 130.4 114.327 130.38 114.613C130.38 114.674 130.38 114.715 130.38 114.776C130.38 115.021 130.38 115.286 130.359 115.53C130.359 115.592 130.359 115.653 130.359 115.714C130.359 116.02 130.359 116.305 130.339 116.611C130.339 116.652 130.339 116.693 130.339 116.754C130.339 117.019 130.339 117.305 130.319 117.57C130.319 117.631 130.319 117.672 130.319 117.733C130.319 118.039 130.319 118.324 130.298 118.63C130.298 118.691 130.298 118.752 130.298 118.813C130.298 119.099 130.298 119.384 130.278 119.67C130.278 119.711 130.278 119.731 130.278 119.772C130.278 120.078 130.258 120.404 130.258 120.71C130.258 120.771 130.258 120.832 130.258 120.893C130.258 121.159 130.258 121.444 130.237 121.709C130.237 121.75 130.237 121.811 130.237 121.852C130.237 122.178 130.217 122.504 130.217 122.81C130.217 122.851 130.217 122.892 130.217 122.933C129.871 141.53 129.302 162.492 129.302 162.492L145.276 162.207Z" fill="#00AC45"/>
<path fill-rule="evenodd" clip-rule="evenodd" d="M113.096 72.2146C115.555 71.1985 118.237 70.853 120.371 70.5076C119.904 73.0275 119.782 75.2223 119.843 76.7059C120.31 87.4157 125.086 91.5615 126.082 95.504C113.197 90.7486 112.202 78.1894 113.096 72.2146Z" fill="#2E186A"/>
<path fill-rule="evenodd" clip-rule="evenodd" d="M187.142 78.5161C190.475 79.9793 195.067 81.9912 198.949 87.905C193.503 85.6696 174.786 102.415 161.515 98.6149C167.673 97.9849 181.086 89.1244 187.142 78.5161Z" fill="#2E186A"/>
<path fill-rule="evenodd" clip-rule="evenodd" d="M157.563 98.8211C157.171 98.6327 156.703 98.7868 156.498 99.1645L156.455 99.2511L156.29 99.6017L156.14 99.926C155.893 100.461 155.62 101.066 155.327 101.732L155.254 101.9C154.338 103.99 153.423 106.229 152.568 108.527C151.681 110.911 150.91 113.225 150.288 115.42C149.486 118.255 148.955 120.819 148.741 123.05C148.698 123.497 149.025 123.894 149.472 123.937C149.919 123.98 150.316 123.652 150.359 123.205C150.563 121.083 151.075 118.611 151.853 115.863C152.461 113.713 153.219 111.439 154.091 109.094C154.935 106.827 155.839 104.616 156.743 102.552L156.958 102.063C157.193 101.533 157.413 101.046 157.616 100.607L157.829 100.149L157.944 99.9058C158.139 99.5012 157.968 99.0155 157.563 98.8211Z" fill="#2E186A"/>
<path fill-rule="evenodd" clip-rule="evenodd" d="M127.473 96.1203C127.038 96.146 126.704 96.5086 126.708 96.9392L126.728 97.3356C126.742 97.6297 126.756 97.971 126.769 98.3556C126.919 102.784 126.821 107.74 126.294 112.41C125.985 115.145 125.542 117.598 124.95 119.696C124.828 120.128 125.08 120.577 125.512 120.699C125.944 120.821 126.393 120.569 126.515 120.137C127.133 117.946 127.591 115.409 127.909 112.593C128.433 107.959 128.54 103.074 128.405 98.6667L128.384 98.0457C128.375 97.7974 128.366 97.5687 128.356 97.3608L128.332 96.8838C128.307 96.4492 127.944 96.1146 127.513 96.1189L127.473 96.1203Z" fill="#2E186A"/>
<path fill-rule="evenodd" clip-rule="evenodd" d="M105.222 73.5512C104.981 73.3159 104.595 73.3205 104.359 73.5614C104.223 73.7006 104.133 73.8786 104.047 74.1235L104.016 74.2135C103.956 74.4004 103.895 74.6302 103.824 74.9333L103.737 75.32C103.658 75.684 103.497 76.4356 103.46 76.6053C103.154 78.0042 102.874 79.0769 102.511 80.1359C101.176 84.027 99.1654 86.1699 96.0465 86.1199C95.7098 86.1145 95.4325 86.383 95.4271 86.7197C95.4217 87.0563 95.6902 87.3336 96.0269 87.339C99.7995 87.3996 102.177 84.865 103.664 80.5316C104.03 79.4662 104.311 78.3993 104.612 77.0442L104.959 75.4409L105.009 75.2223C105.083 74.9037 105.143 74.6828 105.197 74.5284C105.214 74.4812 105.229 74.443 105.242 74.4145L105.251 74.395C105.255 74.3881 105.251 74.3934 105.232 74.4134C105.467 74.1725 105.462 73.7865 105.222 73.5512Z" fill="#2E186A"/>
<path fill-rule="evenodd" clip-rule="evenodd" d="M116.939 125.54L131.815 128.588L132.73 113.55" fill="white"/>
<path fill-rule="evenodd" clip-rule="evenodd" d="M132.763 112.942C132.439 112.922 132.159 113.159 132.121 113.478L132.118 113.513L131.246 127.85L117.058 124.943C116.74 124.878 116.429 125.073 116.347 125.383L116.338 125.418C116.273 125.736 116.469 126.047 116.778 126.129L116.813 126.138L131.689 129.186C132.041 129.258 132.375 129.013 132.417 128.661L132.42 128.626L133.335 113.587C133.355 113.251 133.099 112.962 132.763 112.942Z" fill="#2E186A"/>
<path fill-rule="evenodd" clip-rule="evenodd" d="M121.868 124.258C122.071 126.331 123.29 130.7 121.705 133.586C120.933 134.988 120.547 137.833 120.547 137.833L111.178 140.191C110.385 143.239 108.638 149.112 107.317 149.031C105.447 148.909 106.443 137.203 106.707 133.606C106.829 131.757 108.13 125.843 109.186 122.835C110.568 118.913 116.848 106.964 129.651 111.333L138.898 113.589" fill="white"/>
<path fill-rule="evenodd" clip-rule="evenodd" d="M129.677 110.695C123.808 108.75 118.804 109.954 114.741 113.516C111.871 116.033 109.692 119.588 108.619 122.633L108.551 122.828C107.552 125.761 106.266 131.449 106.111 133.493L105.98 135.254C105.945 135.729 105.914 136.161 105.885 136.6L105.847 137.157C105.764 138.445 105.7 139.638 105.658 140.776L105.645 141.142C105.573 143.315 105.591 145.114 105.72 146.475L105.738 146.66C105.934 148.548 106.33 149.576 107.287 149.639C108.314 149.702 109.094 148.438 110.023 146.001C110.571 144.563 111.121 142.786 111.604 140.99L111.684 140.693L120.703 138.424C120.932 138.366 121.106 138.182 121.152 137.953L121.158 137.915L121.188 137.711L121.216 137.538C121.235 137.419 121.257 137.292 121.281 137.158C121.385 136.587 121.509 136.017 121.652 135.487C121.825 134.852 122.014 134.323 122.212 133.944L122.247 133.879C122.874 132.737 123.137 131.355 123.123 129.726C123.115 128.714 123.012 127.721 122.807 126.388L122.603 125.104L122.557 124.795C122.523 124.558 122.498 124.367 122.482 124.198C122.449 123.863 122.151 123.618 121.816 123.651C121.48 123.683 121.235 123.982 121.268 124.317L121.28 124.432C121.298 124.59 121.32 124.763 121.349 124.965L121.422 125.442C121.469 125.733 121.555 126.268 121.579 126.422L121.624 126.717C121.806 127.923 121.897 128.83 121.904 129.735C121.915 131.129 121.704 132.285 121.226 133.203L121.178 133.291C120.913 133.774 120.682 134.409 120.476 135.168C120.322 135.735 120.191 136.338 120.082 136.941C120.063 137.047 120.045 137.148 120.029 137.246L120.013 137.34L111.037 139.599C110.833 139.65 110.672 139.802 110.606 139.999L110.595 140.037C110.083 142.009 109.479 144.005 108.883 145.567L108.793 145.801C108.462 146.644 108.146 147.319 107.854 147.792C107.708 148.029 107.573 148.207 107.457 148.32L107.417 148.356L107.387 148.382L107.372 148.358C107.338 148.302 107.302 148.226 107.266 148.132L107.248 148.083C107.112 147.7 107.005 147.116 106.934 146.36C106.804 144.988 106.792 143.11 106.876 140.821L106.896 140.335C106.937 139.356 106.993 138.331 107.064 137.236L107.101 136.682C107.123 136.355 107.146 136.031 107.171 135.69L107.333 133.514C107.507 131.477 108.806 125.777 109.769 123.037C110.777 120.176 112.848 116.798 115.545 114.433C119.332 111.112 123.945 110.027 129.462 111.909L129.488 111.918L129.514 111.925L138.761 114.18C139.088 114.26 139.418 114.06 139.497 113.733C139.574 113.417 139.391 113.099 139.084 113.005L139.05 112.996L129.828 110.746L129.677 110.695Z" fill="#2E186A"/>
<path fill-rule="evenodd" clip-rule="evenodd" d="M109.476 133.404C109.476 133.404 110.471 141.899 113.317 142.549C116.162 143.199 116.324 140.801 116.324 140.801" fill="white"/>
<path fill-rule="evenodd" clip-rule="evenodd" d="M109.407 132.799C109.084 132.837 108.85 133.12 108.869 133.44L108.874 133.49L108.886 133.586C108.897 133.672 108.91 133.772 108.926 133.885L108.962 134.131C109 134.385 109.044 134.657 109.094 134.944C109.284 136.04 109.524 137.137 109.819 138.165L109.884 138.389C110.684 141.083 111.715 142.809 113.183 143.144C114.806 143.515 115.936 143.054 116.54 142.045C116.695 141.785 116.801 141.511 116.868 141.238C116.909 141.07 116.928 140.934 116.935 140.843C116.957 140.507 116.703 140.217 116.368 140.194C116.044 140.172 115.762 140.407 115.721 140.725L115.718 140.761C115.716 140.786 115.707 140.854 115.684 140.948C115.644 141.11 115.581 141.272 115.493 141.419C115.165 141.968 114.57 142.211 113.454 141.955C112.559 141.751 111.678 140.226 110.991 137.829C110.71 136.848 110.479 135.792 110.295 134.735L110.249 134.463C110.212 134.24 110.179 134.029 110.15 133.831L110.117 133.591L110.083 133.334C110.044 132.999 109.741 132.76 109.407 132.799Z" fill="#2E186A"/>
<path fill-rule="evenodd" clip-rule="evenodd" d="M112.895 133.102C112.895 133.102 114.42 140.581 117.305 141.028C120.191 141.475 120.191 139.077 120.191 139.077" fill="white"/>
<path fill-rule="evenodd" clip-rule="evenodd" d="M112.77 132.503C112.44 132.57 112.227 132.892 112.295 133.222L112.315 133.319C112.331 133.394 112.351 133.481 112.374 133.579C112.438 133.857 112.515 134.167 112.604 134.5C112.859 135.452 113.164 136.405 113.518 137.298L113.604 137.513C114.577 139.89 115.73 141.399 117.209 141.629C118.81 141.877 119.895 141.373 120.446 140.372C120.601 140.091 120.699 139.794 120.753 139.499C120.786 139.318 120.797 139.173 120.797 139.075C120.797 138.738 120.524 138.465 120.188 138.465C119.863 138.465 119.598 138.719 119.579 139.039L119.577 139.1C119.575 139.137 119.568 139.199 119.554 139.279C119.522 139.453 119.464 139.627 119.378 139.784C119.079 140.327 118.501 140.595 117.395 140.424C116.46 140.279 115.489 138.963 114.651 136.849C114.316 136.004 114.026 135.094 113.782 134.184L113.72 133.949C113.67 133.758 113.625 133.576 113.585 133.405L113.537 133.199L113.489 132.979C113.422 132.649 113.1 132.436 112.77 132.503Z" fill="#2E186A"/>
<path fill-rule="evenodd" clip-rule="evenodd" d="M117.098 132.655C117.098 132.655 119.089 141.617 122.28 138.223C125.471 134.83 125.145 133.082 125.145 133.082C125.145 133.082 123.601 130.623 121.142 134.545" fill="white"/>
<path fill-rule="evenodd" clip-rule="evenodd" d="M125.195 132.231C123.92 131.155 122.263 131.606 120.626 134.217C120.448 134.502 120.534 134.878 120.819 135.057C121.104 135.236 121.481 135.15 121.66 134.865C122.393 133.694 123.044 133.106 123.579 132.96C123.897 132.874 124.163 132.955 124.408 133.163C124.454 133.202 124.494 133.24 124.528 133.276L124.545 133.294L124.543 133.317C124.541 133.354 124.536 133.397 124.529 133.444L124.522 133.493C124.483 133.739 124.399 134.031 124.258 134.369C123.857 135.331 123.082 136.477 121.837 137.801C121.194 138.485 120.736 138.528 120.213 138.103C119.68 137.669 119.146 136.781 118.661 135.589C118.388 134.919 118.147 134.197 117.942 133.474L117.883 133.262C117.845 133.123 117.81 132.992 117.779 132.867L117.73 132.673L117.694 132.518C117.621 132.19 117.295 131.983 116.967 132.056C116.65 132.126 116.446 132.431 116.497 132.748L116.506 132.793L116.545 132.959C116.553 132.994 116.563 133.031 116.572 133.07L116.622 133.267C116.666 133.436 116.715 133.617 116.769 133.807C116.986 134.57 117.24 135.333 117.531 136.049C118.088 137.416 118.712 138.453 119.444 139.048C120.473 139.886 121.653 139.777 122.725 138.637C124.066 137.21 124.923 135.944 125.384 134.838C125.69 134.102 125.79 133.521 125.762 133.106L125.758 133.058C125.755 133.021 125.75 132.99 125.746 132.966C125.732 132.89 125.704 132.818 125.663 132.753C125.572 132.609 125.418 132.419 125.195 132.231Z" fill="#2E186A"/>
<path fill-rule="evenodd" clip-rule="evenodd" d="M177.296 115.333C167.399 113.362 147.625 109.196 145.999 109.277C141.488 109.46 136.468 110.334 135.005 110.497C131.611 110.883 130.148 110.984 130.148 110.984C132.566 118.422 126.002 128.624 126.002 128.624C126.002 128.624 126.978 129.132 130.026 130.474C133.074 131.815 131.408 137.729 135.676 138.989C137.383 139.497 170.102 156.466 178.556 158.193" fill="#00AC45"/>
<path fill-rule="evenodd" clip-rule="evenodd" d="M132.276 133.365C139.47 127.532 141.888 112.859 138.86 109.648C138.738 108.632 136.401 110.339 134.999 110.502C131.605 110.888 130.142 110.99 130.142 110.99C131.524 115.217 129.979 120.338 128.414 123.976C127.5 126.15 126.545 127.857 126.077 128.65C126.341 128.792 127.439 129.32 130.04 130.458C131.524 131.129 131.829 132.247 132.276 133.365Z" fill="#2E186A"/>
<path fill-rule="evenodd" clip-rule="evenodd" d="M189.308 110.739C187.129 110.012 184.234 109.585 181.691 109.816C178.165 110.136 175.511 111.648 174.229 114.589C174.095 114.898 174.236 115.257 174.545 115.392C174.853 115.526 175.213 115.385 175.347 115.077C176.428 112.596 178.68 111.313 181.801 111.03C184.163 110.816 186.892 111.219 188.923 111.896C189.242 112.002 189.587 111.829 189.694 111.51C189.8 111.191 189.628 110.845 189.308 110.739Z" fill="#2E186A"/>
<path fill-rule="evenodd" clip-rule="evenodd" d="M162.92 111.627C147.182 108.517 137.729 107.634 136.138 110.046C136.126 110.065 136.115 110.084 136.105 110.103L136.09 110.133L128.612 126.879C128.539 127.041 128.541 127.226 128.616 127.386L128.639 127.43L128.772 127.675L128.87 127.857C128.954 128.014 129.044 128.185 129.139 128.366C129.519 129.093 129.898 129.852 130.252 130.603C130.431 130.983 130.599 131.352 130.754 131.708C131.341 133.055 131.715 134.139 131.807 134.824L131.814 134.88C132.128 137.558 133.114 138.633 137.919 141.131L141.282 142.876L142.38 143.443C143.65 144.097 144.888 144.726 146.185 145.376C150.764 147.671 155.334 149.845 159.962 151.891C165.017 154.125 169.888 156.091 174.516 157.732C180.918 160.001 186.691 161.588 191.707 162.379C192.039 162.432 192.352 162.205 192.404 161.872C192.457 161.539 192.229 161.227 191.897 161.175C186.965 160.397 181.26 158.828 174.923 156.582C170.327 154.953 165.483 152.998 160.455 150.775C155.846 148.738 151.294 146.572 146.732 144.286C145.438 143.638 144.204 143.01 142.938 142.359L138.36 139.986C134.082 137.758 133.311 136.944 133.042 134.872L133.026 134.739C132.929 133.904 132.521 132.71 131.871 131.22C131.712 130.854 131.539 130.474 131.355 130.084C130.994 129.316 130.607 128.543 130.22 127.802L130.051 127.481L129.848 127.101L137.18 110.684L137.191 110.67C137.798 109.916 140.704 109.682 145.343 110.096L145.631 110.122C150.031 110.533 155.83 111.469 162.684 112.823C165.033 113.287 167.475 113.795 169.99 114.339C174.233 115.257 178.49 116.236 182.579 117.22L183.843 117.525C185.078 117.825 186.219 118.106 187.249 118.363L187.94 118.536L188.968 118.796C189.294 118.88 189.626 118.684 189.71 118.358C189.791 118.043 189.611 117.723 189.305 117.625L189.259 117.612L187.749 117.231L186.476 116.914C185.666 116.714 184.799 116.502 183.882 116.28L183.631 116.219C179.3 115.172 174.766 114.125 170.248 113.147C167.726 112.602 165.276 112.093 162.92 111.627Z" fill="#2E186A"/>
<path fill-rule="evenodd" clip-rule="evenodd" d="M136.773 68.4117L158.985 69.4075L160.753 60.6283L167.642 52.9464C167.642 52.9464 167.947 61.7257 168.171 68.9604C166.992 72.3339 164.269 76.9877 161.038 82.1902C155.916 84.8931 149.535 88.2869 140.979 94.2007C138.703 90.4411 136.63 77.0284 136.773 68.4117Z" fill="white"/>
<path fill-rule="evenodd" clip-rule="evenodd" d="M168.254 52.9189L168.372 56.3883C168.426 57.9642 168.479 59.5577 168.531 61.1346L168.717 66.8673C168.74 67.582 168.762 68.2721 168.782 68.9352C168.784 69.01 168.773 69.0846 168.748 69.1552L168.683 69.3386C167.599 72.352 165.437 76.2601 161.558 82.5056C161.5 82.5975 161.42 82.6726 161.324 82.7231L160.233 83.301C152.813 87.2414 148.044 90.0536 141.328 94.6959C141.039 94.8956 140.642 94.8106 140.46 94.5102C138.161 90.7132 136.018 77.3313 136.165 68.3953L136.167 68.36C136.191 68.0335 136.471 67.7815 136.802 67.7963L158.493 68.7687L160.157 60.5016C160.179 60.3949 160.229 60.2959 160.301 60.2149L167.19 52.533C167.557 52.1244 168.235 52.3703 168.254 52.9189ZM167.08 54.4724L161.313 60.9034L159.578 69.5197L159.57 69.5547C159.497 69.8307 159.241 70.0214 158.953 70.0084L137.371 69.0407L137.37 69.2106C137.361 77.4726 139.204 89.1515 141.174 93.2735L141.189 93.3043L141.354 93.1914C147.816 88.7593 152.576 85.9752 159.908 82.0872L160.602 81.72L161.075 80.9559C164.52 75.3681 166.493 71.7628 167.496 69.0143L167.553 68.857L167.408 64.2937L167.28 60.3836L167.08 54.4724Z" fill="#2E186A"/>
<path fill-rule="evenodd" clip-rule="evenodd" d="M170.017 42.7227C170.017 42.7227 177.82 42.8649 176.438 49.8558C175.036 56.8467 166.399 52.8025 166.399 52.8025L167.558 42.8649L170.017 42.7227Z" fill="white"/>
<path fill-rule="evenodd" clip-rule="evenodd" d="M169.978 42.1175C169.993 42.1166 170.009 42.1163 170.024 42.1166L170.107 42.1189C170.343 42.128 170.698 42.1592 171.136 42.2275C171.955 42.3552 172.775 42.5734 173.547 42.9062C176.305 44.0952 177.739 46.4076 177.033 49.9775C176.406 53.1054 174.38 54.5395 171.519 54.5784C170.314 54.5948 169.04 54.3638 167.772 53.97C167.4 53.8542 167.051 53.7312 166.732 53.607L166.597 53.5538C166.381 53.4675 166.225 53.3992 166.137 53.3581C165.899 53.2469 165.76 52.996 165.79 52.7354L166.948 42.7978C166.983 42.5038 167.223 42.2768 167.519 42.2597L169.978 42.1175ZM170.02 43.338L168.099 43.4492L167.052 52.4251L167.048 52.4237C167.374 52.5542 167.739 52.6851 168.132 52.8074C169.288 53.1662 170.441 53.3754 171.501 53.361C173.822 53.3295 175.33 52.2619 175.835 49.7412C176.422 46.775 175.322 45.002 173.063 44.0277C172.394 43.7394 171.671 43.547 170.946 43.4341C170.693 43.3945 170.457 43.3678 170.247 43.3516L170.107 43.342L170.02 43.338Z" fill="#2E186A"/>
<path fill-rule="evenodd" clip-rule="evenodd" d="M147.771 20.6963C145.718 20.5337 131.614 19.6395 130.07 31.4062C128.525 43.1728 130.192 56.1588 131.492 62.0929C132.793 68.027 159.801 65.2835 161.326 64.7551C162.85 64.2267 164.679 62.4384 164.679 62.4384L168.377 44.3718C168.377 44.3515 169.902 22.5253 147.771 20.6963Z" fill="white"/>
<path fill-rule="evenodd" clip-rule="evenodd" d="M168.984 44.2992L168.98 44.3686C168.98 44.4097 168.975 44.4507 168.967 44.4909L165.269 62.5575C165.244 62.6768 165.185 62.786 165.097 62.8711L164.976 62.9862L164.858 63.0962C164.795 63.1533 164.728 63.2136 164.657 63.2765C164.319 63.5758 163.955 63.8751 163.577 64.1555C163.128 64.4894 162.689 64.7746 162.268 64.9966C162.009 65.1331 161.759 65.2444 161.518 65.328C160.294 65.7521 152.458 66.4316 146.499 66.4535L146.319 66.4539C137.238 66.4669 131.562 65.2875 130.889 62.2202L130.813 61.868C130.082 58.4213 129.437 53.7624 129.099 48.9766C128.661 42.7965 128.744 36.7608 129.458 31.3237C130.175 25.8637 133.495 22.5497 138.542 20.9921C140.367 20.4288 142.322 20.1286 144.32 20.0343C145.659 19.9711 146.78 20.0037 147.811 20.0854C157.359 20.8744 163.411 25.3201 166.594 32.2145C167.7 34.6108 168.389 37.1675 168.74 39.757C168.968 41.4346 169.029 42.8997 168.994 44.0436L168.99 44.1569C168.988 44.2092 168.986 44.2565 168.984 44.2992ZM144.378 21.2543C142.476 21.3441 140.621 21.6291 138.903 22.1592C134.278 23.5864 131.316 26.5425 130.668 31.4844C129.966 36.8329 129.884 42.7888 130.316 48.8926C130.662 53.7858 131.332 58.5424 132.081 61.9612C132.555 64.1232 137.972 65.2486 146.318 65.2366L146.671 65.2353C152.477 65.2012 160.075 64.54 161.119 64.178C161.298 64.1159 161.493 64.0293 161.7 63.9199C162.06 63.7303 162.448 63.4781 162.851 63.179C163.198 62.9209 163.536 62.6431 163.85 62.3653L163.976 62.2524L164.114 62.1265L167.765 44.2876L167.773 44.1141C167.813 43.0202 167.759 41.5824 167.533 39.9232C167.197 37.4466 166.539 35.0054 165.488 32.7276C162.484 26.2228 156.81 22.0546 147.714 21.3028C146.732 21.225 145.66 21.1938 144.378 21.2543Z" fill="#2E186A"/>
<path fill-rule="evenodd" clip-rule="evenodd" d="M165.812 44.2075C164.511 45.5081 161.016 52.9868 160.162 56.4619C160.162 56.4619 151.505 53.5355 139.088 53.3526C139.088 53.3526 132.321 53.4948 129.618 54.2874C129.618 54.2874 130.207 66.623 135.694 73.0246C141.181 79.4058 152.765 77.6174 158.211 73.7765C163.658 69.9356 164.552 68.1066 165.812 63.9811C167.072 59.8557 170.405 44.5327 170.405 44.5327L165.812 44.2075Z" fill="#968BB4"/>
<path fill-rule="evenodd" clip-rule="evenodd" d="M142.967 64.0222C142.967 64.0222 139.655 63.3515 138.293 64.6928L142.967 64.0222Z" fill="white"/>
<path fill-rule="evenodd" clip-rule="evenodd" d="M137.937 64.6869C138.66 64.8553 139.417 64.9622 140.145 64.9611C141.162 64.9597 142.018 64.7469 142.647 64.2434C142.91 64.033 142.952 63.6494 142.742 63.3865C142.531 63.1236 142.148 63.0811 141.885 63.2915C141.51 63.5913 140.91 63.7407 140.144 63.7418C139.522 63.7427 138.853 63.6482 138.213 63.4993C138.106 63.4744 138.007 63.4495 137.917 63.4255L137.756 63.3804C137.744 63.3771 137.736 63.3744 137.729 63.3724C137.408 63.2721 137.066 63.4513 136.966 63.7727C136.865 64.0941 137.044 64.436 137.366 64.5363L137.494 64.5743C137.607 64.6061 137.757 64.6451 137.937 64.6869Z" fill="#2E186A"/>
<path fill-rule="evenodd" clip-rule="evenodd" d="M169.346 46.8502C169.346 46.8502 173.025 41.1599 174.427 35.2665C175.768 29.7185 173.187 23.9063 168.046 21.4066C163.737 19.3338 160.547 20.9595 160.547 20.9595C160.547 20.9595 165.119 13.1964 158.271 6.32747C155.852 3.90911 152.52 2.56784 149.105 2.66945C140.753 2.91332 138.152 9.98549 138.152 9.98549C138.152 9.98549 129.21 -6.45528 110.859 3.27912C109.009 4.25459 106.916 6.99811 105.92 8.84744C99.8644 20.0247 119.841 33.2546 130.226 34.291C141.647 35.4494 148.333 33.5391 152.011 30.7549C149.288 32.3807 152.357 49.4718 169.346 46.8502Z" fill="#2E186A"/>
<path fill-rule="evenodd" clip-rule="evenodd" d="M138.809 47.9867C138.486 47.9502 138.194 48.1725 138.14 48.4885L138.135 48.5239L136.915 59.2948C136.869 59.7076 137.238 60.0415 137.639 59.9615L137.674 59.9537L141.453 58.9782C141.78 58.8941 141.976 58.5616 141.891 58.2355C141.81 57.9211 141.498 57.7276 141.184 57.7896L141.149 57.7975L138.227 58.5517L139.346 48.6611C139.383 48.3385 139.16 48.0462 138.845 47.9918L138.809 47.9867Z" fill="#2E186A"/>
<path fill-rule="evenodd" clip-rule="evenodd" d="M134.783 51.5235C134.177 51.5235 133.685 50.7592 133.685 49.8165C133.685 48.8737 134.177 48.1094 134.783 48.1094C135.389 48.1094 135.88 48.8737 135.88 49.8165C135.88 50.7592 135.389 51.5235 134.783 51.5235Z" fill="#2E186A"/>
<path fill-rule="evenodd" clip-rule="evenodd" d="M145.389 51.3215C144.783 51.3215 144.292 50.5572 144.292 49.6144C144.292 48.6716 144.783 47.9073 145.389 47.9073C145.995 47.9073 146.487 48.6716 146.487 49.6144C146.487 50.5572 145.995 51.3215 145.389 51.3215Z" fill="#2E186A"/>
<path fill-rule="evenodd" clip-rule="evenodd" d="M149.515 39.2446C148.356 38.3953 146.939 37.9736 145.296 38.2191C144.963 38.2688 144.733 38.5791 144.783 38.9121C144.832 39.2452 145.143 39.4748 145.476 39.4251C146.779 39.2304 147.88 39.5582 148.795 40.2282C149.052 40.4171 149.274 40.6193 149.459 40.8201L149.519 40.8859C149.573 40.9479 149.614 40.9977 149.64 41.032L149.662 41.0611C149.854 41.3372 150.234 41.4047 150.51 41.2119C150.787 41.0192 150.854 40.6391 150.661 40.363C150.604 40.2805 150.502 40.1525 150.356 39.9942C150.12 39.7377 149.84 39.4826 149.515 39.2446Z" fill="#2E186A"/>
<path fill-rule="evenodd" clip-rule="evenodd" d="M135.059 37.9975C134.433 37.8994 133.767 37.8962 133.126 38.0548C132.043 38.3224 131.229 39.0156 130.867 40.1866C130.768 40.5083 130.948 40.8497 131.27 40.9491C131.592 41.0485 131.933 40.8683 132.032 40.5465C132.26 39.8088 132.73 39.4086 133.418 39.2386C133.879 39.1246 134.391 39.1271 134.871 39.2022L134.946 39.2147C135.005 39.2249 135.051 39.2343 135.084 39.2417L135.117 39.2496C135.443 39.3343 135.776 39.1388 135.86 38.8129C135.945 38.487 135.75 38.1542 135.424 38.0695C135.348 38.0497 135.223 38.0232 135.059 37.9975Z" fill="#2E186A"/>
<path fill-rule="evenodd" clip-rule="evenodd" d="M108.175 24.9669L104.741 38.7861L89.6615 34.3152" fill="white"/>
<path fill-rule="evenodd" clip-rule="evenodd" d="M108.33 24.3734C108.014 24.2951 107.696 24.4774 107.6 24.7835L107.591 24.818L104.31 38.0183L89.8421 33.7288C89.5309 33.6365 89.2043 33.8044 89.0955 34.106L89.0843 34.14C88.992 34.4513 89.1599 34.7779 89.4615 34.8867L89.4955 34.8978L104.575 39.3687C104.896 39.4641 105.232 39.2818 105.33 38.9656L105.34 38.9313L108.774 25.1121C108.855 24.7853 108.656 24.4546 108.33 24.3734Z" fill="#2E186A"/>
<path fill-rule="evenodd" clip-rule="evenodd" d="M103.336 26.0423C105.043 27.16 111.424 30.188 114.635 30.1068C116.2 30.0661 118.841 31.0416 118.841 31.0416L125.121 24.0101C128.108 24.701 133.982 25.8391 134.51 24.6604C135.262 22.9939 124.694 18.5637 121.463 17.1614C119.817 16.4298 114.106 14.865 111.017 14.4179C107.014 13.8286 92.4021 13.4628 90.3902 26.4894L88.236 34.537L102.584 38.7844" fill="white"/>
<path fill-rule="evenodd" clip-rule="evenodd" d="M111.108 13.8151C107.859 13.3369 103.503 13.5284 99.7668 14.7694C94.3898 16.5556 90.798 20.2622 89.8186 26.2156L89.7954 26.3625L87.6492 34.3797C87.5669 34.6872 87.7349 35.0038 88.0304 35.1106L88.065 35.122L102.413 39.3694C102.735 39.4649 103.075 39.2807 103.17 38.9578C103.262 38.6465 103.094 38.32 102.793 38.2113L102.759 38.2002L88.9807 34.1212L90.9812 26.6474C90.984 26.6368 90.9866 26.6261 90.9889 26.6153L90.9948 26.5828C91.8559 21.0074 95.1291 17.5949 100.151 15.9266C103.628 14.7715 107.72 14.5752 110.78 14.9999L110.932 15.0217C113.766 15.4318 119.385 16.9264 121.165 17.696L123.197 18.5755C123.414 18.6698 123.624 18.7614 123.835 18.8543L124.328 19.0716C125.383 19.5386 126.358 19.9817 127.286 20.4199C128.123 20.815 128.897 21.1947 129.604 21.5585L129.87 21.6961C131.223 22.4018 132.286 23.0306 133.008 23.5646C133.406 23.8595 133.688 24.1176 133.842 24.3221C133.857 24.3416 133.87 24.36 133.881 24.3771L133.904 24.4134L133.868 24.4278C133.718 24.4833 133.491 24.5244 133.199 24.5455C132.61 24.5878 131.798 24.5469 130.811 24.4312C129.19 24.2412 127.184 23.8613 125.261 23.4164C125.057 23.3694 124.845 23.4298 124.697 23.5743L124.668 23.6043L118.66 30.3321L118.616 30.3175C118.336 30.2237 118.038 30.1298 117.73 30.0403L117.544 29.9871C117.115 29.866 116.696 29.7624 116.298 29.6816C115.698 29.5598 115.166 29.4939 114.711 29.4963L114.621 29.4977C113.276 29.5317 111.133 28.9545 108.65 27.9587L108.312 27.8213C106.434 27.0475 104.546 26.1051 103.672 25.5326C103.39 25.3482 103.012 25.427 102.828 25.7087C102.643 25.9904 102.722 26.3683 103.004 26.5527C104.006 27.2092 106.141 28.2659 108.196 29.0904C110.775 30.1249 113.012 30.7336 114.567 30.7181L114.653 30.7166C115.02 30.7071 115.498 30.7634 116.056 30.8766C116.422 30.9509 116.811 31.0473 117.214 31.1607C117.508 31.2437 117.796 31.3317 118.068 31.4205L118.229 31.4739C118.296 31.4962 118.359 31.5176 118.417 31.5378L118.632 31.6139C118.854 31.6958 119.102 31.6417 119.27 31.4781L119.298 31.4481L125.338 24.6847L125.423 24.7042C127.177 25.0985 128.97 25.4329 130.481 25.6197L130.669 25.6422C133.204 25.9393 134.654 25.8352 135.068 24.9115C135.621 23.6861 133.94 22.4259 130.273 20.5318L130.162 20.4742C129.441 20.1036 128.655 19.718 127.806 19.3173L127.37 19.1126C126.491 18.7022 125.569 18.2857 124.575 17.8478L123.553 17.4005L121.588 16.5509C119.642 15.729 114.011 14.2352 111.108 13.8151Z" fill="#2E186A"/>
<path fill-rule="evenodd" clip-rule="evenodd" d="M119.984 19.459C119.984 19.459 126.873 24.1534 126.162 26.9173C125.451 29.6608 123.297 28.7463 123.297 28.7463" fill="white"/>
<path fill-rule="evenodd" clip-rule="evenodd" d="M119.481 19.111C119.291 19.3893 119.363 19.7685 119.641 19.9582L119.815 20.0795L119.898 20.1385C120.107 20.2872 120.339 20.4579 120.59 20.6475C121.307 21.1894 122.023 21.774 122.69 22.3778C123.521 23.13 124.213 23.8576 124.718 24.5337C125.418 25.4688 125.707 26.238 125.572 26.7596C125.361 27.5752 125.024 28.0051 124.605 28.1818C124.317 28.3036 123.989 28.3033 123.677 28.224C123.647 28.2163 123.619 28.2083 123.594 28.2004L123.535 28.1804C123.225 28.0489 122.867 28.1935 122.736 28.5034C122.604 28.8133 122.749 29.1713 123.059 29.3028C123.129 29.3326 123.237 29.37 123.376 29.4056C123.923 29.5449 124.51 29.5455 125.079 29.3052C125.869 28.9718 126.451 28.2303 126.753 27.0646C127.003 26.0938 126.594 25.0062 125.695 23.8033C125.136 23.056 124.392 22.2745 123.508 21.474C122.813 20.8438 122.069 20.2371 121.326 19.6749L121.134 19.5311C121.009 19.4377 120.888 19.3493 120.774 19.2663L120.519 19.0836L120.328 18.9505C120.05 18.7609 119.67 18.8328 119.481 19.111Z" fill="#2E186A"/>
<path fill-rule="evenodd" clip-rule="evenodd" d="M118.197 22.2668C118.197 22.2668 123.969 26.9816 123.054 29.6642C122.14 32.3467 120.067 31.2696 120.067 31.2696" fill="white"/>
<path fill-rule="evenodd" clip-rule="evenodd" d="M117.72 21.8765C117.515 22.1272 117.543 22.4919 117.777 22.709L117.812 22.7391L117.927 22.8356L118.008 22.9045C118.173 23.0458 118.357 23.208 118.556 23.3885C119.124 23.9044 119.691 24.4619 120.22 25.0389C120.904 25.7865 121.469 26.5099 121.873 27.1811C122.451 28.1415 122.655 28.9247 122.472 29.4628C122.224 30.1882 121.894 30.5892 121.514 30.7634C121.205 30.9048 120.855 30.8966 120.517 30.7902L120.454 30.7693C120.407 30.7526 120.372 30.7381 120.352 30.7289L120.342 30.724C120.044 30.5687 119.676 30.6851 119.52 30.9838C119.365 31.2826 119.481 31.6507 119.78 31.8059C119.861 31.8481 119.987 31.9019 120.151 31.9534C120.752 32.1423 121.398 32.1574 122.021 31.8722C122.727 31.5491 123.276 30.8817 123.626 29.8562C123.952 28.8999 123.663 27.7906 122.918 26.5523C122.467 25.8026 121.854 25.0182 121.119 24.2155C120.563 23.6085 119.97 23.0255 119.376 22.4861L119.201 22.3288C119.088 22.2272 118.979 22.1319 118.877 22.0434L118.756 21.9402L118.577 21.79C118.317 21.577 117.933 21.6157 117.72 21.8765Z" fill="#2E186A"/>
<path fill-rule="evenodd" clip-rule="evenodd" d="M115.902 25.6783C115.902 25.6783 122.751 31.4499 118.361 32.6692C113.971 33.8886 112.63 32.8115 112.63 32.8115C112.63 32.8115 111.187 30.3728 115.719 30.0273" fill="white"/>
<path fill-rule="evenodd" clip-rule="evenodd" d="M116.287 25.2074C116.03 24.9905 115.645 25.0233 115.428 25.2808C115.211 25.5382 115.244 25.9229 115.502 26.1398L115.607 26.2305L115.66 26.2774C115.79 26.392 115.935 26.5236 116.092 26.6699C116.54 27.088 116.988 27.5386 117.405 28.0028C117.906 28.5619 118.326 29.1019 118.638 29.6031L118.711 29.7237C119.506 31.0509 119.392 31.7432 118.19 32.0771C115.82 32.7355 114.232 32.7651 113.281 32.4481C113.219 32.4272 113.164 32.4061 113.117 32.3856L113.094 32.3751L113.087 32.3563C113.003 32.1239 112.986 31.8918 113.062 31.6892L113.08 31.6462C113.304 31.1521 114.105 30.7565 115.758 30.6305C116.094 30.6049 116.345 30.312 116.32 29.9763C116.294 29.6405 116.001 29.3891 115.665 29.4147C113.615 29.571 112.413 30.1645 111.97 31.1427C111.722 31.6881 111.752 32.2493 111.94 32.7704C111.995 32.9226 112.052 33.0402 112.098 33.1172C112.135 33.1804 112.184 33.2362 112.241 33.2822C112.365 33.3822 112.58 33.4994 112.895 33.6047C114.096 34.0053 115.928 33.9711 118.517 33.252C120.723 32.639 120.916 30.9601 119.674 28.9596C119.32 28.3906 118.858 27.7967 118.312 27.1886C117.869 26.6951 117.397 26.2197 116.924 25.7785L116.763 25.6292C116.71 25.5812 116.659 25.5349 116.61 25.4904L116.382 25.2886C116.34 25.2526 116.309 25.2254 116.287 25.2074Z" fill="#2E186A"/>
<path fill-rule="evenodd" clip-rule="evenodd" d="M108.879 39.9466C105.993 43.7672 86.463 40.8814 83.2521 35.9431C84.7966 33.8296 86.0159 35.0286 86.7069 33.7889C88.3327 30.8015 88.983 29.4806 88.983 29.4806C92.3768 32.3664 97.7013 32.8744 101.664 32.7931C104.022 32.7728 105.972 32.5289 106.887 32.407C106.907 32.7118 106.989 33.9312 107.07 36.756C107.09 38.4021 108.005 39.1337 108.879 39.9466Z" fill="#2E186A"/>
<path fill-rule="evenodd" clip-rule="evenodd" d="M2.2234 106.983H80.8419C81.8731 106.983 82.7629 107.689 83.0055 108.698L93.945 154.868H122.436C122.436 154.868 124.013 163 114.813 163H14.4368C13.4055 163 12.5158 162.294 12.2731 161.285L0.0597839 109.707C-0.263756 108.315 0.78772 106.983 2.2234 106.983Z" fill="#5D21D1"/>
</svg>
