<svg xmlns="http://www.w3.org/2000/svg" width="17.471" height="20.199" viewBox="0 0 17.471 20.199">
  <g id="Group_40934" data-name="Group 40934" transform="translate(0.099 0.099)">
    <path id="Path_34378" data-name="Path 34378" d="M25.821,3.975v15a2.42,2.42,0,0,0,2.386,2.614,2.389,2.389,0,0,0,2.386-2.614V4.089a2.389,2.389,0,0,0-2.386-2.5A2.425,2.425,0,0,0,25.821,3.975Z" transform="translate(-13.321 -1.589)" fill="#707070" stroke="#707070" stroke-width="0.199"/>
    <g id="Group_40744" data-name="Group 40744" transform="translate(0 7.614)">
      <path id="Path_34379" data-name="Path 34379" d="M14.9,17.283v7.386a2.42,2.42,0,0,0,2.386,2.614,2.389,2.389,0,0,0,2.386-2.614V17.4a2.389,2.389,0,0,0-2.386-2.5A2.425,2.425,0,0,0,14.9,17.283Z" transform="translate(-8.647 -14.897)" fill="#5e5c5c" stroke="#707070" stroke-width="0.199"/>
      <circle id="Ellipse_1275" data-name="Ellipse 1275" cx="2.386" cy="2.386" r="2.386" transform="translate(0 7.614)" fill="#5e5c5c" stroke="#707070" stroke-width="0.199"/>
    </g>
  </g>
</svg>
