<svg width="32" height="27" viewBox="0 0 32 27" fill="none" xmlns="http://www.w3.org/2000/svg">
<path d="M28.4129 6.76154H3.49042C2.89826 6.76154 2.41821 7.24158 2.41821 7.83375V25.9282C2.41821 26.5203 2.89826 27.0004 3.49042 27.0004H28.4129C29.0051 27.0004 29.4851 26.5203 29.4851 25.9282V7.83375C29.4851 7.24158 29.0051 6.76154 28.4129 6.76154Z" fill="#4989F5"/>
<path d="M28.1001 6.60992H3.77332C3.01975 6.60992 2.43335 12.442 2.43335 13.1955L15.7554 27.0008H28.1001C28.856 26.9987 29.4682 26.3865 29.4703 25.6306V7.97984C29.4681 7.22406 28.8559 6.61199 28.1001 6.60992Z" fill="url(#paint0_linear)"/>
<path d="M8.59839 10.1499H16.3318V0H9.75636L8.59839 10.1499Z" fill="#3C4BA6"/>
<path d="M24.0652 10.1499H16.3318V0H22.9072L24.0652 10.1499ZM29.485 1.92405L29.4946 1.95864C29.4922 1.94643 29.4876 1.9351 29.485 1.92405Z" fill="#7BABF7"/>
<path d="M29.4946 1.95864L29.485 1.92405C29.2398 0.801337 28.2461 0.000726823 27.0969 0H22.9072L24.0643 10.1502H31.7977L29.4946 1.95864Z" fill="#3F51B5"/>
<path d="M3.17854 1.9248L3.16895 1.9594C3.17127 1.94719 3.17592 1.93585 3.17854 1.9248Z" fill="#7BABF7"/>
<path d="M3.16887 1.95932L3.17846 1.92472C3.42364 0.802009 4.41735 0.00139821 5.56652 0.000671387H9.75651L8.59766 10.1509H0.864258L3.16887 1.95932Z" fill="#7BABF7"/>
<path fill-rule="evenodd" clip-rule="evenodd" d="M8.61136 10.1481C8.61136 12.2824 6.88115 14.0126 4.74684 14.0126C2.61254 14.0126 0.882324 12.2824 0.882324 10.1481H8.61136Z" fill="#709BE0"/>
<path fill-rule="evenodd" clip-rule="evenodd" d="M16.3406 10.1481C16.3406 12.2824 14.6104 14.0126 12.4761 14.0126C10.3418 14.0126 8.61157 12.2824 8.61157 10.1481H16.3406Z" fill="#3C4BA6"/>
<path fill-rule="evenodd" clip-rule="evenodd" d="M24.0696 10.1481C24.0696 12.2824 22.3394 14.0126 20.2051 14.0126C18.0708 14.0126 16.3406 12.2824 16.3406 10.1481H24.0696Z" fill="#709BE0"/>
<path fill-rule="evenodd" clip-rule="evenodd" d="M31.7981 10.1481C31.7981 12.2824 30.0679 14.0126 27.9336 14.0126C25.7993 14.0126 24.0691 12.2824 24.0691 10.1481H31.7981Z" fill="#3C4BA6"/>
<path d="M27.9334 20.6175C27.9197 20.4335 27.897 20.2655 27.8648 20.0509H23.6492C23.6492 20.6405 23.6492 21.2839 23.6469 21.8738H26.089C26.0371 22.1487 25.9314 22.4106 25.778 22.6446C25.6246 22.8785 25.4264 23.0799 25.195 23.237C25.195 23.237 25.195 23.2268 25.1932 23.2266C24.8943 23.4228 24.5576 23.5542 24.2048 23.6123C23.851 23.6771 23.4883 23.6755 23.1352 23.6077C22.7766 23.5335 22.437 23.3863 22.1377 23.1754C21.6958 22.862 21.355 22.4266 21.157 21.9223C21.1419 21.8831 21.128 21.8435 21.1137 21.8034V21.7991L21.1175 21.7962C20.9254 21.2322 20.9249 20.6207 21.1161 20.0564C21.2507 19.6606 21.4724 19.3 21.7647 19.0011C22.4504 18.2917 23.475 18.0249 24.4196 18.3097C24.7818 18.4208 25.1128 18.6156 25.3857 18.8784L26.2096 18.0545C26.355 17.9077 26.5059 17.7655 26.6457 17.6137C26.2279 17.224 25.7376 16.9204 25.2025 16.72C24.2288 16.367 23.1636 16.3576 22.1839 16.6936C22.1498 16.7052 22.1159 16.7173 22.0821 16.7299C21.0252 17.1273 20.1556 17.9066 19.6453 18.9139C19.465 19.2704 19.3338 19.6497 19.2551 20.0413C18.7884 22.3605 20.2035 24.6434 22.4883 25.257C23.2352 25.457 24.0292 25.4521 24.7819 25.2811C25.4657 25.1267 26.0981 24.7981 26.6175 24.3273C27.1594 23.8286 27.5479 23.1643 27.7514 22.4587C27.9215 21.8608 27.9832 21.2372 27.9334 20.6175Z" fill="white"/>
<defs>
<linearGradient id="paint0_linear" x1="2.43335" y1="16.8052" x2="29.47" y2="16.8052" gradientUnits="userSpaceOnUse">
<stop offset="0.03" stop-color="#4079D8"/>
<stop offset="1" stop-color="#4989F5"/>
</linearGradient>
</defs>
</svg>
