<svg width="229" height="180" viewBox="0 0 229 180" fill="none" xmlns="http://www.w3.org/2000/svg">
<g>
<path fill-rule="evenodd" clip-rule="evenodd" d="M227.903 72.9147C228.467 72.9147 228.923 73.3714 228.923 73.9349C228.923 74.4782 228.499 74.9223 227.963 74.9533L227.903 74.9551H75.6561C75.0926 74.9551 74.6359 74.4983 74.6359 73.9349C74.6359 73.3916 75.0606 72.9474 75.5961 72.9164L75.6561 72.9147H227.903Z" fill="#968BB4"/>
<path fill-rule="evenodd" clip-rule="evenodd" d="M227.903 54.7144C228.467 54.7144 228.923 55.1711 228.923 55.7346C228.923 56.2779 228.499 56.722 227.963 56.753L227.903 56.7547H75.6561C75.0926 56.7547 74.6359 56.298 74.6359 55.7346C74.6359 55.1912 75.0606 54.7471 75.5961 54.7161L75.6561 54.7144H227.903Z" fill="#968BB4"/>
<path fill-rule="evenodd" clip-rule="evenodd" d="M227.903 36.5216C228.467 36.5216 228.923 36.9784 228.923 37.5418C228.923 38.0851 228.499 38.5292 227.963 38.5603L227.903 38.562H75.6561C75.0926 38.562 74.6359 38.1052 74.6359 37.5418C74.6359 36.9985 75.0606 36.5544 75.5961 36.5233L75.6561 36.5216H227.903Z" fill="#968BB4"/>
<path fill-rule="evenodd" clip-rule="evenodd" d="M227.903 18.3289C228.467 18.3289 228.923 18.7856 228.923 19.3491C228.923 19.8924 228.499 20.3365 227.963 20.3675L227.903 20.3692H75.6561C75.0926 20.3692 74.6359 19.9125 74.6359 19.3491C74.6359 18.8057 75.0606 18.3616 75.5961 18.3306L75.6561 18.3289H227.903Z" fill="#968BB4"/>
<rect x="159.557" y="7.85876" width="21.3211" height="83.04" transform="rotate(-0.58588 159.557 7.85876)" fill="#00AC45"/>
<rect x="195.894" y="37.6449" width="21.4571" height="53.2517" transform="rotate(-0.58588 195.894 37.6449)" fill="#00AC45"/>
<rect x="123.829" y="37.6449" width="21.4571" height="53.2517" transform="rotate(-0.58588 123.829 37.6449)" fill="#00AC45"/>
<path fill-rule="evenodd" clip-rule="evenodd" d="M110.107 90.6994L88.7509 90.9035L88.4448 65.3986L109.767 65.1605L110.107 90.6994Z" fill="#00AC45"/>
<path fill-rule="evenodd" clip-rule="evenodd" d="M75.6563 0.443359C76.1996 0.443359 76.6437 0.868074 76.6748 1.40361L76.6765 1.46355V89.8805H227.903C228.447 89.8805 228.891 90.3052 228.922 90.8408L228.924 90.9007C228.924 91.444 228.499 91.8881 227.963 91.9192L227.903 91.9209H75.6563C75.113 91.9209 74.6689 91.4962 74.6378 90.9606L74.6361 90.9007V1.46355C74.6361 0.900117 75.0929 0.443359 75.6563 0.443359Z" fill="#2E186A"/>
<path fill-rule="evenodd" clip-rule="evenodd" d="M104.495 95.1852C105.058 95.1852 105.515 95.6419 105.515 96.2054C105.515 96.7487 105.09 97.1928 104.555 97.2238L104.495 97.2256H91.9462C91.3828 97.2256 90.926 96.7688 90.926 96.2054C90.926 95.6621 91.3507 95.2179 91.8863 95.1869L91.9462 95.1852H104.495Z" fill="#00AC45"/>
<path fill-rule="evenodd" clip-rule="evenodd" d="M141.189 95.1852C141.753 95.1852 142.209 95.6419 142.209 96.2054C142.209 96.7487 141.785 97.1928 141.249 97.2238L141.189 97.2256H128.675C128.111 97.2256 127.655 96.7688 127.655 96.2054C127.655 95.6621 128.079 95.2179 128.615 95.1869L128.675 95.1852H141.189Z" fill="#00AC45"/>
<path fill-rule="evenodd" clip-rule="evenodd" d="M177.17 95.1852C177.734 95.1852 178.19 95.6419 178.19 96.2054C178.19 96.7487 177.766 97.1928 177.23 97.2238L177.17 97.2256H164.656C164.092 97.2256 163.635 96.7688 163.635 96.2054C163.635 95.6621 164.06 95.2179 164.596 95.1869L164.656 95.1852H177.17Z" fill="#00AC45"/>
<path fill-rule="evenodd" clip-rule="evenodd" d="M213.252 95.1852C213.815 95.1852 214.272 95.6419 214.272 96.2054C214.272 96.7487 213.847 97.1928 213.312 97.2238L213.252 97.2256H200.703C200.14 97.2256 199.683 96.7688 199.683 96.2054C199.683 95.6621 200.108 95.2179 200.643 95.1869L200.703 95.1852H213.252Z" fill="#00AC45"/>
<path fill-rule="evenodd" clip-rule="evenodd" d="M69.3686 17.886C69.9119 17.886 70.356 18.3107 70.387 18.8462L70.3888 18.9062V21.0826C70.3888 21.646 69.932 22.1028 69.3686 22.1028C68.8253 22.1028 68.3812 21.6781 68.3501 21.1425L68.3484 21.0826V18.9062C68.3484 18.3427 68.8051 17.886 69.3686 17.886Z" fill="#2E186A"/>
<path fill-rule="evenodd" clip-rule="evenodd" d="M69.3686 35.4337C69.9119 35.4337 70.356 35.8584 70.387 36.394L70.3888 36.4539V38.6303C70.3888 39.1938 69.932 39.6505 69.3686 39.6505C68.8253 39.6505 68.3812 39.2258 68.3501 38.6903L68.3484 38.6303V36.4539C68.3484 35.8905 68.8051 35.4337 69.3686 35.4337Z" fill="#2E186A"/>
<path fill-rule="evenodd" clip-rule="evenodd" d="M69.3686 54.7144C69.9119 54.7144 70.356 55.1391 70.387 55.6746L70.3888 55.7346V57.911C70.3888 58.4744 69.932 58.9312 69.3686 58.9312C68.8253 58.9312 68.3812 58.5064 68.3501 57.9709L68.3484 57.911V55.7346C68.3484 55.1711 68.8051 54.7144 69.3686 54.7144Z" fill="#2E186A"/>
<path fill-rule="evenodd" clip-rule="evenodd" d="M69.3686 72.9095C69.9119 72.9095 70.356 73.3343 70.387 73.8698L70.3888 73.9297V76.1062C70.3888 76.6696 69.932 77.1264 69.3686 77.1264C68.8253 77.1264 68.3812 76.7016 68.3501 76.1661L68.3484 76.1062V73.9297C68.3484 73.3663 68.8051 72.9095 69.3686 72.9095Z" fill="#2E186A"/>
<path fill-rule="evenodd" clip-rule="evenodd" d="M97.4587 37.8918L97.5267 52.0385L115.516 53.0928V39.6942C115.516 39.6942 119.563 37.3817 118.203 30.0703C116.842 22.7589 95.7924 25.1734 94.6361 29.6283C93.4799 34.0831 97.4587 37.8918 97.4587 37.8918Z" fill="white"/>
<path fill-rule="evenodd" clip-rule="evenodd" d="M106.3 24.4163L105.921 24.435C99.7513 24.7731 94.3511 26.6711 93.6505 29.3705C93.0084 31.8445 93.651 34.2784 95.0838 36.5245C95.4433 37.088 95.8279 37.5969 96.2137 38.0447L96.3374 38.1862L96.4424 38.3028L96.5084 52.042C96.511 52.5803 96.9314 53.024 97.4689 53.0555L115.458 54.1097L115.519 54.1115C116.078 54.1118 116.538 53.6579 116.538 53.0913L116.538 40.2127L116.645 40.1234C117.056 39.7716 117.461 39.3316 117.837 38.7963C119.318 36.6823 119.924 33.7315 119.208 29.8822C118.462 25.875 113.204 24.1111 106.3 24.4163ZM117.197 30.2543C117.814 33.5726 117.323 35.966 116.161 37.6242C115.887 38.0147 115.597 38.3289 115.313 38.5726C115.237 38.6376 115.167 38.6927 115.105 38.7382L115.007 38.8057L114.949 38.8416C114.665 39.0297 114.493 39.3483 114.493 39.6915L114.493 52.0083L98.5387 51.0735L98.4758 37.8843C98.4746 37.6307 98.3791 37.3876 98.2092 37.2015L98.0622 37.0516L97.9467 36.9282C97.8863 36.8623 97.8221 36.7901 97.7546 36.7117C97.4295 36.3344 97.1031 35.9025 96.7991 35.4259C95.6431 33.6138 95.1433 31.7208 95.6206 29.8819C96.0097 28.3827 100.942 26.6941 106.385 26.4535C112.361 26.1893 116.712 27.6489 117.197 30.2543Z" fill="#2E186A"/>
<rect x="96.7113" y="7.14978" width="19.6218" height="26.185" fill="#00AC45"/>
<path fill-rule="evenodd" clip-rule="evenodd" d="M97.4237 37.7893C93.717 36.6671 94.5671 29.3217 95.1112 27.5193C95.4853 26.2951 96.3355 23.3705 96.2674 21.1941C96.2334 20.2419 97.5937 19.1537 98.5119 19.5278C99.6341 19.9699 100.688 21.8742 100.892 27.8254C103.749 31.056 104.803 34.5927 104.803 34.5927" fill="white"/>
<path fill-rule="evenodd" clip-rule="evenodd" d="M95.2486 21.3854L95.2454 21.2302C95.1849 19.5368 97.2893 17.9288 98.8833 18.5783C100.702 19.2949 101.649 21.9452 101.887 27.2154L101.896 27.4282L102.115 27.6908L102.339 27.9681C103.429 29.3463 104.303 30.8188 104.984 32.2919C105.193 32.7443 105.371 33.1695 105.519 33.5597L105.581 33.7248C105.68 33.9913 105.744 34.1872 105.778 34.301C105.939 34.8409 105.632 35.4091 105.092 35.5701C104.571 35.7253 104.024 35.4451 103.842 34.9408L103.776 34.7385C103.754 34.6746 103.727 34.5956 103.693 34.5026L103.667 34.4302C103.525 34.0455 103.347 33.6142 103.132 33.1482C102.515 31.8128 101.721 30.4767 100.738 29.2337C100.54 28.9834 100.336 28.7389 100.126 28.5009C99.9686 28.3234 99.8783 28.0968 99.8702 27.86C99.777 25.1417 99.5007 23.1944 99.077 21.9359C98.7684 21.0191 98.4392 20.5964 98.1245 20.4723C97.9347 20.395 97.2753 20.899 97.2846 21.162C97.3437 23.0524 96.8627 25.27 96.0854 27.8139C95.7642 28.8778 95.5409 31.0577 95.6876 32.8247C95.8693 35.0137 96.5399 36.4061 97.6456 36.7895L97.7168 36.8126C98.256 36.9758 98.5609 37.5454 98.3976 38.0846C98.2343 38.6239 97.6648 38.9287 97.1255 38.7654C94.9599 38.1098 93.9015 35.9722 93.6542 32.9935C93.4865 30.973 93.7361 28.5357 94.1331 27.2209C94.8237 24.9606 95.2658 22.9522 95.2486 21.3854Z" fill="#2E186A"/>
<path fill-rule="evenodd" clip-rule="evenodd" d="M109.163 23.8778C107.156 19.525 115.794 15.9203 115.794 15.9203C117.528 15.1041 120.861 17.7906 115.658 20.3071" fill="white"/>
<path fill-rule="evenodd" clip-rule="evenodd" d="M115.436 14.9637C116.813 14.3728 118.635 15.0706 119.256 16.4452C120.017 18.13 118.848 19.8982 116.101 21.2269C115.594 21.4722 114.984 21.2599 114.738 20.7527C114.493 20.2455 114.705 19.6354 115.213 19.3901C117.091 18.4814 117.594 17.7216 117.397 17.2855C117.239 16.9362 116.633 16.6992 116.273 16.8261L116.227 16.8447L115.972 16.9571L115.918 16.9816C115.694 17.0839 115.442 17.2044 115.171 17.342C114.396 17.735 113.621 18.1833 112.904 18.6761C110.515 20.3156 109.449 21.934 110.056 23.3788L110.088 23.4521C110.324 23.9638 110.1 24.5698 109.589 24.8057C109.077 25.0415 108.471 24.8179 108.235 24.3062C107 21.627 108.589 19.1629 111.749 16.9939C112.548 16.4455 113.398 15.9532 114.248 15.5222C114.496 15.3965 114.73 15.2834 114.945 15.1834L115.245 15.0472L115.436 14.9637Z" fill="#2E186A"/>
<path fill-rule="evenodd" clip-rule="evenodd" d="M108.887 28.5716C106.881 24.2188 115.825 20.24 115.825 20.24C115.825 20.24 118.715 18.6077 119.429 21.3282C120.008 23.4707 116.743 24.2868 116.709 24.3888" fill="white"/>
<path fill-rule="evenodd" clip-rule="evenodd" d="M117.753 18.7377C119.034 18.804 120.022 19.5913 120.408 21.0614C120.827 22.6121 120.031 23.7946 118.612 24.6236C118.268 24.8246 117.922 24.9865 117.529 25.145L117.219 25.2676L117.208 25.2739C116.982 25.4033 116.706 25.4455 116.438 25.373L116.38 25.3557C115.846 25.1775 115.557 24.5997 115.735 24.0652C115.829 23.7844 115.962 23.6537 116.143 23.5312C116.178 23.508 116.21 23.4889 116.242 23.4716L116.291 23.4466C116.327 23.429 116.363 23.4132 116.405 23.3957L116.766 23.2528C117.075 23.1281 117.337 23.0053 117.583 22.862C118.299 22.4436 118.562 22.052 118.437 21.5863C118.277 20.977 118.05 20.7962 117.647 20.7754C117.379 20.7615 117.051 20.8282 116.716 20.9527L116.597 20.999C116.485 21.0443 116.398 21.0857 116.344 21.1142L116.32 21.1274C116.292 21.1433 116.263 21.1579 116.233 21.1711L116.089 21.2378L115.951 21.3035C115.716 21.417 115.453 21.5502 115.169 21.7016C114.357 22.1341 113.546 22.6233 112.793 23.1564C110.305 24.9193 109.173 26.6291 109.776 28.0717L109.808 28.1436C110.044 28.6553 109.82 29.2613 109.308 29.4971C108.797 29.733 108.191 29.5094 107.955 28.9977C106.722 26.3227 108.362 23.7955 111.614 21.4916C112.443 20.9039 113.326 20.3712 114.209 19.9008L114.511 19.7427C114.707 19.6416 114.892 19.5492 115.065 19.4659L115.252 19.3769L115.371 19.3212C115.503 19.2501 115.685 19.164 115.908 19.077L116.006 19.0397C116.536 18.8431 117.077 18.7263 117.618 18.7333L117.753 18.7377Z" fill="#2E186A"/>
<path fill-rule="evenodd" clip-rule="evenodd" d="M110.449 33.4681C109.36 33.2981 108.986 32.1079 108.986 32.1079C106.98 27.755 117.76 23.8783 117.76 23.8783C117.76 23.8783 122.045 25.3066 118.78 28.4352" fill="white"/>
<path fill-rule="evenodd" clip-rule="evenodd" d="M117.415 22.9171C117.63 22.8397 117.866 22.8369 118.083 22.9093L118.169 22.9395C118.264 22.9747 118.387 23.0245 118.531 23.0896C118.847 23.2322 119.163 23.4049 119.463 23.6119C121.388 24.9399 121.736 27.0143 119.486 29.1706C119.079 29.5604 118.434 29.5467 118.044 29.1399C117.654 28.7331 117.668 28.0873 118.074 27.6974L118.213 27.5619C119.317 26.4548 119.194 25.9054 118.304 25.2916C118.151 25.1861 117.986 25.0911 117.817 25.0084L117.744 24.9738C117.495 25.0713 117.223 25.182 116.932 25.3058L116.754 25.3816C115.73 25.8233 114.707 26.3236 113.757 26.8696C110.762 28.5919 109.335 30.2782 109.886 31.6171L109.938 31.7395L109.96 31.8008C109.98 31.8664 110.053 32.0205 110.168 32.1682C110.287 32.3192 110.412 32.4114 110.553 32.4479L110.606 32.459C111.163 32.546 111.544 33.0678 111.457 33.6245C111.37 34.1811 110.848 34.5619 110.291 34.4749C109.566 34.3616 108.991 33.9741 108.561 33.4256C108.32 33.1173 108.161 32.8135 108.064 32.559L108.034 32.4747L108.015 32.4334C107.398 30.9949 107.754 29.5369 108.844 28.1794L108.922 28.0849C109.8 27.029 111.108 26.039 112.74 25.1008C113.764 24.512 114.856 23.9786 115.946 23.5081C116.264 23.371 116.563 23.2473 116.839 23.1378L117.137 23.0214C117.262 22.9733 117.356 22.9384 117.415 22.9171Z" fill="#2E186A"/>
<path fill-rule="evenodd" clip-rule="evenodd" d="M118.644 28.6395C118.644 28.6395 108.51 32.9243 111.638 35.8149C113.679 37.4472 120.038 33.4344 120.004 31.4621C119.97 29.4557 119.46 28.8096 118.644 28.6395Z" fill="white"/>
<path fill-rule="evenodd" clip-rule="evenodd" d="M118.246 27.6988L117.899 27.8512L117.621 27.9775C117.429 28.0657 117.225 28.1617 117.012 28.265C116.094 28.7081 115.176 29.1955 114.314 29.7149C112.511 30.802 111.19 31.8789 110.515 32.9853C109.751 34.2363 109.845 35.5462 110.946 36.5632L111.001 36.6105C112.377 37.7115 114.692 37.2461 117.103 35.8762C119.362 34.5928 121.049 32.893 121.024 31.4434C120.985 29.1708 120.325 27.9467 118.852 27.6397C118.648 27.5974 118.437 27.618 118.246 27.6988ZM118.655 29.7474L118.666 29.758C118.859 29.9535 118.965 30.4141 118.983 31.4776C118.99 31.9053 117.737 33.168 116.094 34.1015L115.981 34.165C114.322 35.0833 112.824 35.3877 112.308 35.0412L112.298 35.0331L112.248 34.9832C111.988 34.706 111.997 34.4727 112.256 34.0477C112.714 33.2975 113.826 32.3909 115.367 31.4616C116.169 30.9781 117.033 30.5193 117.898 30.1017L118.194 29.9608C118.289 29.9156 118.382 29.8722 118.473 29.8308L118.655 29.7474Z" fill="#2E186A"/>
<path fill-rule="evenodd" clip-rule="evenodd" d="M94.0895 43.1569L89.3626 72.2664L70.1829 80.7341L70.1489 80.7001L18.595 101.682C12.2358 104.947 8.9712 113.414 8.18905 120.522L0.333545 168.743C-0.550625 174.15 3.15609 179.217 8.56312 179.999L73.8897 178.911C73.8897 178.911 74.2637 177.007 74.8418 174.388L97.2861 178.061L85.7579 112.802L112.147 98.6555C115.174 97.0232 116.534 91.8542 116.704 88.4195L118.71 43.1569H94.0895Z" fill="#5D21D1"/>
<path fill-rule="evenodd" clip-rule="evenodd" d="M54.1339 104.882C59.677 103.657 63.2817 98.6924 62.0574 93.1494L58.4867 76.9963C57.2625 71.4532 51.7534 67.9505 46.2104 69.1748C40.6673 70.399 37.1646 75.9081 38.3889 81.4511L41.8575 97.0601C43.0818 102.603 48.5568 106.106 54.1339 104.882Z" fill="white"/>
<path fill-rule="evenodd" clip-rule="evenodd" d="M46.1667 68.1339L45.9842 68.1726C39.8934 69.5178 36.0403 75.5695 37.3865 81.6652L40.8555 97.2755C42.1872 103.305 48.0987 107.14 54.1631 105.911L54.3385 105.874C60.5298 104.507 64.3755 98.9365 63.0475 92.9234L59.4767 76.7701C58.1466 70.7474 52.2077 66.9022 46.1667 68.1339ZM57.4833 77.2066L61.054 93.3599C62.1315 98.2388 59.0193 102.747 53.9066 103.876L53.7486 103.909C48.782 104.916 43.9381 101.773 42.8465 96.8304L39.3775 81.2201L39.3457 81.0703C38.3479 76.1762 41.4204 71.3507 46.274 70.1955L46.4207 70.1615L46.5813 70.1277C51.524 69.12 56.3936 72.2728 57.4833 77.2066Z" fill="#2E186A"/>
<path fill-rule="evenodd" clip-rule="evenodd" d="M55.128 46.9692C55.128 46.9692 46.4223 61.6941 56.5903 66.1149C56.5903 66.1149 61.0111 67.8492 62.9835 66.0469C62.9835 66.0469 59.8889 64.2105 61.1471 61.7961C61.1471 61.7961 65.908 69.5836 71.7232 64.5166C71.7232 64.5166 67.4383 62.1702 65.874 57.5453C62.6094 47.8874 57.7805 43.5686 55.128 46.9692Z" fill="#2E186A"/>
<path fill-rule="evenodd" clip-rule="evenodd" d="M31.4608 69.3456C31.4608 69.3456 23.2312 53.3286 39.3843 44.7589C40.8806 43.9768 51.2866 38.7058 56.2516 47.1054C59.5842 52.7165 61.9987 59.2117 63.529 64.3467C63.529 64.3807 66.5555 74.0385 64.5152 80.6358C62.4748 87.2331 53.9051 89.5115 48.6001 88.3553C43.2951 87.1991 42.0028 86.1109 39.7244 83.3903C37.446 80.7038 31.4608 69.3797 31.4608 69.3456Z" fill="white"/>
<path fill-rule="evenodd" clip-rule="evenodd" d="M32.7998 69.7182L32.4243 69.0065C33.1945 70.4893 32.4714 69.061 32.4714 69.343C32.4714 69.204 32.443 69.0667 32.3882 68.9395L32.284 68.7227L32.2008 68.5422C32.1573 68.4459 32.1112 68.3405 32.0627 68.2265C31.8295 67.677 31.5952 67.0486 31.3761 66.3536C30.1632 62.5047 29.9315 58.4847 31.2794 54.764C32.5947 51.1331 35.3521 48.0453 39.8529 45.6575C40.5643 45.2856 41.335 44.9287 42.3009 44.5672C43.7343 44.0308 45.191 43.6536 46.6164 43.5007C50.343 43.1011 53.3093 44.2544 55.281 47.4841L55.3648 47.6237L55.5621 47.9588C58.3801 52.7861 60.7541 58.637 62.5417 64.6354L62.5665 64.6276L62.8352 65.6939C63.0142 66.412 63.226 67.2841 63.3669 67.9634C63.9011 70.5396 64.2126 73.1098 64.1911 75.4921C64.1746 77.3103 63.9614 78.9397 63.5309 80.3317C62.6795 83.0845 60.4756 85.1946 57.3866 86.456C54.6061 87.5913 51.3459 87.909 48.8078 87.3558L48.4466 87.2761C44.2544 86.3384 42.9378 85.5839 40.7758 83.0619L40.4969 82.7327C39.5701 81.6398 37.8559 78.8467 35.7267 75.0642L35.6181 74.8711C34.9209 73.6298 34.2185 72.3524 33.5636 71.1413L32.9373 69.9762C32.8898 69.8872 32.8439 69.801 32.7998 69.7182ZM64.5081 64.0855L64.5084 64.0889L64.4999 64.056C62.6691 57.9125 60.2359 51.9158 57.3258 46.9312L57.1231 46.5869C54.7055 42.4969 50.9182 40.991 46.4017 41.4753C44.7899 41.6481 43.1715 42.0672 41.5885 42.6596C40.5335 43.0544 39.6905 43.4449 38.905 43.8555C33.9602 46.4788 30.855 49.9562 29.3638 54.0724C27.8405 58.2775 28.0971 62.7316 29.433 66.9702C29.6724 67.7301 29.9295 68.4195 30.1875 69.0272L30.2262 69.1177C30.3655 69.4415 30.4765 69.676 30.5466 69.8126L30.5886 69.7908L30.6215 69.8651L30.6955 70.0266C31.9292 72.6737 37.1775 81.9075 38.8857 83.9863L38.9396 84.0509C41.6272 87.26 43.2751 88.241 48.3761 89.3527C51.3251 89.9955 55.0049 89.6369 58.1608 88.3483C61.7769 86.8717 64.4349 84.3268 65.483 80.9379C65.9778 79.3382 66.2161 77.5169 66.2342 75.5138C66.2573 72.9678 65.929 70.2598 65.3676 67.5524C65.1998 66.7432 65.0216 65.9865 64.8406 65.2892L64.7726 65.0305C64.7304 64.8718 64.6901 64.7241 64.6513 64.5849L64.5081 64.0855Z" fill="#2E186A"/>
<path fill-rule="evenodd" clip-rule="evenodd" d="M55.502 60.4438C56.007 60.2434 56.5765 60.4743 56.8029 60.9606L56.8266 61.0157L60.2953 69.7554C60.4992 70.2691 60.2565 70.8475 59.7568 71.066L59.7003 71.0888L56.8437 72.143C56.3151 72.3381 55.7285 72.0677 55.5334 71.5391C55.3453 71.0294 55.59 70.4657 56.0816 70.2512L56.1373 70.2288L58.013 69.5363L54.9301 61.7684C54.7297 61.2634 54.9606 60.6939 55.447 60.4675L55.502 60.4438Z" fill="#2E186A"/>
<path fill-rule="evenodd" clip-rule="evenodd" d="M59.5966 61.7172C60.0627 61.5173 60.1943 60.7815 59.8907 60.0739C59.5871 59.3662 58.9631 58.9546 58.4971 59.1546C58.0311 59.3545 57.8995 60.0903 58.2031 60.7979C58.5067 61.5056 59.1306 61.9172 59.5966 61.7172Z" fill="#2E186A"/>
<path fill-rule="evenodd" clip-rule="evenodd" d="M51.4508 65.3746C51.946 65.2653 52.2129 64.5672 52.0469 63.8153C51.881 63.0633 51.345 62.5423 50.8498 62.6516C50.3547 62.7609 50.0878 63.4591 50.2537 64.211C50.4197 64.9629 50.9556 65.4839 51.4508 65.3746Z" fill="#2E186A"/>
<path fill-rule="evenodd" clip-rule="evenodd" d="M47.1451 57.6013C47.6976 57.4908 48.235 57.8491 48.3455 58.4016C48.4521 58.9344 48.1227 59.4532 47.6037 59.5886L47.5452 59.6021C46.7841 59.7543 46.2091 60.1089 45.773 60.6132C45.5649 60.8536 45.4023 61.1132 45.2819 61.3708C45.2512 61.4366 45.2253 61.4977 45.2041 61.5531L45.1678 61.6549C45.0216 62.1991 44.462 62.5217 43.9179 62.3755C43.3737 62.2293 43.0511 61.6697 43.1973 61.1255C43.2362 60.9806 43.3118 60.7671 43.4335 60.5068C43.6295 60.0873 43.8911 59.6698 44.2298 59.2783C44.9516 58.4439 45.9207 57.8462 47.1451 57.6013Z" fill="#2E186A"/>
<path fill-rule="evenodd" clip-rule="evenodd" d="M55.3445 53.3969C56.2939 52.8228 57.2723 52.4952 58.2586 52.5694C58.8611 52.6147 59.4304 52.8142 59.9397 53.178C60.3982 53.5055 60.5043 54.1426 60.1769 54.6011C59.862 55.042 59.2608 55.1571 58.8074 54.8742L58.7537 54.8383C58.5543 54.6959 58.3432 54.6219 58.1055 54.604C57.6195 54.5674 57.02 54.7682 56.4002 55.1429C56.2303 55.2457 56.0697 55.3549 55.9222 55.4651L55.8141 55.5477C55.7559 55.5933 55.7088 55.6318 55.6738 55.6613L55.6161 55.7115C55.2013 56.0928 54.5559 56.0655 54.1746 55.6506C53.7934 55.2357 53.8207 54.5904 54.2356 54.2091C54.4695 53.9942 54.8511 53.6953 55.3445 53.3969Z" fill="#2E186A"/>
<path fill-rule="evenodd" clip-rule="evenodd" d="M40.9491 53.6321C40.9491 53.6321 51.1171 76.2465 35.7801 80.9734C35.7801 80.9734 26.8704 83.9319 24.3199 81.0074C24.3199 81.0074 30.4411 76.5185 29.0468 72.8458C29.0468 72.8458 22.7896 82.0956 15.4442 77.1986C15.4442 77.1986 25.9862 73.832 23.6058 64.2081C21.9055 57.3388 37.7185 48.3271 40.9491 53.6321Z" fill="#2E186A"/>
<path fill-rule="evenodd" clip-rule="evenodd" d="M14.2199 64.5853L22.9256 60.1645C21.8374 53.6692 22.5175 43.6373 34.6919 37.9922C53.7355 29.1505 60.6729 48.1942 60.6729 48.1942L17.0765 70.2304C15.5122 71.0125 13.6418 70.4004 12.8597 68.8361C12.0435 67.2718 12.6556 65.4015 14.2199 64.5853Z" fill="#00AC45"/>
<path fill-rule="evenodd" clip-rule="evenodd" d="M51.401 74.8732C51.8081 74.5157 52.4197 74.5405 52.7967 74.9193L52.8408 74.9664C52.9158 75.0519 53.1132 75.224 53.4193 75.4057C54.5384 76.0701 55.9443 76.1581 57.7298 75.2421C58.2311 74.9849 58.846 75.1828 59.1032 75.6841C59.3604 76.1854 59.1625 76.8003 58.6612 77.0575C56.2284 78.3056 54.0805 78.1712 52.3776 77.1601C52.0854 76.9867 51.8306 76.7996 51.6128 76.6097C51.4736 76.4883 51.3719 76.386 51.3078 76.313C50.936 75.8897 50.9777 75.2451 51.401 74.8732Z" fill="#2E186A"/>
<path fill-rule="evenodd" clip-rule="evenodd" d="M87.4276 164.593C87.4276 164.593 93.2767 164.253 99.4999 165.341C103.207 165.987 109.498 167.075 110.144 168.028C111.64 170.272 105.961 171.428 103.275 169.558" fill="white"/>
<path fill-rule="evenodd" clip-rule="evenodd" d="M88.0039 163.548C91.4574 163.438 95.5837 163.621 99.674 164.336L102.259 164.793C102.614 164.858 102.941 164.918 103.279 164.982L103.693 165.061C106.148 165.532 107.983 165.959 109.19 166.377C110.105 166.693 110.672 166.99 110.992 167.462C111.608 168.386 111.535 169.402 110.829 170.168C110.308 170.733 109.484 171.121 108.49 171.334C106.517 171.756 104.196 171.443 102.691 170.395C102.228 170.074 102.114 169.438 102.436 168.975C102.758 168.513 103.394 168.399 103.856 168.721C104.854 169.415 106.603 169.651 108.063 169.339C108.645 169.214 109.085 169.016 109.292 168.822L109.328 168.785C109.37 168.741 109.384 168.734 109.364 168.699L109.339 168.66L109.289 168.629L109.22 168.591C109.057 168.505 108.822 168.408 108.523 168.305C107.534 167.963 105.987 167.593 103.938 167.188L102.701 166.95C101.806 166.782 100.931 166.627 99.3231 166.346C95.5139 165.68 91.6446 165.493 88.3828 165.579L87.8781 165.594L87.4857 165.612C86.9232 165.644 86.4407 165.215 86.408 164.652C86.3765 164.11 86.7747 163.642 87.3075 163.58L87.3891 163.574L87.7084 163.559C87.7991 163.555 87.8977 163.552 88.0039 163.548Z" fill="#2E186A"/>
<path fill-rule="evenodd" clip-rule="evenodd" d="M103.103 172.72C108.374 174.318 108.952 173.128 107.83 170.816C107.184 169.489 98.4443 165.919 96.71 165.408C94.9757 164.898 85.6239 164.218 85.6239 164.218L78.6185 163.47C76.6461 167.857 75.0138 175.61 74.4697 178.229C84.4676 177.923 98.1043 178.025 98.1043 178.025C103.341 178.365 101.607 176.018 99.4645 175.236C97.2881 174.454 93.3433 172.618 92.7652 172.754C92.7652 172.754 98.4103 174.352 100.961 175.95C102.763 176.665 104.804 175.44 104.974 174.862C105.178 174.284 103.511 172.72 100.757 171.326C98.0022 169.931 94.4316 168.707 94.4316 168.707" fill="white"/>
<path fill-rule="evenodd" clip-rule="evenodd" d="M77.6898 163.051C77.8622 162.667 78.2505 162.431 78.6661 162.45L78.7287 162.455L85.732 163.202L86.1911 163.236L87.0902 163.306L88.4832 163.419C89.3148 163.489 90.1379 163.561 90.931 163.635L91.8748 163.725C93.0344 163.838 94.0431 163.949 94.8651 164.055L95.3095 164.115C96.0847 164.223 96.6453 164.324 96.9997 164.429L97.2074 164.493C98.313 164.849 100.704 165.803 102.814 166.747L103.441 167.03C106.517 168.436 108.313 169.472 108.75 170.369C109.57 172.06 109.638 173.38 108.38 174.114C107.838 174.431 107.101 174.533 106.118 174.437L105.963 174.42L105.968 174.439C106.025 174.681 106.024 174.916 105.957 175.14L105.954 175.149C105.664 176.136 104.224 176.965 102.69 177.138L102.575 177.149L102.572 177.214C102.527 177.937 102.021 178.486 101.243 178.777L101.159 178.807C100.494 179.034 99.574 179.117 98.3741 179.061L98.0676 179.044L96.6035 179.036L95.1258 179.031C90.8946 179.019 86.3052 179.035 81.9019 179.093L80.2831 179.117C78.1939 179.151 76.2578 179.194 74.5027 179.248C73.8433 179.268 73.3384 178.666 73.4727 178.02L73.6142 177.344C74.8871 171.302 76.1505 166.474 77.6898 163.051ZM85.5211 165.232L79.2627 164.564L79.2396 164.62C78.0199 167.576 76.9459 171.614 75.8838 176.506L75.7403 177.171L77.1359 177.137C77.9797 177.118 78.8553 177.101 79.7603 177.085L81.1008 177.064C86.0099 176.993 91.1884 176.977 95.8794 176.993L98.1174 177.004L98.1759 177.006C99.1562 177.07 99.8782 177.034 100.328 176.927L100.343 176.922L100.298 176.88L100.237 176.827C99.9459 176.579 99.5401 176.347 99.125 176.196L98.9286 176.124C98.4879 175.962 98.0084 175.773 97.2793 175.475L95.045 174.558L94.7068 174.421L94.342 174.302L93.9348 174.172L93.5638 174.056C93.4434 174.018 93.3264 173.983 93.2131 173.948L92.4928 173.735C91.4799 173.448 91.5123 172.001 92.5371 171.76L92.6346 171.739C93.1071 171.65 93.5446 171.755 95.2312 172.431L95.4369 172.514L95.8092 172.638C96.3653 172.826 96.9148 173.021 97.4488 173.22L97.8463 173.37C99.2321 173.902 100.388 174.423 101.275 174.945L101.412 175.027L101.436 175.036C101.94 175.206 102.531 175.177 103.112 174.977L103.221 174.937C103.425 174.859 103.615 174.764 103.771 174.664L103.8 174.645L103.784 174.627C103.681 174.512 103.55 174.382 103.393 174.241L103.312 174.17C102.597 173.55 101.538 172.861 100.302 172.235C99.8289 171.996 99.3103 171.751 98.7533 171.503C97.7385 171.051 96.6473 170.61 95.5557 170.198L95.0038 169.993C94.8275 169.928 94.6593 169.867 94.5002 169.81L94.1062 169.672C93.5732 169.489 93.2893 168.909 93.472 168.376C93.6482 167.862 94.194 167.579 94.7107 167.724L94.7865 167.748L95.1871 167.889L95.5279 168.012C95.7629 168.098 96.013 168.19 96.2755 168.289C97.4017 168.714 98.5284 169.169 99.5835 169.639C100.17 169.9 100.718 170.159 101.223 170.415C102.081 170.849 102.861 171.301 103.532 171.758L103.591 171.799L103.75 171.846L104.101 171.945C104.957 172.182 105.664 172.33 106.225 172.395L106.329 172.406C106.795 172.452 107.11 172.433 107.272 172.386L107.293 172.379L107.293 172.365C107.282 172.149 107.174 171.806 106.965 171.359L106.919 171.262C106.792 171.002 104.838 169.899 102.263 168.735L101.707 168.486C99.6454 167.575 97.3743 166.675 96.4861 166.404L96.4277 166.387C96.1778 166.313 95.6405 166.218 94.8837 166.116L94.4432 166.058C93.5648 165.947 92.4719 165.831 91.2131 165.711C90.2854 165.622 89.3073 165.536 88.3165 165.453L86.7449 165.326L85.5211 165.232Z" fill="#2E186A"/>
<path fill-rule="evenodd" clip-rule="evenodd" d="M41.7898 133.309C42.3317 133.348 42.7442 133.804 42.7367 134.34L42.7342 134.4L41.4099 152.811L79.1072 157.254C79.6467 157.318 80.0381 157.792 80.0062 158.327L80.0009 158.387C79.9373 158.926 79.4636 159.318 78.9281 159.286L78.8683 159.281L40.2029 154.724C39.6813 154.662 39.2951 154.216 39.3022 153.697L39.3048 153.637L40.699 134.254C40.738 133.712 41.1935 133.299 41.7299 133.307L41.7898 133.309Z" fill="white"/>
</g>
</svg>
