<svg width="13" height="13" viewBox="0 0 13 13" fill="none" xmlns="http://www.w3.org/2000/svg">
<path d="M12.0165 6.41139L6.7873 1.18599C6.74965 1.14827 6.70493 1.11834 6.6557 1.09792C6.60647 1.0775 6.55369 1.06699 6.50039 1.06699C6.44709 1.06699 6.39431 1.0775 6.34508 1.09792C6.29585 1.11834 6.25113 1.14827 6.21348 1.18599L0.984277 6.41139C0.831934 6.56373 0.745605 6.77066 0.745605 6.98648C0.745605 7.43463 1.10996 7.79898 1.55811 7.79898H2.10908V11.5276C2.10908 11.7523 2.29063 11.9338 2.51533 11.9338H5.68789V9.0901H7.10977V11.9338H10.4854C10.7102 11.9338 10.8917 11.7523 10.8917 11.5276V7.79898H11.4427C11.6585 7.79898 11.8654 7.71392 12.0178 7.56031C12.3339 7.24293 12.3339 6.72877 12.0165 6.41139Z" fill="#8C8C8C"/>
</svg>
