<svg width="430" height="190" fill="none" xmlns="http://www.w3.org/2000/svg"><path fill-rule="evenodd" clip-rule="evenodd" d="M14.059 47.15c.065-.636.634-1.098 1.27-1.033 13.749 1.41 27.494 5.98 40.718 12.714a148.704 148.704 0 0 1 15.398 9.035l.594.401c1.267.862 2.41 1.67 3.42 2.413l.231.17c.375.277.707.528.996.749l.513.399a1.158 1.158 0 0 1-1.388 1.852l-.107-.081c-.066-.053-.17-.134-.31-.242l-.499-.38a80.943 80.943 0 0 0-.428-.32l-.154-.114a113.553 113.553 0 0 0-4.16-2.924 146.4 146.4 0 0 0-15.157-8.894c-12.988-6.614-26.47-11.097-39.903-12.474a1.158 1.158 0 0 1-1.034-1.27Z" fill="#2E186A"/><path fill-rule="evenodd" clip-rule="evenodd" d="M16.832 47.732c.733-2.316 5.829-19.225-5.019-16.522-5.327 1.35-4.285 5.327-1.776 9.072-3.397-2.664-7.18-3.822-9.42 1.428-2.161 5.096 1.7 6.64 6.177 6.91-4.169 1.081-7.412 3.397-4.593 8.377 5.404 9.458 14.052-7.952 14.63-9.149-.038-.038 0-.077 0-.116 0 .039 0 .039 0 0 0 .039 0 .039 0 0 0 0 0 .039 0 0Z" fill="#5D21D1"/><path fill-rule="evenodd" clip-rule="evenodd" d="M25.535 48.071a1.158 1.158 0 0 1 1.185 1.989l-.06.036-6.602 3.667a1.158 1.158 0 0 1-1.185-1.988l.06-.036 6.602-3.668ZM28.247 40.037a1.158 1.158 0 0 1 1.36.823l.016.066 1.891 8.802a1.158 1.158 0 0 1-2.248.553l-.016-.066-1.892-8.802a1.158 1.158 0 0 1 .889-1.376Z" fill="#2E186A"/><path fill-rule="evenodd" clip-rule="evenodd" d="m67.635 86.22-46.672 1.776a3.495 3.495 0 0 1-3.629-3.358l-.926-24.32a3.495 3.495 0 0 1 3.358-3.63l46.673-1.775a3.495 3.495 0 0 1 3.628 3.358l.927 24.321a3.495 3.495 0 0 1-3.359 3.629Z" fill="#fff"/><path fill-rule="evenodd" clip-rule="evenodd" d="m66.392 53.755-46.67 1.776a4.654 4.654 0 0 0-4.472 4.833l.926 24.318a4.654 4.654 0 0 0 4.833 4.472l46.67-1.776a4.654 4.654 0 0 0 4.472-4.832l-.927-24.321a4.653 4.653 0 0 0-4.832-4.47Zm.09 2.315a2.337 2.337 0 0 1 2.423 2.16l.005.086.926 24.32a2.338 2.338 0 0 1-2.247 2.428l-46.67 1.775a2.338 2.338 0 0 1-2.428-2.247l-.927-24.319a2.338 2.338 0 0 1 2.248-2.427l46.67-1.776Z" fill="#2E186A"/><path fill-rule="evenodd" clip-rule="evenodd" d="M67.328 55.554a1.158 1.158 0 0 1 1.594 1.678l-.053.05-19.648 17.526c-2.582 2.31-6.437 2.541-9.241.55L17.233 58.862a1.158 1.158 0 0 1 1.3-1.916l.06.041 22.632 16.415c1.9 1.41 4.548 1.3 6.353-.234l.1-.087 19.65-17.526Z" fill="#2E186A"/><path fill-rule="evenodd" clip-rule="evenodd" d="M263.821 107.646c2.278 5.289 12.894 20.113 12.894 20.113l31.887 15.596a7.157 7.157 0 0 1 3.938 5.25l6.408 37.523c.463 2.432 2.78 4.092 5.25 3.706 2.51-.386 4.285-2.741 3.899-5.25l-5.25-45.9c-.347-2.934-2.2-5.521-4.903-6.718-5.559-2.47-15.171-10.152-20.344-33.971-4.941-22.892-8.647-27.911-8.647-27.911l-25.132 37.562Z" fill="#A1F7C4"/><path fill-rule="evenodd" clip-rule="evenodd" d="M321.361 179.223a.964.964 0 0 1 1.048.8l.009.063.656 6.524a.965.965 0 0 1-1.912.257l-.009-.063-.656-6.524a.965.965 0 0 1 .864-1.057ZM324.41 178.914a.966.966 0 0 1 1.049.801l.008.063.656 6.524a.965.965 0 0 1-1.912.256l-.008-.063-.656-6.524a.964.964 0 0 1 .863-1.057Z" fill="#2E186A"/><path fill-rule="evenodd" clip-rule="evenodd" d="M148.588 91.78c.386.656-58.563 82.342-58.563 82.342a5.293 5.293 0 0 0 0 7.335c1.93 2.046 5.135 2.201 7.296.425l86.474-89.292-35.207-.81Z" fill="#A1F7C4"/><path fill-rule="evenodd" clip-rule="evenodd" d="M94.112 171.08a.964.964 0 0 1 1.594 1.086l-.04.057-3.86 5.25a.964.964 0 0 1-1.594-1.086l.04-.057 3.86-5.25ZM96.582 172.894a.965.965 0 0 1 1.594 1.087l-.04.056-3.86 5.251a.965.965 0 0 1-1.593-1.087l.038-.057 3.86-5.25ZM65.01 31.017s8.3-19.881 26.135-19.572c17.835.308 23.433 10.461 32.35 4.902 8.879-5.482 22.352-12.121 40.226-4.71 18.453 7.644 11.427-1.003 36.288-10.5 13.318-5.096 42.271 7.374 28.104 28.606-14.13 21.232-41.886-2.51-52.386 9.188-10.501 11.697-19.071 19.88-37.022 9.612-17.951-10.23-73.695-17.526-73.695-17.526ZM278.452 68.116c1.12-1.274 1.93-11.582 16.523-20.036 14.631-8.454 34.396-13.434 66.129 7.875 7.643 5.637 35.13 10.269 51.807-.81 6.446-4.286 15.171-.039 15.943 7.643 1.699 16.6-1.737 38.913-27.911 50.765-45.012 20.383-65.086-25.402-84.35-37.215-19.263-11.813-27.602-6.37-27.602-6.37l-10.539-1.852Z" fill="#2E186A"/><path fill-rule="evenodd" clip-rule="evenodd" d="M291.114 101.547c3.205-4.865 4.208-10.385 4.903-16.137 1.66-14.36-6.138-28.374-23.664-34.86-17.295-6.408-40.419 7.798-106.046-1.235l.155-.54-84.273-18.8c1.891-3.05 4.014-7.644 1.428-9.459-4.015-2.818-11.504 6.756-11.504 6.756l-3.281-.926s-.464-8.378-6.409-8.88c-2.2-.154-4.246.155-2.123 9.767-2.74.464-22.854 22.815-25.595 26.02-2.78 3.165-.887 11.658 7.026 11.427 7.914-.232 8.107-10.308 8.107-10.308s18.183.31 26.212-7.72l70.646 64.507.039-.077c.116.154.193.309.309.463.231.347.54.733.849 1.081 1.699 6.949 4.015 12.122 4.015 12.122-1.313.849-16.214 9.496-23.549 13.781-2.47 1.429-3.937 4.208-3.667 7.065.54 6.447 2.162 18.955 3.011 25.054a5.634 5.634 0 0 0 3.899 4.594l16.021 4.285c2.548.733 5.173-.849 5.752-3.397a4.572 4.572 0 0 0-2.741-5.212c-2.857-1.196-7.991-2.741-9.883-3.474a3.88 3.88 0 0 1-2.548-3.436l-.926-14.09a3.79 3.79 0 0 1 3.088-4.015l28.374-5.135c6.177-1.119 10.964-6.022 11.929-12.199l1.081-7.026c23.317 1.274 52.965-1.119 73-3.783-.463 2.78.116 5.636 1.583 8.069l12.778 20.383a8.788 8.788 0 0 1 0 9.303l-16.291 26.251c-1.621 2.78-.039 6.37 3.127 6.987 1.737.348 3.552-.347 4.633-1.737l25.864-31.269c2.818-3.436 3.32-8.184 1.313-12.161-2.741-5.365-5.173-14.515-1.042-27.37 1.775-6.022 3.242-10.848 4.4-14.669Z" fill="#00AC45"/><path fill-rule="evenodd" clip-rule="evenodd" d="M142.024 175.248a.964.964 0 0 1 1.131-.679l.061.015 6.64 1.892a.965.965 0 0 1-.467 1.872l-.062-.016-6.64-1.891a.965.965 0 0 1-.663-1.193ZM142.911 172.121a.965.965 0 0 1 1.131-.679l.062.015 6.64 1.892a.965.965 0 0 1-.468 1.871l-.061-.015-6.64-1.892a.965.965 0 0 1-.664-1.192ZM257.448 179.3a.965.965 0 0 1 1.59 1.093l-.039.057-3.552 4.787a.966.966 0 0 1-1.589-1.094l.039-.057 3.551-4.786ZM259.726 180.998a.966.966 0 0 1 1.59 1.093l-.039.057-3.552 4.787a.965.965 0 0 1-1.589-1.093l.039-.057 3.551-4.787ZM65.643 34.852a1.158 1.158 0 0 1 1.322.968l.01.075c.006.044.011.096.017.157a5.674 5.674 0 0 1-.266 2.336c-.54 1.575-1.809 2.628-3.79 2.778-2.154.164-3.558-.885-4.151-2.604a5.914 5.914 0 0 1-.303-2.199l.005-.088.003-.033a1.158 1.158 0 0 1 2.311.136l-.005.096a3.891 3.891 0 0 0 .179 1.333c.266.773.743 1.129 1.785 1.05 1.026-.078 1.525-.493 1.775-1.221.137-.4.18-.85.158-1.25l-.009-.132a2.017 2.017 0 0 0-.008-.08 1.158 1.158 0 0 1 .967-1.322Z" fill="#2E186A"/><path fill-rule="evenodd" clip-rule="evenodd" d="M50.803 37.04s2.24 1.775 4.054-1.854l-4.054 1.853Z" fill="#fff"/><path fill-rule="evenodd" clip-rule="evenodd" d="M53.821 34.668a1.158 1.158 0 0 1 2.072 1.036c-.322.645-.677 1.18-1.065 1.61-1.29 1.43-2.816 1.61-4.142.992a3.06 3.06 0 0 1-.602-.36 1.158 1.158 0 0 1 1.38-1.858l.06.044c.001.001.053.034.138.074.467.217.896.167 1.446-.443.24-.267.48-.629.713-1.095Z" fill="#2E186A"/><path fill-rule="evenodd" clip-rule="evenodd" d="M61.265 18.625c1.12 1.312 4.015 4.555 4.13 7.682l-4.13-7.682Z" fill="#fff"/><path fill-rule="evenodd" clip-rule="evenodd" d="M60.514 17.744c.467-.4 1.161-.361 1.583.075l.145.166.278.326c.167.196.314.37.462.55.385.466.736.917 1.07 1.38 1.34 1.853 2.214 3.63 2.446 5.382.029.215.047.43.055.641a1.158 1.158 0 0 1-2.31.154l-.005-.068a4.454 4.454 0 0 0-.036-.422c-.172-1.297-.89-2.76-2.026-4.33a24.97 24.97 0 0 0-.981-1.264l-.322-.384-.49-.574a1.158 1.158 0 0 1 .13-1.632Z" fill="#2E186A"/><path fill-rule="evenodd" clip-rule="evenodd" d="M83.54 21.52c-4.71 1.236-8.416 7.644-8.416 7.644l8.416-7.644Z" fill="#fff"/><path fill-rule="evenodd" clip-rule="evenodd" d="M83.246 20.4a1.158 1.158 0 1 1 .587 2.24c-1.615.424-3.29 1.63-4.912 3.385a23.814 23.814 0 0 0-2.529 3.288l-.198.317-.068.114a1.158 1.158 0 1 1-2.005-1.16l.119-.198.108-.175a26.1 26.1 0 0 1 2.87-3.757c1.895-2.051 3.906-3.498 6.028-4.054ZM41.432 53.403c-.156 1.251.546 2.48 1.772 2.633 1.226.153 2.21-.865 2.366-2.116.156-1.252-.546-2.48-1.772-2.634-1.226-.153-2.21.865-2.366 2.117ZM36.962 54.665c-.156 1.252.546 2.48 1.772 2.634 1.226.153 2.209-.865 2.365-2.117.157-1.252-.545-2.48-1.771-2.633-1.226-.154-2.21.864-2.366 2.116Z" fill="#2E186A"/><path fill-rule="evenodd" clip-rule="evenodd" d="M257.066 74.64s8.724-.54 9.226-6.602c.463-6.06-5.327-5.79-6.679-3.358l-.27-.039c-.116-2.78-5.211-5.598-7.489.077-2.278 5.598 5.173 9.921 5.212 9.921Z" fill="#fff"/><path fill-rule="evenodd" clip-rule="evenodd" d="M181.633 121.235c.463-3.899-.734-15.905-.541-15.558.193.348 15.712 15.789 35.478 15.558 0-.039-33.586 1.737-34.937 0ZM255.097 115.946c.695-3.088 1.853-7.142 3.088-11.157-4.98 4.98-13.164 12.392-25.092 15.249 0 0 13.125-1.197 21.772-2.393.039-.232.193-1.467.232-1.699ZM80.722 36.846s0 5.945-4.98 10.115c4.555 4.169 11.774 10.23 11.774 10.191 4.44-11.543-2.934-17.179-6.794-20.306Z" fill="#2E186A"/></svg>