<svg width="658" height="537" viewBox="0 0 658 537" fill="none" xmlns="http://www.w3.org/2000/svg">
<g filter="url(#filter0_d_6736_30096)">
<path d="M621 14H33C30.2386 14 28 16.2386 28 19V486C28 488.761 30.2386 491 33 491H621C623.761 491 626 488.761 626 486V19C626 16.2386 623.761 14 621 14Z" fill="white"/>
<path d="M113.951 385H115.78V120.914C115.78 120.409 115.37 120 114.866 120C114.361 120 113.951 120.409 113.951 120.914V385Z" fill="#E8E8E8"/>
<path d="M309.627 385H311.456V391.397C311.456 391.901 311.046 392.31 310.541 392.31C310.037 392.31 309.627 391.901 309.627 391.397V385Z" fill="#E8E8E8"/>
<path d="M229.162 385H230.991V391.397C230.991 391.901 230.581 392.31 230.076 392.31C229.572 392.31 229.162 391.901 229.162 391.397V385Z" fill="#E8E8E8"/>
<path d="M587.596 385H589.425V391.397C589.425 391.901 589.015 392.31 588.511 392.31C588.006 392.31 587.596 391.901 587.596 391.397V385Z" fill="#E8E8E8"/>
<path d="M472.385 385H474.214V391.397C474.214 391.901 473.804 392.31 473.3 392.31C472.795 392.31 472.385 391.901 472.385 391.397V385Z" fill="#E8E8E8"/>
<path d="M390.092 385H391.921V391.397C391.921 391.901 391.511 392.31 391.006 392.31C390.501 392.31 390.092 391.901 390.092 391.397V385Z" fill="#E8E8E8"/>
<path d="M589.425 173L589.425 174.828L113.951 174.828L113.951 173L589.425 173Z" fill="#E8E8E8"/>
<path d="M589.425 226L589.425 227.828L113.951 227.828L113.951 226L589.425 226Z" fill="#E8E8E8"/>
<path d="M589.425 279L589.425 280.828L113.951 280.828L113.951 279L589.425 279Z" fill="#E8E8E8"/>
<path d="M589.425 332L589.425 333.828L113.951 333.828L113.951 332L589.425 332Z" fill="#E8E8E8"/>
<path d="M589.425 385L589.425 386.828L113.951 386.828L113.951 385L589.425 385Z" fill="#E8E8E8"/>
<path d="M589.425 120L589.425 121.828L113.951 121.828L113.951 120L589.425 120Z" fill="#E8E8E8"/>
<path d="M86.2775 273.225C86.1299 272.609 85.8618 272.147 85.4729 271.838C85.0839 271.529 84.5408 271.375 83.8435 271.375C82.7841 271.375 81.9928 271.785 81.4697 272.602C80.9467 273.406 80.6719 274.745 80.645 276.622C80.9937 276.032 81.5032 275.577 82.1738 275.255C82.8444 274.934 83.5686 274.773 84.3464 274.773C85.2315 274.773 86.0092 274.967 86.6798 275.356C87.3638 275.731 87.8936 276.281 88.269 277.004C88.658 277.728 88.8524 278.593 88.8524 279.598C88.8524 280.535 88.6646 281.374 88.2891 282.111C87.927 282.847 87.3839 283.43 86.6597 283.86C85.9355 284.275 85.0638 284.483 84.0446 284.483C82.6634 284.483 81.5771 284.181 80.7858 283.578C80.008 282.962 79.4581 282.098 79.1363 280.985C78.8277 279.872 78.6736 278.485 78.6736 276.823C78.6736 271.918 80.4036 269.466 83.8636 269.466C85.2046 269.466 86.2574 269.827 87.0218 270.551C87.7996 271.275 88.2557 272.167 88.3897 273.225H86.2775ZM83.8435 276.703C83.0255 276.703 82.328 276.951 81.7514 277.447C81.1881 277.929 80.9065 278.633 80.9065 279.558C80.9065 280.482 81.168 281.219 81.691 281.769C82.2274 282.304 82.9717 282.573 83.9239 282.573C84.7688 282.573 85.4326 282.312 85.9154 281.789C86.4116 281.266 86.6597 280.57 86.6597 279.698C86.6597 278.786 86.4183 278.063 85.9355 277.527C85.4661 276.977 84.7688 276.703 83.8435 276.703ZM91.2985 276.964C91.2985 274.645 91.6875 272.836 92.4653 271.536C93.2566 270.222 94.6111 269.566 96.5287 269.566C98.4465 269.566 99.7943 270.222 100.572 271.536C101.363 272.836 101.759 274.645 101.759 276.964C101.759 279.309 101.363 281.146 100.572 282.473C99.7943 283.787 98.4465 284.443 96.5287 284.443C94.6111 284.443 93.2566 283.787 92.4653 282.473C91.6875 281.146 91.2985 279.309 91.2985 276.964ZM99.5059 276.964C99.5059 275.879 99.4322 274.961 99.2847 274.21C99.1506 273.459 98.869 272.85 98.4398 272.381C98.0107 271.898 97.3736 271.657 96.5287 271.657C95.6838 271.657 95.0469 271.898 94.6177 272.381C94.1887 272.85 93.9003 273.459 93.7527 274.21C93.6187 274.961 93.5515 275.879 93.5515 276.964C93.5515 278.09 93.6187 279.035 93.7527 279.799C93.8869 280.563 94.1686 281.179 94.5976 281.648C95.0401 282.118 95.6838 282.352 96.5287 282.352C97.3736 282.352 98.0107 282.118 98.4398 281.648C98.8823 281.179 99.1707 280.563 99.3048 279.799C99.439 279.035 99.5059 278.09 99.5059 276.964Z" fill="#262626"/>
<path d="M116.987 406.723C116.987 404.404 117.376 402.594 118.154 401.295C118.945 399.981 120.299 399.325 122.217 399.325C124.135 399.325 125.483 399.981 126.26 401.295C127.052 402.594 127.447 404.404 127.447 406.723C127.447 409.068 127.052 410.904 126.26 412.231C125.483 413.545 124.135 414.201 122.217 414.201C120.299 414.201 118.945 413.545 118.154 412.231C117.376 410.904 116.987 409.068 116.987 406.723ZM125.194 406.723C125.194 405.637 125.121 404.72 124.973 403.969C124.839 403.217 124.557 402.609 124.128 402.139C123.699 401.657 123.062 401.415 122.217 401.415C121.372 401.415 120.735 401.657 120.306 402.139C119.877 402.609 119.589 403.217 119.441 403.969C119.307 404.72 119.24 405.637 119.24 406.723C119.24 407.849 119.307 408.793 119.441 409.557C119.575 410.321 119.857 410.937 120.286 411.407C120.728 411.877 121.372 412.111 122.217 412.111C123.062 412.111 123.699 411.877 124.128 411.407C124.571 410.937 124.859 410.321 124.993 409.557C125.127 408.793 125.194 407.849 125.194 406.723ZM139.167 401.355L133.575 414.241H131.262L136.914 401.596H129.471V399.646H139.167V401.355ZM121.855 433.166C123.344 433.166 124.644 433.455 125.757 434.031C126.884 434.593 127.749 435.41 128.352 436.483C128.969 437.541 129.278 438.782 129.278 440.202C129.278 441.622 128.969 442.856 128.352 443.901C127.749 444.947 126.884 445.751 125.757 446.314C124.644 446.864 123.344 447.138 121.855 447.138H117.289V433.166H121.855ZM121.855 445.268C123.491 445.268 124.745 444.826 125.617 443.942C126.488 443.057 126.924 441.811 126.924 440.202C126.924 438.581 126.488 437.315 125.617 436.403C124.745 435.491 123.491 435.036 121.855 435.036H119.582V445.268H121.855ZM141.709 441.328C141.709 441.743 141.683 442.119 141.629 442.454H133.16C133.227 443.338 133.556 444.049 134.146 444.585C134.736 445.12 135.46 445.389 136.318 445.389C137.552 445.389 138.424 444.874 138.933 443.841H141.408C141.072 444.859 140.462 445.698 139.577 446.354C138.705 446.997 137.619 447.319 136.318 447.319C135.259 447.319 134.307 447.085 133.462 446.615C132.63 446.133 131.973 445.462 131.49 444.605C131.021 443.733 130.786 442.728 130.786 441.589C130.786 440.451 131.014 439.451 131.47 438.594C131.94 437.722 132.59 437.053 133.421 436.584C134.266 436.114 135.232 435.88 136.318 435.88C137.364 435.88 138.296 436.109 139.114 436.564C139.932 437.019 140.569 437.662 141.025 438.494C141.481 439.31 141.709 440.255 141.709 441.328ZM139.315 440.604C139.302 439.76 139 439.084 138.41 438.574C137.82 438.064 137.089 437.81 136.218 437.81C135.426 437.81 134.749 438.064 134.186 438.574C133.623 439.069 133.287 439.747 133.18 440.604H139.315ZM143.202 441.589C143.202 440.451 143.43 439.451 143.886 438.594C144.355 437.722 144.999 437.053 145.817 436.584C146.635 436.114 147.574 435.88 148.633 435.88C149.974 435.88 151.08 436.202 151.952 436.845C152.837 437.476 153.434 438.38 153.743 439.559H151.268C151.067 439.009 150.745 438.581 150.303 438.272C149.86 437.964 149.304 437.81 148.633 437.81C147.694 437.81 146.943 438.144 146.38 438.815C145.83 439.471 145.555 440.396 145.555 441.589C145.555 442.783 145.83 443.713 146.38 444.384C146.943 445.055 147.694 445.389 148.633 445.389C149.961 445.389 150.839 444.806 151.268 443.64H153.743C153.421 444.766 152.817 445.663 151.932 446.334C151.047 446.99 149.947 447.319 148.633 447.319C147.574 447.319 146.635 447.085 145.817 446.615C144.999 446.133 144.355 445.462 143.886 444.605C143.43 443.733 143.202 442.728 143.202 441.589Z" fill="#262626"/>
<path d="M218.298 406.723C218.298 404.404 218.687 402.594 219.464 401.295C220.256 399.981 221.609 399.325 223.528 399.325C225.446 399.325 226.794 399.981 227.571 401.295C228.363 402.594 228.758 404.404 228.758 406.723C228.758 409.068 228.363 410.904 227.571 412.231C226.794 413.545 225.446 414.201 223.528 414.201C221.609 414.201 220.256 413.545 219.464 412.231C218.687 410.904 218.298 409.068 218.298 406.723ZM226.505 406.723C226.505 405.637 226.432 404.72 226.284 403.969C226.15 403.217 225.869 402.609 225.439 402.139C225.009 401.657 224.373 401.415 223.528 401.415C222.683 401.415 222.047 401.657 221.617 402.139C221.187 402.609 220.9 403.217 220.752 403.969C220.618 404.72 220.551 405.637 220.551 406.723C220.551 407.849 220.618 408.793 220.752 409.557C220.885 410.321 221.167 410.937 221.597 411.407C222.039 411.877 222.683 412.111 223.528 412.111C224.373 412.111 225.009 411.877 225.439 411.407C225.881 410.937 226.17 410.321 226.304 409.557C226.437 408.793 226.505 407.849 226.505 406.723ZM240.478 401.355L234.886 414.241H232.573L238.225 401.596H230.782V399.646H240.478V401.355ZM219.269 433.166V443.238C219.269 444.484 218.886 445.469 218.122 446.193C217.372 446.917 216.379 447.279 215.145 447.279C213.912 447.279 212.912 446.917 212.147 446.193C211.398 445.469 211.021 444.484 211.021 443.238H213.334C213.349 443.854 213.503 444.344 213.797 444.706C214.106 445.067 214.556 445.248 215.145 445.248C215.736 445.248 216.185 445.067 216.493 444.706C216.802 444.331 216.955 443.841 216.955 443.238V433.166H219.269ZM222.235 441.549C222.235 440.436 222.463 439.451 222.919 438.594C223.389 437.737 224.02 437.074 224.81 436.604C225.614 436.121 226.5 435.88 227.465 435.88C228.337 435.88 229.095 436.054 229.738 436.403C230.397 436.737 230.92 437.159 231.307 437.669V436.061H233.621V447.138H231.307V445.49C230.92 446.012 230.389 446.447 229.718 446.796C229.049 447.145 228.284 447.319 227.425 447.319C226.474 447.319 225.602 447.078 224.81 446.595C224.02 446.1 223.389 445.416 222.919 444.545C222.463 443.66 222.235 442.662 222.235 441.549ZM231.307 441.589C231.307 440.826 231.146 440.162 230.824 439.599C230.517 439.036 230.108 438.607 229.597 438.313C229.089 438.018 228.539 437.87 227.948 437.87C227.359 437.87 226.809 438.018 226.298 438.313C225.79 438.594 225.373 439.016 225.051 439.579C224.744 440.129 224.588 440.785 224.588 441.549C224.588 442.313 224.744 442.984 225.051 443.56C225.373 444.135 225.79 444.578 226.298 444.886C226.821 445.181 227.372 445.329 227.948 445.329C228.539 445.329 229.089 445.181 229.597 444.886C230.108 444.592 230.517 444.163 230.824 443.6C231.146 443.024 231.307 442.353 231.307 441.589ZM242.225 435.88C243.097 435.88 243.874 436.061 244.558 436.423C245.257 436.785 245.8 437.32 246.188 438.031C246.577 438.742 246.771 439.599 246.771 440.604V447.138H244.498V440.946C244.498 439.954 244.251 439.197 243.754 438.674C243.258 438.139 242.582 437.87 241.722 437.87C240.864 437.87 240.18 438.139 239.67 438.674C239.175 439.197 238.926 439.954 238.926 440.946V447.138H236.633V436.061H238.926V437.328C239.303 436.872 239.778 436.516 240.354 436.262C240.945 436.008 241.568 435.88 242.225 435.88Z" fill="#262626"/>
<path d="M298.762 406.723C298.762 404.404 299.152 402.594 299.929 401.295C300.721 399.981 302.074 399.325 303.993 399.325C305.911 399.325 307.259 399.981 308.036 401.295C308.828 402.594 309.223 404.404 309.223 406.723C309.223 409.068 308.828 410.904 308.036 412.231C307.259 413.545 305.911 414.201 303.993 414.201C302.074 414.201 300.721 413.545 299.929 412.231C299.152 410.904 298.762 409.068 298.762 406.723ZM306.97 406.723C306.97 405.637 306.897 404.72 306.748 403.969C306.615 403.217 306.333 402.609 305.904 402.139C305.474 401.657 304.837 401.415 303.993 401.415C303.148 401.415 302.511 401.657 302.081 402.139C301.652 402.609 301.365 403.217 301.216 403.969C301.083 404.72 301.015 405.637 301.015 406.723C301.015 407.849 301.083 408.793 301.216 409.557C301.35 410.321 301.632 410.937 302.061 411.407C302.504 411.877 303.148 412.111 303.993 412.111C304.837 412.111 305.474 411.877 305.904 411.407C306.346 410.937 306.635 410.321 306.769 409.557C306.902 408.793 306.97 407.849 306.97 406.723ZM320.943 401.355L315.351 414.241H313.038L318.69 401.596H311.247V399.646H320.943V401.355ZM301.162 433.166V435.036H295.227V439.157H299.854V441.027H295.227V447.138H292.934V433.166H301.162ZM313.445 441.328C313.445 441.743 313.42 442.119 313.365 442.454H304.896C304.964 443.338 305.293 444.049 305.882 444.585C306.472 445.12 307.196 445.389 308.054 445.389C309.289 445.389 310.161 444.874 310.669 443.841H313.144C312.809 444.859 312.198 445.698 311.313 446.354C310.443 446.997 309.356 447.319 308.054 447.319C306.995 447.319 306.043 447.085 305.198 446.615C304.367 446.133 303.709 445.462 303.226 444.605C302.758 443.733 302.522 442.728 302.522 441.589C302.522 440.451 302.751 439.451 303.206 438.594C303.676 437.722 304.327 437.053 305.157 436.584C306.002 436.114 306.968 435.88 308.054 435.88C309.1 435.88 310.033 436.109 310.85 436.564C311.67 437.019 312.306 437.662 312.761 438.494C313.219 439.31 313.445 440.255 313.445 441.328ZM311.052 440.604C311.039 439.76 310.737 439.084 310.146 438.574C309.557 438.064 308.826 437.81 307.954 437.81C307.164 437.81 306.485 438.064 305.922 438.574C305.359 439.069 305.024 439.747 304.916 440.604H311.052ZM317.997 437.71C318.385 437.174 318.915 436.737 319.586 436.403C320.27 436.054 321.027 435.88 321.859 435.88C322.838 435.88 323.723 436.114 324.515 436.584C325.305 437.053 325.928 437.722 326.386 438.594C326.841 439.451 327.069 440.436 327.069 441.549C327.069 442.662 326.841 443.66 326.386 444.545C325.928 445.416 325.299 446.1 324.495 446.595C323.703 447.078 322.825 447.319 321.859 447.319C321 447.319 320.235 447.151 319.566 446.816C318.908 446.482 318.385 446.052 317.997 445.53V447.138H315.704V432.261H317.997V437.71ZM324.736 441.549C324.736 440.785 324.575 440.129 324.253 439.579C323.944 439.016 323.529 438.594 323.006 438.313C322.496 438.018 321.945 437.87 321.356 437.87C320.779 437.87 320.23 438.018 319.707 438.313C319.197 438.607 318.782 439.036 318.46 439.599C318.151 440.162 317.997 440.826 317.997 441.589C317.997 442.353 318.151 443.024 318.46 443.6C318.782 444.163 319.197 444.592 319.707 444.886C320.23 445.181 320.779 445.329 321.356 445.329C321.945 445.329 322.496 445.181 323.006 444.886C323.529 444.578 323.944 444.135 324.253 443.56C324.575 442.984 324.736 442.313 324.736 441.549Z" fill="#262626"/>
<path d="M380.142 406.723C380.142 404.404 380.531 402.594 381.308 401.295C382.1 399.981 383.453 399.325 385.372 399.325C387.29 399.325 388.638 399.981 389.415 401.295C390.207 402.594 390.602 404.404 390.602 406.723C390.602 409.068 390.207 410.904 389.415 412.231C388.638 413.545 387.29 414.201 385.372 414.201C383.453 414.201 382.1 413.545 381.308 412.231C380.531 410.904 380.142 409.068 380.142 406.723ZM388.349 406.723C388.349 405.637 388.276 404.72 388.128 403.969C387.994 403.217 387.713 402.609 387.283 402.139C386.853 401.657 386.217 401.415 385.372 401.415C384.527 401.415 383.891 401.657 383.461 402.139C383.031 402.609 382.744 403.217 382.596 403.969C382.462 404.72 382.395 405.637 382.395 406.723C382.395 407.849 382.462 408.793 382.596 409.557C382.729 410.321 383.011 410.937 383.441 411.407C383.883 411.877 384.527 412.111 385.372 412.111C386.217 412.111 386.853 411.877 387.283 411.407C387.725 410.937 388.014 410.321 388.148 409.557C388.281 408.793 388.349 407.849 388.349 406.723ZM402.322 401.355L396.73 414.241H394.417L400.069 401.596H392.626V399.646H402.322V401.355ZM387.694 433.166V447.138H385.401V437.569L381.136 447.138H379.547L375.263 437.569V447.138H372.969V433.166H375.444L380.352 444.123L385.24 433.166H387.694ZM389.944 441.549C389.944 440.436 390.17 439.451 390.628 438.594C391.096 437.737 391.727 437.074 392.519 436.604C393.323 436.121 394.208 435.88 395.174 435.88C396.044 435.88 396.803 436.054 397.447 436.403C398.104 436.737 398.627 437.159 399.016 437.669V436.061H401.329V447.138H399.016V445.49C398.627 446.012 398.096 446.447 397.427 446.796C396.756 447.145 395.991 447.319 395.134 447.319C394.181 447.319 393.309 447.078 392.519 446.595C391.727 446.1 391.096 445.416 390.628 444.545C390.17 443.66 389.944 442.662 389.944 441.549ZM399.016 441.589C399.016 440.826 398.855 440.162 398.533 439.599C398.224 439.036 397.815 438.607 397.306 438.313C396.796 438.018 396.246 437.87 395.657 437.87C395.066 437.87 394.516 438.018 394.007 438.313C393.497 438.594 393.082 439.016 392.76 439.579C392.451 440.129 392.297 440.785 392.297 441.549C392.297 442.313 392.451 442.984 392.76 443.56C393.082 444.135 393.497 444.578 394.007 444.886C394.53 445.181 395.079 445.329 395.657 445.329C396.246 445.329 396.796 445.181 397.306 444.886C397.815 444.592 398.224 444.163 398.533 443.6C398.855 443.024 399.016 442.353 399.016 441.589ZM406.635 437.669C406.969 437.106 407.412 436.671 407.962 436.363C408.526 436.041 409.189 435.88 409.954 435.88V438.252H409.37C408.471 438.252 407.787 438.481 407.319 438.936C406.861 439.391 406.635 440.182 406.635 441.308V447.138H404.341V436.061H406.635V437.669Z" fill="#262626"/>
<path d="M462.435 406.723C462.435 404.404 462.825 402.594 463.602 401.295C464.394 399.981 465.747 399.325 467.665 399.325C469.584 399.325 470.931 399.981 471.709 401.295C472.501 402.594 472.896 404.404 472.896 406.723C472.896 409.068 472.501 410.904 471.709 412.231C470.931 413.545 469.584 414.201 467.665 414.201C465.747 414.201 464.394 413.545 463.602 412.231C462.825 410.904 462.435 409.068 462.435 406.723ZM470.643 406.723C470.643 405.637 470.569 404.72 470.421 403.969C470.288 403.217 470.006 402.609 469.576 402.139C469.147 401.657 468.51 401.415 467.665 401.415C466.82 401.415 466.184 401.657 465.754 402.139C465.325 402.609 465.037 403.217 464.889 403.969C464.756 404.72 464.688 405.637 464.688 406.723C464.688 407.849 464.756 408.793 464.889 409.557C465.023 410.321 465.304 410.937 465.734 411.407C466.177 411.877 466.82 412.111 467.665 412.111C468.51 412.111 469.147 411.877 469.576 411.407C470.019 410.937 470.308 410.321 470.441 409.557C470.575 408.793 470.643 407.849 470.643 406.723ZM484.616 401.355L479.024 414.241H476.71L482.363 401.596H474.92V399.646H484.616V401.355ZM465.548 444.283H459.694L458.688 447.138H456.294L461.303 433.146H463.958L468.967 447.138H466.553L465.548 444.283ZM464.904 442.414L462.631 435.92L460.338 442.414H464.904ZM473.439 437.689C473.826 437.18 474.357 436.752 475.028 436.403C475.697 436.054 476.456 435.88 477.301 435.88C478.267 435.88 479.144 436.121 479.936 436.604C480.741 437.074 481.37 437.737 481.827 438.594C482.282 439.451 482.511 440.436 482.511 441.549C482.511 442.662 482.282 443.66 481.827 444.545C481.37 445.416 480.741 446.1 479.936 446.595C479.144 447.078 478.267 447.319 477.301 447.319C476.456 447.319 475.704 447.151 475.048 446.816C474.39 446.467 473.854 446.04 473.439 445.53V452.405H471.145V436.061H473.439V437.689ZM480.178 441.549C480.178 440.785 480.017 440.129 479.695 439.579C479.386 439.016 478.971 438.594 478.448 438.313C477.937 438.018 477.387 437.87 476.798 437.87C476.22 437.87 475.672 438.018 475.149 438.313C474.638 438.607 474.223 439.036 473.901 439.599C473.592 440.162 473.439 440.826 473.439 441.589C473.439 442.353 473.592 443.024 473.901 443.6C474.223 444.163 474.638 444.592 475.149 444.886C475.672 445.181 476.22 445.329 476.798 445.329C477.387 445.329 477.937 445.181 478.448 444.886C478.971 444.578 479.386 444.135 479.695 443.56C480.017 442.984 480.178 442.313 480.178 441.549ZM487.072 437.669C487.407 437.106 487.849 436.671 488.4 436.363C488.963 436.041 489.627 435.88 490.391 435.88V438.252H489.808C488.908 438.252 488.224 438.481 487.756 438.936C487.299 439.391 487.072 440.182 487.072 441.308V447.138H484.779V436.061H487.072V437.669Z" fill="#262626"/>
<path d="M566.489 406.723C566.489 404.404 566.879 402.594 567.656 401.295C568.448 399.981 569.801 399.325 571.719 399.325C573.638 399.325 574.985 399.981 575.763 401.295C576.554 402.594 576.949 404.404 576.949 406.723C576.949 409.068 576.554 410.904 575.763 412.231C574.985 413.545 573.638 414.201 571.719 414.201C569.801 414.201 568.448 413.545 567.656 412.231C566.879 410.904 566.489 409.068 566.489 406.723ZM574.696 406.723C574.696 405.637 574.623 404.72 574.475 403.969C574.342 403.217 574.06 402.609 573.63 402.139C573.201 401.657 572.564 401.415 571.719 401.415C570.874 401.415 570.238 401.657 569.808 402.139C569.378 402.609 569.091 403.217 568.943 403.969C568.81 404.72 568.742 405.637 568.742 406.723C568.742 407.849 568.81 408.793 568.943 409.557C569.077 410.321 569.358 410.937 569.788 411.407C570.231 411.877 570.874 412.11 571.719 412.11C572.564 412.11 573.201 411.877 573.63 411.407C574.073 410.937 574.362 410.321 574.495 409.557C574.629 408.793 574.696 407.849 574.696 406.723ZM588.67 401.355L583.078 414.241H580.764L586.417 401.596H578.974V399.646H588.67V401.355ZM562.577 433.166V447.138H560.284V437.569L556.019 447.138H554.43L550.146 437.569V447.138H547.852V433.166H550.327L555.235 444.122L560.123 433.166H562.577ZM564.829 441.549C564.829 440.436 565.055 439.451 565.513 438.594C565.981 437.737 566.612 437.073 567.403 436.604C568.208 436.121 569.093 435.88 570.059 435.88C570.929 435.88 571.688 436.054 572.332 436.403C572.988 436.737 573.511 437.159 573.901 437.669V436.061H576.214V447.138H573.901V445.49C573.511 446.012 572.981 446.447 572.312 446.796C571.641 447.145 570.876 447.319 570.019 447.319C569.066 447.319 568.193 447.078 567.403 446.595C566.612 446.1 565.981 445.416 565.513 444.545C565.055 443.66 564.829 442.662 564.829 441.549ZM573.901 441.589C573.901 440.826 573.74 440.162 573.418 439.599C573.109 439.036 572.699 438.607 572.191 438.313C571.681 438.018 571.13 437.87 570.542 437.87C569.951 437.87 569.4 438.018 568.892 438.313C568.382 438.594 567.967 439.016 567.645 439.579C567.336 440.129 567.182 440.785 567.182 441.549C567.182 442.313 567.336 442.984 567.645 443.56C567.967 444.135 568.382 444.578 568.892 444.886C569.415 445.181 569.964 445.329 570.542 445.329C571.13 445.329 571.681 445.181 572.191 444.886C572.699 444.592 573.109 444.163 573.418 443.6C573.74 443.024 573.901 442.353 573.901 441.589ZM589.204 436.061L582.405 452.345H580.031L582.284 446.957L577.919 436.061H580.473L583.591 444.504L586.83 436.061H589.204Z" fill="#262626"/>
<path d="M80.9449 326.168C79.5501 325.472 78.8528 324.372 78.8528 322.871C78.8528 322.148 79.0339 321.484 79.3959 320.881C79.758 320.278 80.3012 319.803 81.0254 319.454C81.7495 319.092 82.6347 318.911 83.6807 318.911C84.7132 318.911 85.5917 319.092 86.3159 319.454C87.0535 319.803 87.6034 320.278 87.9655 320.881C88.3275 321.484 88.5086 322.148 88.5086 322.871C88.5086 323.622 88.314 324.286 87.9252 324.862C87.5496 325.424 87.0467 325.859 86.4165 326.168C87.1809 326.45 87.7844 326.912 88.227 327.555C88.6695 328.186 88.8908 328.93 88.8908 329.787C88.8908 330.659 88.6695 331.428 88.227 332.099C87.7844 332.769 87.1674 333.285 86.3763 333.647C85.585 334.009 84.6865 334.19 83.6807 334.19C82.6749 334.19 81.7762 334.009 80.9851 333.647C80.2072 333.285 79.5971 332.769 79.1546 332.099C78.712 331.428 78.4907 330.659 78.4907 329.787C78.4907 328.915 78.712 328.166 79.1546 327.535C79.5971 326.905 80.1938 326.45 80.9449 326.168ZM86.3159 323.153C86.3159 322.402 86.0811 321.826 85.6119 321.424C85.1424 321.022 84.4987 320.821 83.6807 320.821C82.8761 320.821 82.2389 321.022 81.7697 321.424C81.3002 321.826 81.0656 322.409 81.0656 323.173C81.0656 323.844 81.307 324.392 81.7898 324.821C82.2859 325.236 82.9163 325.445 83.6807 325.445C84.4451 325.445 85.0753 325.231 85.5716 324.801C86.0678 324.372 86.3159 323.823 86.3159 323.153ZM83.6807 327.173C82.7956 327.173 82.0714 327.395 81.5082 327.837C80.9582 328.266 80.6834 328.89 80.6834 329.706C80.6834 330.47 80.9515 331.094 81.488 331.576C82.0244 332.046 82.7554 332.28 83.6807 332.28C84.5925 332.28 85.3101 332.038 85.8331 331.556C86.3695 331.073 86.6378 330.458 86.6378 329.706C86.6378 328.902 86.3627 328.279 85.813 327.837C85.2765 327.395 84.5658 327.173 83.6807 327.173ZM91.2985 326.309C91.2985 323.99 91.6875 322.18 92.4653 320.881C93.2566 319.567 94.6111 318.911 96.5287 318.911C98.4465 318.911 99.7943 319.567 100.572 320.881C101.363 322.18 101.759 323.99 101.759 326.309C101.759 328.654 101.363 330.49 100.572 331.817C99.7943 333.131 98.4465 333.787 96.5287 333.787C94.6111 333.787 93.2566 333.131 92.4653 331.817C91.6875 330.49 91.2985 328.654 91.2985 326.309ZM99.5059 326.309C99.5059 325.223 99.4322 324.306 99.2847 323.555C99.1506 322.804 98.869 322.195 98.4398 321.725C98.0108 321.243 97.3736 321.002 96.5287 321.002C95.6839 321.002 95.0469 321.243 94.6177 321.725C94.1887 322.195 93.9003 322.804 93.7527 323.555C93.6187 324.306 93.5515 325.223 93.5515 326.309C93.5515 327.435 93.6187 328.38 93.7527 329.144C93.8869 329.907 94.1686 330.523 94.5976 330.993C95.0401 331.463 95.6839 331.697 96.5287 331.697C97.3736 331.697 98.0108 331.463 98.4398 330.993C98.8823 330.523 99.1707 329.907 99.3048 329.144C99.439 328.38 99.5059 327.435 99.5059 326.309Z" fill="#262626"/>
<path d="M80.9558 182.677C82.2432 181.565 83.2558 180.654 83.9933 179.943C84.7444 179.219 85.368 178.469 85.8641 177.692C86.3603 176.914 86.6084 176.137 86.6084 175.36C86.6084 174.555 86.414 173.925 86.0251 173.47C85.6496 173.014 85.0527 172.786 84.2347 172.786C83.4434 172.786 82.8266 173.041 82.384 173.55C81.9548 174.046 81.727 174.716 81.7001 175.561H79.4873C79.5275 174.033 79.9834 172.867 80.8552 172.063C81.7403 171.245 82.8601 170.836 84.2146 170.836C85.6763 170.836 86.8164 171.238 87.6344 172.043C88.4659 172.847 88.8816 173.919 88.8816 175.259C88.8816 176.224 88.6334 177.156 88.1373 178.053C87.6545 178.938 87.0711 179.735 86.3872 180.446C85.7166 181.143 84.8583 181.954 83.8123 182.878L82.9071 183.682H89.2839V185.592H79.5074V183.924L80.9558 182.677ZM91.2984 178.275C91.2984 175.956 91.6874 174.147 92.4652 172.847C93.2565 171.533 94.611 170.877 96.5287 170.877C98.4465 170.877 99.7943 171.533 100.572 172.847C101.363 174.147 101.759 175.956 101.759 178.275C101.759 180.62 101.363 182.456 100.572 183.783C99.7943 185.096 98.4465 185.753 96.5287 185.753C94.611 185.753 93.2565 185.096 92.4652 183.783C91.6874 182.456 91.2984 180.62 91.2984 178.275ZM99.5059 178.275C99.5059 177.189 99.4322 176.271 99.2846 175.52C99.1505 174.77 98.8689 174.16 98.4397 173.691C98.0107 173.209 97.3735 172.967 96.5287 172.967C95.6838 172.967 95.0468 173.209 94.6176 173.691C94.1886 174.16 93.9002 174.77 93.7526 175.52C93.6186 176.271 93.5515 177.189 93.5515 178.275C93.5515 179.4 93.6186 180.345 93.7526 181.109C93.8869 181.873 94.1685 182.49 94.5975 182.959C95.0401 183.428 95.6838 183.662 96.5287 183.662C97.3735 183.662 98.0107 183.428 98.4397 182.959C98.8823 182.49 99.1707 181.873 99.3047 181.109C99.4389 180.345 99.5059 179.4 99.5059 178.275Z" fill="#262626"/>
<path d="M96.8511 123.884V121.793H101.035V136.448H98.7219V123.884H96.8511Z" fill="#262626"/>
<path d="M77.9927 232.082V230.353L84.7517 220.663H87.5278V230.092H89.3986V232.082H87.5278V235.138H85.2747V232.082H77.9927ZM85.3753 222.995L80.6279 230.092H85.3753V222.995ZM91.2986 227.619C91.2986 225.3 91.6876 223.491 92.4654 222.191C93.2567 220.877 94.6112 220.221 96.5288 220.221C98.4466 220.221 99.7944 220.877 100.572 222.191C101.363 223.491 101.759 225.3 101.759 227.619C101.759 229.964 101.363 231.801 100.572 233.128C99.7944 234.442 98.4466 235.098 96.5288 235.098C94.6112 235.098 93.2567 234.442 92.4654 233.128C91.6876 231.801 91.2986 229.964 91.2986 227.619ZM99.506 227.619C99.506 226.534 99.4323 225.616 99.2848 224.865C99.1507 224.114 98.8691 223.505 98.4399 223.036C98.0109 222.553 97.3737 222.312 96.5288 222.312C95.684 222.312 95.047 222.553 94.6178 223.036C94.1888 223.505 93.9004 224.114 93.7528 224.865C93.6188 225.616 93.5516 226.534 93.5516 227.619C93.5516 228.745 93.6188 229.69 93.7528 230.454C93.887 231.218 94.1687 231.834 94.5977 232.303C95.0402 232.773 95.684 233.007 96.5288 233.007C97.3737 233.007 98.0109 232.773 98.4399 232.303C98.8824 231.834 99.1708 231.218 99.3049 230.454C99.4391 229.69 99.506 228.745 99.506 227.619Z" fill="#262626"/>
<path d="M71.0771 370.608V368.517H75.2613V383.172H72.948V370.608H71.0771ZM78.4119 375.654C78.4119 373.334 78.8007 371.525 79.5786 370.226C80.3697 368.912 81.7243 368.256 83.6421 368.256C85.5597 368.256 86.9075 368.912 87.6855 370.226C88.4766 371.525 88.8723 373.334 88.8723 375.654C88.8723 377.998 88.4766 379.835 87.6855 381.162C86.9075 382.476 85.5597 383.132 83.6421 383.132C81.7243 383.132 80.3697 382.476 79.5786 381.162C78.8007 379.835 78.4119 377.998 78.4119 375.654ZM86.6193 375.654C86.6193 374.568 86.5454 373.651 86.398 372.899C86.2638 372.148 85.9822 371.54 85.5531 371.07C85.1239 370.588 84.487 370.346 83.6421 370.346C82.7972 370.346 82.1601 370.588 81.7311 371.07C81.3019 371.54 81.0135 372.148 80.8661 372.899C80.7318 373.651 80.6649 374.568 80.6649 375.654C80.6649 376.779 80.7318 377.724 80.8661 378.488C81.0001 379.252 81.2817 379.868 81.7109 380.338C82.1535 380.807 82.7972 381.041 83.6421 381.041C84.487 381.041 85.1239 380.807 85.5531 380.338C85.9957 379.868 86.2839 379.252 86.4181 378.488C86.5522 377.724 86.6193 376.779 86.6193 375.654ZM91.2987 375.654C91.2987 373.334 91.6877 371.525 92.4654 370.226C93.2567 368.912 94.6113 368.256 96.5289 368.256C98.4467 368.256 99.7945 368.912 100.572 370.226C101.364 371.525 101.759 373.334 101.759 375.654C101.759 377.998 101.364 379.835 100.572 381.162C99.7945 382.476 98.4467 383.132 96.5289 383.132C94.6113 383.132 93.2567 382.476 92.4654 381.162C91.6877 379.835 91.2987 377.998 91.2987 375.654ZM99.5061 375.654C99.5061 374.568 99.4324 373.651 99.2848 372.899C99.1508 372.148 98.8692 371.54 98.44 371.07C98.0109 370.588 97.3738 370.346 96.5289 370.346C95.684 370.346 95.0471 370.588 94.6179 371.07C94.1888 371.54 93.9005 372.148 93.7529 372.899C93.6188 373.651 93.5517 374.568 93.5517 375.654C93.5517 376.779 93.6188 377.724 93.7529 378.488C93.8871 379.252 94.1687 379.868 94.5978 380.338C95.0403 380.807 95.684 381.041 96.5289 381.041C97.3738 381.041 98.0109 380.807 98.44 380.338C98.8825 379.868 99.1709 379.252 99.3049 378.488C99.4392 377.724 99.5061 376.779 99.5061 375.654Z" fill="#262626"/>
<path d="M115.78 366.724V342.13L214.265 229.407H256.257L297.482 278.623L428.803 123.655L587.596 184.618V366.724H115.78Z" fill="url(#paint0_linear_6736_30096)"/>
<g filter="url(#filter1_i_6736_30096)">
<path d="M115.78 341.138L214.585 228.968H256.712L298.839 278.441L429.048 123.655L587.596 184.394" stroke="#2F54EB" stroke-width="2"/>
</g>
<path d="M79.9803 57.7267V74.3102H76.652V67.2539H69.5436V74.3102H66.2153V57.7267H69.5436V64.5454H76.652V57.7267H79.9803ZM84.9443 59.5799C84.3578 59.5799 83.8664 59.3977 83.4703 59.0334C83.0899 58.6533 82.8997 58.186 82.8997 57.6317C82.8997 57.0774 83.0899 56.6179 83.4703 56.2537C83.8664 55.8735 84.3578 55.6835 84.9443 55.6835C85.5305 55.6835 86.0141 55.8735 86.3945 56.2537C86.7906 56.6179 86.9888 57.0774 86.9888 57.6317C86.9888 58.186 86.7906 58.6533 86.3945 59.0334C86.0141 59.3977 85.5305 59.5799 84.9443 59.5799ZM86.5846 61.148V74.3102H83.2563V61.148H86.5846ZM94.9129 74.5241C93.8353 74.5241 92.8684 74.334 92.0125 73.9539C91.1567 73.5578 90.4753 73.0273 89.968 72.362C89.4768 71.6968 89.2072 70.9603 89.1597 70.1525H92.5118C92.5752 70.6593 92.8208 71.0791 93.2488 71.4117C93.6926 71.7443 94.2394 71.9106 94.8892 71.9106C95.5232 71.9106 96.0146 71.784 96.3631 71.5305C96.7278 71.277 96.9099 70.9524 96.9099 70.5564C96.9099 70.1287 96.6881 69.812 96.2443 69.606C95.8163 69.3843 95.1269 69.1467 94.1759 68.8933C93.1934 68.6557 92.3851 68.4102 91.751 68.1567C91.1329 67.9033 90.5942 67.5153 90.1344 66.9926C89.6908 66.4699 89.4688 65.765 89.4688 64.8781C89.4688 64.1494 89.6749 63.4842 90.0869 62.8823C90.5148 62.2805 91.1172 61.8053 91.8937 61.4568C92.6863 61.1083 93.6134 60.9341 94.6752 60.9341C96.2443 60.9341 97.4964 61.3302 98.4314 62.1221C99.3667 62.8982 99.8816 63.9515 99.9767 65.282H96.7911C96.7435 64.7593 96.5217 64.3475 96.1254 64.0465C95.745 63.7298 95.23 63.5713 94.5801 63.5713C93.9779 63.5713 93.5103 63.6823 93.1775 63.904C92.8605 64.1256 92.702 64.4345 92.702 64.8305C92.702 65.2741 92.924 65.6146 93.3676 65.8522C93.8115 66.0738 94.5009 66.3036 95.436 66.5412C96.3869 66.7787 97.1714 67.0242 97.7895 67.2777C98.4077 67.5312 98.9387 67.927 99.3824 68.4656C99.8421 68.9883 100.08 69.6852 100.096 70.5564C100.096 71.3166 99.8816 71.9978 99.4537 72.5996C99.0417 73.2014 98.4395 73.6766 97.6469 74.0251C96.8704 74.3577 95.959 74.5241 94.9129 74.5241ZM106.703 63.8802V70.2475C106.703 70.6911 106.806 71.0156 107.012 71.2216C107.234 71.4117 107.598 71.5067 108.106 71.5067H109.651V74.3102H107.559C104.753 74.3102 103.351 72.9481 103.351 70.2237V63.8802H101.782V61.148H103.351V57.893H106.703V61.148H109.651V63.8802H106.703ZM117.893 74.5241C116.625 74.5241 115.484 74.2468 114.47 73.6925C113.455 73.1223 112.655 72.3224 112.068 71.2929C111.498 70.2634 111.213 69.0755 111.213 67.7291C111.213 66.3827 111.506 65.1948 112.092 64.1653C112.695 63.1358 113.511 62.3437 114.541 61.7894C115.571 61.2192 116.72 60.9341 117.988 60.9341C119.256 60.9341 120.405 61.2192 121.435 61.7894C122.466 62.3437 123.274 63.1358 123.86 64.1653C124.463 65.1948 124.764 66.3827 124.764 67.7291C124.764 69.0755 124.454 70.2634 123.836 71.2929C123.234 72.3224 122.41 73.1223 121.364 73.6925C120.334 74.2468 119.177 74.5241 117.893 74.5241ZM117.893 71.6255C118.495 71.6255 119.058 71.483 119.581 71.1979C120.12 70.8968 120.548 70.4535 120.865 69.8674C121.182 69.2813 121.34 68.5685 121.34 67.7291C121.34 66.4777 121.007 65.5195 120.342 64.8543C119.692 64.1732 118.891 63.8327 117.941 63.8327C116.99 63.8327 116.189 64.1732 115.539 64.8543C114.906 65.5195 114.588 66.4777 114.588 67.7291C114.588 68.9804 114.897 69.9465 115.516 70.6276C116.15 71.2929 116.942 71.6255 117.893 71.6255ZM130.533 63.1912C130.961 62.4943 131.516 61.9479 132.198 61.5518C132.895 61.1558 133.687 60.9579 134.575 60.9579V64.4504H133.695C132.649 64.4504 131.857 64.6958 131.318 65.1869C130.795 65.678 130.533 66.5333 130.533 67.7529V74.3102H127.205V61.148H130.533V63.1912ZM138.505 59.5799C137.918 59.5799 137.427 59.3977 137.031 59.0334C136.65 58.6533 136.46 58.186 136.46 57.6317C136.46 57.0774 136.65 56.6179 137.031 56.2537C137.427 55.8735 137.918 55.6835 138.505 55.6835C139.091 55.6835 139.574 55.8735 139.955 56.2537C140.351 56.6179 140.549 57.0774 140.549 57.6317C140.549 58.186 140.351 58.6533 139.955 59.0334C139.574 59.3977 139.091 59.5799 138.505 59.5799ZM140.145 61.148V74.3102H136.817V61.148H140.145ZM142.578 67.7291C142.578 66.367 142.855 65.1791 143.41 64.1653C143.964 63.1358 144.733 62.3437 145.716 61.7894C146.698 61.2192 147.824 60.9341 149.092 60.9341C150.724 60.9341 152.071 61.3459 153.133 62.1696C154.211 62.9774 154.932 64.1178 155.296 65.5908H151.707C151.516 65.0206 151.192 64.5771 150.732 64.2603C150.288 63.9277 149.733 63.7614 149.068 63.7614C148.117 63.7614 147.364 64.1099 146.809 64.8068C146.255 65.4879 145.977 66.462 145.977 67.7291C145.977 68.9804 146.255 69.9545 146.809 70.6514C147.364 71.3325 148.117 71.673 149.068 71.673C150.415 71.673 151.295 71.0712 151.707 69.8674H155.296C154.932 71.2929 154.211 72.4254 153.133 73.2649C152.055 74.1043 150.708 74.5241 149.092 74.5241C147.824 74.5241 146.698 74.2468 145.716 73.6925C144.733 73.1223 143.964 72.3304 143.41 71.3166C142.855 70.2872 142.578 69.0912 142.578 67.7291ZM156.879 67.6816C156.879 66.3511 157.14 65.171 157.663 64.1415C158.202 63.1121 158.923 62.32 159.827 61.7657C160.746 61.2114 161.768 60.9341 162.894 60.9341C163.876 60.9341 164.732 61.1321 165.461 61.5281C166.206 61.9241 166.801 62.4231 167.244 63.0249V61.148H170.596V74.3102H167.244V72.3858C166.816 73.0035 166.222 73.5183 165.461 73.9301C164.716 74.3261 163.853 74.5241 162.87 74.5241C161.761 74.5241 160.746 74.239 159.827 73.6687C158.923 73.0985 158.202 72.2986 157.663 71.2691C157.14 70.2237 156.879 69.028 156.879 67.6816ZM167.244 67.7291C167.244 66.9213 167.086 66.2323 166.769 65.6621C166.452 65.076 166.024 64.6326 165.485 64.3316C164.946 64.0149 164.368 63.8564 163.75 63.8564C163.131 63.8564 162.561 64.0068 162.038 64.3079C161.515 64.6089 161.087 65.0522 160.754 65.6383C160.437 66.2085 160.279 66.8897 160.279 67.6816C160.279 68.4735 160.437 69.1705 160.754 69.7723C161.087 70.3584 161.515 70.8099 162.038 71.1266C162.577 71.4433 163.147 71.6017 163.75 71.6017C164.368 71.6017 164.946 71.4513 165.485 71.1503C166.024 70.8336 166.452 70.3901 166.769 69.8198C167.086 69.2337 167.244 68.5369 167.244 67.7291ZM177.175 56.7288V74.3102H173.847V56.7288H177.175ZM185.32 65.9947C185.32 64.3632 185.685 62.9061 186.414 61.6231C187.159 60.3243 188.165 59.3185 189.433 58.6058C190.717 57.8771 192.151 57.5129 193.736 57.5129C195.591 57.5129 197.215 57.9881 198.61 58.9384C200.005 59.8887 200.979 61.2033 201.534 62.8823H197.706C197.326 62.0904 196.787 61.4965 196.09 61.1004C195.408 60.7044 194.616 60.5065 193.712 60.5065C192.746 60.5065 191.882 60.7362 191.121 61.1955C190.376 61.639 189.79 62.2725 189.362 63.0962C188.95 63.9199 188.744 64.8859 188.744 65.9947C188.744 67.0876 188.95 68.0539 189.362 68.8933C189.79 69.717 190.376 70.3584 191.121 70.8177C191.882 71.2613 192.746 71.483 193.712 71.483C194.616 71.483 195.408 71.285 196.09 70.889C196.787 70.4772 197.326 69.8752 197.706 69.0833H201.534C200.979 70.7781 200.005 72.1007 198.61 73.051C197.231 73.9855 195.606 74.4528 193.736 74.4528C192.151 74.4528 190.717 74.0964 189.433 73.3836C188.165 72.655 187.159 71.6493 186.414 70.3663C185.685 69.0833 185.32 67.6262 185.32 65.9947ZM211.795 60.9579C212.793 60.9579 213.68 61.1796 214.457 61.6231C215.233 62.0508 215.836 62.6923 216.264 63.5476C216.707 64.387 216.93 65.4007 216.93 66.5887V74.3102H213.601V67.0401C213.601 65.9947 213.34 65.1948 212.817 64.6405C212.294 64.0703 211.581 63.7852 210.677 63.7852C209.757 63.7852 209.029 64.0703 208.49 64.6405C207.967 65.1948 207.705 65.9947 207.705 67.0401V74.3102H204.377V56.7288H207.705V62.7873C208.133 62.2171 208.704 61.7735 209.417 61.4568C210.13 61.1242 210.922 60.9579 211.795 60.9579ZM219.239 67.6816C219.239 66.3511 219.501 65.171 220.024 64.1415C220.562 63.1121 221.284 62.32 222.187 61.7657C223.105 61.2114 224.128 60.9341 225.254 60.9341C226.236 60.9341 227.092 61.1321 227.822 61.5281C228.566 61.9241 229.16 62.4231 229.605 63.0249V61.148H232.957V74.3102H229.605V72.3858C229.177 73.0035 228.582 73.5183 227.822 73.9301C227.076 74.3261 226.212 74.5241 225.23 74.5241C224.12 74.5241 223.105 74.239 222.187 73.6687C221.284 73.0985 220.562 72.2986 220.024 71.2691C219.501 70.2237 219.239 69.028 219.239 67.6816ZM229.605 67.7291C229.605 66.9213 229.446 66.2323 229.129 65.6621C228.811 65.076 228.383 64.6326 227.845 64.3316C227.306 64.0149 226.728 63.8564 226.11 63.8564C225.492 63.8564 224.921 64.0068 224.398 64.3079C223.875 64.6089 223.447 65.0522 223.114 65.6383C222.796 66.2085 222.639 66.8897 222.639 67.6816C222.639 68.4735 222.796 69.1705 223.114 69.7723C223.447 70.3584 223.875 70.8099 224.398 71.1266C224.936 71.4433 225.506 71.6017 226.11 71.6017C226.728 71.6017 227.306 71.4513 227.845 71.1503C228.383 70.8336 228.811 70.3901 229.129 69.8198C229.446 69.2337 229.605 68.5369 229.605 67.7291ZM243.505 60.9579C245.074 60.9579 246.341 61.4568 247.309 62.4547C248.276 63.4366 248.759 64.8146 248.759 66.5887V74.3102H245.431V67.0401C245.431 65.9947 245.169 65.1948 244.646 64.6405C244.123 64.0703 243.41 63.7852 242.506 63.7852C241.587 63.7852 240.859 64.0703 240.319 64.6405C239.796 65.1948 239.535 65.9947 239.535 67.0401V74.3102H236.206V61.148H239.535V62.7873C239.979 62.2171 240.541 61.7735 241.223 61.4568C241.919 61.1242 242.68 60.9579 243.505 60.9579ZM257.083 60.9341C258.065 60.9341 258.929 61.1321 259.675 61.5281C260.419 61.9082 261.006 62.4072 261.434 63.0249V61.148H264.786V74.4053C264.786 75.6248 264.539 76.7099 264.049 77.6602C263.557 78.6264 262.82 79.3867 261.838 79.941C260.854 80.5112 259.666 80.7963 258.272 80.7963C256.401 80.7963 254.863 80.3608 253.66 79.4896C252.471 78.6184 251.796 77.4305 251.639 75.9258H254.944C255.118 76.5276 255.491 77.0028 256.061 77.3513C256.646 77.7156 257.352 77.8978 258.177 77.8978C259.143 77.8978 259.927 77.6048 260.531 77.0187C261.132 76.4485 261.434 75.5773 261.434 74.4053V72.362C261.006 72.9797 260.412 73.4946 259.651 73.9063C258.905 74.3181 258.049 74.5241 257.083 74.5241C255.973 74.5241 254.958 74.239 254.04 73.6687C253.121 73.0985 252.391 72.2986 251.853 71.2691C251.33 70.2237 251.069 69.028 251.069 67.6816C251.069 66.3511 251.33 65.171 251.853 64.1415C252.391 63.1121 253.113 62.32 254.017 61.7657C254.935 61.2114 255.957 60.9341 257.083 60.9341ZM261.434 67.7291C261.434 66.9213 261.275 66.2323 260.959 65.6621C260.64 65.076 260.212 64.6326 259.675 64.3316C259.135 64.0149 258.557 63.8564 257.939 63.8564C257.321 63.8564 256.751 64.0068 256.228 64.3079C255.705 64.6089 255.277 65.0522 254.944 65.6383C254.626 66.2085 254.468 66.8897 254.468 67.6816C254.468 68.4735 254.626 69.1705 254.944 69.7723C255.277 70.3584 255.705 70.8099 256.228 71.1266C256.765 71.4433 257.336 71.6017 257.939 71.6017C258.557 71.6017 259.135 71.4513 259.675 71.1503C260.212 70.8336 260.64 70.3901 260.959 69.8198C261.275 69.2337 261.434 68.5369 261.434 67.7291ZM280.279 67.444C280.279 67.9192 280.248 68.3468 280.184 68.727H270.556C270.636 69.6773 270.969 70.4217 271.554 70.9603C272.141 71.4989 272.862 71.7681 273.718 71.7681C274.954 71.7681 275.834 71.2375 276.357 70.1762H279.946C279.566 71.4433 278.838 72.4887 277.759 73.3124C276.682 74.1202 275.358 74.5241 273.789 74.5241C272.522 74.5241 271.381 74.2468 270.366 73.6925C269.367 73.1223 268.583 72.3224 268.012 71.2929C267.458 70.2634 267.18 69.0755 267.18 67.7291C267.18 66.367 267.458 65.171 268.012 64.1415C268.568 63.1121 269.343 62.32 270.342 61.7657C271.34 61.2114 272.491 60.9341 273.789 60.9341C275.042 60.9341 276.159 61.2033 277.141 61.7419C278.14 62.2805 278.909 63.0486 279.447 64.0465C280.003 65.0285 280.279 66.161 280.279 67.444ZM276.832 66.4936C276.817 65.6383 276.508 64.9572 275.905 64.4504C275.303 63.9277 274.566 63.6664 273.694 63.6664C272.871 63.6664 272.172 63.9199 271.602 64.4266C271.048 64.9177 270.708 65.6067 270.58 66.4936H276.832ZM287.75 74.5241C286.671 74.5241 285.705 74.334 284.849 73.9539C283.993 73.5578 283.311 73.0273 282.805 72.362C282.313 71.6968 282.044 70.9603 281.996 70.1525H285.348C285.411 70.6593 285.658 71.0791 286.085 71.4117C286.528 71.7443 287.075 71.9106 287.726 71.9106C288.359 71.9106 288.851 71.784 289.2 71.5305C289.564 71.277 289.747 70.9524 289.747 70.5564C289.747 70.1287 289.524 69.812 289.081 69.606C288.653 69.3843 287.964 69.1467 287.013 68.8933C286.029 68.6557 285.22 68.4102 284.588 68.1567C283.97 67.9033 283.43 67.5153 282.971 66.9926C282.527 66.4699 282.305 65.765 282.305 64.8781C282.305 64.1494 282.51 63.4842 282.924 62.8823C283.352 62.2805 283.953 61.8053 284.73 61.4568C285.522 61.1083 286.449 60.9341 287.512 60.9341C289.081 60.9341 290.332 61.3302 291.268 62.1221C292.203 62.8982 292.718 63.9515 292.813 65.282H289.628C289.58 64.7593 289.357 64.3475 288.962 64.0465C288.582 63.7298 288.066 63.5713 287.417 63.5713C286.813 63.5713 286.347 63.6823 286.014 63.904C285.696 64.1256 285.539 64.4345 285.539 64.8305C285.539 65.2741 285.76 65.6146 286.204 65.8522C286.647 66.0738 287.336 66.3036 288.273 66.5412C289.224 66.7787 290.008 67.0242 290.626 67.2777C291.244 67.5312 291.775 67.927 292.219 68.4656C292.678 68.9883 292.916 69.6852 292.932 70.5564C292.932 71.3166 292.718 71.9978 292.29 72.5996C291.877 73.2014 291.275 73.6766 290.484 74.0251C289.706 74.3577 288.796 74.5241 287.75 74.5241Z" fill="black"/>
</g>
<defs>
<filter id="filter0_d_6736_30096" x="0" y="0" width="658" height="537" filterUnits="userSpaceOnUse" color-interpolation-filters="sRGB">
<feFlood flood-opacity="0" result="BackgroundImageFix"/>
<feColorMatrix in="SourceAlpha" type="matrix" values="0 0 0 0 0 0 0 0 0 0 0 0 0 0 0 0 0 0 127 0" result="hardAlpha"/>
<feOffset dx="2" dy="16"/>
<feGaussianBlur stdDeviation="15"/>
<feColorMatrix type="matrix" values="0 0 0 0 0 0 0 0 0 0 0 0 0 0 0 0 0 0 0.2 0"/>
<feBlend mode="normal" in2="BackgroundImageFix" result="effect1_dropShadow_6736_30096"/>
<feBlend mode="normal" in="SourceGraphic" in2="effect1_dropShadow_6736_30096" result="shape"/>
</filter>
<filter id="filter1_i_6736_30096" x="115.029" y="122.467" width="472.925" height="223.332" filterUnits="userSpaceOnUse" color-interpolation-filters="sRGB">
<feFlood flood-opacity="0" result="BackgroundImageFix"/>
<feBlend mode="normal" in="SourceGraphic" in2="BackgroundImageFix" result="shape"/>
<feColorMatrix in="SourceAlpha" type="matrix" values="0 0 0 0 0 0 0 0 0 0 0 0 0 0 0 0 0 0 127 0" result="hardAlpha"/>
<feOffset dy="4"/>
<feGaussianBlur stdDeviation="2"/>
<feComposite in2="hardAlpha" operator="arithmetic" k2="-1" k3="1"/>
<feColorMatrix type="matrix" values="0 0 0 0 0.184314 0 0 0 0 0.329412 0 0 0 0 0.921569 0 0 0 0.45 0"/>
<feBlend mode="normal" in2="shape" result="effect1_innerShadow_6736_30096"/>
</filter>
<linearGradient id="paint0_linear_6736_30096" x1="361.613" y1="124.572" x2="357.487" y2="366.823" gradientUnits="userSpaceOnUse">
<stop offset="0.104167" stop-color="#2F54EB" stop-opacity="0.66"/>
<stop offset="0.71875" stop-color="#2F54EB" stop-opacity="0.1"/>
</linearGradient>
</defs>
</svg>
