<svg width="422" height="231" viewBox="0 0 422 231" fill="none" xmlns="http://www.w3.org/2000/svg">
<path fill-rule="evenodd" clip-rule="evenodd" d="M186.912 150.338H6.61278C4.01423 150.338 1.9043 148.36 1.9043 145.893V55.2461H191.643V145.893C191.621 148.36 189.511 150.338 186.912 150.338Z" fill="white"/>
<path fill-rule="evenodd" clip-rule="evenodd" d="M191.646 54.5756H1.90751C1.53952 54.5756 1.24121 54.874 1.24121 55.2422V145.89C1.24121 148.729 3.65308 151.001 6.61599 151.001H186.915C189.873 151.001 192.287 148.735 192.312 145.896L192.312 55.2422C192.312 54.874 192.014 54.5756 191.646 54.5756ZM2.57526 55.9095H190.981V145.891C190.962 147.975 189.159 149.668 186.917 149.668H6.61745L6.54197 149.668C4.33293 149.63 2.57526 147.952 2.57526 145.891V55.9095Z" fill="#2E186A"/>
<path fill-rule="evenodd" clip-rule="evenodd" d="M1.32854 56.7787L1.10645 35.1113C1.10645 32.4001 3.23859 30.2222 5.85935 30.2222L187.58 30C190.201 30 192.333 32.2001 192.333 34.889V56.7787H1.32854Z" fill="#00AC45"/>
<path fill-rule="evenodd" clip-rule="evenodd" d="M82.6593 33.5564C84.5523 33.5564 86.3277 34.4514 87.4778 35.9773L87.4937 35.9994L87.5088 36.0222L93.2869 45.1568H192.331C192.686 45.1568 192.976 45.4343 192.997 45.7843L192.998 45.8235C192.998 46.1785 192.72 46.4687 192.371 46.489L192.331 46.4902H92.9202C92.7071 46.4902 92.5078 46.3882 92.3828 46.2176L92.3572 46.18L86.3996 36.7618L86.3569 36.7062C85.4758 35.5823 84.1587 34.9184 82.7512 34.8907L82.6593 34.8898H43.8143C42.3723 34.8898 41.0169 35.5579 40.1166 36.7062L40.0737 36.7618L34.1164 46.18C34.0029 46.3593 33.8115 46.4731 33.6018 46.4884L33.5566 46.4901L1.19684 46.6457C0.82886 46.6475 0.52912 46.3504 0.527352 45.9822C0.525647 45.6272 0.801633 45.3356 1.15129 45.3137L1.19044 45.3123L33.1853 45.1586L38.9648 36.0222C38.9697 36.0145 38.9747 36.0069 38.9798 35.9994L38.9958 35.9773C40.1253 34.4786 41.858 33.5886 43.713 33.5573L43.8143 33.5564H82.6593Z" fill="white"/>
<path fill-rule="evenodd" clip-rule="evenodd" d="M99.2728 33.6206C100.855 33.6206 102.166 34.8314 102.204 36.3534L102.205 36.4207V44.9099C102.205 45.2781 101.906 45.5766 101.538 45.5766C101.183 45.5766 100.893 45.299 100.873 44.949L100.872 44.9099V36.4207C100.872 35.6396 100.189 34.9819 99.3281 34.9548L99.2728 34.954H82.5711C82.2031 34.954 81.9048 34.6555 81.9048 34.2873C81.9048 33.9322 82.1822 33.642 82.5319 33.6217L82.5711 33.6206H99.2728Z" fill="white"/>
<path fill-rule="evenodd" clip-rule="evenodd" d="M9.03816 40.9365C10.6328 40.9365 11.9254 39.6431 11.9254 38.0476C11.9254 36.452 10.6328 35.1586 9.03816 35.1586C7.44356 35.1586 6.15088 36.452 6.15088 38.0476C6.15088 39.6431 7.44356 40.9365 9.03816 40.9365Z" fill="white"/>
<path fill-rule="evenodd" clip-rule="evenodd" d="M18.5416 40.9365C20.1362 40.9365 21.4289 39.6431 21.4289 38.0476C21.4289 36.452 20.1362 35.1586 18.5416 35.1586C16.947 35.1586 15.6543 36.452 15.6543 38.0476C15.6543 39.6431 16.947 40.9365 18.5416 40.9365Z" fill="white"/>
<path fill-rule="evenodd" clip-rule="evenodd" d="M28.0723 40.9365C29.6669 40.9365 30.9596 39.6431 30.9596 38.0476C30.9596 36.452 29.6669 35.1586 28.0723 35.1586C26.4777 35.1586 25.1851 36.452 25.1851 38.0476C25.1851 39.6431 26.4777 40.9365 28.0723 40.9365Z" fill="white"/>
<path fill-rule="evenodd" clip-rule="evenodd" d="M79.0215 39.0253C79.2544 38.7588 79.6525 38.7223 79.9291 38.9353L79.9617 38.9621L82.6047 41.2733C82.8817 41.5156 82.91 41.9367 82.6679 42.214C82.4351 42.4805 82.0369 42.517 81.7603 42.304L81.7277 42.2772L79.0848 39.9661C78.8077 39.7238 78.7794 39.3026 79.0215 39.0253Z" fill="white"/>
<path fill-rule="evenodd" clip-rule="evenodd" d="M81.7661 38.9712C82.0486 38.7352 82.4688 38.7731 82.7046 39.0558C82.9314 39.3276 82.9051 39.7267 82.6516 39.9668L82.6201 39.9948L79.9326 42.2393C79.6501 42.4753 79.23 42.4374 78.9942 42.1547C78.7674 41.8829 78.7937 41.4838 79.0472 41.2437L79.0787 41.2157L81.7661 38.9712Z" fill="white"/>
<path fill-rule="evenodd" clip-rule="evenodd" d="M95.033 38.3816C95.3879 38.3841 95.676 38.6637 95.6938 39.0138L95.6946 39.053L95.6724 42.2086C95.6698 42.5768 95.3694 42.8732 95.0014 42.8706C94.6466 42.8681 94.3585 42.5885 94.3407 42.2384L94.3398 42.1992L94.3621 39.0436C94.3646 38.6754 94.665 38.379 95.033 38.3816Z" fill="white"/>
<path fill-rule="evenodd" clip-rule="evenodd" d="M96.605 39.9586C96.973 39.9586 97.2713 40.2571 97.2713 40.6253C97.2713 40.9804 96.9939 41.2706 96.6442 41.2909L96.605 41.292H93.429C93.061 41.292 92.7627 40.9935 92.7627 40.6253C92.7627 40.2703 93.0401 39.98 93.3898 39.9597L93.429 39.9586H96.605Z" fill="white"/>
<path fill-rule="evenodd" clip-rule="evenodd" d="M184.65 48.733C185.018 48.733 185.316 49.0315 185.316 49.3997C185.316 49.7548 185.039 50.045 184.689 50.0653L184.65 50.0664H181.03C180.662 50.0664 180.363 49.7679 180.363 49.3997C180.363 49.0447 180.641 48.7544 180.99 48.7342L181.03 48.733H184.65Z" fill="white"/>
<path fill-rule="evenodd" clip-rule="evenodd" d="M184.65 50.7318C185.018 50.7318 185.316 51.0303 185.316 51.3985C185.316 51.7536 185.039 52.0438 184.689 52.0641L184.65 52.0652H181.03C180.662 52.0652 180.363 51.7667 180.363 51.3985C180.363 51.0434 180.641 50.7532 180.99 50.7329L181.03 50.7318H184.65Z" fill="white"/>
<path fill-rule="evenodd" clip-rule="evenodd" d="M184.65 52.7535C185.018 52.7535 185.316 53.052 185.316 53.4202C185.316 53.7753 185.039 54.0655 184.689 54.0858L184.65 54.0869H181.03C180.662 54.0869 180.363 53.7884 180.363 53.4202C180.363 53.0652 180.641 52.7749 180.99 52.7547L181.03 52.7535H184.65Z" fill="white"/>
<path fill-rule="evenodd" clip-rule="evenodd" d="M174.678 50.2438C174.589 49.9549 174.345 49.7549 174.034 49.7549H172.568L172.124 48.3549C172.035 48.0882 171.769 47.8882 171.48 47.8882C171.191 47.8882 170.925 48.066 170.836 48.3549L170.392 49.7549H168.926C168.637 49.7549 168.371 49.9327 168.282 50.2216C168.193 50.4883 168.282 50.7994 168.526 50.9772L169.703 51.8439L169.259 53.2439C169.17 53.5106 169.259 53.8217 169.503 53.9995C169.614 54.0884 169.748 54.1328 169.903 54.1328C170.059 54.1328 170.17 54.0884 170.303 53.9995L171.524 53.1106L172.724 53.7995C172.968 53.9328 173.257 53.9106 173.479 53.7328C173.701 53.555 173.768 53.2661 173.701 52.9995L173.257 51.6661L174.367 51.0216C174.634 50.8438 174.745 50.5327 174.678 50.2438Z" fill="white"/>
<path fill-rule="evenodd" clip-rule="evenodd" d="M162.039 53.9366H34.5324C33.9105 53.9366 33.4219 53.4477 33.4219 52.8254V50.8698C33.4219 50.2476 33.9105 49.7587 34.5324 49.7587H162.039C162.661 49.7587 163.149 50.2476 163.149 50.8698V52.8254C163.149 53.4477 162.661 53.9366 162.039 53.9366Z" fill="white"/>
<path fill-rule="evenodd" clip-rule="evenodd" d="M12.1675 49.0808C12.4387 48.8319 12.8602 48.8501 13.109 49.1214C13.3482 49.3822 13.3406 49.7822 13.0986 50.0339L13.0685 50.0633L11.4513 51.5477L13.1331 53.0791C13.3948 53.3174 13.4232 53.7164 13.2048 53.9889L13.1774 54.0209C12.9393 54.2828 12.5405 54.3112 12.2682 54.0927L12.2362 54.0653L10.0152 52.043C9.73628 51.789 9.72508 51.3571 9.98232 51.0889L10.0132 51.0587L12.1675 49.0808Z" fill="white"/>
<path fill-rule="evenodd" clip-rule="evenodd" d="M15.8829 50.9271C16.2509 50.9271 16.5492 51.2256 16.5492 51.5938C16.5492 51.9489 16.2718 52.2391 15.922 52.2594L15.8829 52.2605H10.4637C10.0957 52.2605 9.79736 51.962 9.79736 51.5938C9.79736 51.2388 10.0747 50.9485 10.4245 50.9283L10.4637 50.9271H15.8829Z" fill="white"/>
<path fill-rule="evenodd" clip-rule="evenodd" d="M22.788 49.1191C23.0286 48.8594 23.4276 48.8347 23.6978 49.0557L23.7296 49.0834L25.8618 51.0613C26.1374 51.3169 26.1456 51.7471 25.8881 52.0133L25.8572 52.0433L23.6362 54.0656C23.3641 54.3134 22.9427 54.2935 22.695 54.0212C22.4568 53.7593 22.466 53.3594 22.7091 53.1087L22.7393 53.0794L24.4235 51.5455L22.8236 50.0612C22.5642 49.8205 22.5394 49.4213 22.7603 49.1509L22.788 49.1191Z" fill="white"/>
<path fill-rule="evenodd" clip-rule="evenodd" d="M25.408 50.9274C25.776 50.9274 26.0743 51.2259 26.0743 51.5941C26.0743 51.9491 25.7969 52.2393 25.4472 52.2596L25.408 52.2607H20.011C19.643 52.2607 19.3447 51.9623 19.3447 51.5941C19.3447 51.239 19.6221 50.9488 19.9719 50.9285L20.011 50.9274H25.408Z" fill="white"/>
<path fill-rule="evenodd" clip-rule="evenodd" d="M178.95 38.5607C179.021 38.1994 179.372 37.9644 179.733 38.0357C180.081 38.1044 180.312 38.4329 180.264 38.7802L180.257 38.8189L180.064 39.7969L181.122 39.9162C181.474 39.9559 181.732 40.2642 181.713 40.6142L181.709 40.6532C181.67 41.0061 181.362 41.2635 181.012 41.2445L180.973 41.2412L179.196 41.0412C178.822 40.9991 178.56 40.657 178.61 40.2891L178.617 40.2496L178.95 38.5607Z" fill="white"/>
<path fill-rule="evenodd" clip-rule="evenodd" d="M181.478 37.9753C181.776 37.7588 182.192 37.8249 182.409 38.1228C182.616 38.4092 182.563 38.8057 182.294 39.0282L182.261 39.054L179.662 40.943C179.365 41.1594 178.948 41.0933 178.732 40.7954C178.524 40.509 178.577 40.1125 178.846 39.8901L178.879 39.8642L181.478 37.9753Z" fill="white"/>
<path fill-rule="evenodd" clip-rule="evenodd" d="M183.827 35.1273C183.869 34.7747 184.178 34.5186 184.527 34.5391L184.566 34.5425L186.277 34.7425C186.651 34.7863 186.911 35.1298 186.859 35.4976L186.852 35.5371L186.497 37.2927C186.424 37.6536 186.072 37.8868 185.712 37.8138C185.364 37.7433 185.135 37.4136 185.184 37.0666L185.191 37.028L185.402 35.9825L184.412 35.8669C184.059 35.8257 183.803 35.5163 183.824 35.1664L183.827 35.1273Z" fill="white"/>
<path fill-rule="evenodd" clip-rule="evenodd" d="M185.827 34.8921C186.123 34.6741 186.54 34.7378 186.758 35.0345C186.968 35.3197 186.917 35.7165 186.649 35.9405L186.616 35.9665L184.017 37.8777C183.721 38.0957 183.304 38.032 183.086 37.7353C182.876 37.4501 182.927 37.0533 183.195 36.8293L183.228 36.8033L185.827 34.8921Z" fill="white"/>
<path fill-rule="evenodd" clip-rule="evenodd" d="M62.2106 117.803H27.6965C26.3417 117.803 25.2534 116.714 25.2534 115.358V96.2911C25.2534 94.9355 26.3417 93.8466 27.6965 93.8466H62.2106C63.5653 93.8466 64.6536 94.9355 64.6536 96.2911V115.358C64.6536 116.714 63.5653 117.803 62.2106 117.803Z" fill="#A1F7C4"/>
<path fill-rule="evenodd" clip-rule="evenodd" d="M157.731 87.1105H26.9378C26.2493 87.1105 25.7163 86.555 25.7163 85.8883V76.6213C25.7163 75.9324 26.2716 75.399 26.9378 75.399H157.731C158.42 75.399 158.953 75.9546 158.953 76.6213V85.8883C158.953 86.555 158.398 87.1105 157.731 87.1105Z" fill="white"/>
<path fill-rule="evenodd" clip-rule="evenodd" d="M157.732 74.7344H26.9386C25.8985 74.7344 25.0508 75.572 25.0508 76.6233V85.8903C25.0508 86.9311 25.8879 87.7793 26.9386 87.7793H157.732C158.766 87.7793 159.62 86.9252 159.62 85.8903V76.6233C159.62 75.5826 158.783 74.7344 157.732 74.7344ZM26.9407 76.0684H157.734C158.045 76.0684 158.29 76.3158 158.29 76.6239V85.8909C158.29 86.1894 158.033 86.4465 157.734 86.4465H26.9407C26.6297 86.4465 26.3855 86.199 26.3855 85.8909V76.6239C26.3855 76.3128 26.6328 76.0684 26.9407 76.0684Z" fill="#5D21D1"/>
<rect x="124.95" y="75.1974" width="33.87" height="11.8893" fill="#5D21D1"/>
<path fill-rule="evenodd" clip-rule="evenodd" d="M146.096 86.5544C145.985 86.5544 145.896 86.51 145.829 86.4655L142.764 83.7988C142.387 83.9988 142.009 84.1543 141.587 84.221C141.321 84.2654 141.032 84.3099 140.765 84.3099C138.811 84.3099 137.123 82.9321 136.745 81.0209C136.523 79.9542 136.745 78.843 137.345 77.9319C137.945 77.0208 138.878 76.3985 139.966 76.1763C140.232 76.1318 140.521 76.0874 140.788 76.0874C142.742 76.0874 144.43 77.4652 144.808 79.3764C145.052 80.5987 144.741 81.8654 143.941 82.821L146.829 85.3321C146.94 85.4433 146.984 85.5988 146.94 85.7766C146.918 85.9099 146.829 86.0655 146.718 86.1766L146.629 86.2877C146.496 86.4433 146.274 86.5544 146.096 86.5544ZM140.762 77.6644C140.584 77.6644 140.429 77.6867 140.251 77.7089C139.585 77.8422 139.03 78.22 138.652 78.7978C138.275 79.3534 138.141 80.0423 138.275 80.6867C138.519 81.8646 139.541 82.709 140.74 82.709C140.918 82.709 141.073 82.6868 141.251 82.6646C141.917 82.5312 142.472 82.1535 142.85 81.5757C143.227 81.0201 143.361 80.3312 143.227 79.6867C143.005 78.5089 141.961 77.6644 140.762 77.6644Z" fill="white"/>
<path fill-rule="evenodd" clip-rule="evenodd" d="M67.5837 83.7762H30.9375C30.4711 83.7762 30.0713 83.3984 30.0713 82.9095V79.4427C30.0713 78.9761 30.4489 78.576 30.9375 78.576H67.5837C68.0501 78.576 68.4499 78.9538 68.4499 79.4427V82.9095C68.4499 83.3762 68.0501 83.7762 67.5837 83.7762Z" fill="#00AC45"/>
<path fill-rule="evenodd" clip-rule="evenodd" d="M63.2951 124.578H26.0049C25.5384 124.578 25.1387 124.2 25.1387 123.711V122.6C25.1387 122.133 25.5162 121.733 26.0049 121.733H63.2951C63.7616 121.733 64.1613 122.111 64.1613 122.6V123.711C64.1391 124.2 63.7616 124.578 63.2951 124.578Z" fill="#A1F7C4"/>
<path fill-rule="evenodd" clip-rule="evenodd" d="M109.828 117.803H75.3142C73.9594 117.803 72.8711 116.714 72.8711 115.358V96.2911C72.8711 94.9355 73.9594 93.8466 75.3142 93.8466H109.828C111.183 93.8466 112.271 94.9355 112.271 96.2911V115.358C112.271 116.714 111.183 117.803 109.828 117.803Z" fill="#00AC45"/>
<path fill-rule="evenodd" clip-rule="evenodd" d="M110.891 124.578H73.6225C73.1561 124.578 72.7563 124.2 72.7563 123.711V122.6C72.7563 122.133 73.1339 121.733 73.6225 121.733H110.891C111.357 121.733 111.757 122.111 111.757 122.6V123.711C111.757 124.2 111.379 124.578 110.891 124.578Z" fill="#00AC45"/>
<path fill-rule="evenodd" clip-rule="evenodd" d="M157.441 117.803H122.905C121.55 117.803 120.461 116.714 120.461 115.358V96.2911C120.461 94.9355 121.55 93.8466 122.905 93.8466H157.419C158.773 93.8466 159.862 94.9355 159.862 96.2911V115.358C159.884 116.714 158.773 117.803 157.441 117.803Z" fill="#A1F7C4"/>
<path fill-rule="evenodd" clip-rule="evenodd" d="M158.513 124.578H121.245C120.779 124.578 120.379 124.2 120.379 123.711V122.6C120.379 122.133 120.756 121.733 121.245 121.733H158.513C158.98 121.733 159.379 122.111 159.379 122.6V123.711C159.379 124.2 158.98 124.578 158.513 124.578Z" fill="#A1F7C4"/>
<path fill-rule="evenodd" clip-rule="evenodd" d="M64.6536 135.914V149.692H25.2534V135.914C25.2534 134.558 26.3417 133.469 27.6965 133.469H62.2106C63.5653 133.469 64.6536 134.558 64.6536 135.914Z" fill="#A1F7C4"/>
<path fill-rule="evenodd" clip-rule="evenodd" d="M112.271 135.914V149.692H72.8711V135.914C72.8711 134.558 73.9594 133.469 75.3142 133.469H109.828C111.183 133.469 112.271 134.558 112.271 135.914Z" fill="#A1F7C4"/>
<path fill-rule="evenodd" clip-rule="evenodd" d="M159.884 135.914V149.692H120.461V135.914C120.461 134.558 121.55 133.469 122.905 133.469H157.419C158.773 133.469 159.884 134.558 159.884 135.914Z" fill="#A1F7C4"/>
<path fill-rule="evenodd" clip-rule="evenodd" d="M325.725 67.1494C325.18 67.4061 314.302 68.0157 309.04 68.3044C307.339 68.4007 305.831 69.4594 305.158 71.0315L302.559 77.1594" fill="white"/>
<path fill-rule="evenodd" clip-rule="evenodd" d="M325.315 66.2781C325.796 66.0518 326.369 66.2582 326.596 66.7392C326.822 67.2202 326.616 67.7936 326.134 68.0199C325.502 68.3173 320.33 68.6484 309.094 69.265C307.792 69.3387 306.631 70.1327 306.084 71.3152L306.043 71.4069L303.444 77.5348C303.237 78.0242 302.672 78.2527 302.182 78.0451C301.71 77.845 301.481 77.3125 301.651 76.8359L301.672 76.7832L304.272 70.6519C305.09 68.7447 306.919 67.46 308.987 67.343L313.55 67.0863C320.082 66.7091 324.993 66.3809 325.305 66.2817L325.315 66.2781Z" fill="#2E186A"/>
<path fill-rule="evenodd" clip-rule="evenodd" d="M320.398 72.0903C320.398 72.0903 328.901 67.2457 330.73 69.3632C332.527 71.4807 331.629 74.0474 324.73 76.1328C317.832 78.1862 320.398 72.0903 320.398 72.0903Z" fill="white"/>
<path fill-rule="evenodd" clip-rule="evenodd" d="M325.409 68.6984C324.718 68.9482 323.994 69.2454 323.25 69.58C322.437 69.9453 321.641 70.3359 320.895 70.7266L320.521 70.9243C320.442 70.9665 320.366 71.0074 320.294 71.0469L319.922 71.253C319.738 71.3578 319.593 71.5205 319.511 71.7157C319.438 71.889 319.337 72.1686 319.238 72.5233C319.069 73.1262 318.967 73.7343 318.968 74.3242C318.975 77.0165 321.052 78.2307 325.004 77.0542C328.466 76.0078 330.698 74.7747 331.765 73.3309C332.847 71.8668 332.698 70.2489 331.532 68.8216L331.459 68.733C330.361 67.4619 328.301 67.6527 325.409 68.6984ZM329.996 69.9853C330.679 70.7905 330.751 71.4642 330.217 72.1874C329.451 73.2232 327.548 74.2747 324.451 75.2108C322.854 75.6864 321.839 75.6895 321.338 75.3964C321.041 75.2228 320.895 74.8814 320.894 74.3198C320.893 73.9304 320.966 73.4893 321.091 73.0435L321.143 72.8701L321.179 72.757L321.545 72.5601C321.623 72.5188 321.704 72.4763 321.787 72.4327C322.502 72.0587 323.264 71.6846 324.039 71.3362C324.742 71.0203 325.422 70.7412 326.063 70.5091L326.31 70.4218C328.257 69.7467 329.624 69.6251 329.981 69.9695L329.996 69.9853Z" fill="#2E186A"/>
<path fill-rule="evenodd" clip-rule="evenodd" d="M319.019 78.6338C319.019 78.6338 327.522 73.7892 329.351 75.9067C331.18 78.0242 330.249 80.5909 323.351 82.6763C316.452 84.7617 319.019 78.6338 319.019 78.6338Z" fill="white"/>
<path fill-rule="evenodd" clip-rule="evenodd" d="M324.03 75.2444C323.339 75.4943 322.615 75.7914 321.871 76.126C321.058 76.4913 320.263 76.8819 319.516 77.2726L319.142 77.4703C319.063 77.5125 318.988 77.5534 318.915 77.593L318.543 77.799C318.358 77.9042 318.213 78.0675 318.131 78.2634C318.059 78.4373 317.958 78.7179 317.858 79.0739C317.69 79.6768 317.589 80.2847 317.589 80.8741C317.593 83.5786 319.672 84.7955 323.629 83.5991L324.009 83.4821C327.253 82.4616 329.366 81.2667 330.397 79.8787C331.508 78.3818 331.327 76.7238 330.08 75.2791C328.982 74.008 326.922 74.1987 324.03 75.2444ZM328.623 76.5377C329.315 77.3391 329.388 78.0086 328.851 78.7317C328.082 79.7671 326.172 80.8198 323.072 81.7568C321.47 82.2413 320.456 82.2476 319.957 81.9553C319.661 81.7823 319.515 81.4384 319.515 80.8721C319.514 80.4813 319.588 80.039 319.713 79.5918L319.747 79.4743L319.781 79.3617L319.801 79.3027L320.166 79.1062C320.244 79.0648 320.325 79.0223 320.408 78.9787C321.123 78.6047 321.885 78.2306 322.66 77.8822C323.363 77.5663 324.042 77.2873 324.684 77.0551L324.931 76.9679C326.878 76.2928 328.245 76.1712 328.602 76.5155L328.623 76.5377Z" fill="#2E186A"/>
<path fill-rule="evenodd" clip-rule="evenodd" d="M316.453 80.7849C316.453 80.7849 326.079 79.0203 327.106 81.619C328.133 84.2178 326.4 86.3353 319.213 86.0465C312.025 85.6936 316.453 80.7849 316.453 80.7849Z" fill="white"/>
<path fill-rule="evenodd" clip-rule="evenodd" d="M321.794 79.2486C320.678 79.2825 319.49 79.3859 318.292 79.5369C317.847 79.593 317.426 79.6525 317.037 79.7125L316.668 79.7713L316.299 79.8342L316.279 79.8378C316.07 79.8761 315.88 79.9823 315.738 80.1399L315.645 80.2457C315.451 80.4742 315.204 80.8021 314.958 81.2034C314.528 81.9028 314.238 82.6106 314.161 83.3211C313.925 85.4831 315.633 86.8341 319.165 87.0075L319.562 87.0213C322.963 87.12 325.35 86.6836 326.78 85.7112C328.323 84.6625 328.701 83.0381 328.001 81.265C327.351 79.6203 325.161 79.1462 321.794 79.2486ZM326.21 81.9716C326.598 82.9537 326.445 83.6104 325.697 84.1186C324.629 84.8448 322.48 85.2135 319.25 85.0837L319.002 85.0697C316.657 84.9202 315.984 84.3579 316.074 83.5289C316.115 83.1484 316.304 82.6883 316.598 82.2105L316.675 82.0874C316.754 81.9659 316.836 81.8493 316.918 81.7393L316.969 81.6715L317.148 81.6428L317.519 81.5855C317.837 81.5378 318.177 81.4908 318.532 81.4461C319.674 81.3021 320.803 81.2038 321.852 81.1719L322.121 81.1654C324.472 81.1221 326.012 81.4721 326.21 81.9716Z" fill="#2E186A"/>
<path fill-rule="evenodd" clip-rule="evenodd" d="M314.045 94.0032C312.377 108.858 296.654 152.234 281.895 153.807C266.012 155.475 260.429 140.235 272.654 127.274C284.847 114.312 293.606 97.4361 298.74 88.1641C298.74 88.1641 298.483 75.6837 302.462 75.3628C306.377 74.9778 314.045 94.0032 314.045 94.0032Z" fill="white"/>
<path fill-rule="evenodd" clip-rule="evenodd" d="M302.368 74.4035C300.007 74.5937 298.799 77.2629 298.183 81.556C297.982 82.956 297.863 84.4519 297.808 85.9565C297.791 86.4189 297.781 86.8578 297.777 87.2663L297.775 87.8302L297.775 87.9191L295.06 92.8582L294.482 93.9047C293.474 95.7227 292.569 97.3283 291.644 98.9352C288.778 103.913 286.007 108.377 283.095 112.608C279.481 117.859 275.789 122.535 271.953 126.613C259.227 140.106 265.059 156.541 281.996 154.762C289.159 153.999 296.726 144.435 303.753 129.289C309.437 117.038 314.094 102.198 315.002 94.1092C315.02 93.9506 314.998 93.79 314.938 93.642L314.649 92.9397L314.419 92.3905C314.197 91.8665 313.954 91.3008 313.691 90.7019C312.726 88.5011 311.699 86.2998 310.652 84.2421C309.771 82.5117 308.915 80.9598 308.093 79.6288L307.949 79.3963C305.835 76.0212 304.09 74.2341 302.368 74.4035ZM302.54 76.3208C303.197 76.2564 304.633 77.7271 306.318 80.4178C307.149 81.7458 308.028 83.33 308.937 85.1152C309.966 87.1364 310.978 89.3053 311.929 91.4747L312.146 91.9728C312.323 92.3809 312.49 92.7709 312.646 93.1397L312.958 93.8844L313.061 94.1359L313.032 94.374C312.023 102.339 307.498 116.644 302.007 128.479C295.265 143.009 288.005 152.186 281.794 152.848C266.797 154.423 261.759 140.227 273.355 127.933C277.264 123.777 281.015 119.026 284.681 113.699C287.517 109.58 290.216 105.249 292.992 100.451L293.313 99.8957C294.244 98.2791 295.153 96.665 296.165 94.8389L299.583 88.6288C299.665 88.4809 299.706 88.314 299.703 88.1449L299.7 87.8213C299.7 87.7209 299.7 87.6065 299.701 87.4793L299.705 87.0874C299.71 86.7526 299.719 86.3978 299.732 86.0272C299.785 84.5854 299.899 83.1547 300.089 81.8293L300.135 81.5203C300.632 78.3164 301.529 76.4023 302.54 76.3208Z" fill="#2E186A"/>
<path fill-rule="evenodd" clip-rule="evenodd" d="M303.041 91.9492L317.063 97.4355C318.25 97.8846 319.565 97.3071 320.015 96.1521L331.919 65.7692C332.368 64.5821 331.79 63.2667 330.635 62.8175L316.613 57.3313C315.426 56.8821 314.111 57.4596 313.662 58.6146L301.757 88.9975C301.308 90.1525 301.886 91.468 303.041 91.9492Z" fill="#2E186A"/>
<path fill-rule="evenodd" clip-rule="evenodd" d="M305.799 89.8964L315.361 93.6501C316.548 94.0993 317.864 93.5218 318.313 92.3668L328.324 66.8285C328.773 65.6414 328.196 64.326 327.04 63.8768L317.479 60.123C316.291 59.6739 314.976 60.2514 314.527 61.4064L304.516 86.9447C304.067 88.1318 304.644 89.4472 305.799 89.8964Z" fill="white"/>
<path fill-rule="evenodd" clip-rule="evenodd" d="M313.629 61.0562L303.615 86.6028C302.981 88.2783 303.797 90.1494 305.45 90.7921L315.009 94.5447C316.696 95.183 318.567 94.3671 319.21 92.7143L329.22 67.1784C329.858 65.4922 329.042 63.6211 327.389 62.9784L317.83 59.2258C316.143 58.5875 314.272 59.4035 313.629 61.0562ZM317.138 61.0211L326.689 64.7705C327.354 65.0291 327.687 65.7918 327.424 66.4857L317.417 92.0134C317.159 92.6777 316.396 93.0103 315.702 92.7477L306.151 88.9983L306.09 88.9726C305.486 88.7012 305.182 88.0024 305.394 87.3484L305.414 87.2897L315.423 61.7554C315.682 61.0911 316.445 60.7585 317.138 61.0211Z" fill="#2E186A"/>
<path fill-rule="evenodd" clip-rule="evenodd" d="M303.714 84.1199C304.484 82.612 305.671 80.9116 307.5 79.4679C316.709 78.8262 314.302 75.2649 311.607 73.757C308.816 72.217 304.516 72.9229 301.917 75.4254" fill="white"/>
<path fill-rule="evenodd" clip-rule="evenodd" d="M301.249 74.7329C304.128 71.9617 308.881 71.1549 312.077 72.918C313.957 73.9694 315.254 75.5347 314.965 77.1118C314.625 78.9643 312.338 80.0261 308.085 80.3889L307.872 80.4059L307.764 80.4962C306.457 81.6016 305.438 82.9162 304.667 84.3754L304.571 84.5586C304.33 85.032 303.75 85.2198 303.276 84.9781C302.803 84.7363 302.615 84.1565 302.857 83.6831C303.822 81.7931 305.148 80.0992 306.904 78.7133C307.056 78.5934 307.24 78.522 307.433 78.5086C311.211 78.2454 312.937 77.4929 313.071 76.7646C313.166 76.2461 312.373 75.2893 311.142 74.6007C308.717 73.2627 304.875 73.9148 302.585 76.1196C302.202 76.4883 301.593 76.4768 301.224 76.0939C300.855 75.711 300.867 75.1017 301.249 74.7329Z" fill="#2E186A"/>
<path fill-rule="evenodd" clip-rule="evenodd" d="M275.221 159.134L284.141 136.868C284.141 136.868 237.776 94.0368 222.856 90.636C213.005 88.3902 192.758 87.8447 183.903 92.3364L164.362 96.2506C157.495 93.8122 149.185 95.1918 142.832 103.084C129.708 119.383 117.516 179.603 117.516 179.603L141.901 181.849L144.147 177.357C144.147 177.357 135.677 230.391 148.896 230.391C150.115 230.391 223.882 229.781 223.882 229.781L222.085 167.828C222.085 167.828 227.091 149.156 227.636 134.141C251.348 147.423 275.221 159.134 275.221 159.134Z" fill="#2E186A"/>
<path fill-rule="evenodd" clip-rule="evenodd" d="M198.021 68.8188L195.005 90.6355L202.802 90.1542C202.802 90.1542 206.3 108.442 186.759 111.233C173.154 113.158 172.448 92.8171 172.448 92.8171L173.058 56.6913L198.021 68.8188Z" fill="white"/>
<path fill-rule="evenodd" clip-rule="evenodd" d="M172.096 56.6753L171.486 92.8011L171.487 92.8508L171.498 93.0795L171.512 93.3054C171.517 93.385 171.523 93.4688 171.53 93.5566L171.54 93.6915C171.593 94.344 171.672 95.0694 171.782 95.8499C172.098 98.0825 172.606 100.317 173.351 102.412C175.786 109.258 180.174 113.137 186.894 112.186C195.171 111.004 200.215 107.052 202.561 101.231C203.954 97.7749 204.232 94.1504 203.881 90.926L203.859 90.7292C203.818 90.3845 203.778 90.1289 203.748 89.9737L203.736 89.9173C203.623 89.4718 203.207 89.1651 202.743 89.1938L196.12 89.6023L198.975 68.9508C199.032 68.5381 198.817 68.1354 198.442 67.9533L173.479 55.8258C172.846 55.5183 172.108 55.9717 172.096 56.6753ZM173.995 58.2167L196.972 69.3794L194.052 90.5038L194.046 90.56C193.999 91.1385 194.477 91.6326 195.065 91.5963L201.97 91.1698L201.967 91.1342C202.287 94.0707 202.031 97.3939 200.775 100.512C198.686 105.696 194.218 109.195 186.623 110.28C180.982 111.078 177.327 107.848 175.165 101.767C174.467 99.8057 173.988 97.6936 173.688 95.5798C173.583 94.8392 173.508 94.152 173.459 93.5368L173.44 93.2922C173.432 93.1759 173.425 93.0689 173.42 92.9716L173.411 92.8051L173.995 58.2167Z" fill="#2E186A"/>
<path fill-rule="evenodd" clip-rule="evenodd" d="M175.049 56.4653L172.931 57.2674C172.931 57.2674 160.449 60.8607 159.422 48.8295C158.652 39.6857 167.444 38.8195 171.744 38.9478" fill="white"/>
<path fill-rule="evenodd" clip-rule="evenodd" d="M163.245 39.5548C165.655 38.328 168.644 37.8933 171.772 37.9867C172.304 38.0026 172.722 38.4461 172.706 38.9775C172.69 39.5088 172.246 39.9267 171.715 39.9108C168.88 39.8262 166.185 40.2182 164.119 41.2703C161.422 42.6433 160.066 45.0057 160.381 48.7486C160.778 53.3914 162.928 55.7575 166.356 56.5361C168.041 56.9187 169.873 56.8766 171.612 56.5716C171.857 56.5286 172.082 56.4832 172.283 56.4377L172.509 56.3841L172.629 56.353L174.707 55.5662C175.187 55.3846 175.721 55.6109 175.927 56.073L175.949 56.1253C176.13 56.6047 175.904 57.1384 175.442 57.3448L175.389 57.3663L173.272 58.1684C173.247 58.1777 173.222 58.186 173.197 58.1933L173.088 58.2235C172.83 58.2923 172.441 58.3805 171.944 58.4676C169.975 58.813 167.901 58.8608 165.93 58.4133C161.7 57.4527 158.932 54.407 158.463 48.9112C158.081 44.3774 159.859 41.2785 163.245 39.5548Z" fill="#2E186A"/>
<path fill-rule="evenodd" clip-rule="evenodd" d="M219.713 44.0169C220.098 49.5352 219.008 75.0094 201.937 77.6081C184.867 80.2069 172.803 64.7427 170.557 48.4123C168.311 32.0819 175.081 18.0936 185.83 16.2007C196.611 14.2757 216.954 4.16941 219.713 44.0169Z" fill="white"/>
<path fill-rule="evenodd" clip-rule="evenodd" d="M199.563 12.7C196.994 12.7863 194.564 13.2039 190.903 14.0679L188.02 14.7555L187.653 14.8401C186.88 15.0165 186.244 15.149 185.661 15.2531C174.26 17.2608 167.305 31.8367 169.603 48.5434C170.774 57.0566 174.512 65.1407 179.998 70.7797C186.006 76.9555 193.682 79.8385 202.082 78.5597C210.101 77.3388 215.365 71.3522 218.288 62.2002C220.264 56.0152 220.996 48.5645 220.674 43.9504C219.823 31.6643 217.276 23.3759 213.161 18.4292C209.645 14.2017 205.135 12.5128 199.563 12.7ZM211.682 19.66C215.456 24.198 217.88 32.0057 218.729 43.7273L218.754 44.0837C219.06 48.4675 218.352 55.6766 216.455 61.6144C213.732 70.1406 208.963 75.565 201.793 76.6564C194.035 77.8377 186.97 75.1844 181.379 69.4374C176.19 64.1036 172.628 56.4002 171.511 48.281C169.339 32.483 175.798 18.9446 185.998 17.1484L186.287 17.0954C186.872 16.9853 187.507 16.8494 188.265 16.6748L191.098 16.0001C194.784 15.1234 197.163 14.7066 199.629 14.6237C204.644 14.4552 208.578 15.9283 211.682 19.66Z" fill="#2E186A"/>
<path fill-rule="evenodd" clip-rule="evenodd" d="M204.383 32.1963C204.886 32.0972 205.374 32.4092 205.501 32.8993L205.513 32.9544L209.588 53.6161C209.699 54.1779 209.298 54.7068 208.737 54.7604L208.68 54.7641L203.546 54.9566C203.015 54.9766 202.568 54.5621 202.548 54.0309C202.529 53.5187 202.914 53.0849 203.417 53.0368L203.474 53.033L207.481 52.8828L203.624 33.3269C203.525 32.824 203.837 32.3354 204.327 32.2089L204.383 32.1963Z" fill="#2E186A"/>
<path fill-rule="evenodd" clip-rule="evenodd" d="M193.246 34.7028C195.322 33.1764 197.591 32.7412 199.727 34.2024C199.801 34.2534 199.875 34.3065 199.948 34.362C200.373 34.6822 200.457 35.2857 200.137 35.71C199.817 36.1343 199.213 36.2187 198.789 35.8985C198.739 35.861 198.689 35.8252 198.64 35.7911C197.312 34.8831 195.875 35.1587 194.386 36.2537C194.071 36.4854 193.783 36.735 193.53 36.9836L193.439 37.0751C193.369 37.1464 193.314 37.205 193.276 37.2476L193.238 37.2909C192.895 37.6972 192.288 37.7486 191.881 37.4058C191.475 37.063 191.424 36.4558 191.766 36.0495L191.829 35.9773C191.912 35.884 192.03 35.7592 192.18 35.6118C192.495 35.3018 192.851 34.9926 193.246 34.7028Z" fill="#2E186A"/>
<path fill-rule="evenodd" clip-rule="evenodd" d="M210.555 33.9556C212.062 33.0923 213.631 32.7004 215.164 33.0917C215.993 33.3032 216.76 33.7412 217.439 34.4134C217.817 34.7873 217.82 35.3967 217.446 35.7746C217.073 36.1525 216.463 36.1557 216.085 35.7819C215.647 35.3483 215.183 35.0831 214.688 34.9569C213.729 34.7121 212.626 34.9876 211.512 35.6259C211.211 35.7981 210.935 35.9832 210.69 36.1673L210.602 36.2346C210.535 36.287 210.482 36.3299 210.445 36.3609L210.409 36.3923C210.013 36.7468 209.405 36.7132 209.05 36.3171C208.695 35.921 208.729 35.3126 209.125 34.958L209.188 34.9037C209.27 34.8335 209.385 34.7402 209.531 34.6302C209.837 34.3998 210.18 34.1703 210.555 33.9556Z" fill="#2E186A"/>
<path fill-rule="evenodd" clip-rule="evenodd" d="M201.036 46.3071C201.057 44.8189 200.314 43.6013 199.374 43.5877C198.435 43.574 197.657 44.7694 197.635 46.2577C197.613 47.7459 198.357 48.9635 199.296 48.9771C200.235 48.9908 201.014 47.7954 201.036 46.3071Z" fill="#2E186A"/>
<path fill-rule="evenodd" clip-rule="evenodd" d="M217.459 47.1256C217.481 45.6373 216.737 44.4198 215.798 44.4061C214.859 44.3925 214.08 45.5879 214.058 47.0761C214.037 48.5644 214.78 49.7819 215.719 49.7956C216.659 49.8092 217.437 48.6138 217.459 47.1256Z" fill="#2E186A"/>
<path fill-rule="evenodd" clip-rule="evenodd" d="M181.407 42.1994C181.036 50.6073 185.886 57.7774 192.369 58.1344C198.851 58.4915 204.31 51.8893 204.681 43.4814C205.053 35.0736 200.203 27.9035 193.72 27.5465C187.237 27.1894 181.779 33.7916 181.407 42.1994ZM182.859 42.2792C183.198 34.5849 188.087 28.6722 193.657 28.9792C199.227 29.2861 203.571 35.7076 203.232 43.4018C202.892 51.096 198.003 57.0087 192.433 56.7018C186.863 56.3948 182.519 49.9734 182.859 42.2792Z" fill="#00AC45"/>
<path fill-rule="evenodd" clip-rule="evenodd" d="M210.054 42.9628C209.682 51.3706 214.533 58.5407 221.015 58.8978C227.498 59.2548 232.956 52.6526 233.328 44.2448C233.699 35.837 228.849 28.6668 222.366 28.3098C215.884 27.9527 210.425 34.5549 210.054 42.9628ZM211.505 43.0425C211.845 35.3482 216.733 29.4355 222.304 29.7425C227.874 30.0494 232.218 36.4709 231.878 44.1651C231.538 51.8593 226.65 57.772 221.08 57.4651C215.509 57.1581 211.165 50.7367 211.505 43.0425Z" fill="#00AC45"/>
<path fill-rule="evenodd" clip-rule="evenodd" d="M204.268 38.547L211.071 38.7395C211.469 38.7508 211.783 39.083 211.772 39.4815C211.761 39.8634 211.455 40.1676 211.079 40.1824L211.03 40.1827L204.227 39.9902C203.829 39.9789 203.515 39.6467 203.526 39.2482C203.537 38.8662 203.843 38.562 204.219 38.5473L204.268 38.547Z" fill="#00AC45"/>
<path fill-rule="evenodd" clip-rule="evenodd" d="M182.832 36.5632C183.228 36.5198 183.585 36.8059 183.628 37.2022C183.67 37.582 183.409 37.9252 183.038 37.9913L182.989 37.9984L167.171 39.7309C166.774 39.7743 166.418 39.4882 166.374 39.0919C166.333 38.7121 166.594 38.3689 166.965 38.3027L167.014 38.2957L182.832 36.5632Z" fill="#00AC45"/>
<path fill-rule="evenodd" clip-rule="evenodd" d="M198.438 62.2412C198.438 62.2412 201.551 64.7758 204.663 63.8133L198.438 62.2412Z" fill="white"/>
<path fill-rule="evenodd" clip-rule="evenodd" d="M204.433 62.8785C204.925 62.7572 205.431 63.0391 205.583 63.5288C205.734 64.0185 205.475 64.5372 204.955 64.7272L204.896 64.7469L204.947 64.7327C203.121 65.2974 201.229 64.9269 199.415 63.9917C198.998 63.7769 198.617 63.5468 198.279 63.3158L198.149 63.2255C198.007 63.1253 197.899 63.0437 197.83 62.9874C197.418 62.6517 197.356 62.0455 197.692 61.6333C198.015 61.237 198.588 61.1644 198.998 61.4578L199.146 61.5712C199.201 61.6125 199.275 61.6648 199.364 61.7258C199.64 61.9144 199.954 62.1039 200.297 62.2807C201.663 62.9846 203.033 63.2661 204.31 62.9143L204.433 62.8785Z" fill="#2E186A"/>
<path fill-rule="evenodd" clip-rule="evenodd" d="M230.205 18.3831C223.628 -8.85569 188.589 -0.449857 183.102 11.5493C160.096 6.28765 150.984 23.0672 146.588 33.9114C142.352 44.4027 144.759 54.3806 149.925 65.6418C152.909 72.1227 165.776 67.631 172.738 66.8289L172.77 57.3322C171.359 57.6852 160.353 60.1235 159.422 48.8622C159.069 44.7556 160.674 42.3172 162.92 40.8735C163.754 42.0285 165.326 42.5418 167.925 41.9643C177.006 40.0393 182.076 31.3127 184.45 25.666L225.809 24.1581C228.761 24.0618 230.911 21.2706 230.205 18.3831Z" fill="#2E186A"/>
<path fill-rule="evenodd" clip-rule="evenodd" d="M180.188 84.8093C182.165 74.8327 176.723 65.349 168.031 63.6267C159.34 61.9044 150.692 68.5957 148.714 78.5723C146.737 88.5488 152.179 98.0326 160.871 99.7549C169.562 101.477 178.21 94.7858 180.188 84.8093Z" fill="#2E186A"/>
<path fill-rule="evenodd" clip-rule="evenodd" d="M193.51 105.369C196.45 98.6092 194.066 91.0554 188.183 88.4968C182.301 85.9381 175.148 89.3434 172.207 96.1028C169.267 102.862 171.652 110.416 177.534 112.975C183.417 115.533 190.569 112.128 193.51 105.369Z" fill="#2E186A"/>
<path fill-rule="evenodd" clip-rule="evenodd" d="M201.543 123.305C205.759 118.237 205.609 111.162 201.208 107.502C196.808 103.842 189.823 104.983 185.607 110.051C181.392 115.118 181.541 122.193 185.942 125.854C190.342 129.514 197.327 128.373 201.543 123.305Z" fill="#2E186A"/>
<path fill-rule="evenodd" clip-rule="evenodd" d="M197.798 139.818C201.456 142.834 207.263 141.871 210.761 137.7C214.258 133.53 214.098 127.69 210.44 124.675C206.782 121.659 200.846 122.332 197.349 126.503C193.851 130.706 194.14 136.834 197.798 139.818Z" fill="#2E186A"/>
<path fill-rule="evenodd" clip-rule="evenodd" d="M201.615 152.265C205.529 155.089 205.818 158.201 205.176 160.543C204.855 161.634 206.107 162.564 207.037 161.922C212.492 158.201 221.059 150.725 215.893 143.089C213.455 139.464 208.321 138.373 203.989 140.908C199.625 143.442 198.053 149.731 201.615 152.265Z" fill="#2E186A"/>
<path fill-rule="evenodd" clip-rule="evenodd" d="M179.305 85.7065C179.669 85.0983 180.457 84.9001 181.065 85.264C181.654 85.6161 181.859 86.3655 181.541 86.9647L181.508 87.0241L175.058 97.8041C174.695 98.4124 173.906 98.6105 173.298 98.2466C172.709 97.8945 172.505 97.1451 172.822 96.5459L172.856 96.4865L179.305 85.7065Z" fill="#00AC45"/>
<path fill-rule="evenodd" clip-rule="evenodd" d="M193.527 104.104C194.079 103.66 194.887 103.746 195.331 104.298C195.762 104.831 195.695 105.604 195.191 106.057L195.138 106.103L186.86 112.776C186.308 113.221 185.5 113.134 185.055 112.582C184.625 112.049 184.691 111.276 185.195 110.823L185.248 110.778L193.527 104.104Z" fill="#00AC45"/>
<path fill-rule="evenodd" clip-rule="evenodd" d="M199.396 123.883C200.027 123.56 200.8 123.811 201.123 124.442C201.435 125.053 201.211 125.796 200.624 126.136L200.564 126.168L197.612 127.676C196.981 127.999 196.207 127.748 195.885 127.117C195.573 126.506 195.797 125.763 196.384 125.423L196.444 125.391L199.396 123.883Z" fill="#00AC45"/>
<path fill-rule="evenodd" clip-rule="evenodd" d="M207.464 137.895C208.135 137.669 208.863 138.03 209.089 138.702C209.309 139.352 208.976 140.056 208.345 140.305L208.283 140.327L205.138 141.386C204.466 141.612 203.738 141.251 203.512 140.579C203.293 139.929 203.625 139.225 204.257 138.976L204.319 138.954L207.464 137.895Z" fill="#00AC45"/>
<path fill-rule="evenodd" clip-rule="evenodd" d="M96.1798 215.149C96.1798 215.149 81.5163 223.01 77.4413 225.127C73.3663 227.245 73.5267 229.94 73.5267 229.94H78.6606L93.6771 223.459" fill="white"/>
<path fill-rule="evenodd" clip-rule="evenodd" d="M97.0277 214.697C97.2789 215.165 97.1027 215.749 96.6341 216L90.7061 219.173L82.3712 223.617C80.3557 224.687 78.8248 225.495 77.8847 225.984C77.2548 226.311 76.717 226.662 76.264 227.032C75.5277 227.633 75.0468 228.254 74.7648 228.867L74.7154 228.979H78.4615L93.2951 222.578C93.7658 222.374 94.3093 222.576 94.5364 223.029L94.5603 223.08C94.7635 223.55 94.5616 224.094 94.1093 224.321L94.058 224.345L79.0415 230.826C78.9452 230.867 78.8428 230.893 78.7386 230.901L78.6601 230.905H73.5262C73.0357 230.905 72.6269 230.537 72.5703 230.055L72.5641 229.974L72.5637 229.961C72.5514 229.557 72.6357 229.003 72.8912 228.354C73.2778 227.373 73.9768 226.415 75.046 225.541C75.5526 225.127 76.1348 224.74 76.7961 224.382L78.5978 223.436C79.7376 222.835 81.2166 222.051 82.9817 221.112L87.5499 218.676L95.7245 214.303C96.193 214.052 96.7765 214.228 97.0277 214.697Z" fill="#2E186A"/>
<path fill-rule="evenodd" clip-rule="evenodd" d="M118.608 178.864L108.116 216.562L99.8373 214.958C97.3025 214.637 94.7677 215.375 92.7783 216.979L77.6977 228.048C76.8955 228.658 77.3126 229.941 78.3073 229.941C87.8049 229.909 111.003 229.845 114.982 229.941C120.437 230.069 123.517 227.888 128.106 216.241C130.512 210.113 135.999 193.655 141.165 180.661L118.608 178.864Z" fill="white"/>
<path fill-rule="evenodd" clip-rule="evenodd" d="M118.626 177.902C118.19 177.893 117.798 178.181 117.68 178.606L107.425 215.448L100.02 214.013L99.9575 214.003L99.7969 213.984C97.1187 213.688 94.4389 214.458 92.301 216.129L92.194 216.213L77.1274 227.272C75.5856 228.444 76.3807 230.903 78.3066 230.903L88.2246 230.874C100.738 230.842 110.785 230.841 114.254 230.89L114.958 230.903C121.324 231.053 124.549 227.892 129 216.594L129.189 216.102C130.625 212.287 136.551 195.607 138.168 191.222L138.528 190.247C139.184 188.476 139.816 186.798 140.428 185.199L140.595 184.764C141.097 183.458 141.584 182.209 142.059 181.016C142.298 180.414 141.886 179.753 141.241 179.701L118.684 177.905L118.626 177.902ZM119.321 179.885L139.79 181.516L139.726 181.678C139.544 182.144 139.359 182.618 139.173 183.099L138.797 184.073C138.13 185.809 137.441 187.639 136.722 189.577L136.194 191.008C134.266 196.275 128.153 213.482 127.208 215.889L126.959 216.517C122.955 226.518 120.328 229.05 115.164 228.981L114.681 228.971C110.86 228.901 95.8034 228.918 78.3026 228.977C78.2401 228.977 78.2051 228.869 78.2787 228.813L93.3465 217.754L93.3811 217.727L93.5015 217.632C95.2371 216.283 97.4012 215.66 99.5641 215.894L99.6873 215.909L107.931 217.506C108.424 217.602 108.907 217.303 109.042 216.819L119.321 179.885Z" fill="#2E186A"/>
<path fill-rule="evenodd" clip-rule="evenodd" d="M82.2539 229.94C82.2539 229.94 93.805 223.652 95.5377 222.882C97.2704 222.112 103.271 222.978 103.271 222.978" fill="white"/>
<path fill-rule="evenodd" clip-rule="evenodd" d="M95.1466 222.002C95.9779 221.633 97.347 221.544 99.2157 221.628C99.986 221.663 100.804 221.728 101.638 221.813L102.08 221.86C102.225 221.876 102.366 221.892 102.504 221.909L103.006 221.971L103.408 222.025C103.934 222.101 104.299 222.589 104.223 223.116C104.147 223.642 103.659 224.007 103.133 223.931L102.849 223.892C102.791 223.884 102.729 223.876 102.663 223.868L102.276 223.82C102.011 223.789 101.731 223.758 101.441 223.728C100.642 223.646 99.8591 223.584 99.1291 223.552L98.849 223.54C97.4248 223.491 96.3601 223.57 95.9285 223.761L95.7406 223.848C94.9988 224.201 93.2168 225.133 90.6976 226.478L89.3105 227.221C88.6645 227.567 87.9998 227.925 87.3252 228.288L82.7141 230.785C82.2472 231.04 81.6626 230.867 81.4084 230.4C81.1636 229.951 81.3144 229.392 81.7429 229.124L81.8604 229.058L84.8787 227.422C85.5641 227.051 86.2464 226.683 86.9165 226.322L90.1324 224.598C92.7676 223.192 94.5258 222.278 95.1466 222.002Z" fill="#2E186A"/>
<path fill-rule="evenodd" clip-rule="evenodd" d="M93.6127 229.364C93.6127 229.364 92.6822 225.386 96.4042 224.809C100.126 224.231 105.132 223.397 108.565 220.381" fill="white"/>
<path fill-rule="evenodd" clip-rule="evenodd" d="M107.93 219.658C108.329 219.307 108.937 219.346 109.288 219.746C109.639 220.145 109.6 220.753 109.2 221.104C107.511 222.588 105.405 223.654 102.875 224.429L102.577 224.519C100.847 225.031 99.224 225.345 96.5519 225.76C95.416 225.936 94.8467 226.468 94.6011 227.319C94.4532 227.831 94.4415 228.406 94.5146 228.935L94.5329 229.055C94.5366 229.077 94.5399 229.096 94.5429 229.111L94.5501 229.145C94.6711 229.663 94.3496 230.181 93.832 230.302C93.3143 230.423 92.7965 230.101 92.6755 229.584L92.6577 229.501C92.642 229.423 92.6245 229.321 92.6076 229.199C92.5006 228.426 92.5176 227.594 92.7515 226.785C93.1989 225.235 94.3571 224.152 96.2567 223.857L96.7196 223.785C102.283 222.896 105.363 221.912 107.93 219.658Z" fill="#2E186A"/>
<path fill-rule="evenodd" clip-rule="evenodd" d="M390.029 192.948H373.183C363.461 184.863 323.738 151.785 314.048 143.893C302.657 134.588 285.523 114.632 262.035 131.348C247.821 141.454 215.799 168.757 194.14 192.98L187.595 200.616C177.199 213.289 170.781 224.422 172.867 230.71L388.553 230.421L390.029 192.948Z" fill="#5D21D1"/>
<path fill-rule="evenodd" clip-rule="evenodd" d="M418.198 220.828L413.129 172.863C413.129 168.917 408.99 166.35 405.46 168.115C398.914 171.387 390.315 180.082 388.711 202.957C383.417 201.802 377.256 201.064 370.133 200.904L342.186 221.437V230.196H421.856C421.856 230.228 421.503 226.057 418.198 220.828Z" fill="#00AC45"/>
<path fill-rule="evenodd" clip-rule="evenodd" d="M247.881 141.937L233.634 143.156C223.591 144.504 211.141 146.749 199.077 149.059C199.077 149.059 186.05 134.59 183.002 137.702C181.686 139.049 180.916 148.001 181.173 155.316L177.451 156.727C177.451 156.727 159.097 144.664 152.519 161.379C152.327 161.893 152.808 162.406 153.322 162.214C155.118 161.54 158.552 160.93 160.028 165.646C160.028 165.646 159.611 165.294 157.012 169.272C154.701 172.833 151.749 192.051 169.204 198.179C171.579 199.206 169.878 198.179 172.702 199.526C173.6 204.499 177.322 208.349 180.788 209.087C184.766 209.921 188.456 201.419 188.97 198.66C191.408 191.506 194.681 198.243 197.729 199.43C203.794 201.804 206.97 185.538 207.58 177.774L218.104 168.438L219.933 167.219C219.805 167.186 219.677 167.186 219.548 167.154L247.881 141.937Z" fill="#00AC45"/>
<path fill-rule="evenodd" clip-rule="evenodd" d="M181.783 139.885C182.014 139.406 182.589 139.204 183.068 139.434L183.181 139.49C183.271 139.535 183.391 139.596 183.538 139.673C183.901 139.863 184.305 140.084 184.738 140.336C185.977 141.054 187.216 141.87 188.376 142.774C192.35 145.865 194.513 149.21 193.73 152.734C193.614 153.253 193.1 153.58 192.581 153.465C192.062 153.35 191.735 152.835 191.85 152.317C192.424 149.735 190.638 146.973 187.194 144.293C186.108 143.448 184.941 142.678 183.772 142.001C183.364 141.764 182.985 141.556 182.646 141.378L182.405 141.254L182.234 141.169C181.755 140.939 181.553 140.364 181.783 139.885Z" fill="#2E186A"/>
<path fill-rule="evenodd" clip-rule="evenodd" d="M158.656 158.174C162.454 156.188 167.371 155.891 173.323 158.307C173.815 158.507 174.052 159.069 173.852 159.561C173.652 160.054 173.091 160.291 172.598 160.091C167.179 157.89 162.852 158.152 159.548 159.88C158.994 160.17 158.521 160.479 158.13 160.785L158.025 160.869C157.894 160.975 157.8 161.059 157.743 161.113L157.708 161.149C157.34 161.532 156.73 161.545 156.347 161.177C155.963 160.809 155.951 160.199 156.319 159.816L156.385 159.749C156.508 159.629 156.694 159.464 156.943 159.27C157.423 158.894 157.994 158.521 158.656 158.174Z" fill="#2E186A"/>
<path fill-rule="evenodd" clip-rule="evenodd" d="M172.574 177.997L175.622 178.96C176.071 179.088 176.553 178.831 176.681 178.382L177.58 175.527C177.804 174.853 177.13 174.276 176.489 174.564L172.542 176.457C171.836 176.81 171.868 177.773 172.574 177.997Z" fill="#2E186A"/>
<path fill-rule="evenodd" clip-rule="evenodd" d="M175.092 178.744C174.739 177.647 176.259 176.968 176.84 177.963C177.351 178.84 178.054 179.74 178.587 180.194L178.63 180.23L178.636 180.182C178.654 179.982 178.658 179.736 178.646 179.444L178.641 179.333C178.613 178.802 179.021 178.349 179.551 178.321C180.082 178.293 180.535 178.701 180.563 179.232C180.629 180.479 180.484 181.324 180.017 181.857C179.409 182.551 178.567 182.493 177.793 181.999C177.674 181.923 177.552 181.834 177.428 181.733L177.333 181.653L177.315 181.778L177.294 181.897C176.945 183.68 175.42 184.07 173.856 182.66C173.461 182.304 173.429 181.696 173.785 181.301C174.141 180.906 174.75 180.874 175.145 181.23C175.228 181.305 175.305 181.369 175.375 181.422L175.417 181.453L175.419 181.444C175.515 180.809 175.392 179.736 175.129 178.861L175.092 178.744Z" fill="#2E186A"/>
<path fill-rule="evenodd" clip-rule="evenodd" d="M198.553 183.648C198.658 183.127 199.166 182.791 199.687 182.896C200.209 183.002 200.545 183.509 200.44 184.03C200.016 186.125 200.177 189.181 200.77 192.699C200.992 194.012 201.263 195.318 201.547 196.495L201.621 196.8C201.695 197.098 201.767 197.374 201.833 197.615L201.916 197.915C201.965 198.083 202.004 198.208 202.023 198.263L202.029 198.279C202.223 198.774 201.979 199.332 201.484 199.526C200.988 199.72 200.43 199.476 200.236 198.981C199.959 198.272 199.29 195.499 198.872 193.019C198.242 189.287 198.07 186.03 198.553 183.648Z" fill="#2E186A"/>
<path fill-rule="evenodd" clip-rule="evenodd" d="M192.57 185.494C192.807 185.019 193.385 184.826 193.861 185.064C194.213 185.24 194.41 185.603 194.392 185.972L194.391 185.978L194.405 186.086L194.427 186.246L194.456 186.427C194.499 186.684 194.557 186.997 194.628 187.344C194.851 188.438 195.157 189.69 195.522 190.941C196.511 194.335 197.758 197.179 199.181 198.919C199.518 199.33 199.457 199.936 199.046 200.273C198.634 200.61 198.028 200.549 197.691 200.138C196.066 198.152 194.73 195.102 193.674 191.48C193.323 190.276 193.024 189.073 192.797 187.995L192.657 187.307C192.431 186.172 192.402 185.83 192.57 185.494Z" fill="#2E186A"/>
<path fill-rule="evenodd" clip-rule="evenodd" d="M204.441 169.001L204.868 168.844C210.639 166.75 216.923 165.723 220.19 166.27C220.714 166.358 221.068 166.854 220.98 167.379C220.893 167.903 220.396 168.257 219.872 168.169C216.913 167.673 210.713 168.713 205.115 170.804C198.414 173.307 193.435 176.878 191.583 180.991C187.888 189.255 190.833 195.638 198.085 198.504C198.579 198.7 198.821 199.259 198.626 199.753C198.431 200.247 197.871 200.49 197.377 200.294C189.14 197.039 185.666 189.508 189.826 180.203C191.937 175.517 197.305 171.667 204.441 169.001Z" fill="#2E186A"/>
<path fill-rule="evenodd" clip-rule="evenodd" d="M183.12 194.539C183.642 194.639 183.985 195.142 183.886 195.665L183.842 195.903C183.807 196.101 183.767 196.329 183.724 196.583C183.602 197.313 183.48 198.111 183.365 198.95C183.167 200.408 183.015 201.834 182.927 203.167L182.902 203.575C182.777 205.797 182.855 207.573 183.163 208.707C183.303 209.22 183 209.749 182.487 209.889C181.974 210.028 181.445 209.726 181.306 209.213C180.908 207.751 180.835 205.65 181.006 203.04C181.097 201.659 181.254 200.19 181.458 198.691C181.56 197.938 181.669 197.218 181.779 196.549L181.909 195.777L181.995 195.306C182.094 194.783 182.598 194.44 183.12 194.539Z" fill="#2E186A"/>
<path fill-rule="evenodd" clip-rule="evenodd" d="M177.061 194.329C177.592 194.342 178.013 194.784 178 195.315L177.997 195.466C177.988 196.143 177.998 197.024 178.041 198.033C178.105 199.527 178.231 200.998 178.433 202.368L178.487 202.721C178.904 205.337 179.573 207.272 180.459 208.196C180.827 208.58 180.815 209.189 180.431 209.557C180.047 209.925 179.438 209.912 179.07 209.529C177.787 208.191 176.994 205.814 176.528 202.649C176.316 201.207 176.184 199.671 176.118 198.115L176.102 197.729C176.075 196.969 176.066 196.287 176.069 195.717L176.075 195.268C176.088 194.736 176.529 194.316 177.061 194.329Z" fill="#2E186A"/>
<path fill-rule="evenodd" clip-rule="evenodd" d="M181.717 187.187C185.078 187.161 188.961 188.182 190.214 189.273C190.615 189.622 190.657 190.23 190.308 190.631C189.973 191.016 189.398 191.07 188.997 190.763L188.95 190.725C188.112 189.995 184.667 189.089 181.733 189.112C177.861 189.143 175.134 190.541 174.129 193.518C173.754 194.617 173.507 196.826 173.507 198.437C173.507 198.968 173.076 199.399 172.544 199.399C172.013 199.399 171.582 198.968 171.582 198.437C171.582 196.633 171.85 194.236 172.306 192.899C173.617 189.015 177.111 187.224 181.717 187.187Z" fill="#2E186A"/>
<path fill-rule="evenodd" clip-rule="evenodd" d="M183.611 166.61C184.142 166.644 184.544 167.102 184.51 167.632C184.502 167.745 184.482 167.913 184.44 168.121C184.37 168.463 184.263 168.806 184.106 169.136C183.338 170.747 181.719 171.354 179.519 170.337C179.037 170.114 178.826 169.542 179.05 169.059C179.273 168.577 179.845 168.366 180.327 168.589C181.561 169.16 182.049 168.977 182.368 168.307C182.451 168.133 182.513 167.937 182.553 167.739L182.57 167.648C182.577 167.607 182.581 167.573 182.585 167.547L182.588 167.508C182.622 166.996 183.049 166.604 183.555 166.608L183.611 166.61Z" fill="#2E186A"/>
<path fill-rule="evenodd" clip-rule="evenodd" d="M170.647 172.002C171.178 172.036 171.58 172.494 171.546 173.025C171.538 173.137 171.518 173.305 171.476 173.513C171.407 173.855 171.299 174.198 171.142 174.528C170.374 176.139 168.755 176.746 166.556 175.729C166.073 175.506 165.863 174.934 166.086 174.451C166.309 173.969 166.881 173.759 167.363 173.982C168.597 174.552 169.085 174.369 169.405 173.699C169.488 173.525 169.549 173.329 169.589 173.131L169.606 173.04C169.613 172.999 169.618 172.965 169.621 172.939L169.625 172.9C169.658 172.389 170.085 171.996 170.591 172L170.647 172.002Z" fill="#2E186A"/>
<path fill-rule="evenodd" clip-rule="evenodd" d="M161.438 183.905C161.898 183.638 162.487 183.794 162.754 184.253C163.021 184.713 162.866 185.302 162.406 185.569C159.61 187.195 157.354 189.813 155.59 193.162C154.479 195.272 153.631 197.542 153.014 199.812C152.798 200.607 152.626 201.344 152.495 202.004L152.452 202.224C152.439 202.294 152.426 202.362 152.415 202.426L152.383 202.609C152.366 202.711 152.355 202.778 152.351 202.809C152.275 203.335 151.786 203.7 151.26 203.624C150.734 203.549 150.369 203.06 150.445 202.534L150.476 202.337C150.505 202.161 150.548 201.923 150.607 201.628C150.746 200.926 150.928 200.146 151.156 199.307C151.807 196.91 152.704 194.511 153.887 192.265C155.806 188.621 158.294 185.733 161.438 183.905Z" fill="white"/>
<path fill-rule="evenodd" clip-rule="evenodd" d="M165.102 185.683C165.589 185.472 166.156 185.696 166.368 186.183C166.572 186.654 166.371 187.197 165.919 187.425L165.868 187.449C164.739 187.939 162.733 190.503 161.302 193.549C159.569 197.238 158.871 201.022 159.588 204.089C159.709 204.607 159.387 205.125 158.869 205.246C158.351 205.366 157.834 205.045 157.713 204.527C156.884 200.978 157.658 196.777 159.56 192.73C161.173 189.297 163.434 186.407 165.102 185.683Z" fill="white"/>
<path fill-rule="evenodd" clip-rule="evenodd" d="M189.905 173.392C192.522 172.959 195.564 173.037 198.455 173.791C202.183 174.764 205.426 176.781 207.894 179.977C208.219 180.398 208.141 181.003 207.72 181.327C207.299 181.652 206.695 181.574 206.37 181.154C204.175 178.31 201.301 176.523 197.969 175.654C195.353 174.971 192.581 174.9 190.219 175.291C189.694 175.378 189.199 175.023 189.112 174.498C189.025 173.974 189.38 173.479 189.905 173.392Z" fill="white"/>
<path fill-rule="evenodd" clip-rule="evenodd" d="M190.412 170.161C192.783 168.653 196.623 168.129 200.604 168.755C204.967 169.442 209.075 171.412 212.089 174.504C212.46 174.885 212.452 175.495 212.072 175.866C211.691 176.237 211.081 176.229 210.71 175.848C208.002 173.069 204.275 171.282 200.305 170.657C196.75 170.097 193.374 170.558 191.445 171.785C190.997 172.071 190.402 171.938 190.116 171.49C189.831 171.042 189.963 170.447 190.412 170.161Z" fill="white"/>
<path fill-rule="evenodd" clip-rule="evenodd" d="M282.182 29.3868H301.53C302.878 29.3868 303.969 30.5098 303.969 31.9214V57.941L295.562 49.2464L282.15 49.0539C280.803 49.0539 279.744 47.931 279.744 46.5193V31.9214C279.744 30.5418 280.835 29.3868 282.182 29.3868Z" fill="#00AC45"/>
<path fill-rule="evenodd" clip-rule="evenodd" d="M288.472 40.6171V37.9862C288.472 36.0612 290.172 34.4891 292.226 34.4891C294.279 34.4891 295.98 36.0612 295.98 37.9862C295.98 38.0183 295.98 38.0183 295.98 38.0504V40.5529C295.98 40.585 295.98 40.585 295.98 40.6171C295.98 42.5421 294.279 44.1141 292.226 44.1141C290.172 44.1141 288.472 42.5421 288.472 40.6171ZM290.332 37.9546V40.5855C290.332 41.548 291.199 42.35 292.225 42.35C293.284 42.35 294.118 41.548 294.118 40.5855V37.9867V37.9225C294.118 36.96 293.252 36.158 292.225 36.158C291.199 36.19 290.332 36.9921 290.332 37.9546Z" fill="white"/>
</svg>
