<svg width="54" height="51" viewBox="0 0 54 51" fill="none" xmlns="http://www.w3.org/2000/svg">
<path fill-rule="evenodd" clip-rule="evenodd" d="M51.8704 19.1628C50.418 18.6323 47.544 20.5305 44.579 22.9898C45.4923 21.9182 46.3693 20.7878 47.1824 19.6727C51.2106 14.1285 48.4384 11.1705 45.3737 11.1365C44.1119 11.1224 42.125 13.3486 40.1647 16.063C41.0852 6.71929 32.3714 5.42392 30.2153 5.7128C28.9726 5.87395 27.9984 6.21843 27.327 6.51314C24.4313 4.16894 20.5856 1.42178 19.7096 1.51809C17.5433 1.76442 19.105 11.0562 19.2194 11.7256L17.4888 12.8571C16.9652 13.2066 16.4943 13.5884 16.06 14.029C12.9587 12.5203 9.46961 11.0816 8.71921 11.3278C6.88825 11.9437 9.80181 19.8347 10.6932 22.162C10.5505 22.6005 10.4553 23.0502 10.3814 23.4948C10.347 23.7277 10.339 23.9768 10.3258 24.2047L0 50.5778H43.4752V33.5458C44.6287 32.8216 46.172 31.8471 48.3969 30.6205C54.8639 27.0123 55.3189 20.4314 51.8704 19.1628Z" fill="#00AC45"/>
<path fill-rule="evenodd" clip-rule="evenodd" d="M9.36612 11.7734C9.52886 11.4498 9.92311 11.3194 10.2467 11.4822C10.5704 11.6449 10.7007 12.0393 10.5379 12.3628L10.5461 12.3465C10.5469 12.3451 10.5474 12.3444 10.5475 12.3444L10.5457 12.3524C10.5315 12.4025 10.5186 12.4729 10.5102 12.5656C10.3961 13.8373 11.178 16.0664 13.4829 19.436C13.6873 19.7349 13.6108 20.143 13.3118 20.3476C13.0128 20.5521 12.6046 20.4755 12.4002 20.1765L12.231 19.9272C9.89818 16.4615 9.06177 14.0307 9.20373 12.4484C9.23158 12.1382 9.29505 11.9147 9.36612 11.7734Z" fill="#2E186A"/>
<path fill-rule="evenodd" clip-rule="evenodd" d="M19.465 2.20218C19.4674 1.83996 19.763 1.54833 20.1252 1.5508C20.4745 1.55317 20.7582 1.82816 20.7758 2.17257L20.7793 2.43523C20.78 2.46959 20.7809 2.50581 20.782 2.5438C20.7899 2.81728 20.8052 3.1233 20.8303 3.45377C20.916 4.58525 21.0893 5.70736 21.3723 6.71447C21.7695 8.12723 22.3443 9.15988 23.0846 9.68699C23.3796 9.89711 23.4486 10.3067 23.2385 10.6017C23.0283 10.8968 22.6188 10.9657 22.3237 10.7555C21.2907 10.02 20.5801 8.74344 20.1096 7.06947C19.7999 5.96787 19.6141 4.76408 19.5223 3.55285C19.4994 3.25135 19.4841 2.96846 19.4749 2.7091L19.468 2.47005C19.4652 2.34882 19.4645 2.25829 19.465 2.20218Z" fill="#2E186A"/>
<path fill-rule="evenodd" clip-rule="evenodd" d="M18.1675 13.8194L19.6945 12.3994L18.1675 13.8194Z" fill="#00AC45"/>
<path fill-rule="evenodd" clip-rule="evenodd" d="M24.9032 16.8584C25.2919 16.5143 25.1724 15.7443 24.6361 15.1385C24.0999 14.5328 23.3501 14.3207 22.9613 14.6649C22.5726 15.009 22.6921 15.779 23.2283 16.3848C23.7645 16.9905 24.5144 17.2026 24.9032 16.8584Z" fill="#2E186A"/>
<path fill-rule="evenodd" clip-rule="evenodd" d="M30.7509 12.7237C31.1396 12.3795 31.02 11.6095 30.4838 11.0037C29.9476 10.398 29.1977 10.186 28.809 10.5301C28.4202 10.8742 28.5398 11.6443 29.076 12.25C29.6122 12.8557 30.3621 13.0678 30.7509 12.7237Z" fill="#2E186A"/>
<path fill-rule="evenodd" clip-rule="evenodd" d="M30.13 14.7906L29.8415 16.41C29.8071 16.6429 29.561 16.8364 29.3068 16.8071L27.738 16.7312C27.3512 16.7111 27.2498 16.2857 27.5496 16.0345L29.4068 14.4909C29.744 14.2083 30.1978 14.4148 30.13 14.7906Z" fill="#2E186A"/>
<path fill-rule="evenodd" clip-rule="evenodd" d="M28.9458 15.6932C29.2059 15.4608 29.6 15.4738 29.8444 15.7161L29.8719 15.7451C30.2731 16.194 31.4171 16.3719 32.5548 16.1009C32.9072 16.017 33.2609 16.2346 33.3448 16.5869C33.4288 16.9393 33.2112 17.293 32.8588 17.3769C31.301 17.748 29.677 17.4955 28.8939 16.6194C28.6525 16.3492 28.6758 15.9347 28.9458 15.6932Z" fill="#2E186A"/>
<path fill-rule="evenodd" clip-rule="evenodd" d="M28.9835 15.662C29.2535 15.4206 29.6681 15.4438 29.9095 15.7139C30.7407 16.6438 30.755 18.0519 30.0114 19.5638C29.8515 19.8888 29.4584 20.0227 29.1334 19.8629C28.8084 19.703 28.6745 19.3099 28.8343 18.9848C29.3518 17.9327 29.3557 17.1019 28.9604 16.6218L28.9315 16.5881C28.6902 16.318 28.7133 15.9034 28.9835 15.662Z" fill="#2E186A"/>
<path fill-rule="evenodd" clip-rule="evenodd" d="M15.2866 21.8458C17.4409 20.2505 19.9477 19.5447 22.3803 19.4244L22.5496 19.417C22.96 19.4016 23.2705 19.4084 23.4592 19.4223C23.8205 19.4489 24.0918 19.7633 24.0653 20.1245C24.0396 20.4729 23.7463 20.7376 23.4015 20.7322L23.2787 20.7261C23.2403 20.7246 23.1917 20.7232 23.1334 20.7221C22.9329 20.7186 22.7021 20.7218 22.4451 20.7345C20.249 20.8432 17.9833 21.481 16.0673 22.9C14.5088 24.0542 13.3084 25.6538 12.55 27.7737C12.4279 28.1148 12.0526 28.2923 11.7115 28.1703C11.3704 28.0483 11.1928 27.6729 11.3149 27.3318C12.1617 24.965 13.5212 23.1532 15.2866 21.8458Z" fill="#2E186A"/>
<path fill-rule="evenodd" clip-rule="evenodd" d="M17.6882 23.1462C19.6468 21.5307 21.8714 20.6804 23.8129 20.3446L23.9744 20.3183C24.0193 20.3115 24.0553 20.3066 24.0816 20.3035C24.4413 20.2605 24.7678 20.5172 24.8107 20.8769C24.8522 21.2237 24.6149 21.5396 24.2755 21.6003L24.1066 21.6253C24.0853 21.6288 24.0619 21.6328 24.0364 21.6372C22.2999 21.9375 20.2783 22.7101 18.5229 24.1581C16.6474 25.7051 15.3964 27.8122 14.9657 30.5913C14.9103 30.9493 14.5752 31.1945 14.2171 31.139C13.8592 31.0836 13.614 30.7483 13.6694 30.3904C14.1507 27.2846 15.5709 24.8927 17.6882 23.1462Z" fill="#2E186A"/>
<path fill-rule="evenodd" clip-rule="evenodd" d="M40.1166 14.855C40.1085 14.4929 40.3956 14.1928 40.7577 14.1847C41.1199 14.1767 41.4199 14.4637 41.428 14.8259C41.4847 17.3821 40.7072 20.9321 38.8601 24.086C36.1226 28.7603 31.4606 31.9707 24.5571 33.0393C24.1991 33.0947 23.864 32.8495 23.8086 32.4915C23.7532 32.1336 23.9985 31.7984 24.3564 31.743C30.8673 30.7352 35.1886 27.7594 37.7282 23.4231C39.4427 20.4956 40.1682 17.1831 40.1166 14.855Z" fill="#2E186A"/>
<path fill-rule="evenodd" clip-rule="evenodd" d="M36.3121 5.95436C38.0856 2.76736 40.9272 0.573417 45.0347 0.0062443C45.3935 -0.0433022 45.7246 0.207409 45.7741 0.56623C45.8237 0.92506 45.573 1.25611 45.2141 1.30565C41.5454 1.81223 39.0433 3.74417 37.4582 6.59223C36.9624 7.48301 36.596 8.39995 36.3405 9.28958C36.2626 9.56087 36.2002 9.81192 36.1518 10.0381L36.1319 10.1336C36.1122 10.231 36.0981 10.3078 36.0891 10.3619L36.0791 10.4259C36.03 10.7848 35.6991 11.0359 35.3403 10.9866C34.9814 10.9375 34.7304 10.6067 34.7796 10.2478L34.788 10.1909C34.7998 10.1154 34.8189 10.0083 34.8463 9.87282C34.9039 9.58924 34.9808 9.2719 35.0797 8.92742C35.3614 7.94683 35.7644 6.93813 36.3121 5.95436Z" fill="#2E186A"/>
<path fill-rule="evenodd" clip-rule="evenodd" d="M37.3658 7.72531C39.7286 4.59217 43.0814 2.72015 47.5296 2.96472C47.8914 2.98461 48.1684 3.29393 48.1485 3.65561C48.1286 4.01733 47.8193 4.29436 47.4577 4.27447C43.487 4.05613 40.5312 5.7065 38.4131 8.51514C37.8904 9.20826 37.4629 9.92003 37.125 10.6093C37.0242 10.8148 36.938 11.0051 36.8659 11.1769L36.803 11.3307C36.7776 11.3948 36.7598 11.4422 36.7494 11.4716L36.7448 11.4847C36.6274 11.8275 36.2543 12.01 35.9117 11.8926C35.569 11.7752 35.3865 11.4022 35.5038 11.0596L35.5324 10.9792C35.6113 10.7635 35.7477 10.4385 35.9472 10.0318C36.3201 9.27129 36.7899 8.48889 37.3658 7.72531Z" fill="#2E186A"/>
</svg>
