<svg width="640" height="436" viewBox="0 0 640 436" fill="none" xmlns="http://www.w3.org/2000/svg">
<g filter="url(#filter0_d)">
<path d="M36.8 36.5H345.868C347.69 36.5 349.168 37.9775 349.168 39.8V210.801C349.168 212.623 347.69 214.101 345.868 214.101H36.8C34.9775 214.101 33.5 212.623 33.5 210.801V39.8C33.5 37.9775 34.9775 36.5 36.8 36.5Z" fill="white" stroke="#D9D9D9"/>
<path d="M62.707 77.1041C62.707 75.9733 62.9595 74.9634 63.4645 74.0742C63.9804 73.174 64.6776 72.477 65.5558 71.9829C66.445 71.4779 67.4384 71.2255 68.5363 71.2255C69.8207 71.2255 70.9458 71.5548 71.9119 72.2135C72.878 72.8722 73.5532 73.7833 73.9373 74.947H71.2862C71.0227 74.3981 70.6494 73.9864 70.1665 73.712C69.6944 73.4375 69.1455 73.3003 68.5198 73.3003C67.8501 73.3003 67.2519 73.4595 66.7249 73.7778C66.209 74.0852 65.8028 74.5243 65.5064 75.0952C65.221 75.6661 65.0782 76.3356 65.0782 77.1041C65.0782 77.8616 65.221 78.5313 65.5064 79.113C65.8028 79.6839 66.209 80.1285 66.7249 80.4469C67.2519 80.7543 67.8501 80.9079 68.5198 80.9079C69.1455 80.9079 69.6944 80.7707 70.1665 80.4962C70.6494 80.2109 71.0227 79.7936 71.2862 79.2448H73.9373C73.5532 80.4194 72.878 81.3361 71.9119 81.9947C70.9569 82.6424 69.8317 82.9663 68.5363 82.9663C67.4384 82.9663 66.445 82.7193 65.5558 82.2253C64.6776 81.7202 63.9804 81.0232 63.4645 80.134C62.9595 79.2448 62.707 78.2349 62.707 77.1041ZM79.9572 83.0157C79.079 83.0157 78.2886 82.8235 77.586 82.4393C76.8834 82.0441 76.3291 81.4897 75.9229 80.7762C75.5276 80.0627 75.3301 79.2393 75.3301 78.3062C75.3301 77.373 75.5331 76.5497 75.9393 75.8362C76.3564 75.1226 76.9219 74.5737 77.6354 74.1895C78.3489 73.7943 79.1449 73.5967 80.0231 73.5967C80.9013 73.5967 81.6972 73.7943 82.4107 74.1895C83.1243 74.5737 83.6841 75.1226 84.0903 75.8362C84.5075 76.5497 84.7161 77.373 84.7161 78.3062C84.7161 79.2393 84.502 80.0627 84.0739 80.7762C83.6568 81.4897 83.0859 82.0441 82.3613 82.4393C81.6478 82.8235 80.8464 83.0157 79.9572 83.0157ZM79.9572 81.0067C80.3743 81.0067 80.7641 80.9079 81.1263 80.7103C81.4996 80.5017 81.796 80.1944 82.0155 79.7882C82.2351 79.382 82.3449 78.888 82.3449 78.3062C82.3449 77.4389 82.1143 76.7748 81.6533 76.3137C81.2032 75.8416 80.6488 75.6056 79.9901 75.6056C79.3315 75.6056 78.777 75.8416 78.327 76.3137C77.8878 76.7748 77.6683 77.4389 77.6683 78.3062C77.6683 79.1735 77.8824 79.843 78.3105 80.3151C78.7497 80.7762 79.2985 81.0067 79.9572 81.0067ZM89.8982 83.0157C89.1516 83.0157 88.482 82.8839 87.8892 82.6205C87.2964 82.346 86.8243 81.9783 86.4731 81.5172C86.1327 81.0561 85.9462 80.5456 85.9132 79.9858H88.235C88.2789 80.337 88.4491 80.628 88.7455 80.8585C89.0528 81.0891 89.4315 81.2043 89.8817 81.2043C90.3207 81.2043 90.6611 81.1165 90.9026 80.9409C91.1551 80.7652 91.2814 80.5402 91.2814 80.2657C91.2814 79.9693 91.1276 79.7498 90.8203 79.607C90.5239 79.4534 90.0464 79.2887 89.3877 79.113C88.707 78.9484 88.1471 78.7783 87.7081 78.6026C87.28 78.4269 86.9067 78.158 86.5884 77.7957C86.2809 77.4334 86.1273 76.9449 86.1273 76.3302C86.1273 75.8251 86.2699 75.3641 86.5554 74.947C86.8518 74.5298 87.2689 74.2005 87.8069 73.959C88.3557 73.7174 88.9979 73.5967 89.7335 73.5967C90.8203 73.5967 91.6875 73.8712 92.3352 74.42C92.9829 74.958 93.3397 75.688 93.4056 76.6101H91.199C91.1661 76.2478 91.0123 75.9625 90.738 75.7538C90.4745 75.5343 90.1177 75.4245 89.6676 75.4245C89.2504 75.4245 88.9266 75.5014 88.6961 75.655C88.4765 75.8087 88.3668 76.0227 88.3668 76.2972C88.3668 76.6047 88.5204 76.8406 88.8278 77.0053C89.1351 77.159 89.6127 77.3182 90.2604 77.4828C90.9191 77.6475 91.4625 77.8176 91.8906 77.9933C92.3188 78.169 92.6865 78.4434 92.9939 78.8166C93.3122 79.1789 93.4769 79.6619 93.4879 80.2657C93.4879 80.7927 93.3397 81.2647 93.0433 81.6819C92.7578 82.099 92.3407 82.4283 91.7918 82.6699C91.2539 82.9004 90.6227 83.0157 89.8982 83.0157ZM98.0643 75.6386V80.0516C98.0643 80.3591 98.1357 80.584 98.2783 80.7268C98.4321 80.8585 98.6846 80.9244 99.0358 80.9244H100.106V82.8675H98.6571C96.714 82.8675 95.7425 81.9234 95.7425 80.0352V75.6386H94.6557V73.7449H95.7425V71.4889H98.0643V73.7449H100.106V75.6386H98.0643ZM114.07 74.9305C114.07 75.5452 113.921 76.1215 113.625 76.6595C113.34 77.1975 112.884 77.631 112.258 77.9604C111.644 78.2897 110.864 78.4544 109.92 78.4544H107.993V82.8675H105.688V71.3737H109.92C110.809 71.3737 111.567 71.5273 112.192 71.8347C112.818 72.1422 113.285 72.5647 113.592 73.1027C113.91 73.6406 114.07 74.2499 114.07 74.9305ZM109.821 76.5936C110.458 76.5936 110.93 76.4509 111.237 76.1655C111.545 75.8691 111.698 75.4574 111.698 74.9305C111.698 73.8108 111.073 73.2509 109.821 73.2509H107.993V76.5936H109.821ZM124.187 78.1086C124.187 78.4379 124.165 78.7343 124.121 78.9978H117.452C117.507 79.6564 117.737 80.1724 118.143 80.5457C118.55 80.9189 119.049 81.1055 119.642 81.1055C120.498 81.1055 121.107 80.7378 121.47 80.0022H123.956C123.693 80.8804 123.188 81.605 122.441 82.1759C121.695 82.7357 120.778 83.0157 119.691 83.0157C118.813 83.0157 118.023 82.8235 117.32 82.4393C116.628 82.0441 116.085 81.4897 115.69 80.7762C115.306 80.0627 115.114 79.2393 115.114 78.3062C115.114 77.3621 115.306 76.5332 115.69 75.8197C116.074 75.1062 116.612 74.5572 117.304 74.173C117.995 73.7888 118.791 73.5967 119.691 73.5967C120.559 73.5967 121.333 73.7833 122.013 74.1566C122.705 74.5298 123.237 75.0622 123.61 75.7538C123.995 76.4344 124.187 77.2194 124.187 78.1086ZM121.799 77.4499C121.788 76.8571 121.574 76.385 121.157 76.0338C120.74 75.6715 120.229 75.4904 119.625 75.4904C119.055 75.4904 118.572 75.666 118.176 76.0173C117.792 76.3577 117.556 76.8352 117.468 77.4499H121.799ZM128.175 75.161C128.471 74.678 128.855 74.2993 129.327 74.0248C129.81 73.7503 130.359 73.6132 130.974 73.6132V76.0338H130.365C129.64 76.0338 129.091 76.2039 128.718 76.5442C128.356 76.8846 128.175 77.4774 128.175 78.3226V82.8675H125.869V73.7449H128.175V75.161ZM135.891 77.1041C135.891 75.9733 136.143 74.9634 136.648 74.0742C137.164 73.174 137.861 72.477 138.74 71.9829C139.629 71.4779 140.622 71.2255 141.72 71.2255C143.004 71.2255 144.13 71.5548 145.096 72.2135C146.062 72.8722 146.737 73.7833 147.121 74.947H144.47C144.206 74.3981 143.833 73.9864 143.35 73.712C142.878 73.4375 142.329 73.3003 141.704 73.3003C141.034 73.3003 140.436 73.4595 139.909 73.7778C139.393 74.0852 138.987 74.5243 138.69 75.0952C138.405 75.6661 138.262 76.3356 138.262 77.1041C138.262 77.8616 138.405 78.5313 138.69 79.113C138.987 79.6839 139.393 80.1285 139.909 80.4469C140.436 80.7543 141.034 80.9079 141.704 80.9079C142.329 80.9079 142.878 80.7707 143.35 80.4962C143.833 80.2109 144.206 79.7936 144.47 79.2448H147.121C146.737 80.4194 146.062 81.3361 145.096 81.9947C144.141 82.6424 143.015 82.9663 141.72 82.9663C140.622 82.9663 139.629 82.7193 138.74 82.2253C137.861 81.7202 137.164 81.0232 136.648 80.134C136.143 79.2448 135.891 78.2349 135.891 77.1041ZM151.395 70.6821V82.8675H149.09V70.6821H151.395ZM154.842 72.6581C154.436 72.6581 154.096 72.5318 153.821 72.2794C153.558 72.0159 153.426 71.692 153.426 71.3078C153.426 70.9236 153.558 70.6052 153.821 70.3527C154.096 70.0893 154.436 69.9575 154.842 69.9575C155.248 69.9575 155.583 70.0893 155.847 70.3527C156.121 70.6052 156.258 70.9236 156.258 71.3078C156.258 71.692 156.121 72.0159 155.847 72.2794C155.583 72.5318 155.248 72.6581 154.842 72.6581ZM155.978 73.7449V82.8675H153.673V73.7449H155.978ZM157.663 78.3062C157.663 77.3621 157.855 76.5388 158.24 75.8362C158.624 75.1226 159.156 74.5737 159.837 74.1895C160.518 73.7943 161.297 73.5967 162.175 73.5967C163.306 73.5967 164.24 73.8821 164.974 74.453C165.722 75.0128 166.221 75.8032 166.473 76.8242H163.986C163.855 76.429 163.63 76.1215 163.311 75.902C163.005 75.6715 162.62 75.5562 162.158 75.5562C161.5 75.5562 160.979 75.7978 160.594 76.2808C160.21 76.7529 160.018 77.428 160.018 78.3062C160.018 79.1735 160.21 79.8486 160.594 80.3316C160.979 80.8037 161.5 81.0397 162.158 81.0397C163.092 81.0397 163.701 80.6225 163.986 79.7882H166.473C166.221 80.7762 165.722 81.5611 164.974 82.1429C164.228 82.7247 163.295 83.0157 162.175 83.0157C161.297 83.0157 160.518 82.8235 159.837 82.4393C159.156 82.0441 158.624 81.4953 158.24 80.7927C157.855 80.0791 157.663 79.2502 157.663 78.3062ZM173.564 82.8675L170.468 78.9813V82.8675H168.163V70.6821H170.468V77.6146L173.531 73.7449H176.528L172.51 78.3226L176.561 82.8675H173.564Z" fill="black"/>
<path d="M86.5504 133.743C86.5504 135.236 86.1628 136.643 85.3876 137.963C84.6412 139.255 83.5214 140.332 82.0284 141.193C80.5641 142.026 78.8271 142.514 76.8173 142.658V146.146H74.061V142.615C71.1899 142.356 68.8787 141.495 67.1273 140.031C65.3758 138.537 64.4714 136.528 64.4141 134.001H70.8741C71.0464 136.068 72.1087 137.317 74.061 137.748V129.522C71.9938 129.005 70.3285 128.489 69.0653 127.972C67.802 127.455 66.7109 126.622 65.7922 125.474C64.8735 124.325 64.4141 122.761 64.4141 120.78C64.4141 118.282 65.3042 116.243 67.0842 114.664C68.893 113.085 71.2186 112.181 74.061 111.951V108.463H76.8173V111.951C79.5736 112.181 81.77 113.013 83.4065 114.449C85.0718 115.884 86.0049 117.865 86.2059 120.392H79.7028C79.6167 119.56 79.3152 118.842 78.7984 118.239C78.3103 117.607 77.6499 117.162 76.8173 116.904V125.043C78.9707 125.589 80.6646 126.12 81.8992 126.637C83.1624 127.125 84.2536 127.943 85.1723 129.092C86.091 130.211 86.5504 131.762 86.5504 133.743ZM70.7018 120.478C70.7018 121.426 70.989 122.201 71.5632 122.804C72.1373 123.378 72.97 123.852 74.061 124.225V116.774C73.0274 116.918 72.2092 117.306 71.6062 117.937C71.0033 118.569 70.7018 119.416 70.7018 120.478ZM76.8173 137.834C77.9083 137.633 78.7553 137.188 79.3583 136.499C79.9899 135.81 80.3057 134.977 80.3057 134.001C80.3057 133.054 80.0043 132.293 79.4013 131.719C78.7984 131.144 77.9371 130.671 76.8173 130.297V137.834ZM92.5926 126.292C92.5926 121.325 93.4827 117.435 95.2627 114.621C97.0715 111.807 100.057 110.401 104.221 110.401C108.384 110.401 111.355 111.807 113.135 114.621C114.944 117.435 115.849 121.325 115.849 126.292C115.849 131.288 114.944 135.207 113.135 138.049C111.355 140.892 108.384 142.313 104.221 142.313C100.057 142.313 97.0715 140.892 95.2627 138.049C93.4827 135.207 92.5926 131.288 92.5926 126.292ZM109.905 126.292C109.905 124.168 109.762 122.387 109.475 120.952C109.216 119.488 108.671 118.296 107.838 117.377C107.034 116.459 105.828 115.999 104.221 115.999C102.613 115.999 101.392 116.459 100.56 117.377C99.756 118.296 99.2105 119.488 98.9234 120.952C98.665 122.387 98.5358 124.168 98.5358 126.292C98.5358 128.474 98.665 130.312 98.9234 131.805C99.1818 133.269 99.7273 134.461 100.56 135.379C101.392 136.269 102.613 136.714 104.221 136.714C105.828 136.714 107.049 136.269 107.881 135.379C108.714 134.461 109.259 133.269 109.518 131.805C109.776 130.312 109.905 128.474 109.905 126.292ZM123.794 142.701C122.703 142.701 121.798 142.37 121.081 141.71C120.392 141.021 120.047 140.174 120.047 139.169C120.047 138.164 120.392 137.332 121.081 136.671C121.798 135.982 122.703 135.638 123.794 135.638C124.856 135.638 125.732 135.982 126.421 136.671C127.11 137.332 127.455 138.164 127.455 139.169C127.455 140.174 127.11 141.021 126.421 141.71C125.732 142.37 124.856 142.701 123.794 142.701ZM152.725 116.215H138.771V123.579C139.374 122.833 140.235 122.23 141.355 121.77C142.475 121.282 143.666 121.038 144.93 121.038C147.226 121.038 149.107 121.541 150.571 122.545C152.036 123.55 153.098 124.842 153.758 126.421C154.419 127.972 154.749 129.637 154.749 131.417C154.749 134.719 153.801 137.375 151.906 139.385C150.04 141.394 147.37 142.399 143.896 142.399C140.623 142.399 138.01 141.581 136.058 139.944C134.105 138.308 133 136.169 132.742 133.527H138.599C138.857 134.676 139.431 135.595 140.321 136.284C141.24 136.973 142.403 137.317 143.81 137.317C145.504 137.317 146.781 136.786 147.643 135.724C148.504 134.661 148.935 133.255 148.935 131.503C148.935 129.723 148.49 128.374 147.6 127.455C146.738 126.508 145.461 126.034 143.767 126.034C142.561 126.034 141.556 126.335 140.752 126.938C139.948 127.541 139.374 128.345 139.029 129.35H133.258V110.917H152.725V116.215ZM175.616 118.842C175.33 117.636 174.827 116.731 174.109 116.128C173.42 115.526 172.416 115.224 171.094 115.224C169.113 115.224 167.649 116.028 166.702 117.636C165.783 119.215 165.31 121.799 165.28 125.388C165.969 124.239 166.975 123.349 168.295 122.718C169.616 122.057 171.051 121.727 172.602 121.727C174.469 121.727 176.119 122.129 177.554 122.933C178.991 123.737 180.111 124.914 180.914 126.464C181.718 127.986 182.12 129.824 182.12 131.977C182.12 134.015 181.704 135.839 180.871 137.446C180.068 139.026 178.876 140.26 177.296 141.15C175.718 142.04 173.837 142.485 171.654 142.485C168.669 142.485 166.314 141.825 164.591 140.504C162.898 139.183 161.706 137.346 161.017 134.992C160.357 132.609 160.026 129.68 160.026 126.206C160.026 120.952 160.931 116.99 162.739 114.32C164.548 111.621 167.406 110.271 171.31 110.271C174.324 110.271 176.665 111.09 178.33 112.726C179.995 114.363 180.957 116.401 181.215 118.842H175.616ZM171.224 126.68C169.702 126.68 168.424 127.125 167.391 128.015C166.357 128.905 165.84 130.197 165.84 131.891C165.84 133.585 166.314 134.92 167.261 135.896C168.238 136.872 169.602 137.36 171.353 137.36C172.903 137.36 174.124 136.887 175.013 135.939C175.933 134.992 176.392 133.714 176.392 132.106C176.392 130.441 175.947 129.12 175.057 128.144C174.195 127.168 172.918 126.68 171.224 126.68Z" fill="black"/>
</g>
<g filter="url(#filter1_d)">
<path d="M163.467 112.5H472.535C474.357 112.5 475.835 113.978 475.835 115.8V286.801C475.835 288.624 474.357 290.101 472.535 290.101H163.467C161.644 290.101 160.167 288.624 160.167 286.801V115.8C160.167 113.978 161.644 112.5 163.467 112.5Z" fill="white" stroke="#D9D9D9"/>
<path d="M195.865 158.867L193.329 154.388H192.242V158.867H189.937V147.373H194.251C195.14 147.373 195.897 147.533 196.523 147.851C197.149 148.158 197.615 148.581 197.923 149.119C198.241 149.646 198.4 150.239 198.4 150.897C198.4 151.655 198.181 152.341 197.742 152.956C197.303 153.559 196.65 153.977 195.782 154.207L198.532 158.867H195.865ZM192.242 152.659H194.168C194.794 152.659 195.261 152.511 195.568 152.215C195.876 151.907 196.029 151.485 196.029 150.947C196.029 150.42 195.876 150.014 195.568 149.728C195.261 149.432 194.794 149.284 194.168 149.284H192.242V152.659ZM199.893 154.273C199.893 153.351 200.074 152.533 200.436 151.819C200.809 151.106 201.309 150.557 201.935 150.173C202.571 149.789 203.279 149.596 204.059 149.596C204.739 149.596 205.332 149.734 205.837 150.008C206.353 150.283 206.765 150.628 207.072 151.045V149.745H209.394V158.867H207.072V157.533C206.776 157.962 206.364 158.318 205.837 158.604C205.321 158.878 204.723 159.015 204.042 159.015C203.274 159.015 202.571 158.818 201.935 158.423C201.309 158.027 200.809 157.473 200.436 156.759C200.074 156.035 199.893 155.206 199.893 154.273ZM207.072 154.306C207.072 153.746 206.962 153.269 206.743 152.873C206.523 152.467 206.227 152.16 205.854 151.951C205.48 151.732 205.08 151.622 204.652 151.622C204.223 151.622 203.828 151.726 203.466 151.935C203.104 152.143 202.807 152.451 202.577 152.857C202.357 153.252 202.247 153.724 202.247 154.273C202.247 154.822 202.357 155.305 202.577 155.722C202.807 156.128 203.104 156.441 203.466 156.661C203.839 156.88 204.234 156.99 204.652 156.99C205.08 156.99 205.48 156.886 205.854 156.677C206.227 156.458 206.523 156.15 206.743 155.755C206.962 155.349 207.072 154.866 207.072 154.306ZM216.701 149.613C217.788 149.613 218.666 149.959 219.336 150.65C220.005 151.331 220.34 152.286 220.34 153.516V158.867H218.035V153.828C218.035 153.104 217.854 152.549 217.491 152.165C217.129 151.77 216.635 151.572 216.009 151.572C215.373 151.572 214.868 151.77 214.494 152.165C214.132 152.549 213.951 153.104 213.951 153.828V158.867H211.646V149.745H213.951V150.881C214.258 150.486 214.648 150.178 215.12 149.959C215.603 149.728 216.13 149.613 216.701 149.613ZM227.933 158.867L224.838 154.981V158.867H222.532V146.682H224.838V153.614L227.9 149.745H230.897L226.88 154.322L230.93 158.867H227.933ZM233.318 148.658C232.912 148.658 232.571 148.532 232.297 148.279C232.033 148.016 231.902 147.692 231.902 147.308C231.902 146.923 232.033 146.605 232.297 146.352C232.571 146.089 232.912 145.957 233.318 145.957C233.724 145.957 234.059 146.089 234.322 146.352C234.597 146.605 234.734 146.923 234.734 147.308C234.734 147.692 234.597 148.016 234.322 148.279C234.059 148.532 233.724 148.658 233.318 148.658ZM234.454 149.745V158.867H232.149V149.745H234.454ZM241.787 149.613C242.874 149.613 243.752 149.959 244.422 150.65C245.091 151.331 245.426 152.286 245.426 153.516V158.867H243.121V153.828C243.121 153.104 242.94 152.549 242.577 152.165C242.215 151.77 241.721 151.572 241.095 151.572C240.459 151.572 239.954 151.77 239.58 152.165C239.218 152.549 239.037 153.104 239.037 153.828V158.867H236.732V149.745H239.037V150.881C239.344 150.486 239.734 150.178 240.206 149.959C240.689 149.728 241.216 149.613 241.787 149.613ZM251.192 149.596C251.872 149.596 252.471 149.734 252.987 150.008C253.502 150.272 253.909 150.617 254.205 151.045V149.745H256.527V158.933C256.527 159.778 256.357 160.53 256.016 161.189C255.676 161.859 255.166 162.386 254.485 162.77C253.804 163.165 252.981 163.363 252.015 163.363C250.72 163.363 249.655 163.061 248.82 162.457C247.997 161.853 247.531 161.03 247.421 159.987H249.71C249.83 160.404 250.088 160.733 250.484 160.975C250.89 161.227 251.378 161.354 251.949 161.354C252.619 161.354 253.162 161.151 253.579 160.744C253.996 160.349 254.205 159.745 254.205 158.933V157.517C253.909 157.945 253.497 158.302 252.97 158.587C252.454 158.873 251.861 159.015 251.192 159.015C250.423 159.015 249.721 158.818 249.084 158.423C248.447 158.027 247.942 157.473 247.569 156.759C247.207 156.035 247.026 155.206 247.026 154.273C247.026 153.351 247.207 152.533 247.569 151.819C247.942 151.106 248.442 150.557 249.067 150.173C249.704 149.789 250.412 149.596 251.192 149.596ZM254.205 154.306C254.205 153.746 254.095 153.269 253.876 152.873C253.656 152.467 253.36 152.16 252.987 151.951C252.613 151.732 252.213 151.622 251.784 151.622C251.356 151.622 250.961 151.726 250.599 151.935C250.237 152.143 249.94 152.451 249.71 152.857C249.49 153.252 249.38 153.724 249.38 154.273C249.38 154.822 249.49 155.305 249.71 155.722C249.94 156.128 250.237 156.441 250.599 156.661C250.972 156.88 251.367 156.99 251.784 156.99C252.213 156.99 252.613 156.886 252.987 156.677C253.36 156.458 253.656 156.15 253.876 155.755C254.095 155.349 254.205 154.866 254.205 154.306ZM266.72 147.373C267.928 147.373 268.987 147.609 269.898 148.081C270.82 148.554 271.528 149.229 272.022 150.107C272.527 150.974 272.78 151.984 272.78 153.137C272.78 154.289 272.527 155.299 272.022 156.167C271.528 157.023 270.82 157.687 269.898 158.159C268.987 158.631 267.928 158.867 266.72 158.867H262.702V147.373H266.72ZM266.638 156.908C267.845 156.908 268.778 156.578 269.437 155.92C270.096 155.261 270.425 154.333 270.425 153.137C270.425 151.94 270.096 151.007 269.437 150.337C268.778 149.657 267.845 149.316 266.638 149.316H265.007V156.908H266.638ZM275.675 148.658C275.268 148.658 274.928 148.532 274.654 148.279C274.39 148.016 274.258 147.692 274.258 147.308C274.258 146.923 274.39 146.605 274.654 146.352C274.928 146.089 275.268 145.957 275.675 145.957C276.081 145.957 276.416 146.089 276.679 146.352C276.953 146.605 277.091 146.923 277.091 147.308C277.091 147.692 276.953 148.016 276.679 148.279C276.416 148.532 276.081 148.658 275.675 148.658ZM276.811 149.745V158.867H274.505V149.745H276.811ZM283.271 151.638H281.674V158.867H279.335V151.638H278.298V149.745H279.335V149.284C279.335 148.164 279.654 147.34 280.291 146.814C280.927 146.287 281.888 146.04 283.172 146.073V148.016C282.612 148.005 282.223 148.098 282.003 148.296C281.784 148.493 281.674 148.85 281.674 149.366V149.745H283.271V151.638ZM288.947 151.638H287.35V158.867H285.012V151.638H283.975V149.745H285.012V149.284C285.012 148.164 285.33 147.34 285.967 146.814C286.604 146.287 287.564 146.04 288.848 146.073V148.016C288.289 148.005 287.9 148.098 287.679 148.296C287.46 148.493 287.35 148.85 287.35 149.366V149.745H288.947V151.638ZM291.611 148.658C291.204 148.658 290.864 148.532 290.59 148.279C290.327 148.016 290.195 147.692 290.195 147.308C290.195 146.923 290.327 146.605 290.59 146.352C290.864 146.089 291.204 145.957 291.611 145.957C292.016 145.957 292.352 146.089 292.615 146.352C292.889 146.605 293.027 146.923 293.027 147.308C293.027 147.692 292.889 148.016 292.615 148.279C292.352 148.532 292.016 148.658 291.611 148.658ZM292.747 149.745V158.867H290.442V149.745H292.747ZM294.432 154.306C294.432 153.362 294.624 152.539 295.008 151.836C295.392 151.122 295.925 150.573 296.606 150.189C297.286 149.794 298.066 149.596 298.944 149.596C300.075 149.596 301.007 149.882 301.743 150.453C302.489 151.013 302.99 151.803 303.242 152.824H300.755C300.623 152.429 300.398 152.121 300.08 151.902C299.772 151.671 299.388 151.556 298.927 151.556C298.269 151.556 297.747 151.798 297.363 152.281C296.979 152.753 296.787 153.428 296.787 154.306C296.787 155.173 296.979 155.848 297.363 156.331C297.747 156.803 298.269 157.039 298.927 157.039C299.861 157.039 300.47 156.622 300.755 155.788H303.242C302.99 156.776 302.489 157.561 301.743 158.143C300.997 158.724 300.064 159.015 298.944 159.015C298.066 159.015 297.286 158.823 296.606 158.439C295.925 158.044 295.392 157.495 295.008 156.792C294.624 156.079 294.432 155.25 294.432 154.306ZM313.542 149.745V158.867H311.22V157.715C310.924 158.11 310.535 158.423 310.051 158.653C309.58 158.873 309.063 158.982 308.503 158.982C307.79 158.982 307.159 158.834 306.61 158.538C306.061 158.23 305.628 157.786 305.309 157.204C305.002 156.611 304.848 155.909 304.848 155.096V149.745H307.153V154.767C307.153 155.492 307.334 156.051 307.696 156.447C308.059 156.831 308.553 157.023 309.178 157.023C309.816 157.023 310.315 156.831 310.677 156.447C311.039 156.051 311.22 155.492 311.22 154.767V149.745H313.542ZM318.122 146.682V158.867H315.817V146.682H318.122ZM323.084 151.638V156.051C323.084 156.359 323.155 156.584 323.298 156.727C323.451 156.858 323.705 156.924 324.056 156.924H325.126V158.867H323.677C321.734 158.867 320.762 157.923 320.762 156.035V151.638H319.675V149.745H320.762V147.489H323.084V149.745H325.126V151.638H323.084ZM335.511 149.745L329.863 163.181H327.41L329.386 158.637L325.73 149.745H328.315L330.67 156.117L333.058 149.745H335.511Z" fill="black"/>
<path d="M218.238 191.112V215.867H213.273V199.766L206.641 215.867H202.881L196.213 199.766V215.867H191.248V191.112H196.887L204.761 209.519L212.635 191.112H218.238ZM241.413 205.618C241.413 206.327 241.366 206.965 241.271 207.533H226.907C227.025 208.951 227.522 210.063 228.396 210.867C229.271 211.671 230.347 212.073 231.624 212.073C233.468 212.073 234.781 211.28 235.561 209.696H240.916C240.349 211.588 239.261 213.148 237.653 214.378C236.046 215.584 234.071 216.187 231.73 216.187C229.839 216.187 228.136 215.773 226.623 214.945C225.134 214.094 223.963 212.9 223.112 211.363C222.284 209.826 221.871 208.053 221.871 206.043C221.871 204.01 222.284 202.225 223.112 200.688C223.939 199.151 225.098 197.969 226.588 197.141C228.077 196.314 229.791 195.9 231.73 195.9C233.598 195.9 235.265 196.302 236.731 197.106C238.221 197.91 239.368 199.056 240.171 200.546C240.999 202.012 241.413 203.702 241.413 205.618ZM236.27 204.199C236.246 202.922 235.785 201.905 234.887 201.149C233.988 200.369 232.889 199.978 231.588 199.978C230.359 199.978 229.319 200.357 228.467 201.113C227.64 201.846 227.131 202.875 226.942 204.199H236.27ZM243.76 205.972C243.76 203.986 244.15 202.225 244.931 200.688C245.735 199.151 246.822 197.969 248.194 197.141C249.565 196.314 251.09 195.9 252.769 195.9C254.046 195.9 255.263 196.183 256.422 196.751C257.58 197.295 258.503 198.028 259.188 198.95V189.622H264.225V215.867H259.188V212.959C258.574 213.929 257.711 214.709 256.599 215.3C255.488 215.891 254.199 216.187 252.733 216.187C251.078 216.187 249.565 215.761 248.194 214.91C246.822 214.059 245.735 212.865 244.931 211.328C244.15 209.767 243.76 207.982 243.76 205.972ZM259.224 206.043C259.224 204.837 258.987 203.809 258.514 202.958C258.042 202.083 257.403 201.421 256.599 200.971C255.795 200.499 254.932 200.262 254.01 200.262C253.088 200.262 252.237 200.487 251.456 200.936C250.676 201.385 250.038 202.047 249.541 202.922C249.068 203.773 248.832 204.79 248.832 205.972C248.832 207.154 249.068 208.195 249.541 209.093C250.038 209.968 250.676 210.642 251.456 211.115C252.26 211.588 253.112 211.824 254.01 211.824C254.932 211.824 255.795 211.6 256.599 211.15C257.403 210.678 258.042 210.015 258.514 209.164C258.987 208.289 259.224 207.249 259.224 206.043ZM271.592 193.878C270.717 193.878 269.984 193.606 269.393 193.062C268.826 192.495 268.542 191.797 268.542 190.97C268.542 190.142 268.826 189.457 269.393 188.913C269.984 188.345 270.717 188.062 271.592 188.062C272.467 188.062 273.188 188.345 273.756 188.913C274.347 189.457 274.642 190.142 274.642 190.97C274.642 191.797 274.347 192.495 273.756 193.062C273.188 193.606 272.467 193.878 271.592 193.878ZM274.039 196.219V215.867H269.074V196.219H274.039ZM297.494 196.219V215.867H292.493V213.385C291.855 214.236 291.016 214.91 289.975 215.406C288.959 215.879 287.847 216.116 286.641 216.116C285.105 216.116 283.745 215.797 282.563 215.158C281.381 214.496 280.447 213.538 279.761 212.285C279.099 211.009 278.768 209.495 278.768 207.746V196.219H283.733V207.036C283.733 208.597 284.123 209.803 284.904 210.654C285.684 211.481 286.747 211.895 288.095 211.895C289.467 211.895 290.542 211.481 291.323 210.654C292.103 209.803 292.493 208.597 292.493 207.036V196.219H297.494ZM326.795 195.935C329.206 195.935 331.146 196.68 332.611 198.17C334.101 199.635 334.846 201.693 334.846 204.341V215.867H329.88V205.015C329.88 203.478 329.49 202.307 328.71 201.503C327.93 200.676 326.866 200.262 325.518 200.262C324.17 200.262 323.095 200.676 322.29 201.503C321.51 202.307 321.12 203.478 321.12 205.015V215.867H316.155V205.015C316.155 203.478 315.764 202.307 314.984 201.503C314.204 200.676 313.14 200.262 311.792 200.262C310.42 200.262 309.334 200.676 308.529 201.503C307.749 202.307 307.359 203.478 307.359 205.015V215.867H302.393V196.219H307.359V198.595C307.997 197.768 308.813 197.117 309.806 196.644C310.823 196.172 311.934 195.935 313.14 195.935C314.676 195.935 316.048 196.266 317.254 196.928C318.46 197.567 319.393 198.489 320.056 199.695C320.694 198.56 321.616 197.649 322.822 196.964C324.052 196.278 325.376 195.935 326.795 195.935Z" fill="black"/>
</g>
<g filter="url(#filter2_d)">
<path d="M290.131 188.499H599.199C601.022 188.499 602.499 189.977 602.499 191.799V362.8C602.499 364.623 601.022 366.1 599.199 366.1H290.131C288.309 366.1 286.831 364.623 286.831 362.8V191.799C286.831 189.977 288.309 188.499 290.131 188.499Z" fill="white" stroke="#D9D9D9"/>
<path d="M329.135 223.371V234.865H326.829V227.389L323.75 234.865H322.005L318.909 227.389V234.865H316.604V223.371H319.222L322.877 231.917L326.533 223.371H329.135ZM335.465 235.013C334.586 235.013 333.796 234.821 333.094 234.437C332.391 234.041 331.837 233.487 331.43 232.773C331.035 232.06 330.838 231.237 330.838 230.303C330.838 229.37 331.041 228.547 331.447 227.833C331.864 227.12 332.429 226.571 333.143 226.187C333.856 225.792 334.652 225.594 335.531 225.594C336.409 225.594 337.205 225.792 337.918 226.187C338.632 226.571 339.192 227.12 339.598 227.833C340.015 228.547 340.224 229.37 340.224 230.303C340.224 231.237 340.01 232.06 339.581 232.773C339.164 233.487 338.593 234.041 337.869 234.437C337.155 234.821 336.354 235.013 335.465 235.013ZM335.465 233.004C335.882 233.004 336.272 232.905 336.634 232.708C337.007 232.499 337.303 232.192 337.523 231.785C337.743 231.379 337.852 230.885 337.852 230.303C337.852 229.436 337.622 228.772 337.161 228.311C336.711 227.839 336.156 227.603 335.498 227.603C334.839 227.603 334.285 227.839 333.835 228.311C333.395 228.772 333.176 229.436 333.176 230.303C333.176 231.171 333.39 231.84 333.818 232.312C334.257 232.773 334.806 233.004 335.465 233.004ZM346.97 225.61C348.057 225.61 348.935 225.956 349.605 226.648C350.274 227.328 350.609 228.283 350.609 229.513V234.865H348.304V229.826C348.304 229.101 348.123 228.547 347.76 228.163C347.398 227.768 346.904 227.57 346.278 227.57C345.642 227.57 345.137 227.768 344.763 228.163C344.401 228.547 344.22 229.101 344.22 229.826V234.865H341.915V225.742H344.22V226.878C344.527 226.483 344.917 226.176 345.389 225.956C345.872 225.726 346.399 225.61 346.97 225.61ZM355.485 227.636V232.049C355.485 232.356 355.557 232.581 355.699 232.724C355.853 232.856 356.106 232.922 356.457 232.922H357.527V234.865H356.078C354.135 234.865 353.164 233.921 353.164 232.032V227.636H352.077V225.742H353.164V223.486H355.485V225.742H357.527V227.636H355.485ZM364.323 225.61C365.015 225.61 365.629 225.764 366.167 226.071C366.705 226.368 367.122 226.812 367.419 227.405C367.726 227.987 367.88 228.69 367.88 229.513V234.865H365.575V229.826C365.575 229.101 365.393 228.547 365.031 228.163C364.669 227.768 364.175 227.57 363.549 227.57C362.912 227.57 362.408 227.768 362.034 228.163C361.672 228.547 361.491 229.101 361.491 229.826V234.865H359.185V222.679H361.491V226.878C361.787 226.483 362.182 226.176 362.676 225.956C363.17 225.726 363.719 225.61 364.323 225.61ZM372.378 222.679V234.865H370.072V222.679H372.378ZM383.383 225.742L377.735 239.179H375.281L377.257 234.634L373.601 225.742H376.187L378.541 232.115L380.929 225.742H383.383ZM398.874 223.371L394.658 234.865H391.859L387.643 223.371H390.113L393.275 232.51L396.42 223.371H398.874ZM404.307 235.013C403.428 235.013 402.638 234.821 401.935 234.437C401.233 234.041 400.678 233.487 400.272 232.773C399.877 232.06 399.679 231.237 399.679 230.303C399.679 229.37 399.883 228.547 400.289 227.833C400.706 227.12 401.271 226.571 401.985 226.187C402.698 225.792 403.494 225.594 404.372 225.594C405.251 225.594 406.047 225.792 406.76 226.187C407.474 226.571 408.034 227.12 408.44 227.833C408.857 228.547 409.066 229.37 409.066 230.303C409.066 231.237 408.851 232.06 408.423 232.773C408.006 233.487 407.435 234.041 406.711 234.437C405.997 234.821 405.196 235.013 404.307 235.013ZM404.307 233.004C404.724 233.004 405.113 232.905 405.476 232.708C405.849 232.499 406.145 232.192 406.365 231.785C406.584 231.379 406.694 230.885 406.694 230.303C406.694 229.436 406.464 228.772 406.003 228.311C405.553 227.839 404.998 227.603 404.34 227.603C403.681 227.603 403.126 227.839 402.676 228.311C402.237 228.772 402.018 229.436 402.018 230.303C402.018 231.171 402.232 231.84 402.66 232.312C403.099 232.773 403.648 233.004 404.307 233.004ZM413.062 222.679V234.865H410.757V222.679H413.062ZM423.951 225.742V234.865H421.63V233.712C421.333 234.107 420.944 234.42 420.46 234.651C419.989 234.87 419.472 234.98 418.913 234.98C418.199 234.98 417.569 234.832 417.019 234.535C416.47 234.228 416.037 233.783 415.718 233.202C415.412 232.609 415.257 231.906 415.257 231.094V225.742H417.562V230.764C417.562 231.489 417.743 232.049 418.106 232.444C418.468 232.828 418.962 233.02 419.588 233.02C420.225 233.02 420.724 232.828 421.086 232.444C421.448 232.049 421.63 231.489 421.63 230.764V225.742H423.951ZM437.555 225.61C438.675 225.61 439.576 225.956 440.256 226.648C440.948 227.328 441.293 228.283 441.293 229.513V234.865H438.988V229.826C438.988 229.112 438.807 228.569 438.445 228.196C438.082 227.811 437.588 227.619 436.963 227.619C436.337 227.619 435.838 227.811 435.464 228.196C435.102 228.569 434.921 229.112 434.921 229.826V234.865H432.615V229.826C432.615 229.112 432.434 228.569 432.072 228.196C431.71 227.811 431.216 227.619 430.59 227.619C429.953 227.619 429.449 227.811 429.075 228.196C428.713 228.569 428.532 229.112 428.532 229.826V234.865H426.226V225.742H428.532V226.845C428.828 226.461 429.207 226.159 429.668 225.94C430.14 225.72 430.656 225.61 431.216 225.61C431.929 225.61 432.566 225.764 433.126 226.071C433.686 226.368 434.119 226.796 434.427 227.356C434.723 226.829 435.151 226.406 435.711 226.088C436.282 225.77 436.897 225.61 437.555 225.61ZM451.961 230.106C451.961 230.435 451.94 230.732 451.895 230.995H445.226C445.281 231.654 445.511 232.17 445.918 232.543C446.325 232.916 446.824 233.103 447.417 233.103C448.273 233.103 448.882 232.735 449.244 231.999H451.731C451.467 232.878 450.962 233.602 450.216 234.173C449.47 234.733 448.553 235.013 447.466 235.013C446.588 235.013 445.798 234.821 445.095 234.437C444.403 234.041 443.86 233.487 443.465 232.773C443.081 232.06 442.888 231.237 442.888 230.303C442.888 229.359 443.081 228.53 443.465 227.817C443.848 227.103 444.387 226.554 445.078 226.17C445.77 225.786 446.565 225.594 447.466 225.594C448.334 225.594 449.108 225.781 449.788 226.154C450.479 226.527 451.011 227.059 451.385 227.751C451.769 228.432 451.961 229.217 451.961 230.106ZM449.574 229.447C449.562 228.854 449.348 228.382 448.931 228.031C448.515 227.669 448.004 227.488 447.4 227.488C446.829 227.488 446.346 227.663 445.951 228.015C445.567 228.355 445.33 228.832 445.243 229.447H449.574Z" fill="black"/>
<path d="M473.799 241.2C480.794 241.2 486.465 235.528 486.465 228.533C486.465 221.537 480.794 215.866 473.799 215.866C466.803 215.866 461.132 221.537 461.132 228.533C461.132 235.528 466.803 241.2 473.799 241.2Z" fill="#F0F0F0"/>
<path d="M473.244 228.527H486.462C486.462 227.384 486.31 226.276 486.026 225.223H473.244V228.527Z" fill="#D80027"/>
<path d="M473.244 221.921H484.604C483.827 220.656 482.837 219.538 481.68 218.617H473.244V221.921Z" fill="#D80027"/>
<path d="M473.79 241.197C476.772 241.197 479.512 240.167 481.675 238.443H465.906C468.07 240.167 470.81 241.197 473.79 241.197Z" fill="#D80027"/>
<path d="M462.99 235.137H484.606C485.228 234.122 485.71 233.011 486.028 231.833H461.567C461.884 233.011 462.368 234.122 462.99 235.137Z" fill="#D80027"/>
<path d="M466.999 217.844H468.153L467.08 218.624L467.491 219.886L466.416 219.106L465.342 219.886L465.697 218.796C464.752 219.584 463.924 220.506 463.241 221.534H463.611L462.927 222.031C462.82 222.208 462.718 222.389 462.62 222.572L462.947 223.576L462.338 223.134C462.186 223.455 462.048 223.782 461.924 224.117L462.283 225.224H463.611L462.537 226.004L462.947 227.266L461.873 226.486L461.229 226.953C461.165 227.471 461.132 227.998 461.132 228.533H473.799C473.799 221.537 473.799 220.713 473.799 215.866C471.297 215.866 468.964 216.592 466.999 217.844ZM467.491 227.266L466.416 226.486L465.342 227.266L465.753 226.004L464.68 225.224H466.006L466.416 223.962L466.827 225.224H468.153L467.08 226.004L467.491 227.266ZM467.08 222.314L467.491 223.576L466.416 222.796L465.342 223.576L465.753 222.314L464.68 221.534H466.006L466.416 220.272L466.827 221.534H468.153L467.08 222.314ZM472.034 227.266L470.96 226.486L469.886 227.266L470.296 226.004L469.222 225.224H470.55L470.96 223.962L471.37 225.224H472.697L471.624 226.004L472.034 227.266ZM471.624 222.314L472.034 223.576L470.96 222.796L469.886 223.576L470.296 222.314L469.222 221.534H470.55L470.96 220.272L471.37 221.534H472.697L471.624 222.314ZM471.624 218.624L472.034 219.886L470.96 219.106L469.886 219.886L470.296 218.624L469.222 217.844H470.55L470.96 216.582L471.37 217.844H472.697L471.624 218.624Z" fill="#0052B4"/>
<path d="M319.642 287.596C322.398 285.299 324.595 283.39 326.231 281.868C327.868 280.318 329.232 278.71 330.322 277.045C331.413 275.379 331.959 273.743 331.959 272.135C331.959 270.671 331.615 269.522 330.925 268.69C330.236 267.857 329.174 267.441 327.738 267.441C326.303 267.441 325.198 267.929 324.422 268.905C323.647 269.852 323.245 271.159 323.216 272.824H317.359C317.474 269.379 318.493 266.766 320.417 264.986C322.369 263.206 324.839 262.316 327.825 262.316C331.098 262.316 333.61 263.191 335.361 264.943C337.113 266.666 337.988 268.948 337.988 271.79C337.988 274.03 337.385 276.169 336.18 278.207C334.974 280.246 333.596 282.026 332.045 283.548C330.495 285.041 328.471 286.85 325.973 288.974H338.677V293.97H317.402V289.491L319.642 287.596ZM358.756 270.843C358.469 269.637 357.966 268.733 357.249 268.13C356.56 267.527 355.555 267.225 354.234 267.225C352.253 267.225 350.789 268.029 349.841 269.637C348.922 271.216 348.449 273.8 348.42 277.389C349.109 276.241 350.114 275.351 351.435 274.719C352.755 274.059 354.191 273.728 355.741 273.728C357.608 273.728 359.258 274.13 360.694 274.934C362.13 275.738 363.249 276.915 364.053 278.466C364.857 279.987 365.259 281.825 365.259 283.978C365.259 286.017 364.843 287.84 364.01 289.448C363.206 291.027 362.015 292.262 360.436 293.152C358.857 294.042 356.976 294.487 354.794 294.487C351.808 294.487 349.454 293.826 347.731 292.506C346.037 291.185 344.845 289.347 344.156 286.993C343.496 284.61 343.166 281.682 343.166 278.207C343.166 272.953 344.07 268.991 345.879 266.321C347.688 263.622 350.545 262.273 354.449 262.273C357.464 262.273 359.804 263.091 361.469 264.728C363.134 266.364 364.096 268.403 364.355 270.843H358.756ZM354.363 278.681C352.842 278.681 351.564 279.126 350.53 280.016C349.497 280.906 348.98 282.198 348.98 283.892C348.98 285.586 349.454 286.921 350.401 287.897C351.377 288.874 352.741 289.362 354.492 289.362C356.043 289.362 357.263 288.888 358.153 287.941C359.072 286.993 359.531 285.715 359.531 284.108C359.531 282.442 359.086 281.122 358.196 280.145C357.335 279.169 356.057 278.681 354.363 278.681ZM403.487 264.34V294.401H397.458V274.848L389.404 294.401H384.839L376.743 274.848V294.401H370.713V264.34H377.561L387.122 286.692L396.683 264.34H403.487Z" fill="black"/>
<path d="M414.961 279.503C415.084 279.627 415.23 279.725 415.391 279.792C415.552 279.859 415.724 279.894 415.897 279.894C416.072 279.894 416.245 279.859 416.405 279.792C416.566 279.725 416.712 279.627 416.835 279.503L421.176 275.149V287.143C421.176 287.493 421.315 287.829 421.562 288.076C421.809 288.324 422.145 288.462 422.496 288.462C422.845 288.462 423.181 288.324 423.428 288.076C423.676 287.829 423.814 287.493 423.814 287.143V275.149L428.155 279.503C428.405 279.752 428.742 279.891 429.092 279.891C429.443 279.891 429.78 279.752 430.03 279.503C430.278 279.255 430.417 278.918 430.417 278.567C430.417 278.215 430.278 277.878 430.03 277.63L423.432 271.033C423.306 270.912 423.158 270.818 422.996 270.755C422.839 270.686 422.668 270.65 422.496 270.65C422.322 270.65 422.152 270.686 421.994 270.755C421.832 270.818 421.684 270.912 421.558 271.033L414.961 277.63C414.837 277.753 414.74 277.898 414.673 278.059C414.605 278.22 414.571 278.392 414.571 278.567C414.571 278.741 414.605 278.913 414.673 279.074C414.74 279.235 414.837 279.381 414.961 279.503Z" fill="#00AC45"/>
<path d="M317.059 328.533C318.113 327.655 318.953 326.924 319.579 326.343C320.204 325.75 320.726 325.136 321.143 324.499C321.56 323.862 321.77 323.236 321.77 322.622C321.77 322.062 321.637 321.622 321.374 321.304C321.11 320.986 320.704 320.827 320.155 320.827C319.606 320.827 319.183 321.013 318.887 321.387C318.591 321.749 318.437 322.248 318.426 322.885H316.188C316.231 321.568 316.62 320.568 317.356 319.888C318.102 319.208 319.046 318.867 320.188 318.867C321.439 318.867 322.4 319.202 323.07 319.872C323.739 320.53 324.074 321.403 324.074 322.49C324.074 323.346 323.844 324.164 323.382 324.943C322.921 325.722 322.394 326.404 321.802 326.985C321.209 327.557 320.435 328.248 319.48 329.06H324.339V330.97H316.203V329.258L317.059 328.533ZM333.859 321.123H328.524V323.939C328.754 323.654 329.084 323.423 329.512 323.247C329.94 323.061 330.395 322.967 330.878 322.967C331.757 322.967 332.476 323.16 333.036 323.544C333.595 323.928 334.002 324.422 334.254 325.026C334.507 325.619 334.633 326.256 334.633 326.936C334.633 328.199 334.271 329.213 333.546 329.982C332.832 330.751 331.812 331.135 330.483 331.135C329.232 331.135 328.233 330.822 327.486 330.196C326.74 329.571 326.317 328.752 326.218 327.743H328.458C328.557 328.182 328.776 328.533 329.116 328.797C329.468 329.06 329.913 329.192 330.451 329.192C331.099 329.192 331.586 328.989 331.916 328.583C332.245 328.176 332.41 327.639 332.41 326.969C332.41 326.289 332.24 325.772 331.899 325.421C331.57 325.059 331.082 324.878 330.434 324.878C329.973 324.878 329.589 324.993 329.281 325.223C328.974 325.454 328.754 325.762 328.622 326.145H326.416V319.098H333.859V321.123ZM336.124 322.078C336.124 321.243 336.365 320.591 336.849 320.119C337.343 319.646 337.974 319.411 338.742 319.411C339.511 319.411 340.136 319.646 340.619 320.119C341.113 320.591 341.36 321.243 341.36 322.078C341.36 322.923 341.113 323.582 340.619 324.054C340.136 324.527 339.511 324.762 338.742 324.762C337.974 324.762 337.343 324.527 336.849 324.054C336.365 323.582 336.124 322.923 336.124 322.078ZM346.697 319.608L340.224 331.135H337.985L344.44 319.608H346.697ZM338.727 320.794C338.123 320.794 337.82 321.222 337.82 322.078C337.82 322.946 338.123 323.379 338.727 323.379C339.023 323.379 339.253 323.275 339.417 323.066C339.582 322.847 339.664 322.518 339.664 322.078C339.664 321.222 339.353 320.794 338.727 320.794ZM343.353 328.648C343.353 327.804 343.594 327.15 344.077 326.689C344.571 326.216 345.203 325.981 345.971 325.981C346.74 325.981 347.36 326.216 347.832 326.689C348.315 327.15 348.556 327.804 348.556 328.648C348.556 329.493 348.315 330.152 347.832 330.624C347.36 331.097 346.74 331.333 345.971 331.333C345.192 331.333 344.56 331.097 344.077 330.624C343.594 330.152 343.353 329.493 343.353 328.648ZM345.955 327.364C345.329 327.364 345.016 327.792 345.016 328.648C345.016 329.516 345.329 329.949 345.955 329.949C346.569 329.949 346.878 329.516 346.878 328.648C346.878 327.792 346.569 327.364 345.955 327.364Z" fill="#00AC45"/>
<path d="M365.682 321.943C366.384 321.943 367.01 322.091 367.559 322.387C368.108 322.672 368.541 323.107 368.86 323.688C369.178 324.27 369.337 324.978 369.337 325.813V331.131H367.855V326.027C367.855 325.126 367.63 324.441 367.18 323.968C366.741 323.486 366.143 323.244 365.385 323.244C364.606 323.244 363.986 323.496 363.525 324.001C363.063 324.495 362.833 325.215 362.833 326.158V331.131H361.351V326.027C361.351 325.126 361.126 324.441 360.676 323.968C360.237 323.486 359.638 323.244 358.881 323.244C358.102 323.244 357.481 323.496 357.02 324.001C356.559 324.495 356.329 325.215 356.329 326.158V331.131H354.83V322.108H356.329V323.408C356.625 322.936 357.02 322.574 357.514 322.322C358.019 322.07 358.573 321.943 359.177 321.943C359.935 321.943 360.604 322.113 361.186 322.453C361.768 322.794 362.202 323.293 362.487 323.952C362.74 323.315 363.157 322.821 363.739 322.47C364.32 322.119 364.968 321.943 365.682 321.943ZM375.731 331.279C374.886 331.279 374.117 331.087 373.426 330.703C372.745 330.319 372.207 329.776 371.812 329.073C371.428 328.36 371.236 327.536 371.236 326.603C371.236 325.681 371.433 324.869 371.828 324.166C372.234 323.453 372.783 322.909 373.475 322.536C374.167 322.152 374.941 321.959 375.797 321.959C376.653 321.959 377.427 322.152 378.119 322.536C378.81 322.909 379.354 323.446 379.749 324.149C380.155 324.852 380.358 325.669 380.358 326.603C380.358 327.536 380.149 328.36 379.732 329.073C379.326 329.776 378.772 330.319 378.069 330.703C377.367 331.087 376.587 331.279 375.731 331.279ZM375.731 329.962C376.269 329.962 376.774 329.835 377.246 329.583C377.718 329.331 378.097 328.953 378.382 328.447C378.678 327.942 378.827 327.327 378.827 326.603C378.827 325.878 378.684 325.264 378.399 324.759C378.113 324.253 377.74 323.881 377.279 323.639C376.818 323.387 376.318 323.26 375.78 323.26C375.231 323.26 374.726 323.387 374.265 323.639C373.815 323.881 373.453 324.253 373.179 324.759C372.904 325.264 372.767 325.878 372.767 326.603C372.767 327.339 372.899 327.958 373.162 328.464C373.436 328.969 373.799 329.348 374.249 329.6C374.699 329.842 375.193 329.962 375.731 329.962ZM383.827 323.573C384.09 323.058 384.463 322.656 384.946 322.371C385.44 322.086 386.039 321.943 386.741 321.943V323.491H386.346C384.667 323.491 383.827 324.401 383.827 326.224V331.131H382.328V322.108H383.827V323.573ZM396.704 326.274C396.704 326.559 396.688 326.861 396.655 327.179H389.443C389.497 328.068 389.799 328.765 390.348 329.271C390.908 329.765 391.583 330.012 392.374 330.012C393.021 330.012 393.559 329.863 393.987 329.567C394.427 329.259 394.734 328.854 394.91 328.348H396.523C396.282 329.216 395.799 329.924 395.074 330.473C394.35 331.011 393.45 331.279 392.374 331.279C391.517 331.279 390.749 331.087 390.068 330.703C389.399 330.319 388.872 329.776 388.488 329.073C388.103 328.36 387.911 327.536 387.911 326.603C387.911 325.669 388.098 324.852 388.471 324.149C388.844 323.446 389.366 322.909 390.035 322.536C390.716 322.152 391.496 321.959 392.374 321.959C393.23 321.959 393.987 322.146 394.646 322.519C395.305 322.893 395.81 323.408 396.161 324.067C396.523 324.714 396.704 325.45 396.704 326.274ZM395.157 325.961C395.157 325.389 395.03 324.902 394.778 324.495C394.525 324.078 394.18 323.766 393.74 323.557C393.312 323.337 392.835 323.227 392.308 323.227C391.55 323.227 390.903 323.469 390.365 323.952C389.838 324.434 389.536 325.104 389.459 325.961H395.157ZM404.9 323.343V328.661C404.9 329.101 404.994 329.414 405.18 329.6C405.367 329.776 405.691 329.863 406.152 329.863H407.255V331.131H405.905C405.07 331.131 404.445 330.939 404.027 330.555C403.61 330.171 403.402 329.539 403.402 328.661V323.343H402.233V322.108H403.402V319.835H404.9V322.108H407.255V323.343H404.9ZM413.549 321.943C414.23 321.943 414.845 322.091 415.393 322.387C415.943 322.672 416.371 323.107 416.678 323.688C416.997 324.27 417.155 324.978 417.155 325.813V331.131H415.673V326.027C415.673 325.126 415.449 324.441 414.998 323.968C414.548 323.486 413.934 323.244 413.154 323.244C412.364 323.244 411.733 323.491 411.261 323.985C410.8 324.479 410.569 325.198 410.569 326.142V331.131H409.071V318.946H410.569V323.392C410.865 322.931 411.272 322.574 411.788 322.322C412.315 322.07 412.902 321.943 413.549 321.943ZM419.044 326.586C419.044 325.664 419.23 324.857 419.604 324.166C419.977 323.463 420.488 322.919 421.135 322.536C421.794 322.152 422.523 321.959 423.325 321.959C424.116 321.959 424.802 322.129 425.383 322.47C425.965 322.811 426.399 323.239 426.684 323.754V322.108H428.199V331.131H426.684V329.452C426.388 329.979 425.943 330.418 425.351 330.769C424.769 331.11 424.088 331.279 423.309 331.279C422.507 331.279 421.782 331.082 421.135 330.687C420.488 330.291 419.977 329.737 419.604 329.024C419.23 328.31 419.044 327.497 419.044 326.586ZM426.684 326.603C426.684 325.923 426.548 325.33 426.273 324.825C425.998 324.319 425.625 323.935 425.153 323.672C424.692 323.397 424.181 323.26 423.622 323.26C423.062 323.26 422.551 323.392 422.09 323.655C421.629 323.919 421.262 324.303 420.987 324.808C420.712 325.313 420.575 325.906 420.575 326.586C420.575 327.278 420.712 327.882 420.987 328.398C421.262 328.903 421.629 329.292 422.09 329.567C422.551 329.83 423.062 329.962 423.622 329.962C424.181 329.962 424.692 329.83 425.153 329.567C425.625 329.292 425.998 328.903 426.273 328.398C426.548 327.882 426.684 327.283 426.684 326.603ZM435.128 321.943C436.226 321.943 437.115 322.277 437.796 322.947C438.476 323.606 438.816 324.561 438.816 325.813V331.131H437.334V326.027C437.334 325.126 437.109 324.441 436.659 323.968C436.21 323.486 435.594 323.244 434.815 323.244C434.025 323.244 433.394 323.491 432.921 323.985C432.46 324.479 432.23 325.198 432.23 326.142V331.131H430.731V322.108H432.23V323.392C432.526 322.931 432.926 322.574 433.432 322.322C433.947 322.07 434.514 321.943 435.128 321.943ZM447.152 323.771C447.449 323.255 447.888 322.827 448.47 322.486C449.063 322.135 449.749 321.959 450.528 321.959C451.33 321.959 452.054 322.152 452.702 322.536C453.36 322.919 453.877 323.463 454.25 324.166C454.623 324.857 454.809 325.664 454.809 326.586C454.809 327.497 454.623 328.31 454.25 329.024C453.877 329.737 453.36 330.291 452.702 330.687C452.054 331.082 451.33 331.279 450.528 331.279C449.761 331.279 449.079 331.11 448.486 330.769C447.905 330.418 447.46 329.984 447.152 329.468V335.413H445.654V322.108H447.152V323.771ZM453.278 326.586C453.278 325.906 453.141 325.313 452.866 324.808C452.593 324.303 452.219 323.919 451.747 323.655C451.286 323.392 450.775 323.26 450.215 323.26C449.667 323.26 449.156 323.397 448.684 323.672C448.223 323.935 447.85 324.325 447.564 324.841C447.291 325.346 447.152 325.933 447.152 326.603C447.152 327.283 447.291 327.882 447.564 328.398C447.85 328.903 448.223 329.292 448.684 329.567C449.156 329.83 449.667 329.962 450.215 329.962C450.775 329.962 451.286 329.83 451.747 329.567C452.219 329.292 452.593 328.903 452.866 328.398C453.141 327.882 453.278 327.278 453.278 326.586ZM458.28 323.573C458.544 323.058 458.917 322.656 459.4 322.371C459.894 322.086 460.493 321.943 461.195 321.943V323.491H460.8C459.12 323.491 458.28 324.401 458.28 326.224V331.131H456.782V322.108H458.28V323.573ZM471.158 326.274C471.158 326.559 471.142 326.861 471.109 327.179H463.897C463.951 328.068 464.254 328.765 464.802 329.271C465.362 329.765 466.037 330.012 466.828 330.012C467.475 330.012 468.013 329.863 468.441 329.567C468.881 329.259 469.187 328.854 469.364 328.348H470.977C470.735 329.216 470.253 329.924 469.528 330.473C468.804 331.011 467.903 331.279 466.828 331.279C465.971 331.279 465.203 331.087 464.522 330.703C463.852 330.319 463.325 329.776 462.942 329.073C462.558 328.36 462.365 327.536 462.365 326.603C462.365 325.669 462.551 324.852 462.925 324.149C463.299 323.446 463.819 322.909 464.489 322.536C465.17 322.152 465.95 321.959 466.828 321.959C467.684 321.959 468.441 322.146 469.1 322.519C469.759 322.893 470.264 323.408 470.615 324.067C470.977 324.714 471.158 325.45 471.158 326.274ZM469.611 325.961C469.611 325.389 469.484 324.902 469.232 324.495C468.98 324.078 468.634 323.766 468.194 323.557C467.766 323.337 467.289 323.227 466.762 323.227C466.004 323.227 465.357 323.469 464.819 323.952C464.292 324.434 463.99 325.104 463.913 325.961H469.611ZM476.496 329.748L479.296 322.108H480.893L477.352 331.131H475.607L472.067 322.108H473.68L476.496 329.748ZM483.141 320.642C482.855 320.642 482.614 320.543 482.417 320.346C482.219 320.148 482.12 319.906 482.12 319.621C482.12 319.336 482.219 319.094 482.417 318.897C482.614 318.699 482.855 318.6 483.141 318.6C483.415 318.6 483.645 318.699 483.833 318.897C484.03 319.094 484.129 319.336 484.129 319.621C484.129 319.906 484.03 320.148 483.833 320.346C483.645 320.543 483.415 320.642 483.141 320.642ZM483.866 322.108V331.131H482.367V322.108H483.866ZM490.355 331.279C489.51 331.279 488.741 331.087 488.049 330.703C487.369 330.319 486.831 329.776 486.436 329.073C486.052 328.36 485.859 327.536 485.859 326.603C485.859 325.681 486.057 324.869 486.452 324.166C486.859 323.453 487.407 322.909 488.099 322.536C488.79 322.152 489.564 321.959 490.421 321.959C491.277 321.959 492.051 322.152 492.743 322.536C493.434 322.909 493.978 323.446 494.373 324.149C494.779 324.852 494.982 325.669 494.982 326.603C494.982 327.536 494.773 328.36 494.356 329.073C493.95 329.776 493.396 330.319 492.693 330.703C491.99 331.087 491.211 331.279 490.355 331.279ZM490.355 329.962C490.893 329.962 491.397 329.835 491.87 329.583C492.342 329.331 492.721 328.953 493.006 328.447C493.302 327.942 493.451 327.327 493.451 326.603C493.451 325.878 493.307 325.264 493.022 324.759C492.737 324.253 492.364 323.881 491.903 323.639C491.442 323.387 490.943 323.26 490.404 323.26C489.856 323.26 489.35 323.387 488.889 323.639C488.44 323.881 488.077 324.253 487.802 324.759C487.528 325.264 487.391 325.878 487.391 326.603C487.391 327.339 487.523 327.958 487.786 328.464C488.061 328.969 488.423 329.348 488.873 329.6C489.323 329.842 489.816 329.962 490.355 329.962ZM504.954 322.108V331.131H503.456V329.797C503.171 330.259 502.771 330.621 502.254 330.884C501.75 331.136 501.19 331.263 500.574 331.263C499.873 331.263 499.241 331.12 498.681 330.835C498.121 330.538 497.676 330.099 497.347 329.518C497.029 328.936 496.869 328.228 496.869 327.393V322.108H498.351V327.196C498.351 328.085 498.577 328.771 499.026 329.254C499.477 329.727 500.092 329.962 500.871 329.962C501.673 329.962 502.303 329.715 502.764 329.221C503.225 328.727 503.456 328.008 503.456 327.064V322.108H504.954ZM510.68 331.279C509.988 331.279 509.368 331.164 508.819 330.934C508.269 330.692 507.836 330.362 507.518 329.946C507.199 329.518 507.024 329.029 506.991 328.48H508.539C508.582 328.93 508.791 329.298 509.165 329.583C509.549 329.868 510.048 330.012 510.663 330.012C511.233 330.012 511.684 329.885 512.014 329.633C512.343 329.381 512.508 329.062 512.508 328.678C512.508 328.283 512.332 327.991 511.981 327.805C511.629 327.607 511.085 327.415 510.351 327.229C509.68 327.053 509.132 326.878 508.704 326.702C508.286 326.516 507.924 326.246 507.617 325.895C507.321 325.533 507.172 325.06 507.172 324.479C507.172 324.018 507.309 323.595 507.584 323.211C507.858 322.827 508.248 322.524 508.753 322.305C509.257 322.075 509.834 321.959 510.482 321.959C511.48 321.959 512.287 322.211 512.903 322.717C513.517 323.222 513.847 323.914 513.891 324.792H512.392C512.359 324.319 512.167 323.94 511.816 323.655C511.475 323.37 511.014 323.227 510.433 323.227C509.895 323.227 509.466 323.343 509.148 323.573C508.829 323.804 508.671 324.105 508.671 324.479C508.671 324.775 508.763 325.022 508.951 325.22C509.148 325.406 509.389 325.56 509.675 325.681C509.972 325.791 510.377 325.916 510.894 326.06C511.541 326.236 512.068 326.41 512.475 326.586C512.88 326.751 513.226 327.003 513.512 327.344C513.809 327.685 513.962 328.129 513.973 328.678C513.973 329.172 513.835 329.616 513.562 330.012C513.287 330.407 512.897 330.72 512.392 330.95C511.898 331.169 511.327 331.279 510.68 331.279ZM531.33 321.943C532.032 321.943 532.658 322.091 533.208 322.387C533.756 322.672 534.189 323.107 534.508 323.688C534.826 324.27 534.986 324.978 534.986 325.813V331.131H533.504V326.027C533.504 325.126 533.279 324.441 532.829 323.968C532.389 323.486 531.791 323.244 531.034 323.244C530.254 323.244 529.634 323.496 529.173 324.001C528.712 324.495 528.482 325.215 528.482 326.158V331.131H527V326.027C527 325.126 526.774 324.441 526.325 323.968C525.885 323.486 525.287 323.244 524.53 323.244C523.749 323.244 523.13 323.496 522.669 324.001C522.208 324.495 521.977 325.215 521.977 326.158V331.131H520.479V322.108H521.977V323.408C522.274 322.936 522.669 322.574 523.163 322.322C523.667 322.07 524.222 321.943 524.826 321.943C525.584 321.943 526.252 322.113 526.835 322.453C527.416 322.794 527.85 323.293 528.136 323.952C528.388 323.315 528.805 322.821 529.387 322.47C529.969 322.119 530.616 321.943 531.33 321.943ZM541.379 331.279C540.534 331.279 539.765 331.087 539.074 330.703C538.393 330.319 537.855 329.776 537.46 329.073C537.076 328.36 536.883 327.536 536.883 326.603C536.883 325.681 537.081 324.869 537.476 324.166C537.883 323.453 538.431 322.909 539.123 322.536C539.815 322.152 540.589 321.959 541.445 321.959C542.301 321.959 543.075 322.152 543.767 322.536C544.458 322.909 545.002 323.446 545.397 324.149C545.803 324.852 546.006 325.669 546.006 326.603C546.006 327.536 545.797 328.36 545.38 329.073C544.974 329.776 544.42 330.319 543.717 330.703C543.014 331.087 542.235 331.279 541.379 331.279ZM541.379 329.962C541.917 329.962 542.421 329.835 542.894 329.583C543.366 329.331 543.745 328.953 544.03 328.447C544.326 327.942 544.475 327.327 544.475 326.603C544.475 325.878 544.332 325.264 544.047 324.759C543.762 324.253 543.388 323.881 542.927 323.639C542.466 323.387 541.967 323.26 541.428 323.26C540.88 323.26 540.374 323.387 539.913 323.639C539.464 323.881 539.101 324.253 538.827 324.759C538.552 325.264 538.415 325.878 538.415 326.603C538.415 327.339 538.547 327.958 538.81 328.464C539.085 328.969 539.447 329.348 539.897 329.6C540.347 329.842 540.841 329.962 541.379 329.962ZM552.374 321.943C553.471 321.943 554.36 322.277 555.041 322.947C555.721 323.606 556.062 324.561 556.062 325.813V331.131H554.58V326.027C554.58 325.126 554.355 324.441 553.905 323.968C553.454 323.486 552.84 323.244 552.061 323.244C551.27 323.244 550.638 323.491 550.167 323.985C549.706 324.479 549.475 325.198 549.475 326.142V331.131H547.977V322.108H549.475V323.392C549.772 322.931 550.172 322.574 550.678 322.322C551.193 322.07 551.758 321.943 552.374 321.943ZM560.337 323.343V328.661C560.337 329.101 560.431 329.414 560.617 329.6C560.803 329.776 561.128 329.863 561.589 329.863H562.692V331.131H561.342C560.507 331.131 559.881 330.939 559.464 330.555C559.048 330.171 558.839 329.539 558.839 328.661V323.343H557.67V322.108H558.839V319.835H560.337V322.108H562.692V323.343H560.337ZM568.986 321.943C569.667 321.943 570.282 322.091 570.83 322.387C571.38 322.672 571.808 323.107 572.115 323.688C572.434 324.27 572.592 324.978 572.592 325.813V331.131H571.11V326.027C571.11 325.126 570.886 324.441 570.435 323.968C569.985 323.486 569.371 323.244 568.591 323.244C567.8 323.244 567.17 323.491 566.697 323.985C566.236 324.479 566.006 325.198 566.006 326.142V331.131H564.507V318.946H566.006V323.392C566.302 322.931 566.709 322.574 567.224 322.322C567.751 322.07 568.339 321.943 568.986 321.943Z" fill="#262626"/>
</g>
<defs>
<filter id="filter0_d" x="5" y="22" width="376.668" height="238.601" filterUnits="userSpaceOnUse" color-interpolation-filters="sRGB">
<feFlood flood-opacity="0" result="BackgroundImageFix"/>
<feColorMatrix in="SourceAlpha" type="matrix" values="0 0 0 0 0 0 0 0 0 0 0 0 0 0 0 0 0 0 127 0"/>
<feOffset dx="2" dy="16"/>
<feGaussianBlur stdDeviation="15"/>
<feColorMatrix type="matrix" values="0 0 0 0 0 0 0 0 0 0 0 0 0 0 0 0 0 0 0.2 0"/>
<feBlend mode="normal" in2="BackgroundImageFix" result="effect1_dropShadow"/>
<feBlend mode="normal" in="SourceGraphic" in2="effect1_dropShadow" result="shape"/>
</filter>
<filter id="filter1_d" x="131.667" y="98.0004" width="376.668" height="238.601" filterUnits="userSpaceOnUse" color-interpolation-filters="sRGB">
<feFlood flood-opacity="0" result="BackgroundImageFix"/>
<feColorMatrix in="SourceAlpha" type="matrix" values="0 0 0 0 0 0 0 0 0 0 0 0 0 0 0 0 0 0 127 0"/>
<feOffset dx="2" dy="16"/>
<feGaussianBlur stdDeviation="15"/>
<feColorMatrix type="matrix" values="0 0 0 0 0 0 0 0 0 0 0 0 0 0 0 0 0 0 0.2 0"/>
<feBlend mode="normal" in2="BackgroundImageFix" result="effect1_dropShadow"/>
<feBlend mode="normal" in="SourceGraphic" in2="effect1_dropShadow" result="shape"/>
</filter>
<filter id="filter2_d" x="258.331" y="173.999" width="376.668" height="238.601" filterUnits="userSpaceOnUse" color-interpolation-filters="sRGB">
<feFlood flood-opacity="0" result="BackgroundImageFix"/>
<feColorMatrix in="SourceAlpha" type="matrix" values="0 0 0 0 0 0 0 0 0 0 0 0 0 0 0 0 0 0 127 0"/>
<feOffset dx="2" dy="16"/>
<feGaussianBlur stdDeviation="15"/>
<feColorMatrix type="matrix" values="0 0 0 0 0 0 0 0 0 0 0 0 0 0 0 0 0 0 0.2 0"/>
<feBlend mode="normal" in2="BackgroundImageFix" result="effect1_dropShadow"/>
<feBlend mode="normal" in="SourceGraphic" in2="effect1_dropShadow" result="shape"/>
</filter>
</defs>
</svg>
