<svg xmlns="http://www.w3.org/2000/svg" width="21" height="21" viewBox="0 0 21 21">
  <path id="keyword" d="M5.7,21H4.922A4.927,4.927,0,0,1,0,16.078V4.922A4.927,4.927,0,0,1,4.922,0H16.078A4.927,4.927,0,0,1,21,4.922V8.7a.82.82,0,0,1-1.641,0V4.922a3.285,3.285,0,0,0-3.281-3.281H4.922A3.285,3.285,0,0,0,1.641,4.922V16.078a3.285,3.285,0,0,0,3.281,3.281H5.7A.82.82,0,0,1,5.7,21ZM17.719,5.291a.82.82,0,0,0-.82-.82H4.1a.82.82,0,0,0,0,1.641H16.9A.82.82,0,0,0,17.719,5.291ZM21,16.9V15.258a4.106,4.106,0,0,0-4.1-4.1h-.533A4.1,4.1,0,0,0,12.6,13.617H9.037A4.21,4.21,0,0,0,6.1,14.83a1.76,1.76,0,0,0,0,2.5,4.21,4.21,0,0,0,2.941,1.212H12.6A4.1,4.1,0,0,0,16.365,21H16.9A4.106,4.106,0,0,0,21,16.9Zm-7.813-1.641a.82.82,0,0,0,.794-.616A2.459,2.459,0,0,1,16.365,12.8H16.9a2.464,2.464,0,0,1,2.461,2.461V16.9A2.464,2.464,0,0,1,16.9,19.359h-.533a2.459,2.459,0,0,1-2.383-1.845.82.82,0,0,0-.794-.616H9.037a2.557,2.557,0,0,1-1.786-.737.119.119,0,0,1,0-.167,2.557,2.557,0,0,1,1.786-.737Zm3.916-.205a1.025,1.025,0,1,0,1.025,1.025A1.025,1.025,0,0,0,17.1,15.053Z" fill="#707070"/>
</svg>
