<svg width="311" height="121" fill="none" xmlns="http://www.w3.org/2000/svg"><path fill-rule="evenodd" clip-rule="evenodd" d="M144.093 11.59c-1.464.02-2.889.157-4.274.41l4.548 25.734-8.725 24.643a26.675 26.675 0 0 0 8.998 1.5c14.366-.156 26.058-12.078 25.921-26.416-.156-14.338-12.102-26.026-26.468-25.87z" fill="#5D21D1"/><path fill-rule="evenodd" clip-rule="evenodd" d="M112.707 38.669c.117 10.928 7.085 20.669 17.391 24.35l8.803-24.623-26.194.273z" fill="#A1F7C4"/><path fill-rule="evenodd" clip-rule="evenodd" d="M132.948 7.247a26.212 26.212 0 0 0-15.596 9.039c-3.962 4.772-6.109 10.772-6.031 16.967l26.194-.273-4.567-25.733z" fill="#00AC45"/><path fill-rule="evenodd" clip-rule="evenodd" d="M159.435 12.234a2.418 2.418 0 0 0 2.42-2.416 2.417 2.417 0 0 0-2.42-2.415 2.417 2.417 0 0 0-2.42 2.415 2.418 2.418 0 0 0 2.42 2.416z" fill="#5D21D1"/><path fill-rule="evenodd" clip-rule="evenodd" d="M114.327 59.688a2.418 2.418 0 0 0 2.42-2.415 2.418 2.418 0 0 0-2.42-2.416 2.418 2.418 0 0 0-2.421 2.416 2.418 2.418 0 0 0 2.421 2.415z" fill="#A1F7C4"/><path fill-rule="evenodd" clip-rule="evenodd" d="M111.907 17.22a2.418 2.418 0 0 0 2.42-2.415 2.418 2.418 0 0 0-2.42-2.415 2.418 2.418 0 0 0-2.421 2.415 2.418 2.418 0 0 0 2.421 2.416z" fill="#00AC45"/><path fill-rule="evenodd" clip-rule="evenodd" d="M184.868 7.734a.585.585 0 0 1 .035 1.168h-20.9a.585.585 0 0 1-.035-1.167l.035-.001h20.865zM170.229 10.714a.585.585 0 0 1 .035 1.168l-.035.001h-6.226a.585.585 0 0 1-.035-1.168h6.261z" fill="#5D21D1"/><path fill-rule="evenodd" clip-rule="evenodd" d="M279.691 66.039c-9.057-13.987-18.933-20.143-22.7-22.11-.039-3.76-3.182-7.13-12.336-8.747-20.495-3.78-25.687 1.773-26.878 7.227l-15.225-.312-19.46-7.402-9.213 9.72c-1.737 2.338-1.561 9.176 4.529 15 4.255 4.072 19.479 14.104 28.302 19.812l.859 39.585 64.666.389-3.045-15.818c1.64-.078 1.171-.117 1.659-.136 14.288-.448 20.3-19.461 8.842-37.208z" fill="#00AC45"/><path fill-rule="evenodd" clip-rule="evenodd" d="M217.582 48.818c-.059-1.558-.332-3.974.195-6.409l-7.573-.156c.078 2.806.995 11.221 8.978 12.974a16.142 16.142 0 0 1-1.6-6.409zM264.74 49.13c-3.357-2.708-6.129-4.344-7.749-5.201.058 5.493-6.5 11.863-10.619 15 .215.039.43.058.664.078 5.27.35 17.782-6.702 19.909-7.91-.683-.565-1.424-1.246-2.205-1.967zM266.682 70.483c2.188-.355 4.55.032 7.064 1.286a.584.584 0 1 1-.524 1.046c-2.297-1.147-4.411-1.493-6.352-1.178-1.547.25-2.923.908-4.124 1.852-.55.432-1.026.895-1.425 1.357a7.868 7.868 0 0 0-.312.383l-.083.11-.031.043-.038.056a.586.586 0 0 1-.979-.642l.041-.061c.106-.153.278-.377.515-.652.446-.516.975-1.031 1.587-1.513 1.348-1.059 2.904-1.803 4.661-2.087z" fill="#2E186A"/><path fill-rule="evenodd" clip-rule="evenodd" d="M252.456 66.266a.586.586 0 0 1 .776.203l.115.202.047.082a21.648 21.648 0 0 0 1.928 2.777c1.538 1.87 3.058 2.955 4.362 2.906l.061-.004.03-.002.088-.122c.08-.107.175-.228.284-.36l.049-.06a11.64 11.64 0 0 1 1.692-1.654c2.765-2.204 6.275-3.084 10.489-1.873a.584.584 0 1 1-.324 1.123c-3.827-1.1-6.951-.316-9.434 1.664-.594.473-1.101.98-1.522 1.486-.125.15-.234.291-.327.419l-.046.063-.096.14-.016.026a.587.587 0 0 1-.39.266 3.343 3.343 0 0 1-.4.05c-1.812.119-3.622-1.158-5.405-3.327a22.602 22.602 0 0 1-1.59-2.203l-.122-.193c-.099-.158-.19-.308-.273-.45l-.119-.204c-.042-.072-.072-.127-.092-.163a.585.585 0 0 1 .235-.792zM222.638 57.585a.781.781 0 0 1 .926.546l.012.048.058.263.075.35.06.295.021.104c.16.8.321 1.682.47 2.621.331 2.079.562 4.132.649 6.059.069 1.529.043 2.928-.09 4.173a.78.78 0 0 1-1.553-.166c.125-1.158.149-2.482.083-3.937-.084-1.862-.308-3.86-.631-5.884a66.149 66.149 0 0 0-.459-2.56l-.06-.295c-.026-.124-.05-.242-.074-.35l-.073-.333a.78.78 0 0 1 .586-.934zM243.958 58.09a.78.78 0 0 1 .383 1.003l-.21.448-.144.316a74.998 74.998 0 0 0-1.94 4.696 52.374 52.374 0 0 0-1.32 3.987c-.457 1.611-.758 3.058-.877 4.295a.78.78 0 0 1-1.555-.15c.13-1.341.449-2.875.929-4.57a54.123 54.123 0 0 1 1.36-4.106 74.878 74.878 0 0 1 1.601-3.945l.168-.38c.11-.247.214-.477.312-.69l.17-.368.081-.171a.782.782 0 0 1 1.042-.365z" fill="#2E186A"/><path fill-rule="evenodd" clip-rule="evenodd" d="M247.719 42.331 250.335 45s-12.414 9.429-16.455 32.123c-2.615 14.747-1.737 16.403-1.737 16.403l-7.69-.41s4.294-24.525 1.62-32.298c-2.674-7.753-.234-16.48 1.581-17.883 1.815-1.403 20.065-.604 20.065-.604z" fill="#fff"/><path fill-rule="evenodd" clip-rule="evenodd" d="m244.264 33.662.723 6.059 2.459 2.825s-7.281 4.5-14.249 12.409c0 0-5.699-6-6.695-15.41l13.351 1.656L240.907 36l3.357-2.338z" fill="#fff"/><path fill-rule="evenodd" clip-rule="evenodd" d="m240.572 35.52-.033.025a.583.583 0 0 0-.206.34l-.946 4.67-12.813-1.59a.585.585 0 0 0-.654.642c.408 3.854 1.603 7.423 3.34 10.648a29.086 29.086 0 0 0 2.401 3.755c.259.342.502.645.724.907l.143.168c.111.128.194.219.244.272.237.25.637.242.865-.017.281-.319.566-.636.853-.95a73.627 73.627 0 0 1 9.132-8.4 63.593 63.593 0 0 1 3.005-2.202l.304-.207c.162-.11.313-.21.452-.3l.221-.143.15-.096.031-.02a.584.584 0 0 0 .103-.86l-2.341-2.689-.701-5.88a.586.586 0 0 0-.917-.41l-3.357 2.338zm3.226-.82.607 5.09.007.043a.58.58 0 0 0 .132.271l2.018 2.317-.092.06c-.157.106-.326.22-.506.344a64.223 64.223 0 0 0-3.061 2.242 74.697 74.697 0 0 0-9.277 8.535l-.292.32-.133.148-.064-.077c-.169-.206-.35-.435-.542-.688a27.898 27.898 0 0 1-2.303-3.603l-.093-.173c-1.496-2.823-2.56-5.914-3.015-9.229l-.012-.082 12.609 1.563.035.004c.29.018.553-.18.611-.468l1.007-4.972 2.364-1.646z" fill="#2E186A"/><path fill-rule="evenodd" clip-rule="evenodd" d="M246.431 25.364s4.646.097 3.806 4.227c-.839 4.13-5.953 1.753-5.953 1.753l.683-5.902 1.464-.078z" fill="#fff"/><path fill-rule="evenodd" clip-rule="evenodd" d="M246.443 24.78h-.043l-1.464.078a.586.586 0 0 0-.551.517l-.683 5.902c-.029.25.106.49.335.597l.078.035c.21.093.524.214.915.334.774.238 1.554.378 2.298.365 1.792-.03 3.086-.946 3.483-2.9.452-2.224-.461-3.694-2.194-4.44a6.204 6.204 0 0 0-1.484-.419l-.126-.019a5.05 5.05 0 0 0-.564-.05zm-.951 1.219.945-.05.087.005.028.002c.119.01.253.025.398.048.413.065.825.174 1.203.337 1.254.54 1.844 1.49 1.51 3.134-.28 1.377-1.079 1.943-2.354 1.965-.604.01-1.268-.109-1.934-.314l-.112-.035a8.29 8.29 0 0 1-.316-.11l-.03-.01.575-4.972z" fill="#2E186A"/><path fill-rule="evenodd" clip-rule="evenodd" d="M233.197 12.312c-1.229-.098-9.603-.624-10.521 6.35-.917 6.974.079 14.689.84 18.195.761 3.507 16.825 1.89 17.723 1.578.898-.312 1.991-1.383 1.991-1.383l2.206-10.714s.897-12.935-12.239-14.026z" fill="#fff"/><path fill-rule="evenodd" clip-rule="evenodd" d="M231.136 11.698c-1.205.057-2.385.239-3.489.579-3.075.948-5.113 2.978-5.551 6.31-.781 5.937-.26 13.29.847 18.394.422 1.94 3.714 2.659 9.054 2.68l.33.001c3.58-.004 8.345-.411 9.104-.675.163-.056.33-.132.503-.225a6.32 6.32 0 0 0 .782-.509c.184-.137.361-.28.53-.426l.125-.11c.124-.11.216-.196.269-.248a.581.581 0 0 0 .163-.3l2.206-10.714a.67.67 0 0 0 .011-.077l.005-.086c.005-.12.01-.293.009-.514a16.073 16.073 0 0 0-.081-1.536c-.156-1.591-.526-3.201-1.171-4.734-1.853-4.408-5.564-7.283-11.536-7.779-.624-.05-1.303-.069-2.11-.03zm2.015 1.196c5.52.459 8.861 3.048 10.552 7.066.595 1.416.939 2.914 1.085 4.397.051.519.074.998.075 1.425l-.001.142-.001.13-.005.144a3.792 3.792 0 0 1-.003.063l-2.159 10.492-.011.01-.091.082a9.028 9.028 0 0 1-.578.473 5.25 5.25 0 0 1-.636.415 2.323 2.323 0 0 1-.331.15l-.041.013c-.741.21-5.299.594-8.681.597h-.287c-4.663-.02-7.714-.672-7.95-1.76-1.081-4.98-1.593-12.203-.831-17.995.373-2.834 2.066-4.521 4.736-5.344 1-.309 2.085-.475 3.198-.528a15.242 15.242 0 0 1 1.96.028z" fill="#2E186A"/><path fill-rule="evenodd" clip-rule="evenodd" d="M243.894 26.24c-.781.76-2.889 5.202-3.397 7.267 0 0-5.192-1.734-12.628-1.851 0 0-4.06.078-5.68.565 0 0 .351 7.325 3.65 11.104 3.298 3.779 10.247 2.727 13.507.448 3.259-2.28 3.806-3.37 4.548-5.805.761-2.436 2.752-11.533 2.752-11.533l-2.752-.195z" fill="#968BB4"/><path fill-rule="evenodd" clip-rule="evenodd" d="M246.021 27.818s2.186-3.37 3.025-6.876c.801-3.293-.741-6.74-3.786-8.221-2.557-1.228-4.451-.273-4.451-.273s2.714-4.597-1.366-8.669a7.38 7.38 0 0 0-5.446-2.162c-4.977.136-6.499 4.344-6.499 4.344s-5.31-9.76-16.221-3.974c-1.093.584-2.342 2.201-2.928 3.292-3.611 6.624 8.277 14.474 14.444 15.098 6.793.681 10.755-.448 12.942-2.104-1.64.974.195 11.104 10.286 9.545zM227.248 28.785a.585.585 0 0 1 1.166.097l-.003.034-.626 5.544 1.419-.37a.586.586 0 0 1 .705.385l.009.033a.583.583 0 0 1-.385.704l-.033.01-2.245.584a.584.584 0 0 1-.732-.597l.002-.034.723-6.39zM225.351 29.98c.366 0 .663-.453.663-1.012 0-.56-.297-1.014-.663-1.014-.367 0-.664.454-.664 1.014 0 .559.297 1.012.664 1.012zM231.655 29.864c.367 0 .664-.454.664-1.013 0-.56-.297-1.013-.664-1.013-.366 0-.664.453-.664 1.013 0 .56.298 1.013.664 1.013z" fill="#2E186A"/><path fill-rule="evenodd" clip-rule="evenodd" d="M231.682 22.488c1.05-.164 1.956.101 2.693.64.205.15.381.31.529.473.093.1.16.184.199.241a.584.584 0 0 1-.147.813.587.587 0 0 1-.794-.118l-.037-.049a2.48 2.48 0 0 0-.442-.417c-.5-.365-1.1-.541-1.82-.429a.585.585 0 1 1-.181-1.154zM224.439 22.392c.412-.1.834-.098 1.23-.037l.084.014c.065.012.117.023.154.033a.584.584 0 0 1-.259 1.139l-.069-.015a2.028 2.028 0 0 0-.861.002c-.323.078-.534.249-.647.576l-.014.046a.586.586 0 0 1-1.121-.339c.236-.777.784-1.244 1.503-1.42zM232.182 36.76a7.803 7.803 0 0 1-2.127 1.422s.117 1.948 2.361 1.305c1.386-.39 1.211-1.617.879-2.494a.691.691 0 0 0-1.113-.233zM185.743 46.122c2.096-4.757.907-9.88-2.655-11.444s-8.15 1.025-10.246 5.782-.908 9.88 2.655 11.444c3.562 1.564 8.149-1.025 10.246-5.782z" fill="#2E186A"/><path fill-rule="evenodd" clip-rule="evenodd" d="M164.178 36.565c-3.572-1.617-4.079.234-3.045 1.169 1.308 1.15 7.535 4.402 7.535 4.402s-5.036-.37-6.325 2.455c-1.288 2.825.059 3.058 1.991 1.812 1.913-1.247 7.827.37 7.827.37l1.777 1.753s6.109 2.201 7.944-4.578c1.366-3.877-1.113-6.643-1.113-6.643-.702-.857-3.162-4.46-11.594-6.623 0 0-3.962-.565-1.015 1.46.761.527 1.562.955 2.323 1.325" fill="#fff"/><path fill-rule="evenodd" clip-rule="evenodd" d="M168.119 30.025a8.06 8.06 0 0 1 .793.039l.142.014c.086.01.156.018.204.025a.61.61 0 0 1 .063.013c2.726.699 5.006 1.588 6.893 2.629 1.453.8 2.614 1.657 3.554 2.557.314.3.589.592.847.89l.096.111.23.28.282.353.041.047c.043.053.096.12.157.202l.063.087c.195.273.389.589.569.944.873 1.719 1.135 3.695.419 5.816l-.03.089-.026.094c-.726 2.578-2.115 4.149-3.97 4.84l-.082.03c-1.291.46-2.648.458-3.919.183a5.8 5.8 0 0 1-.706-.192.584.584 0 0 1-.182-.106l-.031-.029-1.665-1.643-.196-.05-.161-.039c-.4-.097-.839-.194-1.3-.284a23.854 23.854 0 0 0-2.306-.345c-1.539-.146-2.696-.045-3.246.313-1.166.753-2.157 1.04-2.827.629-.803-.492-.735-1.593-.015-3.173.578-1.265 1.784-2.053 3.4-2.471.381-.1.766-.173 1.148-.227l.127-.018-.221-.12a126.5 126.5 0 0 1-1.484-.819l-.46-.258-.54-.309c-1.503-.866-2.551-1.53-3.04-1.96-.767-.694-.932-1.79-.191-2.42.736-.625 2.076-.527 3.871.286a.584.584 0 1 1-.484 1.064c-1.425-.645-2.332-.712-2.628-.46-.123.105-.08.394.212.658.422.37 1.509 1.055 3.046 1.935l.333.19.17.096c.658.371 1.353.754 2.057 1.135l.604.326.777.414.432.228c.553.288.328 1.116-.28 1.102l-.168-.009c-.899-.036-1.974.035-2.987.297-1.307.338-2.223.936-2.628 1.824-.285.625-.432 1.113-.452 1.444-.012.192.008.245.014.248.142.088.737-.081 1.517-.574l.059-.038c.84-.547 2.205-.667 3.995-.497.77.073 1.587.199 2.421.362.419.082.819.17 1.192.257l.158.038c.117.028.224.055.321.08l.215.056c.083.023.16.063.226.12l.031.028 1.677 1.655.021.007c.102.03.217.06.344.09l.078.016c1.076.233 2.222.235 3.277-.14 1.529-.545 2.681-1.826 3.317-4.081l.03-.108.013-.042c.646-1.835.431-3.527-.321-5.01a6.128 6.128 0 0 0-.479-.793l-.064-.089-.059-.077-.042-.052-.049-.058a42.031 42.031 0 0 0-.484-.599l-.016-.018a11.93 11.93 0 0 0-.858-.913c-.868-.83-1.947-1.626-3.31-2.377-1.751-.966-3.871-1.8-6.412-2.466l-.174-.046-.045-.005a7.879 7.879 0 0 0-.892-.057c-.064 0-.125.002-.182.005l-.05.002.035.032c.128.112.296.241.502.386l.063.043c.654.452 1.372.855 2.246 1.28a.583.583 0 1 1-.513 1.05c-.923-.448-1.69-.879-2.398-1.368l-.12-.084c-1.019-.72-1.444-1.287-1.138-1.904.241-.487.754-.607 1.549-.61z" fill="#2E186A"/><path fill-rule="evenodd" clip-rule="evenodd" d="M169.761 38.941c-1.25-.603-6.5-2.24-7.73-3.72-1.23-1.48.351-2.357 4.841-.292" fill="#fff"/><path fill-rule="evenodd" clip-rule="evenodd" d="M162.202 33.17c1.035-.188 2.737.226 4.915 1.228a.584.584 0 1 1-.49 1.061c-1.978-.91-3.475-1.274-4.215-1.139a.673.673 0 0 0-.185.056l-.012.007.001.003c.003.017.009.04.019.07l.01.023c.041.103.121.229.237.369.119.143.307.306.558.482.626.438 1.576.912 2.836 1.442l.321.133c.797.323 3.462 1.338 3.819 1.51a.584.584 0 0 1-.478 1.067l-.094-.042c-.497-.216-2.902-1.134-3.691-1.454l-.076-.031c-1.458-.601-2.554-1.14-3.309-1.668a4.004 4.004 0 0 1-.788-.693c-.876-1.055-.677-2.187.622-2.424z" fill="#2E186A"/><path fill-rule="evenodd" clip-rule="evenodd" d="M171.752 36.72c-.137-.175-8.745-2.727-8.159-3.954.468-.993 1.717-1.285 6.48.507l3.806 1.675" fill="#fff"/><path fill-rule="evenodd" clip-rule="evenodd" d="M163.063 32.517c.722-1.532 2.572-1.512 6.946.108l.271.1.029.013 3.806 1.675a.585.585 0 0 1-.44 1.083l-.032-.013-3.789-1.668-.324-.12c-3.489-1.29-4.865-1.395-5.319-.823l-.011.014.02.02c.039.037.09.08.151.127l.038.029c.322.238.839.519 1.521.83.478.218 1.029.447 1.648.687l.459.177c.562.212 1.101.407 1.796.651l1.678.585.186.068.107.04.058.024c.046.018.084.035.117.052.1.05.157.086.235.186a.584.584 0 0 1-.764.86l-.014-.009-.065-.026a6.17 6.17 0 0 0-.162-.061l-.796-.28-.865-.3a75.832 75.832 0 0 1-2.099-.763l-.299-.115a33.07 33.07 0 0 1-1.706-.713c-.751-.342-1.332-.658-1.733-.954-.608-.45-.913-.928-.648-1.484z" fill="#2E186A"/><path fill-rule="evenodd" clip-rule="evenodd" d="m260.524 119.338-75.968-.039-.547-53.124 75.968-.779.547 53.942z" fill="#fff"/><path fill-rule="evenodd" clip-rule="evenodd" d="m259.971 64.812-75.968.779a.585.585 0 0 0-.579.59l.546 53.124c.004.32.265.578.586.578l75.967.039a.585.585 0 0 0 .586-.59l-.546-53.942a.586.586 0 0 0-.592-.578zm-.574 1.174.535 52.767-74.797-.038-.534-51.962 74.796-.767z" fill="#2E186A"/><path fill-rule="evenodd" clip-rule="evenodd" d="M255.273 104.513h-63.554a.574.574 0 0 1-.585-.584c0-.332.254-.585.585-.585h63.554c.332 0 .586.253.586.585a.575.575 0 0 1-.586.584zM255.273 96.935h-63.554a.575.575 0 0 1-.585-.584c0-.332.254-.585.585-.585h63.554c.332 0 .586.253.586.585a.575.575 0 0 1-.586.584zM255.273 89.357h-63.554a.575.575 0 0 1-.585-.584c0-.331.254-.585.585-.585h63.554c.332 0 .586.254.586.585a.575.575 0 0 1-.586.584zM255.273 81.78h-63.554a.575.575 0 0 1-.585-.585c0-.331.254-.585.585-.585h63.554c.332 0 .586.254.586.585a.575.575 0 0 1-.586.584z" fill="#968BB4"/><path fill="#5D21D1" d="m226.742 76.426 8.9-.09.354 34.593-8.9.091z"/><path fill="#00AC45" d="m241.913 88.834 8.959-.091.227 22.186-8.959.091zM211.835 88.834l8.959-.091.227 22.186-8.959.091z"/><path fill-rule="evenodd" clip-rule="evenodd" d="m206.105 110.903-8.901.097-.136-10.636 8.9-.098.137 10.637z" fill="#00AC45"/><path fill-rule="evenodd" clip-rule="evenodd" d="M191.719 73.15c.312 0 .567.243.585.55l.001.034v36.682h62.968c.312 0 .567.243.585.55l.001.034a.584.584 0 0 1-.552.583l-.034.001h-63.554a.585.585 0 0 1-.584-.55l-.001-.034V73.734c0-.323.262-.585.585-.585z" fill="#2E186A"/><path fill-rule="evenodd" clip-rule="evenodd" d="M203.763 112.617a.584.584 0 0 1 .034 1.168l-.034.001h-5.232a.585.585 0 0 1-.034-1.168l.034-.001h5.232zM219.085 112.617a.585.585 0 0 1 .034 1.168l-.034.001h-5.231a.585.585 0 0 1-.035-1.168l.035-.001h5.231z" fill="#00AC45"/><path fill-rule="evenodd" clip-rule="evenodd" d="M234.114 112.617a.584.584 0 0 1 .035 1.168l-.035.001h-5.25a.585.585 0 0 1-.034-1.168l.034-.001h5.25z" fill="#5D21D1"/><path fill-rule="evenodd" clip-rule="evenodd" d="M249.164 112.617a.584.584 0 0 1 .034 1.168l-.034.001h-5.231a.585.585 0 0 1-.035-1.168l.035-.001h5.231z" fill="#00AC45"/><path fill-rule="evenodd" clip-rule="evenodd" d="M189.104 82.5a.575.575 0 0 1-.586-.585V81c0-.331.254-.585.586-.585.332 0 .585.254.585.585v.915a.586.586 0 0 1-.585.585zM189.104 89.805a.575.575 0 0 1-.586-.584v-.916c0-.331.254-.584.586-.584.332 0 .585.253.585.584v.916a.574.574 0 0 1-.585.584zM189.104 97.85a.575.575 0 0 1-.586-.584v-.915c0-.332.254-.585.586-.585.332 0 .585.253.585.585v.915a.586.586 0 0 1-.585.585zM189.104 105.429a.575.575 0 0 1-.586-.585v-.915c0-.332.254-.585.586-.585.332 0 .585.253.585.585v.915a.586.586 0 0 1-.585.585z" fill="#968BB4"/><path fill-rule="evenodd" clip-rule="evenodd" d="M270.088 96.214c4.204 0 7.612-4.212 7.612-9.409 0-5.196-3.408-9.409-7.612-9.409-4.204 0-7.612 4.213-7.612 9.41 0 5.196 3.408 9.408 7.612 9.408z" fill="#2E186A"/><path fill-rule="evenodd" clip-rule="evenodd" d="M252.013 88.072c-3.923.038-3.63-1.87-2.322-2.28 1.659-.526 8.666-.993 8.666-.993s-4.763-1.695-4.802-4.793c-.039-3.097 1.289-2.766 2.538-.857 1.249 1.91 7.319 2.806 7.319 2.806l2.343-.897s6.48.448 5.426 7.364c-.312 4.091-3.689 5.63-3.689 5.63-.996.506-4.685 2.805-13.292 1.403 0 0-3.846-1.091-.352-1.754a16.168 16.168 0 0 1 2.655-.272" fill="#fff"/><path fill-rule="evenodd" clip-rule="evenodd" d="m267.189 93.55.113-.056.069-.037c.113-.061.24-.137.378-.228a6.573 6.573 0 0 0 1.171-.99c.925-.989 1.528-2.227 1.668-3.752l.011-.131.003-.022c.453-2.974-.493-4.822-2.366-5.885a6.607 6.607 0 0 0-1.75-.675 6.413 6.413 0 0 0-.575-.11l-.077-.01-2.212.846a.586.586 0 0 1-.252.037l-.043-.004-.231-.037-.106-.018a30.403 30.403 0 0 1-.871-.162c-.902-.18-1.804-.4-2.65-.658l-.219-.068c-1.769-.563-3.027-1.224-3.612-2.07l-.035-.051c-.524-.8-1.016-1.212-1.183-1.19l-.003.003c-.012.01-.05.06-.108.218-.115.31-.177.814-.168 1.5.014 1.117.801 2.156 2.145 3.071a11.124 11.124 0 0 0 2.005 1.074l.193.077.07.026c.598.213.476 1.091-.158 1.134l-.621.044c-.243.017-.505.037-.781.059l-.701.056c-.816.067-1.622.14-2.385.216l-.329.033c-1.832.19-3.158.384-3.713.56-.367.115-.518.352-.449.495.171.352 1.027.658 2.591.642a.585.585 0 1 1 .011 1.169c-1.969.02-3.235-.433-3.656-1.302-.424-.875.172-1.813 1.15-2.119l.082-.025c.727-.211 2.18-.414 4.196-.616l.573-.056c.483-.046.979-.09 1.481-.133l.317-.026-.075-.045a11.064 11.064 0 0 1-.309-.196l-.152-.101c-1.627-1.108-2.636-2.44-2.656-4.023-.022-1.732.36-2.766 1.292-2.893.778-.105 1.566.555 2.321 1.709.392.598 1.562 1.2 3.23 1.71.804.247 1.67.457 2.536.63.304.061.585.113.838.156l.162.027 2.196-.84a.588.588 0 0 1 .208-.039l.042.001.077.007c.206.02.51.066.883.154a7.757 7.757 0 0 1 2.06.797c2.262 1.284 3.448 3.567 2.961 6.97l-.013.084-.008.097c-.159 1.762-.852 3.216-1.908 4.375l-.071.077c-.439.47-.909.857-1.381 1.168l-.112.073a5.232 5.232 0 0 1-.486.277l-.046.022-.475.248-.238.12c-.394.192-.802.368-1.257.534-2.884 1.053-6.657 1.371-11.676.553a.624.624 0 0 1-.066-.014l-.145-.044a7.374 7.374 0 0 1-.119-.038l-.045-.015a8.465 8.465 0 0 1-.672-.254 3.641 3.641 0 0 1-.798-.447c-.359-.282-.56-.633-.427-1.062.167-.537.775-.816 1.905-1.03.893-.17 1.81-.26 2.751-.283a.585.585 0 1 1 .027 1.169c-.879.02-1.732.104-2.559.262-.27.052-.493.106-.67.16l-.057.019.022.012c.065.033.136.067.212.101l.059.026c.182.078.379.152.578.218l.1.033.127.04.138.021c4.68.742 8.168.453 10.817-.49l.096-.035c.363-.132.692-.27 1.008-.42l.135-.066c.167-.081.545-.279.667-.343z" fill="#2E186A"/><path fill-rule="evenodd" clip-rule="evenodd" d="M258.103 88.15c-1.386.038-6.851-.546-8.569.291-1.717.838-.624 2.3 4.314 2.202" fill="#fff"/><path fill-rule="evenodd" clip-rule="evenodd" d="M249.277 87.916c.843-.41 2.315-.542 4.452-.508l.316.005c.458.01.933.028 1.498.053l2.089.098c.257.01.297.006.455.001a.585.585 0 1 1 .033 1.169l-.263.005c-.137 0-.349-.01-.935-.037l-1.3-.062a67.006 67.006 0 0 0-1.603-.058l-.308-.006c-1.943-.03-3.306.092-3.919.39-.162.08-.283.16-.362.236a.76.76 0 0 0-.044.046l-.017.023.007.011a.6.6 0 0 0 .119.106l.029.021c.625.424 2.142.692 4.313.65a.586.586 0 0 1 .023 1.168c-2.392.047-4.119-.258-4.993-.85-1.093-.74-.819-1.86.41-2.46z" fill="#2E186A"/><path fill-rule="evenodd" clip-rule="evenodd" d="M259.021 90.974c-.196.117-9.096-1.013-9.057.331.039 1.11 1.054 1.87 6.129 2.124h4.177" fill="#fff"/><path fill-rule="evenodd" clip-rule="evenodd" d="M251.311 90.118c.808-.08 1.884-.08 3.21-.018l.324.016c.436.022.89.05 1.38.086l.899.067 1.192.093c.195.015.34.025.448.03l.091.005.065.001.027-.004a.587.587 0 0 1 .557.25l.019.03a.584.584 0 0 1-.201.801.579.579 0 0 1-.255.085 2.204 2.204 0 0 1-.208.006l-.086-.003a11.86 11.86 0 0 1-.253-.014l-2.007-.155-.508-.036c-.44-.03-.851-.056-1.245-.076l-.293-.015c-1.229-.057-2.229-.058-2.961.007l-.08.007c-.369.036-.652.09-.83.154l-.025.01.003.011c.193.73 1.53 1.18 5.42 1.382l.116.006h4.16c.312 0 .567.244.584.55l.001.035a.584.584 0 0 1-.551.583l-.034.001H256.064l-.289-.016c-4.652-.257-6.336-.97-6.396-2.675-.014-.465.289-.776.747-.959.298-.119.691-.197 1.185-.245z" fill="#2E186A"/><path fill-rule="evenodd" clip-rule="evenodd" d="M155.18 77.084c3.728-1.46 2.498-2.785 1.035-2.59-1.835.233-8.706 2.532-8.706 2.532s3.631-3.078 2.089-5.416c-1.542-2.337-2.635-1.597-2.85.332-.215 1.928-5.778 4.655-5.778 4.655l-2.303.585s-4.802 3.876-.176 8.688c2.479 3.02 5.954 2.377 5.954 2.377 1.054-.156 5.016-.448 12.414-4.773 0 0 3.084-2.28-.566-1.442-.937.215-1.855.507-2.655.8" fill="#fff"/><path fill-rule="evenodd" clip-rule="evenodd" d="M147.521 69.612c.848-.23 1.713.384 2.566 1.677.355.538.507 1.136.473 1.768-.047.885-.446 1.782-1.087 2.673l-.039.053.033-.01c.466-.15.932-.297 1.391-.44l.66-.203.734-.223c1.846-.552 3.19-.904 3.885-.993 1.046-.139 2.047.317 2.092 1.225.046.913-.94 1.747-2.835 2.49a.584.584 0 1 1-.428-1.088c.827-.325 1.419-.65 1.776-.951.139-.118.232-.224.283-.311.028-.049.035-.075.034-.082-.002-.046-.308-.185-.77-.124l-.076.01c-.641.096-1.922.434-3.638.948l-.32.096-.594.182c-.753.231-1.53.477-2.298.725l-.579.188-1.089.358c-.601.201-1.041-.556-.59-.977l.116-.103.099-.092a9.89 9.89 0 0 0 .965-1.048c.662-.835 1.068-1.653 1.106-2.365a1.713 1.713 0 0 0-.282-1.063c-.338-.511-.649-.861-.917-1.051-.181-.13-.297-.159-.363-.14-.065.017-.151.098-.241.274-.113.218-.199.529-.248.909l-.01.082c-.064.571-.418 1.14-1.007 1.738-.535.543-1.263 1.106-2.139 1.682a29.04 29.04 0 0 1-2.029 1.21l-.203.11c-.132.072-.258.138-.377.2l-.312.159-.035.017a.548.548 0 0 1-.075.03l-.038.012-2.169.55-.023.021c-.042.038-.087.08-.134.127l-.048.048c-.235.237-.47.512-.69.821-.605.852-.97 1.789-.985 2.78-.019 1.281.545 2.6 1.848 3.955l.015.016.015.018a6.084 6.084 0 0 0 1.601 1.388 5.927 5.927 0 0 0 3.538.814l.084-.008.13-.015.062-.01c.076-.012.439-.06.537-.073.265-.038.515-.077.787-.127a21.008 21.008 0 0 0 2.416-.603c2.374-.735 5.112-1.951 8.28-3.79l.155-.09.119-.092.029-.023c.132-.106.265-.22.386-.332l.059-.056.02-.019-.008.001c-.179.025-.39.064-.633.119l-.083.018c-.832.19-1.704.457-2.584.778a.586.586 0 0 1-.402-1.098 22.9 22.9 0 0 1 2.724-.819l.157-.035c1.078-.235 1.707-.236 2.077.091.293.26.327.621.192.959-.076.189-.205.374-.379.57-.1.113-.215.229-.342.346-.108.101-.221.2-.336.294l-.114.094c-.092.074-.165.13-.209.162a.61.61 0 0 1-.052.034c-3.322 1.942-6.202 3.229-8.709 4.004-.934.289-1.77.493-2.551.636-.232.043-.448.078-.669.111l-.324.045-.366.05-.06.01a4.66 4.66 0 0 1-.145.018l-.044.005a7.062 7.062 0 0 1-4.34-.964 7.23 7.23 0 0 1-1.819-1.545l-.074-.089-.067-.07c-1.425-1.513-2.091-3.064-2.093-4.607l.001-.088c.019-1.254.469-2.408 1.201-3.439.259-.364.535-.688.813-.968l.082-.08c.132-.13.237-.223.308-.28a.582.582 0 0 1 .183-.1l.041-.011 2.242-.57.186-.094.171-.088a28.016 28.016 0 0 0 2.418-1.414c.813-.534 1.481-1.051 1.948-1.525.421-.428.65-.795.678-1.048.133-1.198.573-2.052 1.355-2.265z" fill="#2E186A"/><path fill-rule="evenodd" clip-rule="evenodd" d="M149.461 79.442c1.347-.487 6.207-3.02 8.256-3.04 2.05-.019 1.757 1.481-2.947 3.293" fill="#fff"/><path fill-rule="evenodd" clip-rule="evenodd" d="M157.712 75.818c.638-.006 1.138.113 1.46.4.437.387.438.956.09 1.47-.535.792-2.002 1.674-4.281 2.552a.586.586 0 0 1-.422-1.09l.208-.081c1.915-.756 3.131-1.49 3.505-2.006l.012-.018-.019-.005-.029-.007a2.193 2.193 0 0 0-.513-.046c-.713.007-1.954.386-3.626 1.071-.234.096-.476.198-.729.306l-.378.164c-.479.214-2.942 1.323-3.33 1.463a.585.585 0 0 1-.431-1.086l.104-.04c.558-.224 3.017-1.334 3.258-1.438l.315-.137c.258-.11.506-.215.746-.313l.233-.095c1.692-.682 2.953-1.056 3.827-1.064z" fill="#2E186A"/><path fill-rule="evenodd" clip-rule="evenodd" d="M150.027 81.935c.254 0 8.081-4.227 8.744-3.195.527.838-.039 1.812-4.704 3.935l-3.942 1.578" fill="#fff"/><path fill-rule="evenodd" clip-rule="evenodd" d="m157.064 78.223.137-.04c1.057-.297 1.712-.305 2.066.247.9 1.43-.379 2.667-4.689 4.654l-.268.123-.025.01-3.942 1.579a.584.584 0 0 1-.468-1.071l.032-.014 3.93-1.573.327-.15c1.947-.902 3.159-1.606 3.768-2.158l.035-.031.075-.072c.27-.263.338-.407.293-.554l-.003-.01h-.065c-.202.01-.498.071-.872.181l-.159.048c-.65.204-1.477.53-2.456.961l-.124.055c-.215.095-.436.195-.664.3l-.544.252c-.361.168-.704.332-1.155.55l-1.747.85c-.427.202-.378.16-.519.16a.586.586 0 0 1-.166-1.145l.03-.008.019-.008c.028-.012.063-.027.105-.047l.31-.145 1.607-.781a87.29 87.29 0 0 1 1.395-.66l.349-.16.505-.227.254-.112c1.047-.457 1.927-.797 2.629-1.004zM66.564 47.493c3.026-1.909 13.195-1.013 21.12 1.91l-3.202 6.117-16.161-2.553-1.757-5.474z" fill="#2E186A"/><path fill-rule="evenodd" clip-rule="evenodd" d="M68.75 52.773V36.545l14.269 8.591-.332 8.708-13.937-1.071z" fill="#fff"/><path fill-rule="evenodd" clip-rule="evenodd" d="M68.165 36.545v16.228c0 .305.235.559.54.582l13.937 1.072a.585.585 0 0 0 .63-.56l.332-8.708a.584.584 0 0 0-.283-.523l-14.268-8.59a.586.586 0 0 0-.888.5zm1.17 1.035L82.42 45.46l-.295 7.755-12.79-.983v-14.65z" fill="#2E186A"/><path fill-rule="evenodd" clip-rule="evenodd" d="M87.644 19.169c-5.816-4.013-11.047-5.494-19.245 4.987l-1.113 6.896c-3.435-1.032-5.25.643-4.509 3.643.8 3.234 2.674 4.675 5.797 3.837 0 0-.175-.409 0 0 1.504 3.39 4.314 7.267 9.565 8.416 8.217 1.773 10.13-3.292 11.047-5.299.918-2.006 4.275-18.467-1.542-22.48z" fill="#fff"/><path fill-rule="evenodd" clip-rule="evenodd" d="M78.832 15.649c-3.418.49-6.907 3.05-10.895 8.147l-.025.034a.585.585 0 0 0-.091.233l-1.01 6.262-.021-.004c-3.39-.726-5.4 1.204-4.581 4.514l.027.107c.86 3.337 2.882 4.867 5.905 4.29l.1-.02.044.092c2.015 4.231 5.162 7.215 9.728 8.215 5.1 1.1 8.35-.18 10.363-3.093.302-.438.566-.895.819-1.404l.082-.167.123-.26.32-.703c.668-1.463 1.61-6.501 1.806-10.703l.015-.362c.225-5.882-.818-10.245-3.563-12.139l-.247-.169c-3.431-2.328-6.052-3.278-8.9-2.87zm8.48 4c2.332 1.61 3.29 5.714 3.051 11.315l-.007.17c-.188 4.026-1.087 8.87-1.684 10.233l-.251.556-.082.178a16.17 16.17 0 0 1-.193.401c-.23.462-.466.873-.734 1.26-1.744 2.524-4.514 3.615-9.15 2.615-4.341-.95-7.288-3.878-9.152-8.081a.586.586 0 0 0-.684-.329l-.094.025c-2.65.677-4.245-.444-4.986-3.437-.643-2.602.818-3.831 3.771-2.944l.034.01a.586.586 0 0 0 .713-.476l1.089-6.747.136-.172c3.72-4.688 6.907-6.99 9.909-7.42 2.556-.366 4.98.544 8.314 2.844z" fill="#2E186A"/><path fill-rule="evenodd" clip-rule="evenodd" d="M84.846 31.212c.31-.035.59.178.643.48l.005.035.702 6.194a.585.585 0 0 1-.562.65H85.6l-2.303-.058a.585.585 0 0 1-.005-1.169h.034l1.631.041-.627-5.527a.584.584 0 0 1 .482-.642l.034-.005zM88.113 32.727c.377 0 .683-.48.683-1.071 0-.592-.306-1.072-.683-1.072-.377 0-.683.48-.683 1.072 0 .592.306 1.071.683 1.071zM81.477 32.61c.377 0 .683-.48.683-1.071 0-.592-.306-1.071-.683-1.071-.378 0-.684.48-.684 1.071 0 .592.306 1.071.684 1.071z" fill="#2E186A"/><path fill-rule="evenodd" clip-rule="evenodd" d="M78.035 25.787a3.69 3.69 0 0 1 2.787-.67.585.585 0 1 1-.174 1.156 2.527 2.527 0 0 0-1.925.46 2.68 2.68 0 0 0-.387.34l-.058.064a1.413 1.413 0 0 0-.038.046l-.013.018a.586.586 0 0 1-.957-.675c.041-.058.11-.144.209-.249.156-.168.341-.335.556-.49z" fill="#fff"/><path fill-rule="evenodd" clip-rule="evenodd" d="M87.198 24.964a3.306 3.306 0 0 1 1.299.044c.743.185 1.31.666 1.56 1.467a.586.586 0 0 1-1.107.381l-.01-.032c-.121-.388-.36-.59-.727-.682a2.181 2.181 0 0 0-.838-.022l-.053.008-.08.016a.586.586 0 0 1-.289-1.132l.053-.013c.05-.01.115-.023.192-.035zM80.27 38.676c.308-.05.599.15.666.45l.012.064a2.173 2.173 0 0 0 .252.64c.275.46.655.67 1.267.562a.586.586 0 0 1 .205 1.151c-1.131.2-1.969-.264-2.478-1.115a3.327 3.327 0 0 1-.322-.73l-.028-.096a2.474 2.474 0 0 1-.058-.255.585.585 0 0 1 .484-.67zM57.351 11.747C53.662 4.539 47.71 3.916 40.877 5.26 34.045 6.604 30.2 15.818 29.967 16.656c-2.792 9.935.897 20.571 9.114 26.844.918.701 1.816 1.403 2.694 2.084 4.821 3.78-5.875 6.994-5.875 6.994 20.495 1.636 16.025-18.818 15.595-20.65 6.559-2.454 9.291-13.46 5.856-20.181z" fill="#2E186A"/><path fill-rule="evenodd" clip-rule="evenodd" d="M68.399 26.046c-.644 1.675-2.538 2.493-4.216 1.85L52.315 23.28c-1.678-.643-2.498-2.532-1.854-4.207.644-1.676 2.537-2.494 4.216-1.851l11.867 4.617c1.68.643 2.499 2.532 1.855 4.207z" fill="#00AC45"/><path fill-rule="evenodd" clip-rule="evenodd" d="M93.403 26.22c-.079-5.025-1.289-9.408-4.314-12.31-.41-.488-.976-.955-1.698-1.345-2.48-1.597-5.836-2.455-10.306-2.299a.838.838 0 0 0-.273.078c-.703.059-1.406.176-2.089.312a8.99 8.99 0 0 0-1.113.253c-1.268.331-2.478.799-3.591 1.305-10.013 4.306-13.937 12.059-9.467 22.754 2.303 5.512 5.31 7.285 8.198 7.305v-3.35c-.254-.527-.663-.332-.663-.332-3.123.838-4.51-.662-5.31-3.877-.39-1.558-.078-2.766.781-3.409l.059-.058c.039-.02.078-.04.117-.078.02-.02.039-.02.078-.04l.117-.058c.02-.019.04-.019.078-.039.04-.019.078-.038.137-.058.02 0 .039-.02.058-.02.059-.019.098-.038.157-.058.019 0 .038 0 .038-.02a3.77 3.77 0 0 1 .86-.136H65.53a.95.95 0 0 1 .234.02h.039c.078 0 .156.02.234.02h.04c.37.038.76.136 1.19.252.273.078.078.195.351.312l.722-.058c.254 0 .508-.02.762-.059 6.324-.76 16.122-5.26 19.636-11.065 2.459 2.98 2.732 8.864 2.283 13.831 1.523-2.26 2.42-4.909 2.382-7.772z" fill="#2E186A"/><path fill-rule="evenodd" clip-rule="evenodd" d="M78.542 24.482a3.69 3.69 0 0 1 2.787-.67.584.584 0 1 1-.173 1.156 2.527 2.527 0 0 0-1.926.46 2.68 2.68 0 0 0-.386.34l-.058.064a1.532 1.532 0 0 0-.038.046l-.014.018a.586.586 0 0 1-.956-.675 2.54 2.54 0 0 1 .208-.25c.157-.167.342-.334.556-.49z" fill="#fff"/><path fill-rule="evenodd" clip-rule="evenodd" d="M142.727 86.377c0-7.831-.878-15.156-14.464-13.89-.429.078-.819.156-1.19.253l-15.83 3.39-12.297-17.688a9.643 9.643 0 0 0-7.554-4.87l-4.08-.351.371-3.838s-.566 1.383-5.055 2.22c-6.07 1.13-16.064-4.129-16.064-4.129v6.02c0 .078-7.515.448-10.97 2.61-3.454 2.143-4.918 6.35-7.358 12.234-2.44 5.902-10.111 26.824-10.287 28.208-.175 1.402-1.873 9.623 2.635 14.493 3.826 4.13 11.77 11.026 20.007 8.24l39.975-.584c-2.518-6.078-3.377-13.987-3.552-21.507.878.448 1.815.877 2.83 1.247 36.461 8.766 39.428-1.247 39.428-1.247 2.108-2.552 3.455-6.448 3.455-10.811z" fill="#5D21D1"/><path fill-rule="evenodd" clip-rule="evenodd" d="m63.897 70.208.035.001a.585.585 0 0 1 .543.59v.035L63.4 85.814a.586.586 0 0 1-.828.49c-2.94-1.338-5.727-.996-8.214.393-.483.27-.911.557-1.28.845a7.72 7.72 0 0 0-.284.23l-.048.042a3.251 3.251 0 0 0-.102.093.586.586 0 0 1-.828-.013.584.584 0 0 1 .012-.826l.044-.042c.104-.096.267-.236.485-.406.415-.322.893-.644 1.429-.943 2.543-1.42 5.401-1.868 8.401-.79l.102.037 1.016-14.174a.585.585 0 0 1 .591-.542z" fill="#fff"/><path fill-rule="evenodd" clip-rule="evenodd" d="M67.645 92.462v-.013c.013-.15.003-.37-.05-.646a4.759 4.759 0 0 0-.515-1.385c-.748-1.372-2.166-2.753-4.432-4.067l-.122-.071a.584.584 0 0 1 .551-1.03l.031.016.13.075c2.398 1.391 3.958 2.895 4.824 4.434l.046.084c.584 1.072.76 1.998.705 2.684l-.005.056a.585.585 0 1 1-1.163-.137zM93.786 64.938a.586.586 0 0 1 .818-.133l.037.027c.04.032.094.075.16.13l.034.03c.165.143.347.316.542.523.548.58 1.093 1.304 1.599 2.183 1.151 2 1.936 4.5 2.194 7.542.317 3.734-.182 8.082-1.646 13.085l-.036.122.812 11.349a.585.585 0 0 1-.508.621l-.034.004a.586.586 0 0 1-.622-.508l-.004-.034-.82-11.454a.584.584 0 0 1 .023-.208c1.475-4.963 1.977-9.24 1.668-12.879-.243-2.872-.977-5.206-2.042-7.058-.46-.797-.95-1.449-1.436-1.963a6.589 6.589 0 0 0-.405-.397l-.1-.086a2.913 2.913 0 0 0-.07-.057l-.03-.024a.584.584 0 0 1-.134-.816z" fill="#fff"/><path fill-rule="evenodd" clip-rule="evenodd" d="M78.392 97.266c-1.522-4.734-6.577-5.123-6.577-5.123s-2.499-.585-5.388-.721c-.976 1.266-3.474 3.974-5.309 9.351l.976 1.324s3.123 1.286 4.548 1.851c1.815.721 3.709.779 5.368-.429.058-.039.136-.097.195-.136l1.074-5.747c-.703-1.013-.41-2.376 1.23-1.578 1.658.8.331 2.864 2.498 3.04 2.186.194 1.385-1.832 1.385-1.832z" fill="#fff"/><path fill-rule="evenodd" clip-rule="evenodd" d="M66.455 90.838a.586.586 0 0 0-.492.228l-.178.227-.452.564c-.319.4-.584.743-.86 1.12a26.288 26.288 0 0 0-2.08 3.33 29.88 29.88 0 0 0-1.829 4.277.584.584 0 0 0 .083.535l.976 1.325a.584.584 0 0 0 .211.177l.095.04 1.52.624 2.014.82c.379.153.703.283.963.386l.098.039c2.093.804 4.073.7 5.752-.482l.059-.042.195-.137a.583.583 0 0 0 .25-.379l1.074-5.746a.583.583 0 0 0-.094-.44c-.237-.342-.303-.716-.225-.868.011-.02.017-.025.065-.03.133-.018.354.033.651.178.37.177.52.41.646.919l.051.222.013.06c.13.59.223.868.466 1.18.331.423.834.658 1.532.715 1.3.116 2.053-.46 2.151-1.433.03-.298-.004-.6-.078-.893l-.013-.048-.025-.088a2.476 2.476 0 0 0-.024-.076l-.025-.07.005.016c-.607-1.887-1.773-3.277-3.325-4.231a9.317 9.317 0 0 0-2.57-1.078 8.857 8.857 0 0 0-.85-.176l-.145-.02a6.341 6.341 0 0 0-.08-.01l-.073-.009-.112-.024-.34-.072-.078-.015c-.449-.09-.95-.179-1.492-.262a32.951 32.951 0 0 0-3.43-.353zm.245 1.184.3.019a33.768 33.768 0 0 1 4.002.53l.29.057.195.041.194.043c.02.004.04.008.059.01l.086.009c.04.005.093.011.16.021l.04.006c.222.034.47.084.738.153a8.16 8.16 0 0 1 2.247.941c1.324.814 2.307 1.985 2.824 3.593l.022.06c.01.03.024.076.04.136.043.172.063.345.048.488-.031.307-.194.44-.83.39l-.056-.004c-.629-.05-.765-.174-.92-.83l-.087-.39c-.201-.86-.53-1.398-1.29-1.763-1.004-.49-1.881-.378-2.267.368l-.025.05c-.239.515-.15 1.19.181 1.785l.01.017-.988 5.289-.008.006c-1.344.979-2.937 1.075-4.714.394l-.092-.036c-.238-.094-.531-.212-.872-.349l-1.093-.444-1.258-.514-1.167-.479-.697-.945.074-.207c.47-1.306 1-2.505 1.584-3.616a25.105 25.105 0 0 1 1.99-3.185c.205-.281.406-.544.63-.83l.232-.293.418-.522z" fill="#2E186A"/><path opacity=".5" fill-rule="evenodd" clip-rule="evenodd" d="M162.695 76.442c-24.379 19.207-39.233 7.149-50.554 8.863-11.321 1.714-13.058 7.325-23.286 11.338-6.324 2.474-16.474 2.123-20.359 1.5v16.578h94.199v-38.28z" fill="#fff"/><path fill-rule="evenodd" clip-rule="evenodd" d="M167.379 113.494a.584.584 0 0 1 .035 1.167l-.035.001H68.497a.585.585 0 0 1-.035-1.167l.034-.001h98.883zM82.296 97.714c.312 0 .567.244.585.55V99.467a.585.585 0 0 1-1.17.035v-1.204c0-.322.262-.584.585-.584zM81.71 102.156v2.688a.585.585 0 0 0 1.172 0v-2.688a.585.585 0 0 0-1.171 0zm0 5.376v2.687a.585.585 0 0 0 1.172 0v-2.687a.585.585 0 0 0-1.171 0z" fill="#00AC45"/><path fill-rule="evenodd" clip-rule="evenodd" d="M82.296 112.325c.312 0 .567.243.585.55v1.203a.585.585 0 0 1-1.17.034v-1.203c0-.323.262-.584.585-.584zM112.141 84.974c.312 0 .567.243.584.55l.001.034v1.17a.585.585 0 0 1-1.17.034l-.001-.035v-1.169c0-.322.262-.584.586-.584zM111.555 89.104v2.38a.585.585 0 0 0 1.171 0v-2.38a.585.585 0 0 0-1.171 0zm0 4.76v2.381a.585.585 0 0 0 1.171 0v-2.38a.585.585 0 0 0-1.171 0zm0 4.762v2.38a.584.584 0 0 0 1.171 0v-2.38a.585.585 0 0 0-1.171 0zm0 4.76v2.381a.584.584 0 0 0 1.171 0v-2.381a.585.585 0 0 0-1.171 0zm0 4.761v2.381a.585.585 0 0 0 1.171 0v-2.381a.584.584 0 0 0-1.171 0zM112.141 112.325c.312 0 .567.243.584.55l.001.034v1.169a.584.584 0 0 1-1.17.034l-.001-.034v-1.169c0-.323.262-.584.586-.584zM141.341 86.22c.312 0 .567.244.585.55l.001.035v1.169a.585.585 0 0 1-1.17.034l-.001-.034v-1.169c0-.323.262-.584.585-.584zM140.756 90.234V92.5a.585.585 0 0 0 1.171 0v-2.267a.585.585 0 0 0-1.171 0zm0 4.534v2.267a.585.585 0 0 0 1.171 0v-2.267a.585.585 0 0 0-1.171 0zm0 4.535v2.267a.584.584 0 0 0 1.171 0v-2.267a.585.585 0 0 0-1.171 0zm0 4.534v2.267a.585.585 0 0 0 1.171 0v-2.267a.584.584 0 0 0-1.171 0zm0 4.534v2.268a.585.585 0 0 0 1.171 0v-2.268a.585.585 0 0 0-1.171 0zM141.341 112.325c.312 0 .567.243.585.55l.001.034v1.169a.584.584 0 0 1-1.17.034l-.001-.034v-1.169c0-.323.262-.584.585-.584z" fill="#00AC45"/><path fill-rule="evenodd" clip-rule="evenodd" d="M162.211 75.81a.781.781 0 0 1 1.096.129.778.778 0 0 1-.128 1.094c-7.895 6.227-15.26 9.595-22.555 10.75-2.946.468-5.848.572-8.878.374l-.284-.019c-2.369-.169-4.489-.471-7.725-1.045l-2.584-.46c-2.094-.369-2.478-.42-3.639-.553-2.048-.237-3.726-.255-5.256-.024-4.908.743-7.864 2.045-11.999 4.864l-.721.497-1.259.877a81.27 81.27 0 0 1-1.782 1.21c-2.411 1.582-4.654 2.784-7.355 3.844-5.5 2.169-11.374 2.465-16.91 1.544a.78.78 0 1 1 .258-1.537c5.278.878 10.874.596 16.079-1.457 2.516-.987 4.613-2.1 6.858-3.559l.211-.137c.379-.249.756-.503 1.184-.797l2.256-1.566.3-.206c4.314-2.94 7.477-4.335 12.646-5.118 1.633-.247 3.385-.236 5.473-.006l.668.078c.781.093 1.301.17 2.7.413l3.5.621c2.988.525 4.993.805 7.208.963 3.019.215 5.892.123 8.806-.34 7.021-1.112 14.14-4.367 21.832-10.433z" fill="#A1F7C4"/><path fill-rule="evenodd" clip-rule="evenodd" d="M141.341 88.11c.722 0 1.308-.584 1.308-1.305 0-.72-.586-1.305-1.308-1.305-.722 0-1.308.584-1.308 1.305s.586 1.305 1.308 1.305zM112.141 86.747c.722 0 1.308-.585 1.308-1.305 0-.721-.586-1.306-1.308-1.306a1.307 1.307 0 1 0 0 2.61zM82.296 99.604c.723 0 1.308-.584 1.308-1.305s-.585-1.306-1.308-1.306a1.306 1.306 0 1 0 0 2.61z" fill="#00AC45"/><path fill-rule="evenodd" clip-rule="evenodd" d="M69.238 98.669s4.568 4.48 6.305 3.506c1.737-.974 2.635-1.792 2.635-2.922 0-1.13-1.815-1.87-2.713 0 0 0-3.123-1.734-3.436-2.883" fill="#fff"/><path fill-rule="evenodd" clip-rule="evenodd" d="M71.876 95.806a.586.586 0 0 1 .709.378l.01.033c.039.145.218.388.517.675.255.245.583.51.965.784.313.226.647.447.984.657l.201.124.026-.034c.506-.663 1.196-.975 1.91-.88l.055.008c.852.14 1.51.852 1.51 1.702 0 1.341-.895 2.289-2.933 3.432-.857.48-2 .144-3.418-.734a16.793 16.793 0 0 1-1.424-.998 26.453 26.453 0 0 1-1.53-1.28l-.164-.15a27.978 27.978 0 0 1-.153-.14l-.24-.226-.073-.071a.584.584 0 0 1-.008-.827.587.587 0 0 1 .8-.033l.029.026.155.149.135.126a26.798 26.798 0 0 0 1.766 1.502c.46.356.905.669 1.324.929 1.073.664 1.881.902 2.227.708l.167-.095c1.576-.904 2.17-1.558 2.17-2.318 0-.256-.225-.498-.53-.548-.374-.061-.769.173-1.07.8a.586.586 0 0 1-.813.259l-.158-.09-.153-.09a19.554 19.554 0 0 1-1.478-.96 10.2 10.2 0 0 1-1.09-.889c-.44-.422-.729-.814-.837-1.212a.584.584 0 0 1 .412-.717z" fill="#2E186A"/><path fill-rule="evenodd" clip-rule="evenodd" d="M66.662 100.13s4.118 4.071 5.992 3.565c0 0 1.6-.448 1.874-1.422" fill="#fff"/><path fill-rule="evenodd" clip-rule="evenodd" d="M66.246 99.719a.586.586 0 0 1 .828-.004l.1.097.052.05a25.276 25.276 0 0 0 1.87 1.611c.46.358.905.673 1.325.932.939.58 1.683.833 2.075.727l.057-.018a3.862 3.862 0 0 0 .76-.338c.343-.2.566-.42.64-.627l.01-.034a.585.585 0 0 1 1.129.315c-.16.567-.588 1.004-1.185 1.354a5.031 5.031 0 0 1-1.1.475c-.808.218-1.805-.121-3.003-.861a16.503 16.503 0 0 1-1.428-1.003c-.52-.404-1.03-.836-1.507-1.269l-.161-.147-.15-.14-.174-.164-.135-.13a.584.584 0 0 1-.003-.826z" fill="#2E186A"/><path fill-rule="evenodd" clip-rule="evenodd" d="M61.411 101.162s4.275 5.63 5.875 6.059c1.6.409 1.152-1.617-1.952-5.65" fill="#fff"/><path fill-rule="evenodd" clip-rule="evenodd" d="M61.057 100.697a.586.586 0 0 1 .797.084l.221.285a59.639 59.639 0 0 0 2.265 2.754c.253.287.498.56.736.815l.126.135c1.028 1.091 1.846 1.782 2.23 1.885.055.014.103.023.143.028l.03.003a1.581 1.581 0 0 0-.073-.395l-.017-.055c-.289-.925-1.195-2.424-2.645-4.309a.586.586 0 0 1 .929-.712l.167.219c1.431 1.884 2.34 3.407 2.667 4.454.422 1.348-.187 2.232-1.498 1.897-.708-.189-1.664-1.007-2.918-2.355a39.816 39.816 0 0 1-.758-.841 59.921 59.921 0 0 1-1.762-2.112l-.168-.211a38.053 38.053 0 0 1-.159-.202l-.426-.549a.583.583 0 0 1 .113-.818zM310.238 118.656a.682.682 0 0 1 .038 1.362l-.038.001H1.118a.682.682 0 0 1-.038-1.362l.037-.001h309.121z" fill="#2E186A"/></svg>