<svg id="Group_2" data-name="Group 2" xmlns="http://www.w3.org/2000/svg" xmlns:xlink="http://www.w3.org/1999/xlink" width="141.161" height="44.862" viewBox="0 0 141.161 44.862">
  <defs>
    <clipPath id="clip-path">
      <rect id="Rectangle_4" data-name="Rectangle 4" width="141.161" height="44.862" fill="#707070"/>
    </clipPath>
  </defs>
  <g id="Group_1" data-name="Group 1" clip-path="url(#clip-path)">
    <path id="Path_1" data-name="Path 1" d="M3.838,33.822c.065,0,.093.028.114.1l1.029,3.652c.007.035.021.049.051.049h.035c.014,0,.035-.014.049-.049L6.1,34.293a.551.551,0,0,1,.6-.471h.844a.574.574,0,0,1,.643.471l1.008,3.281c.014.035.035.049.057.049h.037c.021,0,.042-.014.057-.049l.993-3.652a.111.111,0,0,1,.121-.1h1.157c.086,0,.093.086.072.193L10.4,38.188c-.158.507-.329.636-.629.636h-1c-.315,0-.471-.13-.621-.636L7.2,35.072c-.007-.035-.014-.049-.042-.049H7.132c-.028,0-.042.014-.049.049l-.958,3.116c-.157.507-.306.636-.621.636H4.531c-.364,0-.529-.114-.679-.636L2.63,34.015c-.035-.107-.021-.193.058-.193Z" transform="translate(0.466 6.038)" fill="#707070"/>
    <path id="Path_2" data-name="Path 2" d="M15.719,33.822a.164.164,0,0,1,.186.186v.8c0,.128-.058.193-.186.193h-3.13c-.614,0-.779.157-.779.785h3.865c.13,0,.186.058.186.186v.658c0,.128-.057.186-.186.186H11.81c0,.671.157.836.779.836h3.13c.128,0,.186.058.186.186v.8a.164.164,0,0,1-.186.186H12.567c-1.465,0-2.022-.515-2.022-1.887V35.709c0-1.373.557-1.887,2.022-1.887Z" transform="translate(1.882 6.038)" fill="#707070"/>
    <path id="Path_3" data-name="Path 3" d="M20.034,33.822c.992,0,1.373.394,1.373,1.194v.343a1.049,1.049,0,0,1-.422.885,1.012,1.012,0,0,1,.456.909v.407a1.1,1.1,0,0,1-1.257,1.266H15.866a.19.19,0,0,1-.213-.214V34.036a.19.19,0,0,1,.213-.214Zm-3.079,2.015h2.765c.321,0,.435-.107.435-.322v-.206c0-.223-.12-.322-.4-.322H17.04c-.059,0-.086.035-.086.1Zm0,.915v.807c0,.072.027.1.086.1h2.721c.278,0,.4-.1.4-.329V37.1c0-.229-.123-.35-.443-.35Z" transform="translate(2.794 6.038)" fill="#707070"/>
    <path id="Path_4" data-name="Path 4" d="M26.132,33.822a.164.164,0,0,1,.186.186v.8c0,.128-.058.193-.186.193H22.638c-.193,0-.279.107-.279.3v.186c0,.2.086.3.272.3H25.2a1.164,1.164,0,0,1,1.3,1.273v.572c0,.714-.429,1.194-1.322,1.194h-3.93a.166.166,0,0,1-.185-.186v-.8a.163.163,0,0,1,.185-.186h3.673c.2,0,.285-.114.285-.306v-.23c0-.2-.085-.3-.278-.3H22.366a1.166,1.166,0,0,1-1.307-1.273v-.521c0-.722.436-1.2,1.321-1.2Z" transform="translate(3.759 6.038)" fill="#707070"/>
    <rect id="Rectangle_2" data-name="Rectangle 2" width="1.301" height="5.003" rx="0.158" transform="translate(30.916 39.86)" fill="#707070"/>
    <path id="Path_5" data-name="Path 5" d="M33.513,33.822a.167.167,0,0,1,.186.186v.836a.167.167,0,0,1-.186.186H31.362v3.609a.167.167,0,0,1-.186.186h-.922a.169.169,0,0,1-.193-.186V35.03H27.917a.163.163,0,0,1-.185-.186v-.836a.163.163,0,0,1,.185-.186Z" transform="translate(4.95 6.038)" fill="#707070"/>
    <path id="Path_6" data-name="Path 6" d="M38.19,33.822a.164.164,0,0,1,.186.186v.8c0,.128-.058.193-.186.193H35.06c-.614,0-.779.157-.779.785h3.865c.13,0,.186.058.186.186v.658c0,.128-.057.186-.186.186H34.281c0,.671.157.836.779.836h3.13c.128,0,.186.058.186.186v.8a.164.164,0,0,1-.186.186H35.038c-1.465,0-2.022-.515-2.022-1.887V35.709c0-1.373.557-1.887,2.022-1.887Z" transform="translate(5.894 6.038)" fill="#707070"/>
    <path id="Path_7" data-name="Path 7" d="M44.134,33.822c1.122,0,1.565.514,1.565,1.479v.436a1.245,1.245,0,0,1-1.008,1.421l1.15,1.459a.125.125,0,0,1-.107.206h-1.1a.235.235,0,0,1-.229-.1L43.355,37.3h-2v1.343a.165.165,0,0,1-.185.185H40.24a.165.165,0,0,1-.186-.185v-4.6a.189.189,0,0,1,.214-.214Zm-2.78,2.451h2.523c.392,0,.521-.158.521-.494v-.306c0-.336-.128-.494-.521-.494H41.44c-.057,0-.086.029-.086.093Z" transform="translate(7.15 6.038)" fill="#707070"/>
    <path id="Path_8" data-name="Path 8" d="M48.732,33.822a.939.939,0,0,1,.951.629l2.229,4.18c.065.114.042.193-.1.193H50.726a.181.181,0,0,1-.186-.1l-.436-.837H47l-.428.837a.176.176,0,0,1-.186.1H45.273c-.136,0-.157-.079-.1-.193l2.194-4.18c.264-.508.528-.629.865-.629ZM47.5,36.91H49.6l-.957-1.837a.083.083,0,0,0-.078-.049h-.037a.1.1,0,0,0-.086.049Z" transform="translate(8.058 6.038)" fill="#707070"/>
    <path id="Path_9" data-name="Path 9" d="M52.744,33.822a.874.874,0,0,1,.951.494L55.9,37.538a.1.1,0,0,0,.086.049h.057c.044,0,.058-.021.058-.071V34.008a.164.164,0,0,1,.186-.186h.893a.166.166,0,0,1,.185.186v3.959c0,.679-.243.858-.735.858H55.9a.875.875,0,0,1-.95-.494L52.73,35.109a.091.091,0,0,0-.085-.051h-.058c-.035,0-.058.021-.058.072v3.508a.163.163,0,0,1-.185.186h-.893a.167.167,0,0,1-.186-.186V34.68c0-.679.236-.858.729-.858Z" transform="translate(9.151 6.038)" fill="#707070"/>
    <path id="Path_10" data-name="Path 10" d="M58.217,33.822a.166.166,0,0,1,.185.186v1.8h.872c.351,0,.466-.037.629-.265l1.191-1.622c.058-.072.093-.1.237-.1H62.4a.119.119,0,0,1,.107.193l-1.379,1.794a3.283,3.283,0,0,1-.377.443,2.482,2.482,0,0,1,.513.514L62.7,38.61a.133.133,0,0,1-.114.214H61.5c-.136,0-.177-.029-.229-.1L60,37.045c-.157-.207-.279-.264-.628-.264H58.4v1.857a.166.166,0,0,1-.185.186h-.93a.167.167,0,0,1-.186-.186v-4.63a.167.167,0,0,1,.186-.186Z" transform="translate(10.193 6.038)" fill="#707070"/>
    <rect id="Rectangle_3" data-name="Rectangle 3" width="1.301" height="5.003" rx="0.158" transform="translate(73.337 39.86)" fill="#707070"/>
    <path id="Path_11" data-name="Path 11" d="M65.467,33.822a.874.874,0,0,1,.951.494l2.207,3.222a.1.1,0,0,0,.086.049h.057c.044,0,.058-.021.058-.071V34.008a.164.164,0,0,1,.186-.186h.893a.166.166,0,0,1,.185.186v3.959c0,.679-.243.858-.735.858h-.729a.875.875,0,0,1-.95-.494l-2.223-3.222a.091.091,0,0,0-.085-.051H65.31c-.035,0-.058.021-.058.072v3.508a.163.163,0,0,1-.185.186h-.893a.167.167,0,0,1-.186-.186V34.68c0-.679.236-.858.729-.858Z" transform="translate(11.422 6.038)" fill="#707070"/>
    <path id="Path_12" data-name="Path 12" d="M75.428,33.822a.168.168,0,0,1,.192.186v.836a.168.168,0,0,1-.192.186H71.849c-.622,0-.773.164-.773.807v.993c0,.643.151.807.773.807h2.272c.213,0,.292-.086.292-.322v-.422c0-.071-.028-.1-.093-.1H72.412a.163.163,0,0,1-.186-.185v-.643a.163.163,0,0,1,.186-.186H75.4a.19.19,0,0,1,.213.216v1.736c0,.8-.322,1.094-.9,1.094H71.8c-1.466,0-2.023-.515-2.023-1.887V35.709c0-1.373.557-1.887,2.023-1.887Z" transform="translate(12.455 6.038)" fill="#707070"/>
    <path id="Path_13" data-name="Path 13" d="M82.4,33.822a.164.164,0,0,1,.185.186v.8c0,.128-.058.193-.185.193H79.269c-.614,0-.778.157-.778.785h3.865c.128,0,.185.058.185.186v.658c0,.128-.057.186-.185.186H78.491c0,.671.156.836.778.836H82.4c.127,0,.185.058.185.186v.8a.164.164,0,0,1-.185.186H79.247c-1.465,0-2.022-.515-2.022-1.887V35.709c0-1.373.557-1.887,2.022-1.887Z" transform="translate(13.785 6.038)" fill="#707070"/>
    <path id="Path_14" data-name="Path 14" d="M87.976,33.822c.15,0,.15.136.079.214l-2.08,2.2,2.2,2.374c.072.079.072.214-.079.214H86.933a.294.294,0,0,1-.272-.123L85.109,37l-1.572,1.7a.3.3,0,0,1-.271.123h-1.1c-.15,0-.157-.144-.085-.214l2.243-2.423-2-2.151c-.071-.079-.071-.214.08-.214h1.164a.3.3,0,0,1,.271.121l1.372,1.5,1.394-1.5a.281.281,0,0,1,.264-.121Z" transform="translate(14.644 6.038)" fill="#707070"/>
    <path id="Path_15" data-name="Path 15" d="M91.723,33.822c1.122,0,1.565.514,1.565,1.479v.579c0,.965-.443,1.479-1.565,1.479h-2.78v1.28a.166.166,0,0,1-.186.185h-.929a.166.166,0,0,1-.185-.185v-4.6a.189.189,0,0,1,.213-.214Zm-2.78,2.422h2.522c.394,0,.522-.157.522-.5v-.265c0-.336-.128-.493-.522-.493H89.029a.076.076,0,0,0-.086.086Z" transform="translate(15.645 6.038)" fill="#707070"/>
    <path id="Path_16" data-name="Path 16" d="M98.009,33.822a.164.164,0,0,1,.186.186v.8c0,.128-.058.193-.186.193h-3.13c-.614,0-.778.157-.778.785h3.866c.128,0,.185.058.185.186v.658c0,.128-.057.186-.185.186H94.1c0,.671.157.836.778.836h3.13c.128,0,.186.058.186.186v.8a.164.164,0,0,1-.186.186H94.857c-1.465,0-2.022-.515-2.022-1.887V35.709c0-1.373.557-1.887,2.022-1.887Z" transform="translate(16.572 6.038)" fill="#707070"/>
    <path id="Path_17" data-name="Path 17" d="M102.024,33.822c1.122,0,1.565.514,1.565,1.479v.436a1.245,1.245,0,0,1-1.008,1.421l1.15,1.459a.125.125,0,0,1-.107.206h-1.1a.237.237,0,0,1-.229-.1l-1.05-1.43h-2v1.343a.165.165,0,0,1-.186.185h-.929a.165.165,0,0,1-.185-.185v-4.6a.189.189,0,0,1,.213-.214Zm-2.78,2.451h2.522c.394,0,.522-.158.522-.494v-.306c0-.336-.128-.494-.522-.494H99.33c-.058,0-.086.029-.086.093Z" transform="translate(17.484 6.038)" fill="#707070"/>
    <path id="Path_18" data-name="Path 18" d="M108.785,33.822a.167.167,0,0,1,.186.186v.836a.167.167,0,0,1-.186.186h-2.151v3.609a.167.167,0,0,1-.186.186h-.922a.168.168,0,0,1-.192-.186V35.03h-2.145a.163.163,0,0,1-.185-.186v-.836a.163.163,0,0,1,.185-.186Z" transform="translate(18.387 6.038)" fill="#707070"/>
    <path id="Path_19" data-name="Path 19" d="M113.458,33.822a.164.164,0,0,1,.186.186v.8c0,.128-.058.193-.186.193h-3.494c-.193,0-.278.107-.278.3v.186c0,.2.085.3.271.3h2.573a1.164,1.164,0,0,1,1.3,1.273v.572c0,.714-.428,1.194-1.321,1.194h-3.93a.166.166,0,0,1-.186-.186v-.8a.163.163,0,0,1,.186-.186h3.673c.2,0,.285-.114.285-.306v-.23c0-.2-.086-.3-.279-.3h-2.564a1.166,1.166,0,0,1-1.308-1.273v-.521c0-.722.436-1.2,1.322-1.2Z" transform="translate(19.347 6.038)" fill="#707070"/>
    <path id="Path_20" data-name="Path 20" d="M97.652,14.39c1.006-4.708,1.162-5.869,1.162-6.984C98.814,2.539,95.853,0,88.977,0H53.662c-.369,0-.792.107-1.162.846L44.278,26.395a.524.524,0,0,1-.476.369h-.209c-.16,0-.214-.1-.268-.369L41.847,3.968C41.633,1.006,40.315,0,37.4,0H30.1C27.78,0,25.82.846,24.336,3.968L13.546,26.395c-.1.268-.263.369-.37.369h-.209c-.16,0-.214-.1-.214-.369L11.484.846C11.43.214,11.276,0,10.8,0H.854C.164,0-.045.691.008,1.591l1.9,30.094C2.177,36.076,3.5,37.03,6.462,37.03h8.353c2.592,0,4.183-1.114,6.244-5.345l10.26-21.05c.107-.268.269-.369.423-.369h.214c.156,0,.156.1.156.369l1.114,21.05c.209,4.231,1.478,5.345,4.022,5.345h8.621c.078,0,.15,0,.226-.006.013,0,.025.006.037,0a.805.805,0,0,0,.119.006h.864l7.663-24.779-3.141-.972L59.209,5.53l3,9.02-2.931-.905L52.047,37.03h8.1a1.773,1.773,0,0,0,1.907-1.59l1.954-9.308H76.655l5.023,10.051c.269.579.585.846,1.747.846h9.467a1.258,1.258,0,0,0,1.269-1.745L88.345,24.917c5.237-1.269,8.037-4.867,9.307-10.528m-11.213.369C86.07,16.611,85.224,17.4,83,17.4H65.864l1.478-6.822a.773.773,0,0,1,.846-.692h16.4c1.8,0,2.436.53,2.436,1.7a23.964,23.964,0,0,1-.583,3.17" transform="translate(0 0)" fill="#707070"/>
    <path id="Path_21" data-name="Path 21" d="M125.317,0q1.586,0,1.268,1.587L125.1,8.466a1.768,1.768,0,0,1-1.906,1.587H99.98c-3.492,0-4.5.687-5.289,3.914h27.345q1.587,0,1.269,1.587l-1.216,5.659a1.765,1.765,0,0,1-1.9,1.586H92.839a10.079,10.079,0,0,0-.264,1.9c0,1.8,1.057,2.275,3.808,2.275H119.6q1.584,0,1.268,1.587l-1.48,6.877a1.767,1.767,0,0,1-1.906,1.586H94.108c-8.886,0-12.748-2.485-12.748-8.886,0-1.481.212-3.174,2.487-14.176C85.962,3.812,90.987,0,101.937,0Z" transform="translate(14.523 0.001)" fill="#707070"/>
  </g>
</svg>
