<svg id="logout_Icon" data-name="logout Icon" xmlns="http://www.w3.org/2000/svg" width="21.862" height="23.773" viewBox="0 0 21.862 23.773">
  <g id="Vector" fill="none">
    <path d="M15.415,18.2v1.857A3.579,3.579,0,0,1,12,23.773H3.416A3.579,3.579,0,0,1,0,20.058V3.714A3.579,3.579,0,0,1,3.416,0H12a3.579,3.579,0,0,1,3.416,3.714V5.572a.857.857,0,1,1-1.708,0V3.714A1.789,1.789,0,0,0,12,1.857H3.416A1.789,1.789,0,0,0,1.708,3.714V20.058a1.789,1.789,0,0,0,1.708,1.857H12a1.789,1.789,0,0,0,1.708-1.857V18.2a.857.857,0,1,1,1.708,0Zm5.822-7.91L19.325,8.212a.806.806,0,0,0-1.208,0,.987.987,0,0,0,0,1.313L19.477,11H9.223a.932.932,0,0,0,0,1.857H19.477l-1.36,1.479a.987.987,0,0,0,0,1.313.806.806,0,0,0,1.208,0l1.912-2.079a2.47,2.47,0,0,0,0-3.283Z" stroke="none"/>
    <path d="M 11.99881744384766 23.77279472351074 L 3.416037321090698 23.77279472351074 C 1.532377362251282 23.77279472351074 -2.686157131392974e-06 22.10652542114258 -2.686157131392974e-06 20.05829620361328 L -2.686157131392974e-06 3.714495420455933 C -2.686157131392974e-06 1.666265487670898 1.532377362251282 5.454406618810026e-06 3.416037321090698 5.454406618810026e-06 L 11.99881744384766 5.454406618810026e-06 C 13.88246726989746 5.454406618810026e-06 15.4148473739624 1.666265487670898 15.4148473739624 3.714495420455933 L 15.4148473739624 5.5717453956604 C 15.4148473739624 6.084665298461914 15.03254699707031 6.500375270843506 14.5608377456665 6.500375270843506 C 14.08913707733154 6.500375270843506 13.70683765411377 6.084665298461914 13.70683765411377 5.5717453956604 L 13.70683765411377 3.714495420455933 C 13.70683765411377 2.690475463867188 12.9405574798584 1.857245445251465 11.99881744384766 1.857245445251465 L 3.416037321090698 1.857245445251465 C 2.474287271499634 1.857245445251465 1.708017349243164 2.690475463867188 1.708017349243164 3.714495420455933 L 1.708017349243164 20.05829620361328 C 1.708017349243164 21.08231544494629 2.474287271499634 21.9155445098877 3.416037321090698 21.9155445098877 L 11.99881744384766 21.9155445098877 C 12.9405574798584 21.9155445098877 13.70683765411377 21.08231544494629 13.70683765411377 20.05829620361328 L 13.70683765411377 18.20104598999023 C 13.70683765411377 17.68812561035156 14.08913707733154 17.27241516113281 14.5608377456665 17.27241516113281 C 15.03254699707031 17.27241516113281 15.4148473739624 17.68812561035156 15.4148473739624 18.20104598999023 L 15.4148473739624 20.05829620361328 C 15.4148473739624 22.10652542114258 13.88246726989746 23.77279472351074 11.99881744384766 23.77279472351074 Z M 18.72096824645996 15.92591571807861 C 18.50245666503906 15.92591571807861 18.2839469909668 15.83522510528564 18.11714744567871 15.6538553237915 C 17.7835578918457 15.29129505157471 17.7835578918457 14.70328521728516 18.11714744567871 14.34072589874268 L 19.47739791870117 12.8614559173584 L 9.223287582397461 12.8614559173584 C 8.7515869140625 12.8614559173584 8.369277000427246 12.44574546813965 8.369277000427246 11.93282508850098 C 8.369277000427246 11.41990566253662 8.7515869140625 11.00420570373535 9.223287582397461 11.00420570373535 L 19.47739791870117 11.00420570373535 L 18.11714744567871 9.524935722351074 C 17.7835578918457 9.162365913391113 17.7835578918457 8.574365615844727 18.11714744567871 8.211795806884766 C 18.45058631896973 7.849054336547852 18.99134635925293 7.849054336547852 19.32493782043457 8.211795806884766 L 21.2372875213623 10.29122543334961 C 22.06977653503418 11.19645500183105 22.06977653503418 12.6691951751709 21.2372875213623 13.57442569732666 L 19.32493782043457 15.6538553237915 C 19.15814781188965 15.83522510528564 18.93963813781738 15.92591571807861 18.72096824645996 15.92591571807861 Z" stroke="none" fill="#707070"/>
  </g>
</svg>
