<svg width="40" height="40" viewBox="0 0 40 40" fill="none" xmlns="http://www.w3.org/2000/svg">
<path fill-rule="evenodd" clip-rule="evenodd" d="M9.60617 20.9429C4.29343 20.9429 0 25.2204 0 30.4791C0 30.6171 0 30.7551 0.015444 30.8777L0 30.8624V39.9693H8.77219C9.05019 40 9.32818 40 9.60617 40C14.9189 40 19.2123 35.7225 19.2123 30.4638C19.2123 25.2204 14.9035 20.9429 9.60617 20.9429Z" fill="#5D21D1"/>
<path fill-rule="evenodd" clip-rule="evenodd" d="M4.88086 31.2763C4.88086 30.6937 5.2824 30.2798 5.83837 30.2798C6.39435 30.2798 6.78045 30.6937 6.78045 31.2763C6.78045 31.8436 6.4098 32.2729 5.82293 32.2729C5.26695 32.2729 4.88086 31.8436 4.88086 31.2763Z" fill="white"/>
<path fill-rule="evenodd" clip-rule="evenodd" d="M8.1709 31.2763C8.1709 30.6937 8.57244 30.2798 9.12842 30.2798C9.6844 30.2798 10.0705 30.6937 10.0705 31.2763C10.0705 31.8436 9.69985 32.2729 9.11298 32.2729C8.54155 32.2729 8.1709 31.8436 8.1709 31.2763Z" fill="white"/>
<path fill-rule="evenodd" clip-rule="evenodd" d="M11.4443 31.2763C11.4443 30.6937 11.8459 30.2798 12.4019 30.2798C12.9578 30.2798 13.3439 30.6937 13.3439 31.2763C13.3439 31.8436 12.9733 32.2729 12.3864 32.2729C11.8304 32.2729 11.4443 31.8436 11.4443 31.2763Z" fill="white"/>
<path fill-rule="evenodd" clip-rule="evenodd" d="M24.2154 30.8164C15.7829 30.8164 8.92578 24.0092 8.92578 15.6382C8.92578 7.26716 15.7829 0.459961 24.2154 0.459961C28.2617 0.459961 32.0764 2.02378 34.9644 4.84478C37.7907 7.61979 39.3968 11.3147 39.5049 15.2549C39.5204 15.3162 39.5358 15.3622 39.5358 15.4235V30.3565C39.5358 30.6171 39.3351 30.8164 39.0725 30.8164H24.2154Z" fill="#00AC45"/>
<path fill-rule="evenodd" clip-rule="evenodd" d="M24.2157 0.91993C32.3393 0.91993 38.9493 7.40517 39.042 15.4542L39.0729 15.4236V30.3565H24.2157C16.0303 30.3565 9.3894 23.7639 9.3894 15.6382C9.3894 7.49716 16.0303 0.91993 24.2157 0.91993ZM24.2158 0C15.5363 0 8.46289 7.02184 8.46289 15.6382C8.46289 24.2545 15.5363 31.2763 24.2158 31.2763H39.0729C39.5826 31.2763 39.9996 30.8624 39.9996 30.3564V15.4235C39.9996 15.3315 39.9841 15.2549 39.9687 15.1629C39.8451 11.1307 38.1926 7.35914 35.3046 4.50747C32.3239 1.59448 28.3857 0 24.2158 0Z" fill="white"/>
<path fill-rule="evenodd" clip-rule="evenodd" d="M23.7215 20.0383C23.2273 20.0383 22.8258 19.6396 22.8258 19.149C22.8412 18.3824 22.8567 17.8765 22.8721 17.6312C22.903 17.3092 22.9957 17.0026 23.1347 16.6806C23.2891 16.3587 23.459 16.1134 23.6443 15.9447C23.8297 15.7608 24.2775 15.4848 24.9725 15.1015C25.7293 14.6875 26.2544 14.3503 26.5324 14.1203C26.8258 13.8903 27.0729 13.553 27.2737 13.1391C27.4899 12.7251 27.598 12.2652 27.598 11.7746C27.598 10.8393 27.2582 10.1034 26.5632 9.56681C25.8837 9.03021 25.0652 8.76957 24.1385 8.76957C22.2853 8.76957 21.0806 9.7048 20.4938 11.5752C20.3393 12.0505 19.8605 12.3418 19.3818 12.2345C18.8412 12.1118 18.5169 11.5599 18.6714 11.0233C19.4744 8.37095 21.3432 7.03711 24.2466 7.03711C25.9146 7.03711 27.2428 7.48172 28.2775 8.38628C29.2968 9.29085 29.8065 10.4407 29.8065 11.8512C29.8065 13.691 28.7409 15.1628 26.6096 16.2514C25.6829 16.742 25.1115 17.1253 24.8953 17.4012C24.6945 17.6772 24.5864 18.1065 24.5864 18.6891V19.1644C24.6173 19.6396 24.2158 20.0383 23.7215 20.0383ZM25.0496 23.0279C25.0496 23.7025 24.4937 24.2391 23.8296 24.2391H23.7678C23.0883 24.2391 22.5477 23.6871 22.5477 23.0279C22.5477 22.3533 23.1037 21.8167 23.7678 21.8167H23.8296C24.4937 21.8167 25.0496 22.3533 25.0496 23.0279Z" fill="white"/>
</svg>
