<svg width="184" height="116" viewBox="0 0 184 116" fill="none" xmlns="http://www.w3.org/2000/svg">
<path fill-rule="evenodd" clip-rule="evenodd" d="M90.4271 115.931H0V68.4175C0 54.8272 11.0182 43.8027 24.6009 43.8027H90.4271V115.931Z" fill="#00AC45"/>
<path fill-rule="evenodd" clip-rule="evenodd" d="M31.2869 43.377C31.5809 43.377 31.8192 43.6138 31.8192 43.9061C31.8192 44.1983 31.5809 44.4352 31.2869 44.4352C19.6539 44.4352 10.2026 53.6723 10.0148 65.1285L10.0119 65.4763V115.407C10.0119 115.699 9.77357 115.936 9.47958 115.936C9.19609 115.936 8.96436 115.716 8.94817 115.438L8.94727 115.407V65.4763C8.94727 53.2743 18.9495 43.377 31.2869 43.377Z" fill="white"/>
<path fill-rule="evenodd" clip-rule="evenodd" d="M66.4499 48.8975L44.0114 58.5203C38.1594 61.0197 33.4531 65.6437 30.7739 71.4638C30.7739 71.4638 9.46339 100.1 16.796 115.936C21.9958 115.936 138.296 115.936 138.296 115.936L120.81 67.9824C119.735 65.0545 117.567 62.6622 114.764 61.3232L93.1541 51.5397L66.4499 48.8975Z" fill="#5D21D1"/>
<path fill-rule="evenodd" clip-rule="evenodd" d="M49.1746 56.0625C49.4383 55.962 49.7332 56.0843 49.8482 56.3364L49.8602 56.3649L54.365 67.9896L63.2552 69.2953C63.7569 69.369 63.8739 70.0266 63.4443 70.2709L63.4161 70.286L56.7103 73.636L57.1536 74.3201C57.5636 74.9548 58.0117 75.6532 58.4893 76.4033C60.0641 78.8766 61.6389 81.4076 63.1091 83.8512C63.3818 84.3045 63.6487 84.7513 63.9095 85.1909L64.1039 85.5192C65.6743 88.1767 66.9778 90.5068 67.949 92.4197C68.0808 92.6793 67.9755 92.9957 67.7138 93.1264C67.452 93.2571 67.133 93.1527 67.0012 92.8931L66.8683 92.6328C65.9686 90.8801 64.7955 88.782 63.3995 86.4094L63.1884 86.0515C62.8678 85.5089 62.5374 84.9549 62.1979 84.3906C60.8373 82.1293 59.3862 79.7917 57.9286 77.4947L57.5921 76.9654C57.1158 76.2172 56.6689 75.5208 56.2601 74.888L55.8714 74.2877L55.4993 73.7167C55.3328 73.4629 55.4167 73.125 55.6768 72.975L55.7054 72.9597L61.4429 70.0931L53.9032 68.9858C53.7257 68.9597 53.5744 68.8466 53.4996 68.6866L53.4857 68.654L48.8697 56.7426C48.7646 56.4713 48.9011 56.1668 49.1746 56.0625Z" fill="#2E186A"/>
<path fill-rule="evenodd" clip-rule="evenodd" d="M110.227 59.9051C110.276 59.6184 110.549 59.4251 110.838 59.4732C111.117 59.5195 111.308 59.7735 111.278 60.0486L111.274 60.0793L109.505 70.5346C109.476 70.7102 109.359 70.8581 109.196 70.9292L109.163 70.9423L101.997 73.5177L108.202 75.2027C108.492 75.2813 108.656 75.581 108.57 75.8621L108.541 75.9429L108.184 76.9125L107.648 78.3797C107.502 78.7826 107.349 79.2024 107.192 79.6371C106.166 82.4762 105.14 85.3744 104.182 88.1618L103.95 88.8387C103.874 89.0628 103.798 89.2853 103.723 89.5062L103.344 90.627C101.243 96.876 99.96 101.268 99.837 102.905C99.8153 103.195 99.5607 103.413 99.2685 103.391C98.9763 103.369 98.7571 103.117 98.7788 102.827C98.9153 101.01 100.279 96.3804 102.536 89.704L102.831 88.8366C102.907 88.6136 102.983 88.3889 103.061 88.1627L103.178 87.8222C104.064 85.2439 105.008 82.5718 105.956 79.9391L106.523 78.3724C106.716 77.8412 106.9 77.337 107.073 76.8635L107.366 76.0668L100.105 74.0953C99.6168 73.9626 99.5793 73.2976 100.034 73.105L100.065 73.0929L108.51 70.0572L110.227 59.9051Z" fill="#2E186A"/>
<path fill-rule="evenodd" clip-rule="evenodd" d="M34.3701 91.1032C36.9613 90.6841 43.4438 90.7863 52.7046 91.2733L52.9861 91.2882C55.3418 91.4132 57.8169 91.5603 60.3704 91.7248L61.8629 91.8223C63.8459 91.9537 65.7985 92.0902 67.683 92.2278L69.4426 92.3579C69.9163 92.3934 70.3667 92.4276 70.7918 92.4602L72.6644 92.6067C73.0412 92.6372 73.2626 93.0357 73.0965 93.3654L73.0817 93.3927L71.6138 95.9363C71.4682 96.1886 71.1441 96.276 70.8898 96.1316C70.6449 95.9926 70.5541 95.6893 70.6777 95.4417L70.6929 95.4134L71.7451 93.5898L70.5496 93.4973C70.0649 93.4603 69.5486 93.4213 69.0035 93.3806L67.6052 93.2775C65.4092 93.1172 63.1208 92.9584 60.7996 92.8074L60.3017 92.7752C58.0706 92.6314 55.8998 92.501 53.8167 92.387L52.374 92.31C43.3559 91.8405 36.9982 91.7446 34.5408 92.142C34.2516 92.1888 33.979 91.9941 33.9318 91.7073C33.8846 91.4204 34.0809 91.1499 34.3701 91.1032Z" fill="#2E186A"/>
<path fill-rule="evenodd" clip-rule="evenodd" d="M51.5613 81.8797C51.643 81.6006 51.9374 81.44 52.2188 81.521C52.4901 81.5991 52.6504 81.8734 52.5882 82.1432L52.5804 82.1731L49.8745 91.4181C49.7928 91.6972 49.4984 91.8578 49.217 91.7768C48.9457 91.6986 48.7854 91.4243 48.8476 91.1546L48.8554 91.1246L51.5613 81.8797Z" fill="#2E186A"/>
<path fill-rule="evenodd" clip-rule="evenodd" d="M57.2956 91.6086C57.5462 91.4579 57.8725 91.5371 58.0244 91.7857C58.1764 92.0342 58.0965 92.3578 57.8459 92.5086C54.0047 94.8194 51.2248 98.0594 49.3571 101.999C48.1056 104.638 47.3223 107.466 46.9196 110.332C46.6654 112.141 46.5918 113.719 46.6227 114.938L46.6309 115.192L46.6398 115.372C46.6596 115.662 46.4386 115.913 46.1462 115.933C45.8539 115.952 45.6008 115.733 45.581 115.443L45.5731 115.294C45.5716 115.261 45.5701 115.223 45.5685 115.181L45.5619 114.966C45.5296 113.692 45.6057 112.057 45.8686 110.187C46.2852 107.222 47.0964 104.294 48.3968 101.551C50.3495 97.4322 53.2665 94.0325 57.2956 91.6086Z" fill="#2E186A"/>
<path fill-rule="evenodd" clip-rule="evenodd" d="M64.7304 49.5L59.8137 51.7474C59.8137 51.7474 79.1442 78.751 76.4383 105.825C79.7456 112.302 94.407 105.825 94.407 105.825L97.9972 53.8355L92.1079 51.1634L64.7304 49.5Z" fill="white"/>
<path fill-rule="evenodd" clip-rule="evenodd" d="M95.1817 94.2681C91.5561 94.8521 88.1428 94.9051 85.2777 94.7459C81.7052 94.5512 78.5925 93.985 76.2756 93.4541C76.3641 94.2504 76.4525 95.0644 76.5055 95.8607C78.8047 96.3562 81.7405 96.834 85.0654 97.0286C86.0735 97.0817 87.0816 97.1171 88.072 97.1171C90.4596 97.1171 92.7764 96.9401 95.0225 96.6039L95.1817 94.2681Z" fill="#968BB4"/>
<path fill-rule="evenodd" clip-rule="evenodd" d="M87.8912 92.3924C90.4202 92.3924 92.9139 92.2332 95.3369 91.9323L95.4961 89.5788C90.2257 90.3043 85.3091 90.1805 81.3121 89.7558C79.2428 89.5434 77.3151 89.2426 75.5642 88.8887C75.7057 89.685 75.8472 90.499 75.971 91.313C77.5273 91.5961 79.2075 91.8439 80.9937 92.0385C83.3283 92.2686 85.6274 92.3924 87.8912 92.3924Z" fill="#968BB4"/>
<path fill-rule="evenodd" clip-rule="evenodd" d="M79.3157 82.8895C77.4234 82.7125 75.6548 82.4648 74.01 82.1816C74.2399 82.9779 74.4522 83.7919 74.6467 84.6236C76.0262 84.836 77.4764 85.0306 79.0151 85.1722C81.2435 85.3846 83.4542 85.4907 85.6119 85.4907C88.9722 85.4907 92.244 85.2253 95.4098 84.7121C95.5513 84.6944 95.6751 84.659 95.8166 84.6413L95.9757 82.2524C89.7857 83.3849 83.9494 83.3319 79.3157 82.8895Z" fill="#968BB4"/>
<path fill-rule="evenodd" clip-rule="evenodd" d="M85.9666 79.5287C89.1854 79.5287 92.6695 79.2279 96.2597 78.467L96.4189 76.0781C89.5745 77.653 83.0838 77.3875 78.1318 76.6443C75.8327 76.3081 73.7104 75.848 71.8357 75.3525C72.1364 76.2019 72.4547 77.069 72.7377 77.9538C74.2763 78.3077 75.9388 78.6439 77.7074 78.9094C80.1657 79.2633 82.9423 79.5287 85.9666 79.5287Z" fill="#968BB4"/>
<path fill-rule="evenodd" clip-rule="evenodd" d="M96.8765 69.4078C89.4131 71.2482 82.0382 70.9473 76.4141 70.151C73.7613 69.7794 71.3383 69.2662 69.1807 68.7354C69.5521 69.5848 69.9235 70.4695 70.2949 71.3543C72.0811 71.7613 74.0266 72.1153 76.0781 72.4161C79.1731 72.8585 82.1974 73.0708 85.1332 73.0708C87.397 73.0708 89.6077 72.947 91.7476 72.6815C93.4455 72.4692 95.0902 72.186 96.7173 71.8144L96.8765 69.4078Z" fill="#968BB4"/>
<path fill-rule="evenodd" clip-rule="evenodd" d="M97.2654 63.4787C89.3068 65.3545 81.419 64.9298 75.4589 63.9919C71.7803 63.4079 68.4907 62.6116 65.8379 61.833C66.2977 62.7178 66.7752 63.638 67.2527 64.6112C69.4104 65.1775 71.9218 65.7438 74.6454 66.1862C78.3771 66.7878 82.0203 67.1063 85.5398 67.1063C87.4498 67.1063 89.3245 67.0179 91.1462 66.8409C93.1977 66.6462 95.1785 66.3277 97.1063 65.903L97.2654 63.4787Z" fill="#968BB4"/>
<path fill-rule="evenodd" clip-rule="evenodd" d="M97.5682 59.2659L97.7274 56.8416C83.3489 61.0532 68.7405 57.3548 62.0022 55.1074C62.5328 55.9568 63.1164 56.9478 63.7708 58.0626C66.3529 58.8235 69.8193 59.6906 73.7809 60.2746C76.6637 60.717 80.0063 61.0355 83.5965 61.0355C87.9825 61.0355 92.7577 60.5754 97.5682 59.2659Z" fill="#968BB4"/>
<path fill-rule="evenodd" clip-rule="evenodd" d="M71.0799 36.0869L69.5058 46.0142L64.5715 50.0134C64.5715 50.0134 71.4336 60.2947 80.754 62.6305C83.9197 63.4268 88.8894 62.5597 90.5165 59.7461C92.0728 57.0386 92.5857 53.1987 92.8864 48.6332C93.0279 46.3327 71.0799 36.0869 71.0799 36.0869Z" fill="white"/>
<path fill-rule="evenodd" clip-rule="evenodd" d="M70.5564 36.0018L69.0142 45.7277L64.2381 49.599C64.0251 49.7716 63.9786 50.0782 64.1309 50.3063L64.2187 50.4348L64.3146 50.5718C64.382 50.6673 64.4573 50.7723 64.5403 50.8864C64.8712 51.3407 65.2583 51.8462 65.6985 52.3902C66.9554 53.943 68.3883 55.4956 69.9739 56.9459C73.3313 60.0169 76.9081 62.2118 80.6256 63.1435C84.3907 64.0906 89.3464 62.8286 90.9763 60.01C92.4149 57.5074 93.0517 54.2047 93.4164 48.6661C93.4936 47.4112 90.4065 45.3675 84.3505 42.1176L83.8357 41.8425C83.3156 41.5657 82.7796 41.2837 82.2289 40.997C79.9794 39.826 77.5795 38.6255 75.1708 37.4538L74.7192 37.2345C73.8831 36.8292 73.1027 36.4549 72.3953 36.1187L71.3048 35.6039C70.9852 35.4547 70.6117 35.6532 70.5564 36.0018ZM70.0337 46.0948L71.4968 36.8654L72.0955 37.1495C72.7597 37.4656 73.4858 37.8141 74.2597 38.1893L75.1599 38.6272C77.259 39.6519 79.3444 40.6958 81.3206 41.7193L81.7424 41.9383C82.3815 42.2709 83.0006 42.5973 83.5977 42.9163L84.1636 43.2202C86.5328 44.4983 88.4765 45.6249 89.8964 46.5582L89.9883 46.6188C90.8039 47.1588 91.4291 47.6256 91.845 48.0076C92.0483 48.1944 92.1964 48.3563 92.2858 48.4864C92.316 48.5304 92.3374 48.5677 92.3504 48.5967L92.3587 48.6165L92.3593 48.6166L92.328 49.0764C91.9688 54.1699 91.353 57.2302 90.0604 59.4788C88.7071 61.819 84.2403 62.9565 80.8871 62.113C77.3639 61.2301 73.9315 59.1237 70.6931 56.1616C69.1494 54.7496 67.7518 53.2353 66.5264 51.7213C66.1308 51.2326 65.7799 50.7764 65.4761 50.3629L65.2936 50.1119L69.8436 46.4241C69.9454 46.3416 70.0131 46.2243 70.0337 46.0948Z" fill="#2E186A"/>
<path fill-rule="evenodd" clip-rule="evenodd" d="M98.7266 15.345C97.188 6.81566 86.6296 7.9305 85.0909 8.12515C70.8893 9.89472 70.2172 21.8393 70.3233 25.1838L69.7043 25.2546C69.7043 25.2546 69.7751 25.8209 69.8989 26.7587C68.0596 27.2011 64.7523 28.6522 65.8312 33.2354C66.6447 36.7037 69.2445 37.0223 71.4022 36.6153C71.6851 38.1548 71.9858 39.4643 72.2511 40.2429C73.3476 43.3573 74.0904 44.7376 78.335 47.5158C82.5972 50.294 91.4401 51.285 95.4017 46.1886C99.0627 41.4639 99.3456 32.9699 99.381 31.7312C99.717 27.0065 99.7347 20.9545 98.7266 15.345Z" fill="white"/>
<path fill-rule="evenodd" clip-rule="evenodd" d="M87.6535 7.44044C86.6894 7.43936 85.8584 7.49718 85.137 7.58402L85.024 7.59797C78.5133 8.40922 74.2457 11.3551 71.8721 15.8139L71.7958 15.9589C70.3367 18.7666 69.7715 21.8192 69.7815 24.6237L69.7821 24.7108L69.6428 24.7268C69.3599 24.7591 69.155 25.0082 69.1735 25.2888L69.1795 25.3437L69.2948 26.2424L69.3109 26.3661L69.2575 26.3821C68.1389 26.721 67.1375 27.269 66.381 28.0822C65.2014 29.3502 64.7839 31.1075 65.3134 33.3567L65.3371 33.4552C66.0794 36.4563 68.1351 37.5565 70.8702 37.2335L70.9748 37.2204L71.0373 37.5392C71.2815 38.7664 71.5266 39.7652 71.7476 40.4138L71.8239 40.6286C73.0668 44.093 74.1391 45.4044 78.0432 47.9597C80.3374 49.4551 83.7413 50.3778 86.9866 50.3357C90.7006 50.2875 93.8705 49.0211 95.8192 46.5142C97.4993 44.3459 98.6091 41.3146 99.2712 37.7493C99.512 36.453 99.6792 35.156 99.7864 33.893L99.7981 33.7539C99.8544 33.0668 99.8849 32.5022 99.9033 31.9613L99.9095 31.7585L99.9089 31.7686C100.316 26.0513 100.152 20.283 99.2475 15.2507C98.5263 11.2532 95.9014 8.92354 92.0372 7.94845C90.6429 7.59661 89.1602 7.44214 87.6535 7.44044ZM87.6508 8.50109C89.0762 8.5027 90.4743 8.64836 91.7761 8.97686C95.2678 9.85794 97.5624 11.8944 98.2016 15.4378C99.0884 20.3727 99.2497 26.0561 98.8489 31.6921L98.8477 31.7146L98.8412 31.9238C98.8222 32.4842 98.7896 33.0709 98.7276 33.8019C98.6231 35.0319 98.4603 36.2946 98.2264 37.5542C97.5924 40.9681 96.5362 43.8528 94.9795 45.8619C93.2518 48.0845 90.388 49.2286 86.9713 49.2729C83.9302 49.3124 80.733 48.4457 78.6217 47.0695L78.3978 46.9223C74.7972 44.5437 73.9218 43.3971 72.7486 40.065L72.7131 39.958C72.4741 39.2203 72.1941 38.0028 71.9211 36.5178C71.8679 36.2285 71.5898 36.0376 71.301 36.0921C68.7252 36.578 66.9715 35.7842 66.3448 33.1126C65.8942 31.1984 66.2252 29.8053 67.1562 28.8045C67.8629 28.0448 68.8792 27.5478 70.02 27.2734C70.2841 27.2099 70.4576 26.9572 70.422 26.6878L70.2955 25.7194L70.3807 25.7098C70.6551 25.6784 70.8595 25.4417 70.8508 25.1655C70.7607 22.3283 71.2888 19.1642 72.8071 16.312C74.9965 12.1991 78.9069 9.47389 84.9702 8.674L85.1546 8.65036C85.8614 8.56093 86.6855 8.50001 87.6508 8.50109Z" fill="#2E186A"/>
<path fill-rule="evenodd" clip-rule="evenodd" d="M105.04 28.9723C104.916 26.141 103.13 23.8759 100.742 22.708C100.53 23.0265 100.282 23.3097 100.052 23.522C100.106 27.4328 99.8049 34.5287 99.4689 36.5991C99.6457 36.5461 99.8226 36.493 99.9817 36.4399C99.8403 37.6963 99.4512 39.1473 98.5138 40.1914C97.7003 41.0939 96.5861 41.5893 95.1182 41.7309C94.7998 41.4478 94.3754 41.2708 93.9155 41.2708C92.9074 41.2708 92.1116 42.0848 92.1116 43.0758C92.1116 44.0667 92.9251 44.8807 93.9155 44.8807C94.4107 44.8807 94.8529 44.6861 95.1712 44.3676C97.3996 44.2083 99.1682 43.3943 100.459 41.961C102.458 39.7313 102.723 36.5638 102.688 34.7588C104.226 33.3077 105.146 31.2373 105.04 28.9723Z" fill="#5D21D1"/>
<path fill-rule="evenodd" clip-rule="evenodd" d="M92.2044 27.3514C92.4834 27.307 92.7462 27.4889 92.8059 27.7616L92.8117 27.7922L94.1204 36.0207C94.1772 36.3779 93.8693 36.6827 93.5179 36.6292L93.4876 36.6238L90.5341 36.0044C90.2474 35.9443 90.0636 35.6629 90.1237 35.3759C90.1817 35.0992 90.4452 34.9184 90.7211 34.9597L90.7518 34.9652L92.9513 35.4264L91.7638 27.9591C91.7194 27.6799 91.9012 27.4169 92.1737 27.3572L92.2044 27.3514Z" fill="#2E186A"/>
<path fill-rule="evenodd" clip-rule="evenodd" d="M95.9637 29.4982C96.4321 29.4776 96.7862 28.8753 96.7546 28.1528C96.723 27.4304 96.3177 26.8613 95.8493 26.8818C95.3809 26.9023 95.0268 27.5046 95.0584 28.2271C95.09 28.9496 95.4954 29.5187 95.9637 29.4982Z" fill="#2E186A"/>
<path fill-rule="evenodd" clip-rule="evenodd" d="M87.6683 29.465C88.1367 29.4444 88.4907 28.8421 88.4591 28.1196C88.4275 27.3972 88.0222 26.8281 87.5539 26.8486C87.0855 26.8691 86.7314 27.4714 86.763 28.1939C86.7946 28.9164 87.1999 29.4855 87.6683 29.465Z" fill="#2E186A"/>
<path fill-rule="evenodd" clip-rule="evenodd" d="M82.6198 22.3628C83.6145 21.7449 84.8018 21.5035 86.1305 21.8606C86.4135 21.9367 86.5812 22.2279 86.5052 22.511C86.4292 22.7942 86.1381 22.9621 85.8551 22.886C84.8321 22.611 83.94 22.7924 83.1795 23.2648C83.0005 23.376 82.8444 23.4948 82.7129 23.6123L82.667 23.6542C82.6253 23.6931 82.596 23.7229 82.5796 23.7407L82.5725 23.7486C82.3799 23.9696 82.0447 23.9924 81.8239 23.7997C81.6031 23.607 81.5802 23.2716 81.7728 23.0507L81.8081 23.0117C81.8548 22.9619 81.9208 22.8968 82.0057 22.8208C82.1812 22.6638 82.3861 22.5079 82.6198 22.3628Z" fill="#2E186A"/>
<path fill-rule="evenodd" clip-rule="evenodd" d="M93.3924 20.9705C93.8878 20.8779 94.4082 20.8619 94.9115 20.9747C95.7436 21.1613 96.3851 21.6792 96.6995 22.5651C96.7976 22.8414 96.6532 23.1449 96.3771 23.243C96.101 23.3411 95.7976 23.1967 95.6996 22.9204C95.5139 22.3972 95.172 22.1212 94.6794 22.0108C94.3369 21.934 93.9532 21.9458 93.5873 22.0142L93.5193 22.0276C93.4773 22.0363 93.442 22.0445 93.4144 22.0515L93.3656 22.0649C93.0853 22.1505 92.7888 21.9926 92.7032 21.7122C92.6176 21.4318 92.7754 21.135 93.0557 21.0494L93.1095 21.0339C93.1796 21.0149 93.2753 20.9924 93.3924 20.9705Z" fill="#2E186A"/>
<path fill-rule="evenodd" clip-rule="evenodd" d="M90.6414 39.3583C88.077 42.1719 86.6444 39.6591 85.4241 37.8188C85.1058 37.3587 85.5302 36.7394 86.0785 36.8809C88.3776 37.4826 91.508 38.4027 90.6414 39.3583Z" fill="#2E186A"/>
<path fill-rule="evenodd" clip-rule="evenodd" d="M101.557 12.5152C100.743 10.7456 99.7349 10.2501 98.8329 10.2501C98.7976 9.9316 98.7445 9.61308 98.6737 9.29456C98.0547 6.48094 96.2685 4.09202 93.8279 2.62327C93.8279 2.62327 90.8213 -0.579649 81.3771 0.0927879C71.9152 0.765225 71.6676 6.19781 71.6676 6.19781C67.37 9.09991 64.2573 12.7452 64.0274 15.842C63.373 24.566 67.0516 26.6717 68.5549 27.1672C68.7141 27.0964 68.8733 27.0257 69.0324 26.9726C69.0855 27.1141 69.1386 27.238 69.1739 27.3088C75.134 26.9018 75.4524 18.4963 77.3447 14.4617C77.5393 14.037 78.0699 13.8601 78.4766 14.1078C81.1295 15.6119 84.7374 16.0897 88.9996 15.5058C93.6156 14.8687 95.6849 12.7098 96.6045 11.011C96.6399 11.0464 96.6576 11.0818 96.6929 11.0995C96.7283 11.1526 96.7814 11.188 96.8167 11.2411C96.8344 11.2588 96.8521 11.2765 96.8698 11.3119C96.9052 11.3473 96.9405 11.4003 96.9759 11.4357C96.9936 11.4711 97.029 11.4888 97.0467 11.5242C97.082 11.5596 97.0997 11.595 97.1351 11.6481C97.1705 11.6835 97.1881 11.7189 97.2235 11.7543C97.2589 11.7897 97.2766 11.825 97.3119 11.8604C97.3473 11.8958 97.365 11.9489 97.4004 11.9843C97.4181 12.0197 97.4534 12.0551 97.4711 12.0905C97.5065 12.1436 97.5242 12.179 97.5595 12.232C97.5772 12.2674 97.5949 12.3028 97.6126 12.3382C97.648 12.3913 97.6833 12.4444 97.701 12.4975C97.7187 12.5329 97.7364 12.5506 97.7541 12.586C97.7895 12.639 97.8248 12.7098 97.8425 12.7629C97.8602 12.7983 97.8779 12.816 97.8779 12.8514C97.9133 12.9222 97.9486 12.993 97.984 13.0637C98.3023 13.7362 98.5323 14.4794 98.6914 15.3288C99.1866 18.107 99.4342 20.9914 99.5227 23.752C99.6288 23.7696 99.7526 23.7343 99.8587 23.6458C101.786 22.1593 103.502 16.7091 101.557 12.5152Z" fill="#2E186A"/>
<path fill-rule="evenodd" clip-rule="evenodd" d="M77.361 23.436C77.0507 23.4236 76.7961 23.6794 76.8099 23.9899C76.9241 26.5767 77.3417 28.5763 78.2017 30.0767C79.2503 31.9063 80.93 32.9019 83.2919 32.9381C87.5392 32.8981 89.9979 31.3269 90.9603 28.7211C91.2997 27.8022 91.4241 26.8221 91.3893 25.8369C91.3769 25.4849 91.3445 25.1534 91.2984 24.8492L91.2802 24.7347C91.259 24.607 91.2378 24.5005 91.2189 24.4174L91.2082 24.3719C91.1523 24.1416 90.9505 23.9763 90.7137 23.9668L77.361 23.436ZM77.8983 24.5184L90.2463 25.0093L90.2461 25.0068C90.2863 25.2721 90.3148 25.5633 90.3257 25.8728C90.3559 26.7294 90.2486 27.5751 89.9618 28.3516C89.1591 30.525 87.1032 31.8389 83.2919 31.8749C79.7658 31.8207 78.2226 29.3721 77.9008 24.5558L77.8983 24.5184Z" fill="#00AC45"/>
<path fill-rule="evenodd" clip-rule="evenodd" d="M77.1194 23.5015C77.3858 23.3794 77.7007 23.4965 77.8228 23.763C77.9404 24.02 77.8358 24.3222 77.5893 24.4529L77.5614 24.4668L73.9712 26.1125C73.7048 26.2346 73.3899 26.1175 73.2678 25.8509C73.1501 25.5939 73.2547 25.2918 73.5012 25.161L73.5292 25.1472L77.1194 23.5015Z" fill="#00AC45"/>
<path fill-rule="evenodd" clip-rule="evenodd" d="M92.6829 27.1007C92.9758 27.0952 93.2178 27.3283 93.2233 27.6214C93.2287 27.9041 93.0122 28.1393 92.734 28.1607L92.7029 28.1622L90.8282 28.1976C90.5352 28.2032 90.2932 27.97 90.2877 27.6769C90.2824 27.3942 90.4988 27.159 90.777 27.1376L90.8082 27.1361L92.6829 27.1007Z" fill="#00AC45"/>
<path fill-rule="evenodd" clip-rule="evenodd" d="M104.24 23.6478L92.3557 24.0548C92.0514 24.0652 91.8183 24.3292 91.8454 24.6326L91.8561 24.7342C91.8634 24.7964 91.8736 24.8752 91.8873 24.9692C91.9247 25.226 91.9762 25.511 92.0438 25.8174C92.2373 26.6933 92.5231 27.5699 92.9214 28.3928C94.118 30.8654 96.0667 32.3504 98.8806 32.265C101.247 32.2007 102.692 31.6763 103.519 30.5954C104.157 29.7615 104.353 28.9023 104.519 26.9005L104.607 25.8049C104.665 25.1264 104.706 24.7711 104.783 24.257C104.832 23.9288 104.572 23.6364 104.24 23.6478ZM92.98 25.0958L103.645 24.7306L103.625 24.9106C103.586 25.2599 103.551 25.6579 103.502 26.2722L103.46 26.8029C103.312 28.5997 103.145 29.3349 102.674 29.9502C102.078 30.7298 100.927 31.1473 98.8479 31.2039C96.5012 31.275 94.9039 30.0579 93.8742 27.9302C93.5153 27.1886 93.2545 26.3889 93.0778 25.5885L93.0552 25.4843C93.0334 25.3812 93.0137 25.281 92.9959 25.1843L92.98 25.0958Z" fill="#00AC45"/>
<path fill-rule="evenodd" clip-rule="evenodd" d="M76.4402 31.2737C76.3341 28.7078 74.9369 26.4958 72.9207 25.204L72.0364 5.08398L71.3997 5.11938C69.7019 5.19016 68.3755 6.64121 68.4462 8.34L69.136 24.0538C68.9414 24.0538 68.7469 24.0538 68.5523 24.0538C64.3785 24.2308 61.1597 27.7699 61.3365 31.9284C61.5134 36.0869 65.0506 39.3252 69.2067 39.1483C73.3805 38.9713 76.617 35.4321 76.4402 31.2737Z" fill="#5D21D1"/>
<path fill-rule="evenodd" clip-rule="evenodd" d="M67.33 27.1328C69.2931 27.1328 70.9202 28.9024 71.0086 31.1675C71.097 33.4856 69.523 35.4498 67.4891 35.556C67.4361 35.556 67.383 35.556 67.33 35.556C65.3668 35.556 63.7397 33.7864 63.6513 31.5214C63.5629 29.2032 65.1369 27.239 67.1708 27.1328C67.2238 27.1328 67.2769 27.1328 67.33 27.1328ZM67.3294 26.0713C67.2587 26.0713 67.188 26.0713 67.1172 26.0713C64.5174 26.1952 62.4835 28.6726 62.5897 31.557C62.6958 34.3883 64.7827 36.6002 67.3294 36.6002C67.4002 36.6002 67.4709 36.6002 67.5417 36.6002C70.1415 36.4764 72.1753 33.999 72.0692 31.1146C71.9631 28.2833 69.8762 26.0713 67.3294 26.0713Z" fill="white"/>
<path fill-rule="evenodd" clip-rule="evenodd" d="M103.713 97.4199C103.713 97.4199 86.8588 96.5528 71.1893 95.9512C68.6602 99.8442 63.7966 108.267 63.7966 115.47H64.734L90.8204 108.692C91.1211 108.798 107.799 108.692 107.799 108.692L103.713 97.4199Z" fill="white"/>
<path fill-rule="evenodd" clip-rule="evenodd" d="M71.2075 95.4213C71.0208 95.4141 70.8441 95.5057 70.7423 95.6625C69.0134 98.3238 67.3765 101.247 66.0566 104.257C64.2727 108.324 63.2639 112.117 63.2639 115.47C63.2639 115.763 63.5015 116.001 63.7945 116.001H64.7318L64.7655 116C64.7991 115.998 64.8325 115.992 64.8652 115.984L90.8843 109.224L91.0606 109.234C92.0011 109.276 94.5297 109.279 99.307 109.264L102.148 109.253L107.8 109.224C108.167 109.221 108.42 108.857 108.295 108.512L104.21 97.2395C104.141 97.05 103.972 96.9168 103.774 96.8933L103.624 96.8845L99.8002 96.693L97.339 96.5726C93.2037 96.3719 88.9103 96.1713 84.6097 95.9801L82.1909 95.8736C79.8405 95.7712 77.5477 95.6744 75.3265 95.5842L73.4088 95.5072C72.6647 95.4777 71.9308 95.4491 71.2075 95.4213ZM71.4683 96.4947L72.9216 96.5515L74.2637 96.6048C76.7996 96.7066 79.4337 96.8172 82.1445 96.9353L84.5624 97.0417C88.5927 97.2209 92.6169 97.4084 96.5105 97.5964L102.642 97.8987L103.332 97.9336L107.041 108.167L103.459 108.186C102.021 108.193 100.622 108.199 99.3035 108.203L96.2346 108.21C95.4463 108.21 94.7304 108.21 94.0951 108.209L92.584 108.203C92.3519 108.201 92.1416 108.199 91.954 108.197L91.3359 108.188C91.2322 108.186 91.1447 108.183 91.074 108.18L90.9386 108.174C90.9465 108.175 90.9523 108.178 90.9946 108.193L90.9569 108.181C90.868 108.157 90.7742 108.157 90.6847 108.18L64.6637 114.94H64.3339L64.3359 114.878C64.4475 111.837 65.4045 108.386 67.028 104.684C68.2805 101.829 69.8284 99.0442 71.4683 96.4947Z" fill="#2E186A"/>
<path fill-rule="evenodd" clip-rule="evenodd" d="M148.273 34.5791C142.189 34.5791 137.272 39.5162 137.272 45.5858C137.272 45.7451 137.272 45.9044 137.29 46.0459L137.272 46.0282V56.5395H147.318C147.636 56.5749 147.955 56.5749 148.273 56.5749C154.357 56.5749 159.273 51.6378 159.273 45.5681C159.273 39.5162 154.339 34.5791 148.273 34.5791Z" fill="#5D21D1"/>
<path fill-rule="evenodd" clip-rule="evenodd" d="M142.861 46.5047C142.861 45.8323 143.321 45.3545 143.958 45.3545C144.595 45.3545 145.037 45.8323 145.037 46.5047C145.037 47.1595 144.612 47.6549 143.94 47.6549C143.303 47.6549 142.861 47.1595 142.861 46.5047Z" fill="white"/>
<path fill-rule="evenodd" clip-rule="evenodd" d="M146.629 46.5047C146.629 45.8323 147.089 45.3545 147.726 45.3545C148.363 45.3545 148.805 45.8323 148.805 46.5047C148.805 47.1595 148.38 47.6549 147.708 47.6549C147.054 47.6549 146.629 47.1595 146.629 46.5047Z" fill="white"/>
<path fill-rule="evenodd" clip-rule="evenodd" d="M150.378 46.5047C150.378 45.8323 150.838 45.3545 151.474 45.3545C152.111 45.3545 152.553 45.8323 152.553 46.5047C152.553 47.1595 152.129 47.6549 151.457 47.6549C150.82 47.6549 150.378 47.1595 150.378 46.5047Z" fill="white"/>
<path fill-rule="evenodd" clip-rule="evenodd" d="M165.006 45.9799C155.349 45.9799 147.497 38.123 147.497 28.4611C147.497 18.7993 155.349 10.9424 165.006 10.9424C169.639 10.9424 174.008 12.7473 177.315 16.0034C180.551 19.2063 182.391 23.471 182.515 28.0188C182.532 28.0895 182.55 28.1426 182.55 28.2134V45.449C182.55 45.7499 182.32 45.9799 182.019 45.9799H165.006Z" fill="#00AC45"/>
<path fill-rule="evenodd" clip-rule="evenodd" d="M165.002 11.4724C174.305 11.4724 181.875 18.9577 181.981 28.2479L182.016 28.2126V45.4482H165.002C155.629 45.4482 148.024 37.839 148.024 28.4603C148.024 19.0639 155.629 11.4724 165.002 11.4724ZM165.002 10.4111C155.063 10.4111 146.963 18.5158 146.963 28.4608C146.963 38.4058 155.063 46.5104 165.002 46.5104H182.016C182.6 46.5104 183.077 46.0326 183.077 45.4487V28.213C183.077 28.1069 183.059 28.0184 183.042 27.9122C182.9 23.2582 181.008 18.9051 177.701 15.6137C174.287 12.2515 169.777 10.4111 165.002 10.4111Z" fill="white"/>
<path fill-rule="evenodd" clip-rule="evenodd" d="M164.439 33.5421C163.873 33.5421 163.413 33.082 163.413 32.5157C163.431 31.631 163.449 31.047 163.466 30.7639C163.502 30.3923 163.608 30.0383 163.767 29.6667C163.944 29.2951 164.139 29.012 164.351 28.8173C164.563 28.605 165.076 28.2865 165.872 27.8441C166.738 27.3663 167.34 26.977 167.658 26.7116C167.994 26.4461 168.277 26.0568 168.507 25.579C168.755 25.1012 168.878 24.5704 168.878 24.0041C168.878 22.9247 168.489 22.0753 167.693 21.4559C166.915 20.8366 165.978 20.5357 164.917 20.5357C162.794 20.5357 161.415 21.6152 160.743 23.7741C160.566 24.3226 160.018 24.6588 159.47 24.535C158.851 24.3934 158.479 23.7564 158.656 23.137C159.576 20.0757 161.716 18.5361 165.041 18.5361C166.951 18.5361 168.472 19.0493 169.656 20.0934C170.824 21.1374 171.407 22.4646 171.407 24.0926C171.407 26.2161 170.187 27.9149 167.746 29.1713C166.685 29.7375 166.031 30.1799 165.783 30.4984C165.553 30.817 165.43 31.3124 165.43 31.9849V32.5334C165.465 33.082 165.005 33.5421 164.439 33.5421ZM165.961 36.9931C165.961 37.7717 165.324 38.3911 164.563 38.3911H164.493C163.715 38.3911 163.096 37.7541 163.096 36.9931C163.096 36.2145 163.732 35.5952 164.493 35.5952H164.563C165.324 35.5952 165.961 36.2145 165.961 36.9931Z" fill="white"/>
<path fill-rule="evenodd" clip-rule="evenodd" d="M166.549 71.7705H106.166C105.375 71.7705 104.69 72.3284 104.497 73.1203L96.3272 108.522H72.1351C72.1351 108.522 70.7296 115.937 78.899 115.937H157.168C157.958 115.937 158.643 115.379 158.837 114.587L168.218 73.9302C168.464 72.8324 167.656 71.7705 166.549 71.7705Z" fill="#A1F7C4"/>
<path fill-rule="evenodd" clip-rule="evenodd" d="M110.728 71.9004C111.021 71.9004 111.259 72.1381 111.259 72.4313C111.259 72.7245 111.021 72.9621 110.728 72.9621C110.191 72.9621 109.712 73.3236 109.574 73.8241L109.564 73.8661L99.4298 115.593C99.3606 115.878 99.0737 116.052 98.789 115.983C98.5144 115.916 98.3421 115.647 98.3922 115.372L98.3987 115.342L108.531 73.6205C108.764 72.6181 109.687 71.9004 110.728 71.9004Z" fill="white"/>
<path fill-rule="evenodd" clip-rule="evenodd" d="M135.084 98.6729C137.438 98.6729 139.346 96.7635 139.346 94.4082C139.346 92.0529 137.438 90.1436 135.084 90.1436C132.73 90.1436 130.822 92.0529 130.822 94.4082C130.822 96.7635 132.73 98.6729 135.084 98.6729Z" fill="white"/>
<path fill-rule="evenodd" clip-rule="evenodd" d="M151.682 99.3474C153.963 99.3474 155.82 101.205 155.82 103.488C155.82 105.771 153.963 107.629 151.682 107.629C149.401 107.629 147.544 105.771 147.544 103.488C147.544 101.205 149.401 99.3474 151.682 99.3474ZM151.678 98.2861C148.813 98.2861 146.478 100.622 146.478 103.489C146.478 106.355 148.813 108.691 151.678 108.691C154.543 108.691 156.878 106.355 156.878 103.489C156.878 100.622 154.543 98.2861 151.678 98.2861Z" fill="white"/>
<path fill-rule="evenodd" clip-rule="evenodd" d="M164.728 115.982H158.043C155.107 115.982 152.737 113.611 152.737 110.673V97.8613H170.034V110.673C170.034 113.593 167.664 115.982 164.728 115.982Z" fill="#00AC45"/>
</svg>
