<svg width="154" height="91" viewBox="0 0 154 91" fill="none" xmlns="http://www.w3.org/2000/svg">
<path fill-rule="evenodd" clip-rule="evenodd" d="M108.842 68.3337C103.042 65.3653 101.019 56.5071 103.911 46.0155C106.803 35.524 115.369 21.1844 109.474 15.1691C103.579 9.15368 98.7432 7.30038 92.311 15.4046C85.9262 23.4618 84.1878 14.6036 87.9175 8.22703C91.5998 1.91324 99.0751 -4.2749 111.623 4.00213C120.569 9.89186 122.734 23.2733 118.356 35.1156C114.12 46.5809 116.286 52.8947 119.478 55.5333C122.686 58.1719 116.602 72.3073 108.842 68.3337Z" fill="#00AC45"/>
<path fill-rule="evenodd" clip-rule="evenodd" d="M49.4662 29.3687C36.0171 29.3687 25.1123 43.1114 25.1123 60.0738V73.2353H73.8202V60.0738C73.8202 43.1114 62.9154 29.3687 49.4662 29.3687Z" fill="#5D21D1"/>
<path fill-rule="evenodd" clip-rule="evenodd" d="M86.6694 41.0367L72.999 37.1731L63.1531 38.4767C55.7885 27.5453 45.026 34.1732 42.9082 36.6391C42.0864 37.6128 47.1911 38.995 48.7399 43.157C45.5317 46.5338 41.4701 53.7272 47.9023 61.2817C41.3911 62.3968 38.5938 67.6426 38.5938 67.6426H57.4163C66.2981 70.6739 76.5707 68.6949 81.059 67.0615C87.8389 64.58 101.083 48.6698 86.6694 41.0367Z" fill="#00AC45"/>
<path fill-rule="evenodd" clip-rule="evenodd" d="M68.7352 47.1604C68.7879 45.9646 68.2157 44.9684 67.4571 44.9354C66.6985 44.9023 66.0408 45.845 65.988 47.0408C65.9353 48.2366 66.5075 49.2328 67.2661 49.2659C68.0247 49.2989 68.6824 48.3563 68.7352 47.1604Z" fill="#2E186A"/>
<path fill-rule="evenodd" clip-rule="evenodd" d="M58.1717 47.8518C58.2244 46.656 57.6522 45.6598 56.8936 45.6268C56.135 45.5938 55.4773 46.5364 55.4246 47.7322C55.3718 48.9281 55.9441 49.9242 56.7027 49.9573C57.4613 49.9903 58.119 49.0477 58.1717 47.8518Z" fill="#2E186A"/>
<path fill-rule="evenodd" clip-rule="evenodd" d="M59.3278 51.7179L61.1768 53.3042C61.4455 53.5398 61.888 53.524 62.1567 53.2728L63.8951 51.7336C64.306 51.3566 64.0374 50.7755 63.4526 50.7598L59.8809 50.7127C59.2646 50.697 58.9011 51.3409 59.3278 51.7179Z" fill="#2E186A"/>
<path fill-rule="evenodd" clip-rule="evenodd" d="M61.5101 52.1584C61.7718 52.1674 61.9765 52.3856 61.9674 52.6457C61.9391 53.4502 61.5167 54.6832 60.9961 55.4175C60.2239 56.5067 59.1808 56.503 58.5761 55.0912C58.4735 54.8517 58.5857 54.575 58.8266 54.4731C59.0676 54.3712 59.346 54.4826 59.4486 54.7221L59.4796 54.7934C59.7474 55.3999 59.8615 55.3818 60.2209 54.8748C60.6361 54.2891 60.9979 53.233 61.0197 52.6128C61.0285 52.3621 61.233 52.1639 61.4822 52.1582L61.5101 52.1584Z" fill="#2E186A"/>
<path fill-rule="evenodd" clip-rule="evenodd" d="M61.4306 52.1584C61.6923 52.1674 61.897 52.3856 61.8879 52.6457C61.8621 53.3815 62.0694 54.5986 62.3699 55.213C62.4364 55.349 62.5029 55.4477 62.5607 55.5045L62.5912 55.5324C62.5942 55.5353 62.5957 55.5371 62.5963 55.5383L62.5964 55.5399C62.6034 55.5377 62.6132 55.5333 62.6266 55.5256L62.6411 55.5168C62.6847 55.4889 62.7368 55.4436 62.7954 55.3792C62.9414 55.2188 63.1056 54.9654 63.282 54.6165C63.3996 54.384 63.6845 54.2902 63.9185 54.4071C64.1525 54.5239 64.2468 54.8071 64.1293 55.0396C63.689 55.9103 63.2531 56.3891 62.7435 56.4713C62.2049 56.5583 61.8042 56.212 61.5171 55.625C61.1422 54.8586 60.9094 53.4917 60.9402 52.6128C60.949 52.3621 61.1535 52.1639 61.4027 52.1582L61.4306 52.1584Z" fill="#2E186A"/>
<path fill-rule="evenodd" clip-rule="evenodd" d="M46.713 36.2391C49.4408 34.9536 52.3244 34.7209 55.0329 36.2295C55.4161 36.443 55.7912 36.6903 56.1576 36.9724C56.3646 37.1317 56.4024 37.4277 56.2421 37.6334C56.0817 37.8391 55.7839 37.8767 55.5769 37.7173C55.2474 37.4636 54.9114 37.2421 54.5693 37.0516C52.171 35.7158 49.5956 35.9236 47.1193 37.0905C46.6767 37.2991 46.2762 37.5225 45.9256 37.7453C45.8242 37.8097 45.7333 37.8701 45.6537 37.9252L45.586 37.9728L45.5056 38.0315C45.2986 38.1908 45.0008 38.1532 44.8405 37.9474C44.6802 37.7417 44.718 37.4457 44.9251 37.2864L44.9657 37.2558C45.062 37.1842 45.2133 37.0794 45.4148 36.9513C45.7976 36.7081 46.2327 36.4654 46.713 36.2391Z" fill="#2E186A"/>
<path fill-rule="evenodd" clip-rule="evenodd" d="M28.7552 49.0366C32.0304 47.0685 35.3676 46.3107 38.6909 46.5717C41.3142 46.7777 43.7919 47.6028 46.0642 48.8485C46.9903 49.3562 47.819 49.9002 48.5397 50.445C48.7648 50.6152 48.9653 50.775 49.1401 50.9211L49.2911 51.0494C49.361 51.1099 49.412 51.1557 49.4435 51.1851C49.6344 51.3632 49.6439 51.6613 49.4648 51.8511C49.2925 52.0336 49.0084 52.0493 48.8171 51.892L48.7463 51.8286C48.7025 51.7896 48.6501 51.744 48.5891 51.6923L48.4668 51.5901C48.3187 51.4679 48.1514 51.3355 47.9656 51.1951C47.2803 50.6769 46.4898 50.1581 45.6062 49.6737C43.4446 48.4886 41.0934 47.7057 38.6162 47.5111C35.4882 47.2655 32.3489 47.9783 29.2459 49.843C29.0218 49.9776 28.7303 49.9063 28.5948 49.6836C28.4594 49.4609 28.5312 49.1712 28.7552 49.0366Z" fill="#2E186A"/>
<path fill-rule="evenodd" clip-rule="evenodd" d="M31.9065 52.3472C34.5505 50.8451 37.3559 50.1948 40.2383 50.2564C42.4869 50.3046 44.6576 50.7798 46.6766 51.5417C47.4236 51.8235 48.0977 52.1258 48.6883 52.4287L48.8395 52.5072C48.9615 52.5714 49.0737 52.6326 49.1757 52.69L49.3219 52.7738C49.3728 52.8036 49.4107 52.8265 49.4352 52.8418C49.6568 52.9803 49.7235 53.2712 49.5841 53.4915C49.4447 53.7118 49.152 53.7781 48.9304 53.6395L48.8383 53.5844C48.8165 53.5717 48.7914 53.5571 48.7631 53.541L48.6499 53.4773C48.5319 53.4118 48.3996 53.341 48.2535 53.2661C47.6937 52.979 47.0522 52.6914 46.34 52.4227C44.4159 51.6966 42.3495 51.2442 40.2178 51.1986C37.5015 51.1404 34.8658 51.7514 32.3771 53.1654C31.3337 53.7581 30.3238 54.4887 29.3511 55.3646C29.157 55.5393 28.8572 55.5246 28.6814 55.3318C28.5055 55.139 28.5203 54.841 28.7144 54.6663C29.7377 53.7449 30.8031 52.9741 31.9065 52.3472Z" fill="#2E186A"/>
<path fill-rule="evenodd" clip-rule="evenodd" d="M49.2035 62.2096C49.4653 62.204 49.6821 62.4104 49.6877 62.6706C49.6933 62.9308 49.4856 63.1462 49.2238 63.1517C47.771 63.1826 46.3387 64.0423 45.002 65.4743C44.5146 65.9965 44.0756 66.5578 43.6934 67.119C43.5764 67.2906 43.4724 67.4512 43.382 67.5976L43.344 67.6594C43.3097 67.7157 43.2802 67.7654 43.2556 67.8079L43.2282 67.8556C43.1017 68.0835 42.8134 68.1663 42.5841 68.0406C42.3548 67.9149 42.2715 67.6283 42.3979 67.4005L42.4428 67.3221C42.4618 67.2895 42.4848 67.2507 42.5118 67.206L42.5328 67.1714C42.6399 66.9957 42.7652 66.8005 42.9081 66.5907C43.3159 65.9921 43.7839 65.3937 44.3068 64.8334C45.8012 63.2324 47.4431 62.247 49.2035 62.2096Z" fill="#2E186A"/>
<path fill-rule="evenodd" clip-rule="evenodd" d="M53.7387 62.2091C54.0005 62.2035 54.2172 62.4099 54.2228 62.6701C54.2284 62.9303 54.0207 63.1457 53.759 63.1512C52.3062 63.1821 50.8738 64.0418 49.5372 65.4738C49.0497 65.996 48.6108 66.5573 48.2285 67.1185C48.1116 67.2901 48.0076 67.4508 47.9171 67.5971L47.8792 67.6589C47.8449 67.7152 47.8153 67.7649 47.7907 67.8074L47.7634 67.8551C47.6369 68.083 47.3485 68.1658 47.1192 68.0401C46.8899 67.9144 46.8066 67.6278 46.9331 67.4L46.9779 67.3216C46.9969 67.289 47.02 67.2502 47.047 67.2055L47.068 67.1709C47.175 66.9952 47.3004 66.8 47.4433 66.5902C47.851 65.9917 48.3191 65.3932 48.842 64.8329C50.3364 63.2319 51.9782 62.2465 53.7387 62.2091Z" fill="#2E186A"/>
<rect x="63.9541" y="72.1338" width="28.8541" height="18.8661" fill="#2E186A"/>
<rect y="67.6255" width="73.9627" height="5.59131" fill="#2E186A"/>
<path fill-rule="evenodd" clip-rule="evenodd" d="M74.2941 72.747V60.0566C74.2941 51.7481 71.7181 43.9423 67.0559 38.0526C63.8319 34.0004 59.8809 31.1891 55.5664 29.8384H98.1582C111.323 29.8384 122.038 43.4083 122.038 60.0723V72.7627H74.2941V72.747Z" fill="white"/>
<path fill-rule="evenodd" clip-rule="evenodd" d="M98.1592 30.311C111.055 30.311 121.565 43.6611 121.565 60.0738V72.293H98.1592H74.7693V60.0738C74.7693 51.6554 72.1616 43.7396 67.4362 37.7714C64.7654 34.3946 61.5888 31.8816 58.1277 30.311H98.1592ZM98.1589 29.3687H49.4668C62.916 29.3687 73.8207 43.1114 73.8207 60.0738V73.2354H98.1747H122.529V60.0738C122.513 43.1114 111.608 29.3687 98.1589 29.3687Z" fill="#2E186A"/>
<path fill-rule="evenodd" clip-rule="evenodd" d="M80.8358 46.5722C84.1592 46.3112 87.4964 47.069 90.7715 49.0371C90.9956 49.1717 91.0674 49.4614 90.9319 49.6841C90.7964 49.9067 90.505 49.9781 90.2809 49.8435C87.1778 47.9788 84.0386 47.266 80.9105 47.5116C78.4333 47.7062 76.0822 48.4891 73.9205 49.6742C73.0369 50.1586 72.2465 50.6774 71.5611 51.1956L71.4064 51.3139C71.2312 51.4496 71.0748 51.5765 70.9377 51.6928L70.8686 51.7519L70.7322 51.8727C70.5412 52.0508 70.2412 52.0413 70.062 51.8516C69.8828 51.6618 69.8923 51.3637 70.0833 51.1856L70.1651 51.1117C70.1998 51.0809 70.2421 51.0442 70.2917 51.0019L70.3223 50.9758C70.5117 50.8152 70.7338 50.637 70.987 50.4455C71.7077 49.9007 72.5365 49.3567 73.4625 48.849C75.7348 47.6033 78.2126 46.7782 80.8358 46.5722Z" fill="#2E186A"/>
<path fill-rule="evenodd" clip-rule="evenodd" d="M79.2888 50.2569C82.1712 50.1952 84.9765 50.8456 87.6206 52.3477C88.724 52.9746 89.7894 53.7454 90.8127 54.6668C91.0067 54.8415 91.0215 55.1394 90.8457 55.3323C90.6699 55.5251 90.3701 55.5398 90.176 55.3651C89.2032 54.4892 88.1934 53.7586 87.15 53.1658C84.6612 51.7519 82.0256 51.1409 79.3092 51.1991C77.1776 51.2447 75.1112 51.6971 73.187 52.4231C72.4749 52.6919 71.8334 52.9795 71.2736 53.2666L71.1321 53.3401C71.0408 53.3881 70.9558 53.4341 70.8772 53.4778L70.7117 53.5716C70.6557 53.604 70.6171 53.6273 70.5967 53.64C70.375 53.7785 70.0823 53.7123 69.9429 53.492C69.8035 53.2717 69.8702 52.9808 70.0919 52.8423L70.1808 52.7886C70.2119 52.7703 70.2488 52.7489 70.2914 52.7245C70.448 52.635 70.6309 52.5357 70.8388 52.4291C71.4294 52.1263 72.1034 51.824 72.8504 51.5422C74.8695 50.7803 77.0401 50.3051 79.2888 50.2569Z" fill="#2E186A"/>
<path fill-rule="evenodd" clip-rule="evenodd" d="M149.143 49.4229L148.985 71.9452L142.679 63.9666L137.068 71.0342V49.4229H149.143Z" fill="#00AC45"/>
<path fill-rule="evenodd" clip-rule="evenodd" d="M143.106 61.5497C141.62 61.5497 140.403 60.3404 140.403 58.864C140.403 58.8483 140.403 58.8326 140.403 58.8169V56.9008C140.403 56.8851 140.403 56.8694 140.403 56.8537C140.403 55.3773 141.62 54.168 143.106 54.168C144.591 54.168 145.808 55.3773 145.808 56.8537V58.864C145.808 60.3561 144.591 61.5497 143.106 61.5497ZM143.106 55.5025C142.347 55.5025 141.746 56.115 141.746 56.8532V56.9003V58.8792C141.746 59.6174 142.363 60.23 143.106 60.23C143.848 60.23 144.465 59.6174 144.465 58.8792V56.8532C144.48 56.0993 143.864 55.5025 143.106 55.5025Z" fill="white"/>
<path fill-rule="evenodd" clip-rule="evenodd" d="M152.888 48.9673C153.15 48.9673 153.362 49.1782 153.362 49.4385C153.362 49.6894 153.165 49.8945 152.916 49.9088L152.888 49.9096H106.835C106.574 49.9096 106.361 49.6987 106.361 49.4385C106.361 49.1875 106.559 48.9824 106.808 48.9681L106.835 48.9673H152.888Z" fill="#2E186A"/>
</svg>
