<svg width="20" height="21" viewBox="0 0 20 21" fill="none" xmlns="http://www.w3.org/2000/svg">
<path d="M19.6799 16.6499L12.6799 2.64986C12.4301 2.15327 12.0472 1.73584 11.574 1.44417C11.1007 1.1525 10.5558 0.998047 9.99988 0.998047C9.44399 0.998047 8.89903 1.1525 8.42581 1.44417C7.95258 1.73584 7.5697 2.15327 7.31988 2.64986L0.319884 16.6499C0.0448933 17.2024 -0.0530053 17.8262 0.0395358 18.4364C0.132077 19.0466 0.410554 19.6134 0.837 20.0595C1.26345 20.5057 1.81711 20.8094 2.42249 20.9294C3.02788 21.0493 3.65554 20.9797 4.21988 20.7299L9.58988 18.3299C9.71972 18.2754 9.85909 18.2474 9.99988 18.2474C10.1407 18.2474 10.2801 18.2754 10.4099 18.3299L15.7799 20.7299C16.3442 20.9797 16.9719 21.0493 17.5773 20.9294C18.1827 20.8094 18.7363 20.5057 19.1628 20.0595C19.5892 19.6134 19.8677 19.0466 19.9602 18.4364C20.0528 17.8262 19.9549 17.2024 19.6799 16.6499ZM17.6799 18.6499C17.5372 18.7985 17.352 18.8994 17.1497 18.9388C16.9474 18.9782 16.738 18.9541 16.5499 18.8699L11.1799 16.4799C10.7959 16.3089 10.3802 16.2206 9.95988 16.2206C9.53955 16.2206 9.1239 16.3089 8.73988 16.4799L3.40988 18.8999C3.22285 18.9811 3.01543 19.0033 2.81545 18.9633C2.61547 18.9234 2.43249 18.8232 2.29103 18.6763C2.14958 18.5295 2.05641 18.3428 2.02404 18.1415C1.99166 17.9401 2.02161 17.7337 2.10988 17.5499L9.10988 3.54986C9.1938 3.38606 9.3213 3.2486 9.47833 3.15261C9.63536 3.05662 9.81584 3.00582 9.99988 3.00582C10.1839 3.00582 10.3644 3.05662 10.5214 3.15261C10.6785 3.2486 10.806 3.38606 10.8899 3.54986L17.8899 17.5499C17.9804 17.733 18.0126 17.9395 17.9822 18.1415C17.9518 18.3436 17.8603 18.5314 17.7199 18.6799L17.6799 18.6499Z" fill="#00AC45"/>
</svg>
