<svg width="46" height="55" viewBox="0 0 46 55" fill="none" xmlns="http://www.w3.org/2000/svg">
<path d="M0 0H45.628C45.6266 18.3332 45.6285 36.6668 45.6271 55H0V0ZM27.2532 5.6351C26.4458 5.96894 25.6819 6.43514 25.0733 7.06757C24.3232 7.81998 23.8382 8.81237 23.6271 9.84825C23.4851 10.4935 23.4471 11.1566 23.4613 11.8161C23.4613 19.4011 23.4613 26.9862 23.4613 34.5712C23.443 35.5751 23.5799 36.594 23.9619 37.5273C24.2463 38.2298 24.6804 38.8728 25.2336 39.3916C26.1069 40.2361 27.244 40.7508 28.4045 41.0682C29.6537 41.4039 30.9502 41.5257 32.2403 41.5463C33.4827 41.5619 34.7366 41.484 35.9446 41.1772C36.8958 40.9377 37.8222 40.542 38.587 39.9192C39.3303 39.328 39.8789 38.5128 40.2031 37.6239C40.5484 36.6796 40.6629 35.6667 40.6624 34.666C40.6602 31.7251 40.6656 28.7836 40.6597 25.8422C38.2545 25.845 35.8498 25.8399 33.4447 25.845C33.4438 28.8162 33.4442 31.7869 33.4442 34.7581C33.4506 35.118 33.452 35.4899 33.3073 35.8265C33.1534 36.1672 32.7848 36.3605 32.4212 36.3719C32.0694 36.3902 31.6609 36.3678 31.4027 36.0962C31.1403 35.8507 31.0839 35.4697 31.0693 35.1286C31.0674 27.1584 31.0697 19.1886 31.0679 11.2184C31.0665 10.9327 31.1119 10.6336 31.2735 10.3918C31.4544 10.0965 31.8121 9.95129 32.1482 9.94763C32.5164 9.91878 32.9235 10.0053 33.1736 10.297C33.4373 10.6162 33.457 11.0513 33.4442 11.4465C33.4442 12.9733 33.4442 14.5001 33.4442 16.0274C33.4502 17.1947 33.4323 18.3629 33.4534 19.5303C35.8558 19.5252 38.2582 19.5312 40.6606 19.5271C40.6643 16.8348 40.6611 14.1425 40.6624 11.4502C40.6524 10.4001 40.5035 9.33443 40.0841 8.36449C39.7557 7.60978 39.2552 6.92377 38.6085 6.41041C37.8662 5.79675 36.9627 5.41024 36.0385 5.16249C34.889 4.86162 33.6965 4.76957 32.5123 4.7659C30.7322 4.78331 28.916 4.96008 27.2532 5.6351ZM4.9816 5.03518C4.98206 17.1535 4.98114 29.2723 4.98206 41.3906C7.51728 41.3998 10.053 41.3947 12.5882 41.3929C12.5868 37.3963 12.5882 33.3998 12.5877 29.4032C12.5946 28.7062 12.574 28.0088 12.5983 27.3127C12.9468 27.3168 13.2953 27.3127 13.6442 27.3136C14.4836 27.3067 15.3263 27.3438 16.162 27.2445C17.034 27.1492 17.9032 26.9573 18.7037 26.5914C19.2555 26.335 19.7766 25.9984 20.2007 25.5592C20.9114 24.8691 21.3598 23.9472 21.5965 22.9933C21.8443 22.0371 21.8818 21.0433 21.8658 20.0606C21.8658 17.3884 21.8658 14.7167 21.8658 12.0446C21.8754 11.327 21.8544 10.6057 21.7312 9.89679C21.5471 8.76199 21.1139 7.63268 20.3097 6.79097C19.707 6.14342 18.9207 5.68639 18.0868 5.40612C16.9103 5.01045 15.6574 4.90833 14.4232 4.92619C11.2858 4.92207 8.14833 4.93443 5.01137 4.92023C5.00404 4.94863 4.98893 5.00633 4.9816 5.03518ZM9.58172 43.7825C9.19384 44.0572 9.01524 44.528 8.91632 44.9754C8.7739 45.6816 8.76199 46.4052 8.76245 47.1228C8.77527 47.79 8.79267 48.4692 8.99005 49.1121C9.11049 49.4826 9.32573 49.8567 9.69072 50.0312C10.1748 50.2694 10.7468 50.2712 11.2661 50.1654C11.3334 50.0308 11.4712 50.1233 11.5706 50.0468C11.9727 49.848 12.1806 49.4112 12.2617 48.9898C12.3519 48.4888 12.3775 47.9682 12.2983 47.4649C11.9328 47.4726 11.5683 47.4397 11.2033 47.4493C11.2386 47.8129 11.2473 48.1802 11.2207 48.5447C11.1978 48.77 11.185 49.0118 11.0572 49.2069C10.9304 49.4139 10.6451 49.435 10.4344 49.3654C10.2444 49.3022 10.1661 49.0933 10.1253 48.9157C10.0264 48.4614 10.052 47.9938 10.0232 47.5336C10.0296 47.0303 10.0085 46.527 10.0388 46.0246C10.0502 45.574 10.0484 45.116 10.1702 44.6782C10.2009 44.5866 10.2393 44.495 10.303 44.4218C10.4399 44.2871 10.668 44.2693 10.8365 44.3499C10.9812 44.408 11.0238 44.5715 11.0692 44.7057C11.1617 45.1444 11.1539 45.5983 11.1177 46.0434C11.496 46.0429 11.8742 46.0182 12.2525 46.0086C12.3038 45.4215 12.3235 44.7955 12.0803 44.245C11.9022 43.8292 11.4662 43.5865 11.0316 43.5356C10.5425 43.4798 10.0007 43.4912 9.58172 43.7825ZM22.9493 43.6515C22.5431 43.8122 22.2858 44.2052 22.1566 44.6068C21.9597 45.2264 21.9176 45.8822 21.897 46.5279C21.8878 47.3376 21.8709 48.1614 22.0774 48.9514C22.185 49.3599 22.3856 49.7789 22.7575 50.0074C23.1298 50.224 23.5818 50.2629 24.0017 50.2071C24.3415 50.1627 24.5796 49.8856 24.7436 49.6067C24.8398 49.7624 24.9153 49.9318 25.0229 50.0807C25.1617 50.1462 25.3307 50.0908 25.4809 50.1155C25.5097 50.0688 25.5226 50.0184 25.5198 49.9644C25.5184 48.8827 25.5152 47.8015 25.5212 46.7198C24.9501 46.712 24.3786 46.7134 23.8075 46.7179C23.8107 47.028 23.7846 47.3403 23.8222 47.649C24.0338 47.643 24.2463 47.6471 24.4583 47.6458C24.4418 48.1399 24.5224 48.6665 24.3035 49.1286C24.1698 49.4048 23.8094 49.4464 23.5451 49.364C23.4041 49.3191 23.3377 49.1758 23.2951 49.0462C23.2007 48.7357 23.1907 48.4087 23.1714 48.0872C23.149 47.415 23.1577 46.7422 23.1609 46.0699C23.1856 45.5708 23.1572 45.051 23.3326 44.5752C23.4448 44.2345 24.0159 44.196 24.1391 44.5482C24.303 44.9695 24.2673 45.4357 24.2481 45.8781C24.6277 45.9234 25.0124 45.8561 25.3948 45.8707C25.4246 45.3006 25.4365 44.6906 25.1635 44.1713C24.9977 43.8342 24.6502 43.6199 24.2875 43.5544C23.8451 43.4779 23.3716 43.4839 22.9493 43.6515ZM28.7328 43.6978C28.3619 43.8832 28.1379 44.2638 28.017 44.6471C27.8403 45.2108 27.8091 45.8066 27.7784 46.3933C27.772 47.1553 27.7578 47.9242 27.8934 48.6775C27.9712 49.0984 28.1086 49.5362 28.4292 49.8375C28.7246 50.1178 29.1436 50.2162 29.5397 50.2268C29.9766 50.2455 30.4593 50.1984 30.8 49.8957C31.2048 49.5545 31.2969 48.9935 31.3399 48.4948C31.3523 48.1582 31.3793 47.8134 31.3138 47.4818C30.9498 47.4548 30.577 47.4406 30.2102 47.4571C30.2573 47.7703 30.2344 48.0891 30.2381 48.405C30.2257 48.6757 30.2143 48.9665 30.0705 49.2046C29.9249 49.4423 29.5814 49.4441 29.3588 49.3246C29.1358 49.1506 29.1211 48.8465 29.085 48.5891C29.0296 48.0423 29.047 47.491 29.0433 46.9423C29.0456 46.2989 29.03 45.6523 29.1115 45.013C29.1427 44.8074 29.1789 44.5894 29.3117 44.4222C29.5177 44.2253 29.9363 44.2697 30.0306 44.5633C30.2065 45.035 30.1383 45.5525 30.1373 46.0452C30.5115 46.0402 30.8852 46.0214 31.2593 46.0077C31.3276 45.4293 31.3244 44.8165 31.1045 44.2688C30.9319 43.8411 30.4895 43.5924 30.0485 43.5356C29.6084 43.4857 29.1349 43.4885 28.7328 43.6978ZM33.4822 43.5114C33.1401 43.5265 32.7816 43.6011 32.5118 43.8242C32.1835 44.0829 32.0191 44.49 31.9183 44.8838C31.7415 45.6326 31.737 46.407 31.7425 47.1722C31.7553 47.8033 31.7869 48.4421 31.9614 49.0521C32.0676 49.4139 32.2503 49.7826 32.5805 49.9886C32.9093 50.2066 33.3192 50.2332 33.7025 50.2304C34.1023 50.224 34.5273 50.1361 34.8272 49.8535C35.1528 49.5398 35.2911 49.0906 35.3818 48.6597C35.4844 48.0771 35.5215 47.4836 35.5123 46.8924C35.5201 46.2815 35.4885 45.6665 35.3722 45.0657C35.2801 44.6233 35.1221 44.1612 34.7714 43.8562C34.4206 43.5489 33.9301 43.4935 33.4822 43.5114ZM4.98755 43.6103C4.96969 45.7649 4.99396 47.921 4.97519 50.0761C5.09609 50.132 5.23164 50.1045 5.35987 50.11C5.63647 50.1036 5.91353 50.1205 6.18922 50.1031C6.19288 50.0679 6.20067 49.9978 6.20433 49.9625C6.20067 49.1863 6.20937 48.4096 6.20021 47.6334C6.52993 47.6045 6.86607 47.654 7.19076 47.5711C7.57452 47.4983 7.93127 47.2606 8.11032 46.908C8.36586 46.4134 8.38235 45.8378 8.35762 45.2933C8.32281 44.8165 8.1836 44.3036 7.80304 43.9849C7.4811 43.7161 7.05017 43.6259 6.6403 43.6117C6.08938 43.6085 5.53847 43.6121 4.98755 43.6103ZM12.8744 43.6094C12.8753 45.775 12.8707 47.9402 12.8767 50.1059C13.1478 50.115 13.4189 50.1059 13.69 50.1105C13.7921 50.1095 13.8984 50.121 13.995 50.0798C13.9813 49.1854 13.9932 48.2906 13.9886 47.3957C13.9982 46.7642 13.9639 46.1327 13.9872 45.5016C14.0142 45.7196 14.0129 45.9408 14.0468 46.1588C14.2281 47.4786 14.4818 48.7874 14.6874 50.1031C15.035 50.1109 15.384 50.1196 15.7316 50.0999C15.8914 49.0773 16.081 48.0593 16.2403 47.0367C16.3278 46.4995 16.3603 45.955 16.4249 45.416C16.4226 46.9799 16.4125 48.5452 16.4226 50.11C16.7922 50.1091 17.1613 50.1127 17.5308 50.1077C17.5382 47.9416 17.5313 45.7755 17.5341 43.6094C17.0193 43.6172 16.5041 43.6011 15.9898 43.6162C15.9211 43.7788 15.9253 43.9657 15.8827 44.1378C15.6532 45.4531 15.4252 46.7688 15.1962 48.084C14.9343 46.598 14.6897 45.1082 14.4479 43.6185C13.9236 43.6011 13.3988 43.6162 12.8744 43.6094ZM19.1721 43.6112C18.8493 45.3619 18.5095 47.1095 18.1743 48.858C18.1088 49.2765 17.9938 49.6878 17.9545 50.11C18.3272 50.1141 18.7 50.1013 19.0728 50.1159C19.1928 49.7294 19.2152 49.3173 19.2995 48.9212C19.6205 48.917 19.9415 48.9157 20.2625 48.9216C20.3404 49.3191 20.3953 49.7216 20.4938 50.1146C20.9119 50.0985 21.3309 50.1224 21.7495 50.1022C21.7092 49.7432 21.6103 49.3938 21.5462 49.0388C21.1771 47.2565 20.813 45.4728 20.442 43.6904C20.4434 43.5535 20.285 43.5933 20.1966 43.5874C19.8554 43.602 19.5097 43.5576 19.1721 43.6112ZM36.001 43.6089C35.9991 45.7764 35.9941 47.9439 36.0037 50.1114C36.3746 50.0912 36.7529 50.1457 37.1188 50.0821C37.1106 48.5264 37.1124 46.9703 37.1129 45.4151C37.1399 45.9715 37.2237 46.5229 37.3116 47.0724C37.4742 48.0707 37.6491 49.0672 37.8163 50.0651C37.8525 50.1402 37.945 50.1013 38.01 50.1105C38.2925 50.0958 38.5783 50.1356 38.8581 50.0889C39.0372 48.994 39.2391 47.9027 39.4045 46.8054C39.4782 46.3415 39.4883 45.8703 39.5515 45.4059C39.5679 45.8405 39.5569 46.276 39.5473 46.7106C39.5515 47.8422 39.5405 48.9738 39.5524 50.105C39.921 50.115 40.2901 50.1072 40.6592 50.1105C40.6647 47.9439 40.6634 45.7769 40.6597 43.6103C40.144 43.6107 39.6284 43.6107 39.1127 43.6112C38.9836 44.2436 38.8833 44.8816 38.7729 45.5177C38.7418 45.71 38.6951 45.901 38.702 46.0974C38.6919 46.1089 38.6717 46.1313 38.6617 46.1428C38.5545 46.7898 38.4377 47.436 38.3219 48.0817C38.0663 46.5929 37.8236 45.1018 37.5708 43.6126C37.0478 43.6071 36.5244 43.6139 36.001 43.6089ZM26.0739 48.6899C26.0712 49.1593 26.0753 49.6287 26.0726 50.0985C26.4334 50.1237 26.7961 50.1017 27.1579 50.1105C27.2399 50.1063 27.3319 50.126 27.4034 50.0738C27.3851 49.6136 27.3993 49.1524 27.397 48.6917C26.956 48.6826 26.5149 48.6839 26.0739 48.6899Z" fill="#606060"/>
<path d="M12.5931 10.179C13.188 10.1749 13.8236 10.2056 14.3484 10.5179C14.6855 10.7121 14.8824 11.0762 14.9689 11.4453C15.0614 11.8208 15.0422 12.2101 15.0449 12.5934C15.0449 14.9898 15.0449 17.3867 15.0445 19.7832C15.0518 20.3021 15.0422 20.8598 14.7596 21.3146C14.5032 21.7373 14.0063 21.9333 13.5369 22.0006C13.2264 22.0528 12.9095 22.0716 12.5944 22.0583C12.5784 19.2849 12.5922 16.5111 12.5876 13.7373C12.5912 12.5512 12.5807 11.3651 12.5931 10.179Z" fill="#606060"/>
<path d="M33.2887 44.4213C33.4041 44.2944 33.59 44.3224 33.7356 44.2578C33.8103 44.354 33.9458 44.3792 34.0099 44.4859C34.1144 44.6411 34.1565 44.8284 34.1803 45.0121C34.2673 45.6349 34.2394 46.265 34.2444 46.8924C34.2398 47.5184 34.2682 48.1486 34.1743 48.77C34.1363 48.9733 34.0905 49.2101 33.9069 49.3338C33.7452 49.4203 33.5378 49.4208 33.372 49.3466C33.143 49.2069 33.1064 48.9193 33.0638 48.6789C32.9823 47.948 33.0047 47.2116 33.0015 46.4784C32.9983 46.0205 33.013 45.563 33.056 45.1073C33.0876 44.8687 33.1188 44.6063 33.2887 44.4213Z" fill="#606060"/>
<path d="M6.20215 44.4773C6.4554 44.4282 6.76863 44.4539 6.92296 44.6897C7.09973 44.9778 7.10386 45.3341 7.10523 45.6624C7.09012 45.9857 7.07638 46.3484 6.84282 46.5999C6.67155 46.7606 6.42334 46.7244 6.20856 46.7272C6.19665 45.9775 6.2081 45.2274 6.20215 44.4773Z" fill="#606060"/>
<path d="M19.4678 48.0278C19.5365 47.1274 19.7055 46.2372 19.7622 45.3359C19.8644 46.2331 19.988 47.1284 20.0933 48.0255C19.8845 48.0301 19.6761 48.0287 19.4678 48.0278Z" fill="#606060"/>
<path d="M45.6259 0H45.6557V55H45.625C45.6264 36.6668 45.6245 18.3332 45.6259 0Z" fill="white"/>
<path d="M27.2502 5.63628C28.913 4.96126 30.7292 4.78449 32.5093 4.76709C33.6936 4.77075 34.8861 4.8628 36.0355 5.16368C36.9597 5.41143 37.8632 5.79794 38.6056 6.41159C39.2522 6.92496 39.7527 7.61097 40.0811 8.36567C40.5006 9.33562 40.6494 10.4013 40.6595 11.4514C40.6581 14.1436 40.6613 16.8359 40.6576 19.5282C38.2552 19.5324 35.8528 19.5264 33.4504 19.5315C33.4293 18.3641 33.4472 17.1959 33.4412 16.0286C33.4412 14.5013 33.4412 12.9745 33.4412 11.4477C33.4541 11.0525 33.4344 10.6174 33.1706 10.2982C32.9205 10.0065 32.5134 9.91996 32.1452 9.94881C31.8091 9.95248 31.4514 10.0976 31.2705 10.393C31.1089 10.6348 31.0635 10.9339 31.0649 11.2196C31.0668 19.1898 31.0645 27.1596 31.0663 35.1297C31.0809 35.4709 31.1373 35.8519 31.3997 36.0974C31.658 36.369 32.0665 36.3914 32.4182 36.3731C32.7818 36.3616 33.1504 36.1684 33.3043 35.8277C33.449 35.4911 33.4476 35.1192 33.4412 34.7593C33.4412 31.7881 33.4408 28.8173 33.4417 25.8461C35.8469 25.8411 38.2516 25.8461 40.6567 25.8434C40.6627 28.7848 40.6572 31.7262 40.6595 34.6672C40.6599 35.6678 40.5454 36.6808 40.2001 37.6251C39.8759 38.514 39.3273 39.3292 38.584 39.9204C37.8192 40.5432 36.8928 40.9389 35.9416 41.1784C34.7336 41.4852 33.4797 41.563 32.2373 41.5475C30.9472 41.5269 29.6508 41.4051 28.4015 41.0694C27.241 40.752 26.1039 40.2373 25.2306 39.3928C24.6774 38.874 24.2433 38.231 23.9589 37.5285C23.577 36.5952 23.44 35.5762 23.4583 34.5724C23.4583 26.9874 23.4583 19.4023 23.4583 11.8173C23.4441 11.1578 23.4822 10.4947 23.6241 9.84944C23.8352 8.81355 24.3202 7.82117 25.0703 7.06875C25.679 6.43632 26.4428 5.97013 27.2502 5.63628Z" fill="white"/>
<path d="M4.979 5.03584C4.98633 5.00699 5.00144 4.94929 5.00877 4.9209C8.14574 4.93509 11.2832 4.92273 14.4206 4.92685C15.6548 4.90899 16.9077 5.01111 18.0842 5.40679C18.9181 5.68705 19.7044 6.14409 20.3071 6.79163C21.1113 7.63335 21.5445 8.76266 21.7286 9.89746C21.8518 10.6064 21.8728 11.3276 21.8632 12.0453C21.8632 14.7174 21.8632 17.3891 21.8632 20.0612C21.8793 21.044 21.8417 22.0378 21.5939 22.994C21.3572 23.9479 20.9089 24.8697 20.1981 25.5599C19.774 25.999 19.2529 26.3356 18.7011 26.5921C17.9006 26.958 17.0314 27.1499 16.1594 27.2451C15.3237 27.3445 14.481 27.3074 13.6416 27.3143C13.2927 27.3134 12.9442 27.3175 12.5957 27.3134C12.5714 28.0094 12.592 28.7069 12.5851 29.4039C12.5856 33.4005 12.5842 37.397 12.5856 41.3935C10.0504 41.3954 7.51468 41.4004 4.97946 41.3913C4.97855 29.2729 4.97946 17.1542 4.979 5.03584ZM12.5906 10.1809C12.5783 11.367 12.5888 12.5531 12.5851 13.7392C12.5897 16.513 12.576 19.2868 12.592 22.0602C12.9071 22.0735 13.224 22.0547 13.5345 22.0025C14.0039 21.9352 14.5007 21.7392 14.7572 21.3165C15.0397 20.8617 15.0494 20.304 15.042 19.7851C15.0425 17.3886 15.0425 14.9917 15.0425 12.5953C15.0397 12.2119 15.059 11.8227 14.9665 11.4472C14.8799 11.0781 14.683 10.714 14.3459 10.5198C13.8211 10.2075 13.1855 10.1768 12.5906 10.1809Z" fill="white"/>
<path d="M9.58052 43.7811C9.99954 43.4898 10.5413 43.4784 11.0304 43.5343C11.465 43.5851 11.901 43.8278 12.0791 44.2436C12.3223 44.7941 12.3026 45.4201 12.2513 46.0072C11.873 46.0168 11.4948 46.0415 11.1165 46.042C11.1527 45.5969 11.1605 45.143 11.0679 44.7043C11.0226 44.5701 10.98 44.4067 10.8353 44.3485C10.6668 44.2679 10.4387 44.2858 10.3018 44.4204C10.2381 44.4937 10.1997 44.5853 10.169 44.6768C10.0472 45.1147 10.049 45.5726 10.0376 46.0232C10.0073 46.5256 10.0284 47.0289 10.022 47.5322C10.0508 47.9924 10.0252 48.46 10.1241 48.9143C10.1649 49.092 10.2432 49.3008 10.4332 49.364C10.6439 49.4336 10.9292 49.4125 11.056 49.2055C11.1838 49.0104 11.1966 48.7687 11.2195 48.5433C11.2461 48.1788 11.2374 47.8115 11.2021 47.4479C11.5671 47.4383 11.9316 47.4713 12.2971 47.4635C12.3763 47.9668 12.3507 48.4875 12.2605 48.9885C12.1794 49.4098 11.9715 49.8467 11.5694 50.0454C11.47 50.1219 11.3322 50.0294 11.2649 50.164C10.7455 50.2698 10.1736 50.268 9.68951 50.0298C9.32452 49.8554 9.10929 49.4812 8.98884 49.1107C8.79147 48.4678 8.77407 47.7886 8.76124 47.1214C8.76078 46.4038 8.77269 45.6802 8.91511 44.9741C9.01403 44.5266 9.19263 44.0559 9.58052 43.7811Z" fill="white"/>
<path d="M22.9463 43.6521C23.3685 43.4845 23.842 43.4785 24.2844 43.555C24.6471 43.6205 24.9947 43.8348 25.1605 44.1718C25.4334 44.6912 25.4215 45.3011 25.3917 45.8713C25.0094 45.8566 24.6247 45.924 24.245 45.8786C24.2643 45.4362 24.3 44.9701 24.136 44.5487C24.0128 44.1966 23.4418 44.235 23.3296 44.5758C23.1542 45.0516 23.1826 45.5713 23.1579 46.0705C23.1546 46.7428 23.1459 47.4155 23.1684 48.0878C23.1876 48.4093 23.1977 48.7362 23.292 49.0467C23.3346 49.1763 23.401 49.3197 23.5421 49.3646C23.8063 49.447 24.1667 49.4053 24.3004 49.1292C24.5193 48.6671 24.4387 48.1405 24.4552 47.6463C24.2432 47.6477 24.0307 47.6436 23.8191 47.6495C23.7816 47.3409 23.8077 47.0285 23.8045 46.7185C24.3755 46.7139 24.9471 46.7126 25.5181 46.7203C25.5122 47.802 25.5154 48.8832 25.5168 49.9649C25.5195 50.019 25.5067 50.0693 25.4778 50.1161C25.3276 50.0913 25.1586 50.1467 25.0199 50.0812C24.9123 49.9324 24.8367 49.763 24.7405 49.6073C24.5766 49.8862 24.3385 50.1632 23.9987 50.2076C23.5787 50.2635 23.1267 50.2246 22.7544 50.008C22.3825 49.7795 22.182 49.3604 22.0743 48.9519C21.8678 48.162 21.8847 47.3381 21.8939 46.5285C21.9145 45.8827 21.9566 45.227 22.1536 44.6074C22.2827 44.2057 22.5401 43.8128 22.9463 43.6521Z" fill="white"/>
<path d="M28.7311 43.6966C29.1332 43.4873 29.6067 43.4846 30.0468 43.5345C30.4878 43.5913 30.9302 43.84 31.1029 44.2677C31.3227 44.8154 31.3259 45.4281 31.2577 46.0065C30.8835 46.0203 30.5098 46.0391 30.1357 46.0441C30.1366 45.5513 30.2048 45.0338 30.029 44.5622C29.9346 44.2686 29.5161 44.2242 29.31 44.4211C29.1772 44.5883 29.141 44.8062 29.1099 45.0119C29.0283 45.6512 29.0439 46.2978 29.0416 46.9412C29.0453 47.4898 29.0279 48.0412 29.0833 48.588C29.1195 48.8454 29.1341 49.1495 29.3572 49.3235C29.5797 49.443 29.9232 49.4412 30.0688 49.2035C30.2126 48.9654 30.2241 48.6746 30.2364 48.4039C30.2328 48.0879 30.2557 47.7692 30.2085 47.456C30.5753 47.4395 30.9481 47.4537 31.3121 47.4807C31.3776 47.8122 31.3506 48.1571 31.3382 48.4937C31.2952 48.9924 31.2032 49.5534 30.7983 49.8945C30.4576 50.1973 29.9749 50.2444 29.538 50.2256C29.1419 50.2151 28.7229 50.1167 28.4275 49.8364C28.1069 49.5351 27.9696 49.0973 27.8917 48.6764C27.7562 47.9231 27.7703 47.1542 27.7768 46.3921C27.8074 45.8055 27.8386 45.2097 28.0154 44.646C28.1363 44.2627 28.3602 43.8821 28.7311 43.6966Z" fill="white"/>
<path d="M33.4803 43.5108C33.9282 43.493 34.4186 43.5484 34.7694 43.8556C35.1202 44.1606 35.2782 44.6227 35.3703 45.0651C35.4866 45.6659 35.5182 46.281 35.5104 46.8919C35.5196 47.4831 35.4825 48.0766 35.3799 48.6591C35.2892 49.09 35.1509 49.5393 34.8253 49.853C34.5253 50.1355 34.1004 50.2235 33.7006 50.2299C33.3173 50.2326 32.9074 50.2061 32.5786 49.9881C32.2484 49.782 32.0657 49.4133 31.9594 49.0516C31.785 48.4416 31.7534 47.8027 31.7405 47.1717C31.735 46.4064 31.7396 45.632 31.9164 44.8833C32.0171 44.4895 32.1815 44.0823 32.5099 43.8236C32.7796 43.6006 33.1382 43.5259 33.4803 43.5108ZM33.2875 44.4221C33.1176 44.6071 33.0865 44.8696 33.0549 45.1081C33.0118 45.5638 32.9972 46.0213 33.0004 46.4793C33.0036 47.2124 32.9811 47.9488 33.0626 48.6797C33.1052 48.9201 33.1419 49.2077 33.3708 49.3474C33.5366 49.4216 33.7441 49.4211 33.9057 49.3346C34.0894 49.2109 34.1352 48.9742 34.1732 48.7708C34.2671 48.1494 34.2387 47.5193 34.2432 46.8932C34.2382 46.2658 34.2661 45.6357 34.1791 45.0129C34.1553 44.8293 34.1132 44.642 34.0088 44.4867C33.9447 44.38 33.8091 44.3548 33.7345 44.2586C33.5888 44.3232 33.4029 44.2953 33.2875 44.4221Z" fill="white"/>
<path d="M4.98551 43.6094C5.53643 43.6112 6.08734 43.6075 6.63826 43.6108C7.04812 43.6249 7.47906 43.7152 7.801 43.984C8.18155 44.3027 8.32077 44.8156 8.35558 45.2923C8.38031 45.8369 8.36382 46.4125 8.10828 46.9071C7.92922 47.2597 7.57248 47.4974 7.18871 47.5702C6.86403 47.6531 6.52789 47.6036 6.19817 47.6325C6.20732 48.4087 6.19862 49.1854 6.20229 49.9616C6.19862 49.9969 6.19084 50.067 6.18717 50.1022C5.91149 50.1196 5.63443 50.1027 5.35782 50.1091C5.2296 50.1036 5.09404 50.1311 4.97314 50.0752C4.99192 47.9201 4.96765 45.764 4.98551 43.6094ZM6.20046 44.4758C6.20641 45.2259 6.19496 45.9761 6.20687 46.7257C6.42165 46.723 6.66986 46.7592 6.84113 46.5984C7.07468 46.347 7.08842 45.9843 7.10354 45.661C7.10216 45.3326 7.09804 44.9764 6.92127 44.6883C6.76694 44.4525 6.4537 44.4268 6.20046 44.4758Z" fill="white"/>
<path d="M12.8724 43.6094C13.3968 43.6162 13.9216 43.6011 14.4459 43.6185C14.6877 45.1082 14.9323 46.598 15.1942 48.084C15.4232 46.7688 15.6513 45.4531 15.8807 44.1379C15.9233 43.9657 15.9192 43.7788 15.9879 43.6162C16.5021 43.6011 17.0173 43.6172 17.5321 43.6094C17.5293 45.7755 17.5362 47.9416 17.5289 50.1077C17.1593 50.1127 16.7902 50.1091 16.4206 50.11C16.4105 48.5452 16.4206 46.9799 16.4229 45.416C16.3583 45.955 16.3258 46.4995 16.2384 47.0367C16.079 48.0593 15.8894 49.0773 15.7296 50.0999C15.382 50.1196 15.033 50.1109 14.6854 50.1031C14.4798 48.7874 14.2261 47.4786 14.0448 46.1588C14.0109 45.9408 14.0122 45.7196 13.9852 45.5016C13.9619 46.1327 13.9962 46.7642 13.9866 47.3957C13.9912 48.2906 13.9793 49.1854 13.993 50.0798C13.8964 50.121 13.7901 50.1095 13.688 50.1105C13.4169 50.1059 13.1458 50.115 12.8747 50.1059C12.8687 47.9402 12.8733 45.775 12.8724 43.6094Z" fill="white"/>
<path d="M19.1708 43.6123C19.5083 43.5587 19.8541 43.6031 20.1953 43.5885C20.2836 43.5944 20.4421 43.5546 20.4407 43.6915C20.8117 45.4738 21.1757 47.2576 21.5448 49.0399C21.609 49.3948 21.7079 49.7442 21.7482 50.1033C21.3296 50.1234 20.9106 50.0996 20.4925 50.1156C20.394 49.7227 20.3391 49.3202 20.2612 48.9227C19.9402 48.9167 19.6192 48.9181 19.2981 48.9222C19.2139 49.3184 19.1914 49.7305 19.0714 50.117C18.6987 50.1024 18.3259 50.1152 17.9531 50.1111C17.9925 49.6888 18.1075 49.2776 18.1729 48.859C18.5082 47.1106 18.848 45.363 19.1708 43.6123ZM19.4657 48.0292C19.6741 48.0301 19.8825 48.0315 20.0913 48.0269C19.986 47.1298 19.8623 46.2345 19.7602 45.3374C19.7034 46.2386 19.5344 47.1289 19.4657 48.0292Z" fill="white"/>
<path d="M35.9986 43.6094C36.522 43.6144 37.0454 43.6075 37.5684 43.613C37.8212 45.1023 38.0639 46.5934 38.3195 48.0822C38.4353 47.4365 38.5521 46.7903 38.6593 46.1432C38.6693 46.1318 38.6895 46.1093 38.6996 46.0979C38.6927 45.9014 38.7394 45.7105 38.7705 45.5181C38.8809 44.882 38.9812 44.2441 39.1103 43.6117C39.626 43.6112 40.1417 43.6112 40.6573 43.6107C40.661 45.7773 40.6623 47.9443 40.6568 50.1109C40.2877 50.1077 39.9186 50.1155 39.55 50.1054C39.5381 48.9743 39.5491 47.8427 39.5449 46.7111C39.5546 46.2765 39.5656 45.841 39.5491 45.4064C39.4859 45.8707 39.4758 46.342 39.4021 46.8059C39.2367 47.9031 39.0348 48.9944 38.8557 50.0894C38.5759 50.1361 38.2902 50.0963 38.0076 50.1109C37.9426 50.1018 37.8501 50.1407 37.8139 50.0656C37.6467 49.0677 37.4718 48.0712 37.3092 47.0729C37.2213 46.5233 37.1375 45.9719 37.1105 45.4155C37.11 46.9707 37.1082 48.5269 37.1164 50.0825C36.7505 50.1462 36.3723 50.0917 36.0013 50.1118C35.9917 47.9443 35.9967 45.7769 35.9986 43.6094Z" fill="white"/>
<path d="M26.0717 48.6893C26.5127 48.6834 26.9537 48.682 27.3947 48.6912C27.397 49.1519 27.3828 49.613 27.4011 50.0733C27.3297 50.1255 27.2376 50.1058 27.1557 50.1099C26.7939 50.1012 26.4312 50.1232 26.0703 50.098C26.0731 49.6281 26.0689 49.1587 26.0717 48.6893Z" fill="white"/>
</svg>
