<svg width="91" height="90" viewBox="0 0 91 90" fill="none" xmlns="http://www.w3.org/2000/svg">
<path d="M77.3895 14.6595L72.81 17.6949L65.1777 16.1772L60.5982 14.6595L54.4923 16.1772L49.9128 14.6595L52.9657 8.58847H59.0716L65.0554 5.61374C69.6702 7.88274 73.845 10.9455 77.3895 14.6595Z" fill="#00AC45"/>
<path d="M42.2805 8.58848L40.754 13.1418L36.1746 14.6595L31.5951 22.2482L23.9627 26.8015L13.2775 28.3193V32.8726L16.3304 35.908V41.979L11.7513 38.9434L7.17179 35.908L4.51575 27.9703C9.08744 17.1379 17.8266 8.57473 28.7865 4.18698L33.1217 7.07077L42.2805 8.58848Z" fill="#00AC45" stroke="white" stroke-width="2"/>
<path d="M45.3337 51.0853L43.8073 58.6741L37.7014 64.7451V69.2984L31.5954 73.8515V81.4402L27.0161 79.9225L23.9631 72.3338V57.1563L16.3308 55.6386L13.2779 49.5676V45.0143L16.3308 41.9789L20.9102 37.4256L23.9631 43.4966H34.6483L39.2278 51.0853H45.3337Z" fill="#00AC45" stroke="white" stroke-width="2"/>
<path d="M83.953 23.508C92.286 38.2894 91.3365 56.516 81.5107 70.3607L77.3892 66.2628V60.1918L74.3364 54.1208L71.2835 48.0498V41.9788L66.704 38.9433L60.5981 40.4611L49.9129 35.9078L48.3865 25.2836L52.9659 20.7303H62.1247L65.1776 25.2836L74.3364 26.8013L83.4952 23.7659L83.953 23.508Z" fill="#00AC45" stroke="white" stroke-width="2"/>
<path d="M54.4922 16.1772L60.5981 14.6595L65.1776 16.1772L72.81 17.6949L77.3894 14.6595C79.9462 17.3201 82.152 20.2933 83.9532 23.5079L83.4954 23.7659L74.3366 26.8013L65.1778 25.2836L62.1249 20.7303H52.9661L48.3867 25.2836L49.9131 35.9078L60.5983 40.4611L66.7042 38.9434L71.2837 41.9788V48.0498L74.3366 54.1208L77.3894 60.1919V66.2629L81.5109 70.3608C67.414 90.222 39.7924 94.9589 19.8186 80.9425C2.8549 69.0372 -3.50899 47.0101 4.51569 27.9701L7.17173 35.9078L11.7512 38.9432L16.3307 41.9786L13.2776 45.0142V49.5675L16.3305 55.6386L23.9629 57.1563V72.3337L27.0157 79.9225L31.5952 81.4402V73.8514L37.7011 69.2981V64.7448L43.807 58.6738L45.3335 51.0851H39.2275L34.6481 43.4963H23.9629L20.91 37.4253L16.3305 41.9786V35.9076L13.2776 32.8724V28.3191L23.9629 26.8013L31.5952 22.248L36.1747 14.6593L40.7542 13.1416L42.2806 8.58829L33.1218 7.07058L28.7867 4.18679C40.5252 -0.513681 53.7261 0.00534678 65.0555 5.61356L59.0717 8.58829H52.9658L49.9129 14.6593L54.4922 16.1772Z" fill="#84E5FF" stroke="white" stroke-width="2"/>
</svg>
