<svg width="585" height="435" viewBox="0 0 585 435" fill="none" xmlns="http://www.w3.org/2000/svg">
<g filter="url(#filter0_d_1301_6450)">
<path d="M355.051 56C355.051 47.1634 362.214 40 371.051 40H476.325C485.162 40 492.325 47.1634 492.325 56V305.222C492.325 314.059 485.162 321.222 476.325 321.222H371.051C362.214 321.222 355.051 314.059 355.051 305.222V56Z" fill="white"/>
</g>
<g opacity="0.3">
<g filter="url(#filter1_d_1301_6450)">
<path d="M374.121 84.3282C374.121 80.3795 377.322 77.1785 381.271 77.1785H466.114C470.063 77.1785 473.264 80.3795 473.264 84.3282C473.264 88.2769 470.063 91.4779 466.114 91.4779H381.271C377.322 91.4779 374.121 88.2769 374.121 84.3282Z" fill="#EAE0F0"/>
<path d="M374.121 84.3282C374.121 80.3795 377.322 77.1785 381.271 77.1785H466.114C470.063 77.1785 473.264 80.3795 473.264 84.3282C473.264 88.2769 470.063 91.4779 466.114 91.4779H381.271C377.322 91.4779 374.121 88.2769 374.121 84.3282Z" fill="black" fill-opacity="0.2"/>
</g>
</g>
<g opacity="0.3">
<g filter="url(#filter2_d_1301_6450)">
<path d="M394.137 289.287C394.137 285.338 397.338 282.137 401.286 282.137H446.091C450.04 282.137 453.241 285.338 453.241 289.287C453.241 293.235 450.04 296.436 446.091 296.436H401.286C397.338 296.436 394.137 293.235 394.137 289.287Z" fill="#EAE0F0"/>
<path d="M394.137 289.287C394.137 285.338 397.338 282.137 401.286 282.137H446.091C450.04 282.137 453.241 285.338 453.241 289.287C453.241 293.235 450.04 296.436 446.091 296.436H401.286C397.338 296.436 394.137 293.235 394.137 289.287Z" fill="black" fill-opacity="0.2"/>
</g>
</g>
<g opacity="0.3">
<g filter="url(#filter3_d_1301_6450)">
<path d="M374.121 99.5808C374.121 98.7911 374.761 98.1509 375.551 98.1509H471.834C472.624 98.1509 473.264 98.7911 473.264 99.5808C473.264 100.371 472.624 101.011 471.834 101.011H375.551C374.761 101.011 374.121 100.371 374.121 99.5808Z" fill="#EAE0F0"/>
<path d="M374.121 99.5808C374.121 98.7911 374.761 98.1509 375.551 98.1509H471.834C472.624 98.1509 473.264 98.7911 473.264 99.5808C473.264 100.371 472.624 101.011 471.834 101.011H375.551C374.761 101.011 374.121 100.371 374.121 99.5808Z" fill="black" fill-opacity="0.2"/>
</g>
</g>
<g opacity="0.3">
<g filter="url(#filter4_d_1301_6450)">
<path d="M388.414 112.927C388.414 112.137 389.054 111.497 389.844 111.497H457.528C458.318 111.497 458.958 112.137 458.958 112.927C458.958 113.717 458.318 114.357 457.528 114.357H389.844C389.054 114.357 388.414 113.717 388.414 112.927Z" fill="#EAE0F0"/>
<path d="M388.414 112.927C388.414 112.137 389.054 111.497 389.844 111.497H457.528C458.318 111.497 458.958 112.137 458.958 112.927C458.958 113.717 458.318 114.357 457.528 114.357H389.844C389.054 114.357 388.414 113.717 388.414 112.927Z" fill="black" fill-opacity="0.2"/>
</g>
</g>
<g opacity="0.3">
<g filter="url(#filter5_d_1301_6450)">
<path d="M367.441 106.254C367.441 105.464 368.082 104.824 368.871 104.824H478.5C479.29 104.824 479.93 105.464 479.93 106.254C479.93 107.044 479.29 107.684 478.5 107.684H368.871C368.082 107.684 367.441 107.044 367.441 106.254Z" fill="#EAE0F0"/>
<path d="M367.441 106.254C367.441 105.464 368.082 104.824 368.871 104.824H478.5C479.29 104.824 479.93 105.464 479.93 106.254C479.93 107.044 479.29 107.684 478.5 107.684H368.871C368.082 107.684 367.441 107.044 367.441 106.254Z" fill="black" fill-opacity="0.2"/>
</g>
</g>
<g opacity="0.3">
<g filter="url(#filter6_d_1301_6450)">
<path d="M379.836 156.779C379.836 155.989 380.476 155.349 381.266 155.349H478.502C479.292 155.349 479.932 155.989 479.932 156.779C479.932 157.568 479.292 158.209 478.502 158.209H381.266C380.476 158.209 379.836 157.568 379.836 156.779Z" fill="#EAE0F0"/>
<path d="M379.836 156.779C379.836 155.989 380.476 155.349 381.266 155.349H478.502C479.292 155.349 479.932 155.989 479.932 156.779C479.932 157.568 479.292 158.209 478.502 158.209H381.266C380.476 158.209 379.836 157.568 379.836 156.779Z" fill="black" fill-opacity="0.2"/>
</g>
<path d="M371.255 153.442C369.152 153.442 367.441 155.153 367.441 157.255C367.441 159.358 369.152 161.069 371.255 161.069C373.357 161.069 375.068 159.358 375.068 157.255C375.068 155.153 373.357 153.442 371.255 153.442ZM370.492 158.938L369.077 157.525L369.615 156.985L370.492 157.86L372.51 155.842L373.049 156.381L370.492 158.938Z" fill="#EAE0F0"/>
<path d="M371.255 153.442C369.152 153.442 367.441 155.153 367.441 157.255C367.441 159.358 369.152 161.069 371.255 161.069C373.357 161.069 375.068 159.358 375.068 157.255C375.068 155.153 373.357 153.442 371.255 153.442ZM370.492 158.938L369.077 157.525L369.615 156.985L370.492 157.86L372.51 155.842L373.049 156.381L370.492 158.938Z" fill="black" fill-opacity="0.2"/>
<path d="M371.255 172.508C369.152 172.508 367.441 174.219 367.441 176.321C367.441 178.424 369.152 180.134 371.255 180.134C373.357 180.134 375.068 178.424 375.068 176.321C375.068 174.219 373.357 172.508 371.255 172.508ZM370.492 178.004L369.077 176.591L369.615 176.051L370.492 176.926L372.51 174.908L373.049 175.447L370.492 178.004Z" fill="#EAE0F0"/>
<path d="M371.255 172.508C369.152 172.508 367.441 174.219 367.441 176.321C367.441 178.424 369.152 180.134 371.255 180.134C373.357 180.134 375.068 178.424 375.068 176.321C375.068 174.219 373.357 172.508 371.255 172.508ZM370.492 178.004L369.077 176.591L369.615 176.051L370.492 176.926L372.51 174.908L373.049 175.447L370.492 178.004Z" fill="black" fill-opacity="0.2"/>
<path d="M371.255 191.574C369.152 191.574 367.441 193.285 367.441 195.387C367.441 197.49 369.152 199.2 371.255 199.2C373.357 199.2 375.068 197.49 375.068 195.387C375.068 193.285 373.357 191.574 371.255 191.574ZM370.492 197.07L369.077 195.657L369.615 195.117L370.492 195.992L372.51 193.974L373.049 194.513L370.492 197.07Z" fill="#EAE0F0"/>
<path d="M371.255 191.574C369.152 191.574 367.441 193.285 367.441 195.387C367.441 197.49 369.152 199.2 371.255 199.2C373.357 199.2 375.068 197.49 375.068 195.387C375.068 193.285 373.357 191.574 371.255 191.574ZM370.492 197.07L369.077 195.657L369.615 195.117L370.492 195.992L372.51 193.974L373.049 194.513L370.492 197.07Z" fill="black" fill-opacity="0.2"/>
<path d="M371.255 210.64C369.152 210.64 367.441 212.35 367.441 214.453C367.441 216.556 369.152 218.266 371.255 218.266C373.357 218.266 375.068 216.556 375.068 214.453C375.068 212.35 373.357 210.64 371.255 210.64ZM370.492 216.136L369.077 214.723L369.615 214.183L370.492 215.058L372.51 213.04L373.049 213.579L370.492 216.136Z" fill="#EAE0F0"/>
<path d="M371.255 210.64C369.152 210.64 367.441 212.35 367.441 214.453C367.441 216.556 369.152 218.266 371.255 218.266C373.357 218.266 375.068 216.556 375.068 214.453C375.068 212.35 373.357 210.64 371.255 210.64ZM370.492 216.136L369.077 214.723L369.615 214.183L370.492 215.058L372.51 213.04L373.049 213.579L370.492 216.136Z" fill="black" fill-opacity="0.2"/>
<path d="M371.255 229.706C369.152 229.706 367.441 231.416 367.441 233.519C367.441 235.622 369.152 237.332 371.255 237.332C373.357 237.332 375.068 235.622 375.068 233.519C375.068 231.416 373.357 229.706 371.255 229.706ZM370.492 235.202L369.077 233.789L369.615 233.249L370.492 234.124L372.51 232.105L373.049 232.645L370.492 235.202Z" fill="#EAE0F0"/>
<path d="M371.255 229.706C369.152 229.706 367.441 231.416 367.441 233.519C367.441 235.622 369.152 237.332 371.255 237.332C373.357 237.332 375.068 235.622 375.068 233.519C375.068 231.416 373.357 229.706 371.255 229.706ZM370.492 235.202L369.077 233.789L369.615 233.249L370.492 234.124L372.51 232.105L373.049 232.645L370.492 235.202Z" fill="black" fill-opacity="0.2"/>
<path d="M371.255 248.772C369.152 248.772 367.441 250.482 367.441 252.585C367.441 254.688 369.152 256.398 371.255 256.398C373.357 256.398 375.068 254.688 375.068 252.585C375.068 250.482 373.357 248.772 371.255 248.772ZM370.492 254.268L369.077 252.855L369.615 252.315L370.492 253.19L372.51 251.171L373.049 251.711L370.492 254.268Z" fill="#EAE0F0"/>
<path d="M371.255 248.772C369.152 248.772 367.441 250.482 367.441 252.585C367.441 254.688 369.152 256.398 371.255 256.398C373.357 256.398 375.068 254.688 375.068 252.585C375.068 250.482 373.357 248.772 371.255 248.772ZM370.492 254.268L369.077 252.855L369.615 252.315L370.492 253.19L372.51 251.171L373.049 251.711L370.492 254.268Z" fill="black" fill-opacity="0.2"/>
</g>
<g opacity="0.3">
<g filter="url(#filter7_d_1301_6450)">
<path d="M379.836 175.845C379.836 175.055 380.476 174.415 381.266 174.415H478.502C479.292 174.415 479.932 175.055 479.932 175.845C479.932 176.634 479.292 177.275 478.502 177.275H381.266C380.476 177.275 379.836 176.634 379.836 175.845Z" fill="#EAE0F0"/>
<path d="M379.836 175.845C379.836 175.055 380.476 174.415 381.266 174.415H478.502C479.292 174.415 479.932 175.055 479.932 175.845C479.932 176.634 479.292 177.275 478.502 177.275H381.266C380.476 177.275 379.836 176.634 379.836 175.845Z" fill="black" fill-opacity="0.2"/>
</g>
</g>
<g opacity="0.3">
<g filter="url(#filter8_d_1301_6450)">
<path d="M379.836 194.91C379.836 194.121 380.476 193.48 381.266 193.48H478.502C479.292 193.48 479.932 194.121 479.932 194.91C479.932 195.7 479.292 196.34 478.502 196.34H381.266C380.476 196.34 379.836 195.7 379.836 194.91Z" fill="#EAE0F0"/>
<path d="M379.836 194.91C379.836 194.121 380.476 193.48 381.266 193.48H478.502C479.292 193.48 479.932 194.121 479.932 194.91C479.932 195.7 479.292 196.34 478.502 196.34H381.266C380.476 196.34 379.836 195.7 379.836 194.91Z" fill="black" fill-opacity="0.2"/>
</g>
</g>
<g opacity="0.3">
<g filter="url(#filter9_d_1301_6450)">
<path d="M379.836 213.976C379.836 213.186 380.476 212.546 381.266 212.546H478.502C479.292 212.546 479.932 213.186 479.932 213.976C479.932 214.766 479.292 215.406 478.502 215.406H381.266C380.476 215.406 379.836 214.766 379.836 213.976Z" fill="#EAE0F0"/>
<path d="M379.836 213.976C379.836 213.186 380.476 212.546 381.266 212.546H478.502C479.292 212.546 479.932 213.186 479.932 213.976C479.932 214.766 479.292 215.406 478.502 215.406H381.266C380.476 215.406 379.836 214.766 379.836 213.976Z" fill="black" fill-opacity="0.2"/>
</g>
</g>
<g opacity="0.3">
<g filter="url(#filter10_d_1301_6450)">
<path d="M379.836 233.042C379.836 232.253 380.476 231.613 381.266 231.613H478.502C479.292 231.613 479.932 232.253 479.932 233.042C479.932 233.832 479.292 234.472 478.502 234.472H381.266C380.476 234.472 379.836 233.832 379.836 233.042Z" fill="#EAE0F0"/>
<path d="M379.836 233.042C379.836 232.253 380.476 231.613 381.266 231.613H478.502C479.292 231.613 479.932 232.253 479.932 233.042C479.932 233.832 479.292 234.472 478.502 234.472H381.266C380.476 234.472 379.836 233.832 379.836 233.042Z" fill="black" fill-opacity="0.2"/>
</g>
</g>
<g opacity="0.3">
<g filter="url(#filter11_d_1301_6450)">
<path d="M379.836 252.108C379.836 251.318 380.476 250.678 381.266 250.678H478.502C479.292 250.678 479.932 251.318 479.932 252.108C479.932 252.898 479.292 253.538 478.502 253.538H381.266C380.476 253.538 379.836 252.898 379.836 252.108Z" fill="#EAE0F0"/>
<path d="M379.836 252.108C379.836 251.318 380.476 250.678 381.266 250.678H478.502C479.292 250.678 479.932 251.318 479.932 252.108C479.932 252.898 479.292 253.538 478.502 253.538H381.266C380.476 253.538 379.836 252.898 379.836 252.108Z" fill="black" fill-opacity="0.2"/>
</g>
</g>
<g filter="url(#filter12_d_1301_6450)">
<path d="M202.527 56C202.527 47.1634 209.691 40 218.527 40H323.802C332.639 40 339.802 47.1634 339.802 56V305.222C339.802 314.059 332.639 321.222 323.802 321.222H218.527C209.691 321.222 202.527 314.059 202.527 305.222V56Z" fill="white"/>
</g>
<g opacity="0.3">
<g filter="url(#filter13_d_1301_6450)">
<path d="M221.594 84.3282C221.594 80.3795 224.795 77.1785 228.743 77.1785H313.587C317.536 77.1785 320.737 80.3795 320.737 84.3282C320.737 88.2769 317.536 91.4779 313.587 91.4779H228.743C224.795 91.4779 221.594 88.2769 221.594 84.3282Z" fill="#EAE0F0"/>
<path d="M221.594 84.3282C221.594 80.3795 224.795 77.1785 228.743 77.1785H313.587C317.536 77.1785 320.737 80.3795 320.737 84.3282C320.737 88.2769 317.536 91.4779 313.587 91.4779H228.743C224.795 91.4779 221.594 88.2769 221.594 84.3282Z" fill="black" fill-opacity="0.2"/>
</g>
</g>
<g opacity="0.3">
<g filter="url(#filter14_d_1301_6450)">
<path d="M241.613 289.287C241.613 285.338 244.814 282.137 248.763 282.137H293.568C297.517 282.137 300.718 285.338 300.718 289.287C300.718 293.236 297.517 296.437 293.568 296.437H248.763C244.814 296.437 241.613 293.236 241.613 289.287Z" fill="#EAE0F0"/>
<path d="M241.613 289.287C241.613 285.338 244.814 282.137 248.763 282.137H293.568C297.517 282.137 300.718 285.338 300.718 289.287C300.718 293.236 297.517 296.437 293.568 296.437H248.763C244.814 296.437 241.613 293.236 241.613 289.287Z" fill="black" fill-opacity="0.2"/>
</g>
</g>
<g opacity="0.3">
<g filter="url(#filter15_d_1301_6450)">
<path d="M221.594 99.5808C221.594 98.7911 222.234 98.1509 223.024 98.1509H319.307C320.096 98.1509 320.737 98.7911 320.737 99.5808C320.737 100.371 320.096 101.011 319.307 101.011H223.024C222.234 101.011 221.594 100.371 221.594 99.5808Z" fill="#EAE0F0"/>
<path d="M221.594 99.5808C221.594 98.7911 222.234 98.1509 223.024 98.1509H319.307C320.096 98.1509 320.737 98.7911 320.737 99.5808C320.737 100.371 320.096 101.011 319.307 101.011H223.024C222.234 101.011 221.594 100.371 221.594 99.5808Z" fill="black" fill-opacity="0.2"/>
</g>
</g>
<g opacity="0.3">
<g filter="url(#filter16_d_1301_6450)">
<path d="M235.895 112.927C235.895 112.137 236.535 111.497 237.324 111.497H305.009C305.798 111.497 306.438 112.137 306.438 112.927C306.438 113.717 305.798 114.357 305.009 114.357H237.324C236.535 114.357 235.895 113.717 235.895 112.927Z" fill="#EAE0F0"/>
<path d="M235.895 112.927C235.895 112.137 236.535 111.497 237.324 111.497H305.009C305.798 111.497 306.438 112.137 306.438 112.927C306.438 113.717 305.798 114.357 305.009 114.357H237.324C236.535 114.357 235.895 113.717 235.895 112.927Z" fill="black" fill-opacity="0.2"/>
</g>
</g>
<g opacity="0.3">
<g filter="url(#filter17_d_1301_6450)">
<path d="M214.922 106.254C214.922 105.464 215.562 104.824 216.352 104.824H325.981C326.771 104.824 327.411 105.464 327.411 106.254C327.411 107.044 326.771 107.684 325.981 107.684H216.352C215.562 107.684 214.922 107.044 214.922 106.254Z" fill="#EAE0F0"/>
<path d="M214.922 106.254C214.922 105.464 215.562 104.824 216.352 104.824H325.981C326.771 104.824 327.411 105.464 327.411 106.254C327.411 107.044 326.771 107.684 325.981 107.684H216.352C215.562 107.684 214.922 107.044 214.922 106.254Z" fill="black" fill-opacity="0.2"/>
</g>
</g>
<g opacity="0.3">
<g filter="url(#filter18_d_1301_6450)">
<path d="M227.316 156.779C227.316 155.989 227.957 155.349 228.746 155.349H325.983C326.772 155.349 327.413 155.989 327.413 156.779C327.413 157.568 326.772 158.209 325.983 158.209H228.746C227.957 158.209 227.316 157.568 227.316 156.779Z" fill="#EAE0F0"/>
<path d="M227.316 156.779C227.316 155.989 227.957 155.349 228.746 155.349H325.983C326.772 155.349 327.413 155.989 327.413 156.779C327.413 157.568 326.772 158.209 325.983 158.209H228.746C227.957 158.209 227.316 157.568 227.316 156.779Z" fill="black" fill-opacity="0.2"/>
</g>
<path d="M218.735 153.442C216.632 153.442 214.922 155.153 214.922 157.255C214.922 159.358 216.632 161.069 218.735 161.069C220.838 161.069 222.548 159.358 222.548 157.255C222.548 155.153 220.838 153.442 218.735 153.442ZM217.973 158.938L216.557 157.525L217.095 156.985L217.972 157.86L219.991 155.842L220.53 156.381L217.973 158.938Z" fill="#EAE0F0"/>
<path d="M218.735 153.442C216.632 153.442 214.922 155.153 214.922 157.255C214.922 159.358 216.632 161.069 218.735 161.069C220.838 161.069 222.548 159.358 222.548 157.255C222.548 155.153 220.838 153.442 218.735 153.442ZM217.973 158.938L216.557 157.525L217.095 156.985L217.972 157.86L219.991 155.842L220.53 156.381L217.973 158.938Z" fill="black" fill-opacity="0.2"/>
<path d="M218.735 172.508C216.632 172.508 214.922 174.219 214.922 176.321C214.922 178.424 216.632 180.134 218.735 180.134C220.838 180.134 222.548 178.424 222.548 176.321C222.548 174.219 220.838 172.508 218.735 172.508ZM217.973 178.004L216.557 176.591L217.095 176.051L217.972 176.926L219.991 174.908L220.53 175.447L217.973 178.004Z" fill="#EAE0F0"/>
<path d="M218.735 172.508C216.632 172.508 214.922 174.219 214.922 176.321C214.922 178.424 216.632 180.134 218.735 180.134C220.838 180.134 222.548 178.424 222.548 176.321C222.548 174.219 220.838 172.508 218.735 172.508ZM217.973 178.004L216.557 176.591L217.095 176.051L217.972 176.926L219.991 174.908L220.53 175.447L217.973 178.004Z" fill="black" fill-opacity="0.2"/>
<path d="M218.735 191.574C216.632 191.574 214.922 193.285 214.922 195.387C214.922 197.49 216.632 199.2 218.735 199.2C220.838 199.2 222.548 197.49 222.548 195.387C222.548 193.285 220.838 191.574 218.735 191.574ZM217.973 197.07L216.557 195.657L217.095 195.117L217.972 195.992L219.991 193.974L220.53 194.513L217.973 197.07Z" fill="#EAE0F0"/>
<path d="M218.735 191.574C216.632 191.574 214.922 193.285 214.922 195.387C214.922 197.49 216.632 199.2 218.735 199.2C220.838 199.2 222.548 197.49 222.548 195.387C222.548 193.285 220.838 191.574 218.735 191.574ZM217.973 197.07L216.557 195.657L217.095 195.117L217.972 195.992L219.991 193.974L220.53 194.513L217.973 197.07Z" fill="black" fill-opacity="0.2"/>
<path d="M218.735 210.64C216.632 210.64 214.922 212.35 214.922 214.453C214.922 216.556 216.632 218.266 218.735 218.266C220.838 218.266 222.548 216.556 222.548 214.453C222.548 212.35 220.838 210.64 218.735 210.64ZM217.973 216.136L216.557 214.723L217.095 214.183L217.972 215.058L219.991 213.04L220.53 213.579L217.973 216.136Z" fill="#EAE0F0"/>
<path d="M218.735 210.64C216.632 210.64 214.922 212.35 214.922 214.453C214.922 216.556 216.632 218.266 218.735 218.266C220.838 218.266 222.548 216.556 222.548 214.453C222.548 212.35 220.838 210.64 218.735 210.64ZM217.973 216.136L216.557 214.723L217.095 214.183L217.972 215.058L219.991 213.04L220.53 213.579L217.973 216.136Z" fill="black" fill-opacity="0.2"/>
<path d="M218.735 229.706C216.632 229.706 214.922 231.416 214.922 233.519C214.922 235.622 216.632 237.332 218.735 237.332C220.838 237.332 222.548 235.622 222.548 233.519C222.548 231.416 220.838 229.706 218.735 229.706ZM217.973 235.202L216.557 233.789L217.095 233.249L217.972 234.124L219.991 232.105L220.53 232.645L217.973 235.202Z" fill="#EAE0F0"/>
<path d="M218.735 229.706C216.632 229.706 214.922 231.416 214.922 233.519C214.922 235.622 216.632 237.332 218.735 237.332C220.838 237.332 222.548 235.622 222.548 233.519C222.548 231.416 220.838 229.706 218.735 229.706ZM217.973 235.202L216.557 233.789L217.095 233.249L217.972 234.124L219.991 232.105L220.53 232.645L217.973 235.202Z" fill="black" fill-opacity="0.2"/>
<path d="M218.735 248.772C216.632 248.772 214.922 250.482 214.922 252.585C214.922 254.688 216.632 256.398 218.735 256.398C220.838 256.398 222.548 254.688 222.548 252.585C222.548 250.482 220.838 248.772 218.735 248.772ZM217.973 254.268L216.557 252.855L217.095 252.315L217.972 253.19L219.991 251.171L220.53 251.711L217.973 254.268Z" fill="#EAE0F0"/>
<path d="M218.735 248.772C216.632 248.772 214.922 250.482 214.922 252.585C214.922 254.688 216.632 256.398 218.735 256.398C220.838 256.398 222.548 254.688 222.548 252.585C222.548 250.482 220.838 248.772 218.735 248.772ZM217.973 254.268L216.557 252.855L217.095 252.315L217.972 253.19L219.991 251.171L220.53 251.711L217.973 254.268Z" fill="black" fill-opacity="0.2"/>
</g>
<g opacity="0.3">
<g filter="url(#filter19_d_1301_6450)">
<path d="M227.312 175.845C227.312 175.055 227.953 174.415 228.742 174.415H325.979C326.768 174.415 327.409 175.055 327.409 175.845C327.409 176.634 326.768 177.275 325.979 177.275H228.742C227.953 177.275 227.312 176.634 227.312 175.845Z" fill="#EAE0F0"/>
<path d="M227.312 175.845C227.312 175.055 227.953 174.415 228.742 174.415H325.979C326.768 174.415 327.409 175.055 327.409 175.845C327.409 176.634 326.768 177.275 325.979 177.275H228.742C227.953 177.275 227.312 176.634 227.312 175.845Z" fill="black" fill-opacity="0.2"/>
</g>
</g>
<g opacity="0.3">
<g filter="url(#filter20_d_1301_6450)">
<path d="M227.312 194.911C227.312 194.121 227.953 193.481 228.742 193.481H325.979C326.768 193.481 327.409 194.121 327.409 194.911C327.409 195.7 326.768 196.341 325.979 196.341H228.742C227.953 196.341 227.312 195.7 227.312 194.911Z" fill="#EAE0F0"/>
<path d="M227.312 194.911C227.312 194.121 227.953 193.481 228.742 193.481H325.979C326.768 193.481 327.409 194.121 327.409 194.911C327.409 195.7 326.768 196.341 325.979 196.341H228.742C227.953 196.341 227.312 195.7 227.312 194.911Z" fill="black" fill-opacity="0.2"/>
</g>
</g>
<g opacity="0.3">
<g filter="url(#filter21_d_1301_6450)">
<path d="M227.312 213.976C227.312 213.186 227.953 212.546 228.742 212.546H325.979C326.768 212.546 327.409 213.186 327.409 213.976C327.409 214.766 326.768 215.406 325.979 215.406H228.742C227.953 215.406 227.312 214.766 227.312 213.976Z" fill="#EAE0F0"/>
<path d="M227.312 213.976C227.312 213.186 227.953 212.546 228.742 212.546H325.979C326.768 212.546 327.409 213.186 327.409 213.976C327.409 214.766 326.768 215.406 325.979 215.406H228.742C227.953 215.406 227.312 214.766 227.312 213.976Z" fill="black" fill-opacity="0.2"/>
</g>
</g>
<g opacity="0.3">
<g filter="url(#filter22_d_1301_6450)">
<path d="M227.312 233.042C227.312 232.253 227.953 231.613 228.742 231.613H325.979C326.768 231.613 327.409 232.253 327.409 233.042C327.409 233.832 326.768 234.472 325.979 234.472H228.742C227.953 234.472 227.312 233.832 227.312 233.042Z" fill="#EAE0F0"/>
<path d="M227.312 233.042C227.312 232.253 227.953 231.613 228.742 231.613H325.979C326.768 231.613 327.409 232.253 327.409 233.042C327.409 233.832 326.768 234.472 325.979 234.472H228.742C227.953 234.472 227.312 233.832 227.312 233.042Z" fill="black" fill-opacity="0.2"/>
</g>
</g>
<g opacity="0.3">
<g filter="url(#filter23_d_1301_6450)">
<path d="M227.312 252.108C227.312 251.318 227.953 250.678 228.742 250.678H325.979C326.768 250.678 327.409 251.318 327.409 252.108C327.409 252.898 326.768 253.538 325.979 253.538H228.742C227.953 253.538 227.312 252.898 227.312 252.108Z" fill="#EAE0F0"/>
<path d="M227.312 252.108C227.312 251.318 227.953 250.678 228.742 250.678H325.979C326.768 250.678 327.409 251.318 327.409 252.108C327.409 252.898 326.768 253.538 325.979 253.538H228.742C227.953 253.538 227.312 252.898 227.312 252.108Z" fill="black" fill-opacity="0.2"/>
</g>
</g>
<g filter="url(#filter24_d_1301_6450)">
<path d="M50 56C50 47.1634 57.1634 40 66 40H171.275C180.111 40 187.275 47.1634 187.275 56V305.222C187.275 314.059 180.111 321.222 171.275 321.222H66C57.1634 321.222 50 314.059 50 305.222V56Z" fill="white"/>
</g>
<g opacity="0.3">
<g filter="url(#filter25_d_1301_6450)">
<path d="M69.0664 84.3284C69.0664 80.3798 72.2674 77.1787 76.2161 77.1787H161.06C165.008 77.1787 168.209 80.3798 168.209 84.3284C168.209 88.2771 165.008 91.4782 161.06 91.4782H76.2161C72.2674 91.4782 69.0664 88.2771 69.0664 84.3284Z" fill="#EAE0F0"/>
<path d="M69.0664 84.3284C69.0664 80.3798 72.2674 77.1787 76.2161 77.1787H161.06C165.008 77.1787 168.209 80.3798 168.209 84.3284C168.209 88.2771 165.008 91.4782 161.06 91.4782H76.2161C72.2674 91.4782 69.0664 88.2771 69.0664 84.3284Z" fill="black" fill-opacity="0.2"/>
</g>
</g>
<g opacity="0.3">
<g filter="url(#filter26_d_1301_6450)">
<path d="M89.0898 289.287C89.0898 285.338 92.2909 282.137 96.2396 282.137H141.045C144.993 282.137 148.194 285.338 148.194 289.287C148.194 293.236 144.993 296.437 141.044 296.437H96.2396C92.2909 296.437 89.0898 293.236 89.0898 289.287Z" fill="#EAE0F0"/>
<path d="M89.0898 289.287C89.0898 285.338 92.2909 282.137 96.2396 282.137H141.045C144.993 282.137 148.194 285.338 148.194 289.287C148.194 293.236 144.993 296.437 141.044 296.437H96.2396C92.2909 296.437 89.0898 293.236 89.0898 289.287Z" fill="black" fill-opacity="0.2"/>
</g>
</g>
<g opacity="0.3">
<g filter="url(#filter27_d_1301_6450)">
<path d="M69.0664 99.5811C69.0664 98.7913 69.7066 98.1511 70.4964 98.1511H166.779C167.569 98.1511 168.209 98.7913 168.209 99.5811C168.209 100.371 167.569 101.011 166.779 101.011H70.4964C69.7066 101.011 69.0664 100.371 69.0664 99.5811Z" fill="#EAE0F0"/>
<path d="M69.0664 99.5811C69.0664 98.7913 69.7066 98.1511 70.4964 98.1511H166.779C167.569 98.1511 168.209 98.7913 168.209 99.5811C168.209 100.371 167.569 101.011 166.779 101.011H70.4964C69.7066 101.011 69.0664 100.371 69.0664 99.5811Z" fill="black" fill-opacity="0.2"/>
</g>
</g>
<g opacity="0.3">
<g filter="url(#filter28_d_1301_6450)">
<path d="M83.3672 112.927C83.3672 112.137 84.0074 111.497 84.7971 111.497H152.481C153.271 111.497 153.911 112.137 153.911 112.927C153.911 113.717 153.271 114.357 152.481 114.357H84.7971C84.0074 114.357 83.3672 113.717 83.3672 112.927Z" fill="#EAE0F0"/>
<path d="M83.3672 112.927C83.3672 112.137 84.0074 111.497 84.7971 111.497H152.481C153.271 111.497 153.911 112.137 153.911 112.927C153.911 113.717 153.271 114.357 152.481 114.357H84.7971C84.0074 114.357 83.3672 113.717 83.3672 112.927Z" fill="black" fill-opacity="0.2"/>
</g>
</g>
<g opacity="0.3">
<g filter="url(#filter29_d_1301_6450)">
<path d="M62.3945 106.254C62.3945 105.465 63.0347 104.824 63.8245 104.824H173.454C174.243 104.824 174.883 105.465 174.883 106.254C174.883 107.044 174.243 107.684 173.454 107.684H63.8245C63.0347 107.684 62.3945 107.044 62.3945 106.254Z" fill="#EAE0F0"/>
<path d="M62.3945 106.254C62.3945 105.465 63.0347 104.824 63.8245 104.824H173.454C174.243 104.824 174.883 105.465 174.883 106.254C174.883 107.044 174.243 107.684 173.454 107.684H63.8245C63.0347 107.684 62.3945 107.044 62.3945 106.254Z" fill="black" fill-opacity="0.2"/>
</g>
</g>
<g opacity="0.3">
<g filter="url(#filter30_d_1301_6450)">
<path d="M74.7891 156.779C74.7891 155.989 75.4293 155.349 76.219 155.349H173.455C174.245 155.349 174.885 155.989 174.885 156.779C174.885 157.569 174.245 158.209 173.455 158.209H76.219C75.4293 158.209 74.7891 157.569 74.7891 156.779Z" fill="#EAE0F0"/>
<path d="M74.7891 156.779C74.7891 155.989 75.4293 155.349 76.219 155.349H173.455C174.245 155.349 174.885 155.989 174.885 156.779C174.885 157.569 174.245 158.209 173.455 158.209H76.219C75.4293 158.209 74.7891 157.569 74.7891 156.779Z" fill="black" fill-opacity="0.2"/>
</g>
<path d="M66.2077 153.442C64.1051 153.442 62.3945 155.153 62.3945 157.256C62.3945 159.358 64.1051 161.069 66.2077 161.069C68.3103 161.069 70.0209 159.358 70.0209 157.256C70.0209 155.153 68.3103 153.442 66.2077 153.442ZM65.4455 158.938L64.0296 157.526L64.568 156.986L65.4447 157.861L67.4634 155.842L68.0026 156.381L65.4455 158.938Z" fill="#EAE0F0"/>
<path d="M66.2077 153.442C64.1051 153.442 62.3945 155.153 62.3945 157.256C62.3945 159.358 64.1051 161.069 66.2077 161.069C68.3103 161.069 70.0209 159.358 70.0209 157.256C70.0209 155.153 68.3103 153.442 66.2077 153.442ZM65.4455 158.938L64.0296 157.526L64.568 156.986L65.4447 157.861L67.4634 155.842L68.0026 156.381L65.4455 158.938Z" fill="black" fill-opacity="0.2"/>
<path d="M66.2077 172.508C64.1051 172.508 62.3945 174.219 62.3945 176.321C62.3945 178.424 64.1051 180.135 66.2077 180.135C68.3103 180.135 70.0209 178.424 70.0209 176.321C70.0209 174.219 68.3103 172.508 66.2077 172.508ZM65.4455 178.004L64.0296 176.591L64.568 176.052L65.4447 176.927L67.4634 174.908L68.0026 175.447L65.4455 178.004Z" fill="#EAE0F0"/>
<path d="M66.2077 172.508C64.1051 172.508 62.3945 174.219 62.3945 176.321C62.3945 178.424 64.1051 180.135 66.2077 180.135C68.3103 180.135 70.0209 178.424 70.0209 176.321C70.0209 174.219 68.3103 172.508 66.2077 172.508ZM65.4455 178.004L64.0296 176.591L64.568 176.052L65.4447 176.927L67.4634 174.908L68.0026 175.447L65.4455 178.004Z" fill="black" fill-opacity="0.2"/>
<path d="M66.2077 191.574C64.1051 191.574 62.3945 193.285 62.3945 195.387C62.3945 197.49 64.1051 199.201 66.2077 199.201C68.3103 199.201 70.0209 197.49 70.0209 195.387C70.0209 193.285 68.3103 191.574 66.2077 191.574ZM65.4455 197.07L64.0296 195.657L64.568 195.117L65.4447 195.993L67.4634 193.974L68.0026 194.513L65.4455 197.07Z" fill="#EAE0F0"/>
<path d="M66.2077 191.574C64.1051 191.574 62.3945 193.285 62.3945 195.387C62.3945 197.49 64.1051 199.201 66.2077 199.201C68.3103 199.201 70.0209 197.49 70.0209 195.387C70.0209 193.285 68.3103 191.574 66.2077 191.574ZM65.4455 197.07L64.0296 195.657L64.568 195.117L65.4447 195.993L67.4634 193.974L68.0026 194.513L65.4455 197.07Z" fill="black" fill-opacity="0.2"/>
<path d="M66.2077 210.64C64.1051 210.64 62.3945 212.351 62.3945 214.453C62.3945 216.556 64.1051 218.267 66.2077 218.267C68.3103 218.267 70.0209 216.556 70.0209 214.453C70.0209 212.351 68.3103 210.64 66.2077 210.64ZM65.4455 216.136L64.0296 214.723L64.568 214.183L65.4447 215.058L67.4634 213.04L68.0026 213.579L65.4455 216.136Z" fill="#EAE0F0"/>
<path d="M66.2077 210.64C64.1051 210.64 62.3945 212.351 62.3945 214.453C62.3945 216.556 64.1051 218.267 66.2077 218.267C68.3103 218.267 70.0209 216.556 70.0209 214.453C70.0209 212.351 68.3103 210.64 66.2077 210.64ZM65.4455 216.136L64.0296 214.723L64.568 214.183L65.4447 215.058L67.4634 213.04L68.0026 213.579L65.4455 216.136Z" fill="black" fill-opacity="0.2"/>
<path d="M66.2077 229.706C64.1051 229.706 62.3945 231.417 62.3945 233.519C62.3945 235.622 64.1051 237.332 66.2077 237.332C68.3103 237.332 70.0209 235.622 70.0209 233.519C70.0209 231.417 68.3103 229.706 66.2077 229.706ZM65.4455 235.202L64.0296 233.789L64.568 233.249L65.4447 234.124L67.4634 232.106L68.0026 232.645L65.4455 235.202Z" fill="#EAE0F0"/>
<path d="M66.2077 229.706C64.1051 229.706 62.3945 231.417 62.3945 233.519C62.3945 235.622 64.1051 237.332 66.2077 237.332C68.3103 237.332 70.0209 235.622 70.0209 233.519C70.0209 231.417 68.3103 229.706 66.2077 229.706ZM65.4455 235.202L64.0296 233.789L64.568 233.249L65.4447 234.124L67.4634 232.106L68.0026 232.645L65.4455 235.202Z" fill="black" fill-opacity="0.2"/>
<path d="M66.2077 248.772C64.1051 248.772 62.3945 250.483 62.3945 252.585C62.3945 254.688 64.1051 256.398 66.2077 256.398C68.3103 256.398 70.0209 254.688 70.0209 252.585C70.0209 250.483 68.3103 248.772 66.2077 248.772ZM65.4455 254.268L64.0296 252.855L64.568 252.315L65.4447 253.19L67.4634 251.172L68.0026 251.711L65.4455 254.268Z" fill="#EAE0F0"/>
<path d="M66.2077 248.772C64.1051 248.772 62.3945 250.483 62.3945 252.585C62.3945 254.688 64.1051 256.398 66.2077 256.398C68.3103 256.398 70.0209 254.688 70.0209 252.585C70.0209 250.483 68.3103 248.772 66.2077 248.772ZM65.4455 254.268L64.0296 252.855L64.568 252.315L65.4447 253.19L67.4634 251.172L68.0026 251.711L65.4455 254.268Z" fill="black" fill-opacity="0.2"/>
</g>
<g opacity="0.3">
<g filter="url(#filter31_d_1301_6450)">
<path d="M74.7852 175.845C74.7852 175.055 75.4254 174.415 76.2151 174.415H173.451C174.241 174.415 174.881 175.055 174.881 175.845C174.881 176.634 174.241 177.275 173.451 177.275H76.2151C75.4254 177.275 74.7852 176.634 74.7852 175.845Z" fill="#EAE0F0"/>
<path d="M74.7852 175.845C74.7852 175.055 75.4254 174.415 76.2151 174.415H173.451C174.241 174.415 174.881 175.055 174.881 175.845C174.881 176.634 174.241 177.275 173.451 177.275H76.2151C75.4254 177.275 74.7852 176.634 74.7852 175.845Z" fill="black" fill-opacity="0.2"/>
</g>
</g>
<g opacity="0.3">
<g filter="url(#filter32_d_1301_6450)">
<path d="M74.7852 194.911C74.7852 194.121 75.4254 193.481 76.2151 193.481H173.451C174.241 193.481 174.881 194.121 174.881 194.911C174.881 195.7 174.241 196.341 173.451 196.341H76.2151C75.4254 196.341 74.7852 195.7 74.7852 194.911Z" fill="#EAE0F0"/>
<path d="M74.7852 194.911C74.7852 194.121 75.4254 193.481 76.2151 193.481H173.451C174.241 193.481 174.881 194.121 174.881 194.911C174.881 195.7 174.241 196.341 173.451 196.341H76.2151C75.4254 196.341 74.7852 195.7 74.7852 194.911Z" fill="black" fill-opacity="0.2"/>
</g>
</g>
<g opacity="0.3">
<g filter="url(#filter33_d_1301_6450)">
<path d="M74.7852 213.977C74.7852 213.187 75.4254 212.547 76.2151 212.547H173.451C174.241 212.547 174.881 213.187 174.881 213.977C174.881 214.767 174.241 215.407 173.451 215.407H76.2151C75.4254 215.407 74.7852 214.767 74.7852 213.977Z" fill="#EAE0F0"/>
<path d="M74.7852 213.977C74.7852 213.187 75.4254 212.547 76.2151 212.547H173.451C174.241 212.547 174.881 213.187 174.881 213.977C174.881 214.767 174.241 215.407 173.451 215.407H76.2151C75.4254 215.407 74.7852 214.767 74.7852 213.977Z" fill="black" fill-opacity="0.2"/>
</g>
</g>
<g opacity="0.3">
<g filter="url(#filter34_d_1301_6450)">
<path d="M74.7852 233.042C74.7852 232.253 75.4254 231.613 76.2151 231.613H173.451C174.241 231.613 174.881 232.253 174.881 233.042C174.881 233.832 174.241 234.472 173.451 234.472H76.2151C75.4254 234.472 74.7852 233.832 74.7852 233.042Z" fill="#EAE0F0"/>
<path d="M74.7852 233.042C74.7852 232.253 75.4254 231.613 76.2151 231.613H173.451C174.241 231.613 174.881 232.253 174.881 233.042C174.881 233.832 174.241 234.472 173.451 234.472H76.2151C75.4254 234.472 74.7852 233.832 74.7852 233.042Z" fill="black" fill-opacity="0.2"/>
</g>
</g>
<g opacity="0.3">
<g filter="url(#filter35_d_1301_6450)">
<path d="M74.7852 252.108C74.7852 251.319 75.4254 250.678 76.2151 250.678H173.451C174.241 250.678 174.881 251.319 174.881 252.108C174.881 252.898 174.241 253.538 173.451 253.538H76.2151C75.4254 253.538 74.7852 252.898 74.7852 252.108Z" fill="#EAE0F0"/>
<path d="M74.7852 252.108C74.7852 251.319 75.4254 250.678 76.2151 250.678H173.451C174.241 250.678 174.881 251.319 174.881 252.108C174.881 252.898 174.241 253.538 173.451 253.538H76.2151C75.4254 253.538 74.7852 252.898 74.7852 252.108Z" fill="black" fill-opacity="0.2"/>
</g>
</g>
<path d="M510.431 435C551.462 435 584.725 414.2 584.725 388.542C584.725 362.884 551.462 342.084 510.431 342.084C469.399 342.084 436.137 362.884 436.137 388.542C436.137 414.2 469.399 435 510.431 435Z" fill="#EAE0F0"/>
<path d="M479.728 109.247C475.37 119.128 467.911 135.479 463.822 144.539L447.826 124.699H434.391C434.391 124.699 450.567 161.048 460.212 169.492C463.837 172.665 468.39 172.286 471.251 168.798C474.112 165.31 477.736 160.133 482.08 153.078C489.719 140.656 493.134 135.274 493.134 135.274L502.764 92.6434C494.317 91.9174 485.779 95.5317 479.728 109.247Z" fill="#FAC4C4"/>
<path d="M504.314 92.5301C499.177 92.325 493.59 91.6463 488.677 96.1604C485.457 99.1277 481.308 103.8 477.998 112.007C474.688 120.214 469.551 130.616 469.551 130.616C469.551 130.616 473.13 136.471 479.152 141.159C485.173 145.847 490.655 146.257 490.655 146.257L504.314 92.5301Z" fill="url(#paint0_linear_1301_6450)"/>
<path opacity="0.5" d="M463.824 144.537C463.824 144.537 467.703 149.413 468.737 151.607C468.737 151.607 467.015 144.916 464.678 142.627L463.824 144.537Z" fill="#F28F8F"/>
<path d="M430.349 98.3076H430.319L431.592 96.9029V96.9187C431.877 96.6188 432.356 96.4925 433.015 96.603L448.502 99.3809C449.94 99.6335 451.587 100.975 452.202 102.364L466.131 134.263C466.46 135.005 466.401 135.605 466.086 135.968H466.101L464.783 137.42V137.404C464.498 137.704 464.004 137.846 463.36 137.735L447.873 134.957C446.435 134.705 444.773 133.363 444.174 131.974C441.433 125.708 432.985 106.342 430.244 100.075C429.885 99.2862 429.96 98.6549 430.349 98.3076Z" fill="#455A64"/>
<path d="M464.841 135.683L450.912 103.784C450.298 102.396 448.65 101.054 447.212 100.801L431.725 98.0235C430.287 97.771 429.613 98.6864 430.227 100.091C432.968 106.357 441.416 125.723 444.157 131.989C444.771 133.378 446.418 134.72 447.856 134.972L463.343 137.75C464.781 138.003 465.455 137.072 464.841 135.683Z" fill="#263238"/>
<path d="M448.953 101.526C449.807 102.094 450.556 102.93 450.93 103.767L464.86 135.666C465.159 136.376 465.144 136.976 464.86 137.339L466.103 135.981L466.088 135.966C466.417 135.587 466.462 135.003 466.133 134.261L452.203 102.346C451.859 101.557 451.17 100.8 450.376 100.216L448.953 101.526Z" fill="#37474F"/>
<path d="M437.663 129.858C431.253 122.109 431.432 112.402 434.383 109.592L436.345 114.075C436.345 114.075 446.155 116.379 450.873 115.984C455.591 115.606 459.441 114.422 460.744 115.385C463.485 117.421 464.264 126.086 456.43 129.227C449.735 131.91 437.663 129.858 437.663 129.858Z" fill="#FAC4C4"/>
<path d="M550.38 384.524C546.246 386.86 541.198 386.671 536.271 384.524L534.219 356.24L550.38 358.481V384.524Z" fill="#FFA8A7"/>
<path d="M500.847 367.621C497.357 375.592 491.036 373.382 483.922 368.284L485.165 339.857H502.315L500.847 367.621Z" fill="#FFA8A7"/>
<path d="M520.156 411.295C519.707 411.753 519.842 414.83 520.336 415.667C520.875 416.551 523.976 419.345 529.563 419.755C534.91 420.165 539.688 419.392 542.818 417.293C545.963 415.193 547.476 412.873 547.776 409.669C548.075 406.465 547.731 403.355 549.183 400.893C550.531 398.605 552.658 396.048 553.123 394.801C554.141 392.117 553.153 388.266 553.153 388.266L520.156 411.295Z" fill="#263238"/>
<path d="M534.822 383.278C534.732 384.462 534.537 385.646 534.163 386.845C533.384 389.339 532.216 391.675 530.883 393.901C530.209 395.053 529.49 396.173 528.651 397.215C527.033 399.236 525.026 400.909 523.319 402.85C521.611 404.791 520.158 407.159 520.024 409.763C519.799 414.183 524.352 415.682 527.857 416.345C531.601 417.04 535.586 416.835 539.24 415.746C543.299 414.53 546.235 411.216 546.909 406.938C547.104 405.707 547.029 404.46 547.163 403.229C547.478 400.419 548.856 397.847 550.429 395.495C551.342 394.137 552.316 392.811 552.93 391.28C554.023 388.55 553.14 385.472 552.451 382.741C551.851 380.389 551.163 377.722 550.384 377.943C550.384 378.416 550.414 378.922 550.204 379.364C549.949 379.869 549.755 380.153 549.59 380.752C549.425 381.368 549.23 381.984 548.946 382.568C548.526 383.452 547.912 384.272 547.089 384.73C547.044 383.057 546.984 381.4 546.939 379.727C546.924 379.206 546.894 378.653 546.579 378.259C546.25 377.864 545.726 377.738 545.246 377.643C542.281 377.059 539.27 376.475 536.275 376.854C535.825 376.917 535.331 377.027 535.076 377.406C534.867 377.722 534.867 378.148 534.882 378.543C534.882 380.168 534.942 381.731 534.822 383.278Z" fill="#37474F"/>
<path d="M530.328 394.833C531.885 393.602 535.39 393.586 537.307 393.807C539.704 394.075 541.651 394.959 542.744 395.811C543.239 396.19 543.913 396.127 544.347 395.685C544.871 395.148 544.811 394.265 544.227 393.807C543.059 392.907 540.947 391.629 538.101 391.424C533.398 391.077 532.005 391.929 532.005 391.929C532.005 391.929 529.863 393.365 530.328 394.833Z" fill="#F5F5F5"/>
<path d="M526.73 399.362C528.693 398.148 532.542 398.321 534.459 398.526C536.855 398.794 538.653 399.788 539.746 400.641C540.24 401.019 540.914 400.956 541.349 400.514C541.873 399.978 541.813 399.094 541.229 398.637C540.061 397.737 537.814 396.27 534.983 396.065C530.28 395.718 529.052 396.728 529.052 396.728C529.052 396.728 527.06 397.532 526.73 399.362Z" fill="#F5F5F5"/>
<path d="M539.977 386.673C536.727 386.326 535.349 386.705 534.061 387.194C533.237 387.683 532.683 389.072 533.222 389.42C534.27 388.804 536.157 388.551 538.464 388.662C540.022 388.741 541.969 389.404 543.556 390.13C543.961 390.32 544.44 390.588 544.859 390.825C545.429 391.156 546.133 390.919 546.402 390.32C546.627 389.814 546.462 389.199 545.998 388.899C544.859 388.173 542.613 386.957 539.977 386.673Z" fill="#F5F5F5"/>
<path d="M455.832 385.803C455.397 386.765 455.517 388.581 456.041 389.733C456.565 390.885 462.272 394.279 469.956 393.726C477.654 393.174 482.941 389.907 485.862 387.87C488.798 385.818 491.853 385.44 495.657 385.219C499.462 384.982 504.464 382.993 505.303 381.115C506.142 379.236 505.183 376.001 505.183 376.001L455.832 385.803Z" fill="#263238"/>
<path d="M486.758 360.864C486.099 360.612 485.425 360.343 484.766 360.091C484.406 359.949 483.987 359.807 483.628 359.949C483.133 360.138 482.939 360.754 482.819 361.29C482.549 362.38 482.444 363.816 481.98 364.81C481.561 365.726 480.542 366.562 479.823 367.194C477.951 368.851 475.809 370.161 473.667 371.376C471.151 372.797 468.695 373.902 466.089 375.133C463.438 376.396 459.933 377.153 457.851 378.621C454.825 380.768 454.436 386.15 457.881 388.281C460.846 390.112 468.65 392.101 476.843 389.654C481.306 388.328 486.264 383.293 492.105 382.82C495.834 382.52 502.874 381.415 505.27 378.432C506.154 377.106 504.971 372.923 503.997 369.309C502.934 365.363 502.53 359.191 501.286 359.538C501.197 360.849 500.118 361.606 499.474 362.711C498.89 363.69 498.575 364.794 498.141 365.852C497.707 366.91 497.123 367.951 496.194 368.551C495.265 369.151 493.932 369.198 493.183 368.377C492.09 367.178 492.734 365.094 491.94 363.658C491.401 362.679 490.323 362.237 489.319 361.843C488.465 361.527 487.612 361.196 486.758 360.864Z" fill="#37474F"/>
<path d="M477.125 369.261C477.125 369.261 477.664 367.762 479.881 367.32C481.573 366.988 484.569 368.298 486.426 369.924C487.19 370.587 487.085 371.834 486.231 372.339C485.722 372.639 485.093 372.56 484.644 372.15C483.416 371.029 480.675 369.009 477.125 369.261Z" fill="#F5F5F5"/>
<path d="M471.867 372.356C471.867 372.356 472.961 370.556 475.132 370.588C475.132 370.588 479.551 370.714 482.292 373.413C482.996 374.092 482.936 375.26 482.112 375.749C481.618 376.033 481.004 375.954 480.584 375.56C479.341 374.407 476.87 371.961 471.867 372.356Z" fill="#F5F5F5"/>
<path d="M466.07 375.15C466.07 375.15 467.284 373.525 469.455 373.556C469.455 373.556 473.574 373.714 476.315 376.413C477.019 377.092 476.959 378.26 476.135 378.749C475.641 379.033 475.027 378.954 474.608 378.56C473.365 377.408 471.073 374.756 466.07 375.15Z" fill="#F5F5F5"/>
<path d="M548.337 171.621C549.31 202.572 549.235 277.449 549.235 277.449C549.55 281.3 551.033 289.208 552.246 304.628C553.833 324.673 550.388 368.773 550.388 368.773C550.388 368.773 543.409 372.529 535.066 368.867C535.066 368.867 525.885 306.017 522.964 286.193C520.403 268.768 515.385 229.641 515.385 229.641L509.604 280.527C509.604 280.527 510.982 292.57 509.005 305.954C507.657 315.077 501.666 352.579 501.666 352.579C501.666 352.579 493.757 355.136 484.666 351.9C484.666 351.9 484.097 286.919 483.947 278.475C483.767 268.847 487.991 164.013 487.991 164.013L548.337 171.621Z" fill="#734CC5"/>
<path d="M515.38 229.611L511.036 204.247C511.036 204.247 498.994 203.142 492.344 196.055C492.344 196.055 493.527 202.984 508.67 207.151L513.013 232.815L509.598 280.496L515.38 229.611Z" fill="#263238"/>
<path d="M489.457 116.363C490.76 106.451 491.988 93.1293 506.576 92.5295L525.388 93.4766C530.017 94.7392 548.02 96.9963 548.02 96.9963L548.349 139.991C548.349 139.991 549.503 170.99 549.143 187.579C535.678 196.575 506.382 199.495 487.974 184.769C487.435 171.069 488.184 126.18 489.457 116.363Z" fill="#FAFAFA"/>
<path d="M491.879 41.518C490.442 44.2012 489.558 47.2632 489.468 50.562C489.213 58.6275 493.617 65.6985 500.117 68.95L496.717 71.3964L530.537 74.5848L530.103 83.1711C530.103 83.1711 532.499 82.5871 533.712 80.2984C534.926 78.0098 538.221 63.9623 538.221 63.9623C541.396 56.2915 542.954 48.3996 540.677 45.7795C539.599 44.5326 538.34 43.9644 537.307 43.7277L541.845 41.3601C540.977 39.3556 538.79 38.5033 536.963 39.4661C536.573 39.6713 536.229 39.9554 535.944 40.271C536.049 39.766 536.139 39.2609 536.169 38.74C536.259 37.1774 536.004 35.5517 535.15 34.2732C534.551 33.3578 533.682 32.6633 532.784 32.0793C528.979 29.5697 524.456 28.6385 520.232 27.0601C517.836 26.1604 515.514 25.0556 513.148 24.0612C511.56 23.3825 509.853 22.7512 508.175 23.0984C506.498 23.4457 504.97 25.1976 505.404 26.9338C503.218 25.1187 500.956 24.661 498.41 25.8132C496.313 26.776 494.695 29.1436 494.995 31.6216C493.467 31.2901 491.804 31.3217 490.412 32.0951C489.019 32.8527 487.985 34.4784 488.18 36.1042C488.419 38.0771 490.082 40.0027 491.879 41.518Z" fill="#37474F"/>
<path d="M515.694 46.5362C518.794 46.1416 521.895 45.6207 524.98 45.0999C525.265 45.0525 525.579 45.0209 525.789 45.2103C525.924 45.3366 525.999 45.526 526.058 45.6996C528.08 51.9341 528.036 58.721 529.638 65.0975C529.788 65.6657 530.132 66.66 530.791 66.7389C531.99 66.881 532.813 65.7604 533.323 64.7818C533.712 64.0557 534.087 63.3139 534.476 62.5879C534.716 62.1302 535 61.8303 535.315 61.4673C536.768 60.0625 541.051 58.3422 543.043 63.1403C545.095 68.1279 540.782 74.457 537.322 75.4829C531.361 77.2349 530.597 73.2101 530.597 73.2101L529.458 95.6068C524.186 101.415 506.857 99.3948 510.287 94.3599L510.512 87.5415C510.512 87.5415 505.134 88.2202 502.543 87.6993C498.23 86.847 495.609 83.1379 494.455 78.1503C492.583 70.1324 492.793 60.3151 494.261 48.1303C494.44 46.5835 494.845 45.1946 495.324 43.9319C501.42 47.4516 508.804 47.3885 515.694 46.5362Z" fill="#FAC4C4"/>
<path opacity="0.5" d="M510.543 87.5423C510.543 87.5423 520.293 85.8219 523.723 84.0384C526.03 82.8546 527.962 80.708 528.546 79.3191C528.546 79.3191 527.812 82.318 525.715 84.9854C523.139 88.2368 510.453 90.2571 510.453 90.2571L510.543 87.5423Z" fill="#F28F8F"/>
<path d="M511.935 62.2583C511.89 63.5207 512.789 64.5621 513.942 64.5937C515.096 64.6253 516.054 63.6469 516.084 62.3845C516.129 61.1221 515.23 60.0806 514.077 60.0491C512.939 60.0175 511.98 60.9959 511.935 62.2583Z" fill="#263238"/>
<path d="M514.824 53.1341L519.183 55.1058C519.677 53.7966 519.108 52.2824 517.895 51.7461C516.696 51.194 515.318 51.8249 514.824 53.1341Z" fill="#263238"/>
<path d="M514.455 74.1743L507.625 76.6047C508.224 78.672 510.246 79.7925 512.133 79.1139C514.021 78.4511 515.054 76.2417 514.455 74.1743Z" fill="#B16668"/>
<path d="M512.136 79.1279C513.349 78.7019 514.188 77.6292 514.502 76.3828C514.128 76.2093 513.709 76.0989 513.259 76.0989C511.612 76.0989 510.279 77.4714 510.219 79.2068C510.833 79.3645 511.492 79.3645 512.136 79.1279Z" fill="#F28F8F"/>
<path d="M494.622 54.9834L498.966 53.2313C498.546 51.9843 497.228 51.3529 496.03 51.8422C494.832 52.3315 494.203 53.7364 494.622 54.9834Z" fill="#263238"/>
<path d="M496.15 62.2581C496.105 63.5206 497.019 64.5779 498.172 64.6095C499.325 64.6411 500.299 63.6469 500.329 62.3844C500.374 61.1219 499.46 60.0645 498.307 60.033C497.154 60.0014 496.195 60.9956 496.15 62.2581Z" fill="#263238"/>
<path opacity="0.5" d="M506.303 61.5793L505.989 73.685L499.578 71.7279L505.554 61.4688C505.839 61.4531 506.078 61.5004 506.303 61.5793Z" fill="#F28F8F"/>
<path d="M487.175 128.691C487.684 116.127 488.613 105.047 493.046 99.1601C497.479 93.2729 499.876 92.1522 510.39 92.3259L510.36 93.0835C509.132 93.194 508.069 93.8253 507.38 94.8986C505.448 97.9448 501.523 104.874 499.292 113.839C496.236 126.039 495.712 153.282 495.562 167.96C495.412 182.639 495.562 194.461 495.562 194.461C495.562 194.461 488.523 192.724 486.336 189.015C486.336 189.015 486.665 141.255 487.175 128.691Z" fill="url(#paint1_linear_1301_6450)"/>
<path d="M523.524 108.709C525.022 102.017 528.122 97.613 529.515 94.2039L542.665 96.161C547.503 98.5127 553.809 104.132 553.33 109.735L549.885 150.866L550.843 189.803C543.324 202.114 520.918 199.841 520.918 199.841C520.918 199.841 520.274 182.322 521.007 148.467C521.412 129.511 521.622 117.232 523.524 108.709Z" fill="url(#paint2_linear_1301_6450)"/>
<path d="M522.906 112.007C523.775 107.714 524.239 99.7278 524.958 98.1179C525.662 96.508 529.586 93.304 529.736 91.1574L529.811 89.7527C529.811 89.7527 531.399 89.9421 533.091 91.5362C534.319 92.6884 537.959 95.3558 537.959 95.3558C537.959 95.3558 537.599 99.1438 535.233 102.742C533.076 106.01 530.081 108.14 529.616 107.335C529.182 106.578 529.227 105.299 528.433 103.39C527.445 101.006 527.205 99.9961 526.156 102.348C525.303 104.242 522.906 112.007 522.906 112.007Z" fill="url(#paint3_linear_1301_6450)"/>
<path d="M500.491 109.655C499.428 113.27 502.243 97.1235 504.056 94.2826C505.868 91.4416 510.526 90.321 510.526 90.321L510.331 93.8091C510.331 93.8091 508.819 93.9985 507.366 95.9872C506.183 97.5812 501.944 104.699 500.491 109.655Z" fill="url(#paint4_linear_1301_6450)"/>
<path d="M522.436 115.43C531.317 116.314 541.352 117.956 552.436 120.371L552.331 121.539C541.218 119.124 531.168 117.451 522.301 116.583C522.361 116.204 522.391 115.809 522.436 115.43Z" fill="url(#paint5_linear_1301_6450)"/>
<path d="M488.104 115.179C491.384 114.769 495.114 114.422 499.203 114.201C499.113 114.58 499.023 114.974 498.933 115.384C494.889 115.605 491.205 115.952 487.984 116.362C488.014 115.968 488.059 115.558 488.104 115.179Z" fill="url(#paint6_linear_1301_6450)"/>
<path d="M577.865 151.609C563.816 114.012 560.73 102.317 550.83 97.9923C547.011 96.335 542.667 96.1614 542.667 96.1614C540.241 100.865 536.646 119.079 548.389 131.737C548.389 131.737 556.896 153.866 561.18 164.299C561.045 174.795 561.764 183.57 558.723 197.775C558.409 199.275 556.671 201.784 555.338 202.558C551.774 204.625 551.189 206.961 548.553 209.629C546.486 211.712 544.689 212.186 545.004 212.88C545.393 213.78 546.966 215.248 549.557 214.569C550.86 214.222 553.002 212.754 555.069 211.523C555.413 211.949 552.088 217.552 548.613 221.64C543.491 227.653 542.248 231.994 552.493 232.42C558.918 232.688 565.853 227.133 570.211 213.638C571.08 210.97 571.964 207.103 572.877 203.363C573.536 201.753 578.239 176.436 579.228 168.702C580.486 158.901 580.157 157.717 577.865 151.609Z" fill="#FAC4C4"/>
<path d="M540.915 96.1596C540.915 96.1596 547.79 94.9285 553.347 98.464C558.903 101.999 560.835 105.093 567.531 121.539C574.241 138.001 575.544 141.158 575.544 141.158C575.544 141.158 572.518 150.533 554.665 151.607L546.651 132.351C546.651 132.351 539.986 123.623 539.387 112.827C538.803 102.063 540.915 96.1596 540.915 96.1596Z" fill="url(#paint7_linear_1301_6450)"/>
<defs>
<filter id="filter0_d_1301_6450" x="305.051" y="0" width="237.273" height="381.222" filterUnits="userSpaceOnUse" color-interpolation-filters="sRGB">
<feFlood flood-opacity="0" result="BackgroundImageFix"/>
<feColorMatrix in="SourceAlpha" type="matrix" values="0 0 0 0 0 0 0 0 0 0 0 0 0 0 0 0 0 0 127 0" result="hardAlpha"/>
<feOffset dy="10"/>
<feGaussianBlur stdDeviation="25"/>
<feComposite in2="hardAlpha" operator="out"/>
<feColorMatrix type="matrix" values="0 0 0 0 0 0 0 0 0 0 0 0 0 0 0 0 0 0 0.05 0"/>
<feBlend mode="normal" in2="BackgroundImageFix" result="effect1_dropShadow_1301_6450"/>
<feBlend mode="normal" in="SourceGraphic" in2="effect1_dropShadow_1301_6450" result="shape"/>
</filter>
<filter id="filter1_d_1301_6450" x="324.121" y="37.1785" width="199.145" height="114.3" filterUnits="userSpaceOnUse" color-interpolation-filters="sRGB">
<feFlood flood-opacity="0" result="BackgroundImageFix"/>
<feColorMatrix in="SourceAlpha" type="matrix" values="0 0 0 0 0 0 0 0 0 0 0 0 0 0 0 0 0 0 127 0" result="hardAlpha"/>
<feOffset dy="10"/>
<feGaussianBlur stdDeviation="25"/>
<feComposite in2="hardAlpha" operator="out"/>
<feColorMatrix type="matrix" values="0 0 0 0 0 0 0 0 0 0 0 0 0 0 0 0 0 0 0.05 0"/>
<feBlend mode="normal" in2="BackgroundImageFix" result="effect1_dropShadow_1301_6450"/>
<feBlend mode="normal" in="SourceGraphic" in2="effect1_dropShadow_1301_6450" result="shape"/>
</filter>
<filter id="filter2_d_1301_6450" x="344.137" y="242.137" width="159.105" height="114.3" filterUnits="userSpaceOnUse" color-interpolation-filters="sRGB">
<feFlood flood-opacity="0" result="BackgroundImageFix"/>
<feColorMatrix in="SourceAlpha" type="matrix" values="0 0 0 0 0 0 0 0 0 0 0 0 0 0 0 0 0 0 127 0" result="hardAlpha"/>
<feOffset dy="10"/>
<feGaussianBlur stdDeviation="25"/>
<feComposite in2="hardAlpha" operator="out"/>
<feColorMatrix type="matrix" values="0 0 0 0 0 0 0 0 0 0 0 0 0 0 0 0 0 0 0.05 0"/>
<feBlend mode="normal" in2="BackgroundImageFix" result="effect1_dropShadow_1301_6450"/>
<feBlend mode="normal" in="SourceGraphic" in2="effect1_dropShadow_1301_6450" result="shape"/>
</filter>
<filter id="filter3_d_1301_6450" x="324.121" y="58.1509" width="199.145" height="102.86" filterUnits="userSpaceOnUse" color-interpolation-filters="sRGB">
<feFlood flood-opacity="0" result="BackgroundImageFix"/>
<feColorMatrix in="SourceAlpha" type="matrix" values="0 0 0 0 0 0 0 0 0 0 0 0 0 0 0 0 0 0 127 0" result="hardAlpha"/>
<feOffset dy="10"/>
<feGaussianBlur stdDeviation="25"/>
<feComposite in2="hardAlpha" operator="out"/>
<feColorMatrix type="matrix" values="0 0 0 0 0 0 0 0 0 0 0 0 0 0 0 0 0 0 0.05 0"/>
<feBlend mode="normal" in2="BackgroundImageFix" result="effect1_dropShadow_1301_6450"/>
<feBlend mode="normal" in="SourceGraphic" in2="effect1_dropShadow_1301_6450" result="shape"/>
</filter>
<filter id="filter4_d_1301_6450" x="338.414" y="71.4971" width="170.543" height="102.86" filterUnits="userSpaceOnUse" color-interpolation-filters="sRGB">
<feFlood flood-opacity="0" result="BackgroundImageFix"/>
<feColorMatrix in="SourceAlpha" type="matrix" values="0 0 0 0 0 0 0 0 0 0 0 0 0 0 0 0 0 0 127 0" result="hardAlpha"/>
<feOffset dy="10"/>
<feGaussianBlur stdDeviation="25"/>
<feComposite in2="hardAlpha" operator="out"/>
<feColorMatrix type="matrix" values="0 0 0 0 0 0 0 0 0 0 0 0 0 0 0 0 0 0 0.05 0"/>
<feBlend mode="normal" in2="BackgroundImageFix" result="effect1_dropShadow_1301_6450"/>
<feBlend mode="normal" in="SourceGraphic" in2="effect1_dropShadow_1301_6450" result="shape"/>
</filter>
<filter id="filter5_d_1301_6450" x="317.441" y="64.8242" width="212.488" height="102.86" filterUnits="userSpaceOnUse" color-interpolation-filters="sRGB">
<feFlood flood-opacity="0" result="BackgroundImageFix"/>
<feColorMatrix in="SourceAlpha" type="matrix" values="0 0 0 0 0 0 0 0 0 0 0 0 0 0 0 0 0 0 127 0" result="hardAlpha"/>
<feOffset dy="10"/>
<feGaussianBlur stdDeviation="25"/>
<feComposite in2="hardAlpha" operator="out"/>
<feColorMatrix type="matrix" values="0 0 0 0 0 0 0 0 0 0 0 0 0 0 0 0 0 0 0.05 0"/>
<feBlend mode="normal" in2="BackgroundImageFix" result="effect1_dropShadow_1301_6450"/>
<feBlend mode="normal" in="SourceGraphic" in2="effect1_dropShadow_1301_6450" result="shape"/>
</filter>
<filter id="filter6_d_1301_6450" x="329.836" y="115.349" width="200.098" height="102.86" filterUnits="userSpaceOnUse" color-interpolation-filters="sRGB">
<feFlood flood-opacity="0" result="BackgroundImageFix"/>
<feColorMatrix in="SourceAlpha" type="matrix" values="0 0 0 0 0 0 0 0 0 0 0 0 0 0 0 0 0 0 127 0" result="hardAlpha"/>
<feOffset dy="10"/>
<feGaussianBlur stdDeviation="25"/>
<feComposite in2="hardAlpha" operator="out"/>
<feColorMatrix type="matrix" values="0 0 0 0 0 0 0 0 0 0 0 0 0 0 0 0 0 0 0.05 0"/>
<feBlend mode="normal" in2="BackgroundImageFix" result="effect1_dropShadow_1301_6450"/>
<feBlend mode="normal" in="SourceGraphic" in2="effect1_dropShadow_1301_6450" result="shape"/>
</filter>
<filter id="filter7_d_1301_6450" x="329.836" y="134.415" width="200.098" height="102.86" filterUnits="userSpaceOnUse" color-interpolation-filters="sRGB">
<feFlood flood-opacity="0" result="BackgroundImageFix"/>
<feColorMatrix in="SourceAlpha" type="matrix" values="0 0 0 0 0 0 0 0 0 0 0 0 0 0 0 0 0 0 127 0" result="hardAlpha"/>
<feOffset dy="10"/>
<feGaussianBlur stdDeviation="25"/>
<feComposite in2="hardAlpha" operator="out"/>
<feColorMatrix type="matrix" values="0 0 0 0 0 0 0 0 0 0 0 0 0 0 0 0 0 0 0.05 0"/>
<feBlend mode="normal" in2="BackgroundImageFix" result="effect1_dropShadow_1301_6450"/>
<feBlend mode="normal" in="SourceGraphic" in2="effect1_dropShadow_1301_6450" result="shape"/>
</filter>
<filter id="filter8_d_1301_6450" x="329.836" y="153.48" width="200.098" height="102.86" filterUnits="userSpaceOnUse" color-interpolation-filters="sRGB">
<feFlood flood-opacity="0" result="BackgroundImageFix"/>
<feColorMatrix in="SourceAlpha" type="matrix" values="0 0 0 0 0 0 0 0 0 0 0 0 0 0 0 0 0 0 127 0" result="hardAlpha"/>
<feOffset dy="10"/>
<feGaussianBlur stdDeviation="25"/>
<feComposite in2="hardAlpha" operator="out"/>
<feColorMatrix type="matrix" values="0 0 0 0 0 0 0 0 0 0 0 0 0 0 0 0 0 0 0.05 0"/>
<feBlend mode="normal" in2="BackgroundImageFix" result="effect1_dropShadow_1301_6450"/>
<feBlend mode="normal" in="SourceGraphic" in2="effect1_dropShadow_1301_6450" result="shape"/>
</filter>
<filter id="filter9_d_1301_6450" x="329.836" y="172.546" width="200.098" height="102.86" filterUnits="userSpaceOnUse" color-interpolation-filters="sRGB">
<feFlood flood-opacity="0" result="BackgroundImageFix"/>
<feColorMatrix in="SourceAlpha" type="matrix" values="0 0 0 0 0 0 0 0 0 0 0 0 0 0 0 0 0 0 127 0" result="hardAlpha"/>
<feOffset dy="10"/>
<feGaussianBlur stdDeviation="25"/>
<feComposite in2="hardAlpha" operator="out"/>
<feColorMatrix type="matrix" values="0 0 0 0 0 0 0 0 0 0 0 0 0 0 0 0 0 0 0.05 0"/>
<feBlend mode="normal" in2="BackgroundImageFix" result="effect1_dropShadow_1301_6450"/>
<feBlend mode="normal" in="SourceGraphic" in2="effect1_dropShadow_1301_6450" result="shape"/>
</filter>
<filter id="filter10_d_1301_6450" x="329.836" y="191.613" width="200.098" height="102.86" filterUnits="userSpaceOnUse" color-interpolation-filters="sRGB">
<feFlood flood-opacity="0" result="BackgroundImageFix"/>
<feColorMatrix in="SourceAlpha" type="matrix" values="0 0 0 0 0 0 0 0 0 0 0 0 0 0 0 0 0 0 127 0" result="hardAlpha"/>
<feOffset dy="10"/>
<feGaussianBlur stdDeviation="25"/>
<feComposite in2="hardAlpha" operator="out"/>
<feColorMatrix type="matrix" values="0 0 0 0 0 0 0 0 0 0 0 0 0 0 0 0 0 0 0.05 0"/>
<feBlend mode="normal" in2="BackgroundImageFix" result="effect1_dropShadow_1301_6450"/>
<feBlend mode="normal" in="SourceGraphic" in2="effect1_dropShadow_1301_6450" result="shape"/>
</filter>
<filter id="filter11_d_1301_6450" x="329.836" y="210.678" width="200.098" height="102.86" filterUnits="userSpaceOnUse" color-interpolation-filters="sRGB">
<feFlood flood-opacity="0" result="BackgroundImageFix"/>
<feColorMatrix in="SourceAlpha" type="matrix" values="0 0 0 0 0 0 0 0 0 0 0 0 0 0 0 0 0 0 127 0" result="hardAlpha"/>
<feOffset dy="10"/>
<feGaussianBlur stdDeviation="25"/>
<feComposite in2="hardAlpha" operator="out"/>
<feColorMatrix type="matrix" values="0 0 0 0 0 0 0 0 0 0 0 0 0 0 0 0 0 0 0.05 0"/>
<feBlend mode="normal" in2="BackgroundImageFix" result="effect1_dropShadow_1301_6450"/>
<feBlend mode="normal" in="SourceGraphic" in2="effect1_dropShadow_1301_6450" result="shape"/>
</filter>
<filter id="filter12_d_1301_6450" x="152.527" y="0" width="237.273" height="381.222" filterUnits="userSpaceOnUse" color-interpolation-filters="sRGB">
<feFlood flood-opacity="0" result="BackgroundImageFix"/>
<feColorMatrix in="SourceAlpha" type="matrix" values="0 0 0 0 0 0 0 0 0 0 0 0 0 0 0 0 0 0 127 0" result="hardAlpha"/>
<feOffset dy="10"/>
<feGaussianBlur stdDeviation="25"/>
<feComposite in2="hardAlpha" operator="out"/>
<feColorMatrix type="matrix" values="0 0 0 0 0 0 0 0 0 0 0 0 0 0 0 0 0 0 0.05 0"/>
<feBlend mode="normal" in2="BackgroundImageFix" result="effect1_dropShadow_1301_6450"/>
<feBlend mode="normal" in="SourceGraphic" in2="effect1_dropShadow_1301_6450" result="shape"/>
</filter>
<filter id="filter13_d_1301_6450" x="171.594" y="37.1785" width="199.145" height="114.3" filterUnits="userSpaceOnUse" color-interpolation-filters="sRGB">
<feFlood flood-opacity="0" result="BackgroundImageFix"/>
<feColorMatrix in="SourceAlpha" type="matrix" values="0 0 0 0 0 0 0 0 0 0 0 0 0 0 0 0 0 0 127 0" result="hardAlpha"/>
<feOffset dy="10"/>
<feGaussianBlur stdDeviation="25"/>
<feComposite in2="hardAlpha" operator="out"/>
<feColorMatrix type="matrix" values="0 0 0 0 0 0 0 0 0 0 0 0 0 0 0 0 0 0 0.05 0"/>
<feBlend mode="normal" in2="BackgroundImageFix" result="effect1_dropShadow_1301_6450"/>
<feBlend mode="normal" in="SourceGraphic" in2="effect1_dropShadow_1301_6450" result="shape"/>
</filter>
<filter id="filter14_d_1301_6450" x="191.613" y="242.137" width="159.105" height="114.3" filterUnits="userSpaceOnUse" color-interpolation-filters="sRGB">
<feFlood flood-opacity="0" result="BackgroundImageFix"/>
<feColorMatrix in="SourceAlpha" type="matrix" values="0 0 0 0 0 0 0 0 0 0 0 0 0 0 0 0 0 0 127 0" result="hardAlpha"/>
<feOffset dy="10"/>
<feGaussianBlur stdDeviation="25"/>
<feComposite in2="hardAlpha" operator="out"/>
<feColorMatrix type="matrix" values="0 0 0 0 0 0 0 0 0 0 0 0 0 0 0 0 0 0 0.05 0"/>
<feBlend mode="normal" in2="BackgroundImageFix" result="effect1_dropShadow_1301_6450"/>
<feBlend mode="normal" in="SourceGraphic" in2="effect1_dropShadow_1301_6450" result="shape"/>
</filter>
<filter id="filter15_d_1301_6450" x="171.594" y="58.1509" width="199.145" height="102.86" filterUnits="userSpaceOnUse" color-interpolation-filters="sRGB">
<feFlood flood-opacity="0" result="BackgroundImageFix"/>
<feColorMatrix in="SourceAlpha" type="matrix" values="0 0 0 0 0 0 0 0 0 0 0 0 0 0 0 0 0 0 127 0" result="hardAlpha"/>
<feOffset dy="10"/>
<feGaussianBlur stdDeviation="25"/>
<feComposite in2="hardAlpha" operator="out"/>
<feColorMatrix type="matrix" values="0 0 0 0 0 0 0 0 0 0 0 0 0 0 0 0 0 0 0.05 0"/>
<feBlend mode="normal" in2="BackgroundImageFix" result="effect1_dropShadow_1301_6450"/>
<feBlend mode="normal" in="SourceGraphic" in2="effect1_dropShadow_1301_6450" result="shape"/>
</filter>
<filter id="filter16_d_1301_6450" x="185.895" y="71.4971" width="170.543" height="102.86" filterUnits="userSpaceOnUse" color-interpolation-filters="sRGB">
<feFlood flood-opacity="0" result="BackgroundImageFix"/>
<feColorMatrix in="SourceAlpha" type="matrix" values="0 0 0 0 0 0 0 0 0 0 0 0 0 0 0 0 0 0 127 0" result="hardAlpha"/>
<feOffset dy="10"/>
<feGaussianBlur stdDeviation="25"/>
<feComposite in2="hardAlpha" operator="out"/>
<feColorMatrix type="matrix" values="0 0 0 0 0 0 0 0 0 0 0 0 0 0 0 0 0 0 0.05 0"/>
<feBlend mode="normal" in2="BackgroundImageFix" result="effect1_dropShadow_1301_6450"/>
<feBlend mode="normal" in="SourceGraphic" in2="effect1_dropShadow_1301_6450" result="shape"/>
</filter>
<filter id="filter17_d_1301_6450" x="164.922" y="64.8242" width="212.488" height="102.86" filterUnits="userSpaceOnUse" color-interpolation-filters="sRGB">
<feFlood flood-opacity="0" result="BackgroundImageFix"/>
<feColorMatrix in="SourceAlpha" type="matrix" values="0 0 0 0 0 0 0 0 0 0 0 0 0 0 0 0 0 0 127 0" result="hardAlpha"/>
<feOffset dy="10"/>
<feGaussianBlur stdDeviation="25"/>
<feComposite in2="hardAlpha" operator="out"/>
<feColorMatrix type="matrix" values="0 0 0 0 0 0 0 0 0 0 0 0 0 0 0 0 0 0 0.05 0"/>
<feBlend mode="normal" in2="BackgroundImageFix" result="effect1_dropShadow_1301_6450"/>
<feBlend mode="normal" in="SourceGraphic" in2="effect1_dropShadow_1301_6450" result="shape"/>
</filter>
<filter id="filter18_d_1301_6450" x="177.316" y="115.349" width="200.098" height="102.86" filterUnits="userSpaceOnUse" color-interpolation-filters="sRGB">
<feFlood flood-opacity="0" result="BackgroundImageFix"/>
<feColorMatrix in="SourceAlpha" type="matrix" values="0 0 0 0 0 0 0 0 0 0 0 0 0 0 0 0 0 0 127 0" result="hardAlpha"/>
<feOffset dy="10"/>
<feGaussianBlur stdDeviation="25"/>
<feComposite in2="hardAlpha" operator="out"/>
<feColorMatrix type="matrix" values="0 0 0 0 0 0 0 0 0 0 0 0 0 0 0 0 0 0 0.05 0"/>
<feBlend mode="normal" in2="BackgroundImageFix" result="effect1_dropShadow_1301_6450"/>
<feBlend mode="normal" in="SourceGraphic" in2="effect1_dropShadow_1301_6450" result="shape"/>
</filter>
<filter id="filter19_d_1301_6450" x="177.312" y="134.415" width="200.098" height="102.86" filterUnits="userSpaceOnUse" color-interpolation-filters="sRGB">
<feFlood flood-opacity="0" result="BackgroundImageFix"/>
<feColorMatrix in="SourceAlpha" type="matrix" values="0 0 0 0 0 0 0 0 0 0 0 0 0 0 0 0 0 0 127 0" result="hardAlpha"/>
<feOffset dy="10"/>
<feGaussianBlur stdDeviation="25"/>
<feComposite in2="hardAlpha" operator="out"/>
<feColorMatrix type="matrix" values="0 0 0 0 0 0 0 0 0 0 0 0 0 0 0 0 0 0 0.05 0"/>
<feBlend mode="normal" in2="BackgroundImageFix" result="effect1_dropShadow_1301_6450"/>
<feBlend mode="normal" in="SourceGraphic" in2="effect1_dropShadow_1301_6450" result="shape"/>
</filter>
<filter id="filter20_d_1301_6450" x="177.312" y="153.481" width="200.098" height="102.86" filterUnits="userSpaceOnUse" color-interpolation-filters="sRGB">
<feFlood flood-opacity="0" result="BackgroundImageFix"/>
<feColorMatrix in="SourceAlpha" type="matrix" values="0 0 0 0 0 0 0 0 0 0 0 0 0 0 0 0 0 0 127 0" result="hardAlpha"/>
<feOffset dy="10"/>
<feGaussianBlur stdDeviation="25"/>
<feComposite in2="hardAlpha" operator="out"/>
<feColorMatrix type="matrix" values="0 0 0 0 0 0 0 0 0 0 0 0 0 0 0 0 0 0 0.05 0"/>
<feBlend mode="normal" in2="BackgroundImageFix" result="effect1_dropShadow_1301_6450"/>
<feBlend mode="normal" in="SourceGraphic" in2="effect1_dropShadow_1301_6450" result="shape"/>
</filter>
<filter id="filter21_d_1301_6450" x="177.312" y="172.546" width="200.098" height="102.86" filterUnits="userSpaceOnUse" color-interpolation-filters="sRGB">
<feFlood flood-opacity="0" result="BackgroundImageFix"/>
<feColorMatrix in="SourceAlpha" type="matrix" values="0 0 0 0 0 0 0 0 0 0 0 0 0 0 0 0 0 0 127 0" result="hardAlpha"/>
<feOffset dy="10"/>
<feGaussianBlur stdDeviation="25"/>
<feComposite in2="hardAlpha" operator="out"/>
<feColorMatrix type="matrix" values="0 0 0 0 0 0 0 0 0 0 0 0 0 0 0 0 0 0 0.05 0"/>
<feBlend mode="normal" in2="BackgroundImageFix" result="effect1_dropShadow_1301_6450"/>
<feBlend mode="normal" in="SourceGraphic" in2="effect1_dropShadow_1301_6450" result="shape"/>
</filter>
<filter id="filter22_d_1301_6450" x="177.312" y="191.613" width="200.098" height="102.86" filterUnits="userSpaceOnUse" color-interpolation-filters="sRGB">
<feFlood flood-opacity="0" result="BackgroundImageFix"/>
<feColorMatrix in="SourceAlpha" type="matrix" values="0 0 0 0 0 0 0 0 0 0 0 0 0 0 0 0 0 0 127 0" result="hardAlpha"/>
<feOffset dy="10"/>
<feGaussianBlur stdDeviation="25"/>
<feComposite in2="hardAlpha" operator="out"/>
<feColorMatrix type="matrix" values="0 0 0 0 0 0 0 0 0 0 0 0 0 0 0 0 0 0 0.05 0"/>
<feBlend mode="normal" in2="BackgroundImageFix" result="effect1_dropShadow_1301_6450"/>
<feBlend mode="normal" in="SourceGraphic" in2="effect1_dropShadow_1301_6450" result="shape"/>
</filter>
<filter id="filter23_d_1301_6450" x="177.312" y="210.678" width="200.098" height="102.86" filterUnits="userSpaceOnUse" color-interpolation-filters="sRGB">
<feFlood flood-opacity="0" result="BackgroundImageFix"/>
<feColorMatrix in="SourceAlpha" type="matrix" values="0 0 0 0 0 0 0 0 0 0 0 0 0 0 0 0 0 0 127 0" result="hardAlpha"/>
<feOffset dy="10"/>
<feGaussianBlur stdDeviation="25"/>
<feComposite in2="hardAlpha" operator="out"/>
<feColorMatrix type="matrix" values="0 0 0 0 0 0 0 0 0 0 0 0 0 0 0 0 0 0 0.05 0"/>
<feBlend mode="normal" in2="BackgroundImageFix" result="effect1_dropShadow_1301_6450"/>
<feBlend mode="normal" in="SourceGraphic" in2="effect1_dropShadow_1301_6450" result="shape"/>
</filter>
<filter id="filter24_d_1301_6450" x="0" y="0" width="237.273" height="381.222" filterUnits="userSpaceOnUse" color-interpolation-filters="sRGB">
<feFlood flood-opacity="0" result="BackgroundImageFix"/>
<feColorMatrix in="SourceAlpha" type="matrix" values="0 0 0 0 0 0 0 0 0 0 0 0 0 0 0 0 0 0 127 0" result="hardAlpha"/>
<feOffset dy="10"/>
<feGaussianBlur stdDeviation="25"/>
<feComposite in2="hardAlpha" operator="out"/>
<feColorMatrix type="matrix" values="0 0 0 0 0 0 0 0 0 0 0 0 0 0 0 0 0 0 0.05 0"/>
<feBlend mode="normal" in2="BackgroundImageFix" result="effect1_dropShadow_1301_6450"/>
<feBlend mode="normal" in="SourceGraphic" in2="effect1_dropShadow_1301_6450" result="shape"/>
</filter>
<filter id="filter25_d_1301_6450" x="19.0664" y="37.1787" width="199.145" height="114.3" filterUnits="userSpaceOnUse" color-interpolation-filters="sRGB">
<feFlood flood-opacity="0" result="BackgroundImageFix"/>
<feColorMatrix in="SourceAlpha" type="matrix" values="0 0 0 0 0 0 0 0 0 0 0 0 0 0 0 0 0 0 127 0" result="hardAlpha"/>
<feOffset dy="10"/>
<feGaussianBlur stdDeviation="25"/>
<feComposite in2="hardAlpha" operator="out"/>
<feColorMatrix type="matrix" values="0 0 0 0 0 0 0 0 0 0 0 0 0 0 0 0 0 0 0.05 0"/>
<feBlend mode="normal" in2="BackgroundImageFix" result="effect1_dropShadow_1301_6450"/>
<feBlend mode="normal" in="SourceGraphic" in2="effect1_dropShadow_1301_6450" result="shape"/>
</filter>
<filter id="filter26_d_1301_6450" x="39.0898" y="242.137" width="159.105" height="114.3" filterUnits="userSpaceOnUse" color-interpolation-filters="sRGB">
<feFlood flood-opacity="0" result="BackgroundImageFix"/>
<feColorMatrix in="SourceAlpha" type="matrix" values="0 0 0 0 0 0 0 0 0 0 0 0 0 0 0 0 0 0 127 0" result="hardAlpha"/>
<feOffset dy="10"/>
<feGaussianBlur stdDeviation="25"/>
<feComposite in2="hardAlpha" operator="out"/>
<feColorMatrix type="matrix" values="0 0 0 0 0 0 0 0 0 0 0 0 0 0 0 0 0 0 0.05 0"/>
<feBlend mode="normal" in2="BackgroundImageFix" result="effect1_dropShadow_1301_6450"/>
<feBlend mode="normal" in="SourceGraphic" in2="effect1_dropShadow_1301_6450" result="shape"/>
</filter>
<filter id="filter27_d_1301_6450" x="19.0664" y="58.1511" width="199.145" height="102.86" filterUnits="userSpaceOnUse" color-interpolation-filters="sRGB">
<feFlood flood-opacity="0" result="BackgroundImageFix"/>
<feColorMatrix in="SourceAlpha" type="matrix" values="0 0 0 0 0 0 0 0 0 0 0 0 0 0 0 0 0 0 127 0" result="hardAlpha"/>
<feOffset dy="10"/>
<feGaussianBlur stdDeviation="25"/>
<feComposite in2="hardAlpha" operator="out"/>
<feColorMatrix type="matrix" values="0 0 0 0 0 0 0 0 0 0 0 0 0 0 0 0 0 0 0.05 0"/>
<feBlend mode="normal" in2="BackgroundImageFix" result="effect1_dropShadow_1301_6450"/>
<feBlend mode="normal" in="SourceGraphic" in2="effect1_dropShadow_1301_6450" result="shape"/>
</filter>
<filter id="filter28_d_1301_6450" x="33.3672" y="71.4971" width="170.543" height="102.86" filterUnits="userSpaceOnUse" color-interpolation-filters="sRGB">
<feFlood flood-opacity="0" result="BackgroundImageFix"/>
<feColorMatrix in="SourceAlpha" type="matrix" values="0 0 0 0 0 0 0 0 0 0 0 0 0 0 0 0 0 0 127 0" result="hardAlpha"/>
<feOffset dy="10"/>
<feGaussianBlur stdDeviation="25"/>
<feComposite in2="hardAlpha" operator="out"/>
<feColorMatrix type="matrix" values="0 0 0 0 0 0 0 0 0 0 0 0 0 0 0 0 0 0 0.05 0"/>
<feBlend mode="normal" in2="BackgroundImageFix" result="effect1_dropShadow_1301_6450"/>
<feBlend mode="normal" in="SourceGraphic" in2="effect1_dropShadow_1301_6450" result="shape"/>
</filter>
<filter id="filter29_d_1301_6450" x="12.3945" y="64.8245" width="212.488" height="102.86" filterUnits="userSpaceOnUse" color-interpolation-filters="sRGB">
<feFlood flood-opacity="0" result="BackgroundImageFix"/>
<feColorMatrix in="SourceAlpha" type="matrix" values="0 0 0 0 0 0 0 0 0 0 0 0 0 0 0 0 0 0 127 0" result="hardAlpha"/>
<feOffset dy="10"/>
<feGaussianBlur stdDeviation="25"/>
<feComposite in2="hardAlpha" operator="out"/>
<feColorMatrix type="matrix" values="0 0 0 0 0 0 0 0 0 0 0 0 0 0 0 0 0 0 0.05 0"/>
<feBlend mode="normal" in2="BackgroundImageFix" result="effect1_dropShadow_1301_6450"/>
<feBlend mode="normal" in="SourceGraphic" in2="effect1_dropShadow_1301_6450" result="shape"/>
</filter>
<filter id="filter30_d_1301_6450" x="24.7891" y="115.349" width="200.098" height="102.86" filterUnits="userSpaceOnUse" color-interpolation-filters="sRGB">
<feFlood flood-opacity="0" result="BackgroundImageFix"/>
<feColorMatrix in="SourceAlpha" type="matrix" values="0 0 0 0 0 0 0 0 0 0 0 0 0 0 0 0 0 0 127 0" result="hardAlpha"/>
<feOffset dy="10"/>
<feGaussianBlur stdDeviation="25"/>
<feComposite in2="hardAlpha" operator="out"/>
<feColorMatrix type="matrix" values="0 0 0 0 0 0 0 0 0 0 0 0 0 0 0 0 0 0 0.05 0"/>
<feBlend mode="normal" in2="BackgroundImageFix" result="effect1_dropShadow_1301_6450"/>
<feBlend mode="normal" in="SourceGraphic" in2="effect1_dropShadow_1301_6450" result="shape"/>
</filter>
<filter id="filter31_d_1301_6450" x="24.7852" y="134.415" width="200.098" height="102.86" filterUnits="userSpaceOnUse" color-interpolation-filters="sRGB">
<feFlood flood-opacity="0" result="BackgroundImageFix"/>
<feColorMatrix in="SourceAlpha" type="matrix" values="0 0 0 0 0 0 0 0 0 0 0 0 0 0 0 0 0 0 127 0" result="hardAlpha"/>
<feOffset dy="10"/>
<feGaussianBlur stdDeviation="25"/>
<feComposite in2="hardAlpha" operator="out"/>
<feColorMatrix type="matrix" values="0 0 0 0 0 0 0 0 0 0 0 0 0 0 0 0 0 0 0.05 0"/>
<feBlend mode="normal" in2="BackgroundImageFix" result="effect1_dropShadow_1301_6450"/>
<feBlend mode="normal" in="SourceGraphic" in2="effect1_dropShadow_1301_6450" result="shape"/>
</filter>
<filter id="filter32_d_1301_6450" x="24.7852" y="153.481" width="200.098" height="102.86" filterUnits="userSpaceOnUse" color-interpolation-filters="sRGB">
<feFlood flood-opacity="0" result="BackgroundImageFix"/>
<feColorMatrix in="SourceAlpha" type="matrix" values="0 0 0 0 0 0 0 0 0 0 0 0 0 0 0 0 0 0 127 0" result="hardAlpha"/>
<feOffset dy="10"/>
<feGaussianBlur stdDeviation="25"/>
<feComposite in2="hardAlpha" operator="out"/>
<feColorMatrix type="matrix" values="0 0 0 0 0 0 0 0 0 0 0 0 0 0 0 0 0 0 0.05 0"/>
<feBlend mode="normal" in2="BackgroundImageFix" result="effect1_dropShadow_1301_6450"/>
<feBlend mode="normal" in="SourceGraphic" in2="effect1_dropShadow_1301_6450" result="shape"/>
</filter>
<filter id="filter33_d_1301_6450" x="24.7852" y="172.547" width="200.098" height="102.86" filterUnits="userSpaceOnUse" color-interpolation-filters="sRGB">
<feFlood flood-opacity="0" result="BackgroundImageFix"/>
<feColorMatrix in="SourceAlpha" type="matrix" values="0 0 0 0 0 0 0 0 0 0 0 0 0 0 0 0 0 0 127 0" result="hardAlpha"/>
<feOffset dy="10"/>
<feGaussianBlur stdDeviation="25"/>
<feComposite in2="hardAlpha" operator="out"/>
<feColorMatrix type="matrix" values="0 0 0 0 0 0 0 0 0 0 0 0 0 0 0 0 0 0 0.05 0"/>
<feBlend mode="normal" in2="BackgroundImageFix" result="effect1_dropShadow_1301_6450"/>
<feBlend mode="normal" in="SourceGraphic" in2="effect1_dropShadow_1301_6450" result="shape"/>
</filter>
<filter id="filter34_d_1301_6450" x="24.7852" y="191.613" width="200.098" height="102.86" filterUnits="userSpaceOnUse" color-interpolation-filters="sRGB">
<feFlood flood-opacity="0" result="BackgroundImageFix"/>
<feColorMatrix in="SourceAlpha" type="matrix" values="0 0 0 0 0 0 0 0 0 0 0 0 0 0 0 0 0 0 127 0" result="hardAlpha"/>
<feOffset dy="10"/>
<feGaussianBlur stdDeviation="25"/>
<feComposite in2="hardAlpha" operator="out"/>
<feColorMatrix type="matrix" values="0 0 0 0 0 0 0 0 0 0 0 0 0 0 0 0 0 0 0.05 0"/>
<feBlend mode="normal" in2="BackgroundImageFix" result="effect1_dropShadow_1301_6450"/>
<feBlend mode="normal" in="SourceGraphic" in2="effect1_dropShadow_1301_6450" result="shape"/>
</filter>
<filter id="filter35_d_1301_6450" x="24.7852" y="210.678" width="200.098" height="102.86" filterUnits="userSpaceOnUse" color-interpolation-filters="sRGB">
<feFlood flood-opacity="0" result="BackgroundImageFix"/>
<feColorMatrix in="SourceAlpha" type="matrix" values="0 0 0 0 0 0 0 0 0 0 0 0 0 0 0 0 0 0 127 0" result="hardAlpha"/>
<feOffset dy="10"/>
<feGaussianBlur stdDeviation="25"/>
<feComposite in2="hardAlpha" operator="out"/>
<feColorMatrix type="matrix" values="0 0 0 0 0 0 0 0 0 0 0 0 0 0 0 0 0 0 0.05 0"/>
<feBlend mode="normal" in2="BackgroundImageFix" result="effect1_dropShadow_1301_6450"/>
<feBlend mode="normal" in="SourceGraphic" in2="effect1_dropShadow_1301_6450" result="shape"/>
</filter>
<linearGradient id="paint0_linear_1301_6450" x1="479.084" y1="92.3704" x2="458.39" y2="135.973" gradientUnits="userSpaceOnUse">
<stop stop-color="#744DC5"/>
<stop offset="1" stop-color="#9BB6FF"/>
</linearGradient>
<linearGradient id="paint1_linear_1301_6450" x1="492.933" y1="92.3093" x2="443.992" y2="129.948" gradientUnits="userSpaceOnUse">
<stop stop-color="#744DC5"/>
<stop offset="1" stop-color="#9BB6FF"/>
</linearGradient>
<linearGradient id="paint2_linear_1301_6450" x1="529.624" y1="94.2039" x2="477.179" y2="147.141" gradientUnits="userSpaceOnUse">
<stop stop-color="#744DC5"/>
<stop offset="1" stop-color="#9BB6FF"/>
</linearGradient>
<linearGradient id="paint3_linear_1301_6450" x1="527.034" y1="89.7527" x2="518.745" y2="108.064" gradientUnits="userSpaceOnUse">
<stop stop-color="#744DC5"/>
<stop offset="1" stop-color="#9BB6FF"/>
</linearGradient>
<linearGradient id="paint4_linear_1301_6450" x1="503.074" y1="90.321" x2="494.442" y2="104.898" gradientUnits="userSpaceOnUse">
<stop stop-color="#744DC5"/>
<stop offset="1" stop-color="#9BB6FF"/>
</linearGradient>
<linearGradient id="paint5_linear_1301_6450" x1="530.565" y1="115.43" x2="530.191" y2="121.464" gradientUnits="userSpaceOnUse">
<stop stop-color="#744DC5"/>
<stop offset="1" stop-color="#9BB6FF"/>
</linearGradient>
<linearGradient id="paint6_linear_1301_6450" x1="491.061" y1="114.201" x2="490.935" y2="116.336" gradientUnits="userSpaceOnUse">
<stop stop-color="#744DC5"/>
<stop offset="1" stop-color="#9BB6FF"/>
</linearGradient>
<linearGradient id="paint7_linear_1301_6450" x1="549.229" y1="95.9521" x2="527.989" y2="141.146" gradientUnits="userSpaceOnUse">
<stop stop-color="#744DC5"/>
<stop offset="1" stop-color="#9BB6FF"/>
</linearGradient>
</defs>
</svg>
