<svg xmlns="http://www.w3.org/2000/svg" width="149" height="105" viewBox="0 0 149 105" fill="none">
<rect x="0.915771" y="3.39844" width="46.4251" height="50.2127" fill="white"/>
<path fill-rule="evenodd" clip-rule="evenodd" d="M47.3396 2.48047H0.914479C0.409426 2.48047 0 2.89171 0 3.39899V53.6117C0 54.119 0.409426 54.5303 0.914479 54.5303H47.3396C47.8446 54.5303 48.254 54.119 48.254 53.6117V3.39899C48.254 2.89171 47.8446 2.48047 47.3396 2.48047ZM46.4201 4.31641V52.6921H1.82397V4.31641H46.4201Z" fill="#5D21D1"/>
<path fill-rule="evenodd" clip-rule="evenodd" d="M25.9096 13.8095C25.0866 13.8095 24.294 13.9014 23.5015 14.0239L26.062 28.5978L21.1543 42.5594C22.7699 43.1411 24.5074 43.4167 26.2144 43.4167C34.2923 43.3248 40.8766 36.589 40.7851 28.4753C40.7242 20.3311 34.018 13.7177 25.9096 13.8095Z" fill="#5D21D1"/>
<path fill-rule="evenodd" clip-rule="evenodd" d="M8.26196 29.1492C8.32293 35.3339 12.2552 40.8451 18.0469 42.9271L23.0156 28.9961L8.26196 29.1492Z" fill="#A1F7C4"/>
<path fill-rule="evenodd" clip-rule="evenodd" d="M19.6296 11.3281C16.1851 11.9405 13.0758 13.7469 10.8506 16.4413C8.62537 19.1356 7.40606 22.5341 7.46702 26.0552L22.1901 25.9021L19.6296 11.3281Z" fill="#00AC45"/>
<path fill-rule="evenodd" clip-rule="evenodd" d="M61.2399 14.666C61.7269 14.666 62.125 15.0484 62.1528 15.5306L62.1543 15.5845L62.154 49.7231H90.0764C90.5635 49.7231 90.9616 50.1055 90.9894 50.5876L90.9909 50.6416C90.9909 51.1308 90.6102 51.5306 90.1302 51.5586L90.0764 51.5601H61.2399C60.7528 51.5601 60.3547 51.1777 60.3269 50.6956L60.3254 50.6416L60.3251 16.5031H47.3398C46.8528 16.5031 46.4547 16.1207 46.4268 15.6385L46.4253 15.5845C46.4253 15.0954 46.806 14.6955 47.286 14.6676L47.3398 14.666H61.2399Z" fill="#5D21D1"/>
<path fill-rule="evenodd" clip-rule="evenodd" d="M90.0844 53.244C91.5154 53.244 92.6755 52.0789 92.6755 50.6416C92.6755 49.2042 91.5154 48.0391 90.0844 48.0391C88.6534 48.0391 87.4934 49.2042 87.4934 50.6416C87.4934 52.0789 88.6534 53.244 90.0844 53.244Z" fill="#5D21D1"/>
<rect x="42.988" y="33.7109" width="104.921" height="69.7161" fill="white"/>
<path fill-rule="evenodd" clip-rule="evenodd" d="M147.91 32.793H42.9885C42.4834 32.793 42.074 33.2042 42.074 33.7115V103.428C42.074 103.935 42.4834 104.346 42.9885 104.346H147.91C148.415 104.346 148.824 103.935 148.824 103.428V33.7115C148.824 33.2042 148.415 32.793 147.91 32.793ZM146.994 34.6309V102.51H43.9015V34.6309H146.994Z" fill="#5D21D1"/>
<rect x="36.0615" y="33.7109" width="104.921" height="69.7161" fill="white"/>
<path fill-rule="evenodd" clip-rule="evenodd" d="M140.984 32.793H36.0632C35.5581 32.793 35.1487 33.2042 35.1487 33.7115V103.428C35.1487 103.935 35.5581 104.346 36.0632 104.346H140.984C141.489 104.346 141.899 103.935 141.899 103.428V33.7115C141.899 33.2042 141.489 32.793 140.984 32.793ZM140.068 34.6309V102.51H36.9755V34.6309H140.068Z" fill="#5D21D1"/>
<path fill-rule="evenodd" clip-rule="evenodd" d="M129.557 83.9528H47.4369C47.0101 83.9528 46.6748 83.616 46.6748 83.1873C46.6748 82.7587 47.0101 82.4219 47.4369 82.4219H129.557C129.984 82.4219 130.319 82.7587 130.319 83.1873C130.319 83.616 129.984 83.9528 129.557 83.9528Z" fill="#5D21D1"/>
<path fill-rule="evenodd" clip-rule="evenodd" d="M129.557 74.0934H47.4369C47.0101 74.0934 46.6748 73.7566 46.6748 73.3279C46.6748 72.8993 47.0101 72.5625 47.4369 72.5625H129.557C129.984 72.5625 130.319 72.8993 130.319 73.3279C130.319 73.7566 129.984 74.0934 129.557 74.0934Z" fill="#5D21D1"/>
<path fill-rule="evenodd" clip-rule="evenodd" d="M129.557 64.236H47.4369C47.0101 64.236 46.6748 63.8992 46.6748 63.4705C46.6748 63.0419 47.0101 62.7051 47.4369 62.7051H129.557C129.984 62.7051 130.319 63.0419 130.319 63.4705C130.319 63.8992 129.984 64.236 129.557 64.236Z" fill="#5D21D1"/>
<path fill-rule="evenodd" clip-rule="evenodd" d="M129.557 54.4078H47.4369C47.0101 54.4078 46.6748 54.071 46.6748 53.6424C46.6748 53.2137 47.0101 52.877 47.4369 52.877H129.557C129.984 52.877 130.319 53.2137 130.319 53.6424C130.319 54.071 129.984 54.4078 129.557 54.4078Z" fill="#5D21D1"/>
<rect width="11.4914" height="45.0056" transform="matrix(0.999947 -0.0102706 0.0101803 0.999948 92.6978 47.4004)" fill="#5D21D1"/>
<rect width="11.5524" height="28.8403" transform="matrix(0.999947 -0.0102706 0.0101803 0.999948 112.287 63.5664)" fill="#00AC45"/>
<rect width="11.5524" height="28.8403" transform="matrix(0.999947 -0.0102706 0.0101803 0.999948 73.4236 63.5664)" fill="#00AC45"/>
<path fill-rule="evenodd" clip-rule="evenodd" d="M65.9993 92.2805L54.5074 92.403L54.3245 78.5639L65.8469 78.4414L65.9993 92.2805Z" fill="#00AC45"/>
<path fill-rule="evenodd" clip-rule="evenodd" d="M47.4338 43.0176C47.9208 43.0176 48.3189 43.4 48.3467 43.8821L48.3482 43.9361L48.3479 91.4851H129.554C130.041 91.4851 130.439 91.8675 130.467 92.3497L130.468 92.4036C130.468 92.8928 130.088 93.2927 129.608 93.3206L129.554 93.3222H47.4338C46.9468 93.3222 46.5487 92.9398 46.5208 92.4576L46.5193 92.4036V43.9361C46.5193 43.4288 46.9287 43.0176 47.4338 43.0176Z" fill="#00AC45"/>
<path fill-rule="evenodd" clip-rule="evenodd" d="M62.9805 94.332C63.4855 94.332 63.8949 94.7433 63.8949 95.2506C63.8949 95.7397 63.5142 96.1396 63.0342 96.1675L62.9805 96.1691H56.2133C55.7083 96.1691 55.2988 95.7578 55.2988 95.2506C55.2988 94.7614 55.6795 94.3615 56.1596 94.3336L56.2133 94.332H62.9805Z" fill="#00AC45"/>
<path fill-rule="evenodd" clip-rule="evenodd" d="M82.7991 94.332C83.3041 94.332 83.7135 94.7433 83.7135 95.2506C83.7135 95.7397 83.3328 96.1396 82.8528 96.1675L82.7991 96.1691H76.0319C75.5269 96.1691 75.1174 95.7578 75.1174 95.2506C75.1174 94.7614 75.4981 94.3615 75.9782 94.3336L76.0319 94.332H82.7991Z" fill="#00AC45"/>
<path fill-rule="evenodd" clip-rule="evenodd" d="M102.183 94.332C102.688 94.332 103.097 94.7433 103.097 95.2506C103.097 95.7397 102.716 96.1396 102.236 96.1675L102.183 96.1691H95.446C94.9409 96.1691 94.5315 95.7578 94.5315 95.2506C94.5315 94.7614 94.9122 94.3615 95.3922 94.3336L95.446 94.332H102.183Z" fill="#5D21D1"/>
<path fill-rule="evenodd" clip-rule="evenodd" d="M121.666 94.332C122.171 94.332 122.581 94.7433 122.581 95.2506C122.581 95.7397 122.2 96.1396 121.72 96.1675L121.666 96.1691H114.899C114.394 96.1691 113.985 95.7578 113.985 95.2506C113.985 94.7614 114.365 94.3615 114.845 94.3336L114.899 94.332H121.666Z" fill="#00AC45"/>
<path fill-rule="evenodd" clip-rule="evenodd" d="M44.0516 55.3246C43.6249 55.3246 43.2896 54.9878 43.2896 54.5591V53.365C43.2896 52.9364 43.6249 52.5996 44.0516 52.5996C44.4784 52.5996 44.8137 52.9364 44.8137 53.365V54.5591C44.8137 54.9878 44.4479 55.3246 44.0516 55.3246Z" fill="#5D21D1"/>
<path fill-rule="evenodd" clip-rule="evenodd" d="M44.0516 64.8461C43.6249 64.8461 43.2896 64.5093 43.2896 64.0806V62.8865C43.2896 62.4579 43.6249 62.1211 44.0516 62.1211C44.4784 62.1211 44.8137 62.4579 44.8137 62.8865V64.0806C44.8137 64.5093 44.4479 64.8461 44.0516 64.8461Z" fill="#5D21D1"/>
<path fill-rule="evenodd" clip-rule="evenodd" d="M44.0516 75.2875C43.6249 75.2875 43.2896 74.9507 43.2896 74.522V73.3279C43.2896 72.8993 43.6249 72.5625 44.0516 72.5625C44.4784 72.5625 44.8137 72.8993 44.8137 73.3279V74.522C44.8137 74.9507 44.4479 75.2875 44.0516 75.2875Z" fill="#5D21D1"/>
<path fill-rule="evenodd" clip-rule="evenodd" d="M44.0516 85.1468C43.6249 85.1468 43.2896 84.81 43.2896 84.3814V83.1873C43.2896 82.7587 43.6249 82.4219 44.0516 82.4219C44.4784 82.4219 44.8137 82.7587 44.8137 83.1873V84.3814C44.8137 84.81 44.4479 85.1468 44.0516 85.1468Z" fill="#5D21D1"/>
<path fill-rule="evenodd" clip-rule="evenodd" d="M56.6689 1.68359C57.1559 1.68359 57.554 2.06598 57.5819 2.54815L57.5834 2.60212V33.0972C57.5834 33.6045 57.174 34.0157 56.6689 34.0157C56.1819 34.0157 55.7838 33.6333 55.756 33.1511L55.7544 33.0972V3.52034L48.6215 3.52065C48.1345 3.52065 47.7364 3.13826 47.7086 2.65609L47.707 2.60212C47.707 2.11295 48.0877 1.71309 48.5678 1.68515L48.6215 1.68359H56.6689Z" fill="#5D21D1"/>
<path fill-rule="evenodd" clip-rule="evenodd" d="M48.6218 5.20498C50.0528 5.20498 51.2128 4.0398 51.2128 2.60249C51.2128 1.16517 50.0528 0 48.6218 0C47.1908 0 46.0308 1.16517 46.0308 2.60249C46.0308 4.0398 47.1908 5.20498 48.6218 5.20498Z" fill="#5D21D1"/>
</svg>
