<svg width="169" height="100" viewBox="0 0 169 100" fill="none" xmlns="http://www.w3.org/2000/svg">
<path fill-rule="evenodd" clip-rule="evenodd" d="M29.0756 64.5438C29.4114 64.2538 29.5852 63.8245 29.5273 63.3836C28.5892 54.9372 24.7446 46.2356 18.746 43.045C12.5853 39.7615 8.37013 48.8693 16.9164 57.3272C23.3434 63.6968 26.7827 64.7294 28.0913 64.8455C28.4619 64.8919 28.8093 64.7759 29.0756 64.5438Z" fill="#A1F7C4"/>
<path fill-rule="evenodd" clip-rule="evenodd" d="M13.5077 43.5662C13.6372 43.435 13.8451 43.4286 13.9822 43.5479L14.0103 43.5747L14.1907 43.7562C14.3318 43.899 14.4933 44.0642 14.6736 44.2507L14.8952 44.4807C15.4293 45.0374 16.0161 45.6637 16.6432 46.3515C18.6237 48.5232 20.6041 50.8619 22.4532 53.2794C24.6686 56.1759 26.5439 58.9908 27.9711 61.6528C28.4194 62.489 28.8208 63.3057 29.1729 64.1013C29.2506 64.2771 29.1715 64.4827 28.9961 64.5606C28.8207 64.6385 28.6155 64.5592 28.5377 64.3835C28.1929 63.6045 27.7992 62.8034 27.3589 61.9822C25.9514 59.3567 24.0961 56.5719 21.9017 53.7029C20.1314 51.3883 18.2384 49.1449 16.3411 47.0529L16.1303 46.8211C15.4744 46.1018 14.8633 45.4505 14.3111 44.8766L14.0697 44.6268C14.0013 44.5564 13.936 44.4893 13.8738 44.4258L13.5992 44.1473L13.5103 44.0584C13.3739 43.9232 13.3727 43.7028 13.5077 43.5662Z" fill="#2E186A"/>
<path fill-rule="evenodd" clip-rule="evenodd" d="M15.654 55.0765L15.7962 55.0741C16.0275 55.0722 16.3273 55.0778 16.6877 55.0957L16.756 55.0992C17.4043 55.1333 18.1112 55.2004 18.8637 55.3079C20.9266 55.6028 23.0139 56.1524 25.0211 57.0191C25.1973 57.0952 25.2786 57.3 25.2027 57.4765C25.1267 57.6531 24.9223 57.7345 24.7461 57.6584C22.7996 56.8179 20.771 56.2837 18.7656 55.9971C18.0342 55.8925 17.3478 55.8275 16.7195 55.7944L16.5896 55.7879C16.272 55.7732 16.0077 55.7685 15.8034 55.7702L15.6776 55.7723C15.4858 55.7788 15.3251 55.6283 15.3186 55.4362C15.3121 55.2441 15.4622 55.083 15.654 55.0765Z" fill="#2E186A"/>
<path fill-rule="evenodd" clip-rule="evenodd" d="M20.6709 44.5635C20.838 44.4691 21.0499 44.5282 21.1442 44.6957L21.2433 44.8742C21.2794 44.9397 21.3192 45.0124 21.3625 45.0918L21.4851 45.3183C21.6247 45.5775 21.7752 45.8614 21.9345 46.1671C22.5259 47.3023 23.1173 48.5054 23.6695 49.724C24.1065 50.6882 24.501 51.6233 24.8426 52.5158L24.9157 52.7083C25.8545 55.1989 26.3233 57.2089 26.1901 58.602C26.1718 58.7934 26.0021 58.9337 25.8112 58.9153C25.6202 58.897 25.4802 58.727 25.4985 58.5357C25.6219 57.2447 25.1451 55.2501 24.1939 52.7651C23.8575 51.8865 23.4684 50.964 23.0369 50.0118C22.4903 48.8057 21.9044 47.6138 21.3185 46.4892L21.179 46.2227C21.0724 46.0201 20.9704 45.8285 20.8737 45.6491L20.7273 45.3789L20.56 45.0752C20.5508 45.0586 20.5437 45.0461 20.539 45.0377C20.4448 44.8703 20.5038 44.658 20.6709 44.5635Z" fill="#2E186A"/>
<path fill-rule="evenodd" clip-rule="evenodd" d="M21.0809 60.3091L21.2588 60.3058C21.6661 60.3017 22.186 60.3176 22.7807 60.3673C23.7596 60.4491 24.7275 60.6074 25.6358 60.861C26.5046 61.1036 27.2833 61.4244 27.9493 61.8341C28.1128 61.9347 28.1639 62.149 28.0635 62.3129C27.9631 62.4767 27.7492 62.5279 27.5857 62.4273C26.9797 62.0545 26.2596 61.7579 25.4493 61.5316C24.5871 61.2908 23.6612 61.1395 22.7229 61.061C22.1257 61.0111 21.6082 60.9967 21.2149 61.0025L21.0986 61.0051C20.9069 61.0122 20.7457 60.8623 20.7385 60.6702C20.7316 60.485 20.8705 60.3281 21.0524 60.3108L21.0809 60.3091Z" fill="#2E186A"/>
<path fill-rule="evenodd" clip-rule="evenodd" d="M36.695 56.8166C37.1582 57.1299 37.6793 57.1879 38.0962 56.9558C46.1445 52.5702 52.9305 44.3907 53.0347 35.5614C53.1505 26.4769 41.7671 24.5741 37.6677 38.6476C34.5758 49.2288 35.3169 53.9973 35.8728 55.7028C36.0233 56.1553 36.3244 56.5614 36.695 56.8166Z" fill="#A1F7C4"/>
<path fill-rule="evenodd" clip-rule="evenodd" d="M49.7557 29.6157C49.925 29.5253 50.1354 29.5895 50.2257 29.7591C50.316 29.9287 50.2519 30.1395 50.0826 30.23C46.517 32.1346 43.5579 36.701 41.1868 43.1184C40.0544 46.1834 39.1311 49.4701 38.4016 52.7572L38.333 53.069C38.1304 53.998 37.9562 54.8703 37.8092 55.6706L37.7612 55.9347C37.716 56.1861 37.6761 56.4161 37.6414 56.6235L37.5765 57.0223L37.5593 57.1346C37.5311 57.3248 37.3544 57.4561 37.1646 57.4278C36.9816 57.4006 36.8532 57.2351 36.8696 57.0528L36.8743 57.0167L36.9154 56.7557L36.9446 56.5778C36.9748 56.3955 37.0092 56.1951 37.0477 55.9776L37.0774 55.8113C37.2513 54.844 37.4659 53.7664 37.7234 52.6061C38.4591 49.2904 39.3907 45.9743 40.5352 42.8767C42.9604 36.3128 46.0004 31.6217 49.7557 29.6157Z" fill="#2E186A"/>
<path fill-rule="evenodd" clip-rule="evenodd" d="M52.4414 36.6125C52.6167 36.5346 52.822 36.6138 52.8998 36.7895C52.9777 36.9652 52.8986 37.1708 52.7232 37.2488C50.947 38.0386 48.9032 39.0291 46.9248 40.1188L46.7234 40.2303C43.9526 41.7699 41.8228 43.2375 40.6324 44.5337C40.5024 44.6752 40.2827 44.6844 40.1415 44.5542C40.0003 44.424 39.9911 44.2038 40.1211 44.0624C41.3894 42.6813 43.6059 41.1597 46.4857 39.5664L46.5901 39.5088C48.588 38.4083 50.6486 37.4097 52.4414 36.6125Z" fill="#2E186A"/>
<path fill-rule="evenodd" clip-rule="evenodd" d="M37.7959 38.5112C37.8137 38.3198 37.983 38.179 38.174 38.1968C38.3651 38.2146 38.5055 38.3842 38.4878 38.5756L38.4616 38.8642C38.0444 43.5588 38.1657 47.3126 39.1362 48.5888C39.2525 48.7417 39.223 48.9601 39.0704 49.0766C38.9178 49.1931 38.6998 49.1636 38.5835 49.0107C37.9327 48.1548 37.6213 46.5072 37.5586 44.2119C37.5119 42.5 37.6074 40.5439 37.7959 38.5112Z" fill="#2E186A"/>
<path fill-rule="evenodd" clip-rule="evenodd" d="M48.7059 46.8337C48.8557 46.7136 49.0743 46.7378 49.1942 46.8878C49.3142 47.0379 49.29 47.257 49.1402 47.3771C48.0614 48.2426 46.5059 49.1372 44.5942 50.042C43.2673 50.67 41.8471 51.266 40.4272 51.8112L40.2005 51.8978C39.8269 52.0398 39.4753 52.1697 39.1511 52.2866L38.8492 52.3944L38.5312 52.5052C38.3495 52.5669 38.1523 52.4693 38.0907 52.2872C38.0314 52.1116 38.1198 51.9216 38.2892 51.853L38.6664 51.7208L38.8206 51.6658C39.2302 51.519 39.6868 51.35 40.1786 51.1611C41.5834 50.6218 42.988 50.0323 44.2974 49.4126C46.1643 48.529 47.6778 47.6585 48.7059 46.8337Z" fill="#2E186A"/>
<path fill-rule="evenodd" clip-rule="evenodd" d="M42.595 62.6653C42.7862 62.6492 42.9543 62.7913 42.9704 62.9829C42.9865 63.1744 42.8446 63.3428 42.6534 63.359C40.3842 63.5508 38.5817 64.7918 37.1896 66.7563C36.6521 67.5149 36.2147 68.3297 35.8706 69.1445C35.7623 69.4009 35.6705 69.6405 35.5945 69.8582L35.5698 69.9299C35.5512 69.9847 35.5345 70.0352 35.5198 70.0811L35.4993 70.1467C35.4881 70.1829 35.481 70.207 35.478 70.2181C35.4263 70.4032 35.2346 70.5113 35.0498 70.4595C34.865 70.4077 34.7571 70.2157 34.8088 70.0305L34.8338 69.9458C34.8506 69.891 34.8731 69.8211 34.9013 69.7372L34.9122 69.7051C34.9979 69.4535 35.1037 69.1739 35.2307 68.8732C35.5932 68.0148 36.054 67.1563 36.6231 66.3533C38.124 64.2352 40.0976 62.8764 42.595 62.6653Z" fill="#2E186A"/>
<path fill-rule="evenodd" clip-rule="evenodd" d="M42.7551 62.8668C43.1606 62.8108 43.3528 61.7723 43.1845 60.5471C43.0161 59.3219 42.5509 58.374 42.1454 58.43C41.7399 58.4859 41.5476 59.5245 41.716 60.7496C41.8844 61.9748 42.3496 62.9227 42.7551 62.8668Z" fill="#00AC45"/>
<path fill-rule="evenodd" clip-rule="evenodd" d="M44.77 62.0913C45.6484 61.3758 46.1709 60.5621 45.9369 60.2737C45.7029 59.9853 44.8011 60.3315 43.9226 61.0469C43.0442 61.7623 42.5217 62.5761 42.7557 62.8645C42.9897 63.1529 43.8915 62.8067 44.77 62.0913Z" fill="#00AC45"/>
<path fill-rule="evenodd" clip-rule="evenodd" d="M42.7599 62.8178C42.9478 62.4534 42.211 61.698 41.1142 61.1304C40.0175 60.5629 38.9762 60.3982 38.7883 60.7626C38.6005 61.127 39.3373 61.8824 40.434 62.4499C41.5307 63.0175 42.5721 63.1822 42.7599 62.8178Z" fill="#00AC45"/>
<path fill-rule="evenodd" clip-rule="evenodd" d="M46.3684 64.8166C46.5447 64.4896 45.8803 63.7874 44.8843 63.2482C43.8884 62.7091 42.938 62.537 42.7617 62.864C42.5853 63.191 43.2498 63.8931 44.2457 64.4323C45.2417 64.9715 46.192 65.1435 46.3684 64.8166Z" fill="#00AC45"/>
<path fill-rule="evenodd" clip-rule="evenodd" d="M42.4991 65.0284C42.9746 63.9992 43.0873 63.0382 42.7506 62.8821C42.414 62.726 41.7556 63.4338 41.28 64.463C40.8045 65.4923 40.6918 66.4532 41.0285 66.6094C41.3651 66.7655 42.0235 66.0577 42.4991 65.0284Z" fill="#00AC45"/>
<path fill-rule="evenodd" clip-rule="evenodd" d="M23.9977 36.413C24.1167 36.2622 24.3351 36.2366 24.4857 36.3558L24.542 36.4017C24.5568 36.4142 24.5739 36.4285 24.593 36.4448L24.6578 36.5004C24.7248 36.5587 24.7989 36.6248 24.8796 36.6988C25.1847 36.9788 25.5238 37.316 25.8882 37.7115C26.9259 38.8375 27.9623 40.2054 28.9288 41.8214C30.8099 44.9666 32.1949 48.6604 32.8764 52.9194C33.7162 58.1673 33.4406 64.0139 31.8452 70.4748C31.7991 70.6614 31.6107 70.7753 31.4245 70.7291C31.2382 70.6829 31.1246 70.4942 31.1707 70.3076C32.744 63.9363 33.0151 58.1839 32.1904 53.0296C31.5232 48.8605 30.1696 45.2503 28.3328 42.1793C27.3916 40.6056 26.384 39.2757 25.3777 38.1837C25.0486 37.8266 24.7422 37.5199 24.4654 37.2629L24.4104 37.2122C24.3219 37.1311 24.2425 37.0605 24.1727 37.0006L24.0994 36.9384C24.0785 36.9209 24.0636 36.9088 24.0549 36.9019C23.9043 36.7827 23.8787 36.5639 23.9977 36.413Z" fill="#2E186A"/>
<path fill-rule="evenodd" clip-rule="evenodd" d="M25.2866 37.3359C25.9826 36.9288 25.8775 35.4504 25.052 34.0337C24.2265 32.6171 22.9931 31.7987 22.2972 32.2058C21.6013 32.6129 21.7063 34.0913 22.5318 35.5079C23.3573 36.9245 24.5907 37.7429 25.2866 37.3359Z" fill="#00AC45"/>
<path fill-rule="evenodd" clip-rule="evenodd" d="M25.4706 37.3256C25.4867 36.5184 24.1727 35.8376 22.5357 35.8049C20.8988 35.7723 19.5588 36.4002 19.5427 37.2074C19.5267 38.0146 20.8407 38.6954 22.4776 38.7281C24.1146 38.7607 25.4546 38.1329 25.4706 37.3256Z" fill="#00AC45"/>
<path fill-rule="evenodd" clip-rule="evenodd" d="M28.1161 36.0617C29.0005 34.8921 29.2545 33.5926 28.6835 33.1593C28.1125 32.726 26.9328 33.3229 26.0485 34.4925C25.1641 35.6622 24.9101 36.9616 25.4811 37.395C26.0521 37.8283 27.2318 37.2314 28.1161 36.0617Z" fill="#00AC45"/>
<path fill-rule="evenodd" clip-rule="evenodd" d="M26.7059 41.6025C27.358 41.3055 27.3952 39.9819 26.789 38.6461C26.1828 37.3104 25.1628 36.4683 24.5107 36.7654C23.8587 37.0624 23.8215 38.3861 24.4277 39.7218C25.0339 41.0575 26.0539 41.8996 26.7059 41.6025Z" fill="#00AC45"/>
<path fill-rule="evenodd" clip-rule="evenodd" d="M28.9983 37.5641C29.0663 36.9204 28.054 36.2856 26.7374 36.146C25.4208 36.0065 24.2984 36.4151 24.2305 37.0587C24.1625 37.7024 25.1747 38.3372 26.4914 38.4768C27.808 38.6163 28.9304 38.2077 28.9983 37.5641Z" fill="#00AC45"/>
<path fill-rule="evenodd" clip-rule="evenodd" d="M19.4523 71.5861L24.895 95.9971H42.1843L47.627 71.5861C47.9397 70.1938 47.0596 68.8248 45.8552 68.8248H21.224C20.0197 68.8132 19.1396 70.1822 19.4523 71.5861Z" fill="white"/>
<path fill-rule="evenodd" clip-rule="evenodd" d="M45.8548 68.4766L21.2269 68.4767C19.778 68.4628 18.7551 70.056 19.1127 71.6619L24.5555 96.073C24.5909 96.232 24.7318 96.3451 24.8945 96.3451H42.1838C42.3465 96.3451 42.4874 96.232 42.5229 96.073L47.9656 71.662C48.3235 70.0686 47.3014 68.4766 45.8548 68.4766ZM45.8551 69.1728L45.8854 69.1732C46.8336 69.197 47.5522 70.3329 47.2879 71.5097L41.9057 95.6491H25.1731L19.7912 71.5102C19.5266 70.3224 20.2443 69.1877 21.1903 69.1729L45.8551 69.1728Z" fill="#2E186A"/>
<path fill-rule="evenodd" clip-rule="evenodd" d="M164.981 34.2853L82.2055 34.8886C80.8853 34.9002 79.6926 35.666 79.1251 36.8494L52.4327 91.6929L0.0436193 91.7393C0.0436193 91.7393 -1.12599 99.42 8.64774 99.8957L48.4954 99.768L48.3796 100L139.528 99.6752L168.108 39.1698C169.185 36.8958 167.506 34.2621 164.981 34.2853Z" fill="#5D21D1"/>
<path fill-rule="evenodd" clip-rule="evenodd" d="M158.61 33.9371C161.363 33.9244 163.201 36.7668 162.087 39.266L162.052 39.3416L133.901 99.0232C133.819 99.197 133.612 99.2713 133.438 99.1892C133.271 99.1101 133.196 98.9148 133.264 98.7452L133.273 98.7258L161.424 39.0443C162.392 36.9907 160.883 34.6228 158.613 34.6332C158.421 34.6341 158.265 34.4789 158.264 34.2867C158.263 34.0945 158.418 33.9379 158.61 33.9371Z" fill="white"/>
<path fill-rule="evenodd" clip-rule="evenodd" d="M61.1412 89.0941L129.604 88.746C132.001 88.7344 134.189 87.3538 135.243 85.1958L155.868 41.4323C156.748 39.634 155.381 37.5688 153.308 37.592L85.4597 38.0909C84.3828 38.1025 83.3984 38.6942 82.9352 39.634L59.0683 85.7875C58.3156 87.319 59.4389 89.1057 61.1412 89.0941Z" fill="white"/>
<path fill-rule="evenodd" clip-rule="evenodd" d="M129.662 61.7712H117.399C116.6 61.7712 116.276 61.1215 116.669 60.3209L119.889 53.8121C120.282 53.0115 121.255 52.3618 122.066 52.3618H134.329C135.128 52.3618 135.452 53.0115 135.059 53.8121L131.839 60.3209C131.446 61.1215 130.473 61.7712 129.662 61.7712Z" fill="#5D21D1"/>
<path fill-rule="evenodd" clip-rule="evenodd" d="M130.902 52.002C131.641 52.002 131.998 52.6293 131.69 53.3003L131.676 53.3287L127.83 61.0829C127.538 61.6528 126.851 62.0959 126.235 62.0959C126.043 62.0959 125.888 61.94 125.888 61.7478C125.888 61.5624 126.032 61.4109 126.215 61.4003L126.235 61.3997C126.574 61.3997 127.011 61.1241 127.194 60.7973L127.209 60.7691L131.053 53.0213C131.167 52.7875 131.117 52.6981 130.902 52.6981C130.71 52.6981 130.555 52.5422 130.555 52.35C130.555 52.1578 130.71 52.002 130.902 52.002Z" fill="white"/>
<path fill-rule="evenodd" clip-rule="evenodd" d="M128.724 61.6667L125.644 58.2672C125.378 57.9772 124.903 58.0584 124.752 58.4181L122.668 63.1286C122.483 63.5462 122.853 63.9871 123.293 63.8711L125.054 63.4302L125.25 66.6788C125.274 67.1429 125.714 67.4678 126.165 67.375L127.451 67.0965C127.891 67.0037 128.157 66.5396 128.006 66.1103L126.918 62.9545L128.47 62.5601C128.852 62.4556 129.002 61.9683 128.724 61.6667Z" fill="#A1F7C4"/>
<path fill-rule="evenodd" clip-rule="evenodd" d="M124.346 75.0671H110.612C110.207 75.0671 110.045 74.7422 110.242 74.3361L111.875 71.0527C112.071 70.6466 112.569 70.3218 112.975 70.3218H126.709C127.114 70.3218 127.276 70.6466 127.079 71.0527L125.447 74.3361C125.238 74.7422 124.752 75.0671 124.346 75.0671Z" fill="#5D21D1"/>
<path fill-rule="evenodd" clip-rule="evenodd" d="M155.89 41.1309C156.082 41.1309 156.238 41.2867 156.238 41.4789C156.238 41.6643 156.093 41.8158 155.911 41.8264L155.89 41.827H82.1589C81.9671 41.827 81.8115 41.6712 81.8115 41.4789C81.8115 41.2936 81.9562 41.142 82.1385 41.1315L82.1589 41.1309H155.89Z" fill="#2E186A"/>
<path fill-rule="evenodd" clip-rule="evenodd" d="M142.371 37.8111C142.448 37.6352 142.653 37.5556 142.829 37.6333C142.998 37.7081 143.078 37.9019 143.014 38.0733L143.006 38.0922L141.478 41.5613C141.4 41.7372 141.195 41.8168 141.02 41.7391C140.85 41.6643 140.77 41.4705 140.834 41.2991L140.842 41.2802L142.371 37.8111Z" fill="#2E186A"/>
<path fill-rule="evenodd" clip-rule="evenodd" d="M131.147 37.8633C131.234 37.6921 131.443 37.6241 131.614 37.7114C131.779 37.7955 131.848 37.993 131.775 38.1604L131.766 38.1796L129.994 41.6603C129.907 41.8315 129.697 41.8995 129.527 41.8122C129.362 41.7281 129.293 41.5306 129.366 41.3632L129.375 41.344L131.147 37.8633Z" fill="#2E186A"/>
<path fill-rule="evenodd" clip-rule="evenodd" d="M146.102 44.8663L86.9132 45.2376C85.9695 45.2512 85.123 45.769 84.7188 46.5923L65.7084 82.8059C65.021 84.169 66.0361 85.7756 67.5676 85.7756L127.23 85.5784C129.159 85.5659 130.923 84.4573 131.768 82.7264L148.34 48.2427C149.115 46.662 147.907 44.8529 146.102 44.8663ZM86.9196 45.9337L146.106 45.5624C147.392 45.5528 148.241 46.8042 147.73 47.9049L131.142 82.4224C130.414 83.9138 128.89 84.8715 127.226 84.8823L67.5657 85.0795C66.5483 85.0795 65.8761 84.0155 66.3251 83.1248L85.3373 46.9079C85.6225 46.3271 86.2111 45.9588 86.8804 45.9347L86.9196 45.9337Z" fill="#2E186A"/>
<path fill-rule="evenodd" clip-rule="evenodd" d="M156.041 99.8605H117.12V94.0711C117.12 92.6324 118.278 91.4722 119.714 91.4722H153.436C154.872 91.4722 156.03 92.6324 156.03 94.0711V99.8605H156.041Z" fill="#00AC45"/>
<path fill-rule="evenodd" clip-rule="evenodd" d="M74.9672 77.9793H96.1474C97.7224 77.9793 99.7257 76.6914 100.617 75.1135L112.325 54.2876C113.217 52.7097 112.649 51.4219 111.074 51.4219H89.014C87.4391 51.4219 85.4357 52.7097 84.544 54.2876L73.7165 75.1135C72.8248 76.6914 73.3923 77.9793 74.9672 77.9793Z" fill="#2E186A"/>
<path fill-rule="evenodd" clip-rule="evenodd" d="M112.442 17.7055C109.639 9.44478 106.571 7.73926 104.405 8.34257C102.24 8.94589 96.3684 11.8696 98.4066 14.5381C100.445 17.2066 103.386 26.4536 103.386 26.4536C94.2029 28.0315 86.0273 31.5005 86.0273 31.5005L76.0798 35.4569C76.0798 35.4569 71.8646 36.9188 67.661 40.6779C63.4574 44.437 54.9111 52.953 52.6182 56.2364C50.7191 58.9629 51.8539 62.0723 52.873 62.9193C53.8921 63.7662 55.548 66.0751 63.0752 63.5226C67.9158 61.8751 71.8646 61.2485 74.0533 61.0049L85.5177 72.1546C85.5177 72.1546 88.4823 74.6723 89.8372 75.9021C89.9182 76.1225 90.034 76.2966 90.1846 76.4126C92.1185 77.9325 94.6198 77.9673 97.6423 77.0159C99.113 76.5518 100.352 75.5308 101.082 74.1618L112.21 53.2314C112.592 52.5121 112.21 51.6303 111.423 51.4099L107.926 50.4585C102.992 48.5325 99.0435 40.7823 99.0435 40.7823C107.844 37.7425 114.735 29.5978 114.735 29.5978C114.735 29.5978 115.256 25.9779 112.442 17.7055Z" fill="#00AC45"/>
<path fill-rule="evenodd" clip-rule="evenodd" d="M98.0814 63.1514H68.5054C67.6369 63.1514 66.9189 62.4436 66.9189 61.5619V44.4254C66.9189 43.5553 67.6253 42.8359 68.5054 42.8359H98.0698C98.9383 42.8359 99.6563 43.5437 99.6563 44.4254V61.5619C99.6563 62.4436 98.9499 63.1514 98.0814 63.1514Z" fill="white"/>
<path fill-rule="evenodd" clip-rule="evenodd" d="M98.0706 42.4878H68.5062C67.4378 42.4878 66.5723 43.3593 66.5723 44.4254V61.5618C66.5723 62.6322 67.4422 63.4994 68.5062 63.4994H98.0821C99.1447 63.4994 100.004 62.6336 100.004 61.5618V44.4254C100.004 43.355 99.1346 42.4878 98.0706 42.4878ZM68.5064 43.1839H98.0708C98.7519 43.1839 99.3099 43.7402 99.3099 44.4253V61.5618C99.3099 62.2499 98.7604 62.8032 98.0824 62.8032H68.5064C67.8254 62.8032 67.2673 62.2469 67.2673 61.5618V44.4253C67.2673 43.743 67.8226 43.1839 68.5064 43.1839Z" fill="#2E186A"/>
<path fill-rule="evenodd" clip-rule="evenodd" d="M87.2421 49.0197H81.4983C81.0119 49.0197 80.6182 48.6252 80.6182 48.1379V45.9799C80.6182 45.4926 81.0119 45.0981 81.4983 45.0981H87.2421C87.7284 45.0981 88.1222 45.4926 88.1222 45.9799V48.1379C88.1338 48.6136 87.7284 49.0197 87.2421 49.0197Z" fill="#A1F7C4"/>
<path fill-rule="evenodd" clip-rule="evenodd" d="M89.1191 42.8477C90.1614 42.8477 90.9951 43.6482 90.9951 44.6344V61.3647C90.9951 62.3509 90.1498 63.1515 89.1191 63.1515" fill="white"/>
<path fill-rule="evenodd" clip-rule="evenodd" d="M89.1189 42.4995C90.3337 42.4995 91.3206 43.4293 91.3419 44.5958L91.3423 44.6343V61.3647C91.3423 62.5457 90.3391 63.4995 89.1189 63.4995C88.927 63.4995 88.7715 63.3436 88.7715 63.1514C88.7715 62.9592 88.927 62.8033 89.1189 62.8033C89.951 62.8033 90.6276 62.1716 90.6471 61.3988L90.6475 61.3647V44.6343C90.6475 43.842 89.9706 43.1956 89.1189 43.1956C88.927 43.1956 88.7715 43.0398 88.7715 42.8476C88.7715 42.6553 88.927 42.4995 89.1189 42.4995Z" fill="#2E186A"/>
<path fill-rule="evenodd" clip-rule="evenodd" d="M68.4403 29.2838C68.5495 29.1257 68.7659 29.0863 68.9237 29.1957C69.0814 29.3051 69.1208 29.522 69.0116 29.68C68.6219 30.244 68.3901 31.0538 68.3901 31.9299C68.3901 33.5598 69.1717 34.8377 70.0569 34.8655C70.2487 34.8715 70.3993 35.0321 70.3933 35.2242C70.3873 35.4164 70.227 35.5673 70.0352 35.5613C68.6923 35.5192 67.6953 33.889 67.6953 31.9299C67.6953 30.9175 67.9667 29.9692 68.4403 29.2838Z" fill="#00AC45"/>
<path fill-rule="evenodd" clip-rule="evenodd" d="M85.6597 22.6596C85.8452 22.6104 86.0353 22.7212 86.0844 22.907C86.1988 23.34 86.2581 23.7997 86.2581 24.2723C86.2581 26.25 85.2315 27.9038 83.8726 27.9038C83.7733 27.9038 83.6815 27.8949 83.5571 27.8771C83.3672 27.8499 83.2352 27.6736 83.2623 27.4833C83.2895 27.293 83.4654 27.1608 83.6554 27.188L83.7141 27.1959C83.7779 27.204 83.8267 27.2077 83.8726 27.2077C84.7604 27.2077 85.5633 25.9144 85.5633 24.2723C85.5633 23.8596 85.5117 23.4598 85.4128 23.0852C85.3637 22.8993 85.4742 22.7088 85.6597 22.6596Z" fill="#00AC45"/>
<path fill-rule="evenodd" clip-rule="evenodd" d="M81.95 29.4937L83.3049 32.9627L86.1652 31.4312C86.4547 31.7677 91.0984 37.7196 84.8335 40.0748C80.7225 41.6179 76.1598 39.5875 73.4385 37.0003L76.0325 35.4224L73.2764 29.6213L81.95 29.4937Z" fill="white"/>
<path fill-rule="evenodd" clip-rule="evenodd" d="M73.2714 29.2732L73.2511 29.274C73.0097 29.2912 72.857 29.548 72.9628 29.7708L75.584 35.2879L73.2584 36.7027C73.0626 36.8218 73.0334 37.0947 73.1995 37.2527C74.6711 38.6518 76.5525 39.7919 78.5093 40.4179C80.7266 41.1273 82.9423 41.1564 84.9555 40.4007C87.876 39.3028 88.8451 37.3378 88.2962 34.9187C88.1045 34.074 87.7379 33.2276 87.2596 32.4156L87.2015 32.318C86.9095 31.8336 86.6024 31.4061 86.4285 31.2039L86.4136 31.1876C86.3063 31.0777 86.1385 31.0509 86.0016 31.1242L83.486 32.471L82.2737 29.3667C82.2209 29.2316 82.0899 29.1434 81.945 29.1455L73.2714 29.2732ZM81.7131 29.8451L82.9803 33.0895L82.9886 33.1091C83.0717 33.2892 83.2904 33.3645 83.4675 33.2696L86.0704 31.8758L86.1365 31.9662C86.1457 31.9789 86.155 31.9919 86.1644 32.005C86.3281 32.2343 86.4966 32.492 86.6599 32.7693C87.1045 33.5241 87.4435 34.3069 87.6174 35.0731C88.0915 37.1624 87.2951 38.7771 84.7103 39.7489L84.6033 39.7881C81.2057 41.0057 77.0801 39.7612 74.0529 37.0923L74.0133 37.057L76.2117 35.7198L76.2295 35.7082C76.3684 35.6117 76.4186 35.4275 76.3451 35.2727L73.8215 29.9611L81.7131 29.8451Z" fill="#2E186A"/>
<path fill-rule="evenodd" clip-rule="evenodd" d="M77.4102 54.3804C78.0123 53.9975 81.2895 52.6517 82.0886 52.5589C82.8876 52.466 83.2929 53.0346 82.656 53.5335C82.0307 54.0323 80.6295 55.123 80.6295 55.123" fill="white"/>
<path fill-rule="evenodd" clip-rule="evenodd" d="M82.0484 52.213C83.1686 52.0829 83.7932 53.0546 82.8998 53.7836L82.5646 54.0496L82.0042 54.4902L81.3221 55.0237L80.8424 55.3977C80.6909 55.5156 80.4726 55.4882 80.3549 55.3364C80.2417 55.1904 80.2627 54.9826 80.3992 54.862L80.4215 54.8438L81.2413 54.204L82.1731 53.4723C82.2749 53.3919 82.3648 53.3205 82.4418 53.2591C82.5439 53.1792 82.5998 53.1061 82.6174 53.0512C82.6246 53.0289 82.6236 53.0207 82.6168 53.01C82.6007 52.9844 82.5595 52.9544 82.4914 52.9311C82.397 52.8988 82.2724 52.8878 82.1284 52.9045C81.4593 52.9822 78.2436 54.2625 77.5961 54.6742C77.4341 54.7772 77.2194 54.7291 77.1166 54.5668C77.0138 54.4045 77.0618 54.1894 77.2238 54.0864C77.9536 53.6224 81.2651 52.304 82.0484 52.213Z" fill="#2E186A"/>
<path fill-rule="evenodd" clip-rule="evenodd" d="M75.326 54.5429C79.796 53.4523 84.1964 55.1114 84.6249 55.297C85.0534 55.4826 85.2039 56.318 84.2428 56.376C83.2816 56.4224 79.9812 55.9467 79.9812 55.9467C81.4288 56.3296 84.6481 57.2114 84.8797 57.455C85.2387 57.8263 84.6944 58.5572 83.7101 58.302L79.5759 57.281C79.5759 57.281 83.5248 59.0213 83.8606 59.2765C84.1964 59.5318 82.6794 60.3207 80.8266 59.5202C78.9738 58.7196 78.8116 58.8241 78.8116 58.8241C78.8116 58.8241 81.8109 59.9379 82.1931 60.2511C82.5868 60.5644 80.5487 61.6666 78.5569 60.3207C78.5569 60.3207 76.2756 61.2373 74.4111 60.6108" fill="white"/>
<path fill-rule="evenodd" clip-rule="evenodd" d="M75.2436 54.2047C77.2662 53.7112 79.4113 53.7216 81.551 54.0985C82.9171 54.3392 84.1582 54.7157 84.7627 54.9775C85.1197 55.1322 85.347 55.5355 85.2997 55.9262C85.2444 56.3832 84.8548 56.6878 84.2593 56.7237C84.2 56.7265 84.1328 56.7277 84.058 56.7271L83.9917 56.7262L84.1522 56.7799C84.6757 56.9578 85.0125 57.1016 85.1207 57.2045L85.1291 57.2128C85.4536 57.5485 85.3859 58.0453 85.0335 58.3697C84.7098 58.6677 84.21 58.7783 83.6706 58.6508L83.1629 58.5253L83.4309 58.6543C83.7473 58.8086 83.9553 58.9189 84.0504 58.9847L84.0704 58.9992C84.3846 59.238 84.282 59.5896 84.003 59.8088C83.8259 59.9479 83.5571 60.062 83.2409 60.1338C83.0439 60.1785 82.8363 60.206 82.621 60.2154L82.5714 60.2171L82.5771 60.2389C82.597 60.3227 82.593 60.4123 82.5643 60.4998L82.5559 60.5236C82.5069 60.652 82.4109 60.7623 82.2805 60.8611C82.0564 61.0308 81.721 61.1702 81.3395 61.249C80.4627 61.4301 79.4852 61.285 78.583 60.7492L78.514 60.7072L78.4478 60.73C78.2638 60.7923 78.0573 60.8545 77.8325 60.9124C76.9698 61.1347 76.0897 61.2357 75.2578 61.1458C74.9222 61.1095 74.6022 61.0422 74.3005 60.9408C74.1186 60.8797 74.0206 60.6824 74.0816 60.5001C74.1426 60.3179 74.3395 60.2197 74.5215 60.2808C74.7736 60.3655 75.0447 60.4226 75.3323 60.4537C76.0696 60.5334 76.8709 60.4414 77.6594 60.2382C77.8409 60.1914 78.0092 60.1418 78.1612 60.0919L78.2253 60.0705C78.2603 60.0587 78.2928 60.0474 78.3226 60.0367L78.4274 59.9977C78.5343 59.9547 78.6555 59.9677 78.751 60.0322C79.5525 60.5738 80.4283 60.7264 81.1993 60.5672C81.3953 60.5267 81.57 60.4671 81.7039 60.4007L81.7332 60.3857L81.6399 60.3408C81.4515 60.2518 81.1958 60.1395 80.8904 60.012L80.6202 59.9005L80.3928 59.8085L80.1091 59.6953C79.8211 59.5814 79.5218 59.4653 79.2224 59.3511L78.6907 59.1504C78.4222 59.0507 78.3827 58.6865 78.6236 58.5313C78.6619 58.5066 78.7026 58.4908 78.745 58.4816L78.7668 58.4777C79.0245 58.4395 79.6365 58.627 80.964 59.2006C81.7201 59.5273 82.4775 59.5932 83.0875 59.4548C83.1664 59.4369 83.2394 59.416 83.3047 59.3934L83.335 59.3826L83.2163 59.324C82.9139 59.1757 82.4719 58.968 81.9346 58.7216L81.5858 58.5623L81.2677 58.418C80.9454 58.2722 80.6113 58.1223 80.2756 57.9724L79.4359 57.5996C79.0535 57.431 79.2399 56.8606 79.6385 56.9385L79.6589 56.943L83.797 57.965C84.138 58.0534 84.4126 57.996 84.5634 57.8571C84.6334 57.7927 84.6513 57.7456 84.6401 57.7143L84.6375 57.7085L84.6365 57.708C84.6154 57.6966 84.586 57.6824 84.549 57.6662L84.5259 57.6562C84.4331 57.6167 84.307 57.5691 84.1505 57.5146L84.0142 57.4679C83.7268 57.3711 83.3626 57.2575 82.9337 57.13L82.7883 57.087C81.923 56.8323 80.8581 56.5387 79.8924 56.2833C79.4767 56.1733 79.5936 55.5607 80.0092 55.5997L80.0639 55.607L80.3877 55.6522L80.5139 55.6694C80.8238 55.7114 81.1457 55.7535 81.4685 55.7936L81.6622 55.8174C81.8749 55.8433 82.0815 55.8674 82.2801 55.8895L82.4657 55.9099C83.2961 55.9992 83.9162 56.0433 84.2217 56.0286C84.5016 56.0117 84.5986 55.9358 84.6099 55.8425C84.6204 55.756 84.5595 55.6479 84.4869 55.6165L84.4261 55.5911C84.2391 55.5153 83.9039 55.3974 83.519 55.2806C82.8819 55.0874 82.1781 54.9158 81.4307 54.7841C79.3787 54.4227 77.3274 54.4127 75.408 54.881C75.2216 54.9265 75.0337 54.812 74.9883 54.6252C74.9429 54.4384 75.0572 54.2502 75.2436 54.2047Z" fill="#2E186A"/>
<path fill-rule="evenodd" clip-rule="evenodd" d="M69.7095 29.6211C70.9054 29.6211 71.875 28.6965 71.875 27.5559C71.875 26.4153 70.9054 25.4907 69.7095 25.4907C68.5135 25.4907 67.5439 26.4153 67.5439 27.5559C67.5439 28.6965 68.5135 29.6211 69.7095 29.6211Z" fill="white"/>
<path fill-rule="evenodd" clip-rule="evenodd" d="M69.7102 25.1426C68.3261 25.1426 67.1973 26.2191 67.1973 27.5558C67.1973 28.8926 68.3261 29.9691 69.7102 29.9691C71.0943 29.9691 72.2231 28.8926 72.2231 27.5558C72.2231 26.2191 71.0943 25.1426 69.7102 25.1426ZM69.7104 25.8387C70.7182 25.8387 71.5285 26.6114 71.5285 27.5558C71.5285 28.5002 70.7182 29.273 69.7104 29.273C68.7025 29.273 67.8923 28.5002 67.8923 27.5558C67.8923 26.6114 68.7025 25.8387 69.7104 25.8387Z" fill="#2E186A"/>
<path fill-rule="evenodd" clip-rule="evenodd" d="M82.853 22.5669C84.049 22.5669 85.0185 21.6423 85.0185 20.5017C85.0185 19.3611 84.049 18.4365 82.853 18.4365C81.657 18.4365 80.6875 19.3611 80.6875 20.5017C80.6875 21.6423 81.657 22.5669 82.853 22.5669Z" fill="white"/>
<path fill-rule="evenodd" clip-rule="evenodd" d="M82.8537 18.0884C81.4696 18.0884 80.3408 19.1649 80.3408 20.5016C80.3408 21.8384 81.4696 22.9149 82.8537 22.9149C84.2379 22.9149 85.3667 21.8384 85.3667 20.5016C85.3667 19.1649 84.2379 18.0884 82.8537 18.0884ZM82.8549 18.7845C83.8628 18.7845 84.673 19.5572 84.673 20.5016C84.673 21.446 83.8628 22.2187 82.8549 22.2187C81.8471 22.2187 81.0368 21.446 81.0368 20.5016C81.0368 19.5572 81.8471 18.7845 82.8549 18.7845Z" fill="#2E186A"/>
<path fill-rule="evenodd" clip-rule="evenodd" d="M81.3256 30.7133C84.3928 28.4889 84.5687 23.4875 81.7184 19.5424C78.8681 15.5973 74.071 14.2025 71.0038 16.4269C67.9366 18.6513 67.7608 23.6527 70.6111 27.5978C73.4614 31.5429 78.2584 32.9377 81.3256 30.7133Z" fill="white"/>
<path fill-rule="evenodd" clip-rule="evenodd" d="M70.8031 16.1465C67.562 18.4973 67.377 23.7168 70.3293 27.8035C73.2816 31.8901 78.2879 33.3444 81.529 30.9936C84.7701 28.6429 84.9551 23.4234 82.0028 19.3367C79.0504 15.25 74.0442 13.7957 70.8031 16.1465ZM71.209 16.7103C74.1041 14.6105 78.6919 15.9432 81.4384 19.745C84.1849 23.5468 84.0154 28.33 81.1204 30.4298C78.2253 32.5296 73.6375 31.1968 70.891 27.3951C68.1445 23.5933 68.314 18.81 71.209 16.7103Z" fill="#2E186A"/>
<path fill-rule="evenodd" clip-rule="evenodd" d="M79.7116 25.1557L79.7057 25.1633C79.1117 25.9415 78.1604 26.5017 76.7429 26.6291C76.1328 26.6946 75.8376 27.414 76.25 27.8706C76.6686 28.3444 77.1557 28.7302 77.7015 28.9577C78.4211 29.2577 79.1822 29.253 79.9488 28.8781C80.7388 28.4915 81.1671 27.8787 81.267 27.1184C81.3414 26.5524 81.2316 25.9487 81.0011 25.3434C80.7789 24.8088 80.0719 24.7098 79.7116 25.1557ZM80.3562 25.6014C80.808 26.7881 80.6823 27.7447 79.6443 28.2525C78.5894 28.7685 77.6115 28.3609 76.7681 27.4064C76.7414 27.3768 76.7617 27.3272 76.8114 27.3219L76.8855 27.3148C78.4341 27.1589 79.5261 26.5202 80.2251 25.6288L80.2521 25.5937C80.2823 25.5564 80.3409 25.5646 80.3562 25.6014Z" fill="#2E186A"/>
<path fill-rule="evenodd" clip-rule="evenodd" d="M76.249 21.2108C76.3898 21.0914 76.5979 21.1037 76.7239 21.2353L76.7386 21.2517L79.2863 24.2682C79.4258 24.4334 79.3819 24.6829 79.1993 24.7919L79.1805 24.8023L77.7909 25.5216C77.6204 25.6099 77.4108 25.5429 77.3228 25.3722C77.238 25.2077 77.2968 25.0069 77.4534 24.9135L77.472 24.9032L78.4741 24.3842L76.2082 21.7013C76.089 21.5602 76.1013 21.3517 76.2327 21.2255L76.249 21.2108Z" fill="#2E186A"/>
<path fill-rule="evenodd" clip-rule="evenodd" d="M72.0387 20.9186C72.5153 20.3564 73.1422 20.0843 73.8869 20.3074C74.0708 20.3625 74.1752 20.5564 74.1202 20.7406C74.0653 20.9248 73.8717 21.0294 73.6879 20.9744C73.2442 20.8414 72.8828 20.9983 72.5682 21.3693C72.479 21.4745 72.4019 21.5886 72.3378 21.7026C72.3128 21.7473 72.2938 21.7843 72.281 21.8109L72.2665 21.8429C72.1923 22.0202 71.9887 22.1036 71.8118 22.0293C71.6348 21.9549 71.5516 21.751 71.6258 21.5737L71.6412 21.5385C71.6619 21.493 71.6922 21.4326 71.7323 21.3612C71.8169 21.2107 71.9185 21.0603 72.0387 20.9186Z" fill="#2E186A"/>
<path fill-rule="evenodd" clip-rule="evenodd" d="M76.7777 18.5336C77.3738 18.1481 78.0146 18.0181 78.6315 18.3305C78.7214 18.3761 78.8089 18.4307 78.8938 18.4945C79.0473 18.6098 79.0784 18.828 78.9633 18.9817C78.8481 19.1355 78.6304 19.1667 78.4769 19.0514C78.4243 19.0118 78.3714 18.9788 78.318 18.9518C77.9637 18.7723 77.5646 18.8533 77.1545 19.1185C77.061 19.1789 76.9755 19.244 76.9004 19.3086L76.8705 19.3349C76.8479 19.355 76.8312 19.3708 76.821 19.381L76.8156 19.3864C76.6821 19.5245 76.4621 19.5279 76.3244 19.3941C76.1866 19.2603 76.1832 19.0399 76.3167 18.9019L76.3397 18.8789C76.366 18.8532 76.4021 18.8198 76.4473 18.7809C76.5453 18.6964 76.6559 18.6123 76.7777 18.5336Z" fill="#2E186A"/>
<path fill-rule="evenodd" clip-rule="evenodd" d="M74.4557 24.1532C74.7194 24.0377 74.7939 23.6251 74.6222 23.2318C74.4505 22.8384 74.0976 22.6132 73.8339 22.7288C73.5702 22.8443 73.4956 23.2569 73.6673 23.6502C73.839 24.0435 74.192 24.2687 74.4557 24.1532Z" fill="#2E186A"/>
<path fill-rule="evenodd" clip-rule="evenodd" d="M79.3917 22.1339C79.6419 21.9913 79.6704 21.5687 79.4554 21.19C79.2404 20.8113 78.8633 20.6198 78.6131 20.7624C78.3629 20.9049 78.3345 21.3275 78.5495 21.7063C78.7645 22.085 79.1416 22.2764 79.3917 22.1339Z" fill="#2E186A"/>
<path fill-rule="evenodd" clip-rule="evenodd" d="M65.3099 16.4759C67.0122 14.109 65.7384 4.9665 57.8175 1.10297C49.8039 -2.81857 46.6194 4.82727 45.9824 6.77644C45.3571 8.72561 45.8898 13.3549 52.5021 15.7681C59.1145 18.1814 63.3528 19.1792 65.3099 16.4759Z" fill="#2E186A"/>
<path fill-rule="evenodd" clip-rule="evenodd" d="M67.128 19.6316L64.6614 18.0189C63.7813 17.4388 63.5497 16.2901 64.1519 15.4548L64.2561 15.3156C64.8583 14.4686 66.0626 14.2598 66.9543 14.8283L69.4209 16.441L67.128 19.6316Z" fill="#00AC45"/>
<path fill-rule="evenodd" clip-rule="evenodd" d="M82.8539 15.3971C82.8539 15.3971 81.3948 7.22913 70.4514 14.3529C68.6449 15.3623 66.8384 17.4275 66.1436 19.6551C65.0666 23.1009 67.4174 28.2871 69.8377 27.5562C70.0345 27.4982 70.2314 27.4285 70.4283 27.3473C70.3472 27.2313 70.2662 27.1037 70.1851 26.9761C69.9072 26.5236 69.664 26.0711 69.4555 25.607C71.98 22.9965 70.0693 18.5297 69.8724 18.1236C70.7757 18.3324 71.7716 18.6805 72.0148 19.7595L79.0208 16.9402C80.2136 17.7523 81.2906 18.8545 82.1359 20.212C82.1475 20.2236 82.1591 20.2468 82.1707 20.2584C82.3791 19.0402 81.7306 17.6015 80.4799 16.3485L82.8539 15.3971Z" fill="#2E186A"/>
<path fill-rule="evenodd" clip-rule="evenodd" d="M52.618 56.2363C50.3251 58.6728 51.8537 62.0722 52.8728 62.9192C53.8918 63.7661 55.5478 66.075 63.075 63.5225C67.9155 61.875 71.8644 61.2485 74.0531 61.0048C74.0531 61.0048 76.0796 55.865 74.6784 51.8623C74.6784 51.8623 67.1512 51.7463 61.5348 54.0551" fill="#00AC45"/>
<path fill-rule="evenodd" clip-rule="evenodd" d="M102.031 6.11556C101.719 5.47744 100.954 3.81832 101.035 3.01777C101.14 1.98518 100.329 1.23104 99.7616 2.53048C99.2058 3.82992 99.7153 5.33821 99.7153 5.33821" fill="white"/>
<path fill-rule="evenodd" clip-rule="evenodd" d="M99.4428 2.39073C99.7757 1.62834 100.313 1.29396 100.827 1.60017C101.222 1.83534 101.434 2.40625 101.384 3.01221L101.381 3.05266C101.325 3.59923 101.758 4.76811 102.343 5.96193C102.427 6.13449 102.356 6.34305 102.184 6.42776C102.012 6.51247 101.803 6.44126 101.719 6.2687L101.654 6.13551C101.046 4.87432 100.632 3.73334 100.686 3.01968L100.689 2.98251C100.727 2.60607 100.611 2.28087 100.472 2.19856C100.448 2.18433 100.436 2.18452 100.397 2.20867C100.302 2.26779 100.189 2.41946 100.08 2.66735C100.023 2.80228 99.9761 2.94417 99.9403 3.09241C99.8047 3.65405 99.8271 4.26675 99.9482 4.8518C99.9663 4.93906 99.9854 5.01916 100.004 5.091L100.016 5.13311C100.024 5.16284 100.031 5.18638 100.036 5.20326L100.044 5.22638C100.105 5.40846 100.008 5.60603 99.8261 5.66766C99.6444 5.72929 99.4472 5.63164 99.3857 5.44955L99.3726 5.40946C99.343 5.31519 99.3052 5.17341 99.2679 4.99319C99.1277 4.31585 99.1016 3.60503 99.265 2.92867C99.3097 2.74349 99.3683 2.56467 99.4428 2.39073Z" fill="#2E186A"/>
<path fill-rule="evenodd" clip-rule="evenodd" d="M99.9463 9.88598L102.019 13.355C103.548 12.9722 105.111 12.044 106.014 10.3269C104.428 8.30808 101.764 4.98986 101.22 4.81582C99.6915 4.32853 97.3523 4.47936 96.8891 4.61859C95.9048 4.92024 96.4259 5.52356 97.4565 5.60477C98.4409 5.68599 100.213 5.83681 100.213 5.83681C98.6841 5.87162 96.7733 5.98764 96.4838 6.17328C96.0438 6.46333 96.4143 7.31029 97.4565 7.26388L100.421 7.21747C100.421 7.21747 97.0976 7.57714 96.6922 7.75117C96.2869 7.92521 96.3333 9.07382 98.383 8.73736C100.433 8.4009 100.572 8.54012 100.572 8.54012C100.572 8.54012 98.0935 9.06222 97.6187 9.28266C97.1323 9.51471 97.6071 10.7329 99.9463 9.88598Z" fill="white"/>
<path fill-rule="evenodd" clip-rule="evenodd" d="M96.789 4.28513C96.1366 4.48506 95.8126 4.92714 96.1305 5.3912L96.1484 5.41628C96.2466 5.54764 96.3955 5.65843 96.5806 5.74514L96.6229 5.76424C96.4721 5.79971 96.3615 5.8382 96.2962 5.88005C95.8994 6.14157 95.8535 6.64638 96.1287 7.04326L96.1492 7.07191C96.2542 7.21362 96.3926 7.33153 96.5572 7.42077L96.5673 7.42602L96.5551 7.43119C96.1073 7.62348 96.0074 8.23773 96.3474 8.65557L96.3671 8.67902C96.5606 8.90303 96.8546 9.04978 97.2407 9.11215L97.2645 9.11564L97.2572 9.12345C96.9647 9.44402 97.0843 9.98892 97.5335 10.2809L97.5617 10.2987C98.0366 10.5898 98.7734 10.6132 99.715 10.3293L99.7919 10.3054L101.721 13.5338C101.799 13.6653 101.955 13.7298 102.103 13.6926C103.922 13.2369 105.447 12.1522 106.321 10.4891C106.385 10.3675 106.372 10.2195 106.287 10.1115L106.049 9.80864C103.508 6.58466 101.869 4.65781 101.325 4.48417C99.9977 4.0609 97.5907 4.04416 96.789 4.28513ZM98.6514 4.83026C99.589 4.83679 100.463 4.94017 101.113 5.14745L101.124 5.15134C101.468 5.29227 103.183 7.30886 105.329 10.0204L105.597 10.3606L105.569 10.4092C104.823 11.6679 103.632 12.5232 102.208 12.9427L102.181 12.9504L100.243 9.70714C100.158 9.56425 99.9832 9.50198 99.8269 9.55858C98.8826 9.90049 98.2274 9.90277 97.9106 9.69689L97.8915 9.68387C97.843 9.64921 97.8143 9.61537 97.8012 9.58828L97.7989 9.58299L97.8422 9.5665C98 9.50914 98.3042 9.42344 98.7089 9.32211L98.9677 9.25847C99.0222 9.24529 99.078 9.23192 99.1349 9.2184C99.4172 9.15133 99.7172 9.08287 100.02 9.01579L100.292 8.95598L100.642 8.88069C100.912 8.8238 101.011 8.48943 100.816 8.29395C100.756 8.23353 100.685 8.20257 100.598 8.1848C100.34 8.13184 99.7316 8.17117 98.5731 8.35394L98.3255 8.39382C97.5246 8.52529 97.0521 8.42115 96.8849 8.21572C96.8453 8.16706 96.8326 8.12 96.8388 8.0819L96.8413 8.0705L96.8432 8.06508C97.0073 8.00797 97.7229 7.89525 98.6982 7.77102C99.0143 7.73076 99.3448 7.69066 99.6764 7.65191L100.453 7.56389L100.471 7.56146C100.899 7.49575 100.846 6.86262 100.413 6.8694L97.4498 6.91581C97.0772 6.93225 96.8165 6.81657 96.6983 6.64613C96.6302 6.54783 96.6355 6.48898 96.6734 6.464C96.7325 6.42617 97.2249 6.35035 97.91 6.29539L98.0941 6.2813C98.7215 6.23552 99.4815 6.20153 100.219 6.18474C100.65 6.17492 100.677 5.5497 100.263 5.49246L99.721 5.4458L97.4837 5.25783C97.2672 5.24076 97.0745 5.19759 96.9242 5.13636L96.8992 5.12582C96.8423 5.10105 96.7962 5.07534 96.7622 5.0517L96.7561 5.04735L96.7639 5.04285C96.8136 5.01456 96.8887 4.98224 96.9894 4.95137L97.0215 4.94264C97.2717 4.88035 97.9541 4.82541 98.6514 4.83026Z" fill="#2E186A"/>
<path fill-rule="evenodd" clip-rule="evenodd" d="M70.0921 28.2983C71.451 28.2983 72.4776 29.9522 72.4776 31.9298C72.4776 33.8877 71.4714 35.5282 70.1328 35.5608L70.0921 35.5613H70.0574C69.8655 35.5613 69.71 35.4055 69.71 35.2132C69.71 35.0279 69.8546 34.8764 70.037 34.8658L70.0574 34.8652H70.0921C70.98 34.8652 71.7828 33.5718 71.7828 31.9298C71.7828 30.2878 70.98 28.9945 70.0921 28.9945C69.9002 28.9945 69.7447 28.8386 69.7447 28.6464C69.7447 28.4542 69.9002 28.2983 70.0921 28.2983Z" fill="#00AC45"/>
<path fill-rule="evenodd" clip-rule="evenodd" d="M83.8728 20.6411C84.8909 20.6411 85.7439 21.5679 86.0855 22.9104C86.1328 23.0967 86.0205 23.2862 85.8346 23.3336C85.6487 23.3811 85.4596 23.2686 85.4122 23.0823C85.1406 22.015 84.5168 21.3372 83.8728 21.3372C83.6809 21.3372 83.5254 21.1814 83.5254 20.9892C83.5254 20.7969 83.6809 20.6411 83.8728 20.6411Z" fill="#00AC45"/>
<path fill-rule="evenodd" clip-rule="evenodd" d="M111.076 51.062C112.924 51.062 113.626 52.6249 112.659 54.393L112.629 54.4466L100.921 75.2732C99.9786 76.9408 97.8951 78.2883 96.1999 78.3151L96.1487 78.3155H74.9684C73.1201 78.3155 72.4176 76.7527 73.3856 74.9839L73.4117 74.9367L77.9723 66.1696C78.0577 66.0055 78.2554 65.938 78.4219 66.0126L78.4409 66.0218C78.6048 66.1074 78.6721 66.3055 78.5977 66.4722L78.5884 66.4913L74.0258 75.2626L74.0201 75.2732C73.2584 76.621 73.6733 77.5997 74.9301 77.6191L74.9684 77.6194H96.1487C97.5753 77.6194 99.4426 76.431 100.289 74.9779L100.316 74.9309L112.024 54.1043C112.793 52.743 112.362 51.7581 111.076 51.7581C110.884 51.7581 110.728 51.6023 110.728 51.4101C110.728 51.2178 110.884 51.062 111.076 51.062Z" fill="#2E186A"/>
</svg>
