<svg width="350" height="322" viewBox="0 0 350 322" fill="none" xmlns="http://www.w3.org/2000/svg">
  <path id="svg_54" fill="#ebeefd" d="m0,4c0,-2.20914 1.79086,-4 4,-4l346,0l0,368l-350,0l0,-364z"/>
  <path fill-rule="evenodd" clip-rule="evenodd"
        d="M-18.102 145.1C-17.0539 144.844 -15.6358 144.857 -13.8668 145.066C-13.1989 145.144 -12.5006 145.249 -11.756 145.378L-11.3013 145.459C-10.5434 145.599 -9.02647 145.901 -8.89708 145.921C-8.32186 146.013 -7.92973 146.552 -8.02124 147.126C-8.11275 147.7 -8.65326 148.091 -9.22848 148L-9.35989 147.976C-9.81968 147.89 -11.2289 147.611 -11.8076 147.507C-12.6354 147.358 -13.398 147.24 -14.1146 147.156C-15.5941 146.981 -16.7698 146.964 -17.5158 147.125L-17.7156 147.173C-18.1224 147.275 -18.1181 147.304 -18.0147 147.599C-17.6245 148.726 -12.0889 151.384 -3.51074 154.75C-1.36746 155.587 1.07083 156.209 3.74872 156.633C8.74124 157.424 14.0787 157.483 19.0127 157.109L19.4157 157.077C19.8088 157.045 20.1723 157.012 20.5036 156.978L21.0265 156.922L21.2467 156.896C21.8244 156.822 22.3529 157.229 22.4272 157.806C22.4988 158.362 22.1219 158.872 21.5769 158.974L21.4943 158.987L21.0867 159.034L20.5416 159.09C20.1274 159.13 19.6699 159.17 19.1727 159.208C14.0887 159.593 8.59757 159.532 3.418 158.711C0.599131 158.265 -1.98365 157.607 -4.28102 156.71L-4.87376 156.476C-14.4583 152.698 -19.2973 150.34 -20.0071 148.29C-20.574 146.672 -19.7316 145.498 -18.102 145.1Z"
        fill="#2E186A"/>
  <path fill-rule="evenodd" clip-rule="evenodd"
        d="M-4.8441 145.523C-12.5078 140.367 -19.9958 140.261 -17.8513 144.33C-17.0428 145.874 0.675182 156.257 6.44055 157.345C10.87 158.186 17.1276 158.397 25.4241 157.169L37.6227 173.13L53.6181 155.135C43.142 146.435 34.2127 139.244 32.1738 138.122C26.6193 135.105 13.1551 137.595 13.1551 137.595C9.70993 137.385 0.0775528 135.596 0.0775528 135.596C-8.88689 134.158 -6.07452 138.613 -2.41843 140.332C1.23766 142.05 8.23344 144.155 9.25292 144.015C9.25292 144.015 -0.69585 142.05 -4.91441 138.823C-7.93771 137.245 -11.4883 139.139 -11.875 140.121C-12.2617 141.103 -8.88689 142.822 -4.24647 145.769C0.358789 148.68 8.09282 150.715 8.09282 150.715"
        fill="white"/>
  <path fill-rule="evenodd" clip-rule="evenodd"
        d="M-4.87273 134.468C-3.74026 134.176 -2.11515 134.193 0.0641212 134.528L0.357985 134.577L1.43091 134.772C1.61464 134.805 1.8062 134.839 2.00483 134.875C3.32907 135.111 4.69646 135.347 6.03251 135.567L6.71757 135.678L7.38493 135.785C9.7215 136.156 11.5875 136.411 12.796 136.513L13.0952 136.536L13.4596 136.474C13.5918 136.452 13.7348 136.429 13.8879 136.404L14.3845 136.328C14.9778 136.239 15.6185 136.15 16.2972 136.067C18.8632 135.752 21.4347 135.566 23.8448 135.577C27.6047 135.592 30.6221 136.08 32.6827 137.199C34.6603 138.288 42.5844 144.603 54.2923 154.325C54.733 154.691 54.7974 155.337 54.4487 155.782L54.4066 155.832L38.4113 173.827C37.9859 174.306 37.24 174.295 36.8266 173.82L36.7836 173.767L24.9606 158.298L24.8217 158.318C17.5459 159.334 11.3761 159.314 6.49547 158.425L6.24417 158.378C0.892502 157.368 -17.6096 147.064 -18.7853 144.819C-20.2787 141.986 -18.3521 140.201 -14.9595 140.416C-14.3515 140.455 -13.7019 140.549 -13.0213 140.696L-12.907 140.721L-12.9122 140.704C-12.9932 140.418 -12.9911 140.123 -12.8857 139.813L-12.8571 139.735C-12.5024 138.835 -11.2011 137.963 -9.691 137.504C-8.842 137.246 -7.9709 137.129 -7.11408 137.17L-6.91555 137.183L-6.91687 137.176C-6.93404 137.085 -6.94608 136.995 -6.95276 136.905L-6.95764 136.815C-6.99764 135.653 -6.20194 134.81 -4.87273 134.468ZM-4.34438 136.505C-4.59714 136.571 -4.75306 136.646 -4.82772 136.711L-4.85119 136.732L-4.8499 136.734L-4.84883 136.743C-4.83158 137.244 -3.97177 138.191 -2.79875 138.925L-2.64699 139.017L-2.58069 139.053C-2.25375 139.228 -1.90518 139.402 -1.53629 139.574L-1.38354 139.644L-1.26241 139.697C-0.330845 140.102 0.787638 140.535 1.98239 140.957L2.31298 141.073L2.5403 141.149C3.82087 141.568 5.15738 141.951 6.50051 142.295L7.0044 142.422L7.48096 142.539C7.9483 142.651 8.38723 142.752 8.79109 142.841L9.37638 142.965C9.41383 142.973 9.44115 142.978 9.45793 142.982C10.6252 143.212 10.5761 144.894 9.39732 145.056C8.5054 145.179 5.1055 144.264 1.83884 143.137L1.6127 143.058L1.38295 142.982L0.892708 142.813C-0.218628 142.424 -1.24239 142.021 -2.16742 141.602L-2.29334 141.544L-2.37302 141.509C-2.50141 141.452 -2.6264 141.395 -2.74765 141.339L-2.86764 141.283C-3.15491 141.148 -3.4355 141 -3.70641 140.841L-3.74241 140.819L-3.7604 140.809C-4.37523 140.471 -4.92759 140.124 -5.41239 139.765L-5.47343 139.719L-5.52164 139.695C-6.55571 139.197 -7.75608 139.148 -8.93961 139.478L-9.07608 139.518C-9.60335 139.678 -10.0889 139.905 -10.4613 140.155C-10.5403 140.208 -10.6117 140.26 -10.6743 140.31L-10.6893 140.322L-10.6428 140.367C-10.4135 140.582 -10.0658 140.85 -9.58788 141.178L-9.35804 141.333L-9.19034 141.444C-8.20223 142.084 -5.06271 144.014 -3.93255 144.721L-3.68173 144.879C-2.50656 145.622 -1.03552 146.356 0.661028 147.068C2.34321 147.773 4.15149 148.419 5.96054 148.989L6.42699 149.134C6.88442 149.275 7.31404 149.402 7.70932 149.515L8.36196 149.696C8.92518 149.844 9.26139 150.42 9.1129 150.982C8.96442 151.544 8.38747 151.88 7.82425 151.731L7.45056 151.629C7.35133 151.602 7.24409 151.572 7.12924 151.539L6.70924 151.417C6.27819 151.291 5.81469 151.15 5.32514 150.996C3.45877 150.408 1.59165 149.741 -0.156544 149.008C-1.85299 148.296 -3.34869 147.557 -4.59504 146.791L-4.94963 146.569L-4.97179 146.567C-5.11207 146.55 -5.25076 146.505 -5.37909 146.429L-5.43344 146.395C-8.87527 144.079 -12.514 142.68 -15.0923 142.517C-16.1208 142.451 -16.8229 142.604 -17.0836 142.845C-17.2256 142.977 -17.2356 143.236 -16.9164 143.842C-16.9374 143.802 -16.8889 143.857 -16.7945 143.943C-16.6482 144.078 -16.4392 144.248 -16.1742 144.449C-15.6626 144.836 -14.9622 145.32 -14.1121 145.874L-13.951 145.978C-12.2162 147.102 -9.98513 148.439 -7.63868 149.759L-7.04989 150.089C-1.17837 153.359 4.05214 155.788 6.54912 156.293L6.63817 156.31C11.4789 157.23 17.7596 157.239 25.2696 156.127C25.6258 156.075 25.9825 156.207 26.2176 156.475L26.263 156.53L37.6842 171.474L52.1068 155.248L49.6933 153.251C40.0608 145.298 33.4327 140.051 31.7254 139.076L31.6699 139.045C29.9945 138.135 27.2761 137.696 23.8366 137.681C21.5264 137.671 19.04 137.851 16.5558 138.156L16.0002 138.226C15.4542 138.298 14.9377 138.372 14.4567 138.446L13.9383 138.528L13.431 138.614C13.3939 138.621 13.366 138.626 13.3476 138.629C13.263 138.645 13.1768 138.65 13.0909 138.645L12.8733 138.63C11.5976 138.537 9.59995 138.268 7.05463 137.864L6.03744 137.7L5.68973 137.643C4.61296 137.466 3.51684 137.278 2.43913 137.089L1.05721 136.843L-0.0895748 136.634C-2.08542 136.314 -3.51199 136.291 -4.34438 136.505Z"
        fill="#2E186A"/>
  <path fill-rule="evenodd" clip-rule="evenodd"
        d="M327.473 210.488C317.559 184.916 269.116 131.246 269.116 131.246L111.553 138.858L82.445 179.268L49.1184 148.926L11.3975 182.987L71.9689 248.408C81.4959 258.721 96.4014 261.352 108.67 255.669L109.338 330.632H264.968V288.503C310.388 260.475 336.613 234.096 327.473 210.488Z"
        fill="#5D21D1"/>
  <path fill-rule="evenodd" clip-rule="evenodd"
        d="M252.76 196.232C253.254 195.966 253.866 196.133 254.157 196.603L254.189 196.658L262.767 212.514C263.017 212.976 262.887 213.547 262.47 213.857L262.416 213.894L213.958 245.503L213.921 245.699C212.132 255.189 213.319 263.621 217.044 271.087L217.168 271.333C220.419 277.734 225.444 283.236 231.77 287.89C235.882 290.915 240.293 293.401 244.704 295.38C246.144 296.026 247.487 296.574 248.702 297.027L248.961 297.122C249.185 297.204 249.395 297.28 249.593 297.349L250.093 297.521L262.856 289.438C263.33 289.138 263.951 289.262 264.275 289.709L264.312 289.762C264.612 290.235 264.488 290.855 264.039 291.179L263.986 291.215L250.803 299.563C250.543 299.728 250.224 299.771 249.93 299.681L249.671 299.599L249.475 299.534C249.115 299.414 248.7 299.269 248.233 299.098C246.906 298.611 245.428 298.013 243.839 297.3C239.299 295.263 234.76 292.705 230.518 289.584C223.945 284.748 218.7 279.005 215.287 272.285C211.167 264.174 209.899 254.972 211.975 244.657C212.026 244.404 212.169 244.179 212.375 244.024L212.432 243.984L260.45 212.662L252.333 197.658C252.067 197.165 252.234 196.555 252.705 196.264L252.76 196.232Z"
        fill="white"/>
  <path fill-rule="evenodd" clip-rule="evenodd"
        d="M314.852 147.382C310.915 140.893 289.716 143.348 289.716 143.348C273.862 91.0461 212.798 85.3284 184.956 85.3634C110.006 85.3985 106.701 141.699 108.037 144.19C108.037 144.19 127.161 175.234 145.653 151.065C164.109 126.966 207.068 124.546 222.536 158.502C213.571 177.865 196.451 182.425 183.338 194.738C166.956 210.137 167.976 244.058 181.51 249.215C207.771 255.318 193.498 228.378 202.216 213.68C208.158 203.648 229.778 199.579 247.882 194.843C245.562 199.544 244.121 204.735 247.32 207.261C253.929 212.382 267.393 206.63 279.311 186.039C282.826 179.97 284.021 174.392 283.951 169.622C287.713 170.394 291.615 170.639 295.587 170.113C316.856 167.307 318.789 153.907 314.852 147.382Z"
        fill="#00AC45"/>
  <path fill-rule="evenodd" clip-rule="evenodd"
        d="M192.444 313.549C207.782 313.549 220.216 301.142 220.216 285.837C220.216 270.532 207.782 258.125 192.444 258.125C177.106 258.125 164.672 270.532 164.672 285.837C164.672 301.142 177.106 313.549 192.444 313.549Z"
        fill="#00AC45"/>
  <path fill-rule="evenodd" clip-rule="evenodd"
        d="M179.522 257.14C180.048 256.943 180.632 257.191 180.857 257.697L180.963 257.96L181.087 258.253C181.117 258.324 181.149 258.397 181.183 258.474L181.235 258.591C181.545 259.28 181.925 260.05 182.379 260.881C183.678 263.261 185.299 265.641 187.259 267.86C191.114 272.224 195.787 275.411 201.344 276.941C208.235 278.837 216.181 278.091 225.282 274.172C225.817 273.941 226.438 274.187 226.669 274.721C226.899 275.255 226.653 275.874 226.118 276.104C216.591 280.207 208.156 280.999 200.783 278.969C194.799 277.322 189.786 273.904 185.676 269.252C183.605 266.907 181.897 264.398 180.527 261.888C180.09 261.088 179.716 260.338 179.403 259.655L179.311 259.452C179.109 259.004 178.976 258.678 178.907 258.495C178.702 257.952 178.977 257.345 179.522 257.14Z"
        fill="#2E186A"/>
  <path fill-rule="evenodd" clip-rule="evenodd"
        d="M165.36 268.514C165.861 268.263 166.467 268.449 166.744 268.928L166.868 269.164L166.92 269.259C167.05 269.498 167.208 269.776 167.394 270.091C167.932 270.998 168.589 272.011 169.371 273.105C171.609 276.237 174.385 279.372 177.725 282.298C181.303 285.433 185.324 288.139 189.807 290.29C190.332 290.542 190.553 291.171 190.3 291.695C190.048 292.219 189.418 292.439 188.893 292.187C184.231 289.95 180.051 287.137 176.333 283.88C172.864 280.841 169.982 277.585 167.653 274.327C166.836 273.183 166.146 272.119 165.579 271.162L165.415 270.882C165.336 270.746 165.263 270.618 165.195 270.496L165.006 270.152C164.951 270.049 164.912 269.973 164.888 269.926C164.627 269.406 164.839 268.774 165.36 268.514Z"
        fill="#2E186A"/>
  <path fill-rule="evenodd" clip-rule="evenodd"
        d="M170.764 262.275C171.263 262.019 171.871 262.198 172.153 262.673L172.319 262.978L172.427 263.172C172.522 263.34 172.63 263.526 172.751 263.729C173.238 264.547 173.827 265.46 174.519 266.446C176.5 269.268 178.903 272.092 181.735 274.726C186.497 279.156 191.975 282.588 198.185 284.637C205.733 287.128 214.059 287.47 223.204 285.269C223.77 285.133 224.34 285.481 224.476 286.046C224.613 286.611 224.264 287.179 223.698 287.315C214.171 289.608 205.445 289.249 197.523 286.635C191.005 284.484 185.269 280.892 180.296 276.265C177.35 273.525 174.852 270.59 172.791 267.654C172.124 266.703 171.546 265.814 171.058 265.005L170.938 264.804C170.808 264.587 170.692 264.387 170.589 264.205L170.41 263.882C170.363 263.796 170.329 263.733 170.308 263.692C170.042 263.175 170.246 262.541 170.764 262.275Z"
        fill="#2E186A"/>
  <path fill-rule="evenodd" clip-rule="evenodd"
        d="M221.13 272.46C221.564 272.072 222.23 272.109 222.619 272.542C223.008 272.975 222.971 273.64 222.537 274.028C210.683 284.621 198.449 290.84 186.25 293.457C177.437 295.348 169.477 295.216 162.773 293.852C161.684 293.631 160.724 293.393 159.9 293.154L159.598 293.065C159.255 292.961 159.007 292.878 158.857 292.822C158.311 292.621 158.032 292.016 158.234 291.471C158.428 290.945 158.999 290.667 159.53 290.828L159.801 290.921L160.006 290.987C160.15 291.033 160.311 291.081 160.489 291.133C161.259 291.356 162.163 291.58 163.195 291.79C169.626 293.098 177.295 293.226 185.806 291.4C197.647 288.859 209.549 282.809 221.13 272.46Z"
        fill="#2E186A"/>
  <path fill-rule="evenodd" clip-rule="evenodd"
        d="M223.842 272.769C224.241 272.346 224.909 272.325 225.333 272.723C225.757 273.121 225.778 273.787 225.379 274.211C224.803 274.822 224.224 275.424 223.642 276.017C211.292 288.597 198.046 296.686 184.777 301.17C180.102 302.75 175.746 303.765 171.818 304.326C170.518 304.512 169.347 304.635 168.314 304.708L168.095 304.723C167.503 304.761 167.054 304.777 166.758 304.78L166.633 304.78C166.051 304.776 165.582 304.301 165.586 303.72C165.59 303.16 166.032 302.705 166.586 302.677L166.648 302.675L166.866 302.673C167.1 302.668 167.427 302.655 167.843 302.63L167.959 302.622C168.99 302.556 170.181 302.433 171.519 302.242C175.322 301.699 179.551 300.714 184.1 299.176C197.063 294.796 210.024 286.882 222.136 274.544C222.707 273.961 223.276 273.37 223.842 272.769Z"
        fill="#2E186A"/>
  <path fill-rule="evenodd" clip-rule="evenodd"
        d="M220.12 279.122C220.42 278.624 221.068 278.462 221.567 278.762C222.067 279.061 222.228 279.707 221.929 280.206C217.211 288.045 211.21 294.51 204.226 299.733C198.197 304.242 191.749 307.605 185.237 310.006C182.888 310.872 180.672 311.558 178.61 312.095C177.949 312.267 177.335 312.415 176.758 312.545L176.512 312.6C176.333 312.639 176.164 312.675 175.998 312.71L175.432 312.826C174.861 312.944 174.303 312.578 174.185 312.009C174.071 311.46 174.408 310.923 174.944 310.779L175.042 310.758C175.125 310.74 175.319 310.701 175.405 310.683L175.725 310.616C175.833 310.594 175.943 310.57 176.058 310.545L176.534 310.437C177.019 310.326 177.531 310.2 178.078 310.058C180.074 309.539 182.224 308.872 184.506 308.031C190.837 305.698 197.106 302.428 202.961 298.049C209.734 292.984 215.548 286.719 220.12 279.122Z"
        fill="#2E186A"/>
  <path fill-rule="evenodd" clip-rule="evenodd"
        d="M196.698 164.465H179.191C171.843 164.465 165.867 158.502 165.867 151.171V120.688H209.986V151.171C209.986 158.502 204.045 164.465 196.698 164.465Z"
        fill="white"/>
  <path fill-rule="evenodd" clip-rule="evenodd"
        d="M209.986 119.635H165.867C165.285 119.635 164.812 120.106 164.812 120.687V151.17C164.812 159.083 171.261 165.517 179.191 165.517H196.698C204.622 165.517 211.041 159.089 211.041 151.17V120.687C211.041 120.106 210.569 119.635 209.986 119.635ZM166.922 121.739H208.932V151.17C208.932 157.928 203.455 163.413 196.698 163.413H179.191L178.988 163.411C172.317 163.303 166.922 157.853 166.922 151.17V121.739Z"
        fill="#2E186A"/>
  <path fill-rule="evenodd" clip-rule="evenodd"
        d="M158.308 64.5973C154.019 75.3313 153.246 133.176 187.733 133.176C222.219 133.176 219.583 77.2957 215.294 69.403C211.005 61.5104 172.44 29.2733 158.308 64.5973Z"
        fill="white"/>
  <path fill-rule="evenodd" clip-rule="evenodd"
        d="M172.248 48.3329C165.903 50.3718 160.872 55.5004 157.433 63.9491L157.329 64.2061C156.148 67.1609 155.326 73.0493 155.193 79.8189C155.04 87.5666 155.774 95.7413 157.451 103.142C159.439 111.915 162.659 119.284 167.176 124.645C172.419 130.869 179.272 134.227 187.733 134.227C196.178 134.227 202.929 130.991 207.998 124.998C212.346 119.857 215.347 112.813 217.087 104.462C218.543 97.4738 219.051 89.7958 218.7 82.6443C218.393 76.3923 217.438 71.1397 216.221 68.9C214.994 66.6415 211.527 62.9998 207.231 59.5351C202.158 55.4439 196.459 51.9766 190.875 49.8116C184.111 47.1895 177.779 46.5557 172.248 48.3329ZM159.246 65.094L159.288 64.986C162.509 56.936 167.123 52.1908 172.895 50.3363C177.906 48.7259 183.762 49.3121 190.111 51.7734C195.475 53.8533 200.991 57.2091 205.905 61.172L206.276 61.4729C210.201 64.6858 213.333 67.9997 214.367 69.9032C215.392 71.789 216.301 76.7899 216.593 82.7472C216.936 89.7282 216.439 97.2291 215.022 104.033C211.367 121.58 202.45 132.122 187.733 132.122C172.966 132.122 163.685 121.106 159.509 102.678C157.871 95.4519 157.152 87.4455 157.301 79.8603L157.313 79.3321C157.471 73.1045 158.229 67.7316 159.246 65.094Z"
        fill="#2E186A"/>
  <path fill-rule="evenodd" clip-rule="evenodd"
        d="M208.474 68.4904C208.474 68.4904 207.313 102.481 227.211 104.797C227.211 104.797 238.39 106.831 241.167 101.71C241.167 101.71 228.652 98.6228 229.531 92.7997C229.531 92.7997 235.929 103.043 244.894 93.5364C244.894 93.5364 227.738 87.3626 227.211 72.5946C226.824 61.8956 211.497 59.6506 208.474 68.4904Z"
        fill="#2E186A"/>
  <path fill-rule="evenodd" clip-rule="evenodd"
        d="M168.433 69.3671C168.433 69.3671 169.98 102.902 152.719 107.988C152.719 107.988 142.629 111.251 141.188 106.761C141.188 106.761 149.063 101.008 149.063 95.6058C149.063 95.6058 139.219 108.199 133.735 100.341C133.735 100.341 146.778 88.555 148.043 74.5588C148.957 64.4562 167.203 61.3693 168.433 69.3671Z"
        fill="#2E186A"/>
  <path fill-rule="evenodd" clip-rule="evenodd"
        d="M185.634 94.584C185.714 94.0083 186.246 93.6062 186.823 93.6858C187.38 93.7627 187.774 94.2595 187.73 94.8111L187.723 94.8726L186.175 106.031L190.528 105.814C191.089 105.786 191.57 106.201 191.629 106.751L191.634 106.813C191.662 107.373 191.247 107.852 190.695 107.912L190.634 107.916L185.009 108.197C184.369 108.229 183.854 107.691 183.905 107.063L183.912 107.002L185.634 94.584Z"
        fill="#2E186A"/>
  <path fill-rule="evenodd" clip-rule="evenodd"
        d="M194.586 78.8251C197.195 78.2892 199.482 78.8635 201.373 80.1425C201.861 80.4721 202.285 80.8258 202.646 81.182C202.87 81.4028 203.028 81.5826 203.119 81.7004C203.477 82.1591 203.394 82.8203 202.934 83.1771C202.492 83.5202 201.863 83.457 201.497 83.0438L201.42 82.9509C201.37 82.8919 201.283 82.7977 201.162 82.6779C200.89 82.4093 200.565 82.1383 200.19 81.8849C198.742 80.9058 197.021 80.4737 195.012 80.8866C194.441 81.0038 193.883 80.6373 193.766 80.0681C193.649 79.4988 194.016 78.9423 194.586 78.8251Z"
        fill="#2E186A"/>
  <path fill-rule="evenodd" clip-rule="evenodd"
        d="M176.708 78.6665C177.955 78.5301 179.26 78.6554 180.535 78.945C181.084 79.0698 181.507 79.1965 181.759 79.2862C182.308 79.4815 182.594 80.0836 182.398 80.631C182.21 81.1588 181.642 81.4431 181.11 81.2877L180.9 81.2195C180.871 81.2104 180.839 81.2004 180.803 81.1896C180.585 81.1244 180.337 81.0587 180.066 80.9972C179.002 80.7553 177.919 80.6513 176.938 80.7587C175.597 80.9054 174.61 81.4265 174.008 82.4061C173.703 82.9015 173.054 83.0569 172.557 82.7531C172.061 82.4492 171.905 81.8013 172.209 81.3058C173.189 79.7119 174.768 78.8788 176.708 78.6665Z"
        fill="#2E186A"/>
  <path fill-rule="evenodd" clip-rule="evenodd"
        d="M249.921 63.0181H226.262C221.587 46.3909 206.224 34.1836 187.944 34.1836C165.972 34.1836 148.184 51.8631 148.184 73.6468H168.468H227.703H249.921C252.874 73.6468 255.23 71.2615 255.23 68.35C255.23 65.4034 252.839 63.0181 249.921 63.0181Z"
        fill="#00AC45"/>
  <path fill-rule="evenodd" clip-rule="evenodd"
        d="M194.729 61.0527H160.945C160.945 54.2475 168.504 48.7051 177.855 48.7051C187.206 48.7051 194.729 54.2475 194.729 61.0527Z"
        fill="#2E186A"/>
  <path fill-rule="evenodd" clip-rule="evenodd"
        d="M197.035 113.797C197.509 113.46 198.168 113.57 198.506 114.043C198.844 114.516 198.734 115.173 198.259 115.511C197.169 116.287 195.916 116.868 194.534 117.278C192.154 117.984 189.672 118.132 187.472 117.967L187.212 117.945C187.056 117.931 186.936 117.918 186.857 117.907C186.279 117.831 185.873 117.302 185.95 116.726C186.024 116.17 186.519 115.773 187.072 115.814L187.251 115.834L187.427 115.851C187.49 115.857 187.558 115.862 187.63 115.868C189.596 116.015 191.838 115.882 193.933 115.26C195.103 114.913 196.146 114.429 197.035 113.797Z"
        fill="#2E186A"/>
  <path fill-rule="evenodd" clip-rule="evenodd"
        d="M179.506 92.957C179.513 91.5234 178.763 90.3577 177.831 90.3534C176.899 90.349 176.138 91.5077 176.131 92.9413C176.125 94.3749 176.875 95.5406 177.807 95.545C178.739 95.5493 179.499 94.3906 179.506 92.957Z"
        fill="#2E186A"/>
  <path fill-rule="evenodd" clip-rule="evenodd"
        d="M197.444 95.8559C198.36 95.6862 198.891 94.4061 198.629 92.9966C198.367 91.587 197.411 90.5819 196.495 90.7515C195.579 90.9211 195.048 92.2013 195.31 93.6108C195.573 95.0203 196.528 96.0255 197.444 95.8559Z"
        fill="#2E186A"/>
  <path fill-rule="evenodd" clip-rule="evenodd"
        d="M105.788 146.4C105.788 146.4 108.284 113.251 114.717 114.163C117.495 114.549 127.971 127.247 134.334 136.157"
        fill="#00AC45"/>
  <path fill-rule="evenodd" clip-rule="evenodd"
        d="M109.575 118.566C110.984 114.823 112.643 112.805 114.863 113.12C116.544 113.354 119.6 116.226 123.978 121.274C127.63 125.484 131.863 130.883 135.193 135.546C135.531 136.019 135.42 136.676 134.946 137.013C134.471 137.351 133.813 137.24 133.475 136.767C130.282 132.297 126.244 127.134 122.713 123.033L122.12 122.349C118.368 118.052 115.452 115.327 114.569 115.204C112.703 114.94 110.47 120.87 108.822 130.45C108.219 133.953 107.718 137.712 107.314 141.472L107.212 142.441C107.146 143.074 107.087 143.683 107.032 144.261L106.955 145.107C106.931 145.38 106.909 145.632 106.89 145.86L106.84 146.478C106.796 147.058 106.29 147.492 105.709 147.449C105.149 147.407 104.724 146.936 104.734 146.382L104.744 146.225L104.812 145.395L104.854 144.92C104.953 143.811 105.073 142.577 105.216 141.247C105.625 137.447 106.132 133.646 106.743 130.093L106.855 129.453C107.624 125.11 108.502 121.478 109.501 118.763L109.575 118.566Z"
        fill="#2E186A"/>
  <path fill-rule="evenodd" clip-rule="evenodd"
        d="M116.151 116.927C116.582 116.535 117.249 116.566 117.641 116.996C118.019 117.409 118.004 118.04 117.62 118.436L117.572 118.483C117.594 118.463 117.603 118.453 117.601 118.457L117.597 118.463C117.552 118.52 117.494 118.608 117.426 118.729C117.201 119.131 116.964 119.72 116.736 120.528L116.671 120.767C115.72 124.331 115.34 130.259 115.875 139.109C115.911 139.689 115.468 140.188 114.886 140.223C114.305 140.258 113.805 139.816 113.77 139.236L113.734 138.623C113.229 129.693 113.659 123.666 114.706 119.957C115.184 118.266 115.707 117.331 116.151 116.927Z"
        fill="#2E186A"/>
  <path fill-rule="evenodd" clip-rule="evenodd"
        d="M138.517 130.788C138.517 130.788 148.501 114.828 153.914 118.476C156.235 120.054 161.894 132.542 164.988 140.821"
        fill="#00AC45"/>
  <path fill-rule="evenodd" clip-rule="evenodd"
        d="M147.278 118.899C149.994 116.853 152.467 116.231 154.509 117.607C156.851 119.201 162.177 130.287 165.976 140.454C166.18 140.998 165.902 141.604 165.357 141.808C164.811 142.011 164.203 141.734 164 141.189L163.783 140.613C160.213 131.181 155.078 120.542 153.324 119.349C152.229 118.611 150.626 119.014 148.549 120.579C147.137 121.642 145.613 123.17 144.04 125.039C142.879 126.418 141.76 127.9 140.726 129.382L140.461 129.764C140.247 130.076 140.047 130.372 139.863 130.649L139.591 131.065L139.411 131.346C139.103 131.839 138.452 131.99 137.958 131.682C137.482 131.385 137.325 130.773 137.59 130.287L137.65 130.187L137.93 129.752L137.991 129.66C138.285 129.213 138.621 128.715 138.994 128.179C140.062 126.649 141.219 125.117 142.425 123.685C144.091 121.705 145.72 120.072 147.278 118.899Z"
        fill="#2E186A"/>
  <path fill-rule="evenodd" clip-rule="evenodd"
        d="M153.099 119.347C153.529 118.955 154.196 118.986 154.588 119.416C154.965 119.829 154.951 120.461 154.567 120.856L154.325 121.087L154.283 121.128C154.084 121.322 153.861 121.549 153.621 121.807C152.931 122.545 152.24 123.373 151.597 124.268C149.504 127.181 148.413 130.082 148.802 132.687C148.897 133.319 149.078 133.93 149.352 134.521C149.596 135.049 149.366 135.674 148.837 135.918C148.309 136.162 147.682 135.932 147.437 135.404C147.078 134.629 146.84 133.825 146.716 132.998C146.23 129.739 147.501 126.356 149.883 123.041C150.582 122.068 151.33 121.171 152.078 120.371L152.322 120.113C152.659 119.762 152.926 119.503 153.099 119.347Z"
        fill="#2E186A"/>
  <path fill-rule="evenodd" clip-rule="evenodd"
        d="M170.612 140.506C165.48 136.683 158.625 134.438 158.625 134.438L136.829 131.807C130.888 130.79 124.806 131.105 119.041 132.789L114.857 133.982C95.6275 142.12 102.518 160.887 112.115 172.498C111.553 182.074 111.412 206.91 124.349 218.38C136.899 229.535 138.13 200.28 138.024 186.564C140.379 186.985 142.875 187.196 145.442 187.196C145.688 199.684 147.305 228.658 157.886 216.732C168.116 205.226 168.855 186.95 168.644 179.093C169.101 178.742 169.558 178.391 170.015 178.005C189.28 162.185 175.183 143.909 170.612 140.506Z"
        fill="#00AC45"/>
  <path fill-rule="evenodd" clip-rule="evenodd" d="M132.751 131.211L138.692 131.316L132.751 131.211Z" fill="#00AC45"/>
  <path fill-rule="evenodd" clip-rule="evenodd"
        d="M144.206 152.559C144.307 150.236 143.194 148.301 141.719 148.237C140.245 148.174 138.968 150.005 138.867 152.328C138.766 154.65 139.88 156.585 141.354 156.649C142.828 156.712 144.105 154.881 144.206 152.559Z"
        fill="#2E186A"/>
  <path fill-rule="evenodd" clip-rule="evenodd"
        d="M161.799 154.998C161.9 152.675 160.786 150.741 159.312 150.677C157.838 150.613 156.561 152.444 156.46 154.767C156.359 157.09 157.472 159.024 158.947 159.088C160.421 159.152 161.698 157.321 161.799 154.998Z"
        fill="#2E186A"/>
  <path fill-rule="evenodd" clip-rule="evenodd"
        d="M155.988 159.764L152.051 162.395C151.489 162.781 150.645 162.64 150.153 162.114L147.2 158.712C146.497 157.905 147.129 156.817 148.289 156.958L155.215 157.729C156.375 157.835 156.867 159.168 155.988 159.764Z"
        fill="#2E186A"/>
  <path fill-rule="evenodd" clip-rule="evenodd"
        d="M151.616 159.975L151.678 159.978C152.259 160.024 152.692 160.532 152.645 161.111C152.55 162.303 152.99 164.41 153.633 165.621L153.731 165.804C154.187 166.638 154.284 166.578 154.899 165.516C155.191 165.013 155.836 164.841 156.34 165.132C156.845 165.423 157.017 166.067 156.725 166.57C155.17 169.253 153.034 168.987 151.769 166.606C150.939 165.043 150.415 162.536 150.543 160.943C150.587 160.384 151.062 159.963 151.616 159.975Z"
        fill="#2E186A"/>
  <path fill-rule="evenodd" clip-rule="evenodd"
        d="M151.757 160.01L151.819 160.013C152.399 160.06 152.832 160.567 152.786 161.146C152.648 162.861 151.852 165.493 150.915 166.915C150.185 168.024 149.274 168.626 148.184 168.3C147.167 167.997 146.425 166.928 145.782 165.093C145.59 164.544 145.88 163.944 146.43 163.752C146.98 163.56 147.581 163.85 147.773 164.398C148.022 165.109 148.27 165.632 148.505 165.969C148.58 166.078 148.65 166.16 148.71 166.218L148.739 166.244L148.748 166.238C148.846 166.162 148.969 166.026 149.102 165.834L149.153 165.759C149.877 164.659 150.572 162.363 150.683 160.978C150.728 160.42 151.202 159.998 151.757 160.01Z"
        fill="#2E186A"/>
  <path fill-rule="evenodd" clip-rule="evenodd"
        d="M187.849 146.011C193.94 144.906 200.281 145.61 206.787 148.453C207.321 148.686 207.564 149.306 207.331 149.839C207.097 150.371 206.475 150.614 205.941 150.381C199.824 147.707 193.908 147.051 188.226 148.082C183.645 148.913 179.4 150.804 175.554 153.438C173.689 154.715 172.04 156.084 170.628 157.452C170.19 157.875 169.804 158.271 169.472 158.631L169.349 158.764C169.275 158.846 169.207 158.922 169.145 158.992L168.958 159.208C168.947 159.221 168.938 159.232 168.933 159.238C168.564 159.688 167.9 159.755 167.449 159.387C166.998 159.019 166.931 158.356 167.3 157.906L167.426 157.756C167.517 157.651 167.638 157.514 167.789 157.348C168.177 156.922 168.634 156.449 169.159 155.941C170.653 154.495 172.392 153.051 174.361 151.702C178.437 148.911 182.951 146.9 187.849 146.011Z"
        fill="#2E186A"/>
  <path fill-rule="evenodd" clip-rule="evenodd"
        d="M188.805 153.356C195.47 153.141 202.043 155.009 208.336 159.355C208.815 159.685 208.934 160.341 208.603 160.819C208.271 161.297 207.614 161.416 207.135 161.085C201.22 157.001 195.093 155.259 188.873 155.46C183.992 155.618 179.307 156.956 174.976 159.092C173.355 159.891 171.9 160.747 170.634 161.602C170.248 161.862 169.905 162.105 169.608 162.327L169.355 162.517L169.106 162.714C168.658 163.085 167.993 163.023 167.621 162.576C167.249 162.128 167.311 161.465 167.759 161.094L167.91 160.973C167.99 160.91 168.09 160.833 168.21 160.742L168.488 160.536C168.776 160.324 169.098 160.098 169.452 159.859C170.794 158.953 172.331 158.048 174.042 157.205C178.624 154.945 183.596 153.525 188.805 153.356Z"
        fill="#2E186A"/>
  <path fill-rule="evenodd" clip-rule="evenodd"
        d="M92.759 145.254C99.2664 142.528 105.581 141.913 111.623 143.085C116.491 144.029 120.966 146.084 124.999 148.914C126.985 150.307 128.735 151.799 130.236 153.293C130.763 153.818 131.222 154.306 131.612 154.746L131.89 155.066C131.983 155.176 132.053 155.261 132.101 155.322C132.463 155.777 132.386 156.439 131.93 156.8C131.491 157.148 130.861 157.09 130.491 156.68L130.351 156.511C130.262 156.405 130.155 156.28 130.03 156.139C129.67 155.732 129.241 155.276 128.746 154.783C127.327 153.37 125.667 151.956 123.786 150.636C119.981 147.966 115.774 146.034 111.22 145.151C105.584 144.058 99.6941 144.631 93.5754 147.194C93.0383 147.419 92.4202 147.167 92.1948 146.631C91.9693 146.095 92.222 145.478 92.759 145.254Z"
        fill="#2E186A"/>
  <path fill-rule="evenodd" clip-rule="evenodd"
        d="M91.0686 156.119C97.3886 151.897 103.949 150.125 110.57 150.415C115.758 150.642 120.696 152.112 125.243 154.417C126.978 155.297 128.537 156.241 129.896 157.186C130.374 157.518 130.794 157.828 131.153 158.107L131.406 158.307C131.494 158.378 131.562 158.434 131.609 158.474C132.051 158.852 132.103 159.516 131.725 159.958C131.36 160.382 130.731 160.447 130.29 160.115L130.044 159.915C129.987 159.869 129.924 159.82 129.856 159.767C129.526 159.51 129.136 159.223 128.69 158.913C127.407 158.021 125.932 157.128 124.287 156.294C119.991 154.115 115.338 152.731 110.477 152.518C104.299 152.247 98.1832 153.899 92.2421 157.868C91.7581 158.191 91.103 158.062 90.779 157.579C90.4549 157.096 90.5846 156.442 91.0686 156.119Z"
        fill="#2E186A"/>
  <path fill-rule="evenodd" clip-rule="evenodd"
        d="M126.452 201.137C127.006 200.959 127.6 201.262 127.779 201.815C128.183 203.063 128.437 204.393 128.556 205.792C128.833 209.059 128.373 212.526 127.439 215.941C127.205 216.799 126.955 217.596 126.703 218.318L126.549 218.751C126.412 219.125 126.304 219.399 126.236 219.56C126.009 220.096 125.391 220.347 124.854 220.121C124.337 219.904 124.084 219.322 124.27 218.8L124.381 218.521L124.501 218.208C124.543 218.096 124.587 217.976 124.632 217.848C124.895 217.114 125.158 216.286 125.404 215.387C126.278 212.19 126.707 208.956 126.454 205.97C126.348 204.724 126.124 203.55 125.772 202.462C125.593 201.909 125.897 201.315 126.452 201.137Z"
        fill="#2E186A"/>
  <path fill-rule="evenodd" clip-rule="evenodd"
        d="M131.831 202.295C132.385 202.117 132.979 202.421 133.158 202.974C133.562 204.222 133.816 205.551 133.935 206.95C134.212 210.217 133.752 213.684 132.818 217.099C132.584 217.957 132.334 218.754 132.082 219.476L131.927 219.909C131.791 220.283 131.683 220.557 131.615 220.719C131.388 221.254 130.77 221.505 130.233 221.28C129.716 221.062 129.463 220.48 129.649 219.959L129.76 219.679L129.88 219.367C129.922 219.254 129.966 219.134 130.011 219.007C130.274 218.272 130.537 217.445 130.783 216.545C131.657 213.349 132.086 210.114 131.833 207.128C131.727 205.882 131.503 204.709 131.151 203.62C130.972 203.067 131.276 202.474 131.831 202.295Z"
        fill="#2E186A"/>
  <path fill-rule="evenodd" clip-rule="evenodd"
        d="M152.115 199.559C152.669 199.38 153.264 199.684 153.442 200.237C153.846 201.485 154.1 202.815 154.219 204.214C154.496 207.481 154.036 210.948 153.102 214.363C152.868 215.221 152.618 216.018 152.366 216.739L152.212 217.173C152.075 217.546 151.967 217.82 151.899 217.982C151.672 218.518 151.054 218.769 150.517 218.543C150 218.325 149.747 217.744 149.933 217.222L150.044 216.943L150.164 216.63C150.206 216.518 150.25 216.398 150.296 216.27C150.558 215.535 150.821 214.708 151.067 213.809C151.941 210.612 152.37 207.378 152.117 204.392C152.012 203.145 151.787 201.972 151.435 200.884C151.256 200.33 151.561 199.737 152.115 199.559Z"
        fill="#2E186A"/>
  <path fill-rule="evenodd" clip-rule="evenodd"
        d="M158.266 198.963C158.821 198.785 159.415 199.089 159.594 199.642C159.997 200.889 160.252 202.219 160.37 203.618C160.647 206.885 160.187 210.352 159.254 213.767C159.019 214.625 158.769 215.422 158.517 216.144L158.363 216.577C158.227 216.951 158.119 217.225 158.05 217.387C157.824 217.922 157.205 218.173 156.669 217.947C156.151 217.73 155.899 217.148 156.084 216.627L156.196 216.347L156.315 216.035C156.357 215.922 156.401 215.802 156.447 215.674C156.71 214.94 156.973 214.113 157.219 213.213C158.093 210.017 158.522 206.782 158.269 203.796C158.163 202.55 157.938 201.377 157.586 200.288C157.407 199.735 157.712 199.142 158.266 198.963Z"
        fill="#2E186A"/>
  <path fill-rule="evenodd" clip-rule="evenodd"
        d="M227.633 251.461L216.771 255.916C205.486 253.39 201.654 253.846 196.943 255.916C193.006 257.635 193.358 259.985 201.127 261.528C208.896 263.072 210.935 264.405 210.935 264.405C196.381 290.924 219.021 291.24 219.021 291.24C216.982 293.941 207.56 304.219 214.099 303.202C221.341 302.079 230.411 290.188 233.856 282.961L234.172 282.54C234.313 282.26 240.676 278.121 245.105 274.507C243.207 267.597 233.118 254.302 227.633 251.461Z"
        fill="white"/>
  <path fill-rule="evenodd" clip-rule="evenodd"
        d="M227.233 250.487L216.676 254.816L215.76 254.616C205.954 252.504 201.708 252.673 196.518 254.952C194.007 256.049 192.746 257.583 193.728 259.308C194.534 260.722 196.93 261.767 200.921 262.56L201.457 262.668C204.542 263.298 206.888 263.932 208.591 264.536L208.73 264.586C208.949 264.666 209.15 264.742 209.333 264.815L209.484 264.876L209.473 264.897C205.608 272.23 204.335 278.053 205.317 282.54C206.162 286.402 208.607 289.05 212.096 290.657L212.364 290.777C213.798 291.406 215.312 291.823 216.825 292.069L216.981 292.093L215.374 294.081C215.134 294.38 214.926 294.641 214.777 294.832C214.373 295.351 214 295.842 213.654 296.315L213.402 296.661C212.009 298.602 211.138 300.144 210.863 301.352C210.381 303.466 211.753 304.631 214.261 304.241C217.905 303.676 222.036 300.699 226.187 296.072L226.414 295.817C229.737 292.064 232.83 287.476 234.684 283.671L234.761 283.511L234.974 283.227L235.024 283.188C235.075 283.148 235.14 283.099 235.217 283.042L235.92 282.538L238.535 280.706C239.999 279.677 241.065 278.913 242.226 278.056L242.366 277.952C242.869 277.58 243.35 277.219 243.811 276.866L244.085 276.656C244.688 276.193 245.251 275.748 245.773 275.322C246.096 275.059 246.233 274.63 246.122 274.229C244.151 267.053 233.882 253.512 228.119 250.527C227.844 250.384 227.52 250.369 227.233 250.487ZM227.565 252.627L227.63 252.665C232.733 255.743 241.556 267.339 243.832 273.96L243.891 274.133L243.765 274.234C243.456 274.479 243.133 274.731 242.798 274.99C242.354 275.331 241.89 275.682 241.404 276.044L240.562 276.665C239.34 277.562 238.155 278.403 236.394 279.635L234.616 280.881L233.907 281.389C233.513 281.677 233.396 281.78 233.301 281.938L233.278 281.977L233.013 282.33C232.971 282.386 232.934 282.446 232.904 282.509C231.114 286.263 227.968 290.932 224.616 294.668C220.762 298.964 216.98 301.69 213.938 302.161C213.549 302.222 213.244 302.233 213.029 302.205L212.985 302.198C212.958 302.194 212.935 302.189 212.916 302.185L212.879 302.175L212.878 302.143C212.876 302.065 212.889 301.956 212.92 301.819C213.127 300.909 213.982 299.435 215.358 297.556C215.635 297.178 215.931 296.785 216.249 296.374L216.584 295.944C217.455 294.843 219.585 292.242 219.864 291.873C220.371 291.2 219.921 290.244 219.094 290.19L218.879 290.182C218.81 290.178 218.725 290.173 218.624 290.166L218.546 290.16C218.131 290.128 217.667 290.073 217.165 289.992C215.734 289.759 214.304 289.356 212.981 288.746C210.051 287.397 208.069 285.25 207.378 282.091C206.477 277.973 207.8 272.309 211.861 264.91C212.125 264.428 211.974 263.825 211.514 263.524L211.441 263.479C211.332 263.414 211.171 263.328 210.951 263.223L210.746 263.128C210.355 262.951 209.875 262.758 209.299 262.554L208.984 262.444C207.218 261.839 204.879 261.219 201.885 260.607L201.333 260.496C197.924 259.819 195.957 258.961 195.563 258.268L195.544 258.229C195.517 258.164 195.539 258.115 195.66 257.968C195.933 257.635 196.516 257.251 197.367 256.88L197.662 256.752C202.458 254.711 206.448 254.684 216.541 256.942C216.752 256.99 216.972 256.971 217.172 256.889L227.565 252.627Z"
        fill="#2E186A"/>
  <path fill-rule="evenodd" clip-rule="evenodd"
        d="M214.344 285.801C209.528 293.272 202.497 298.675 204.782 299.902C208.895 302.288 217.825 295.447 221.692 288.572"
        fill="white"/>
  <path fill-rule="evenodd" clip-rule="evenodd"
        d="M213.458 285.233C213.773 284.744 214.426 284.603 214.916 284.917C215.405 285.232 215.547 285.883 215.232 286.372C214.423 287.627 213.517 288.882 212.492 290.19L212.233 290.517C210.992 292.08 207.15 296.52 206.643 297.162L206.474 297.378C205.934 298.08 205.6 298.604 205.457 298.966L205.425 299.054L205.511 299.096C208.809 300.596 216.809 294.928 220.655 288.265L220.773 288.059C221.058 287.552 221.701 287.372 222.208 287.656C222.716 287.94 222.897 288.582 222.612 289.089C218.275 296.8 209.033 303.345 204.421 300.907L204.283 300.831C203.324 300.315 203.079 299.353 203.45 298.314C203.679 297.671 204.141 296.944 204.883 295.991L204.986 295.86C205.523 295.179 209.26 290.86 210.523 289.281L210.58 289.21C211.672 287.835 212.622 286.53 213.458 285.233Z"
        fill="#2E186A"/>
  <path fill-rule="evenodd" clip-rule="evenodd"
        d="M205.415 282.435C202.075 286.89 192.162 294.888 198.384 295.905C204.606 296.922 212.586 288.644 214.872 285.767C217.157 282.891 217.825 281.207 217.825 281.207"
        fill="white"/>
  <path fill-rule="evenodd" clip-rule="evenodd"
        d="M216.844 280.82C217.059 280.279 217.672 280.015 218.213 280.228C218.755 280.442 219.02 281.054 218.806 281.594L218.764 281.694C218.649 281.962 218.441 282.379 218.118 282.935C217.527 283.955 216.73 285.123 215.698 286.421C214.067 288.474 211.412 291.125 208.74 293.136C204.943 295.994 201.361 297.458 198.214 296.943C195.586 296.514 194.737 294.785 195.725 292.549C196.361 291.107 197.64 289.48 199.896 287.026L200.524 286.348L202.641 284.07C203.762 282.852 204.053 282.495 204.571 281.804C204.92 281.339 205.581 281.244 206.047 281.592C206.514 281.94 206.609 282.6 206.26 283.065L205.957 283.464C205.514 284.039 205.11 284.503 203.991 285.714L201.958 287.9C201.775 288.097 201.61 288.276 201.451 288.449L201.044 288.895C199.243 290.881 198.182 292.253 197.69 293.32L197.655 293.397C197.207 294.412 197.332 294.666 198.555 294.866C200.994 295.265 204.091 293.999 207.47 291.456C209.991 289.558 212.521 287.033 214.046 285.113C215.014 283.895 215.753 282.812 216.293 281.881C216.454 281.602 216.587 281.356 216.692 281.145L216.809 280.901L216.844 280.82Z"
        fill="#2E186A"/>
  <path fill-rule="evenodd" clip-rule="evenodd"
        d="M210.689 264.93C205.837 273.138 195.818 278.119 194.658 284.609C193.498 291.098 202.463 285.766 207.173 281.627C211.884 277.453 212.622 274.962 212.622 274.962"
        fill="white"/>
  <path fill-rule="evenodd" clip-rule="evenodd"
        d="M209.781 264.395C210.077 263.894 210.723 263.728 211.225 264.023C211.727 264.318 211.894 264.963 211.598 265.464C210.059 268.068 208.092 270.354 205.082 273.272L204.423 273.905C203.644 274.645 201.923 276.263 201.535 276.634L201.036 277.114C200.13 277.992 199.423 278.716 198.797 279.415C197.001 281.42 195.997 283.118 195.697 284.793C195.495 285.924 195.635 286.382 195.907 286.508C196.291 286.686 197.152 286.58 198.333 286.122C200.686 285.212 203.955 283.053 206.474 280.84C208.47 279.071 209.875 277.495 210.791 276.141C211.072 275.724 211.284 275.361 211.438 275.054L211.482 274.963C211.513 274.9 211.538 274.842 211.56 274.792L211.612 274.663C211.777 274.106 212.363 273.788 212.922 273.953C213.481 274.118 213.799 274.703 213.634 275.26C213.595 275.391 213.517 275.596 213.386 275.869C213.185 276.29 212.907 276.774 212.539 277.317C211.521 278.824 209.999 280.531 207.871 282.417C205.178 284.783 201.711 287.073 199.096 288.085C197.426 288.731 196.061 288.9 195.018 288.417C193.704 287.808 193.269 286.389 193.621 284.424C194.001 282.294 195.191 280.282 197.224 278.012L197.461 277.75C198.143 277.005 198.915 276.227 199.901 275.282L200.627 274.592C201.344 273.915 202.484 272.841 203.03 272.322L203.194 272.166C206.32 269.17 208.29 266.917 209.781 264.395Z"
        fill="#2E186A"/>
  <path fill-rule="evenodd" clip-rule="evenodd"
        d="M213.289 244.601C213.435 244.038 214.011 243.7 214.575 243.847L214.688 243.877C214.993 243.961 215.467 244.109 216.09 244.329L216.216 244.374C217.485 244.828 218.895 245.418 220.411 246.161C224.731 248.276 229.047 251.185 233.075 255.013C243.544 264.964 250.221 279.258 251.291 298.617C251.323 299.198 250.878 299.694 250.296 299.726C249.714 299.758 249.217 299.314 249.185 298.733C248.144 279.912 241.703 266.12 231.62 256.537C227.756 252.864 223.617 250.075 219.482 248.05C218.039 247.343 216.701 246.783 215.504 246.355L215.201 246.248C215.006 246.181 214.822 246.12 214.652 246.065L214.406 245.989C214.246 245.94 214.132 245.907 214.069 245.89L214.045 245.884C213.481 245.738 213.143 245.163 213.289 244.601Z"
        fill="white"/>
</svg>
