<svg width="660" height="546" viewBox="0 0 660 546" fill="none" xmlns="http://www.w3.org/2000/svg">
<g filter="url(#filter0_d_6736_30022)">
<g filter="url(#filter1_d_6736_30022)">
<path d="M628 14H28V499.408H628V14Z" fill="white"/>
</g>
<path d="M627.352 14.6431H519.197V82.8834H627.352V14.6431Z" fill="#FAFAFA" stroke="#E8E8E8"/>
<path d="M541.968 53.9642H546.052V55.2029H540.445V43.5363H541.968V53.9642ZM548.456 44.5406C548.167 44.5406 547.921 44.4402 547.72 44.2393C547.519 44.0385 547.418 43.7929 547.418 43.5029C547.418 43.2128 547.519 42.9672 547.72 42.7664C547.921 42.5655 548.167 42.4651 548.456 42.4651C548.736 42.4651 548.97 42.5655 549.159 42.7664C549.36 42.9672 549.46 43.2128 549.46 43.5029C549.46 43.7929 549.36 44.0385 549.159 44.2393C548.97 44.4402 548.736 44.5406 548.456 44.5406ZM549.193 46.0303V55.2029H547.67V46.0303H549.193ZM556.259 45.8629C557.374 45.8629 558.278 46.2032 558.97 46.884C559.662 47.5535 560.008 48.5243 560.008 49.7964V55.2029H558.502V50.014C558.502 49.0989 558.273 48.4016 557.815 47.9217C557.357 47.4308 556.733 47.1853 555.941 47.1853C555.137 47.1853 554.495 47.4363 554.016 47.9385C553.547 48.4406 553.313 49.1716 553.313 50.1312V55.2029H551.79V46.0303H553.313V47.3359C553.614 46.8672 554.021 46.5045 554.535 46.2479C555.059 45.9913 555.633 45.8629 556.259 45.8629ZM567.618 55.2029L564.019 51.1522V55.2029H562.496V42.8166H564.019V50.0977L567.551 46.0303H569.676L565.358 50.5998L569.693 55.2029H567.618Z" fill="black"/>
<path d="M611.885 45.0312H600.323C599.977 45.0312 599.784 45.3973 599.997 45.6473L605.779 52.3506C605.945 52.5426 606.263 52.5426 606.43 52.3506L612.211 45.6473C612.426 45.3973 612.232 45.0312 611.885 45.0312Z" fill="#BFBFBF"/>
<path d="M627.352 82.884H519.197V194.901H627.352V82.884Z" fill="white" stroke="#E8E8E8"/>
<path d="M579.166 137.752C578.899 137.752 578.643 137.854 578.454 138.035C578.266 138.216 578.159 138.461 578.159 138.718V145.651C578.159 145.907 578.053 146.153 577.864 146.333C577.676 146.515 577.42 146.617 577.152 146.617H566.078C565.811 146.617 565.555 146.515 565.366 146.333C565.178 146.153 565.071 145.907 565.071 145.651V135.029C565.071 134.773 565.178 134.527 565.366 134.346C565.555 134.165 565.811 134.063 566.078 134.063H573.306C573.574 134.063 573.83 133.961 574.018 133.78C574.207 133.599 574.313 133.353 574.313 133.097C574.313 132.841 574.207 132.596 574.018 132.415C573.83 132.233 573.574 132.132 573.306 132.132H566.078C565.277 132.132 564.508 132.437 563.943 132.98C563.376 133.524 563.057 134.26 563.057 135.029V145.651C563.057 146.42 563.376 147.156 563.943 147.7C564.508 148.243 565.277 148.548 566.078 148.548H577.152C577.953 148.548 578.722 148.243 579.288 147.7C579.855 147.156 580.173 146.42 580.173 145.651V138.718C580.173 138.461 580.067 138.216 579.878 138.035C579.688 137.854 579.432 137.752 579.166 137.752ZM583.112 129.833C583.01 129.597 582.815 129.41 582.569 129.312C582.448 129.263 582.318 129.236 582.186 129.235H576.145C575.879 129.235 575.622 129.336 575.433 129.518C575.245 129.699 575.138 129.944 575.138 130.2C575.138 130.457 575.245 130.702 575.433 130.883C575.622 131.064 575.879 131.166 576.145 131.166H579.759L569.391 141.102C569.295 141.192 569.221 141.299 569.17 141.418C569.119 141.535 569.092 141.661 569.092 141.788C569.092 141.916 569.119 142.042 569.17 142.159C569.221 142.278 569.295 142.385 569.391 142.475C569.483 142.565 569.595 142.637 569.718 142.686C569.84 142.735 569.973 142.759 570.105 142.759C570.238 142.759 570.369 142.735 570.493 142.686C570.615 142.637 570.726 142.565 570.82 142.475L581.179 132.528V135.994C581.179 136.25 581.285 136.496 581.474 136.677C581.664 136.858 581.919 136.96 582.186 136.96C582.453 136.96 582.709 136.858 582.898 136.677C583.086 136.496 583.193 136.25 583.193 135.994V130.2C583.192 130.074 583.164 129.95 583.112 129.833Z" fill="#00AC45"/>
<path d="M627.352 194.9H519.197V273.441H627.352V194.9Z" fill="white" stroke="#E8E8E8"/>
<path d="M578.431 233.033C578.175 233.033 577.929 233.135 577.748 233.316C577.567 233.496 577.465 233.742 577.465 233.998V240.932C577.465 241.188 577.363 241.434 577.182 241.614C577.002 241.796 576.756 241.898 576.5 241.898H565.877C565.621 241.898 565.375 241.796 565.195 241.614C565.013 241.434 564.912 241.188 564.912 240.932V230.31C564.912 230.053 565.013 229.807 565.195 229.627C565.375 229.446 565.621 229.344 565.877 229.344H572.811C573.067 229.344 573.313 229.242 573.493 229.061C573.675 228.88 573.776 228.635 573.776 228.378C573.776 228.122 573.675 227.876 573.493 227.696C573.313 227.514 573.067 227.413 572.811 227.413H565.877C565.109 227.413 564.372 227.718 563.829 228.261C563.285 228.804 562.98 229.541 562.98 230.31V240.932C562.98 241.701 563.285 242.437 563.829 242.98C564.372 243.524 565.109 243.829 565.877 243.829H576.5C577.268 243.829 578.005 243.524 578.548 242.98C579.091 242.437 579.397 241.701 579.397 240.932V233.998C579.397 233.742 579.295 233.496 579.113 233.316C578.933 233.135 578.687 233.033 578.431 233.033ZM582.216 225.114C582.118 224.879 581.93 224.691 581.695 224.593C581.579 224.544 581.454 224.517 581.328 224.516H575.534C575.278 224.516 575.032 224.617 574.851 224.799C574.67 224.979 574.568 225.225 574.568 225.481C574.568 225.738 574.67 225.983 574.851 226.164C575.032 226.345 575.278 226.447 575.534 226.447H579.001L569.054 236.383C568.964 236.473 568.891 236.58 568.842 236.698C568.794 236.816 568.769 236.942 568.769 237.069C568.769 237.197 568.794 237.323 568.842 237.44C568.891 237.559 568.964 237.665 569.054 237.756C569.144 237.846 569.251 237.918 569.369 237.967C569.486 238.016 569.612 238.04 569.74 238.04C569.867 238.04 569.994 238.016 570.111 237.967C570.229 237.918 570.336 237.846 570.426 237.756L580.362 227.808V231.275C580.362 231.532 580.464 231.777 580.645 231.958C580.826 232.139 581.072 232.241 581.328 232.241C581.584 232.241 581.83 232.139 582.01 231.958C582.192 231.777 582.294 231.532 582.294 231.275V225.481C582.292 225.355 582.265 225.23 582.216 225.114Z" fill="#00AC45"/>
<path d="M627.352 351.982H519.197V420.223H627.352V351.982Z" fill="white" stroke="#E8E8E8"/>
<path d="M579.166 384.963C578.899 384.963 578.643 385.065 578.454 385.247C578.266 385.427 578.159 385.673 578.159 385.929V392.863C578.159 393.119 578.053 393.365 577.864 393.545C577.676 393.727 577.42 393.828 577.152 393.828H566.078C565.811 393.828 565.555 393.727 565.366 393.545C565.178 393.365 565.071 393.119 565.071 392.863V382.24C565.071 381.984 565.178 381.738 565.366 381.558C565.555 381.376 565.811 381.275 566.078 381.275H573.306C573.574 381.275 573.83 381.173 574.018 380.991C574.207 380.811 574.313 380.565 574.313 380.309C574.313 380.053 574.207 379.807 574.018 379.627C573.83 379.445 573.574 379.343 573.306 379.343H566.078C565.277 379.343 564.508 379.648 563.943 380.192C563.376 380.735 563.057 381.472 563.057 382.24V392.863C563.057 393.631 563.376 394.368 563.943 394.911C564.508 395.454 565.277 395.76 566.078 395.76H577.152C577.953 395.76 578.722 395.454 579.288 394.911C579.855 394.368 580.173 393.631 580.173 392.863V385.929C580.173 385.673 580.067 385.427 579.878 385.247C579.688 385.065 579.432 384.963 579.166 384.963ZM583.112 377.045C583.01 376.809 582.815 376.621 582.569 376.524C582.448 376.475 582.318 376.448 582.186 376.446H576.145C575.879 376.446 575.622 376.548 575.433 376.73C575.245 376.91 575.138 377.156 575.138 377.412C575.138 377.668 575.245 377.914 575.433 378.094C575.622 378.276 575.879 378.378 576.145 378.378H579.759L569.391 388.314C569.295 388.404 569.221 388.511 569.17 388.629C569.119 388.746 569.092 388.872 569.092 389C569.092 389.127 569.119 389.254 569.17 389.371C569.221 389.489 569.295 389.596 569.391 389.686C569.483 389.776 569.595 389.848 569.718 389.897C569.84 389.946 569.973 389.971 570.105 389.971C570.238 389.971 570.369 389.946 570.493 389.897C570.615 389.848 570.726 389.776 570.82 389.686L581.179 379.739V383.206C581.179 383.462 581.285 383.708 581.474 383.888C581.664 384.07 581.919 384.172 582.186 384.172C582.453 384.172 582.709 384.07 582.898 383.888C583.086 383.708 583.193 383.462 583.193 383.206V377.412C583.192 377.286 583.164 377.161 583.112 377.045Z" fill="#00AC45"/>
<path d="M627.352 420.223H519.197V498.764H627.352V420.223Z" fill="white" stroke="#E8E8E8"/>
<path d="M579.166 458.354C578.899 458.354 578.643 458.456 578.454 458.637C578.266 458.818 578.159 459.064 578.159 459.32V466.253C578.159 466.51 578.053 466.755 577.864 466.936C577.676 467.117 577.42 467.219 577.152 467.219H566.078C565.811 467.219 565.555 467.117 565.366 466.936C565.178 466.755 565.071 466.51 565.071 466.253V455.631C565.071 455.375 565.178 455.129 565.366 454.949C565.555 454.767 565.811 454.665 566.078 454.665H573.306C573.574 454.665 573.83 454.564 574.018 454.382C574.207 454.202 574.313 453.956 574.313 453.7C574.313 453.443 574.207 453.198 574.018 453.017C573.83 452.836 573.574 452.734 573.306 452.734H566.078C565.277 452.734 564.508 453.039 563.943 453.583C563.376 454.126 563.057 454.862 563.057 455.631V466.253C563.057 467.022 563.376 467.758 563.943 468.302C564.508 468.845 565.277 469.15 566.078 469.15H577.152C577.953 469.15 578.722 468.845 579.288 468.302C579.855 467.758 580.173 467.022 580.173 466.253V459.32C580.173 459.064 580.067 458.818 579.878 458.637C579.688 458.456 579.432 458.354 579.166 458.354ZM583.112 450.436C583.01 450.2 582.815 450.012 582.569 449.914C582.448 449.865 582.318 449.838 582.186 449.837H576.145C575.879 449.837 575.622 449.939 575.433 450.12C575.245 450.301 575.138 450.546 575.138 450.803C575.138 451.059 575.245 451.305 575.433 451.485C575.622 451.667 575.879 451.768 576.145 451.768H579.759L569.391 461.704C569.295 461.795 569.221 461.901 569.17 462.02C569.119 462.137 569.092 462.263 569.092 462.391C569.092 462.518 569.119 462.644 569.17 462.761C569.221 462.88 569.295 462.987 569.391 463.077C569.483 463.167 569.595 463.239 569.718 463.288C569.84 463.337 569.973 463.361 570.105 463.361C570.238 463.361 570.369 463.337 570.493 463.288C570.615 463.239 570.726 463.167 570.82 463.077L581.179 453.129V456.597C581.179 456.853 581.285 457.099 581.474 457.279C581.664 457.461 581.919 457.562 582.186 457.562C582.453 457.562 582.709 457.461 582.898 457.279C583.086 457.099 583.193 456.853 583.193 456.597V450.803C583.192 450.677 583.164 450.552 583.112 450.436Z" fill="#00AC45"/>
<path d="M520.489 14.6431H380.146V82.8834H520.489V14.6431Z" fill="#FAFAFA" stroke="#E8E8E8"/>
<path d="M408.579 30.6594V31.898H405.398V42.3259H403.875V31.898H400.678V30.6594H408.579ZM411.977 34.6431C412.244 34.1187 412.624 33.7113 413.115 33.4212C413.617 33.1311 414.226 32.986 414.939 32.986V34.5594H414.537C412.83 34.5594 411.977 35.4855 411.977 37.3379V42.3259H410.453V33.1534H411.977V34.6431ZM416.129 37.7062C416.129 36.7688 416.318 35.9486 416.698 35.2456C417.077 34.5314 417.595 33.9791 418.255 33.5886C418.924 33.198 419.666 33.0027 420.481 33.0027C421.284 33.0027 421.981 33.1756 422.573 33.5216C423.164 33.8676 423.604 34.3028 423.895 34.8272V33.1534H425.435V42.3259H423.895V40.6186C423.594 41.1542 423.142 41.6006 422.54 41.9577C421.947 42.3036 421.256 42.4765 420.464 42.4765C419.649 42.4765 418.913 42.2757 418.255 41.874C417.595 41.4723 417.077 40.9087 416.698 40.1834C416.318 39.4581 416.129 38.6323 416.129 37.7062ZM423.895 37.7229C423.895 37.0311 423.755 36.4285 423.477 35.9152C423.198 35.4018 422.818 35.0113 422.339 34.7435C421.87 34.4645 421.351 34.325 420.782 34.325C420.213 34.325 419.694 34.4589 419.225 34.7268C418.757 34.9946 418.382 35.3851 418.104 35.8984C417.825 36.4118 417.686 37.0144 417.686 37.7062C417.686 38.4092 417.825 39.0229 418.104 39.5474C418.382 40.0607 418.757 40.4568 419.225 40.7358C419.694 41.0036 420.213 41.1375 420.782 41.1375C421.351 41.1375 421.87 41.0036 422.339 40.7358C422.818 40.4568 423.198 40.0607 423.477 39.5474C423.755 39.0229 423.895 38.4147 423.895 37.7229ZM427.44 37.7229C427.44 36.7744 427.629 35.9486 428.009 35.2456C428.389 34.5314 428.913 33.9791 429.583 33.5886C430.264 33.198 431.039 33.0027 431.909 33.0027C433.036 33.0027 433.963 33.2761 434.688 33.8229C435.424 34.3697 435.91 35.1285 436.144 36.0993H434.504C434.348 35.5414 434.04 35.1005 433.583 34.777C433.136 34.4534 432.579 34.2916 431.909 34.2916C431.039 34.2916 430.336 34.5929 429.8 35.1954C429.265 35.7868 428.997 36.6294 428.997 37.7229C428.997 38.8276 429.265 39.6813 429.8 40.2838C430.336 40.8864 431.039 41.1877 431.909 41.1877C432.579 41.1877 433.136 41.0315 433.583 40.719C434.03 40.4065 434.336 39.9603 434.504 39.38H436.144C435.898 40.3173 435.407 41.0705 434.671 41.6396C433.934 42.1975 433.014 42.4765 431.909 42.4765C431.039 42.4765 430.264 42.2812 429.583 41.8907C428.913 41.5002 428.389 40.9478 428.009 40.2336C427.629 39.5194 427.44 38.6825 427.44 37.7229ZM443.298 42.3259L439.699 38.2753V42.3259H438.176V29.9396H439.699V37.2208L443.231 33.1534H445.356L441.038 37.7229L445.373 42.3259H443.298ZM447.577 31.6637C447.288 31.6637 447.042 31.5632 446.841 31.3624C446.64 31.1615 446.54 30.916 446.54 30.6259C446.54 30.3358 446.64 30.0903 446.841 29.8894C447.042 29.6886 447.288 29.5881 447.577 29.5881C447.857 29.5881 448.091 29.6886 448.28 29.8894C448.481 30.0903 448.582 30.3358 448.582 30.6259C448.582 30.916 448.481 31.1615 448.28 31.3624C448.091 31.5632 447.857 31.6637 447.577 31.6637ZM448.314 33.1534V42.3259H446.791V33.1534H448.314ZM455.379 32.986C456.495 32.986 457.399 33.3263 458.09 34.007C458.782 34.6765 459.128 35.6474 459.128 36.9195V42.3259H457.622V37.1371C457.622 36.222 457.392 35.5247 456.935 35.0448C456.478 34.5538 455.852 34.3083 455.061 34.3083C454.257 34.3083 453.616 34.5594 453.136 35.0615C452.667 35.5637 452.433 36.2946 452.433 37.2542V42.3259H450.91V33.1534H452.433V34.4589C452.734 33.9903 453.141 33.6276 453.655 33.371C454.179 33.1144 454.754 32.986 455.379 32.986ZM465.4 33.0027C466.192 33.0027 466.883 33.1756 467.475 33.5216C468.078 33.8676 468.523 34.3028 468.814 34.8272V33.1534H470.354V42.5268C470.354 43.3637 470.175 44.1057 469.819 44.7529C469.461 45.4113 468.948 45.9246 468.279 46.2929C467.619 46.6611 466.849 46.8452 465.969 46.8452C464.764 46.8452 463.759 46.5607 462.956 45.9916C462.152 45.4225 461.677 44.647 461.533 43.665H463.04C463.207 44.2229 463.552 44.6693 464.077 45.004C464.601 45.35 465.232 45.5229 465.969 45.5229C466.806 45.5229 467.486 45.2606 468.011 44.7362C468.546 44.2118 468.814 43.4753 468.814 42.5268V40.6019C468.513 41.1375 468.066 41.5839 467.475 41.9409C466.883 42.298 466.192 42.4765 465.4 42.4765C464.585 42.4765 463.843 42.2757 463.174 41.874C462.514 41.4723 461.995 40.9087 461.617 40.1834C461.237 39.4581 461.048 38.6323 461.048 37.7062C461.048 36.7688 461.237 35.9486 461.617 35.2456C461.995 34.5314 462.514 33.9791 463.174 33.5886C463.843 33.198 464.585 33.0027 465.4 33.0027ZM468.814 37.7229C468.814 37.0311 468.674 36.4285 468.396 35.9152C468.116 35.4018 467.737 35.0113 467.258 34.7435C466.789 34.4645 466.27 34.325 465.701 34.325C465.132 34.325 464.613 34.4589 464.144 34.7268C463.676 34.9946 463.301 35.3851 463.023 35.8984C462.743 36.4118 462.604 37.0144 462.604 37.7062C462.604 38.4092 462.743 39.0229 463.023 39.5474C463.301 40.0607 463.676 40.4568 464.144 40.7358C464.613 41.0036 465.132 41.1375 465.701 41.1375C466.27 41.1375 466.789 41.0036 467.258 40.7358C467.737 40.4568 468.116 40.0607 468.396 39.5474C468.674 39.0229 468.814 38.4147 468.814 37.7229ZM405.315 71.1903C404.243 70.1413 403.407 68.8079 402.804 67.1899C402.213 65.5718 401.917 63.8255 401.917 61.9508C401.917 60.0314 402.23 58.2405 402.854 56.5778C403.49 54.904 404.394 53.5259 405.566 52.4435H407.156V52.5941C405.906 53.7658 404.963 55.1774 404.327 56.8289C403.703 58.4692 403.39 60.1765 403.39 61.9508C403.39 63.6804 403.686 65.3319 404.277 66.9053C404.88 68.4787 405.755 69.8568 406.905 71.0396V71.1903H405.315ZM408.563 66.8551C409.981 65.7169 411.091 64.7851 411.894 64.0598C412.698 63.3233 413.374 62.5589 413.919 61.7667C414.478 60.9632 414.756 60.1765 414.756 59.4066C414.756 58.6813 414.579 58.1122 414.221 57.6993C413.876 57.2753 413.312 57.0632 412.53 57.0632C411.772 57.0632 411.181 57.3031 410.756 57.783C410.344 58.2517 410.12 58.8822 410.086 59.6744H408.613C408.659 58.4246 409.038 57.4594 409.752 56.7787C410.466 56.098 411.387 55.7577 412.513 55.7577C413.663 55.7577 414.572 56.0757 415.242 56.7117C415.923 57.3478 416.263 58.2237 416.263 59.3396C416.263 60.2658 415.985 61.1696 415.426 62.0512C414.88 62.9216 414.254 63.6916 413.551 64.3611C412.848 65.0194 411.951 65.7894 410.856 66.671H416.614V67.9431H408.563V66.8551ZM418.376 61.9006C418.376 59.9812 418.689 58.486 419.313 57.4147C419.937 56.3323 421.032 55.7911 422.594 55.7911C424.145 55.7911 425.233 56.3323 425.858 57.4147C426.482 58.486 426.795 59.9812 426.795 61.9006C426.795 63.8534 426.482 65.3709 425.858 66.4534C425.233 67.5358 424.145 68.077 422.594 68.077C421.032 68.077 419.937 67.5358 419.313 66.4534C418.689 65.3709 418.376 63.8534 418.376 61.9006ZM425.289 61.9006C425.289 60.9298 425.222 60.1096 425.088 59.4401C424.965 58.7593 424.703 58.2126 424.301 57.7997C423.911 57.3868 423.342 57.1804 422.594 57.1804C421.835 57.1804 421.255 57.3868 420.853 57.7997C420.463 58.2126 420.2 58.7593 420.066 59.4401C419.944 60.1096 419.882 60.9298 419.882 61.9006C419.882 62.9049 419.944 63.7473 420.066 64.4281C420.2 65.1088 420.463 65.6555 420.853 66.0684C421.255 66.4813 421.835 66.6877 422.594 66.6877C423.342 66.6877 423.911 66.4813 424.301 66.0684C424.703 65.6555 424.965 65.1088 425.088 64.4281C425.222 63.7473 425.289 62.9049 425.289 61.9006ZM434.828 52.3096L430.242 70.9225H428.735L433.305 52.3096H434.828ZM444.563 57.2976H438.688V61.1139C438.944 60.7568 439.324 60.4666 439.826 60.2435C440.328 60.0092 440.869 59.892 441.45 59.892C442.376 59.892 443.129 60.0873 443.71 60.4778C444.289 60.8573 444.702 61.3538 444.948 61.9675C445.204 62.5701 445.333 63.2117 445.333 63.8924C445.333 64.6959 445.183 65.4156 444.881 66.0517C444.58 66.6877 444.116 67.1899 443.492 67.5581C442.878 67.9263 442.113 68.1105 441.199 68.1105C440.027 68.1105 439.078 67.8092 438.353 67.2066C437.627 66.604 437.187 65.8006 437.031 64.7963H438.521C438.665 65.4323 438.973 65.929 439.441 66.286C439.91 66.643 440.501 66.8216 441.216 66.8216C442.096 66.8216 442.761 66.5593 443.207 66.0349C443.653 65.4993 443.877 64.7963 443.877 63.9259C443.877 63.0555 443.653 62.386 443.207 61.9173C442.761 61.4374 442.103 61.1976 441.232 61.1976C440.64 61.1976 440.121 61.3427 439.676 61.6328C439.24 61.9118 438.922 62.2968 438.722 62.7877H437.282V55.9585H444.563V57.2976ZM447.357 61.9006C447.357 59.9812 447.669 58.486 448.295 57.4147C448.919 56.3323 450.012 55.7911 451.575 55.7911C453.125 55.7911 454.213 56.3323 454.839 57.4147C455.464 58.486 455.777 59.9812 455.777 61.9006C455.777 63.8534 455.464 65.3709 454.839 66.4534C454.213 67.5358 453.125 68.077 451.575 68.077C450.012 68.077 448.919 67.5358 448.295 66.4534C447.669 65.3709 447.357 63.8534 447.357 61.9006ZM454.27 61.9006C454.27 60.9298 454.203 60.1096 454.069 59.4401C453.946 58.7593 453.684 58.2126 453.283 57.7997C452.891 57.3868 452.322 57.1804 451.575 57.1804C450.816 57.1804 450.236 57.3868 449.834 57.7997C449.443 58.2126 449.182 58.7593 449.048 59.4401C448.924 60.1096 448.864 60.9298 448.864 61.9006C448.864 62.9049 448.924 63.7473 449.048 64.4281C449.182 65.1088 449.443 65.6555 449.834 66.0684C450.236 66.4813 450.816 66.6877 451.575 66.6877C452.322 66.6877 452.891 66.4813 453.283 66.0684C453.684 65.6555 453.946 65.1088 454.069 64.4281C454.203 63.7473 454.27 62.9049 454.27 61.9006ZM457.633 71.1903V71.0396C458.782 69.8568 459.652 68.4787 460.244 66.9053C460.847 65.3319 461.148 63.6804 461.148 61.9508C461.148 60.1765 460.83 58.4692 460.194 56.8289C459.568 55.1774 458.631 53.7658 457.382 52.5941V52.4435H458.972C460.144 53.5259 461.041 54.904 461.667 56.5778C462.303 58.2405 462.621 60.0314 462.621 61.9508C462.621 63.8255 462.32 65.5718 461.717 67.1899C461.125 68.8079 460.295 70.1413 459.223 71.1903H457.633Z" fill="black"/>
<path d="M505.03 45.0312H493.468C493.122 45.0312 492.928 45.3973 493.142 45.6473L498.923 52.3506C499.089 52.5426 499.407 52.5426 499.575 52.3506L505.356 45.6473C505.571 45.3973 505.377 45.0312 505.03 45.0312Z" fill="#BFBFBF"/>
<path d="M520.489 82.884H380.146V194.901H520.489V82.884Z" fill="white" stroke="#E8E8E8"/>
<path d="M504.398 119.58H397.531V158.206H504.398V119.58Z" fill="#F4F5F7"/>
<path opacity="0.8" d="M499.242 120.223H402.676C400.187 120.223 398.169 122.241 398.169 124.73V153.056C398.169 155.545 400.187 157.562 402.676 157.562H499.242C501.731 157.562 503.749 155.545 503.749 153.056V124.73C503.749 122.241 501.731 120.223 499.242 120.223Z" fill="white" stroke="#D9D9D9"/>
<path d="M436.7 144.15C435.948 144.15 435.268 144.021 434.661 143.764C434.063 143.506 433.589 143.135 433.239 142.651C432.889 142.167 432.709 141.595 432.698 140.936H435.016C435.047 141.379 435.201 141.729 435.48 141.987C435.768 142.244 436.159 142.373 436.654 142.373C437.159 142.373 437.555 142.255 437.844 142.018C438.132 141.771 438.276 141.451 438.276 141.06C438.276 140.741 438.178 140.478 437.983 140.272C437.787 140.066 437.54 139.906 437.241 139.793C436.953 139.669 436.551 139.535 436.036 139.391C435.335 139.185 434.764 138.984 434.321 138.789C433.888 138.583 433.512 138.279 433.193 137.877C432.884 137.465 432.729 136.919 432.729 136.239C432.729 135.601 432.889 135.044 433.208 134.571C433.528 134.097 433.976 133.736 434.553 133.489C435.129 133.232 435.789 133.103 436.53 133.103C437.643 133.103 438.544 133.376 439.234 133.922C439.935 134.457 440.321 135.209 440.393 136.177H438.013C437.993 135.807 437.833 135.503 437.535 135.266C437.246 135.019 436.86 134.895 436.376 134.895C435.953 134.895 435.614 135.003 435.356 135.22C435.109 135.436 434.985 135.75 434.985 136.162C434.985 136.45 435.078 136.692 435.263 136.888C435.459 137.074 435.696 137.228 435.974 137.352C436.262 137.465 436.664 137.599 437.179 137.753C437.88 137.959 438.451 138.165 438.894 138.371C439.337 138.577 439.718 138.886 440.038 139.298C440.357 139.711 440.516 140.251 440.516 140.921C440.516 141.498 440.367 142.033 440.068 142.528C439.77 143.022 439.332 143.419 438.755 143.717C438.178 144.006 437.493 144.15 436.7 144.15ZM444.911 137.259V141.4C444.911 141.688 444.978 141.899 445.112 142.033C445.256 142.157 445.493 142.219 445.823 142.219H446.827V144.042H445.467C443.644 144.042 442.732 143.156 442.732 141.384V137.259H441.713V135.482H442.732V133.365H444.911V135.482H446.827V137.259H444.911ZM447.826 139.731C447.826 138.866 447.996 138.098 448.336 137.429C448.686 136.759 449.155 136.244 449.742 135.884C450.339 135.523 451.004 135.343 451.735 135.343C452.374 135.343 452.93 135.472 453.404 135.729C453.888 135.987 454.274 136.311 454.562 136.703V135.482H456.741V144.042H454.562V142.79C454.284 143.192 453.898 143.527 453.404 143.795C452.92 144.052 452.358 144.181 451.72 144.181C450.998 144.181 450.339 143.995 449.742 143.625C449.155 143.254 448.686 142.734 448.336 142.064C447.996 141.384 447.826 140.607 447.826 139.731ZM454.562 139.762C454.562 139.237 454.459 138.789 454.253 138.418C454.047 138.037 453.769 137.748 453.419 137.553C453.069 137.347 452.693 137.244 452.291 137.244C451.889 137.244 451.519 137.341 451.179 137.537C450.839 137.733 450.561 138.021 450.344 138.402C450.138 138.773 450.035 139.216 450.035 139.731C450.035 140.246 450.138 140.699 450.344 141.091C450.561 141.472 450.839 141.765 451.179 141.971C451.529 142.177 451.9 142.28 452.291 142.28C452.693 142.28 453.069 142.183 453.419 141.987C453.769 141.781 454.047 141.492 454.253 141.122C454.459 140.741 454.562 140.287 454.562 139.762ZM461.017 136.811C461.295 136.358 461.656 136.002 462.098 135.745C462.552 135.487 463.067 135.359 463.644 135.359V137.63H463.072C462.392 137.63 461.877 137.789 461.527 138.109C461.187 138.428 461.017 138.984 461.017 139.777V144.042H458.854V135.482H461.017V136.811ZM467.618 137.259V141.4C467.618 141.688 467.685 141.899 467.819 142.033C467.963 142.157 468.2 142.219 468.53 142.219H469.534V144.042H468.174C466.351 144.042 465.44 143.156 465.44 141.384V137.259H464.42V135.482H465.44V133.365H467.618V135.482H469.534V137.259H467.618Z" fill="#262626"/>
<path d="M474.047 158.889C472.972 157.661 471.283 157.047 469.133 156.893C468.979 156.586 468.672 156.279 468.211 155.818C466.983 154.897 465.14 154.436 462.683 154.282C462.529 153.975 462.068 153.668 461.608 153.361C460.533 152.593 459.151 152.132 457.308 151.979V147.525C457.308 147.064 457.308 145.221 456.079 143.839C455.465 143.225 454.39 142.457 452.701 142.457C450.858 142.457 449.783 143.225 449.168 143.839C447.94 145.068 447.94 146.757 447.94 147.218V163.189C446.865 162.114 445.636 160.886 445.022 160.425C443.64 159.35 441.029 159.964 439.493 161.039C438.111 162.114 437.497 163.65 438.111 165.339C439.186 168.104 441.643 170.868 442.258 171.636C442.872 172.711 445.329 177.318 447.633 179.007C448.861 179.929 449.629 183.615 449.936 185.918L450.09 187.147H471.129V181.618C471.436 180.85 472.051 179.161 472.818 178.393C474.508 176.704 475.122 172.25 475.122 171.022V161.654H475.276C475.122 161.193 475.122 160.118 474.047 158.889Z" fill="white"/>
<path d="M475.122 161.347C475.122 161.193 474.968 159.964 474.047 158.889C472.972 157.661 471.283 157.047 469.133 156.893C468.979 156.586 468.672 156.279 468.211 155.818C466.983 154.897 465.14 154.436 462.683 154.282C462.529 153.975 462.068 153.668 461.608 153.361C460.533 152.593 459.151 152.132 457.308 151.979V147.525C457.308 147.064 457.308 145.221 456.079 143.839C455.465 143.225 454.39 142.457 452.701 142.457C450.858 142.457 449.783 143.225 449.168 143.839C447.94 145.068 447.94 146.757 447.94 147.218V163.189C446.865 162.114 445.636 160.886 445.022 160.425C443.64 159.35 441.029 159.964 439.493 161.039C438.111 162.114 437.497 163.65 438.111 165.339C439.186 168.104 441.643 170.868 442.258 171.636C442.872 172.711 445.329 177.318 447.633 179.007C448.861 179.929 449.629 183.615 449.936 185.918L450.09 187.147H471.129V181.618C471.436 180.85 472.051 179.161 472.818 178.393C474.508 176.704 475.122 172.25 475.122 171.022V161.347ZM472.358 170.714C472.358 172.404 471.743 175.475 470.822 176.243C469.44 177.625 468.518 180.543 468.365 180.697V180.85V184.075H452.547C452.393 183.461 452.393 182.693 452.086 181.772C451.472 179.161 450.551 177.318 449.322 176.397C447.633 175.168 445.483 171.175 444.715 169.793L444.561 169.639L444.408 169.486C444.408 169.486 441.643 166.568 440.722 164.111C440.568 163.804 440.568 163.497 441.029 163.036C441.797 162.422 443.179 162.268 443.486 162.268C444.254 162.882 446.865 165.647 448.401 167.336L450.858 169.947V147.064C450.858 146.911 450.858 146.143 451.318 145.682C451.626 145.375 452.086 145.221 452.854 145.221C453.468 145.221 453.929 145.375 454.236 145.682C454.697 146.143 454.697 147.064 454.697 147.371V153.361V161.807H457.461V154.743C459.918 155.05 460.686 156.125 460.84 156.279L460.993 156.586V161.807H463.758V157.2C466.061 157.354 466.983 158.122 467.29 158.429V163.804H470.054V159.657C472.511 159.964 472.818 161.347 472.972 161.5V170.561H472.358V170.714Z" fill="black"/>
<path d="M520.489 194.9H380.146V273.441H520.489V194.9Z" fill="white" stroke="#E8E8E8"/>
<path d="M503.111 214.859H396.244V253.485H503.111V214.859Z" fill="#F4F5F7"/>
<path opacity="0.8" d="M497.966 215.502H401.4C398.911 215.502 396.893 217.52 396.893 220.009V248.335C396.893 250.824 398.911 252.841 401.4 252.841H497.966C500.455 252.841 502.472 250.824 502.472 248.335V220.009C502.472 217.52 500.455 215.502 497.966 215.502Z" fill="white" stroke="#D9D9D9"/>
<path d="M435.402 239.429C434.65 239.429 433.97 239.3 433.362 239.043C432.765 238.785 432.291 238.415 431.941 237.93C431.591 237.446 431.41 236.875 431.4 236.215H433.718C433.749 236.658 433.903 237.009 434.181 237.266C434.47 237.524 434.861 237.652 435.355 237.652C435.86 237.652 436.257 237.534 436.545 237.297C436.834 237.05 436.978 236.73 436.978 236.339C436.978 236.02 436.88 235.757 436.684 235.551C436.489 235.345 436.241 235.185 435.943 235.072C435.654 234.948 435.253 234.815 434.737 234.67C434.037 234.464 433.465 234.264 433.022 234.068C432.59 233.862 432.214 233.558 431.895 233.156C431.586 232.744 431.431 232.198 431.431 231.518C431.431 230.88 431.591 230.324 431.91 229.85C432.229 229.376 432.677 229.015 433.254 228.768C433.831 228.511 434.49 228.382 435.232 228.382C436.344 228.382 437.246 228.655 437.936 229.201C438.636 229.736 439.022 230.488 439.095 231.457H436.715C436.695 231.086 436.535 230.782 436.236 230.545C435.948 230.298 435.562 230.174 435.077 230.174C434.655 230.174 434.315 230.282 434.058 230.499C433.81 230.715 433.687 231.029 433.687 231.441C433.687 231.73 433.78 231.972 433.965 232.167C434.161 232.353 434.398 232.507 434.676 232.631C434.964 232.744 435.366 232.878 435.881 233.033C436.581 233.239 437.153 233.445 437.596 233.651C438.039 233.857 438.42 234.166 438.739 234.578C439.058 234.99 439.218 235.53 439.218 236.2C439.218 236.777 439.069 237.312 438.77 237.807C438.471 238.301 438.034 238.698 437.457 238.997C436.88 239.285 436.195 239.429 435.402 239.429ZM443.613 232.538V236.679C443.613 236.967 443.68 237.179 443.813 237.312C443.958 237.436 444.195 237.498 444.524 237.498H445.528V239.321H444.169C442.346 239.321 441.434 238.435 441.434 236.664V232.538H440.414V230.761H441.434V228.645H443.613V230.761H445.528V232.538H443.613ZM446.528 235.01C446.528 234.145 446.698 233.378 447.037 232.708C447.388 232.039 447.856 231.524 448.443 231.163C449.041 230.803 449.705 230.622 450.437 230.622C451.075 230.622 451.631 230.751 452.105 231.009C452.589 231.266 452.976 231.591 453.264 231.982V230.761H455.443V239.321H453.264V238.07C452.986 238.471 452.6 238.806 452.105 239.074C451.621 239.331 451.06 239.46 450.421 239.46C449.7 239.46 449.041 239.275 448.443 238.904C447.856 238.533 447.388 238.013 447.037 237.343C446.698 236.664 446.528 235.886 446.528 235.01ZM453.264 235.041C453.264 234.516 453.161 234.068 452.955 233.697C452.749 233.316 452.471 233.027 452.121 232.832C451.771 232.626 451.395 232.523 450.993 232.523C450.591 232.523 450.22 232.621 449.88 232.816C449.54 233.012 449.262 233.3 449.046 233.682C448.84 234.052 448.737 234.495 448.737 235.01C448.737 235.525 448.84 235.979 449.046 236.37C449.262 236.751 449.54 237.045 449.88 237.251C450.231 237.457 450.601 237.56 450.993 237.56C451.395 237.56 451.771 237.462 452.121 237.266C452.471 237.06 452.749 236.772 452.955 236.401C453.161 236.02 453.264 235.567 453.264 235.041ZM459.719 232.09C459.997 231.637 460.357 231.282 460.8 231.024C461.253 230.767 461.768 230.638 462.345 230.638V232.909H461.774C461.094 232.909 460.579 233.069 460.228 233.388C459.889 233.707 459.719 234.264 459.719 235.057V239.321H457.556V230.761H459.719V232.09ZM466.32 232.538V236.679C466.32 236.967 466.387 237.179 466.521 237.312C466.665 237.436 466.902 237.498 467.231 237.498H468.236V239.321H466.876C465.053 239.321 464.141 238.435 464.141 236.664V232.538H463.122V230.761H464.141V228.645H466.32V230.761H468.236V232.538H466.32Z" fill="#262626"/>
<path d="M520.489 351.982H380.146V420.223H520.489V351.982Z" fill="white" stroke="#E8E8E8"/>
<path d="M503.111 366.788H396.244V405.415H503.111V366.788Z" fill="#F4F5F7"/>
<path opacity="0.8" d="M497.966 367.435H401.4C398.911 367.435 396.893 369.452 396.893 371.941V400.267C396.893 402.756 398.911 404.774 401.4 404.774H497.966C500.455 404.774 502.472 402.756 502.472 400.267V371.941C502.472 369.452 500.455 367.435 497.966 367.435Z" fill="white" stroke="#D9D9D9"/>
<path d="M435.402 391.362C434.65 391.362 433.97 391.233 433.362 390.975C432.765 390.718 432.291 390.347 431.941 389.863C431.591 389.379 431.41 388.807 431.4 388.148H433.718C433.749 388.591 433.903 388.941 434.181 389.199C434.47 389.456 434.861 389.585 435.355 389.585C435.86 389.585 436.257 389.466 436.545 389.229C436.834 388.982 436.978 388.663 436.978 388.272C436.978 387.952 436.88 387.69 436.684 387.484C436.489 387.278 436.241 387.118 435.943 387.005C435.654 386.881 435.253 386.747 434.737 386.603C434.037 386.397 433.465 386.196 433.022 386C432.59 385.794 432.214 385.49 431.895 385.089C431.586 384.677 431.431 384.131 431.431 383.451C431.431 382.812 431.591 382.256 431.91 381.782C432.229 381.308 432.677 380.948 433.254 380.701C433.831 380.443 434.49 380.314 435.232 380.314C436.344 380.314 437.246 380.587 437.936 381.133C438.636 381.669 439.022 382.421 439.095 383.389H436.715C436.695 383.018 436.535 382.714 436.236 382.478C435.948 382.23 435.562 382.107 435.077 382.107C434.655 382.107 434.315 382.215 434.058 382.431C433.81 382.648 433.687 382.962 433.687 383.374C433.687 383.662 433.78 383.904 433.965 384.1C434.161 384.285 434.398 384.44 434.676 384.563C434.964 384.677 435.366 384.811 435.881 384.965C436.581 385.171 437.153 385.377 437.596 385.583C438.039 385.789 438.42 386.098 438.739 386.51C439.058 386.922 439.218 387.463 439.218 388.132C439.218 388.709 439.069 389.245 438.77 389.739C438.471 390.234 438.034 390.63 437.457 390.929C436.88 391.217 436.195 391.362 435.402 391.362ZM443.613 384.471V388.611C443.613 388.9 443.68 389.111 443.813 389.245C443.958 389.369 444.195 389.43 444.524 389.43H445.528V391.254H444.169C442.346 391.254 441.434 390.368 441.434 388.596V384.471H440.414V382.694H441.434V380.577H443.613V382.694H445.528V384.471H443.613ZM446.528 386.943C446.528 386.078 446.698 385.31 447.037 384.641C447.388 383.971 447.856 383.456 448.443 383.096C449.041 382.735 449.705 382.555 450.437 382.555C451.075 382.555 451.631 382.684 452.105 382.941C452.589 383.199 452.976 383.523 453.264 383.914V382.694H455.443V391.254H453.264V390.002C452.986 390.404 452.6 390.739 452.105 391.006C451.621 391.264 451.06 391.393 450.421 391.393C449.7 391.393 449.041 391.207 448.443 390.836C447.856 390.466 447.388 389.945 447.037 389.276C446.698 388.596 446.528 387.818 446.528 386.943ZM453.264 386.974C453.264 386.448 453.161 386 452.955 385.629C452.749 385.248 452.471 384.96 452.121 384.764C451.771 384.558 451.395 384.455 450.993 384.455C450.591 384.455 450.22 384.553 449.88 384.749C449.54 384.944 449.262 385.233 449.046 385.614C448.84 385.985 448.737 386.428 448.737 386.943C448.737 387.458 448.84 387.911 449.046 388.302C449.262 388.684 449.54 388.977 449.88 389.183C450.231 389.389 450.601 389.492 450.993 389.492C451.395 389.492 451.771 389.394 452.121 389.199C452.471 388.993 452.749 388.704 452.955 388.333C453.161 387.952 453.264 387.499 453.264 386.974ZM459.719 384.023C459.997 383.569 460.357 383.214 460.8 382.957C461.253 382.699 461.768 382.57 462.345 382.57V384.841H461.774C461.094 384.841 460.579 385.001 460.228 385.32C459.889 385.64 459.719 386.196 459.719 386.989V391.254H457.556V382.694H459.719V384.023ZM466.32 384.471V388.611C466.32 388.9 466.387 389.111 466.521 389.245C466.665 389.369 466.902 389.43 467.231 389.43H468.236V391.254H466.876C465.053 391.254 464.141 390.368 464.141 388.596V384.471H463.122V382.694H464.141V380.577H466.32V382.694H468.236V384.471H466.32Z" fill="#262626"/>
<path d="M520.489 420.223H380.146V498.764H520.489V420.223Z" fill="white" stroke="#E8E8E8"/>
<path d="M407.5 448.485C407.5 447.336 407.757 446.309 408.27 445.405C408.794 444.49 409.504 443.782 410.396 443.28C411.3 442.766 412.31 442.51 413.426 442.51C414.731 442.51 415.875 442.845 416.857 443.514C417.84 444.184 418.526 445.109 418.916 446.293H416.221C415.953 445.735 415.573 445.317 415.083 445.037C414.603 444.758 414.045 444.619 413.409 444.619C412.728 444.619 412.12 444.781 411.585 445.104C411.061 445.417 410.647 445.863 410.346 446.443C410.056 447.024 409.911 447.704 409.911 448.485C409.911 449.255 410.056 449.936 410.346 450.527C410.647 451.108 411.061 451.56 411.585 451.883C412.12 452.196 412.728 452.352 413.409 452.352C414.045 452.352 414.603 452.213 415.083 451.933C415.573 451.644 415.953 451.219 416.221 450.661H418.916C418.526 451.855 417.84 452.787 416.857 453.457C415.886 454.114 414.743 454.444 413.426 454.444C412.31 454.444 411.3 454.193 410.396 453.691C409.504 453.177 408.794 452.469 408.27 451.565C407.757 450.661 407.5 449.635 407.5 448.485ZM425.034 454.494C424.142 454.494 423.339 454.299 422.624 453.908C421.911 453.507 421.347 452.943 420.934 452.218C420.532 451.493 420.331 450.656 420.331 449.707C420.331 448.758 420.538 447.921 420.95 447.196C421.375 446.472 421.949 445.913 422.674 445.523C423.4 445.121 424.209 444.92 425.101 444.92C425.995 444.92 426.803 445.121 427.528 445.523C428.255 445.913 428.824 446.472 429.236 447.196C429.661 447.921 429.872 448.758 429.872 449.707C429.872 450.656 429.654 451.493 429.219 452.218C428.795 452.943 428.215 453.507 427.478 453.908C426.753 454.299 425.938 454.494 425.034 454.494ZM425.034 452.452C425.459 452.452 425.855 452.352 426.223 452.151C426.603 451.939 426.904 451.627 427.127 451.214C427.351 450.8 427.461 450.298 427.461 449.707C427.461 448.825 427.227 448.151 426.758 447.682C426.301 447.202 425.737 446.962 425.068 446.962C424.398 446.962 423.836 447.202 423.377 447.682C422.932 448.151 422.708 448.825 422.708 449.707C422.708 450.589 422.925 451.269 423.361 451.749C423.807 452.218 424.365 452.452 425.034 452.452ZM433.935 441.957V454.344H431.592V441.957H433.935ZM438.594 441.957V454.344H436.25V441.957H438.594ZM449.529 449.506C449.529 449.841 449.506 450.142 449.462 450.41H442.683C442.738 451.08 442.973 451.604 443.386 451.984C443.798 452.363 444.307 452.553 444.909 452.553C445.779 452.553 446.399 452.179 446.767 451.431H449.295C449.027 452.324 448.513 453.06 447.755 453.641C446.995 454.21 446.064 454.494 444.959 454.494C444.066 454.494 443.262 454.299 442.549 453.908C441.846 453.507 441.294 452.943 440.892 452.218C440.501 451.493 440.306 450.656 440.306 449.707C440.306 448.748 440.501 447.905 440.892 447.18C441.282 446.455 441.829 445.896 442.532 445.506C443.235 445.116 444.044 444.92 444.959 444.92C445.84 444.92 446.627 445.109 447.319 445.489C448.022 445.869 448.563 446.41 448.943 447.113C449.333 447.804 449.529 448.602 449.529 449.506ZM447.102 448.837C447.09 448.234 446.873 447.754 446.449 447.397C446.024 447.029 445.505 446.845 444.892 446.845C444.312 446.845 443.821 447.024 443.419 447.381C443.028 447.727 442.788 448.212 442.7 448.837H447.102ZM450.636 449.707C450.636 448.748 450.832 447.911 451.222 447.196C451.613 446.472 452.154 445.913 452.846 445.523C453.538 445.121 454.33 444.92 455.222 444.92C456.372 444.92 457.321 445.21 458.068 445.79C458.828 446.36 459.335 447.163 459.591 448.201H457.064C456.93 447.799 456.702 447.486 456.377 447.263C456.066 447.029 455.674 446.912 455.206 446.912C454.536 446.912 454.007 447.158 453.616 447.648C453.225 448.129 453.03 448.815 453.03 449.707C453.03 450.589 453.225 451.275 453.616 451.766C454.007 452.246 454.536 452.486 455.206 452.486C456.155 452.486 456.774 452.062 457.064 451.214H459.591C459.335 452.218 458.828 453.016 458.068 453.607C457.31 454.198 456.361 454.494 455.222 454.494C454.33 454.494 453.538 454.299 452.846 453.908C452.154 453.507 451.613 452.949 451.222 452.235C450.832 451.51 450.636 450.666 450.636 449.707ZM464.037 446.996V451.481C464.037 451.794 464.109 452.022 464.255 452.168C464.41 452.302 464.667 452.369 465.025 452.369H466.113V454.344H464.64C462.664 454.344 461.677 453.384 461.677 451.465V446.996H460.572V445.071H461.677V442.778H464.037V445.071H466.113V446.996H464.037ZM468.986 443.966C468.573 443.966 468.227 443.837 467.949 443.581C467.681 443.313 467.547 442.984 467.547 442.593C467.547 442.203 467.681 441.879 467.949 441.623C468.227 441.355 468.573 441.221 468.986 441.221C469.398 441.221 469.74 441.355 470.007 441.623C470.285 441.879 470.426 442.203 470.426 442.593C470.426 442.984 470.285 443.313 470.007 443.581C469.74 443.837 469.398 443.966 468.986 443.966ZM470.141 445.071V454.344H467.798V445.071H470.141ZM477.595 444.937C478.7 444.937 479.592 445.288 480.273 445.991C480.953 446.683 481.294 447.654 481.294 448.904V454.344H478.951V449.222C478.951 448.485 478.767 447.921 478.398 447.531C478.03 447.13 477.528 446.929 476.892 446.929C476.244 446.929 475.731 447.13 475.352 447.531C474.984 447.921 474.8 448.485 474.8 449.222V454.344H472.456V445.071H474.8V446.226C475.111 445.824 475.508 445.511 475.988 445.288C476.479 445.054 477.014 444.937 477.595 444.937ZM487.155 444.92C487.846 444.92 488.454 445.059 488.979 445.339C489.504 445.606 489.917 445.958 490.218 446.393V445.071H492.578V454.411C492.578 455.269 492.404 456.034 492.059 456.704C491.713 457.385 491.194 457.92 490.503 458.311C489.81 458.712 488.973 458.913 487.992 458.913C486.675 458.913 485.592 458.607 484.745 457.993C483.908 457.378 483.433 456.542 483.322 455.482H485.649C485.771 455.905 486.034 456.24 486.435 456.486C486.847 456.742 487.344 456.871 487.925 456.871C488.605 456.871 489.157 456.665 489.582 456.252C490.006 455.85 490.218 455.236 490.218 454.411V452.971C489.917 453.406 489.498 453.769 488.963 454.059C488.437 454.349 487.835 454.494 487.155 454.494C486.373 454.494 485.659 454.293 485.013 453.892C484.365 453.49 483.851 452.926 483.473 452.201C483.104 451.465 482.92 450.623 482.92 449.674C482.92 448.736 483.104 447.905 483.473 447.18C483.851 446.455 484.36 445.896 484.996 445.506C485.642 445.116 486.362 444.92 487.155 444.92ZM490.218 449.707C490.218 449.138 490.106 448.653 489.883 448.251C489.659 447.838 489.358 447.526 488.979 447.314C488.6 447.091 488.193 446.979 487.758 446.979C487.322 446.979 486.921 447.084 486.552 447.297C486.184 447.509 485.883 447.821 485.649 448.234C485.425 448.636 485.314 449.116 485.314 449.674C485.314 450.231 485.425 450.723 485.649 451.147C485.883 451.56 486.184 451.878 486.552 452.101C486.931 452.323 487.333 452.436 487.758 452.436C488.193 452.436 488.6 452.33 488.979 452.117C489.358 451.895 489.659 451.582 489.883 451.18C490.106 450.767 490.218 450.276 490.218 449.707ZM430.604 472.85C430.604 471.912 430.788 471.081 431.157 470.356C431.537 469.631 432.049 469.072 432.697 468.682C433.344 468.292 434.064 468.096 434.856 468.096C435.458 468.096 436.033 468.23 436.58 468.498C437.127 468.754 437.562 469.1 437.885 469.536V465.133H440.262V477.52H437.885V476.147C437.596 476.604 437.188 476.972 436.664 477.252C436.14 477.531 435.531 477.67 434.839 477.67C434.058 477.67 433.344 477.469 432.697 477.068C432.049 476.666 431.537 476.102 431.157 475.377C430.788 474.641 430.604 473.799 430.604 472.85ZM437.902 472.883C437.902 472.314 437.79 471.829 437.567 471.427C437.345 471.014 437.043 470.702 436.664 470.49C436.284 470.267 435.877 470.155 435.442 470.155C435.007 470.155 434.605 470.26 434.237 470.473C433.868 470.685 433.567 470.997 433.333 471.41C433.11 471.812 432.998 472.292 432.998 472.85C432.998 473.407 433.11 473.899 433.333 474.323C433.567 474.736 433.868 475.054 434.237 475.277C434.616 475.499 435.018 475.611 435.442 475.611C435.877 475.611 436.284 475.506 436.664 475.293C437.043 475.071 437.345 474.758 437.567 474.356C437.79 473.943 437.902 473.452 437.902 472.883ZM441.949 472.85C441.949 471.912 442.133 471.081 442.501 470.356C442.88 469.631 443.388 469.072 444.025 468.682C444.671 468.292 445.391 468.096 446.184 468.096C446.875 468.096 447.478 468.235 447.991 468.515C448.516 468.794 448.934 469.145 449.247 469.569V468.247H451.607V477.52H449.247V476.164C448.946 476.599 448.527 476.962 447.991 477.252C447.466 477.531 446.858 477.67 446.167 477.67C445.385 477.67 444.671 477.469 444.025 477.068C443.388 476.666 442.88 476.102 442.501 475.377C442.133 474.641 441.949 473.799 441.949 472.85ZM449.247 472.883C449.247 472.314 449.135 471.829 448.912 471.427C448.688 471.014 448.387 470.702 448.008 470.49C447.628 470.267 447.222 470.155 446.786 470.155C446.351 470.155 445.949 470.26 445.581 470.473C445.213 470.685 444.912 470.997 444.677 471.41C444.453 471.812 444.343 472.292 444.343 472.85C444.343 473.407 444.453 473.899 444.677 474.323C444.912 474.736 445.213 475.054 445.581 475.277C445.96 475.499 446.361 475.611 446.786 475.611C447.222 475.611 447.628 475.506 448.008 475.293C448.387 475.071 448.688 474.758 448.912 474.356C449.135 473.943 449.247 473.452 449.247 472.883ZM456.623 470.172V474.657C456.623 474.97 456.697 475.198 456.841 475.344C456.998 475.478 457.254 475.545 457.611 475.545H458.699V477.52H457.226C455.251 477.52 454.263 476.56 454.263 474.641V470.172H453.158V468.247H454.263V465.954H456.623V468.247H458.699V470.172H456.623ZM459.782 472.85C459.782 471.912 459.966 471.081 460.334 470.356C460.714 469.631 461.221 469.072 461.857 468.682C462.505 468.292 463.225 468.096 464.016 468.096C464.709 468.096 465.312 468.235 465.824 468.515C466.349 468.794 466.768 469.145 467.079 469.569V468.247H469.44V477.52H467.079V476.164C466.778 476.599 466.36 476.962 465.824 477.252C465.3 477.531 464.692 477.67 464 477.67C463.219 477.67 462.505 477.469 461.857 477.068C461.221 476.666 460.714 476.102 460.334 475.377C459.966 474.641 459.782 473.799 459.782 472.85ZM467.079 472.883C467.079 472.314 466.969 471.829 466.745 471.427C466.522 471.014 466.221 470.702 465.841 470.49C465.462 470.267 465.054 470.155 464.619 470.155C464.184 470.155 463.782 470.26 463.414 470.473C463.046 470.685 462.744 470.997 462.51 471.41C462.287 471.812 462.175 472.292 462.175 472.85C462.175 473.407 462.287 473.899 462.51 474.323C462.744 474.736 463.046 475.054 463.414 475.277C463.794 475.499 464.195 475.611 464.619 475.611C465.054 475.611 465.462 475.506 465.841 475.293C466.221 475.071 466.522 474.758 466.745 474.356C466.969 473.943 467.079 473.452 467.079 472.883Z" fill="#BFBFBF"/>
<path d="M381.438 14.6431H167.833V82.8834H381.438V14.6431Z" fill="#FAFAFA" stroke="#E8E8E8"/>
<path d="M195.223 55.2022L192.445 50.4318H190.604V55.2022H189.081V43.5356H192.847C193.729 43.5356 194.47 43.6863 195.073 43.9876C195.687 44.2889 196.144 44.6961 196.445 45.2095C196.747 45.7228 196.897 46.3086 196.897 46.967C196.897 47.7704 196.663 48.4789 196.194 49.0927C195.737 49.7065 195.046 50.1138 194.119 50.3146L197.048 55.2022H195.223ZM190.604 49.2099H192.847C193.673 49.2099 194.293 49.009 194.705 48.6073C195.118 48.1944 195.324 47.6477 195.324 46.967C195.324 46.2752 195.118 45.7395 194.705 45.3601C194.303 44.9807 193.684 44.791 192.847 44.791H190.604V49.2099ZM198.696 50.5824C198.696 49.6451 198.885 48.8249 199.265 48.1219C199.644 47.4077 200.163 46.8553 200.822 46.4648C201.491 46.0743 202.233 45.879 203.048 45.879C203.851 45.879 204.548 46.0519 205.14 46.3979C205.731 46.7438 206.172 47.179 206.463 47.7035V46.0296H208.002V55.2022H206.463V53.4949C206.161 54.0305 205.709 54.4769 205.107 54.8339C204.514 55.1799 203.823 55.3528 203.031 55.3528C202.216 55.3528 201.48 55.1519 200.822 54.7502C200.163 54.3485 199.644 53.785 199.265 53.0597C198.885 52.3344 198.696 51.5086 198.696 50.5824ZM206.463 50.5992C206.463 49.9074 206.322 49.3048 206.044 48.7914C205.765 48.2781 205.385 47.8876 204.906 47.6198C204.437 47.3408 203.918 47.2013 203.349 47.2013C202.78 47.2013 202.261 47.3352 201.793 47.603C201.324 47.8708 200.949 48.2614 200.671 48.7747C200.392 49.288 200.253 49.8906 200.253 50.5824C200.253 51.2854 200.392 51.8992 200.671 52.4236C200.949 52.937 201.324 53.333 201.793 53.612C202.261 53.8798 202.78 54.0138 203.349 54.0138C203.918 54.0138 204.437 53.8798 204.906 53.612C205.385 53.333 205.765 52.937 206.044 52.4236C206.322 51.8992 206.463 51.291 206.463 50.5992ZM215.045 45.8623C216.16 45.8623 217.064 46.2026 217.757 46.8833C218.448 47.5528 218.795 48.5236 218.795 49.7957V55.2022H217.288V50.0133C217.288 49.0983 217.059 48.4009 216.602 47.921C216.144 47.4301 215.519 47.1846 214.727 47.1846C213.924 47.1846 213.281 47.4356 212.802 47.9378C212.334 48.4399 212.099 49.1709 212.099 50.1305V55.2022H210.576V46.0296H212.099V47.3352C212.401 46.8665 212.808 46.5038 213.321 46.2472C213.845 45.9906 214.42 45.8623 215.045 45.8623ZM226.404 55.2022L222.805 51.1515V55.2022H221.282V42.8159H222.805V50.097L226.337 46.0296H228.463L224.145 50.5992L228.48 55.2022H226.404ZM230.684 44.5399C230.393 44.5399 230.148 44.4395 229.948 44.2386C229.747 44.0378 229.646 43.7923 229.646 43.5022C229.646 43.2121 229.747 42.9665 229.948 42.7657C230.148 42.5648 230.393 42.4644 230.684 42.4644C230.962 42.4644 231.196 42.5648 231.387 42.7657C231.588 42.9665 231.688 43.2121 231.688 43.5022C231.688 43.7923 231.588 44.0378 231.387 44.2386C231.196 44.4395 230.962 44.5399 230.684 44.5399ZM231.42 46.0296V55.2022H229.897V46.0296H231.42ZM238.485 45.8623C239.6 45.8623 240.504 46.2026 241.197 46.8833C241.888 47.5528 242.235 48.5236 242.235 49.7957V55.2022H240.728V50.0133C240.728 49.0983 240.499 48.4009 240.042 47.921C239.584 47.4301 238.959 47.1846 238.167 47.1846C237.364 47.1846 236.721 47.4356 236.242 47.9378C235.774 48.4399 235.539 49.1709 235.539 50.1305V55.2022H234.016V46.0296H235.539V47.3352C235.841 46.8665 236.248 46.5038 236.761 46.2472C237.285 45.9906 237.86 45.8623 238.485 45.8623ZM248.505 45.879C249.298 45.879 249.99 46.0519 250.581 46.3979C251.183 46.7438 251.63 47.179 251.92 47.7035V46.0296H253.46V55.403C253.46 56.2399 253.282 56.9819 252.924 57.6292C252.567 58.2875 252.054 58.8009 251.384 59.1691C250.726 59.5374 249.956 59.7215 249.074 59.7215C247.869 59.7215 246.865 59.4369 246.061 58.8678C245.258 58.2987 244.784 57.5232 244.639 56.5412H246.145C246.312 57.0991 246.659 57.5455 247.183 57.8803C247.708 58.2262 248.338 58.3992 249.074 58.3992C249.911 58.3992 250.592 58.1369 251.116 57.6125C251.652 57.088 251.92 56.3516 251.92 55.403V53.4781C251.618 54.0138 251.173 54.4601 250.581 54.8172C249.99 55.1742 249.298 55.3528 248.505 55.3528C247.691 55.3528 246.948 55.1519 246.279 54.7502C245.621 54.3485 245.102 53.785 244.722 53.0597C244.344 52.3344 244.153 51.5086 244.153 50.5824C244.153 49.6451 244.344 48.8249 244.722 48.1219C245.102 47.4077 245.621 46.8553 246.279 46.4648C246.948 46.0743 247.691 45.879 248.505 45.879ZM251.92 50.5992C251.92 49.9074 251.781 49.3048 251.501 48.7914C251.223 48.2781 250.843 47.8876 250.363 47.6198C249.894 47.3408 249.375 47.2013 248.806 47.2013C248.237 47.2013 247.718 47.3352 247.25 47.603C246.781 47.8708 246.408 48.2614 246.128 48.7747C245.85 49.288 245.71 49.8906 245.71 50.5824C245.71 51.2854 245.85 51.8992 246.128 52.4236C246.408 52.937 246.781 53.333 247.25 53.612C247.718 53.8798 248.237 54.0138 248.806 54.0138C249.375 54.0138 249.894 53.8798 250.363 53.612C250.843 53.333 251.223 52.937 251.501 52.4236C251.781 51.8992 251.92 51.291 251.92 50.5992ZM264.128 43.5356C265.4 43.5356 266.5 43.7755 267.426 44.2554C268.363 44.7241 269.078 45.3991 269.568 46.2807C270.07 47.1623 270.321 48.2001 270.321 49.394C270.321 50.588 270.07 51.6257 269.568 52.5073C269.078 53.3777 268.363 54.0472 267.426 54.5159C266.5 54.9734 265.4 55.2022 264.128 55.2022H260.496V43.5356H264.128ZM264.128 53.9468C265.635 53.9468 266.784 53.5506 267.576 52.7584C268.368 51.955 268.765 50.8335 268.765 49.394C268.765 47.9433 268.363 46.8108 267.56 45.9962C266.768 45.1815 265.623 44.7743 264.128 44.7743H262.019V53.9468H264.128ZM273.118 44.5399C272.827 44.5399 272.582 44.4395 272.381 44.2386C272.181 44.0378 272.08 43.7923 272.08 43.5022C272.08 43.2121 272.181 42.9665 272.381 42.7657C272.582 42.5648 272.827 42.4644 273.118 42.4644C273.396 42.4644 273.63 42.5648 273.821 42.7657C274.022 42.9665 274.122 43.2121 274.122 43.5022C274.122 43.7923 274.022 44.0378 273.821 44.2386C273.63 44.4395 273.396 44.5399 273.118 44.5399ZM273.854 46.0296V55.2022H272.331V46.0296H273.854ZM280.183 47.285H278.258V55.2022H276.735V47.285H275.546V46.0296H276.735V45.3768C276.735 44.3503 276.996 43.6026 277.521 43.1339C278.057 42.6541 278.911 42.4142 280.082 42.4142V43.6863C279.413 43.6863 278.938 43.8202 278.66 44.088C278.392 44.3446 278.258 44.7743 278.258 45.3768V46.0296H280.183V47.285ZM285.691 47.285H283.766V55.2022H282.243V47.285H281.054V46.0296H282.243V45.3768C282.243 44.3503 282.505 43.6026 283.029 43.1339C283.565 42.6541 284.419 42.4142 285.59 42.4142V43.6863C284.921 43.6863 284.447 43.8202 284.168 44.088C283.9 44.3446 283.766 44.7743 283.766 45.3768V46.0296H285.691V47.285ZM288.253 44.5399C287.963 44.5399 287.717 44.4395 287.517 44.2386C287.316 44.0378 287.215 43.7923 287.215 43.5022C287.215 43.2121 287.316 42.9665 287.517 42.7657C287.717 42.5648 287.963 42.4644 288.253 42.4644C288.533 42.4644 288.767 42.5648 288.956 42.7657C289.157 42.9665 289.257 43.2121 289.257 43.5022C289.257 43.7923 289.157 44.0378 288.956 44.2386C288.767 44.4395 288.533 44.5399 288.253 44.5399ZM288.99 46.0296V55.2022H287.466V46.0296H288.99ZM291.017 50.5992C291.017 49.6506 291.207 48.8249 291.587 48.1219C291.965 47.4077 292.49 46.8553 293.16 46.4648C293.84 46.0743 294.616 45.879 295.487 45.879C296.613 45.879 297.539 46.1523 298.265 46.6992C299.002 47.246 299.487 48.0047 299.721 48.9756H298.081C297.924 48.4177 297.617 47.9768 297.16 47.6532C296.714 47.3297 296.156 47.1678 295.487 47.1678C294.616 47.1678 293.913 47.4691 293.378 48.0717C292.842 48.6631 292.574 49.5056 292.574 50.5992C292.574 51.7039 292.842 52.5575 293.378 53.1601C293.913 53.7627 294.616 54.064 295.487 54.064C296.156 54.064 296.714 53.9078 297.16 53.5953C297.606 53.2828 297.914 52.8365 298.081 52.2562H299.721C299.475 53.1936 298.985 53.9468 298.248 54.5159C297.512 55.0738 296.591 55.3528 295.487 55.3528C294.616 55.3528 293.84 55.1575 293.16 54.767C292.49 54.3765 291.965 53.8241 291.587 53.1099C291.207 52.3957 291.017 51.5588 291.017 50.5992ZM309.888 46.0296V55.2022H308.365V53.8464C308.075 54.315 307.667 54.6833 307.143 54.9511C306.629 55.2077 306.06 55.3361 305.436 55.3361C304.721 55.3361 304.08 55.191 303.511 54.9009C302.942 54.5996 302.49 54.1532 302.155 53.5618C301.832 52.9705 301.669 52.2507 301.669 51.4026V46.0296H303.176V51.2017C303.176 52.1056 303.405 52.8031 303.862 53.294C304.319 53.7739 304.945 54.0138 305.737 54.0138C306.552 54.0138 307.193 53.7627 307.662 53.2605C308.13 52.7584 308.365 52.0274 308.365 51.0678V46.0296H309.888ZM313.984 42.8159V55.2022H312.46V42.8159H313.984ZM318.437 47.285V52.6914C318.437 53.1378 318.531 53.4559 318.722 53.6455C318.911 53.8241 319.241 53.9133 319.709 53.9133H320.831V55.2022H319.458C318.61 55.2022 317.974 55.0068 317.55 54.6163C317.125 54.2258 316.914 53.5841 316.914 52.6914V47.285H315.726V46.0296H316.914V43.7198H318.437V46.0296H320.831V47.285H318.437ZM330.576 46.0296L325.053 59.5206H323.479L325.287 55.1017L321.588 46.0296H323.278L326.157 53.4614L329.003 46.0296H330.576Z" fill="black"/>
<path d="M366.088 45.0312H354.527C354.18 45.0312 353.987 45.3973 354.202 45.6473L359.983 52.3506C360.148 52.5426 360.467 52.5426 360.633 52.3506L366.414 45.6473C366.629 45.3973 366.436 45.0312 366.088 45.0312Z" fill="#BFBFBF"/>
<path d="M381.438 82.884H167.833V194.901H381.438V82.884Z" fill="white" stroke="#E8E8E8"/>
<path d="M191.292 135.539V138.468H195.225V140.326H191.292V143.422H195.727V145.33H188.948V133.63H195.727V135.539H191.292ZM197.255 140.66C197.255 139.723 197.439 138.892 197.807 138.166C198.187 137.441 198.694 136.883 199.33 136.493C199.978 136.102 200.697 135.907 201.489 135.907C202.182 135.907 202.785 136.046 203.297 136.325C203.822 136.604 204.241 136.956 204.552 137.38V136.057H206.912V145.33H204.552V143.975C204.251 144.41 203.833 144.773 203.297 145.063C202.773 145.342 202.165 145.481 201.473 145.481C200.692 145.481 199.978 145.28 199.33 144.878C198.694 144.477 198.187 143.913 197.807 143.188C197.439 142.451 197.255 141.609 197.255 140.66ZM204.552 140.694C204.552 140.125 204.442 139.639 204.218 139.238C203.995 138.825 203.694 138.512 203.314 138.3C202.935 138.077 202.527 137.966 202.092 137.966C201.657 137.966 201.255 138.072 200.887 138.284C200.518 138.496 200.217 138.808 199.983 139.221C199.76 139.623 199.648 140.103 199.648 140.66C199.648 141.218 199.76 141.71 199.983 142.133C200.217 142.547 200.518 142.865 200.887 143.087C201.267 143.31 201.668 143.422 202.092 143.422C202.527 143.422 202.935 143.317 203.314 143.104C203.694 142.881 203.995 142.569 204.218 142.167C204.442 141.754 204.552 141.263 204.552 140.694ZM212.75 145.481C211.992 145.481 211.311 145.347 210.708 145.079C210.106 144.8 209.625 144.427 209.269 143.958C208.922 143.489 208.733 142.97 208.7 142.401H211.06C211.105 142.758 211.277 143.054 211.579 143.288C211.891 143.523 212.276 143.64 212.733 143.64C213.18 143.64 213.525 143.551 213.771 143.372C214.027 143.193 214.156 142.965 214.156 142.686C214.156 142.384 214 142.162 213.688 142.016C213.386 141.86 212.901 141.693 212.231 141.514C211.54 141.347 210.971 141.174 210.524 140.995C210.089 140.816 209.709 140.543 209.386 140.175C209.073 139.807 208.917 139.31 208.917 138.685C208.917 138.172 209.063 137.703 209.352 137.279C209.654 136.855 210.077 136.521 210.624 136.275C211.182 136.029 211.835 135.907 212.583 135.907C213.688 135.907 214.57 136.186 215.227 136.744C215.885 137.29 216.248 138.033 216.315 138.97H214.073C214.039 138.602 213.883 138.312 213.604 138.099C213.336 137.876 212.973 137.765 212.516 137.765C212.092 137.765 211.763 137.843 211.528 137.999C211.306 138.155 211.194 138.373 211.194 138.652C211.194 138.965 211.349 139.204 211.662 139.372C211.975 139.527 212.461 139.69 213.118 139.857C213.788 140.024 214.34 140.197 214.776 140.376C215.211 140.555 215.584 140.833 215.897 141.213C216.22 141.581 216.388 142.072 216.399 142.686C216.399 143.221 216.248 143.702 215.947 144.125C215.658 144.549 215.233 144.884 214.675 145.13C214.128 145.364 213.487 145.481 212.75 145.481ZM227.194 136.057L221.453 149.716H218.959L220.967 145.096L217.252 136.057H219.879L222.273 142.535L224.7 136.057H227.194Z" fill="black"/>
<path d="M381.438 194.9H167.833V273.441H381.438V194.9Z" fill="white" stroke="#E8E8E8"/>
<path d="M198.64 228.925V240.609H196.297V235.637H191.292V240.609H188.948V228.925H191.292V233.729H196.297V228.925H198.64ZM200.345 235.939C200.345 235.001 200.529 234.17 200.897 233.445C201.276 232.72 201.784 232.161 202.42 231.771C203.067 231.381 203.786 231.185 204.579 231.185C205.271 231.185 205.873 231.324 206.387 231.604C206.911 231.883 207.33 232.234 207.642 232.658V231.336H210.003V240.609H207.642V239.253C207.341 239.688 206.923 240.051 206.387 240.341C205.862 240.62 205.254 240.759 204.563 240.759C203.781 240.759 203.067 240.558 202.42 240.157C201.784 239.755 201.276 239.191 200.897 238.466C200.529 237.73 200.345 236.888 200.345 235.939ZM207.642 235.972C207.642 235.403 207.53 234.918 207.308 234.516C207.084 234.103 206.782 233.791 206.404 233.579C206.024 233.356 205.617 233.244 205.182 233.244C204.747 233.244 204.345 233.349 203.977 233.562C203.609 233.774 203.307 234.086 203.073 234.499C202.849 234.901 202.738 235.381 202.738 235.939C202.738 236.496 202.849 236.988 203.073 237.412C203.307 237.825 203.609 238.143 203.977 238.366C204.355 238.588 204.757 238.701 205.182 238.701C205.617 238.701 206.024 238.595 206.404 238.382C206.782 238.16 207.084 237.847 207.308 237.445C207.53 237.032 207.642 236.541 207.642 235.972ZM214.634 232.775C214.935 232.285 215.327 231.9 215.806 231.62C216.297 231.341 216.855 231.202 217.479 231.202V233.662H216.86C216.124 233.662 215.566 233.835 215.186 234.181C214.818 234.528 214.634 235.13 214.634 235.989V240.609H212.291V231.336H214.634V232.775ZM218.455 235.939C218.455 235.001 218.639 234.17 219.008 233.445C219.388 232.72 219.9 232.161 220.548 231.771C221.195 231.381 221.915 231.185 222.707 231.185C223.309 231.185 223.884 231.319 224.431 231.587C224.978 231.843 225.413 232.189 225.736 232.625V228.222H228.113V240.609H225.736V239.236C225.447 239.693 225.039 240.061 224.515 240.341C223.991 240.62 223.382 240.759 222.69 240.759C221.909 240.759 221.195 240.558 220.548 240.157C219.9 239.755 219.388 239.191 219.008 238.466C218.639 237.73 218.455 236.888 218.455 235.939ZM225.753 235.972C225.753 235.403 225.641 234.918 225.418 234.516C225.196 234.103 224.894 233.791 224.515 233.579C224.135 233.356 223.728 233.244 223.293 233.244C222.858 233.244 222.456 233.349 222.088 233.562C221.719 233.774 221.418 234.086 221.184 234.499C220.961 234.901 220.849 235.381 220.849 235.939C220.849 236.496 220.961 236.988 221.184 237.412C221.418 237.825 221.719 238.143 222.088 238.366C222.467 238.588 222.869 238.701 223.293 238.701C223.728 238.701 224.135 238.595 224.515 238.382C224.894 238.16 225.196 237.847 225.418 237.445C225.641 237.032 225.753 236.541 225.753 235.972Z" fill="black"/>
<path d="M381.438 420.223H167.833V498.764H381.438V420.223Z" fill="white" stroke="#E8E8E8"/>
<path d="M198.64 454.249V465.932H196.297V460.961H191.292V465.932H188.948V454.249H191.292V459.053H196.297V454.249H198.64ZM200.345 461.262C200.345 460.325 200.529 459.493 200.897 458.768C201.276 458.043 201.784 457.485 202.42 457.094C203.067 456.704 203.786 456.509 204.579 456.509C205.271 456.509 205.873 456.648 206.387 456.927C206.911 457.206 207.33 457.558 207.642 457.982V456.659H210.003V465.932H207.642V464.576C207.341 465.012 206.923 465.375 206.387 465.664C205.862 465.944 205.254 466.083 204.563 466.083C203.781 466.083 203.067 465.882 202.42 465.48C201.784 465.078 201.276 464.515 200.897 463.79C200.529 463.053 200.345 462.211 200.345 461.262ZM207.642 461.296C207.642 460.727 207.53 460.241 207.308 459.839C207.084 459.426 206.782 459.115 206.404 458.902C206.024 458.679 205.617 458.567 205.182 458.567C204.747 458.567 204.345 458.673 203.977 458.885C203.609 459.098 203.307 459.409 203.073 459.823C202.849 460.224 202.738 460.705 202.738 461.262C202.738 461.82 202.849 462.312 203.073 462.735C203.307 463.148 203.609 463.466 203.977 463.689C204.355 463.912 204.757 464.024 205.182 464.024C205.617 464.024 206.024 463.918 206.404 463.706C206.782 463.483 207.084 463.17 207.308 462.769C207.53 462.355 207.642 461.865 207.642 461.296ZM214.634 458.099C214.935 457.608 215.327 457.223 215.806 456.944C216.297 456.664 216.855 456.525 217.479 456.525V458.986H216.86C216.124 458.986 215.566 459.158 215.186 459.505C214.818 459.851 214.634 460.454 214.634 461.312V465.932H212.291V456.659H214.634V458.099ZM218.455 461.262C218.455 460.325 218.639 459.493 219.008 458.768C219.388 458.043 219.9 457.485 220.548 457.094C221.195 456.704 221.915 456.509 222.707 456.509C223.309 456.509 223.884 456.642 224.431 456.91C224.978 457.167 225.413 457.513 225.736 457.948V453.546H228.113V465.932H225.736V464.56C225.447 465.017 225.039 465.385 224.515 465.664C223.991 465.944 223.382 466.083 222.69 466.083C221.909 466.083 221.195 465.882 220.548 465.48C219.9 465.078 219.388 464.515 219.008 463.79C218.639 463.053 218.455 462.211 218.455 461.262ZM225.753 461.296C225.753 460.727 225.641 460.241 225.418 459.839C225.196 459.426 224.894 459.115 224.515 458.902C224.135 458.679 223.728 458.567 223.293 458.567C222.858 458.567 222.456 458.673 222.088 458.885C221.719 459.098 221.418 459.409 221.184 459.823C220.961 460.224 220.849 460.705 220.849 461.262C220.849 461.82 220.961 462.312 221.184 462.735C221.418 463.148 221.719 463.466 222.088 463.689C222.467 463.912 222.869 464.024 223.293 464.024C223.728 464.024 224.135 463.918 224.515 463.706C224.894 463.483 225.196 463.17 225.418 462.769C225.641 462.355 225.753 461.865 225.753 461.296ZM239.023 461.095C239.023 461.43 239 461.731 238.956 461.999H232.177C232.232 462.668 232.467 463.192 232.88 463.572C233.292 463.952 233.8 464.141 234.403 464.141C235.273 464.141 235.893 463.768 236.261 463.02H238.788C238.521 463.912 238.007 464.648 237.248 465.229C236.489 465.798 235.558 466.083 234.453 466.083C233.56 466.083 232.756 465.887 232.043 465.497C231.34 465.095 230.788 464.531 230.386 463.806C229.994 463.082 229.8 462.245 229.8 461.296C229.8 460.336 229.994 459.493 230.386 458.768C230.776 458.043 231.323 457.485 232.026 457.094C232.729 456.704 233.538 456.509 234.453 456.509C235.334 456.509 236.121 456.698 236.813 457.078C237.516 457.457 238.057 457.998 238.437 458.701C238.827 459.393 239.023 460.191 239.023 461.095ZM236.596 460.425C236.584 459.823 236.367 459.342 235.943 458.986C235.518 458.618 234.999 458.433 234.386 458.433C233.806 458.433 233.315 458.612 232.913 458.969C232.522 459.315 232.282 459.801 232.194 460.425H236.596ZM244.281 466.083C243.523 466.083 242.842 465.949 242.239 465.681C241.636 465.402 241.156 465.028 240.8 464.56C240.453 464.091 240.264 463.572 240.23 463.003H242.591C242.636 463.36 242.808 463.656 243.109 463.89C243.422 464.124 243.807 464.242 244.264 464.242C244.711 464.242 245.056 464.153 245.302 463.974C245.558 463.795 245.687 463.567 245.687 463.288C245.687 462.986 245.531 462.763 245.218 462.618C244.917 462.462 244.432 462.295 243.762 462.116C243.071 461.948 242.502 461.776 242.055 461.597C241.62 461.418 241.24 461.145 240.917 460.777C240.604 460.409 240.448 459.912 240.448 459.287C240.448 458.773 240.594 458.305 240.883 457.881C241.185 457.457 241.608 457.123 242.155 456.877C242.713 456.631 243.366 456.509 244.114 456.509C245.218 456.509 246.1 456.788 246.758 457.345C247.416 457.893 247.779 458.634 247.846 459.572H245.603C245.57 459.203 245.414 458.914 245.135 458.701C244.867 458.479 244.504 458.366 244.047 458.366C243.623 458.366 243.294 458.445 243.059 458.601C242.836 458.757 242.724 458.974 242.724 459.254C242.724 459.566 242.88 459.806 243.193 459.973C243.506 460.129 243.991 460.291 244.649 460.459C245.319 460.626 245.871 460.799 246.306 460.978C246.742 461.157 247.115 461.435 247.428 461.815C247.751 462.183 247.918 462.673 247.93 463.288C247.93 463.823 247.779 464.303 247.478 464.727C247.188 465.151 246.764 465.485 246.206 465.731C245.659 465.966 245.018 466.083 244.281 466.083ZM252.582 458.584V463.07C252.582 463.383 252.654 463.611 252.8 463.756C252.955 463.89 253.213 463.957 253.57 463.957H254.658V465.932H253.185C251.209 465.932 250.222 464.973 250.222 463.053V458.584H249.117V456.659H250.222V454.366H252.582V456.659H254.658V458.584H252.582Z" fill="black"/>
<path d="M381.438 351.982H167.833V420.223H381.438V351.982Z" fill="white" stroke="#E8E8E8"/>
<path d="M198.64 380.858V392.542H196.297V387.57H191.292V392.542H188.948V380.858H191.292V385.662H196.297V380.858H198.64ZM200.345 387.872C200.345 386.934 200.529 386.102 200.897 385.378C201.276 384.653 201.784 384.094 202.42 383.704C203.067 383.314 203.786 383.118 204.579 383.118C205.271 383.118 205.873 383.257 206.387 383.536C206.911 383.816 207.33 384.167 207.642 384.591V383.269H210.003V392.542H207.642V391.186C207.341 391.621 206.923 391.984 206.387 392.274C205.862 392.553 205.254 392.692 204.563 392.692C203.781 392.692 203.067 392.491 202.42 392.09C201.784 391.688 201.276 391.124 200.897 390.399C200.529 389.663 200.345 388.82 200.345 387.872ZM207.642 387.905C207.642 387.336 207.53 386.851 207.308 386.449C207.084 386.036 206.782 385.724 206.404 385.512C206.024 385.289 205.617 385.177 205.182 385.177C204.747 385.177 204.345 385.282 203.977 385.495C203.609 385.707 203.307 386.019 203.073 386.432C202.849 386.834 202.738 387.314 202.738 387.872C202.738 388.429 202.849 388.921 203.073 389.345C203.307 389.758 203.609 390.076 203.977 390.299C204.355 390.521 204.757 390.633 205.182 390.633C205.617 390.633 206.024 390.528 206.404 390.315C206.782 390.093 207.084 389.78 207.308 389.378C207.53 388.965 207.642 388.474 207.642 387.905ZM214.634 384.708C214.935 384.217 215.327 383.833 215.806 383.553C216.297 383.274 216.855 383.135 217.479 383.135V385.595H216.86C216.124 385.595 215.566 385.768 215.186 386.114C214.818 386.46 214.634 387.063 214.634 387.922V392.542H212.291V383.269H214.634V384.708ZM218.455 387.872C218.455 386.934 218.639 386.102 219.008 385.378C219.388 384.653 219.9 384.094 220.548 383.704C221.195 383.314 221.915 383.118 222.707 383.118C223.309 383.118 223.884 383.252 224.431 383.52C224.978 383.776 225.413 384.122 225.736 384.557V380.155H228.113V392.542H225.736V391.169C225.447 391.626 225.039 391.994 224.515 392.274C223.991 392.553 223.382 392.692 222.69 392.692C221.909 392.692 221.195 392.491 220.548 392.09C219.9 391.688 219.388 391.124 219.008 390.399C218.639 389.663 218.455 388.82 218.455 387.872ZM225.753 387.905C225.753 387.336 225.641 386.851 225.418 386.449C225.196 386.036 224.894 385.724 224.515 385.512C224.135 385.289 223.728 385.177 223.293 385.177C222.858 385.177 222.456 385.282 222.088 385.495C221.719 385.707 221.418 386.019 221.184 386.432C220.961 386.834 220.849 387.314 220.849 387.872C220.849 388.429 220.961 388.921 221.184 389.345C221.418 389.758 221.719 390.076 222.088 390.299C222.467 390.521 222.869 390.633 223.293 390.633C223.728 390.633 224.135 390.528 224.515 390.315C224.894 390.093 225.196 389.78 225.418 389.378C225.641 388.965 225.753 388.474 225.753 387.905Z" fill="black"/>
<path d="M167.703 14.6431H29.0454V82.8834H167.703V14.6431Z" fill="#FAFAFA" stroke="#E8E8E8"/>
<path d="M77.0588 30.7426V42.3255H75.5356V33.6886L71.6858 42.3255H70.6146L66.748 33.6718V42.3255H65.2249V30.7426H66.8652L71.1502 40.3169L75.4352 30.7426H77.0588ZM83.6423 42.4761C82.7831 42.4761 82.0019 42.2808 81.2989 41.8903C80.6071 41.4998 80.0603 40.9474 79.6586 40.2332C79.2681 39.5079 79.0728 38.671 79.0728 37.7225C79.0728 36.7851 79.2736 35.9594 79.6753 35.2452C80.0882 34.5199 80.6461 33.9676 81.3491 33.5881C82.0522 33.1976 82.8388 33.0023 83.7092 33.0023C84.5796 33.0023 85.3663 33.1976 86.0693 33.5881C86.7723 33.9676 87.3247 34.5143 87.7264 35.2285C88.1393 35.9427 88.3457 36.7739 88.3457 37.7225C88.3457 38.671 88.1338 39.5079 87.7097 40.2332C87.2969 40.9474 86.7333 41.4998 86.0191 41.8903C85.305 42.2808 84.5127 42.4761 83.6423 42.4761ZM83.6423 41.1371C84.1891 41.1371 84.7025 41.0087 85.1822 40.7521C85.6621 40.4955 86.047 40.1105 86.3371 39.5971C86.6384 39.0838 86.7891 38.459 86.7891 37.7225C86.7891 36.986 86.6441 36.3611 86.3539 35.8478C86.0638 35.3344 85.6843 34.9551 85.2157 34.7096C84.747 34.453 84.2393 34.3246 83.6925 34.3246C83.1346 34.3246 82.6213 34.453 82.1526 34.7096C81.6951 34.9551 81.3269 35.3344 81.0479 35.8478C80.769 36.3611 80.6294 36.986 80.6294 37.7225C80.6294 38.4702 80.7633 39.1005 81.0311 39.6139C81.3101 40.1272 81.6784 40.5122 82.1358 40.7688C82.5934 41.0144 83.0956 41.1371 83.6423 41.1371ZM94.8176 32.9856C95.9334 32.9856 96.8373 33.3259 97.5292 34.0066C98.221 34.6761 98.567 35.6469 98.567 36.919V42.3255H97.0605V37.1366C97.0605 36.2216 96.8317 35.5242 96.3743 35.0444C95.9167 34.5534 95.2918 34.3079 94.4996 34.3079C93.6961 34.3079 93.0544 34.559 92.5747 35.0611C92.106 35.5632 91.8717 36.2942 91.8717 37.2538V42.3255H90.3485V33.1529H91.8717V34.4585C92.173 33.9899 92.5802 33.6271 93.0936 33.3705C93.618 33.1139 94.1926 32.9856 94.8176 32.9856ZM102.913 34.4083V39.8147C102.913 40.2611 103.008 40.5792 103.198 40.7688C103.387 40.9474 103.716 41.0366 104.185 41.0366H105.307V42.3255H103.934C103.086 42.3255 102.45 42.1302 102.026 41.7396C101.602 41.3491 101.39 40.7074 101.39 39.8147V34.4083H100.201V33.1529H101.39V30.8431H102.913V33.1529H105.307V34.4083H102.913ZM111.705 32.9856C112.397 32.9856 113.022 33.1362 113.58 33.4375C114.137 33.7276 114.573 34.1684 114.885 34.7598C115.209 35.3512 115.371 36.0709 115.371 36.919V42.3255H113.864V37.1366C113.864 36.2216 113.635 35.5242 113.178 35.0444C112.72 34.5534 112.095 34.3079 111.303 34.3079C110.5 34.3079 109.858 34.559 109.378 35.0611C108.91 35.5632 108.675 36.2942 108.675 37.2538V42.3255H107.152V29.9392H108.675V34.4585C108.977 33.9899 109.389 33.6271 109.914 33.3705C110.45 33.1139 111.046 32.9856 111.705 32.9856ZM119.382 29.9392V42.3255H117.859V29.9392H119.382ZM129.878 33.1529L124.355 46.6439H122.781L124.589 42.225L120.89 33.1529H122.58L125.459 40.5847L128.305 33.1529H129.878ZM76.5824 56.41L72.1802 68.0765H70.4227L66.0206 56.41H67.6442L71.3098 66.4697L74.9755 56.41H76.5824ZM82.2529 68.2272C81.3937 68.2272 80.6125 68.0319 79.9095 67.6414C79.2177 67.2508 78.6709 66.6985 78.2692 65.9843C77.8787 65.259 77.6834 64.4221 77.6834 63.4735C77.6834 62.5362 77.8842 61.7105 78.2859 60.9963C78.6988 60.271 79.2567 59.7187 79.9597 59.3392C80.6628 58.9487 81.4494 58.7534 82.3198 58.7534C83.1902 58.7534 83.9769 58.9487 84.6799 59.3392C85.3829 59.7187 85.9353 60.2653 86.337 60.9795C86.7499 61.6938 86.9563 62.525 86.9563 63.4735C86.9563 64.4221 86.7444 65.259 86.3203 65.9843C85.9075 66.6985 85.3439 67.2508 84.6297 67.6414C83.9156 68.0319 83.1233 68.2272 82.2529 68.2272ZM82.2529 66.8881C82.7997 66.8881 83.3131 66.7598 83.7928 66.5032C84.2727 66.2465 84.6576 65.8616 84.9477 65.3482C85.249 64.8349 85.3997 64.21 85.3997 63.4735C85.3997 62.7371 85.2547 62.1122 84.9645 61.5989C84.6744 61.0855 84.2949 60.7062 83.8263 60.4607C83.3576 60.2041 82.8499 60.0757 82.3031 60.0757C81.7452 60.0757 81.2318 60.2041 80.7632 60.4607C80.3057 60.7062 79.9375 61.0855 79.6585 61.5989C79.3796 62.1122 79.24 62.7371 79.24 63.4735C79.24 64.2212 79.3739 64.8516 79.6417 65.365C79.9207 65.8783 80.289 66.2633 80.7464 66.5199C81.204 66.7654 81.7062 66.8881 82.2529 66.8881ZM90.4823 55.6903V68.0765H88.9591V55.6903H90.4823ZM101.213 58.904V68.0765H99.6898V66.7208C99.3997 67.1894 98.9924 67.5577 98.4679 67.8255C97.9546 68.0821 97.3855 68.2105 96.7607 68.2105C96.0464 68.2105 95.4049 68.0653 94.8358 67.7753C94.2667 67.474 93.8147 67.0276 93.48 66.4362C93.1564 65.8448 92.9946 65.1251 92.9946 64.277V58.904H94.501V64.0761C94.501 64.98 94.7298 65.6775 95.1873 66.1684C95.6447 66.6483 96.2697 66.8881 97.0619 66.8881C97.8766 66.8881 98.5182 66.6371 98.9868 66.1349C99.4555 65.6328 99.6898 64.9018 99.6898 63.9422V58.904H101.213ZM114.815 58.7366C115.529 58.7366 116.166 58.8873 116.723 59.1886C117.281 59.4787 117.722 59.9195 118.046 60.5109C118.369 61.1023 118.531 61.822 118.531 62.6701V68.0765H117.025V62.8877C117.025 61.9726 116.796 61.2753 116.338 60.7954C115.892 60.3045 115.284 60.0589 114.514 60.0589C113.722 60.0589 113.091 60.3156 112.623 60.8289C112.154 61.3311 111.92 62.062 111.92 63.0216V68.0765H110.413V62.8877C110.413 61.9726 110.184 61.2753 109.727 60.7954C109.28 60.3045 108.672 60.0589 107.902 60.0589C107.11 60.0589 106.48 60.3156 106.011 60.8289C105.542 61.3311 105.308 62.062 105.308 63.0216V68.0765H103.785V58.904H105.308V60.2263C105.609 59.7465 106.011 59.3782 106.513 59.1216C107.026 58.865 107.59 58.7366 108.204 58.7366C108.974 58.7366 109.654 58.9095 110.246 59.2555C110.837 59.6015 111.278 60.1092 111.568 60.7787C111.825 60.1314 112.249 59.6293 112.84 59.2723C113.432 58.9152 114.09 58.7366 114.815 58.7366ZM129.399 63.1388C129.399 63.4289 129.382 63.7358 129.349 64.0594H122.017C122.073 64.9632 122.38 65.6718 122.938 66.1851C123.507 66.6873 124.193 66.9384 124.997 66.9384C125.655 66.9384 126.202 66.7877 126.637 66.4864C127.083 66.1739 127.396 65.7611 127.574 65.2478H129.215C128.969 66.1294 128.478 66.8491 127.742 67.407C127.005 67.9538 126.09 68.2272 124.997 68.2272C124.126 68.2272 123.345 68.0319 122.653 67.6414C121.973 67.2508 121.437 66.6985 121.046 65.9843C120.656 65.259 120.461 64.4221 120.461 63.4735C120.461 62.525 120.65 61.6938 121.03 60.9795C121.409 60.2653 121.939 59.7187 122.62 59.3392C123.312 58.9487 124.104 58.7534 124.997 58.7534C125.867 58.7534 126.637 58.943 127.307 59.3225C127.976 59.7019 128.489 60.2263 128.846 60.8959C129.215 61.5542 129.399 62.3019 129.399 63.1388ZM127.825 62.8208C127.825 62.2405 127.697 61.744 127.44 61.3311C127.184 60.9071 126.832 60.589 126.386 60.377C125.951 60.1538 125.465 60.0422 124.93 60.0422C124.16 60.0422 123.501 60.2878 122.955 60.7787C122.419 61.2696 122.112 61.9504 122.034 62.8208H127.825Z" fill="black"/>
<path d="M152.632 45.0312H141.07C140.723 45.0312 140.529 45.3973 140.744 45.6473L146.525 52.3506C146.691 52.5426 147.009 52.5426 147.176 52.3506L152.958 45.6473C153.172 45.3973 152.978 45.0312 152.632 45.0312Z" fill="#BFBFBF"/>
<path d="M167.703 82.884H29.0454V194.901H167.703V82.884Z" fill="white" stroke="#E8E8E8"/>
<path d="M135.645 135.152H130.222V138.015C130.457 137.724 130.791 137.49 131.227 137.312C131.662 137.122 132.125 137.027 132.616 137.027C133.508 137.027 134.239 137.222 134.809 137.613C135.378 138.003 135.791 138.506 136.047 139.119C136.304 139.722 136.432 140.37 136.432 141.061C136.432 142.345 136.064 143.376 135.327 144.157C134.602 144.939 133.564 145.329 132.214 145.329C130.942 145.329 129.927 145.011 129.168 144.375C128.409 143.739 127.979 142.907 127.879 141.881H130.155C130.256 142.328 130.479 142.685 130.825 142.952C131.182 143.22 131.634 143.354 132.181 143.354C132.839 143.354 133.336 143.148 133.67 142.735C134.005 142.321 134.172 141.776 134.172 141.094C134.172 140.403 134 139.878 133.654 139.521C133.319 139.153 132.822 138.969 132.164 138.969C131.695 138.969 131.305 139.086 130.992 139.32C130.68 139.554 130.457 139.867 130.323 140.257H128.08V133.094H135.645V135.152ZM138.216 139.069C138.216 137.139 138.562 135.627 139.253 134.533C139.956 133.44 141.117 132.893 142.735 132.893C144.353 132.893 145.508 133.44 146.2 134.533C146.903 135.627 147.254 137.139 147.254 139.069C147.254 141.011 146.903 142.534 146.2 143.639C145.508 144.743 144.353 145.296 142.735 145.296C141.117 145.296 139.956 144.743 139.253 143.639C138.562 142.534 138.216 141.011 138.216 139.069ZM144.944 139.069C144.944 138.243 144.889 137.551 144.777 136.994C144.677 136.424 144.465 135.961 144.141 135.604C143.828 135.247 143.36 135.069 142.735 135.069C142.11 135.069 141.636 135.247 141.312 135.604C141 135.961 140.788 136.424 140.676 136.994C140.576 137.551 140.526 138.243 140.526 139.069C140.526 139.918 140.576 140.631 140.676 141.212C140.777 141.781 140.989 142.244 141.312 142.601C141.636 142.947 142.11 143.12 142.735 143.12C143.36 143.12 143.834 142.947 144.158 142.601C144.481 142.244 144.693 141.781 144.794 141.212C144.894 140.631 144.944 139.918 144.944 139.069Z" fill="black"/>
<path d="M167.703 194.9H29.0454V273.441H167.703V194.9Z" fill="white" stroke="#E8E8E8"/>
<path d="M127.835 238.232V236.391L133.308 228.557H136.037V236.19H137.51V238.232H136.037V240.609H133.693V238.232H127.835ZM133.844 231.068L130.413 236.19H133.844V231.068ZM139.035 231.62C139.091 230.504 139.481 229.645 140.207 229.043C140.943 228.429 141.908 228.122 143.103 228.122C143.917 228.122 144.614 228.268 145.195 228.557C145.775 228.837 146.21 229.222 146.5 229.712C146.802 230.192 146.952 230.738 146.952 231.353C146.952 232.056 146.768 232.653 146.4 233.144C146.043 233.624 145.613 233.947 145.111 234.114V234.181C145.758 234.382 146.26 234.739 146.618 235.253C146.986 235.766 147.17 236.424 147.17 237.228C147.17 237.897 147.014 238.495 146.701 239.019C146.4 239.543 145.948 239.956 145.345 240.257C144.754 240.547 144.04 240.692 143.203 240.692C141.942 240.692 140.915 240.374 140.123 239.738C139.331 239.102 138.912 238.165 138.868 236.926H141.144C141.166 237.474 141.351 237.914 141.697 238.249C142.054 238.572 142.539 238.734 143.153 238.734C143.722 238.734 144.157 238.578 144.458 238.265C144.771 237.942 144.927 237.529 144.927 237.027C144.927 236.357 144.715 235.877 144.291 235.587C143.867 235.298 143.208 235.152 142.316 235.152H141.83V233.227H142.316C143.9 233.227 144.693 232.697 144.693 231.637C144.693 231.157 144.548 230.783 144.257 230.516C143.978 230.248 143.571 230.114 143.036 230.114C142.511 230.114 142.104 230.259 141.814 230.549C141.535 230.829 141.373 231.185 141.328 231.62H139.035Z" fill="black"/>
<path d="M167.703 420.223H29.0454V498.764H167.703V420.223Z" fill="white" stroke="#E8E8E8"/>
<path d="M128.277 456.943C128.333 455.826 128.724 454.967 129.449 454.365C130.186 453.751 131.151 453.444 132.345 453.444C133.159 453.444 133.857 453.59 134.437 453.879C135.017 454.159 135.453 454.544 135.743 455.034C136.044 455.515 136.195 456.061 136.195 456.675C136.195 457.378 136.011 457.975 135.642 458.466C135.285 458.946 134.856 459.269 134.353 459.436V459.503C135.001 459.704 135.503 460.061 135.86 460.575C136.228 461.088 136.412 461.746 136.412 462.55C136.412 463.219 136.256 463.817 135.944 464.341C135.642 464.865 135.19 465.278 134.588 465.579C133.996 465.869 133.282 466.015 132.445 466.015C131.184 466.015 130.158 465.697 129.365 465.061C128.573 464.424 128.155 463.487 128.11 462.249H130.386C130.409 462.796 130.593 463.236 130.939 463.571C131.296 463.894 131.781 464.056 132.395 464.056C132.964 464.056 133.399 463.9 133.701 463.588C134.013 463.264 134.169 462.851 134.169 462.349C134.169 461.679 133.957 461.199 133.533 460.909C133.109 460.62 132.451 460.474 131.558 460.474H131.073V458.549H131.558C133.143 458.549 133.935 458.019 133.935 456.959C133.935 456.479 133.79 456.106 133.5 455.838C133.221 455.57 132.814 455.436 132.278 455.436C131.753 455.436 131.346 455.582 131.056 455.871C130.777 456.151 130.615 456.507 130.571 456.943H128.277ZM146.466 455.754H141.043V458.616C141.277 458.327 141.612 458.092 142.047 457.913C142.482 457.724 142.945 457.629 143.436 457.629C144.329 457.629 145.06 457.824 145.629 458.215C146.198 458.605 146.611 459.107 146.867 459.721C147.124 460.324 147.252 460.971 147.252 461.663C147.252 462.946 146.884 463.978 146.148 464.759C145.422 465.541 144.385 465.931 143.034 465.931C141.762 465.931 140.747 465.613 139.988 464.977C139.229 464.341 138.8 463.509 138.699 462.483H140.976C141.076 462.93 141.299 463.286 141.645 463.554C142.002 463.822 142.454 463.956 143.001 463.956C143.659 463.956 144.156 463.75 144.491 463.336C144.825 462.923 144.993 462.377 144.993 461.696C144.993 461.005 144.82 460.479 144.474 460.123C144.139 459.755 143.643 459.57 142.984 459.57C142.516 459.57 142.125 459.688 141.813 459.922C141.5 460.156 141.277 460.469 141.143 460.859H138.9V453.695H146.466V455.754Z" fill="black"/>
<path d="M167.703 351.982H29.0454V420.223H167.703V351.982Z" fill="white" stroke="#E8E8E8"/>
<path d="M128.277 383.552C128.333 382.435 128.724 381.577 129.449 380.974C130.186 380.36 131.151 380.053 132.345 380.053C133.159 380.053 133.857 380.199 134.437 380.489C135.017 380.768 135.453 381.153 135.743 381.644C136.044 382.124 136.195 382.67 136.195 383.284C136.195 383.987 136.011 384.584 135.642 385.075C135.285 385.555 134.856 385.878 134.353 386.046V386.113C135.001 386.314 135.503 386.67 135.86 387.184C136.228 387.698 136.412 388.356 136.412 389.159C136.412 389.829 136.256 390.426 135.944 390.95C135.642 391.474 135.19 391.887 134.588 392.189C133.996 392.478 133.282 392.624 132.445 392.624C131.184 392.624 130.158 392.306 129.365 391.67C128.573 391.034 128.155 390.096 128.11 388.858H130.386C130.409 389.405 130.593 389.845 130.939 390.18C131.296 390.503 131.781 390.665 132.395 390.665C132.964 390.665 133.399 390.51 133.701 390.197C134.013 389.874 134.169 389.46 134.169 388.958C134.169 388.289 133.957 387.808 133.533 387.519C133.109 387.229 132.451 387.083 131.558 387.083H131.073V385.159H131.558C133.143 385.159 133.935 384.628 133.935 383.569C133.935 383.088 133.79 382.715 133.5 382.447C133.221 382.179 132.814 382.045 132.278 382.045C131.753 382.045 131.346 382.191 131.056 382.481C130.777 382.76 130.615 383.117 130.571 383.552H128.277ZM146.466 382.363H141.043V385.226C141.277 384.936 141.612 384.702 142.047 384.523C142.482 384.333 142.945 384.238 143.436 384.238C144.329 384.238 145.06 384.434 145.629 384.824C146.198 385.214 146.611 385.716 146.867 386.33C147.124 386.933 147.252 387.581 147.252 388.272C147.252 389.556 146.884 390.587 146.148 391.368C145.422 392.15 144.385 392.54 143.034 392.54C141.762 392.54 140.747 392.222 139.988 391.586C139.229 390.95 138.8 390.118 138.699 389.092H140.976C141.076 389.539 141.299 389.896 141.645 390.163C142.002 390.431 142.454 390.565 143.001 390.565C143.659 390.565 144.156 390.359 144.491 389.946C144.825 389.532 144.993 388.987 144.993 388.305C144.993 387.614 144.82 387.089 144.474 386.732C144.139 386.364 143.643 386.18 142.984 386.18C142.516 386.18 142.125 386.297 141.813 386.531C141.5 386.765 141.277 387.078 141.143 387.468H138.9V380.305H146.466V382.363Z" fill="black"/>
<path d="M627.352 273.442H519.197V351.983H627.352V273.442Z" fill="white" stroke="#E8E8E8"/>
<path d="M579.389 311.573C579.118 311.573 578.859 311.675 578.668 311.856C578.477 312.037 578.369 312.283 578.369 312.539V319.472C578.369 319.728 578.262 319.974 578.071 320.155C577.88 320.336 577.621 320.438 577.35 320.438H566.137C565.868 320.438 565.608 320.336 565.417 320.155C565.225 319.974 565.119 319.728 565.119 319.472V308.85C565.119 308.594 565.225 308.348 565.417 308.167C565.608 307.986 565.868 307.884 566.137 307.884H573.457C573.727 307.884 573.986 307.783 574.177 307.601C574.368 307.421 574.475 307.175 574.475 306.919C574.475 306.662 574.368 306.416 574.177 306.236C573.986 306.055 573.727 305.953 573.457 305.953H566.137C565.327 305.953 564.549 306.258 563.975 306.801C563.402 307.345 563.079 308.081 563.079 308.85V319.472C563.079 320.241 563.402 320.977 563.975 321.521C564.549 322.064 565.327 322.369 566.137 322.369H577.35C578.161 322.369 578.939 322.064 579.512 321.521C580.086 320.977 580.408 320.241 580.408 319.472V312.539C580.408 312.283 580.3 312.037 580.11 311.856C579.918 311.675 579.659 311.573 579.389 311.573ZM583.384 303.655C583.281 303.419 583.083 303.231 582.834 303.133C582.712 303.084 582.58 303.057 582.446 303.056H576.331C576.06 303.056 575.801 303.158 575.61 303.339C575.419 303.519 575.311 303.765 575.311 304.022C575.311 304.278 575.419 304.524 575.61 304.704C575.801 304.886 576.06 304.987 576.331 304.987H579.99L569.491 314.923C569.396 315.013 569.32 315.12 569.268 315.239C569.217 315.356 569.19 315.482 569.19 315.61C569.19 315.737 569.217 315.863 569.268 315.98C569.32 316.099 569.396 316.206 569.491 316.296C569.586 316.386 569.698 316.458 569.823 316.507C569.947 316.556 570.081 316.58 570.215 316.58C570.35 316.58 570.483 316.556 570.607 316.507C570.731 316.458 570.844 316.386 570.938 316.296L581.427 306.348V309.816C581.427 310.072 581.535 310.318 581.725 310.498C581.917 310.68 582.176 310.781 582.446 310.781C582.717 310.781 582.976 310.68 583.168 310.498C583.358 310.318 583.466 310.072 583.466 309.816V304.022C583.465 303.895 583.437 303.77 583.384 303.655Z" fill="#00AC45"/>
<path d="M520.489 273.442H380.146V351.983H520.489V273.442Z" fill="white" stroke="#E8E8E8"/>
<path d="M503.111 293.398H396.244V332.025H503.111V293.398Z" fill="#F4F5F7"/>
<path opacity="0.8" d="M497.966 294.044H401.4C398.911 294.044 396.893 296.061 396.893 298.55V326.876C396.893 329.365 398.911 331.383 401.4 331.383H497.966C500.455 331.383 502.472 329.365 502.472 326.876V298.55C502.472 296.061 500.455 294.044 497.966 294.044Z" fill="white" stroke="#D9D9D9"/>
<path d="M435.402 317.971C434.65 317.971 433.97 317.842 433.362 317.585C432.765 317.327 432.291 316.956 431.941 316.472C431.591 315.988 431.41 315.416 431.4 314.757H433.718C433.749 315.2 433.903 315.55 434.181 315.808C434.47 316.065 434.861 316.194 435.355 316.194C435.86 316.194 436.257 316.076 436.545 315.839C436.834 315.592 436.978 315.272 436.978 314.881C436.978 314.561 436.88 314.299 436.684 314.093C436.489 313.887 436.241 313.727 435.943 313.614C435.654 313.49 435.253 313.356 434.737 313.212C434.037 313.006 433.465 312.805 433.022 312.61C432.59 312.404 432.214 312.1 431.895 311.698C431.586 311.286 431.431 310.74 431.431 310.06C431.431 309.422 431.591 308.865 431.91 308.392C432.229 307.918 432.677 307.557 433.254 307.31C433.831 307.052 434.49 306.924 435.232 306.924C436.344 306.924 437.246 307.197 437.936 307.743C438.636 308.278 439.022 309.03 439.095 309.998H436.715C436.695 309.628 436.535 309.324 436.236 309.087C435.948 308.84 435.562 308.716 435.077 308.716C434.655 308.716 434.315 308.824 434.058 309.04C433.81 309.257 433.687 309.571 433.687 309.983C433.687 310.271 433.78 310.513 433.965 310.709C434.161 310.895 434.398 311.049 434.676 311.173C434.964 311.286 435.366 311.42 435.881 311.574C436.581 311.78 437.153 311.986 437.596 312.192C438.039 312.398 438.42 312.707 438.739 313.119C439.058 313.531 439.218 314.072 439.218 314.742C439.218 315.319 439.069 315.854 438.77 316.349C438.471 316.843 438.034 317.24 437.457 317.538C436.88 317.827 436.195 317.971 435.402 317.971ZM443.613 311.08V315.221C443.613 315.509 443.68 315.72 443.813 315.854C443.958 315.978 444.195 316.04 444.524 316.04H445.528V317.863H444.169C442.346 317.863 441.434 316.977 441.434 315.205V311.08H440.414V309.303H441.434V307.186H443.613V309.303H445.528V311.08H443.613ZM446.528 313.552C446.528 312.687 446.698 311.919 447.037 311.25C447.388 310.58 447.856 310.065 448.443 309.705C449.041 309.344 449.705 309.164 450.437 309.164C451.075 309.164 451.631 309.293 452.105 309.55C452.589 309.808 452.976 310.132 453.264 310.524V309.303H455.443V317.863H453.264V316.611C452.986 317.013 452.6 317.348 452.105 317.616C451.621 317.873 451.06 318.002 450.421 318.002C449.7 318.002 449.041 317.816 448.443 317.446C447.856 317.075 447.388 316.555 447.037 315.885C446.698 315.205 446.528 314.428 446.528 313.552ZM453.264 313.583C453.264 313.058 453.161 312.61 452.955 312.239C452.749 311.858 452.471 311.569 452.121 311.374C451.771 311.167 451.395 311.064 450.993 311.064C450.591 311.064 450.22 311.162 449.88 311.358C449.54 311.554 449.262 311.842 449.046 312.223C448.84 312.594 448.737 313.037 448.737 313.552C448.737 314.067 448.84 314.52 449.046 314.912C449.262 315.293 449.54 315.586 449.88 315.792C450.231 315.998 450.601 316.101 450.993 316.101C451.395 316.101 451.771 316.004 452.121 315.808C452.471 315.602 452.749 315.313 452.955 314.943C453.161 314.561 453.264 314.108 453.264 313.583ZM459.719 310.632C459.997 310.179 460.357 309.823 460.8 309.566C461.253 309.308 461.768 309.179 462.345 309.179V311.451H461.774C461.094 311.451 460.579 311.61 460.228 311.93C459.889 312.249 459.719 312.805 459.719 313.598V317.863H457.556V309.303H459.719V310.632ZM466.32 311.08V315.221C466.32 315.509 466.387 315.72 466.521 315.854C466.665 315.978 466.902 316.04 467.231 316.04H468.236V317.863H466.876C465.053 317.863 464.141 316.977 464.141 315.205V311.08H463.122V309.303H464.141V307.186H466.32V309.303H468.236V311.08H466.32Z" fill="#262626"/>
<path d="M381.432 273.442H167.8V351.983H381.432V273.442Z" fill="white" stroke="#E8E8E8"/>
<path d="M201.642 307.467V319.15H199.299V311.551L196.169 319.15H194.395L191.248 311.551V319.15H188.905V307.467H191.566L195.282 316.154L198.998 307.467H201.642ZM212.579 314.313C212.579 314.648 212.557 314.949 212.512 315.217H205.733C205.79 315.886 206.024 316.41 206.436 316.79C206.849 317.17 207.356 317.359 207.959 317.359C208.829 317.359 209.449 316.986 209.817 316.238H212.344C212.077 317.13 211.564 317.867 210.805 318.447C210.046 319.016 209.114 319.301 208.009 319.301C207.117 319.301 206.314 319.105 205.599 318.715C204.896 318.313 204.344 317.749 203.942 317.025C203.552 316.3 203.356 315.463 203.356 314.514C203.356 313.555 203.552 312.711 203.942 311.986C204.333 311.262 204.879 310.703 205.582 310.313C206.285 309.922 207.095 309.727 208.009 309.727C208.891 309.727 209.678 309.916 210.369 310.296C211.072 310.676 211.614 311.216 211.993 311.919C212.384 312.611 212.579 313.409 212.579 314.313ZM210.152 313.643C210.141 313.041 209.924 312.561 209.499 312.204C209.075 311.836 208.556 311.652 207.942 311.652C207.363 311.652 206.871 311.831 206.469 312.187C206.079 312.534 205.84 313.019 205.75 313.643H210.152ZM213.687 314.48C213.687 313.543 213.871 312.711 214.24 311.986C214.62 311.262 215.132 310.703 215.78 310.313C216.427 309.922 217.147 309.727 217.939 309.727C218.541 309.727 219.116 309.861 219.663 310.128C220.21 310.385 220.645 310.731 220.968 311.166V306.764H223.345V319.15H220.968V317.778C220.679 318.235 220.271 318.603 219.747 318.883C219.223 319.162 218.614 319.301 217.922 319.301C217.141 319.301 216.427 319.1 215.78 318.698C215.132 318.297 214.62 317.733 214.24 317.008C213.871 316.271 213.687 315.429 213.687 314.48ZM220.985 314.514C220.985 313.945 220.873 313.459 220.65 313.058C220.428 312.644 220.126 312.333 219.747 312.12C219.367 311.898 218.96 311.786 218.525 311.786C218.09 311.786 217.688 311.891 217.32 312.104C216.951 312.316 216.65 312.628 216.416 313.041C216.193 313.443 216.081 313.923 216.081 314.48C216.081 315.038 216.193 315.53 216.416 315.953C216.65 316.367 216.951 316.685 217.32 316.907C217.699 317.13 218.101 317.242 218.525 317.242C218.96 317.242 219.367 317.137 219.747 316.924C220.126 316.701 220.428 316.389 220.65 315.987C220.873 315.574 220.985 315.083 220.985 314.514ZM226.822 308.773C226.41 308.773 226.063 308.644 225.784 308.388C225.516 308.12 225.382 307.79 225.382 307.4C225.382 307.01 225.516 306.686 225.784 306.429C226.063 306.161 226.41 306.028 226.822 306.028C227.235 306.028 227.575 306.161 227.843 306.429C228.122 306.686 228.261 307.01 228.261 307.4C228.261 307.79 228.122 308.12 227.843 308.388C227.575 308.644 227.235 308.773 226.822 308.773ZM227.977 309.877V319.15H225.633V309.877H227.977ZM239.047 309.877V319.15H236.687V317.979C236.386 318.38 235.989 318.698 235.499 318.933C235.018 319.155 234.494 319.268 233.925 319.268C233.199 319.268 232.558 319.117 232 318.816C231.441 318.503 231.001 318.051 230.678 317.46C230.365 316.857 230.209 316.143 230.209 315.317V309.877H232.553V314.983C232.553 315.719 232.737 316.288 233.105 316.69C233.473 317.08 233.975 317.276 234.611 317.276C235.258 317.276 235.766 317.08 236.135 316.69C236.503 316.288 236.687 315.719 236.687 314.983V309.877H239.047ZM252.874 309.743C254.012 309.743 254.928 310.095 255.619 310.798C256.322 311.489 256.674 312.46 256.674 313.71V319.15H254.33V314.028C254.33 313.304 254.146 312.751 253.778 312.371C253.41 311.981 252.908 311.786 252.271 311.786C251.635 311.786 251.128 311.981 250.748 312.371C250.38 312.751 250.196 313.304 250.196 314.028V319.15H247.853V314.028C247.853 313.304 247.668 312.751 247.3 312.371C246.932 311.981 246.43 311.786 245.794 311.786C245.147 311.786 244.634 311.981 244.254 312.371C243.886 312.751 243.702 313.304 243.702 314.028V319.15H241.358V309.877H243.702V310.999C244.003 310.609 244.388 310.301 244.856 310.078C245.337 309.855 245.861 309.743 246.43 309.743C247.156 309.743 247.802 309.899 248.372 310.212C248.941 310.513 249.382 310.949 249.694 311.518C249.995 310.982 250.43 310.552 250.999 310.229C251.58 309.906 252.205 309.743 252.874 309.743Z" fill="black"/>
<path d="M167.703 273.442H29.0454V351.983H167.703V273.442Z" fill="white" stroke="#E8E8E8"/>
<path d="M131.917 309.107V306.948H135.951V319.15H133.541V309.107H131.917ZM140.308 312.689C139.192 312.109 138.634 311.211 138.634 309.995C138.634 309.392 138.785 308.845 139.086 308.354C139.399 307.852 139.862 307.455 140.476 307.166C141.1 306.865 141.859 306.714 142.752 306.714C143.645 306.714 144.398 306.865 145.012 307.166C145.637 307.455 146.1 307.852 146.401 308.354C146.713 308.845 146.87 309.392 146.87 309.995C146.87 310.609 146.719 311.149 146.418 311.618C146.116 312.075 145.715 312.433 145.213 312.689C145.826 312.957 146.306 313.347 146.652 313.861C146.998 314.375 147.171 314.983 147.171 315.686C147.171 316.444 146.976 317.108 146.585 317.677C146.206 318.235 145.681 318.665 145.012 318.966C144.342 319.268 143.589 319.418 142.752 319.418C141.915 319.418 141.162 319.268 140.492 318.966C139.834 318.665 139.309 318.235 138.919 317.677C138.54 317.108 138.35 316.444 138.35 315.686C138.35 314.983 138.523 314.375 138.869 313.861C139.215 313.337 139.694 312.946 140.308 312.689ZM144.593 310.329C144.593 309.782 144.426 309.358 144.091 309.057C143.767 308.756 143.321 308.605 142.752 308.605C142.194 308.605 141.748 308.756 141.413 309.057C141.089 309.358 140.928 309.789 140.928 310.346C140.928 310.848 141.095 311.25 141.43 311.551C141.776 311.852 142.216 312.003 142.752 312.003C143.288 312.003 143.728 311.852 144.074 311.551C144.42 311.238 144.593 310.831 144.593 310.329ZM142.752 313.71C142.116 313.71 141.597 313.873 141.195 314.196C140.805 314.519 140.61 314.983 140.61 315.585C140.61 316.143 140.799 316.601 141.179 316.958C141.569 317.304 142.094 317.477 142.752 317.477C143.41 317.477 143.929 317.298 144.309 316.941C144.688 316.584 144.878 316.132 144.878 315.585C144.878 314.994 144.682 314.536 144.292 314.213C143.901 313.878 143.388 313.71 142.752 313.71Z" fill="black"/>
</g>
<defs>
<filter id="filter0_d_6736_30022" x="0" y="0" width="660" height="545.408" filterUnits="userSpaceOnUse" color-interpolation-filters="sRGB">
<feFlood flood-opacity="0" result="BackgroundImageFix"/>
<feColorMatrix in="SourceAlpha" type="matrix" values="0 0 0 0 0 0 0 0 0 0 0 0 0 0 0 0 0 0 127 0" result="hardAlpha"/>
<feOffset dx="2" dy="16"/>
<feGaussianBlur stdDeviation="15"/>
<feColorMatrix type="matrix" values="0 0 0 0 0 0 0 0 0 0 0 0 0 0 0 0 0 0 0.2 0"/>
<feBlend mode="normal" in2="BackgroundImageFix" result="effect1_dropShadow_6736_30022"/>
<feBlend mode="normal" in="SourceGraphic" in2="effect1_dropShadow_6736_30022" result="shape"/>
</filter>
<filter id="filter1_d_6736_30022" x="23" y="11" width="610" height="495.408" filterUnits="userSpaceOnUse" color-interpolation-filters="sRGB">
<feFlood flood-opacity="0" result="BackgroundImageFix"/>
<feColorMatrix in="SourceAlpha" type="matrix" values="0 0 0 0 0 0 0 0 0 0 0 0 0 0 0 0 0 0 127 0" result="hardAlpha"/>
<feOffset dy="2"/>
<feGaussianBlur stdDeviation="2.5"/>
<feColorMatrix type="matrix" values="0 0 0 0 0.489965 0 0 0 0 0.489965 0 0 0 0 0.570833 0 0 0 0.2 0"/>
<feBlend mode="normal" in2="BackgroundImageFix" result="effect1_dropShadow_6736_30022"/>
<feBlend mode="normal" in="SourceGraphic" in2="effect1_dropShadow_6736_30022" result="shape"/>
</filter>
</defs>
</svg>
