<svg width="128" height="80" fill="none" xmlns="http://www.w3.org/2000/svg"><path fill-rule="evenodd" clip-rule="evenodd" d="M123.077 79.56H4.018C2.302 79.56.91 78.251.91 76.62V16.69h125.292v59.93c-.015 1.632-1.408 2.94-3.124 2.94z" fill="#fff"/><path fill-rule="evenodd" clip-rule="evenodd" d="M126.201 16.25H.91a.44.44 0 0 0-.44.44v59.93C.47 78.499 2.062 80 4.019 80h119.058c1.954 0 3.547-1.498 3.564-3.375V16.69a.44.44 0 0 0-.44-.441zM1.35 17.13H125.76v59.49c-.012 1.378-1.203 2.498-2.684 2.498H3.969c-1.459-.026-2.62-1.136-2.62-2.498V17.13z" fill="#2E186A"/><path fill-rule="evenodd" clip-rule="evenodd" d="M.528 17.704.38 3.38C.38 1.587 1.789.147 3.519.147L123.516 0c1.731 0 3.139 1.455 3.139 3.232v14.472H.528z" fill="#00AC45"/><path fill-rule="evenodd" clip-rule="evenodd" d="M54.235 2.35a3.98 3.98 0 0 1 3.182 1.601l.01.015.01.015 3.816 6.04h65.402a.44.44 0 0 1 .44.414v.026a.44.44 0 0 1-.414.44h-65.67a.44.44 0 0 1-.355-.18l-.017-.024-3.934-6.227-.029-.037a3.1 3.1 0 0 0-2.38-1.2H28.583c-.952 0-1.847.441-2.442 1.2l-.028.037-3.934 6.227a.44.44 0 0 1-.34.204h-.03l-21.368.104a.44.44 0 0 1-.03-.881h.026l21.127-.103 3.817-6.04a.453.453 0 0 1 .01-.015l.01-.015a3.981 3.981 0 0 1 3.115-1.6h25.717z" fill="#fff"/><path fill-rule="evenodd" clip-rule="evenodd" d="M65.205 2.395c1.045 0 1.91.8 1.936 1.806v5.657a.44.44 0 0 1-.88.026V4.246c0-.516-.45-.951-1.02-.97H54.177a.44.44 0 0 1-.026-.88l.026-.001h11.03zM5.618 7.229a1.908 1.908 0 0 0 1.906-1.91c0-1.055-.854-1.91-1.906-1.91a1.908 1.908 0 0 0-1.907 1.91c0 1.055.854 1.91 1.907 1.91zM11.895 7.229a1.908 1.908 0 0 0 1.906-1.91c0-1.055-.853-1.91-1.906-1.91a1.908 1.908 0 0 0-1.907 1.91c0 1.055.854 1.91 1.907 1.91zM18.186 7.229a1.908 1.908 0 0 0 1.907-1.91c0-1.055-.854-1.91-1.907-1.91a1.908 1.908 0 0 0-1.907 1.91c0 1.055.854 1.91 1.907 1.91zM51.835 5.969a.44.44 0 0 1 .6-.06l.021.018 1.745 1.528a.441.441 0 0 1-.557.681l-.022-.017-1.745-1.528a.441.441 0 0 1-.042-.622z" fill="#fff"/><path fill-rule="evenodd" clip-rule="evenodd" d="M53.645 5.935a.44.44 0 0 1 .584.659l-.02.018-1.775 1.484a.44.44 0 0 1-.585-.658l.021-.019 1.775-1.484zM62.407 5.54a.44.44 0 0 1 .436.417v.026l-.014 2.086a.44.44 0 0 1-.88.02v-.026l.015-2.086a.44.44 0 0 1 .443-.438z" fill="#fff"/><path fill-rule="evenodd" clip-rule="evenodd" d="M63.445 6.582a.44.44 0 0 1 .026.881H61.348a.44.44 0 0 1-.026-.88H63.445zM121.581 12.386a.44.44 0 0 1 .025.88l-.025.001h-2.391a.44.44 0 0 1-.026-.88l.026-.002h2.391zM121.581 13.708a.44.44 0 0 1 .025.88l-.025.002h-2.391a.44.44 0 0 1-.026-.881l.026-.001h2.391zM121.581 15.045a.44.44 0 0 1 .025.88l-.025.002h-2.391a.44.44 0 0 1-.026-.881l.026-.001h2.391zM114.996 13.385a.44.44 0 0 0-.425-.323h-.968l-.294-.926a.458.458 0 0 0-.425-.309.439.439 0 0 0-.425.309l-.293.926h-.968a.447.447 0 0 0-.264.808l.777.573-.293.925a.446.446 0 0 0 .161.5.438.438 0 0 0 .528 0l.806-.588.792.456a.444.444 0 0 0 .499-.045.466.466 0 0 0 .147-.484l-.294-.882.734-.426a.484.484 0 0 0 .205-.514zM106.651 15.824H22.454a.727.727 0 0 1-.733-.735v-1.293c0-.411.322-.734.733-.734h84.197c.411 0 .734.323.734.734v1.293a.727.727 0 0 1-.734.735zM7.68 12.62a.44.44 0 0 1 .615.63l-.02.019-1.068.981 1.11 1.013a.441.441 0 0 1 .048.601l-.018.021a.44.44 0 0 1-.6.048l-.021-.018-1.467-1.337a.441.441 0 0 1-.022-.631l.02-.02 1.423-1.308z" fill="#fff"/><path fill-rule="evenodd" clip-rule="evenodd" d="M10.134 13.84a.44.44 0 0 1 .026.881H6.555a.44.44 0 0 1-.026-.88h3.605zM14.695 12.645a.44.44 0 0 1 .601-.042l.021.018 1.408 1.308a.441.441 0 0 1 .018.629l-.02.02-1.467 1.337a.44.44 0 0 1-.613-.633l.02-.02 1.112-1.013-1.056-.982a.441.441 0 0 1-.042-.601l.018-.021z" fill="#fff"/><path fill-rule="evenodd" clip-rule="evenodd" d="M16.426 13.84a.44.44 0 0 1 .026.881h-3.59a.44.44 0 0 1-.026-.88h3.59zM117.82 5.66a.44.44 0 0 1 .868.145l-.004.025-.128.647.698.079c.233.026.403.23.391.461l-.003.026a.44.44 0 0 1-.46.39l-.026-.001-1.173-.133a.44.44 0 0 1-.387-.497l.004-.026.22-1.117z" fill="#fff"/><path fill-rule="evenodd" clip-rule="evenodd" d="M119.489 5.27a.44.44 0 0 1 .539.697l-.022.017-1.716 1.249a.439.439 0 0 1-.614-.098.442.442 0 0 1 .075-.598l.022-.017 1.716-1.25zM121.042 3.387a.44.44 0 0 1 .462-.389l.026.002 1.129.133a.44.44 0 0 1 .385.499l-.004.026-.235 1.16a.44.44 0 0 1-.867-.149l.005-.025.139-.692-.654-.076a.44.44 0 0 1-.388-.463l.002-.026z" fill="#fff"/><path fill-rule="evenodd" clip-rule="evenodd" d="M122.362 3.23a.44.44 0 0 1 .543.693l-.022.017-1.716 1.264a.44.44 0 0 1-.543-.693l.022-.018 1.716-1.263z" fill="#fff"/><path fill-rule="evenodd" clip-rule="evenodd" d="M40.727 58.05h-22.79a1.61 1.61 0 0 1-1.614-1.617V43.827a1.61 1.61 0 0 1 1.613-1.616h22.791c.895 0 1.614.72 1.614 1.616v12.606a1.61 1.61 0 0 1-1.614 1.617z" fill="#CAFFDF"/><path fill-rule="evenodd" clip-rule="evenodd" d="M103.806 37.76H17.439a.805.805 0 0 1-.807-.809v-6.127c0-.455.366-.808.806-.808h86.368c.455 0 .807.368.807.808v6.127c0 .44-.367.808-.807.808z" fill="#fff"/><path fill-rule="evenodd" clip-rule="evenodd" d="M103.806 29.576H17.438c-.687 0-1.247.553-1.247 1.248v6.127c0 .688.553 1.25 1.247 1.25h86.368c.683 0 1.247-.566 1.247-1.25v-6.127c0-.688-.553-1.248-1.247-1.248zm-86.368.881h86.368c.205 0 .367.164.367.367v6.127c0 .197-.17.367-.367.367H17.438a.365.365 0 0 1-.367-.367v-6.127c0-.205.164-.367.367-.367z" fill="#5D21D1"/><path fill="#5D21D1" d="M82.159 29.884h22.366v7.86H82.159z"/><path fill-rule="evenodd" clip-rule="evenodd" d="M96.12 37.392a.314.314 0 0 1-.175-.059L93.92 35.57c-.25.132-.499.235-.778.28-.175.029-.366.058-.542.058a2.704 2.704 0 0 1-2.655-2.175c-.146-.705 0-1.44.396-2.042a2.7 2.7 0 0 1 1.73-1.16c.177-.03.368-.06.543-.06 1.291 0 2.406.912 2.655 2.175a2.716 2.716 0 0 1-.572 2.277l1.907 1.66a.297.297 0 0 1 .073.295.531.531 0 0 1-.147.264l-.058.073a.51.51 0 0 1-.352.177zm-3.52-5.877c-.116 0-.22.015-.336.03a1.62 1.62 0 0 0-1.056.72c-.25.367-.338.822-.25 1.248a1.664 1.664 0 0 0 1.628 1.337c.118 0 .22-.014.338-.03a1.62 1.62 0 0 0 1.055-.72c.25-.366.338-.822.25-1.248a1.652 1.652 0 0 0-1.628-1.337z" fill="#fff"/><path fill-rule="evenodd" clip-rule="evenodd" d="M44.277 35.555h-24.2a.573.573 0 0 1-.571-.573V32.69c0-.308.25-.573.572-.573h24.199c.308 0 .572.25.572.573v2.292a.583.583 0 0 1-.572.573z" fill="#00AC45"/><path fill-rule="evenodd" clip-rule="evenodd" d="M41.446 62.53H16.822a.573.573 0 0 1-.572-.572v-.735c0-.309.25-.573.572-.573h24.624c.308 0 .572.25.572.573v.735a.583.583 0 0 1-.572.573z" fill="#CAFFDF"/><path fill-rule="evenodd" clip-rule="evenodd" d="M72.172 58.05H49.38a1.61 1.61 0 0 1-1.613-1.617V43.827a1.61 1.61 0 0 1 1.613-1.616h22.79c.895 0 1.614.72 1.614 1.616v12.606a1.61 1.61 0 0 1-1.613 1.617zM72.876 62.53h-24.61a.573.573 0 0 1-.572-.572v-.735c0-.309.25-.573.572-.573h24.61c.308 0 .572.25.572.573v.735c0 .323-.25.573-.572.573z" fill="#6CFFA7"/><path fill-rule="evenodd" clip-rule="evenodd" d="M103.615 58.05H80.81a1.61 1.61 0 0 1-1.614-1.617V43.827a1.61 1.61 0 0 1 1.614-1.616h22.79c.895 0 1.614.72 1.614 1.616v12.606a1.598 1.598 0 0 1-1.599 1.617zM104.319 62.53h-24.61a.573.573 0 0 1-.571-.572v-.735c0-.309.249-.573.572-.573h24.609c.308 0 .572.25.572.573v.735a.573.573 0 0 1-.572.573zM42.34 70.024v9.11H16.324v-9.11a1.61 1.61 0 0 1 1.613-1.616h22.791c.895 0 1.614.72 1.614 1.616zM73.785 70.024v9.11H47.768v-9.11a1.61 1.61 0 0 1 1.613-1.616h22.79c.895 0 1.614.72 1.614 1.616zM105.228 70.024v9.11H79.196v-9.11a1.61 1.61 0 0 1 1.614-1.616h22.79c.895 0 1.628.72 1.628 1.616z" fill="#CAFFDF"/><path fill-rule="evenodd" clip-rule="evenodd" d="m78.901 46.787-15.974-10.36c-.797-.514-1.812.177-1.625 1.118l3.79 18.074c.161.77 1.18.947 1.597.281l3.112-5.029 6.086 9.59c.419.553 1.21.659 1.762.24l.612-.458a1.26 1.26 0 0 0 .24-1.763l-5.889-9.338 5.94-.742c.804-.114 1.038-1.174.35-1.613z" fill="#2E186A"/></svg>