<svg xmlns="http://www.w3.org/2000/svg" width="17.45" height="22" viewBox="0 0 17.45 22">
  <g id="keyword_1_" data-name="keyword (1)" transform="translate(0.5 0.5)">
    <path id="Path_10372" data-name="Path 10372" d="M25.45,4.858c-.63-.63-2.31-2.31-2.94-2.87a.134.134,0,0,0-.21.07v2.87a.151.151,0,0,0,.14.14h2.87c.14,0,.21-.14.14-.21Z" transform="translate(-9.7 -1.288)" fill="none" stroke="#707070" stroke-width="1"/>
    <path id="Path_10373" data-name="Path 10373" d="M16.2,6.18a.7.7,0,0,1-.7-.7V1.35A.331.331,0,0,0,15.15,1H6.4A2.063,2.063,0,0,0,4.3,3.1V19.9A2.106,2.106,0,0,0,6.4,22H18.65a2.153,2.153,0,0,0,2.1-2.1V6.53a.331.331,0,0,0-.35-.35Zm-.98,7.07,1.68,1.68a.677.677,0,0,1,0,.98.756.756,0,0,1-.49.21.635.635,0,0,1-.49-.21l-1.68-1.68a3.907,3.907,0,0,1-2.31.7,4.21,4.21,0,0,1-2.87-1.19,3.808,3.808,0,0,1-1.19-2.87A4.21,4.21,0,0,1,9.06,8a4.057,4.057,0,0,1,5.67,0,4.238,4.238,0,0,1,.49,5.25Z" transform="translate(-4.3 -1)" fill="none" stroke="#707070" stroke-width="1"/>
  </g>
</svg>