<svg xmlns="http://www.w3.org/2000/svg" xml:space="preserve" width="2048" height="2048" style="shape-rendering:geometricPrecision;text-rendering:geometricPrecision;image-rendering:optimizeQuality;fill-rule:evenodd;clip-rule:evenodd"><defs><style>.fil1{fill:#7a7a7a}.fil3{fill:#888}</style></defs><g id="Layer_x0020_1"><path d="M1217.9 872.037v64.389h-73.948c-5.3 35.233-19.17 67.655-39.41 95.092l52.304 52.304-45.53 45.529-52.305-52.304c-27.432 20.244-59.858 34.108-95.09 39.41v73.948h-64.388v-73.948c-35.234-5.3-67.656-19.168-95.092-39.41l-52.305 52.304-45.53-45.53 52.304-52.303c-20.243-27.435-34.108-59.86-39.41-95.092h-73.948v-64.389h73.947c5.301-35.233 19.17-67.655 39.41-95.09l-52.304-52.305 45.53-45.531 52.306 52.305c27.432-20.244 59.86-34.108 95.091-39.411v-73.947h64.388v73.947c35.234 5.3 67.656 19.17 95.09 39.411l52.306-52.305 45.53 45.531-52.304 52.304c20.242 27.433 34.107 59.859 39.41 95.091h73.948zm-286.173-96.585c71.121 0 128.777 57.657 128.777 128.78 0 71.122-57.656 128.777-128.777 128.777-71.124 0-128.779-57.655-128.779-128.778 0-71.122 57.656-128.779 128.779-128.779z" style="fill:#767676"/><circle class="fil1" cx="1586.79" cy="485.053" r="117.83"/><path d="m982.339 1344.27 31.775 222.428-67.637 9.625-32.93-230.51c22.929 1.286 45.935.791 68.792-1.543zm545.27-781.776-217.971 125.845c-11.702-19.362-25.07-37.99-40.058-55.71l223.81-129.216 34.22 59.08zM551.583 434.768l121.492 134.094a437.785 437.785 0 0 0-43.793 38.758 433.486 433.486 0 0 0-6.72 6.978L501.056 480.485l50.529-45.717zm96.222 800.431-143.864 158.224-50.529-45.981 147.226-161.92a438.784 438.784 0 0 0 32.417 35.788 438.47 438.47 0 0 0 14.75 13.889z" style="fill:#7a7a7a;fill-rule:nonzero"/><circle class="fil1" cx="467.003" cy="373.829" r="117.83"/><circle class="fil1" cx="398.565" cy="1434.63" r="117.83"/><circle class="fil1" cx="980.296" cy="1674.17" r="117.83"/><path class="fil3" d="m1512.46 1457.37-81.81 77.49-278.94-294.37 81.74-77.51z"/><path d="M526.138 1002.69c13.44 78.393 49.408 153.819 108.209 215.875 158.341 167.085 422.176 174.217 589.251 15.89 104.993-99.504 146.776-240.67 124.054-373.306l-76.62 13.2c18.475 107.917-15.518 222.771-100.921 303.733-135.856 128.737-350.515 122.962-479.354-13.006-47.808-50.478-77.08-111.812-88-175.585l-76.62 13.2zm124.024-373.244c-105.001 99.46-146.769 240.627-124.024 373.244l76.616-13.2c-18.508-107.896 15.46-222.768 100.869-303.677 135.89-128.773 350.592-123.056 479.416 12.85 47.843 50.504 77.095 111.886 87.994 175.686l76.62-13.2c-13.461-78.43-49.43-153.864-108.268-215.98-158.294-167.033-422.087-174.098-589.222-15.723z" style="fill:#bfbfbf"/><path class="fil3" d="M1671.26 1575.88c34.303 36.098 32.719 93.2-3.431 127.422-36.033 34.221-93.098 32.701-127.338-3.485l-263.498-277.997c-34.192-36.12-32.674-93.155 3.396-127.386 36.135-34.236 93.205-32.684 127.42 3.414l263.452 278.032z"/><path class="fil3" d="M1348.26 1297.82c-5.272-30.6-34.519-51.259-65.118-45.986-30.605 5.269-51.25 34.53-45.977 65.13 5.272 30.6 34.52 51.263 65.122 45.99 30.6-5.272 51.245-34.53 45.973-65.134z"/></g><path style="fill:none" d="M0 0h2048v2048H0z"/></svg>