<svg id="Layer_2" data-name="Layer 2" xmlns="http://www.w3.org/2000/svg" width="21" height="21.006" viewBox="0 0 21 21.006">
  <path id="Path_10419" data-name="Path 10419" d="M1,29H21.97v1.4H1Z" transform="translate(-1 -9.392)" fill="#838383"/>
  <path id="Path_10420" data-name="Path 10420" d="M3.1,18.46a2.09,2.09,0,0,0,1.53-3.521L8.205,9.31a1.983,1.983,0,0,0,1.382-.148l2.807,2.807a2.063,2.063,0,0,0-.21.9,2.1,2.1,0,1,0,3.7-1.334l3.635-6.39a2.113,2.113,0,1,0-1.22-.682l-3.618,6.351a2.108,2.108,0,0,0-.4-.041,2.063,2.063,0,0,0-.9.21L10.576,8.174a2.063,2.063,0,0,0,.21-.9,2.1,2.1,0,1,0-4.194,0,2.075,2.075,0,0,0,.442,1.272L3.38,14.294a2.1,2.1,0,0,0-.283-.029,2.1,2.1,0,0,0,0,4.194Zm11.184-4.893a.7.7,0,1,1,.7-.7A.7.7,0,0,1,14.281,13.567ZM19.873,2.383a.7.7,0,1,1-.7.7A.7.7,0,0,1,19.873,2.383ZM8.689,6.577a.7.7,0,1,1-.7.7A.7.7,0,0,1,8.689,6.577ZM3.1,15.664a.7.7,0,1,1-.7.7A.7.7,0,0,1,3.1,15.664Z" transform="translate(-1 -0.949)" fill="#838383"/>
</svg>
