<svg width="592" height="337" viewBox="0 0 592 337" fill="none" xmlns="http://www.w3.org/2000/svg">
<path fill-rule="evenodd" clip-rule="evenodd" d="M25.2143 78.5718C25.2143 78.5718 6.53594 146.558 86.981 182.654L116.922 159.578C116.922 159.578 117.724 79.9339 25.2143 78.5718Z" fill="white"/>
<path fill-rule="evenodd" clip-rule="evenodd" d="M25.2323 77.3702C24.6843 77.3622 24.2002 77.7255 24.0551 78.2537L23.9835 78.5297L23.9666 78.5975C23.8998 78.8673 23.8258 79.1845 23.7464 79.5474C23.5212 80.5769 23.2965 81.7709 23.0872 83.1169C21.9793 90.2428 21.7267 98.4379 22.8594 107.26C24.4097 119.334 28.4094 131.138 35.3888 142.217C45.9192 158.931 62.6425 173.051 86.4889 183.751C86.8932 183.932 87.3646 183.877 87.7156 183.606L117.657 160.53C117.949 160.305 118.122 159.959 118.125 159.591L118.123 159.182C118.12 158.969 118.114 158.71 118.104 158.406C118.076 157.599 118.025 156.68 117.945 155.659C117.722 152.813 117.314 149.671 116.676 146.308C114.874 136.807 111.607 127.326 106.506 118.467C99.9685 107.114 90.8658 97.6074 78.8437 90.5692C64.6977 82.2876 46.9401 77.6899 25.2323 77.3702ZM26.1557 79.7912L26.4705 79.7977C47.1964 80.2687 64.1304 84.7414 77.6282 92.6435C89.2757 99.4623 98.0857 108.663 104.421 119.666C109.378 128.274 112.558 137.504 114.313 146.755C114.934 150.03 115.331 153.086 115.548 155.847C115.617 156.734 115.664 157.538 115.692 158.253L115.708 158.721L115.714 158.992L86.8186 181.262L86.0768 180.924C63.3978 170.494 47.4898 156.913 37.4238 140.936C30.6393 130.167 26.7522 118.695 25.2448 106.954C24.1429 98.3721 24.3886 90.4006 25.4636 83.4862L25.5576 82.8985C25.7157 81.9369 25.8808 81.0658 26.0462 80.2907L26.1274 79.9176L26.1557 79.7912Z" fill="#2E186A"/>
<path fill-rule="evenodd" clip-rule="evenodd" d="M96.681 10.7856C96.681 10.7856 194.321 62.1859 146.183 177.846L92.6728 183.095C92.6728 183.135 9.42194 109.219 96.681 10.7856Z" fill="white"/>
<path fill-rule="evenodd" clip-rule="evenodd" d="M95.7813 9.98886C75.1978 33.2083 62.9505 56.2761 58.067 78.989C53.9272 98.2428 55.1762 116.729 60.8103 134.236C65.1892 147.842 71.9439 160.081 80.0716 170.758C82.9189 174.499 85.7372 177.78 88.3957 180.569L88.8218 181.013C89.5216 181.738 90.1693 182.385 90.7542 182.949L91.1483 183.326C91.2546 183.426 91.3547 183.52 91.4479 183.607L91.888 184.006L91.9663 184.067L92.0626 184.131C92.0888 184.146 92.1241 184.163 92.2302 184.212L92.3007 184.238L92.5531 184.291L92.7817 184.204L92.7905 184.291L146.3 179.043C146.741 179 147.123 178.717 147.293 178.308C160.721 146.045 163.725 116.836 157.923 90.6271C153.238 69.4609 143.042 51.1537 128.993 35.6203C122.06 27.9541 114.632 21.4626 107.203 16.1168C104.724 14.3331 102.411 12.7999 100.319 11.5142L100.007 11.3232C99.3204 10.9049 98.702 10.5407 98.1575 10.2304L97.7432 9.99667L97.2417 9.72251C96.7516 9.46453 96.1486 9.57451 95.7813 9.98886ZM96.3719 12.9582L96.9433 12.3053L97.3274 12.5263C97.7603 12.7771 98.2373 13.0603 98.7555 13.376C100.878 14.6689 103.246 16.2318 105.797 18.0679C113.096 23.3191 120.396 29.6997 127.209 37.2325C140.993 52.4734 150.986 70.4156 155.575 91.1466L155.743 91.9189C161.152 117.177 158.243 145.311 145.467 176.432L145.347 176.721L93.0858 181.847L92.8004 181.579L92.5909 181.38C91.8733 180.693 91.0475 179.866 90.1368 178.911C87.5377 176.184 84.777 172.971 81.9854 169.303C74.0131 158.83 67.3885 146.827 63.0996 133.5C57.5904 116.382 56.3701 98.3209 60.4181 79.4942C65.1152 57.6484 76.7831 35.412 96.3719 12.9582Z" fill="#2E186A"/>
<path fill-rule="evenodd" clip-rule="evenodd" d="M229.273 56.3369C229.273 56.3369 268.353 115.029 203.3 174.521L167.627 162.022C167.627 162.022 141.814 86.6643 229.273 56.3369Z" fill="white"/>
<path fill-rule="evenodd" clip-rule="evenodd" d="M228.879 55.2018C208.189 62.376 192.683 72.4172 181.837 84.8552C172.638 95.4053 167.032 107.391 164.473 120.319C162.485 130.362 162.435 140.392 163.769 149.94C164.214 153.123 164.786 156.038 165.426 158.632L165.522 159.019C165.739 159.878 165.949 160.645 166.147 161.315L166.206 161.513C166.267 161.715 166.323 161.897 166.373 162.057L166.489 162.411C166.608 162.76 166.881 163.035 167.229 163.156L202.902 175.656C203.32 175.802 203.785 175.707 204.111 175.408C225.809 155.566 237.551 134.495 241.029 112.925C243.642 96.7232 241.455 81.4614 236.215 67.8407C234.924 64.4832 233.539 61.4912 232.152 58.9009C231.709 58.0736 231.294 57.3407 230.915 56.7056L230.642 56.2535C230.476 55.9825 230.351 55.7877 230.274 55.6713C229.97 55.2153 229.397 55.0222 228.879 55.2018ZM228.455 57.8983L228.762 57.7897L228.959 58.1206C229.289 58.6813 229.649 59.3202 230.032 60.0348C231.373 62.54 232.716 65.4418 233.971 68.7032C239.068 81.9524 241.194 96.7953 238.655 112.542L238.551 113.173C235.105 133.561 224.035 153.531 203.742 172.476L203.017 173.149L168.589 161.085L168.51 160.823L168.385 160.4C168.216 159.816 168.038 159.159 167.854 158.431C167.196 155.822 166.605 152.861 166.151 149.607C164.851 140.309 164.9 130.544 166.832 120.785C169.312 108.255 174.738 96.655 183.65 86.4343C193.998 74.5671 208.756 64.9075 228.455 57.8983Z" fill="#2E186A"/>
<path fill-rule="evenodd" clip-rule="evenodd" d="M269.356 107.697C269.356 107.697 265.187 190.586 181.135 183.215L161.855 155.211C161.855 155.171 182.137 81.576 269.356 107.697Z" fill="white"/>
<path fill-rule="evenodd" clip-rule="evenodd" d="M215.496 102.924C202.291 105.932 191.206 112.113 182.071 120.772C175.097 127.381 169.644 135.048 165.531 143.125L165.312 143.558C162.775 148.606 160.652 154.362 160.652 155.211C160.652 155.455 160.726 155.692 160.864 155.893L180.144 183.896C180.347 184.192 180.672 184.381 181.029 184.412C201.751 186.23 218.816 182.734 232.526 174.686C244.032 167.931 252.823 158.191 259.242 146.257C263.771 137.838 266.86 128.828 268.777 119.819C269.448 116.666 269.925 113.737 270.24 111.105L270.304 110.563C270.373 109.945 270.43 109.379 270.474 108.866L270.505 108.503L270.542 107.994C270.55 107.88 270.554 107.801 270.556 107.757C270.584 107.205 270.231 106.705 269.701 106.546C249.067 100.366 231.054 99.3801 215.496 102.924ZM267.799 108.491L268.086 108.575L268.039 109.094C267.989 109.617 267.928 110.193 267.853 110.819C267.545 113.381 267.08 116.24 266.425 119.319C264.552 128.119 261.536 136.917 257.124 145.119C250.903 156.686 242.408 166.097 231.309 172.613L230.91 172.845C217.977 180.315 201.932 183.641 182.437 182.117L181.803 182.066L163.17 155.002L163.25 154.748L163.38 154.346C163.561 153.795 163.776 153.178 164.025 152.503C164.915 150.09 166.054 147.439 167.461 144.637C171.481 136.635 176.846 129.037 183.726 122.516C192.558 114.145 203.261 108.176 216.03 105.268C230.863 101.889 248.057 102.747 267.799 108.491Z" fill="#2E186A"/>
<path fill-rule="evenodd" clip-rule="evenodd" d="M184.06 15.8335C184.06 15.8335 255.968 82.3373 186.425 186.62L114.999 181.893C114.999 181.893 71.3492 83.6594 184.06 15.8335Z" fill="white"/>
<path fill-rule="evenodd" clip-rule="evenodd" d="M183.44 14.8041C158.224 29.9782 139.527 47.407 126.7 66.6626C114.174 85.4676 107.582 105.467 105.905 125.989C104.637 141.502 106.236 156.221 109.676 169.496C110.555 172.887 111.495 175.932 112.439 178.596L112.567 178.957C112.882 179.834 113.177 180.612 113.446 181.287L113.624 181.728C113.687 181.882 113.745 182.021 113.798 182.145L113.899 182.381C114.081 182.789 114.473 183.063 114.919 183.092L186.345 187.82C186.775 187.848 187.187 187.645 187.425 187.287C208.698 155.387 218.224 124.997 217.927 96.4031C217.695 74.0879 211.543 54.1276 201.435 36.791C197.825 30.6003 193.956 25.1883 190.085 20.5881C188.727 18.9748 187.465 17.5771 186.33 16.3992L185.899 15.957C185.717 15.7711 185.545 15.5993 185.385 15.4419L185.008 15.0749C184.952 15.0222 184.909 14.9811 184.877 14.9516C184.484 14.5883 183.898 14.5282 183.44 14.8041ZM183.193 17.7658L183.888 17.3425L184.32 17.7796C184.41 17.8718 184.503 17.9675 184.598 18.0667C185.696 19.2065 186.923 20.5642 188.245 22.1355C192.031 26.6342 195.82 31.9347 199.357 38.0013C209.266 54.9965 215.295 74.5569 215.523 96.428L215.529 97.2715C215.625 124.843 206.415 154.163 186.051 185.009L185.808 185.375L115.82 180.743L115.757 180.587C115.478 179.897 115.167 179.081 114.831 178.145C113.869 175.464 112.905 172.365 112.005 168.893C108.628 155.864 107.058 141.41 108.302 126.185C109.947 106.056 116.41 86.4488 128.702 67.9947C141.074 49.4225 159.026 32.5472 183.193 17.7658Z" fill="#2E186A"/>
<path fill-rule="evenodd" clip-rule="evenodd" d="M160.893 66.1924C160.893 66.1924 53.4726 114.908 112.915 180.01L161.855 179.249C161.855 179.249 219.934 137.383 160.893 66.1924Z" fill="white"/>
<path fill-rule="evenodd" clip-rule="evenodd" d="M160.396 65.0982L160.098 65.2358L159.636 65.454C159.025 65.7446 158.318 66.09 157.522 66.4891L156.796 66.8553C154.717 67.9121 152.438 69.1314 150.003 70.5079C142.229 74.903 134.456 79.994 127.195 85.7238C111.742 97.9181 100.732 111.3 96.1234 125.694C90.355 143.713 95.0394 162.216 112.026 180.821C112.258 181.075 112.589 181.217 112.933 181.212L161.873 180.451C162.12 180.447 162.359 180.368 162.558 180.224L162.755 180.078L162.872 179.989C163.115 179.803 163.396 179.582 163.711 179.326C164.605 178.598 165.598 177.733 166.666 176.732C169.711 173.879 172.752 170.502 175.591 166.612C183.791 155.377 188.682 142.221 188.586 127.274C188.464 108.1 180.072 87.4359 161.819 65.4257C161.472 65.0084 160.89 64.8742 160.396 65.0982ZM160.558 67.677L161.03 68.2542C178.208 89.3687 186.065 109.076 186.181 127.29C186.273 141.681 181.563 154.351 173.648 165.195C170.902 168.957 167.961 172.224 165.021 174.979C164.074 175.867 163.191 176.641 162.391 177.299L162.068 177.563L161.72 177.84C161.646 177.898 161.576 177.952 161.509 178.004L161.445 178.053L113.44 178.8L113.802 179.2C97.377 161.211 92.9175 143.596 98.4138 126.427C102.851 112.568 113.574 99.5352 128.685 87.6105C135.841 81.9634 143.514 76.9385 151.187 72.6002L152.028 72.1273C154.255 70.8834 156.34 69.7782 158.245 68.8163L158.6 68.6377C159.147 68.3636 159.65 68.1156 160.107 67.8943L160.558 67.677Z" fill="#2E186A"/>
<path fill-rule="evenodd" clip-rule="evenodd" d="M1.4458 124.203C1.4458 124.203 35.5558 202.966 119.528 194.553L135.521 180.691C135.481 180.691 88.304 97.0405 1.4458 124.203Z" fill="white"/>
<path fill-rule="evenodd" clip-rule="evenodd" d="M65.4881 124.62C81.6333 129.744 96.1803 138.78 109.083 150.619C116.401 157.334 122.731 164.529 128.061 171.732C129.921 174.245 131.521 176.577 132.869 178.679L133.007 178.894C133.278 179.321 133.526 179.717 133.753 180.085L133.971 180.443L119.029 193.394L119.408 193.357C99.0073 195.401 80.5271 192.381 63.8763 185.045C49.944 178.907 37.6916 169.931 27.0513 158.86C19.6549 151.164 13.4696 142.915 8.44672 134.668C6.69 131.784 5.20475 129.107 3.98467 126.708L3.87012 126.482C3.6442 126.035 3.43726 125.616 3.24917 125.227L3.11453 124.948L3.1676 124.932C25.4009 118.244 46.177 118.492 65.4881 124.62ZM136.384 179.789L136.136 179.375L135.917 179.015C135.654 178.583 135.361 178.114 135.036 177.604L134.894 177.382C133.518 175.236 131.887 172.861 129.994 170.302C124.578 162.983 118.147 155.674 110.709 148.849C97.5645 136.787 82.7223 127.568 66.216 122.329C46.0437 115.928 24.3085 115.794 1.08656 123.056C0.405035 123.269 0.0584234 124.025 0.342093 124.68L0.439477 124.9L0.596635 125.244C0.635283 125.328 0.676417 125.416 0.720045 125.51L0.987676 126.074C1.20689 126.531 1.45195 127.028 1.72307 127.565L1.84086 127.797C3.08805 130.25 4.60301 132.98 6.39261 135.918C11.502 144.307 17.7913 152.694 25.3171 160.525C36.1638 171.811 48.6686 180.972 62.9063 187.245C79.9339 194.747 98.8305 197.834 119.648 195.749C119.895 195.724 120.128 195.623 120.316 195.461L136.309 181.599L136.359 181.553C137.095 180.845 136.652 179.601 135.657 179.496L135.593 179.491L135.521 179.489C135.876 179.489 136.15 179.619 136.323 179.742L136.384 179.789Z" fill="#2E186A"/>
<path fill-rule="evenodd" clip-rule="evenodd" d="M224.423 176.044H55.3964C52.1898 176.044 49.5845 178.648 49.5845 181.853V203.046C49.5845 206.251 52.1898 208.855 55.3964 208.855H65.0562L93.8754 335.373H185.303L214.122 208.855H224.463C227.67 208.855 230.275 206.251 230.275 203.046V181.853C230.235 178.648 227.63 176.044 224.423 176.044Z" fill="#5D21D1"/>
<path fill-rule="evenodd" clip-rule="evenodd" d="M211.036 207.613C211.7 207.613 212.238 208.151 212.238 208.815C212.238 209.455 211.738 209.978 211.106 210.015L211.036 210.017H68.3831C67.719 210.017 67.1807 209.479 67.1807 208.815C67.1807 208.175 67.6813 207.652 68.3125 207.615L68.3831 207.613H211.036Z" fill="white"/>
<path fill-rule="evenodd" clip-rule="evenodd" d="M105.98 321.871C106.461 325.196 108.264 329.804 112.633 333.73L113.515 335.693L174.52 335.132C230.996 316.062 330.2 296.392 330.2 296.392L225.104 230.649C225.104 230.649 161.053 245.192 136.562 259.374C112.112 273.596 103.655 305.766 105.98 321.871Z" fill="white"/>
<path fill-rule="evenodd" clip-rule="evenodd" d="M224.838 229.477L223.031 229.895C222.304 230.066 221.498 230.256 220.617 230.467L218.752 230.915C215.898 231.606 212.799 232.374 209.509 233.212C198.016 236.14 186.524 239.323 175.793 242.653L173.856 243.258C158.48 248.096 146.134 252.816 137.837 257.286C137.185 257.637 136.559 257.986 135.959 258.334C124.426 265.042 115.635 276.081 110.119 289.458C105.421 300.849 103.515 313.217 104.789 322.043L104.823 322.268C105.478 326.409 107.676 330.723 111.415 334.243L111.639 334.45L112.418 336.185C112.614 336.62 113.048 336.899 113.526 336.894L174.531 336.334C174.658 336.332 174.785 336.311 174.905 336.27C176.562 335.711 178.268 335.147 180.023 334.578L181.625 334.062C196.153 329.407 213.68 324.51 233.566 319.464C254.25 314.215 276.379 309.08 298.542 304.26L303.117 303.27C309.7 301.851 315.862 300.553 321.49 299.391L325.571 298.552L330.434 297.57C331.502 297.358 331.761 295.95 330.837 295.372L225.742 229.63C225.473 229.461 225.147 229.406 224.838 229.477ZM224.887 231.931L327.001 295.808L322.435 296.741L319.105 297.429C313.354 298.623 307.08 299.951 300.398 301.398L299.654 301.559C277.465 306.369 255.275 311.499 234.492 316.75L232.974 317.134C212.305 322.378 194.172 327.464 179.28 332.291L178.528 332.536C177.528 332.862 176.544 333.187 175.575 333.51L174.317 333.931L114.29 334.483L113.73 333.237C113.661 333.084 113.561 332.948 113.437 332.836C109.805 329.572 107.721 325.515 107.169 321.699C105.961 313.326 107.801 301.386 112.342 290.374C117.669 277.455 126.129 266.833 137.167 260.412C137.743 260.079 138.347 259.741 138.978 259.402L139.492 259.127C147.883 254.688 160.43 249.953 176.023 245.098L176.506 244.948C186.811 241.751 197.83 238.687 208.875 235.855L210.103 235.541C214.112 234.52 217.835 233.603 221.176 232.805L223.335 232.293L224.887 231.931Z" fill="#2E186A"/>
<path fill-rule="evenodd" clip-rule="evenodd" d="M115.599 335.332C88.1832 330.645 95.9993 253.805 142.094 185.939C162.736 152.366 168.708 143.272 184.581 138.064C190.794 136.021 197.447 136.021 204.502 139.146C229.633 150.243 256.288 161.781 238.411 166.869C220.535 171.957 178.368 206.611 178.368 206.611C178.368 206.611 178.769 251.601 176.524 268.027C175.041 279.164 172.115 290.382 169.189 298.515" fill="white"/>
<path fill-rule="evenodd" clip-rule="evenodd" d="M184.205 136.922C190.973 134.697 197.813 134.942 204.712 137.926L209.817 140.18C225.766 147.238 233.934 151.23 239.492 155.092L239.66 155.209C243.323 157.776 245.309 160.035 245.436 162.257C245.584 164.836 243.335 166.683 238.933 167.969L238.741 168.025C232.965 169.669 224.079 174.649 212.994 182.157C210.559 183.806 208.043 185.561 205.46 187.407C199.301 191.811 193.042 196.531 187.013 201.251L185.913 202.114C184.589 203.155 183.343 204.144 182.187 205.07L180.873 206.126L179.575 207.177L179.584 208.774L179.592 210.503C179.624 219.508 179.563 229.642 179.345 239.364L179.293 241.523C179.002 253.092 178.508 262.144 177.768 267.797L177.716 268.186C176.32 278.673 173.538 289.979 170.321 298.921C170.096 299.546 169.407 299.87 168.782 299.646C168.157 299.421 167.833 298.733 168.058 298.108C171.161 289.482 173.861 278.582 175.258 268.418L175.383 267.487C176.134 261.745 176.634 252.318 176.919 240.247L176.961 238.37C177.162 228.96 177.218 219.207 177.187 210.511L177.166 206.622C177.162 206.259 177.324 205.913 177.604 205.683L178.993 204.554L179.753 203.941C181.371 202.639 183.183 201.198 185.158 199.65L185.53 199.358C191.585 194.618 197.87 189.878 204.061 185.452C206.66 183.594 209.193 181.828 211.645 180.167L212.655 179.485C223.252 172.369 231.807 167.597 237.713 165.821L238.432 165.611C241.744 164.62 243.098 163.493 243.035 162.395C242.964 161.155 241.371 159.345 238.279 157.177L237.953 156.951C232.791 153.397 225.127 149.616 210.719 143.21L204.015 140.245C197.573 137.391 191.256 137.134 184.956 139.206C177.151 141.767 171.961 145.249 166.254 151.896L166.042 152.143C160.955 158.124 156.262 165.222 144.254 184.723L143.118 186.568L143.089 186.614C121.517 218.374 107.067 254.19 102.469 284.508C98.1617 312.907 103.305 332.011 115.802 334.147C116.457 334.259 116.897 334.88 116.785 335.535C116.673 336.189 116.051 336.629 115.397 336.517C101.093 334.071 95.6089 313.701 100.091 284.147C104.698 253.773 119.039 218.037 140.448 186.227L141.088 185.279L142.92 182.303C154.357 163.752 159.017 156.724 164.049 150.776L164.21 150.586C170.286 143.444 175.881 139.654 184.205 136.922Z" fill="#2E186A"/>
<path fill-rule="evenodd" clip-rule="evenodd" d="M504.758 334.531L410.043 184.376L225.184 229.567V229.527L192.036 236.738L214.121 324.836L260.176 313.698C266.509 325.957 271.158 334.451 271.158 334.451H504.758V334.531Z" fill="#00AC45"/>
<path fill-rule="evenodd" clip-rule="evenodd" d="M354.85 146.037C354.85 146.037 373.448 145.195 371.203 162.022C368.959 178.848 347.795 170.555 347.795 170.555L348.998 146.758L354.85 146.037Z" fill="white"/>
<path fill-rule="evenodd" clip-rule="evenodd" d="M354.82 144.835L354.795 144.836C354.764 144.837 354.733 144.84 354.703 144.844L348.851 145.565C348.271 145.636 347.826 146.114 347.797 146.697L346.594 170.494C346.568 171.01 346.875 171.485 347.356 171.674L347.519 171.736C347.709 171.806 347.977 171.902 348.316 172.014C349.061 172.263 349.894 172.51 350.795 172.741C353.785 173.507 356.806 173.915 359.655 173.773C366.647 173.424 371.377 169.811 372.395 162.18C373.503 153.877 369.975 148.728 363.547 146.292C361.788 145.626 359.92 145.21 358.034 144.994C356.867 144.86 355.855 144.818 355.076 144.829L354.82 144.835ZM357.76 147.382C359.46 147.577 361.138 147.95 362.694 148.54C368.132 150.599 370.963 154.732 370.011 161.863C369.16 168.242 365.449 171.077 359.535 171.372C356.96 171.5 354.167 171.123 351.392 170.412L351.113 170.34C350.468 170.169 349.865 169.99 349.311 169.811L349.042 169.722L350.148 147.827L354.944 147.236L354.99 147.235C355.682 147.218 356.638 147.253 357.76 147.382Z" fill="#2E186A"/>
<path fill-rule="evenodd" clip-rule="evenodd" d="M298.534 97.0804C293.604 97.0002 259.935 97.0403 258.051 125.244C256.207 153.448 262.14 184.056 266.148 197.958C270.156 211.86 333.967 201.163 337.494 199.681C341.062 198.198 345.11 193.671 345.11 193.671L351.122 150.163C351.162 150.163 351.403 98.0419 298.534 97.0804Z" fill="white"/>
<path fill-rule="evenodd" clip-rule="evenodd" d="M290.261 96.2864C285.542 96.8134 280.958 97.8218 276.723 99.4324C265.16 103.831 257.866 112.018 256.88 124.778L256.852 125.166C256.001 138.183 256.732 152.529 258.714 167.126L258.859 168.174C260.445 179.516 262.723 190.419 264.993 198.291C266.1 202.129 270.669 204.379 278.083 205.456L278.324 205.49C284.413 206.347 292.358 206.413 301.602 205.819L302.082 205.787C316.266 204.845 335.128 201.979 337.961 200.788C338.372 200.617 338.798 200.407 339.234 200.161C340.288 199.565 341.387 198.772 342.511 197.828C343.384 197.094 344.223 196.312 345 195.529L345.263 195.262C345.39 195.131 345.51 195.006 345.622 194.887L345.835 194.66C345.913 194.576 345.97 194.513 346.007 194.472L346.064 194.403C346.191 194.238 346.273 194.043 346.302 193.835L352.008 152.538L352.064 152.713C352.344 153.645 352.43 154.557 352.42 153.594L352.322 149.549C352.312 149.119 352.291 148.616 352.257 148.056L352.243 147.844C352.125 146.032 351.901 143.999 351.544 141.811C350.53 135.579 348.668 129.32 345.746 123.447C341.978 115.874 336.712 109.512 329.736 104.785C321.509 99.2108 311.175 96.1081 298.557 95.8786C296.12 95.839 293.431 95.9324 290.261 96.2864ZM259.209 125.999L259.252 125.324C260.05 113.37 266.714 105.811 277.579 101.679C281.606 100.147 285.997 99.181 290.528 98.675C293.585 98.3337 296.176 98.2437 298.515 98.2817C310.677 98.5029 320.556 101.469 328.387 106.775C334.999 111.255 340 117.297 343.593 124.517C346.398 130.155 348.192 136.188 349.171 142.197C349.514 144.306 349.73 146.262 349.843 147.999L349.856 148.201L349.887 148.773C349.893 148.894 349.898 149.012 349.902 149.125L349.918 149.605L349.83 146.165C349.799 144.482 350.046 148.961 351.123 148.961L351.051 148.963C350.482 148.997 350.011 149.428 349.932 149.998L343.971 193.133L343.767 193.349C343.621 193.501 343.463 193.664 343.293 193.836C342.563 194.57 341.776 195.305 340.963 195.987C339.944 196.843 338.961 197.554 338.051 198.068C337.695 198.268 337.355 198.437 337.033 198.57L336.929 198.61C335.849 198.989 331.087 199.91 325.451 200.771L325.242 200.803C317.693 201.95 309.513 202.885 301.922 203.389C281.925 204.716 268.817 202.872 267.304 197.625L267.097 196.9C264.86 188.955 262.626 178.059 261.097 166.802C259.17 152.607 258.438 138.663 259.209 125.999Z" fill="#2E186A"/>
<path fill-rule="evenodd" clip-rule="evenodd" d="M349.118 186.78L356.453 215.505C361.223 280.887 270.437 285.054 276.129 206.211L329.678 212.941L333.887 191.748L349.118 186.78Z" fill="white"/>
<path fill-rule="evenodd" clip-rule="evenodd" d="M333.514 190.606L333.438 190.633C333.063 190.784 332.787 191.114 332.708 191.514L328.717 211.609L276.279 205.018C275.595 204.932 274.979 205.437 274.929 206.124C273.569 224.97 277.591 240.203 286.005 250.864C293.567 260.445 304.372 265.798 315.909 266.144C327.201 266.482 338.174 261.969 345.996 253.541C354.537 244.337 358.802 231.176 357.653 215.418C357.648 215.347 357.636 215.277 357.619 215.208L350.284 186.483C350.112 185.81 349.406 185.422 348.745 185.638L333.514 190.606ZM348.271 188.321L355.261 215.695L355.254 215.592C356.357 230.705 352.305 243.207 344.233 251.906C336.887 259.822 326.585 264.059 315.982 263.741C305.149 263.416 295.012 258.393 287.893 249.375L287.654 249.068C280.035 239.229 276.255 225.268 277.224 207.932L277.245 207.562L329.529 214.133L329.601 214.14C330.199 214.18 330.74 213.77 330.858 213.175L334.93 192.672L348.271 188.321Z" fill="#2E186A"/>
<path fill-rule="evenodd" clip-rule="evenodd" d="M338.376 148.881C338.376 148.881 334.969 171.757 333.446 180.17C333.446 180.17 312.403 174.521 282.862 176.004C282.862 176.004 266.789 177.366 260.497 179.689C260.497 179.689 263.783 208.935 277.812 223.277C291.841 237.62 319.137 231.61 331.482 221.635C343.828 211.659 345.671 207.172 348.036 197.197C350.401 187.221 355.932 150.284 355.932 150.284L338.376 148.881Z" fill="#968BB4"/>
<path fill-rule="evenodd" clip-rule="evenodd" d="M355.011 155.572C355.011 155.572 363.388 138.265 365.833 124.002C368.157 110.621 361.103 97.1604 348.517 92.0725C337.976 87.7858 334.528 89.188 334.528 89.188C334.528 89.188 340.781 78.0506 324.508 61.665C318.776 55.896 310.84 52.691 302.703 52.8913C282.782 53.4121 276.57 70.2384 276.57 70.2384C276.57 70.2384 255.326 31.0172 211.556 54.0932C207.147 56.4168 202.137 62.907 199.772 67.3138C185.262 93.8753 232.76 125.525 257.531 128.089C284.746 130.893 301.821 127.528 310.118 120.317C303.946 124.643 315.049 164.465 355.011 155.572Z" fill="#2E186A"/>
<path fill-rule="evenodd" clip-rule="evenodd" d="M281.417 163.185C282.274 163.227 282.942 163.934 282.943 164.783L282.941 164.863L281.81 188.302L288.459 186.138C289.274 185.873 290.149 186.296 290.452 187.088L290.48 187.165C290.745 187.981 290.322 188.855 289.53 189.158L289.452 189.185L280.594 192.07C279.55 192.41 278.49 191.626 278.494 190.543L278.496 190.469L279.738 164.709C279.78 163.852 280.487 163.184 281.337 163.184L281.417 163.185Z" fill="#2E186A"/>
<path fill-rule="evenodd" clip-rule="evenodd" d="M296.512 142.186C300.567 141.31 304.129 142.17 307.083 144.13C307.832 144.627 308.484 145.161 309.039 145.698L309.203 145.859C309.462 146.119 309.651 146.332 309.769 146.48C310.321 147.172 310.207 148.18 309.514 148.732C308.822 149.283 307.813 149.169 307.261 148.477C307.202 148.403 307.05 148.234 306.809 148.001C306.389 147.594 305.887 147.184 305.309 146.8C303.035 145.291 300.335 144.639 297.19 145.319C296.325 145.506 295.471 144.956 295.284 144.091C295.097 143.226 295.647 142.373 296.512 142.186Z" fill="#2E186A"/>
<path fill-rule="evenodd" clip-rule="evenodd" d="M269.942 136.188C271.497 135.87 273.105 135.955 274.646 136.282L274.895 136.337C275.293 136.429 275.603 136.519 275.807 136.588C276.645 136.875 277.091 137.787 276.804 138.624C276.526 139.435 275.661 139.879 274.846 139.645L274.673 139.591C274.649 139.584 274.62 139.575 274.587 139.566C274.411 139.516 274.207 139.465 273.981 139.417C272.834 139.174 271.645 139.111 270.585 139.328C269.081 139.635 268.017 140.46 267.404 142.047C267.085 142.873 266.156 143.283 265.33 142.964C264.504 142.646 264.093 141.718 264.412 140.892C265.439 138.235 267.414 136.705 269.942 136.188Z" fill="#2E186A"/>
<path fill-rule="evenodd" clip-rule="evenodd" d="M310.479 195.474C309.076 193.551 295.408 203.126 300.739 204.007C306.07 204.889 313.485 199.6 310.479 195.474Z" fill="#2E186A"/>
<path fill-rule="evenodd" clip-rule="evenodd" d="M253.162 193.712L305.068 176.164C305.068 176.164 312.003 173.52 311.762 164.506C311.522 155.492 300.178 152.127 300.178 152.127L244.825 144.314L253.162 193.712Z" fill="#00AC45"/>
<path fill-rule="evenodd" clip-rule="evenodd" d="M197.608 193.712L249.514 176.164C249.514 176.164 256.448 173.52 256.208 164.506C255.967 155.492 244.624 152.127 244.624 152.127L189.271 144.314L197.608 193.712Z" fill="#00AC45"/>
<path fill-rule="evenodd" clip-rule="evenodd" d="M244.303 195.354C258.448 195.354 269.916 183.892 269.916 169.754C269.916 155.615 258.448 144.154 244.303 144.154C230.158 144.154 218.69 155.615 218.69 169.754C218.69 183.892 230.158 195.354 244.303 195.354Z" fill="#2E186A"/>
<path fill-rule="evenodd" clip-rule="evenodd" d="M188.348 195.715C202.494 195.715 213.961 184.253 213.961 170.115C213.961 155.976 202.494 144.515 188.348 144.515C174.203 144.515 162.736 155.976 162.736 170.115C162.736 184.253 174.203 195.715 188.348 195.715Z" fill="#2E186A"/>
<path fill-rule="evenodd" clip-rule="evenodd" d="M199.452 140.789C205.785 129.491 233.642 125.726 238.812 126.527C243.983 127.288 238.893 137.865 216.647 139.828C216.647 139.828 209.833 139.948 206.346 142.952" fill="white"/>
<path fill-rule="evenodd" clip-rule="evenodd" d="M219.256 127.96L219.752 127.829C227.214 125.881 235.624 124.868 238.881 125.322L238.988 125.338C240.871 125.615 242.013 126.952 241.857 128.753C241.722 130.307 240.638 132.023 238.803 133.63C234.594 137.318 227.088 140.066 217.087 140.994L216.753 141.025L216.335 141.042C216.29 141.045 216.241 141.047 216.189 141.05C215.79 141.074 215.343 141.112 214.861 141.167C213.487 141.324 212.116 141.587 210.848 141.977C209.308 142.451 208.039 143.08 207.131 143.863C206.628 144.296 205.869 144.24 205.435 143.737C205.001 143.234 205.058 142.475 205.561 142.042C206.753 141.015 208.309 140.244 210.14 139.68C211.564 139.242 213.077 138.952 214.587 138.779L215.03 138.732C215.319 138.703 215.595 138.68 215.855 138.663L216.216 138.641L216.579 138.626L216.867 138.601C226.29 137.726 233.269 135.2 237.088 131.935L237.218 131.822C238.628 130.587 239.388 129.384 239.461 128.546C239.503 128.052 239.299 127.813 238.628 127.714C235.801 127.276 227.432 128.283 220.118 130.218L219.88 130.281C210.219 132.873 203.127 136.691 200.501 141.376C200.176 141.955 199.443 142.162 198.864 141.837C198.285 141.513 198.078 140.78 198.403 140.201C201.438 134.787 209.017 130.706 219.256 127.96Z" fill="#2E186A"/>
<path fill-rule="evenodd" clip-rule="evenodd" d="M208.39 137.063C220.094 131.454 245.025 144.475 248.793 148.08C252.601 151.686 242.3 157.375 223.02 146.197C223.02 146.197 217.369 142.392 212.799 142.832" fill="white"/>
<path fill-rule="evenodd" clip-rule="evenodd" d="M207.87 135.979C213.478 133.292 222.024 134.324 231.983 137.988L232.463 138.167C239.746 140.902 247.293 144.981 249.62 147.208C251.006 148.52 251.17 150.271 250.002 151.654C248.996 152.845 247.118 153.621 244.69 153.878C239.121 154.465 231.403 152.393 222.71 147.406L222.416 147.237L222.15 147.066L221.93 146.929C221.814 146.857 221.687 146.781 221.552 146.702C220.905 146.321 220.19 145.94 219.433 145.585C217.849 144.843 216.298 144.318 214.878 144.104C214.172 143.997 213.515 143.97 212.914 144.028C212.253 144.092 211.666 143.608 211.602 142.947C211.538 142.287 212.022 141.699 212.683 141.636C213.492 141.558 214.346 141.592 215.237 141.727C216.916 141.98 218.677 142.576 220.454 143.409C221.283 143.797 222.063 144.213 222.771 144.63L223.071 144.809C223.287 144.939 223.462 145.05 223.592 145.134L223.651 145.174L223.906 145.321C232.098 150.02 239.258 151.972 244.266 151.504L244.438 151.487C246.305 151.29 247.622 150.746 248.165 150.103C248.483 149.726 248.454 149.415 247.961 148.948L247.818 148.816C245.564 146.79 238.307 142.903 231.383 140.329L231.152 140.244C221.756 136.787 213.762 135.822 208.91 138.147C208.311 138.434 207.593 138.181 207.305 137.583C207.018 136.984 207.271 136.266 207.87 135.979Z" fill="#2E186A"/>
<path fill-rule="evenodd" clip-rule="evenodd" d="M195.884 137.063C207.588 131.454 232.519 144.475 236.287 148.08C240.095 151.686 229.794 157.375 210.514 146.197C210.514 146.197 204.863 142.392 200.293 142.832" fill="white"/>
<path fill-rule="evenodd" clip-rule="evenodd" d="M195.365 135.979C200.972 133.292 209.518 134.324 219.477 137.988L219.957 138.167C227.241 140.902 234.787 144.981 237.114 147.208C238.5 148.52 238.665 150.271 237.497 151.654C236.491 152.845 234.613 153.621 232.185 153.878C226.615 154.465 218.898 152.393 210.204 147.406L209.911 147.237L209.645 147.066L209.425 146.929C209.308 146.857 209.182 146.781 209.047 146.702C208.399 146.321 207.685 145.94 206.927 145.585C205.344 144.843 203.792 144.318 202.373 144.104C201.667 143.997 201.009 143.97 200.409 144.028C199.748 144.092 199.16 143.608 199.097 142.947C199.033 142.287 199.517 141.699 200.178 141.636C200.987 141.558 201.84 141.592 202.732 141.727C204.411 141.98 206.172 142.576 207.948 143.409C208.778 143.797 209.557 144.213 210.266 144.63L210.566 144.809C210.782 144.939 210.957 145.05 211.086 145.134L211.146 145.174L211.401 145.321C219.592 150.02 226.752 151.972 231.761 151.504L231.932 151.487C233.8 151.29 235.117 150.746 235.659 150.103C235.978 149.726 235.949 149.415 235.456 148.948L235.313 148.816C233.059 146.79 225.801 142.903 218.877 140.329L218.647 140.244C209.251 136.787 201.256 135.822 196.404 138.147C195.805 138.434 195.087 138.181 194.8 137.583C194.513 136.984 194.766 136.266 195.365 135.979Z" fill="#2E186A"/>
<path fill-rule="evenodd" clip-rule="evenodd" d="M185.583 137.744C197.288 132.135 222.219 145.155 225.986 148.761C229.794 152.367 219.493 158.056 200.214 146.878C200.214 146.878 194.562 143.072 189.993 143.513" fill="white"/>
<path fill-rule="evenodd" clip-rule="evenodd" d="M185.063 136.66C190.671 133.973 199.217 135.005 209.176 138.669L209.656 138.848C216.94 141.583 224.486 145.662 226.813 147.889C228.199 149.201 228.364 150.953 227.195 152.336C226.189 153.526 224.312 154.303 221.884 154.559C216.314 155.146 208.597 153.074 199.903 148.087L199.61 147.918L199.344 147.747L199.124 147.61C199.007 147.538 198.881 147.463 198.746 147.383C198.098 147.002 197.384 146.621 196.626 146.266C195.042 145.524 193.491 144.999 192.072 144.785C191.366 144.678 190.708 144.652 190.108 144.709C189.447 144.773 188.859 144.289 188.795 143.629C188.731 142.968 189.216 142.381 189.877 142.317C190.686 142.239 191.539 142.273 192.431 142.408C194.11 142.661 195.871 143.257 197.647 144.09C198.477 144.479 199.256 144.895 199.965 145.311L200.265 145.49C200.481 145.62 200.655 145.731 200.785 145.815L200.845 145.855L201.099 146.002C209.291 150.702 216.451 152.653 221.459 152.185L221.631 152.168C223.499 151.971 224.815 151.427 225.358 150.785C225.677 150.407 225.647 150.096 225.154 149.629L225.012 149.497C222.757 147.471 215.5 143.585 208.576 141.011L208.345 140.925C198.95 137.468 190.955 136.503 186.103 138.828C185.504 139.115 184.786 138.862 184.499 138.264C184.212 137.665 184.464 136.947 185.063 136.66Z" fill="#2E186A"/>
<path fill-rule="evenodd" clip-rule="evenodd" d="M576.466 63.6679C566.686 59.1409 554.821 62.8266 549.931 71.9208L520.471 126.766L538.869 41.5534C541.033 31.6179 534.059 21.9228 523.357 19.9197C512.655 17.9165 502.233 24.3666 500.069 34.3021L478.184 122.76L480.629 20.12C480.95 9.98415 472.372 1.53096 461.43 1.21046C450.527 0.889961 441.389 8.90247 441.068 19.0383L437.781 122.319L418.782 34.3422C416.618 24.4067 406.196 17.9566 395.494 19.9597C384.792 21.9629 377.818 31.6179 379.983 41.5935L398.38 126.806L368.92 71.9609C364.03 62.8667 352.166 59.1809 342.385 63.708C332.605 68.2351 328.637 79.2523 333.527 88.3465L393.971 200.842L529.61 192.148L585.404 88.3465C590.214 79.2122 586.246 68.195 576.466 63.6679Z" fill="white"/>
<path fill-rule="evenodd" clip-rule="evenodd" d="M439.866 19.0007L436.891 112.499L419.958 34.089C417.675 23.6114 406.825 16.7947 395.612 18.718L395.282 18.7772L394.942 18.8435C383.756 21.113 376.522 31.3163 378.807 41.8486L395.406 118.728L369.979 71.3928C364.841 61.8375 352.492 57.9003 342.191 62.4768L341.889 62.614C331.48 67.4318 327.246 79.2035 332.468 88.9159L392.912 201.411C393.135 201.825 393.579 202.072 394.048 202.042L529.687 193.348C530.101 193.322 530.472 193.083 530.669 192.718L586.463 88.9157C591.551 79.2537 587.452 67.6248 577.28 62.7235L576.979 62.5817L576.668 62.4405C566.371 57.8656 554.016 61.7866 548.872 71.3523L523.445 118.688L540.044 41.8074C542.329 31.3181 535.097 21.0732 523.916 18.8046L523.587 18.7405L523.247 18.6795C512.039 16.7571 501.179 23.5594 498.894 34.0468L479.647 111.84L481.831 20.149C482.17 9.45548 473.245 0.528667 461.81 0.0222367L461.474 0.0098232C449.922 -0.329795 440.208 8.17889 439.866 19.0007ZM461.394 2.41236L461.713 2.42411C471.76 2.86914 479.565 10.58 479.433 19.8026L476.982 122.732C476.947 124.168 479.006 124.443 479.351 123.049L501.236 34.5912C503.267 25.2697 513.062 19.2162 523.135 21.1015L523.446 21.1622C533.34 23.1698 539.685 32.1569 537.693 41.2983L519.295 126.513C519.001 127.874 520.871 128.562 521.53 127.335L550.99 72.4899C555.573 63.9679 566.746 60.494 575.96 64.7591L576.243 64.8929L576.51 65.0241C585.271 69.4114 588.734 79.4427 584.34 87.7872L528.866 190.992L394.664 199.594L334.586 87.7784C330.032 79.3075 333.724 69.0421 342.891 64.7991L343.176 64.6697C352.338 60.5992 363.329 64.1032 367.86 72.5304L397.321 127.376C397.98 128.602 399.849 127.915 399.555 126.553L381.158 41.3405C379.145 32.0649 385.64 23.0275 395.715 21.1416L396.027 21.0857C405.996 19.3759 415.606 25.4139 417.607 34.5984L436.606 122.574C436.905 123.959 438.938 123.775 438.983 122.358L442.27 19.077C442.569 9.61917 451.141 2.11093 461.394 2.41236Z" fill="#2E186A"/>
<path fill-rule="evenodd" clip-rule="evenodd" d="M515.22 195.915L546.925 126.246C551.695 115.75 548.208 102.489 539.149 96.5997C530.091 90.7105 518.868 94.3962 514.098 104.893L495.179 146.397L505.28 99.8447C507.805 88.2667 501.753 76.2479 491.812 72.9628C481.872 69.6777 471.771 76.4082 469.286 87.9862L459.265 134.098L453.975 88.1865C452.612 76.2079 443.233 67.5543 433.092 68.8363C422.951 70.1183 415.816 80.8551 417.179 92.7937L422.63 140.188L410.686 109.38C406.397 98.3224 395.374 93.1543 386.075 97.8817C376.776 102.609 372.688 115.389 376.977 126.446L403.832 195.754" fill="#5D21D1"/>
<path fill-rule="evenodd" clip-rule="evenodd" d="M543.598 180.291H374.05C370.844 180.291 368.238 182.895 368.238 186.1V207.373C368.238 210.578 370.844 213.182 374.05 213.182H384.472L413.291 335.453H504.959L533.778 213.182H543.518C546.725 213.182 549.33 210.578 549.33 207.373V186.1C549.41 182.895 546.805 180.291 543.598 180.291Z" fill="#A1F7C4"/>
<path fill-rule="evenodd" clip-rule="evenodd" d="M529.088 213.062C529.753 213.062 530.291 213.6 530.291 214.263C530.291 214.903 529.79 215.427 529.159 215.463L529.088 215.465H388.28C387.616 215.465 387.077 214.927 387.077 214.263C387.077 213.623 387.578 213.1 388.209 213.064L388.28 213.062H529.088Z" fill="#2E186A"/>
<path fill-rule="evenodd" clip-rule="evenodd" d="M496.381 288.179C490.248 280.607 481.23 268.228 487.322 265.624C493.415 263.02 493.334 269.59 502.513 275.84C511.732 282.089 520.31 283.291 529.449 294.669" fill="white"/>
<path fill-rule="evenodd" clip-rule="evenodd" d="M486.85 264.518C489.551 263.364 491.527 263.683 493.457 265.396C493.902 265.791 494.34 266.247 494.902 266.885L495.253 267.291C495.581 267.676 496.61 268.882 496.987 269.308C498.682 271.225 500.29 272.75 502.325 274.235C502.607 274.442 502.896 274.645 503.188 274.845L503.574 275.104C505.777 276.575 507.586 277.576 511.593 279.635L513.1 280.409C515.033 281.408 516.192 282.034 517.507 282.804C522.497 285.725 526.465 289.034 530.386 293.916C530.802 294.434 530.719 295.19 530.202 295.606C529.684 296.022 528.927 295.939 528.511 295.421C524.86 290.875 521.195 287.788 516.587 285.052L516.038 284.731C514.823 284.026 513.683 283.414 511.794 282.44L509.801 281.416C505.965 279.435 504.193 278.43 501.836 276.833C501.52 276.617 501.209 276.398 500.906 276.176C498.812 274.647 497.137 273.08 495.419 271.163L495.009 270.699C494.44 270.045 493.327 268.738 493.331 268.743L493.106 268.485C492.6 267.909 492.22 267.513 491.86 267.193C490.626 266.099 489.642 265.939 487.795 266.729C485.93 267.526 486.062 270.092 488.335 274.486C490.231 278.149 493.315 282.484 497.316 287.422C497.733 287.938 497.654 288.695 497.137 289.113C496.621 289.53 495.864 289.451 495.446 288.935L494.929 288.293C491.084 283.501 488.104 279.271 486.199 275.59C484.922 273.122 484.195 271.006 484.104 269.243C483.991 267.037 484.898 265.352 486.85 264.518Z" fill="#2E186A"/>
<path fill-rule="evenodd" clip-rule="evenodd" d="M491.371 282.17C475.698 273.636 452.892 273.156 447.44 273.396C439.224 273.757 444.274 290.342 484.677 294.269C484.677 294.269 495.299 295.591 500.269 300.799" fill="white"/>
<path fill-rule="evenodd" clip-rule="evenodd" d="M447.387 272.195L447.823 272.178C452.126 272.029 458.98 272.365 465.738 273.302C475.777 274.694 484.803 277.225 491.946 281.114C492.529 281.431 492.744 282.161 492.426 282.744C492.109 283.327 491.378 283.542 490.795 283.225C484.056 279.555 475.466 277.118 465.88 275.749L465.407 275.683C458.562 274.734 451.614 274.415 447.493 274.596C446.055 274.659 445.343 275.279 445.312 276.294C445.27 277.67 446.375 279.604 448.624 281.595C454.761 287.032 467.081 291.351 484.825 293.076L485.045 293.105C485.2 293.127 485.404 293.158 485.65 293.199C486.289 293.304 486.998 293.439 487.762 293.606C489.945 294.083 492.13 294.724 494.18 295.558C497.053 296.725 499.429 298.177 501.139 299.969C501.597 300.449 501.579 301.21 501.099 301.668C500.618 302.126 499.857 302.108 499.399 301.628C497.956 300.117 495.858 298.834 493.274 297.784C491.364 297.008 489.307 296.404 487.248 295.954C486.617 295.816 486.026 295.702 485.487 295.609L485.259 295.571C485.092 295.543 484.941 295.52 484.807 295.5L484.56 295.464C466.387 293.698 453.601 289.216 447.029 283.394C444.297 280.974 442.841 278.428 442.908 276.22C442.98 273.862 444.763 272.31 447.387 272.195Z" fill="#2E186A"/>
<path fill-rule="evenodd" clip-rule="evenodd" d="M498.665 304.364C489.968 285.935 447.841 279.405 439.664 280.046C431.488 280.687 437.139 298.234 471.73 303.723C471.73 303.723 482.392 304.684 487.523 309.732" fill="white"/>
<path fill-rule="evenodd" clip-rule="evenodd" d="M439.57 278.848C444.846 278.434 458.123 280.488 469.32 283.904C484.64 288.577 495.685 295.233 499.753 303.851C500.036 304.451 499.779 305.168 499.178 305.451C498.578 305.734 497.861 305.477 497.578 304.877C493.882 297.045 483.342 290.694 468.618 286.203L467.96 286.005C457.168 282.788 444.592 280.865 439.758 281.244C436.749 281.48 436.598 284.94 440.547 289.255C445.891 295.097 456.514 300.026 471.464 302.463L471.882 302.53L472.133 302.556C472.232 302.567 472.346 302.581 472.475 302.597L472.68 302.623C473.332 302.708 474.057 302.821 474.837 302.965C477.068 303.377 479.3 303.957 481.395 304.739C484.249 305.805 486.626 307.164 488.366 308.876C488.839 309.341 488.845 310.102 488.379 310.575C487.914 311.048 487.152 311.054 486.679 310.589C485.213 309.146 483.117 307.948 480.553 306.991C478.604 306.263 476.503 305.717 474.401 305.329C473.756 305.21 473.152 305.114 472.601 305.038L472.369 305.007C472.241 304.99 472.122 304.975 472.013 304.962L471.622 304.92L471.542 304.91C455.856 302.421 444.579 297.224 438.772 290.878C436.333 288.211 435.059 285.485 435.159 283.191C435.267 280.722 436.963 279.052 439.57 278.848Z" fill="#2E186A"/>
<path fill-rule="evenodd" clip-rule="evenodd" d="M501.912 319.428C493.655 300.798 452.09 291.985 443.873 292.425C435.656 292.866 439.784 312.296 474.215 318.626C474.215 318.626 484.837 319.828 489.847 324.996" fill="white"/>
<path fill-rule="evenodd" clip-rule="evenodd" d="M443.809 291.225C448.963 290.949 462.113 293.627 473.285 297.644C488.323 303.052 499.152 310.233 503.011 318.941C503.28 319.547 503.006 320.257 502.399 320.526C501.792 320.795 501.082 320.521 500.813 319.914C497.293 311.974 486.941 305.11 472.47 299.906C461.575 295.988 448.717 293.369 443.937 293.625C440.843 293.791 440.379 297.785 444.011 302.593C448.894 309.057 459.149 314.561 473.982 317.36L474.395 317.437L474.641 317.469C474.738 317.482 474.851 317.498 474.978 317.516L475.18 317.547C475.821 317.645 476.535 317.773 477.302 317.932C479.497 318.388 481.693 319.01 483.754 319.827C486.619 320.963 488.994 322.388 490.711 324.16C491.173 324.636 491.161 325.397 490.684 325.859C490.207 326.321 489.446 326.309 488.984 325.832C487.537 324.34 485.441 323.082 482.867 322.061C480.948 321.301 478.881 320.715 476.813 320.286C476.179 320.154 475.585 320.046 475.043 319.959L474.814 319.923C474.647 319.897 474.495 319.875 474.36 319.857L474.08 319.82L473.998 319.808C458.372 316.936 447.424 311.1 442.092 304.041C439.872 301.103 438.827 298.123 439.111 295.676C439.412 293.087 441.194 291.365 443.809 291.225Z" fill="#2E186A"/>
<path fill-rule="evenodd" clip-rule="evenodd" d="M508.004 333.088C499.026 315.941 458.823 304.123 451.088 305.044C443.352 305.966 449.805 319.828 486.6 330.845" fill="white"/>
<path fill-rule="evenodd" clip-rule="evenodd" d="M450.945 303.852C455.434 303.317 468.041 306.461 479.537 311.18C493.998 317.115 504.87 324.51 509.07 332.531C509.378 333.12 509.15 333.846 508.562 334.154C507.973 334.461 507.247 334.234 506.939 333.646C503.073 326.264 492.602 319.14 478.623 313.403L477.953 313.131C466.995 308.71 455.116 305.776 451.23 306.238C449.884 306.399 449.346 306.933 449.399 307.847C449.475 309.171 450.67 311.112 452.971 313.286C458.913 318.902 470.524 324.777 486.945 329.694C487.582 329.884 487.943 330.554 487.752 331.19C487.562 331.826 486.891 332.187 486.255 331.997C469.505 326.981 457.573 320.944 451.319 315.033C448.615 312.478 447.116 310.044 446.998 307.985C446.866 305.697 448.422 304.152 450.945 303.852Z" fill="#2E186A"/>
<path fill-rule="evenodd" clip-rule="evenodd" d="M527.404 291.704C511.572 284.413 496.902 278.083 489.767 284.293C482.312 290.823 473.975 312.577 485.158 328.562" fill="white"/>
<path fill-rule="evenodd" clip-rule="evenodd" d="M486.561 330.845C562.236 351.477 557.306 285.975 491.851 281.889L486.561 330.845Z" fill="white"/>
<path fill-rule="evenodd" clip-rule="evenodd" d="M491.926 280.689C507.536 281.664 520.654 286.159 530.004 293.204C538.538 299.634 543.357 307.853 543.332 315.64C543.307 323.663 538.173 330.27 528.926 333.605C518.761 337.272 504.222 336.906 486.244 332.005C485.604 331.83 485.226 331.169 485.401 330.529C485.575 329.889 486.236 329.511 486.877 329.686C504.416 334.468 518.471 334.821 528.109 331.344C536.445 328.337 540.905 322.598 540.927 315.633C540.949 308.672 536.526 301.129 528.556 295.123C519.6 288.375 506.934 284.035 491.777 283.088C491.114 283.047 490.61 282.477 490.651 281.814C490.691 281.175 491.224 280.684 491.856 280.687L491.926 280.689Z" fill="#2E186A"/>
<path fill-rule="evenodd" clip-rule="evenodd" d="M590.8 334.485C591.378 334.485 591.846 335.048 591.846 335.742C591.846 336.412 591.41 336.959 590.861 336.998L590.8 337H1.04591C0.46827 337 0 336.437 0 335.742C0 335.073 0.435419 334.525 0.984455 334.487L1.04591 334.485H590.8Z" fill="#2E186A"/>
</svg>
