<svg width="273" height="166" viewBox="0 0 273 166" fill="none" xmlns="http://www.w3.org/2000/svg">
<path fill-rule="evenodd" clip-rule="evenodd" d="M9.72081 66.9626C9.72081 66.9626 2.63669 92.8261 33.1741 106.562L44.5453 97.7875C44.5453 97.7875 44.8434 67.4909 9.72081 66.9626Z" fill="white"/>
<path fill-rule="evenodd" clip-rule="evenodd" d="M9.73113 66.2738C9.41757 66.269 9.14053 66.4774 9.05755 66.7804L9.03552 66.8642C9.01336 66.9513 8.98451 67.0721 8.95064 67.225L8.93771 67.2838C8.85139 67.6796 8.76542 68.1379 8.6854 68.6542C8.26205 71.3856 8.166 74.5255 8.59966 77.9056C9.1933 82.5328 10.724 87.0572 13.3944 91.3031C17.4178 97.7005 23.8013 103.101 32.8923 107.191C33.1235 107.294 33.393 107.263 33.5937 107.108L44.965 98.3335C45.1337 98.2034 45.2327 98.0023 45.2331 97.789L45.2322 97.6239C45.227 97.2407 45.202 96.7123 45.1454 96.0564C45.048 94.9285 44.8778 93.6966 44.618 92.3882C43.8949 88.7457 42.6118 85.1307 40.6323 81.765C38.1079 77.4727 34.6154 73.884 30.0265 71.2314C24.6472 68.1218 17.9222 66.397 9.73113 66.2738ZM10.2631 67.6626L10.4849 67.6684C18.0975 67.8816 24.3393 69.535 29.339 72.4251C33.7148 74.9545 37.0394 78.3708 39.4472 82.4647C41.3422 85.6868 42.5741 89.1576 43.2688 92.6571C43.5184 93.9141 43.6817 95.096 43.7749 96.1752C43.809 96.5701 43.8317 96.929 43.8449 97.2483L43.852 97.4525L33.0816 105.763L32.9279 105.693C24.36 101.743 18.3559 96.607 14.5581 90.5684C11.9992 86.4998 10.533 82.1661 9.9639 77.7299C9.54789 74.4873 9.64003 71.4758 10.0446 68.8656C10.1051 68.4752 10.1689 68.1214 10.2332 67.8067L10.2631 67.6626Z" fill="#2E186A"/>
<path fill-rule="evenodd" clip-rule="evenodd" d="M36.8652 41.1682C36.8652 41.1682 73.9365 60.7151 55.6645 104.747L35.3521 106.746C35.3292 106.746 3.71426 78.6312 36.8652 41.1682Z" fill="white"/>
<path fill-rule="evenodd" clip-rule="evenodd" d="M36.3507 40.711C28.5051 49.577 23.8327 58.3911 21.9677 67.0743C20.3852 74.4425 20.8617 81.5181 23.0138 88.2166C24.6861 93.4216 27.2658 98.1022 30.37 102.185C31.4039 103.545 32.4285 104.746 33.4003 105.778L33.8549 106.255C34.719 107.154 35.0424 107.435 35.3522 107.435C35.3746 107.435 35.3971 107.434 35.4194 107.431L55.7318 105.433C55.9841 105.408 56.2024 105.246 56.2997 105.012C61.4143 92.6864 62.5585 81.5201 60.3447 71.498C58.5561 63.4006 54.6654 56.399 49.306 50.4608C46.6617 47.5309 43.8291 45.0504 40.9953 43.0076C40.002 42.2916 39.0786 41.681 38.2484 41.1743L38.0354 41.0455C37.8286 40.9214 37.6403 40.8117 37.4716 40.7162L37.2271 40.5805C37.2111 40.5719 37.1973 40.5645 37.1856 40.5583C36.9054 40.4106 36.5607 40.4736 36.3507 40.711ZM35.4762 105.922C35.2055 105.663 34.893 105.351 34.5484 104.989C33.5654 103.957 32.5205 102.739 31.4641 101.35C28.4489 97.3843 25.9439 92.839 24.3231 87.7944C22.2426 81.3186 21.7825 74.4874 23.3124 67.3643L23.3676 67.111C25.1796 58.9195 29.58 50.5774 36.9219 42.1469L37.0138 42.0417L37.2326 42.1705C37.2962 42.2084 37.3619 42.2478 37.4296 42.2888L37.5327 42.3514C38.3336 42.8402 39.2278 43.4315 40.1918 44.1264C42.9504 46.1149 45.7104 48.5318 48.2856 51.3852C53.4937 57.1557 57.268 63.948 59.0016 71.7959L59.0651 72.0884C61.0883 81.5569 60.0328 92.0985 55.3253 103.76L55.1863 104.102L35.3908 106.049L35.3982 106.045C35.4952 105.977 35.1552 105.619 35.1708 105.629L35.4762 105.922Z" fill="#2E186A"/>
<path fill-rule="evenodd" clip-rule="evenodd" d="M87.1877 58.51C87.1877 58.51 102.021 80.8362 77.3295 103.484L63.7803 98.7293C63.7803 98.7293 53.9909 70.0636 87.1877 58.51Z" fill="white"/>
<path fill-rule="evenodd" clip-rule="evenodd" d="M86.962 57.859C75.5425 61.8334 68.3052 68.0709 64.6007 75.9552C62.8651 79.649 61.9748 83.5701 61.7838 87.5922C61.6388 90.6478 61.9028 93.5567 62.4322 96.1982C62.5704 96.8874 62.7178 97.5109 62.8664 98.0617L62.9451 98.3468C63.0255 98.6308 63.0892 98.8346 63.1295 98.9523C63.1977 99.1523 63.3538 99.3098 63.5529 99.3796L77.1021 104.134C77.3412 104.218 77.607 104.164 77.7939 103.992C86.0668 96.404 90.5498 88.3378 91.8784 80.077C92.877 73.868 92.0413 68.0207 90.0387 62.803C89.5449 61.5163 89.0152 60.3694 88.4844 59.3758L88.3618 59.1491C88.2412 58.9289 88.1266 58.7282 88.0195 58.5476L87.864 58.291C87.8192 58.2188 87.7843 58.1644 87.7602 58.1281C87.5865 57.8666 87.2582 57.7559 86.962 57.859ZM86.892 59.3452L86.9392 59.4264L87.0457 59.6134C87.1181 59.7424 87.1936 59.88 87.2716 60.0261C87.7764 60.9709 88.2822 62.0662 88.7548 63.2977C90.6757 68.3024 91.477 73.9095 90.5204 79.8578L90.4811 80.0962C89.182 87.8021 85.0069 95.3554 77.3436 102.532L77.1667 102.697L64.333 98.1929L64.3093 98.1124C64.2849 98.0286 64.2592 97.9384 64.2325 97.842C64.079 97.2868 63.9249 96.6454 63.7809 95.9269C63.2725 93.3902 63.0186 90.5925 63.1579 87.6577C63.3407 83.8079 64.191 80.0631 65.8453 76.5422C69.3164 69.1546 76.0572 63.2571 86.7536 59.3948L86.892 59.3452Z" fill="#2E186A"/>
<path fill-rule="evenodd" clip-rule="evenodd" d="M102.41 78.0569C102.41 78.0569 100.829 109.617 68.9156 106.791L61.6023 96.1337C61.6023 96.1337 69.3054 68.1111 102.41 78.0569Z" fill="white"/>
<path fill-rule="evenodd" clip-rule="evenodd" d="M82.2471 75.9399C77.2344 77.024 73.0034 79.2994 69.4966 82.513C66.7467 85.033 64.5862 87.9902 62.9449 91.1391C62.3554 92.2702 61.8703 93.3572 61.481 94.3699L61.3995 94.5843C61.1901 95.1426 61.0425 95.5914 60.9509 95.9096L60.9407 95.9454C60.8848 96.1428 60.9195 96.355 61.0356 96.5241L68.3489 107.182C68.4652 107.351 68.6508 107.46 68.8552 107.478C76.771 108.179 83.2998 106.841 88.5488 103.752C92.9563 101.159 96.3227 97.4192 98.7782 92.8397C100.507 89.6149 101.686 86.166 102.418 82.7179C102.674 81.5109 102.856 80.3894 102.976 79.3812L103.006 79.1227C103.029 78.9135 103.048 78.7199 103.064 78.5427L103.085 78.2886C103.091 78.2 103.095 78.1339 103.097 78.0914C103.113 77.7746 102.911 77.4879 102.608 77.3968C94.8871 75.0772 88.119 74.6699 82.2471 75.9399ZM101.482 78.5022L101.681 78.5597L101.674 78.6309C101.657 78.8107 101.636 79.0064 101.61 79.2173C101.495 80.1856 101.319 81.2665 101.072 82.4313C100.366 85.7598 99.2286 89.0875 97.5664 92.1875C95.2239 96.5562 92.0273 100.107 87.8521 102.564L87.7019 102.652C82.834 105.47 76.7892 106.724 69.4329 106.143L69.2981 106.132L62.3565 96.0163L62.4169 95.8318C62.5132 95.542 62.6288 95.2185 62.7646 94.8652C63.1357 93.8996 63.5997 92.8601 64.1642 91.7771C65.7355 88.7622 67.8025 85.9332 70.425 83.5299C73.7572 80.4763 77.7705 78.3179 82.5373 77.287C87.9882 76.1081 94.2808 76.4377 101.482 78.5022Z" fill="#2E186A"/>
<path fill-rule="evenodd" clip-rule="evenodd" d="M70.039 43.0977C70.039 43.0977 97.3438 68.4099 70.9331 108.078L43.8117 106.286C43.8117 106.286 27.2362 68.8922 70.039 43.0977Z" fill="white"/>
<path fill-rule="evenodd" clip-rule="evenodd" d="M69.6846 42.507C60.0656 48.3038 52.933 54.9687 48.042 62.3374C43.2737 69.5213 40.7643 77.1633 40.1273 85.0043C39.6458 90.9308 40.2555 96.5535 41.5672 101.626C41.9179 102.982 42.2941 104.194 42.671 105.247L42.758 105.487C42.8578 105.759 42.9517 106.003 43.0382 106.218L43.1483 106.485C43.1622 106.518 43.1739 106.545 43.1832 106.566C43.2869 106.8 43.5115 106.957 43.7665 106.974L70.8879 108.765C71.1334 108.782 71.3688 108.665 71.5053 108.46C79.6096 96.2878 83.2419 84.6806 83.1291 73.7532C83.041 65.2199 80.6932 57.5861 76.8357 50.9558C75.4582 48.5882 73.9817 46.518 72.5036 44.7577C72.0246 44.1872 71.5764 43.6868 71.1686 43.2578L71.0674 43.152C70.9361 43.0154 70.817 42.8947 70.7111 42.7899L70.5199 42.6046L70.5062 42.5918C70.2816 42.3836 69.9467 42.349 69.6846 42.507ZM69.5553 44.1993L69.9374 43.9646L70.0767 44.108C70.4902 44.5381 70.9523 45.051 71.4509 45.6448C72.8802 47.347 74.3111 49.3533 75.6472 51.6498C79.3908 58.0843 81.6681 65.4888 81.7536 73.7675L81.7558 74.087C81.7913 84.4261 78.3768 95.4184 70.8283 106.986L70.5805 107.364L44.2836 105.627L44.2053 105.427C44.1302 105.232 44.0501 105.017 43.9658 104.781C43.6026 103.767 43.2387 102.595 42.8987 101.28C41.6235 96.3485 41.0302 90.8776 41.4983 85.1161C42.1169 77.5007 44.5526 70.0832 49.1874 63.1005C53.8199 56.1211 60.5303 49.7718 69.5553 44.1993Z" fill="#2E186A"/>
<path fill-rule="evenodd" clip-rule="evenodd" d="M61.2355 62.2539C61.2355 62.2539 20.4502 80.7902 43.0093 105.574L61.6023 105.298C61.6023 105.276 83.6571 89.3577 61.2355 62.2539Z" fill="white"/>
<path fill-rule="evenodd" clip-rule="evenodd" d="M62.29 105.299L62.2911 105.309C62.3121 105.407 62.6396 105.23 62.9867 105.013L63.1275 104.923L63.2286 104.833C63.3457 104.727 63.4655 104.616 63.588 104.501C64.7556 103.401 65.9188 102.106 67.0051 100.613C70.1468 96.2974 72.0205 91.2449 71.9838 85.5031C71.9368 78.1491 68.7296 70.2333 61.7649 61.8143C61.567 61.5751 61.2337 61.4982 60.9513 61.6265L60.7184 61.7353L60.4769 61.8511C60.3197 61.9272 60.1485 62.0113 59.9639 62.1035L59.8516 62.1598C58.9863 62.5947 58.023 63.1072 56.9862 63.6947C54.0245 65.3729 51.0628 67.3169 48.2954 69.5058C42.3955 74.1724 38.187 79.2987 36.42 84.829C34.2026 91.7688 36.0007 98.8972 42.5011 106.039L42.5327 106.071C42.6629 106.196 42.8376 106.266 43.0194 106.263L59.5302 106.018L59.4119 106.111C59.3896 106.13 59.3969 106.127 59.4267 106.107L59.5584 106.018L61.6124 105.988C61.9748 105.982 62.2684 105.697 62.2889 105.339L62.29 105.299ZM62.1327 105.759L63.8057 104.475C63.9053 104.394 63.624 104.597 63.2776 104.825L63.1274 104.923L63.1123 104.937C62.9201 105.109 62.7356 105.268 62.5593 105.414L62.4546 105.501C62.3354 105.599 62.23 105.683 62.1327 105.759ZM61.0447 63.1067L61.1078 63.1843C67.6002 71.1843 70.5644 78.6357 70.6084 85.5119C70.643 90.9351 68.8726 95.7091 65.8938 99.8012C64.8606 101.221 63.7541 102.453 62.646 103.496C62.2998 103.822 61.9769 104.107 61.6807 104.354L61.5189 104.487L61.3994 104.583L61.3618 104.613L43.3103 104.881L43.1521 104.703C37.2728 98.0564 35.7096 91.5727 37.7301 85.2492C39.3991 80.0257 43.4433 75.0996 49.1478 70.5875C51.8552 68.4461 54.7593 66.5399 57.6635 64.8943C58.6797 64.3185 59.6229 63.8166 60.4684 63.3917L60.7861 63.2334L61.0447 63.1067Z" fill="#2E186A"/>
<path fill-rule="evenodd" clip-rule="evenodd" d="M0.688049 84.3275C0.688049 84.3275 13.6412 114.303 45.5083 111.11L51.5837 105.827C51.5837 105.827 33.6785 73.9913 0.688049 84.3275Z" fill="white"/>
<path fill-rule="evenodd" clip-rule="evenodd" d="M0.482772 83.6699C0.0928842 83.792 -0.105419 84.2257 0.0568853 84.6013L0.120847 84.7447L0.20322 84.9231C0.321918 85.1772 0.464811 85.4708 0.632226 85.8008C1.10854 86.7396 1.68678 87.7841 2.3696 88.9078C4.31839 92.1149 6.71679 95.3211 9.58697 98.315C13.7244 102.631 18.495 106.135 23.928 108.536C30.4265 111.408 37.6375 112.591 45.5767 111.795C45.7182 111.781 45.8518 111.724 45.9591 111.63L52.0345 106.347C52.2813 106.133 52.3433 105.774 52.1829 105.489L52.0908 105.329L52.019 105.208C51.8867 104.987 51.7289 104.731 51.5456 104.443C51.0242 103.625 50.402 102.715 49.68 101.736C47.6195 98.9405 45.169 96.1464 42.3336 93.5374C37.3219 88.9257 31.6584 85.3992 25.3558 83.3944C17.6513 80.9436 9.34833 80.8922 0.482772 83.6699ZM24.9395 84.7079C31.0355 86.647 36.5301 90.0683 41.4031 94.5524C44.1696 97.098 46.5626 99.8267 48.5735 102.554C49.2765 103.508 49.8811 104.393 50.3862 105.185L50.4511 105.287C50.5147 105.388 50.5748 105.484 50.6314 105.575L50.6983 105.684L45.2233 110.445L44.9275 110.473C37.4294 111.144 30.6266 109.99 24.4831 107.275C19.2248 104.951 14.5984 101.553 10.579 97.3604C7.78283 94.4436 5.44389 91.3169 3.54454 88.1912C2.92202 87.1667 2.38982 86.2116 1.94603 85.3479L1.80582 85.0722L1.70593 84.872L1.64841 84.7552L1.66525 84.7503C9.96809 82.2976 17.7252 82.4131 24.9395 84.7079Z" fill="#2E186A"/>
<path fill-rule="evenodd" clip-rule="evenodd" d="M85.3536 104.058H21.1839C19.9688 104.058 18.983 105.046 18.983 106.263V114.325C18.983 115.543 19.9688 116.53 21.1839 116.53H24.852L35.7877 164.674H70.4976L81.4333 116.53H85.3536C86.5687 116.53 87.5545 115.543 87.5545 114.325V106.263C87.5545 105.046 86.5687 104.058 85.3536 104.058Z" fill="#A1F7C4"/>
<path fill-rule="evenodd" clip-rule="evenodd" d="M80.2642 115.842C80.644 115.842 80.952 116.15 80.952 116.531C80.952 116.898 80.6656 117.198 80.3046 117.218L80.2642 117.22H26.113C25.7332 117.22 25.4252 116.911 25.4252 116.531C25.4252 116.164 25.7116 115.864 26.0726 115.843L26.113 115.842H80.2642Z" fill="#2E186A"/>
<path fill-rule="evenodd" clip-rule="evenodd" d="M203.056 47.8979C202.666 48.0817 194.894 48.5181 191.134 48.7248C189.919 48.7938 188.842 49.5517 188.36 50.6772L186.503 55.0644" fill="white"/>
<path fill-rule="evenodd" clip-rule="evenodd" d="M202.763 47.2745C203.106 47.1124 203.516 47.2602 203.678 47.6046C203.84 47.9489 203.692 48.3594 203.348 48.5215C202.897 48.7344 199.201 48.9715 191.173 49.4129C190.242 49.4656 189.413 50.0341 189.022 50.8807L188.993 50.9463L187.136 55.3335C186.988 55.6838 186.584 55.8474 186.234 55.6988C185.897 55.5556 185.733 55.1743 185.855 54.8331L185.87 54.7954L187.728 50.4058C188.312 49.0404 189.619 48.1206 191.096 48.0368L194.357 47.8531C199.024 47.5831 202.532 47.3481 202.756 47.277L202.763 47.2745Z" fill="#2E186A"/>
<path fill-rule="evenodd" clip-rule="evenodd" d="M199.25 51.4355C199.25 51.4355 205.325 47.9671 206.632 49.4831C207.916 50.999 207.274 52.8366 202.345 54.3296C197.416 55.7996 199.25 51.4355 199.25 51.4355Z" fill="white"/>
<path fill-rule="evenodd" clip-rule="evenodd" d="M202.83 49.0078C202.337 49.1866 201.82 49.3993 201.288 49.6389C200.707 49.9005 200.138 50.1801 199.605 50.4598L199.338 50.6014C199.282 50.6315 199.227 50.6608 199.176 50.6892L198.91 50.8366C198.778 50.9117 198.675 51.0282 198.616 51.1679C198.564 51.292 198.492 51.4922 198.421 51.7461C198.3 52.1778 198.227 52.6131 198.228 53.0354C198.233 54.9629 199.717 55.8322 202.541 54.9899C205.015 54.2408 206.61 53.358 207.372 52.3243C208.145 51.2761 208.039 50.1178 207.206 49.0959L207.153 49.0325C206.368 48.1225 204.897 48.2591 202.83 49.0078ZM206.108 49.9288C206.596 50.5053 206.647 50.9876 206.265 51.5054C205.718 52.247 204.359 52.9997 202.146 53.6699C201.004 54.0104 200.28 54.0126 199.921 53.8028C199.709 53.6785 199.605 53.4341 199.604 53.032C199.603 52.7532 199.656 52.4375 199.745 52.1183L199.782 51.9941L199.808 51.9131L200.07 51.7722C200.125 51.7426 200.183 51.7122 200.242 51.681C200.753 51.4132 201.298 51.1454 201.852 50.8959C202.354 50.6698 202.839 50.47 203.298 50.3038L203.474 50.2414C204.865 49.758 205.842 49.671 206.097 49.9175L206.108 49.9288Z" fill="#2E186A"/>
<path fill-rule="evenodd" clip-rule="evenodd" d="M198.264 56.121C198.264 56.121 204.34 52.6526 205.646 54.1686C206.953 55.6846 206.288 57.5221 201.359 59.0152C196.43 60.5082 198.264 56.121 198.264 56.121Z" fill="white"/>
<path fill-rule="evenodd" clip-rule="evenodd" d="M201.844 53.6936C201.351 53.8724 200.834 54.0851 200.302 54.3247C199.721 54.5862 199.153 54.8659 198.619 55.1456L198.352 55.2871C198.296 55.3173 198.242 55.3466 198.19 55.3749L197.924 55.5224C197.792 55.5977 197.688 55.7146 197.63 55.8549C197.578 55.9794 197.506 56.1803 197.435 56.4352C197.315 56.8668 197.242 57.302 197.243 57.724C197.245 59.6602 198.73 60.5315 201.558 59.6749L201.829 59.5911C204.148 58.8605 205.657 58.0051 206.394 57.0113C207.188 55.9397 207.059 54.7526 206.167 53.7183C205.383 52.8083 203.911 52.9449 201.844 53.6936ZM205.126 54.6192C205.621 55.1929 205.673 55.6722 205.289 56.1899C204.74 56.9312 203.375 57.6848 201.16 58.3557C200.015 58.7025 199.291 58.707 198.934 58.4978C198.723 58.3739 198.619 58.1277 198.618 57.7223C198.618 57.4425 198.671 57.1258 198.76 56.8057L198.784 56.7216L198.809 56.6409L198.822 56.5987L199.084 56.458C199.139 56.4284 199.197 56.398 199.257 56.3668C199.767 56.099 200.312 55.8312 200.866 55.5817C201.368 55.3556 201.853 55.1558 202.312 54.9896L202.488 54.9271C203.88 54.4438 204.856 54.3568 205.111 54.6033L205.126 54.6192Z" fill="#2E186A"/>
<path fill-rule="evenodd" clip-rule="evenodd" d="M196.43 57.66C196.43 57.66 203.308 56.3967 204.042 58.2572C204.775 60.1177 203.537 61.6337 198.402 61.427C193.266 61.1743 196.43 57.66 196.43 57.66Z" fill="white"/>
<path fill-rule="evenodd" clip-rule="evenodd" d="M200.246 56.5605C199.449 56.5848 198.601 56.6588 197.744 56.7669C197.426 56.8071 197.125 56.8496 196.848 56.8926L196.584 56.9347L196.32 56.9798L196.306 56.9823C196.157 57.0097 196.021 57.0858 195.919 57.1986L195.853 57.2744C195.714 57.438 195.538 57.6727 195.362 57.96C195.055 58.4607 194.848 58.9674 194.792 59.4761C194.624 61.024 195.844 61.9912 198.368 62.1153L198.652 62.1252C201.082 62.1958 202.787 61.8834 203.809 61.1872C204.911 60.4364 205.182 59.2735 204.681 58.0041C204.217 56.8266 202.652 56.4872 200.246 56.5605ZM203.402 58.5105C203.679 59.2137 203.57 59.6838 203.036 60.0476C202.273 60.5676 200.737 60.8315 198.429 60.7386L198.252 60.7286C196.576 60.6215 196.095 60.2189 196.16 59.6254C196.19 59.353 196.324 59.0236 196.534 58.6815L196.59 58.5934C196.646 58.5065 196.704 58.423 196.763 58.3442L196.8 58.2957L196.927 58.2752L197.193 58.2341C197.42 58.2 197.662 58.1663 197.916 58.1343C198.733 58.0312 199.539 57.9608 200.288 57.938L200.481 57.9333C202.16 57.9023 203.261 58.1529 203.402 58.5105Z" fill="#2E186A"/>
<path fill-rule="evenodd" clip-rule="evenodd" d="M194.711 67.1232C193.518 77.758 182.285 108.813 171.739 109.938C160.39 111.132 156.401 100.222 165.136 90.9424C173.848 81.6628 180.107 69.5809 183.775 62.9428C183.775 62.9428 183.592 54.0077 186.434 53.7781C189.231 53.5024 194.711 67.1232 194.711 67.1232Z" fill="white"/>
<path fill-rule="evenodd" clip-rule="evenodd" d="M186.367 53.0924C184.68 53.2286 183.817 55.1395 183.377 58.2131C183.233 59.2154 183.148 60.2863 183.109 61.3635C183.097 61.6945 183.089 62.0088 183.086 62.3012L183.085 62.7049L183.085 62.7686L181.145 66.3046L180.732 67.0538C180.012 68.3554 179.366 69.5049 178.705 70.6553C176.657 74.2191 174.677 77.4149 172.596 80.444C170.014 84.2031 167.376 87.551 164.635 90.4704C155.542 100.13 159.71 111.897 171.811 110.623C176.929 110.077 182.335 103.23 187.356 92.3867C191.418 83.6159 194.745 72.9912 195.394 67.2002C195.407 67.0867 195.391 66.9717 195.349 66.8657L195.142 66.363L194.977 65.9698C194.819 65.5946 194.645 65.1896 194.457 64.7609C193.768 63.1852 193.034 61.6093 192.286 60.1361C191.657 58.8973 191.045 57.7862 190.458 56.8333L190.354 56.6668C188.844 54.2506 187.598 52.9711 186.367 53.0924ZM186.49 54.465C186.959 54.4188 187.985 55.4718 189.188 57.3981C189.783 58.3489 190.411 59.483 191.06 60.7612C191.795 62.2082 192.518 63.761 193.197 65.3141L193.353 65.6707C193.479 65.9628 193.599 66.2421 193.71 66.5061L193.933 67.0392L194.007 67.2193L193.986 67.3898C193.265 73.092 190.032 83.3335 186.108 91.8067C181.292 102.209 176.104 108.779 171.666 109.253C160.951 110.381 157.351 100.217 165.636 91.4153C168.429 88.4404 171.11 85.0386 173.729 81.2254C175.755 78.2762 177.683 75.1753 179.668 71.7407L179.897 71.3429C180.562 70.1855 181.211 69.03 181.935 67.7226L184.377 63.2766C184.435 63.1707 184.465 63.0512 184.463 62.9302L184.46 62.6985C184.46 62.6266 184.46 62.5448 184.461 62.4537L184.464 62.1731C184.467 61.9334 184.474 61.6794 184.483 61.414C184.521 60.3818 184.603 59.3575 184.738 58.4087L184.771 58.1874C185.126 55.8937 185.767 54.5234 186.49 54.465Z" fill="#2E186A"/>
<path fill-rule="evenodd" clip-rule="evenodd" d="M186.847 65.6533L196.865 69.5811C197.714 69.9027 198.654 69.4892 198.975 68.6623L207.48 46.9103C207.801 46.0605 207.388 45.1187 206.563 44.7972L196.544 40.8694C195.696 40.5478 194.756 40.9613 194.435 41.7882L185.93 63.5402C185.609 64.3671 186.022 65.3088 186.847 65.6533Z" fill="#2E186A"/>
<path fill-rule="evenodd" clip-rule="evenodd" d="M188.818 64.1832L195.65 66.8707C196.499 67.1922 197.439 66.7788 197.76 65.9519L204.913 47.6683C205.233 46.8184 204.821 45.8767 203.995 45.5551L197.164 42.8677C196.315 42.5461 195.375 42.9596 195.054 43.7865L187.901 62.0701C187.58 62.9199 187.993 63.8617 188.818 64.1832Z" fill="white"/>
<path fill-rule="evenodd" clip-rule="evenodd" d="M194.413 43.5367L187.258 61.8262C186.805 63.0257 187.388 64.3653 188.569 64.8254L195.399 67.512C196.604 67.969 197.941 67.3848 198.401 66.2016L205.553 47.9197C206.009 46.7126 205.426 45.373 204.245 44.9129L197.415 42.2263C196.21 41.7693 194.873 42.3535 194.413 43.5367ZM196.92 43.5122L203.744 46.1965C204.219 46.3816 204.457 46.9277 204.269 47.4244L197.119 65.7005C196.935 66.1761 196.39 66.4142 195.894 66.2262L189.07 63.5419L189.026 63.5235C188.595 63.3292 188.377 62.8289 188.528 62.3607L188.543 62.3186L195.695 44.0379C195.879 43.5623 196.424 43.3242 196.92 43.5122Z" fill="#2E186A"/>
<path fill-rule="evenodd" clip-rule="evenodd" d="M187.328 60.0488C187.879 58.9693 188.727 57.7519 190.034 56.7183C196.613 56.2589 194.894 53.7093 192.968 52.6298C190.974 51.5272 187.902 52.0326 186.045 53.8242" fill="white"/>
<path fill-rule="evenodd" clip-rule="evenodd" d="M185.568 53.3276C187.624 51.3436 191.021 50.766 193.304 52.0282C194.647 52.7809 195.574 53.9016 195.367 55.0307C195.124 56.3569 193.491 57.1171 190.451 57.3769L190.299 57.3891L190.222 57.4537C189.288 58.2451 188.56 59.1862 188.009 60.2309L187.941 60.3621C187.768 60.701 187.354 60.8355 187.016 60.6624C186.677 60.4893 186.543 60.0742 186.716 59.7353C187.406 58.3822 188.353 57.1695 189.608 56.1773C189.716 56.0914 189.848 56.0403 189.986 56.0307C192.685 55.8423 193.919 55.3035 194.014 54.7821C194.082 54.4109 193.515 53.7259 192.636 53.2329C190.903 52.275 188.158 52.7419 186.522 54.3203C186.248 54.5843 185.813 54.5761 185.549 54.302C185.286 54.0278 185.294 53.5916 185.568 53.3276Z" fill="#2E186A"/>
<path fill-rule="evenodd" clip-rule="evenodd" d="M166.97 113.751L173.344 97.8105C173.344 97.8105 140.216 67.1464 129.555 64.7117C122.517 63.1038 108.05 62.7133 101.723 65.9291L87.761 68.7313C82.8548 66.9856 76.917 67.9733 72.3776 73.6238C63.0009 85.2922 54.2891 128.406 54.2891 128.406L71.7128 130.013L73.3176 126.798C73.3176 126.798 67.2652 164.766 76.7107 164.766C77.5818 164.766 130.289 164.33 130.289 164.33L129.005 119.976C129.005 119.976 132.581 106.608 132.971 95.8581C149.913 105.367 166.97 113.751 166.97 113.751Z" fill="#2E186A"/>
<path fill-rule="evenodd" clip-rule="evenodd" d="M111.81 49.0926L109.655 64.7117L115.226 64.3672C115.226 64.3672 117.725 77.4597 103.763 79.458C94.0427 80.8362 93.5384 66.2736 93.5384 66.2736L93.974 40.4102L111.81 49.0926Z" fill="white"/>
<path fill-rule="evenodd" clip-rule="evenodd" d="M93.2862 40.3985L92.8506 66.262L92.851 66.2975L92.8589 66.4613L92.8688 66.623C92.8726 66.68 92.8768 66.7399 92.8816 66.8028L92.8891 66.8994C92.9267 67.3665 92.9831 67.8859 93.0621 68.4447C93.288 70.043 93.6508 71.6426 94.1831 73.1426C95.9225 78.0441 99.0583 80.821 103.86 80.1403C109.773 79.2939 113.378 76.4649 115.054 72.2973C116.049 69.8228 116.248 67.2279 115.997 64.9195L115.981 64.7786C115.952 64.5318 115.923 64.3488 115.902 64.2377L115.893 64.1973C115.812 63.8784 115.515 63.6588 115.184 63.6794L110.451 63.9718L112.492 49.1869C112.532 48.8914 112.379 48.6031 112.111 48.4727L94.2745 39.7903C93.8222 39.5702 93.2947 39.8948 93.2862 40.3985ZM94.6434 41.5021L111.061 49.4938L108.974 64.6173L108.97 64.6576C108.936 65.0717 109.278 65.4254 109.698 65.3994L114.632 65.0941L114.629 65.0686C114.858 67.171 114.675 69.5501 113.778 71.7823C112.285 75.4936 109.093 77.9991 103.666 78.7758C99.6359 79.3472 97.0241 77.0344 95.4792 72.6809C94.9809 71.2768 94.638 69.7647 94.424 68.2514C94.3491 67.7211 94.2957 67.2292 94.2603 66.7887L94.247 66.6136C94.2411 66.5303 94.2362 66.4537 94.2323 66.3841L94.2261 66.2649L94.6434 41.5021Z" fill="#2E186A"/>
<path fill-rule="evenodd" clip-rule="evenodd" d="M95.3954 40.2493L93.8823 40.8235C93.8823 40.8235 84.9641 43.3961 84.2305 34.7826C83.6803 28.2363 89.962 27.6162 93.0341 27.708" fill="white"/>
<path fill-rule="evenodd" clip-rule="evenodd" d="M86.9617 28.1419C88.6836 27.2636 90.8193 26.9524 93.0544 27.0192C93.434 27.0306 93.7327 27.3482 93.7213 27.7286C93.71 28.109 93.393 28.4081 93.0133 28.3968C90.9882 28.3362 89.0625 28.6168 87.5858 29.3701C85.6587 30.353 84.6904 32.0443 84.9156 34.724C85.1987 38.0479 86.7349 39.7418 89.1846 40.2992C90.3885 40.5732 91.6972 40.543 92.9397 40.3247C93.1148 40.2939 93.2753 40.2614 93.4192 40.2288L93.5809 40.1904L93.6666 40.1682L95.1516 39.6049C95.4941 39.4749 95.8755 39.6369 96.023 39.9677L96.0384 40.0052C96.1681 40.3484 96.0064 40.7305 95.6762 40.8782L95.6388 40.8937L94.1257 41.4679C94.1082 41.4745 94.0904 41.4805 94.0724 41.4857L93.9943 41.5073C93.8104 41.5566 93.5322 41.6197 93.1774 41.6821C91.7701 41.9294 90.288 41.9636 88.8799 41.6432C85.8575 40.9555 83.8801 38.775 83.5449 34.8404C83.2721 31.5945 84.5424 29.376 86.9617 28.1419Z" fill="#2E186A"/>
<path fill-rule="evenodd" clip-rule="evenodd" d="M127.308 31.3372C127.583 35.288 126.804 53.5256 114.607 55.3861C102.411 57.2466 93.7904 46.1754 92.1856 34.484C90.5808 22.7926 95.4182 12.778 103.098 11.4228C110.802 10.0447 125.337 2.80932 127.308 31.3372Z" fill="white"/>
<path fill-rule="evenodd" clip-rule="evenodd" d="M112.911 8.91671C111.075 8.97851 109.339 9.27752 106.723 9.89605L104.663 10.3883L104.401 10.4489C103.848 10.5751 103.394 10.6701 102.977 10.7446C94.8316 12.1819 89.8625 22.6173 91.5043 34.578C92.3409 40.6728 95.012 46.4605 98.9315 50.4976C103.224 54.919 108.709 56.983 114.711 56.0675C120.44 55.1934 124.201 50.9075 126.29 44.3553C127.701 39.9273 128.224 34.5931 127.994 31.2897C127.386 22.4938 125.566 16.5599 122.627 13.0184C120.114 9.99185 116.892 8.78269 112.911 8.91671ZM121.569 13.8997C124.266 17.1486 125.997 22.7383 126.604 31.1302L126.622 31.3854C126.841 34.5239 126.335 39.685 124.979 43.936C123.033 50.0402 119.626 53.9237 114.504 54.7051C108.96 55.5507 103.912 53.6512 99.9175 49.5367C96.2102 45.7182 93.6649 40.2031 92.867 34.3903C91.3145 23.0801 95.9299 13.3876 103.218 12.1016L103.424 12.0637C103.842 11.9849 104.296 11.8875 104.838 11.7626L106.862 11.2795C109.495 10.6519 111.195 10.3535 112.957 10.2941C116.541 10.1735 119.351 11.2281 121.569 13.8997Z" fill="#2E186A"/>
<path fill-rule="evenodd" clip-rule="evenodd" d="M116.354 22.8745C116.713 22.8035 117.063 23.0269 117.153 23.3777L117.162 23.4172L120.074 38.2095C120.153 38.6117 119.867 38.9903 119.465 39.0287L119.425 39.0314L115.756 39.1692C115.377 39.1835 115.058 38.8867 115.043 38.5064C115.03 38.1397 115.304 37.8292 115.664 37.7947L115.705 37.792L118.568 37.6845L115.812 23.6839C115.742 23.3238 115.965 22.974 116.315 22.8835L116.354 22.8745Z" fill="#2E186A"/>
<path fill-rule="evenodd" clip-rule="evenodd" d="M108.398 24.6688C109.882 23.576 111.503 23.2645 113.029 24.3106C113.082 24.347 113.135 24.3851 113.188 24.4248C113.491 24.654 113.551 25.0862 113.322 25.3899C113.093 25.6937 112.662 25.7541 112.359 25.5248C112.323 25.498 112.288 25.4724 112.252 25.448C111.304 24.7979 110.277 24.9952 109.213 25.7792C108.988 25.945 108.782 26.1237 108.602 26.3017L108.536 26.3672C108.486 26.4182 108.447 26.4602 108.42 26.4907L108.393 26.5217C108.148 26.8126 107.714 26.8494 107.423 26.604C107.133 26.3586 107.096 25.9238 107.341 25.633L107.386 25.5813C107.445 25.5144 107.53 25.4251 107.637 25.3196C107.862 25.0976 108.116 24.8763 108.398 24.6688Z" fill="#2E186A"/>
<path fill-rule="evenodd" clip-rule="evenodd" d="M120.764 24.1342C121.84 23.5161 122.962 23.2356 124.057 23.5157C124.65 23.6671 125.197 23.9807 125.683 24.462C125.953 24.7296 125.955 25.1659 125.688 25.4365C125.421 25.707 124.985 25.7093 124.715 25.4417C124.402 25.1313 124.071 24.9414 123.717 24.8511C123.032 24.6758 122.244 24.873 121.448 25.33C121.233 25.4533 121.035 25.5858 120.861 25.7177L120.798 25.7658C120.75 25.8033 120.712 25.8341 120.686 25.8563L120.66 25.8787C120.377 26.1325 119.942 26.1084 119.689 25.8249C119.435 25.5413 119.459 25.1057 119.742 24.8519L119.787 24.813C119.846 24.7627 119.928 24.6959 120.033 24.6172C120.251 24.4522 120.496 24.2879 120.764 24.1342Z" fill="#2E186A"/>
<path fill-rule="evenodd" clip-rule="evenodd" d="M113.964 32.9758C113.979 31.9103 113.448 31.0386 112.777 31.0289C112.106 31.0191 111.549 31.8749 111.534 32.9404C111.518 34.0059 112.05 34.8776 112.721 34.8873C113.392 34.8971 113.948 34.0413 113.964 32.9758Z" fill="#2E186A"/>
<path fill-rule="evenodd" clip-rule="evenodd" d="M125.698 33.563C125.713 32.4975 125.182 31.6258 124.511 31.616C123.84 31.6063 123.284 32.4621 123.268 33.5276C123.253 34.593 123.784 35.4647 124.455 35.4745C125.126 35.4843 125.683 34.6284 125.698 33.563Z" fill="#2E186A"/>
<path fill-rule="evenodd" clip-rule="evenodd" d="M100.264 30.2257C99.8194 36.35 102.993 41.4849 107.443 41.6345C111.893 41.7842 115.796 36.8871 116.24 30.7628C116.685 24.6385 113.511 19.5035 109.061 19.3539C104.611 19.2043 100.709 24.1013 100.264 30.2257ZM101.269 30.2593C101.675 24.6582 105.166 20.2752 108.984 20.4037C112.803 20.5321 115.642 25.128 115.236 30.7292C114.829 36.3304 111.339 40.7133 107.52 40.5849C103.701 40.4564 100.862 35.8605 101.269 30.2593Z" fill="#00AC45"/>
<path fill-rule="evenodd" clip-rule="evenodd" d="M120.732 30.7721C120.287 36.8964 123.461 42.0313 127.911 42.1809C132.361 42.3305 136.263 37.4335 136.708 31.3092C137.153 25.1848 133.979 20.0499 129.529 19.9003C125.079 19.7507 121.176 24.6477 120.732 30.7721ZM121.736 30.8057C122.143 25.2045 125.633 20.8216 129.452 20.9501C133.271 21.0785 136.11 25.6744 135.703 31.2756C135.297 36.8767 131.807 41.2597 127.988 41.1312C124.169 41.0027 121.33 36.4068 121.736 30.8057Z" fill="#00AC45"/>
<path fill-rule="evenodd" clip-rule="evenodd" d="M116.273 27.4211L121.133 27.559C121.418 27.567 121.642 27.8049 121.634 28.0902C121.626 28.3636 121.408 28.5814 121.139 28.592L121.104 28.5922L116.243 28.4543C115.959 28.4463 115.734 28.2084 115.742 27.9231C115.75 27.6497 115.968 27.4319 116.237 27.4213L116.273 27.4211Z" fill="#00AC45"/>
<path fill-rule="evenodd" clip-rule="evenodd" d="M100.956 25.9999C101.239 25.9689 101.494 26.1737 101.525 26.4574C101.555 26.7293 101.368 26.975 101.103 27.0224L101.068 27.0274L89.7659 28.2678C89.4827 28.2988 89.228 28.094 89.197 27.8103C89.1672 27.5384 89.3537 27.2927 89.6186 27.2453L89.6536 27.2403L100.956 25.9999Z" fill="#00AC45"/>
<path fill-rule="evenodd" clip-rule="evenodd" d="M112.108 44.3838C112.108 44.3838 114.332 46.1984 116.556 45.5093L112.108 44.3838Z" fill="white"/>
<path fill-rule="evenodd" clip-rule="evenodd" d="M116.392 44.8403C116.743 44.7534 117.105 44.9552 117.213 45.3058C117.321 45.6564 117.136 46.0278 116.765 46.1638L116.723 46.1779L116.759 46.1677C115.454 46.572 114.102 46.3067 112.806 45.6372C112.508 45.4834 112.236 45.3188 111.994 45.1533L111.901 45.0887C111.8 45.0169 111.723 44.9585 111.674 44.9182C111.379 44.6779 111.335 44.2439 111.575 43.9488C111.806 43.665 112.215 43.6131 112.508 43.8232L112.614 43.9043C112.654 43.9339 112.706 43.9713 112.77 44.015C112.967 44.15 113.191 44.2857 113.436 44.4123C114.412 44.9162 115.391 45.1178 116.304 44.8659L116.392 44.8403Z" fill="#2E186A"/>
<path fill-rule="evenodd" clip-rule="evenodd" d="M134.805 12.9847C130.105 -6.51621 105.07 -0.49825 101.15 8.09228C84.7118 4.32531 78.2008 16.3383 75.0599 24.1019C72.0337 31.6129 73.7532 38.7563 77.4442 46.8186C79.5763 51.4584 88.7697 48.2427 93.7446 47.6684L93.7675 40.8695C92.7588 41.1222 84.8952 42.8679 84.2303 34.8056C83.9781 31.8655 85.1244 30.1199 86.7292 29.0863C87.3253 29.9131 88.4487 30.2807 90.3057 29.8672C96.7937 28.489 100.416 22.2414 102.113 18.1988L131.664 17.1192C133.773 17.0503 135.309 15.052 134.805 12.9847Z" fill="#2E186A"/>
<path fill-rule="evenodd" clip-rule="evenodd" d="M99.068 60.5412C100.481 53.3987 96.5921 46.609 90.3822 45.376C84.1723 44.143 77.9928 48.9335 76.58 56.076C75.1671 63.2184 79.0559 70.0081 85.2658 71.2412C91.4757 72.4742 97.6551 67.6837 99.068 60.5412Z" fill="#2E186A"/>
<path fill-rule="evenodd" clip-rule="evenodd" d="M108.586 75.2614C110.687 70.4222 108.983 65.0142 104.78 63.1824C100.577 61.3506 95.4667 63.7885 93.3656 68.6277C91.2645 73.4669 92.9685 78.8749 97.1716 80.7067C101.375 82.5385 106.485 80.1006 108.586 75.2614Z" fill="#2E186A"/>
<path fill-rule="evenodd" clip-rule="evenodd" d="M114.327 88.1018C117.339 84.4738 117.232 79.4085 114.088 76.7882C110.944 74.1679 105.953 74.9848 102.941 78.6128C99.9291 82.2408 100.036 87.3061 103.18 89.9264C106.324 92.5467 111.315 91.7298 114.327 88.1018Z" fill="#2E186A"/>
<path fill-rule="evenodd" clip-rule="evenodd" d="M111.65 99.9238C114.263 102.083 118.413 101.394 120.912 98.4078C123.411 95.4218 123.296 91.2413 120.683 89.0822C118.069 86.9231 113.828 87.4055 111.329 90.3915C108.83 93.4005 109.036 97.7876 111.65 99.9238Z" fill="#2E186A"/>
<path fill-rule="evenodd" clip-rule="evenodd" d="M114.378 108.836C117.175 110.857 117.381 113.085 116.923 114.762C116.694 115.543 117.588 116.209 118.252 115.749C122.15 113.085 128.271 107.733 124.58 102.266C122.838 99.6709 119.17 98.89 116.075 100.705C112.957 102.519 111.833 107.021 114.378 108.836Z" fill="#2E186A"/>
<path fill-rule="evenodd" clip-rule="evenodd" d="M98.437 61.185C98.697 60.7496 99.2601 60.6077 99.6947 60.8682C100.115 61.1203 100.261 61.6568 100.035 62.0858L100.011 62.1284L95.4028 69.8461C95.1428 70.2815 94.5796 70.4233 94.145 70.1629C93.7244 69.9108 93.5782 69.3743 93.8049 68.9452L93.8288 68.9027L98.437 61.185Z" fill="#00AC45"/>
<path fill-rule="evenodd" clip-rule="evenodd" d="M108.598 74.3556C108.993 74.0372 109.57 74.0992 109.888 74.4943C110.195 74.8761 110.148 75.4293 109.788 75.7535L109.75 75.7862L103.835 80.5638C103.44 80.8823 102.863 80.8202 102.545 80.4252C102.238 80.0433 102.286 79.4901 102.645 79.166L102.684 79.1333L108.598 74.3556Z" fill="#00AC45"/>
<path fill-rule="evenodd" clip-rule="evenodd" d="M112.792 88.5166C113.243 88.2857 113.795 88.4649 114.025 88.9167C114.248 89.354 114.088 89.8865 113.669 90.1296L113.626 90.1529L111.517 91.2325C111.066 91.4633 110.513 91.2841 110.283 90.8323C110.06 90.395 110.22 89.8625 110.64 89.6194L110.682 89.5961L112.792 88.5166Z" fill="#00AC45"/>
<path fill-rule="evenodd" clip-rule="evenodd" d="M118.556 98.5476C119.036 98.3856 119.556 98.6442 119.718 99.1251C119.874 99.5909 119.637 100.095 119.186 100.273L119.141 100.289L116.894 101.047C116.414 101.209 115.894 100.95 115.733 100.469C115.576 100.004 115.813 99.5 116.265 99.3218L116.309 99.3055L118.556 98.5476Z" fill="#00AC45"/>
<path fill-rule="evenodd" clip-rule="evenodd" d="M39.0434 153.856C39.0434 153.856 28.5662 159.483 25.6546 160.999C22.743 162.515 22.8577 164.445 22.8577 164.445H26.5258L37.2552 159.805" fill="white"/>
<path fill-rule="evenodd" clip-rule="evenodd" d="M39.6494 153.53C39.8289 153.866 39.703 154.283 39.3682 154.463L35.1326 156.734L29.1773 159.916C27.7372 160.682 26.6434 161.261 25.9717 161.611C25.5216 161.845 25.1373 162.096 24.8137 162.361C24.2876 162.792 23.944 163.236 23.7425 163.675L23.7072 163.755H26.3838L36.9825 159.172C37.3187 159.027 37.7071 159.171 37.8694 159.495L37.8865 159.532C38.0316 159.869 37.8874 160.258 37.5642 160.42L37.5276 160.437L26.7982 165.077C26.7294 165.107 26.6563 165.125 26.5818 165.131L26.5257 165.134H22.8575C22.507 165.134 22.215 164.87 22.1745 164.526L22.1701 164.468L22.1698 164.458C22.161 164.169 22.2212 163.772 22.4038 163.308C22.68 162.606 23.1795 161.919 23.9434 161.294C24.3054 160.998 24.7213 160.72 25.1939 160.464L26.4812 159.787C27.2955 159.357 28.3523 158.795 29.6135 158.123L32.8775 156.379L38.7183 153.248C39.053 153.069 39.4699 153.195 39.6494 153.53Z" fill="#2E186A"/>
<path fill-rule="evenodd" clip-rule="evenodd" d="M55.0685 127.877L47.5717 154.866L41.6568 153.718C39.8457 153.488 38.0345 154.017 36.6131 155.165L25.8379 163.089C25.2648 163.526 25.5628 164.445 26.2735 164.445C33.0596 164.422 49.635 164.376 52.4779 164.445C56.3753 164.537 58.5762 162.975 61.8546 154.637C63.574 150.25 67.4944 138.466 71.1854 129.164L55.0685 127.877Z" fill="white"/>
<path fill-rule="evenodd" clip-rule="evenodd" d="M55.0823 127.188C54.7703 127.182 54.4906 127.388 54.406 127.693L47.0791 154.069L41.7877 153.041L41.7432 153.034L41.6284 153.021C39.7149 152.808 37.8001 153.36 36.2726 154.556L36.1961 154.617L25.431 162.534C24.3294 163.372 24.8975 165.134 26.2736 165.134L33.36 165.112C42.3008 165.09 49.4797 165.089 51.9582 165.124L52.4613 165.133C57.0098 165.241 59.3143 162.977 62.4946 154.889L62.629 154.537C63.6551 151.806 67.8894 139.864 69.0447 136.724L69.3022 136.026C69.7711 134.759 70.2223 133.557 70.6598 132.412L70.7788 132.101C71.1373 131.166 71.4857 130.272 71.8246 129.418C71.9956 128.987 71.7015 128.514 71.2401 128.477L55.1232 127.19L55.0823 127.188ZM55.5791 128.609L70.2043 129.776L70.1588 129.893C70.0283 130.226 69.8964 130.565 69.7632 130.91L69.4948 131.607C69.0181 132.85 68.5257 134.16 68.0125 135.547L67.6351 136.572C66.2573 140.343 61.8897 152.662 61.2145 154.385L61.0362 154.834C58.1755 161.994 56.2988 163.808 52.6088 163.758L52.264 163.751C49.5337 163.701 38.7757 163.713 26.2713 163.755C26.2266 163.755 26.2016 163.678 26.2542 163.638L37.0202 155.72L37.045 155.701L37.131 155.633C38.3711 154.667 39.9173 154.221 41.4627 154.389L41.5508 154.399L47.4409 155.543C47.7929 155.611 48.1383 155.397 48.2344 155.051L55.5791 128.609Z" fill="#2E186A"/>
<path fill-rule="evenodd" clip-rule="evenodd" d="M29.0934 164.444C29.0934 164.444 37.3468 159.942 38.5848 159.391C39.8228 158.84 44.1099 159.46 44.1099 159.46" fill="white"/>
<path fill-rule="evenodd" clip-rule="evenodd" d="M38.3054 158.762C38.8994 158.497 39.8776 158.434 41.2128 158.494C41.7632 158.519 42.3479 158.565 42.9433 158.626L43.2595 158.66C43.3627 158.671 43.4638 158.683 43.5622 158.695L43.9209 158.739L44.2082 158.778C44.5842 158.832 44.8449 159.182 44.7907 159.559C44.7364 159.935 44.3876 160.197 44.0117 160.142L43.8087 160.114C43.7671 160.109 43.7228 160.103 43.676 160.097L43.3994 160.063C43.2098 160.041 43.01 160.018 42.803 159.997C42.2319 159.938 41.6725 159.894 41.1509 159.871L40.9508 159.863C39.9332 159.827 39.1725 159.884 38.8641 160.021L38.7298 160.083C38.1998 160.336 36.9265 161.003 35.1266 161.966L34.1355 162.497C33.6739 162.746 33.199 163.002 32.717 163.262L29.4223 165.05C29.0887 165.232 28.671 165.108 28.4894 164.774C28.3145 164.452 28.4222 164.052 28.7284 163.86L28.8123 163.813L30.9689 162.641C31.4587 162.376 31.9461 162.112 32.425 161.854L34.7228 160.62C36.6056 159.613 37.8619 158.959 38.3054 158.762Z" fill="#2E186A"/>
<path fill-rule="evenodd" clip-rule="evenodd" d="M37.2092 164.031C37.2092 164.031 36.5444 161.183 39.2038 160.769C41.8632 160.356 45.4397 159.759 47.8927 157.6" fill="white"/>
<path fill-rule="evenodd" clip-rule="evenodd" d="M47.4387 157.082C47.7241 156.831 48.1587 156.859 48.4094 157.145C48.6601 157.431 48.6319 157.866 48.3466 158.117C47.1396 159.179 45.6349 159.943 43.8271 160.498L43.6143 160.562C42.3782 160.928 41.2184 161.153 39.3092 161.45C38.4976 161.576 38.0907 161.958 37.9153 162.566C37.8096 162.933 37.8012 163.345 37.8535 163.724L37.8666 163.809C37.8692 163.825 37.8716 163.838 37.8737 163.849L37.8788 163.874C37.9653 164.245 37.7356 164.615 37.3658 164.702C36.9959 164.789 36.6259 164.558 36.5394 164.188L36.5267 164.129C36.5155 164.073 36.503 164 36.4909 163.912C36.4145 163.359 36.4266 162.764 36.5937 162.184C36.9134 161.075 37.741 160.299 39.0982 160.088L39.429 160.036C43.404 159.4 45.6049 158.696 47.4387 157.082Z" fill="#2E186A"/>
<path fill-rule="evenodd" clip-rule="evenodd" d="M248.999 137.961H236.963C230.017 132.173 201.634 108.491 194.711 102.841C186.572 96.1798 174.329 81.8929 157.548 93.8599C147.391 101.095 124.511 120.642 109.036 137.984L104.359 143.451C96.9313 152.524 92.3461 160.494 93.8363 164.996L247.945 164.789L248.999 137.961Z" fill="#5D21D1"/>
<path fill-rule="evenodd" clip-rule="evenodd" d="M269.128 157.921L265.506 123.582C265.506 120.757 262.548 118.919 260.026 120.183C255.35 122.526 249.205 128.75 248.059 145.127C244.276 144.3 239.875 143.772 234.785 143.657L214.817 158.358V164.628H271.742C271.742 164.651 271.489 161.665 269.128 157.921Z" fill="#00AC45"/>
<path fill-rule="evenodd" clip-rule="evenodd" d="M147.437 101.44L137.258 102.313C130.082 103.277 121.187 104.885 112.567 106.539C112.567 106.539 103.259 96.1797 101.081 98.4077C100.141 99.3725 99.5907 105.781 99.7741 111.018L97.1147 112.029C97.1147 112.029 84.0011 103.392 79.3013 115.359C79.1637 115.727 79.5076 116.094 79.8744 115.956C81.1583 115.474 83.6113 115.038 84.6659 118.414C84.6659 118.414 84.3679 118.161 82.5109 121.01C80.8602 123.559 78.751 137.318 91.2228 141.705C92.9193 142.44 91.7042 141.705 93.7217 142.67C94.3636 146.23 97.023 148.986 99.499 149.515C102.342 150.112 104.978 144.025 105.345 142.049C107.088 136.927 109.426 141.751 111.604 142.601C115.937 144.3 118.207 132.655 118.642 127.096L126.162 120.412L127.469 119.54C127.377 119.517 127.285 119.517 127.194 119.494L147.437 101.44Z" fill="#00AC45"/>
<path fill-rule="evenodd" clip-rule="evenodd" d="M100.209 99.9696C100.373 99.6266 100.784 99.4822 101.127 99.647L101.207 99.6867C101.272 99.719 101.358 99.7628 101.463 99.8179C101.722 99.9538 102.01 100.112 102.32 100.292C103.205 100.807 104.09 101.391 104.92 102.038C107.759 104.251 109.304 106.646 108.745 109.169C108.662 109.54 108.295 109.775 107.924 109.692C107.553 109.61 107.319 109.241 107.402 108.87C107.812 107.022 106.536 105.044 104.075 103.125C103.299 102.521 102.465 101.97 101.63 101.485C101.338 101.315 101.067 101.166 100.825 101.039L100.653 100.95L100.531 100.889C100.188 100.724 100.044 100.313 100.209 99.9696Z" fill="#2E186A"/>
<path fill-rule="evenodd" clip-rule="evenodd" d="M83.6844 113.064C86.3979 111.641 89.9114 111.429 94.1637 113.159C94.5156 113.302 94.6851 113.704 94.5422 114.056C94.3993 114.409 93.9981 114.579 93.6462 114.436C89.7742 112.86 86.6827 113.047 84.3221 114.285C83.9257 114.493 83.5876 114.714 83.3085 114.933L83.2333 114.993C83.1397 115.069 83.0726 115.129 83.0323 115.168L83.007 115.193C82.7439 115.468 82.3085 115.477 82.0345 115.213C81.7604 114.95 81.7515 114.513 82.0145 114.239L82.062 114.191C82.15 114.105 82.2827 113.987 82.4604 113.848C82.8035 113.579 83.2115 113.312 83.6844 113.064Z" fill="#2E186A"/>
<path fill-rule="evenodd" clip-rule="evenodd" d="M93.6299 127.257L95.8078 127.946C96.1288 128.038 96.4727 127.854 96.5644 127.533L97.2063 125.489C97.3668 125.006 96.8854 124.593 96.4268 124.799L93.607 126.155C93.1026 126.407 93.1255 127.096 93.6299 127.257Z" fill="#2E186A"/>
<path fill-rule="evenodd" clip-rule="evenodd" d="M95.4285 127.79C95.1759 127.006 96.2625 126.519 96.6772 127.232C97.0426 127.859 97.5446 128.504 97.9254 128.829L97.9566 128.855L97.9602 128.821C97.9732 128.677 97.9762 128.501 97.9677 128.292L97.9639 128.212C97.944 127.832 98.2353 127.508 98.6146 127.488C98.9939 127.468 99.3176 127.76 99.3376 128.14C99.3845 129.033 99.281 129.638 98.9473 130.02C98.5127 130.516 97.9115 130.474 97.3582 130.121C97.2732 130.067 97.1862 130.003 97.0978 129.931L97.0297 129.874L97.0168 129.963L97.0017 130.048C96.7526 131.325 95.6626 131.604 94.5451 130.594C94.2629 130.34 94.2404 129.904 94.4947 129.621C94.749 129.339 95.1839 129.316 95.4661 129.571C95.5257 129.625 95.5807 129.67 95.6305 129.708L95.6608 129.73L95.662 129.724C95.7306 129.269 95.6428 128.501 95.4548 127.875L95.4285 127.79Z" fill="#2E186A"/>
<path fill-rule="evenodd" clip-rule="evenodd" d="M112.191 131.301C112.266 130.928 112.629 130.687 113.001 130.762C113.373 130.838 113.614 131.201 113.539 131.574C113.236 133.074 113.351 135.262 113.775 137.78C113.933 138.721 114.127 139.656 114.33 140.498L114.383 140.717C114.436 140.93 114.487 141.127 114.534 141.3L114.594 141.514C114.628 141.635 114.656 141.724 114.67 141.764L114.674 141.775C114.813 142.13 114.638 142.529 114.285 142.668C113.931 142.807 113.532 142.632 113.393 142.277C113.195 141.77 112.718 139.785 112.419 138.009C111.969 135.337 111.846 133.006 112.191 131.301Z" fill="#2E186A"/>
<path fill-rule="evenodd" clip-rule="evenodd" d="M107.916 132.623C108.086 132.282 108.499 132.144 108.839 132.314C109.091 132.44 109.232 132.7 109.219 132.965L109.218 132.969L109.228 133.046L109.244 133.161L109.265 133.29C109.295 133.474 109.337 133.699 109.387 133.947C109.546 134.73 109.765 135.626 110.026 136.522C110.733 138.952 111.623 140.988 112.64 142.233C112.881 142.528 112.838 142.962 112.544 143.203C112.25 143.444 111.816 143.401 111.576 143.106C110.415 141.684 109.46 139.501 108.705 136.908C108.455 136.046 108.241 135.185 108.079 134.413L107.979 133.92C107.818 133.108 107.797 132.863 107.916 132.623Z" fill="#2E186A"/>
<path fill-rule="evenodd" clip-rule="evenodd" d="M116.398 120.815L116.703 120.702C120.827 119.204 125.317 118.468 127.651 118.86C128.026 118.923 128.279 119.278 128.216 119.653C128.153 120.029 127.798 120.282 127.424 120.219C125.31 119.864 120.879 120.609 116.88 122.106C112.092 123.898 108.534 126.454 107.211 129.399C104.571 135.315 106.675 139.885 111.857 141.937C112.21 142.077 112.383 142.477 112.244 142.831C112.104 143.185 111.704 143.358 111.351 143.218C105.466 140.888 102.984 135.496 105.956 128.835C107.464 125.48 111.299 122.723 116.398 120.815Z" fill="#2E186A"/>
<path fill-rule="evenodd" clip-rule="evenodd" d="M101.163 139.098C101.536 139.169 101.781 139.53 101.711 139.904L101.679 140.075C101.654 140.216 101.626 140.379 101.595 140.562C101.508 141.084 101.42 141.655 101.339 142.256C101.197 143.3 101.088 144.321 101.026 145.275L101.008 145.567C100.919 147.158 100.974 148.429 101.194 149.242C101.294 149.609 101.078 149.987 100.711 150.087C100.345 150.187 99.9666 149.971 99.8669 149.603C99.5829 148.557 99.5306 147.053 99.6531 145.184C99.718 144.195 99.8299 143.144 99.9757 142.07C100.049 141.531 100.127 141.016 100.205 140.537L100.298 139.985L100.359 139.647C100.43 139.273 100.79 139.027 101.163 139.098Z" fill="#2E186A"/>
<path fill-rule="evenodd" clip-rule="evenodd" d="M96.8335 138.949C97.2132 138.958 97.5135 139.274 97.5042 139.654L97.5023 139.763C97.496 140.247 97.503 140.878 97.5338 141.601C97.5794 142.67 97.6694 143.723 97.8136 144.704L97.8523 144.957C98.1501 146.83 98.6287 148.215 99.2618 148.877C99.5246 149.151 99.5155 149.588 99.2413 149.851C98.9671 150.114 98.5317 150.105 98.2688 149.831C97.3521 148.873 96.786 147.171 96.4528 144.905C96.3009 143.872 96.207 142.773 96.1595 141.659L96.1487 141.383C96.1292 140.838 96.1228 140.351 96.1251 139.942L96.129 139.621C96.1384 139.24 96.4537 138.939 96.8335 138.949Z" fill="#2E186A"/>
<path fill-rule="evenodd" clip-rule="evenodd" d="M100.161 133.835C102.562 133.816 105.337 134.547 106.232 135.328C106.519 135.578 106.549 136.013 106.299 136.3C106.06 136.576 105.649 136.615 105.363 136.395L105.329 136.368C104.73 135.845 102.269 135.197 100.172 135.213C97.4058 135.235 95.4572 136.236 94.7393 138.367C94.4715 139.154 94.2947 140.735 94.2947 141.889C94.2947 142.269 93.9868 142.578 93.6069 142.578C93.2271 142.578 92.9191 142.269 92.9191 141.889C92.9191 140.597 93.111 138.882 93.4367 137.924C94.3735 135.143 96.8697 133.861 100.161 133.835Z" fill="#2E186A"/>
<path fill-rule="evenodd" clip-rule="evenodd" d="M101.515 119.105C101.894 119.129 102.181 119.457 102.157 119.837C102.152 119.917 102.137 120.038 102.107 120.186C102.057 120.431 101.981 120.677 101.869 120.913C101.319 122.067 100.163 122.501 98.5914 121.773C98.2466 121.613 98.0963 121.204 98.2557 120.858C98.415 120.513 98.8238 120.362 99.1686 120.522C100.05 120.93 100.399 120.799 100.627 120.32C100.686 120.195 100.73 120.055 100.759 119.913L100.771 119.848C100.776 119.818 100.779 119.794 100.781 119.776L100.784 119.748C100.808 119.381 101.113 119.101 101.475 119.103L101.515 119.105Z" fill="#2E186A"/>
<path fill-rule="evenodd" clip-rule="evenodd" d="M92.253 122.963C92.632 122.988 92.9194 123.316 92.8948 123.696C92.8896 123.776 92.8748 123.897 92.8448 124.045C92.7954 124.29 92.7189 124.536 92.6066 124.772C92.0574 125.926 90.9011 126.36 89.3293 125.632C88.9845 125.472 88.8342 125.063 88.9936 124.717C89.153 124.372 89.5617 124.221 89.9065 124.381C90.7877 124.789 91.1368 124.658 91.3649 124.179C91.4242 124.054 91.468 123.913 91.4965 123.772L91.5087 123.707C91.5137 123.677 91.5172 123.653 91.5194 123.635L91.5222 123.606C91.5459 123.24 91.8509 122.959 92.2126 122.962L92.253 122.963Z" fill="#2E186A"/>
<path fill-rule="evenodd" clip-rule="evenodd" d="M85.6727 131.485C86.0011 131.294 86.4221 131.405 86.613 131.734C86.804 132.063 86.6926 132.485 86.3642 132.676C84.3664 133.84 82.7544 135.715 81.4942 138.112C80.7001 139.623 80.0942 141.248 79.6533 142.873C79.499 143.442 79.3766 143.97 79.2828 144.442L79.2522 144.6C79.2427 144.651 79.2338 144.699 79.2255 144.745L79.2026 144.876C79.1903 144.948 79.1827 144.997 79.1795 145.019C79.1253 145.396 78.7765 145.657 78.4006 145.603C78.0246 145.548 77.7638 145.199 77.8181 144.822L77.8401 144.681C77.861 144.555 77.8918 144.385 77.9337 144.174C78.0334 143.671 78.163 143.113 78.3259 142.512C78.7914 140.796 79.4318 139.078 80.2771 137.47C81.6485 134.861 83.4264 132.794 85.6727 131.485Z" fill="white"/>
<path fill-rule="evenodd" clip-rule="evenodd" d="M88.2896 132.758C88.6381 132.607 89.0431 132.767 89.1943 133.116C89.34 133.453 89.1965 133.842 88.8736 134.005L88.8369 134.022C88.0304 134.373 86.5973 136.208 85.5749 138.389C84.3365 141.03 83.838 143.74 84.3498 145.936C84.4361 146.306 84.2063 146.677 83.8364 146.763C83.4665 146.85 83.0966 146.619 83.0102 146.249C82.418 143.708 82.9713 140.701 84.3299 137.803C85.4823 135.345 87.0978 133.276 88.2896 132.758Z" fill="white"/>
<path fill-rule="evenodd" clip-rule="evenodd" d="M106.012 123.959C107.882 123.649 110.056 123.705 112.121 124.245C114.785 124.941 117.102 126.385 118.866 128.674C119.098 128.975 119.042 129.408 118.741 129.64C118.441 129.873 118.009 129.817 117.777 129.516C116.208 127.48 114.155 126.201 111.774 125.578C109.905 125.09 107.925 125.039 106.237 125.319C105.862 125.381 105.508 125.127 105.446 124.751C105.384 124.376 105.638 124.021 106.012 123.959Z" fill="white"/>
<path fill-rule="evenodd" clip-rule="evenodd" d="M106.374 121.646C108.069 120.566 110.812 120.191 113.657 120.639C116.774 121.131 119.709 122.541 121.863 124.755C122.128 125.028 122.123 125.464 121.85 125.73C121.578 125.995 121.143 125.989 120.878 125.717C118.943 123.727 116.28 122.448 113.443 122C110.903 121.6 108.491 121.93 107.113 122.808C106.792 123.013 106.367 122.918 106.163 122.597C105.959 122.276 106.054 121.85 106.374 121.646Z" fill="white"/>
<path fill-rule="evenodd" clip-rule="evenodd" d="M171.945 20.8633H185.769C186.732 20.8633 187.512 21.6672 187.512 22.6779V41.306L181.505 35.0813L171.922 34.9435C170.959 34.9435 170.203 34.1395 170.203 33.1289V22.6779C170.203 21.6902 170.982 20.8633 171.945 20.8633Z" fill="#00AC45"/>
<path fill-rule="evenodd" clip-rule="evenodd" d="M176.438 28.9025V27.019C176.438 25.6409 177.654 24.5154 179.121 24.5154C180.588 24.5154 181.803 25.6409 181.803 27.019C181.803 27.042 181.803 27.042 181.803 27.065V28.8566C181.803 28.8796 181.803 28.8796 181.803 28.9025C181.803 30.2807 180.588 31.4062 179.121 31.4062C177.654 31.4062 176.438 30.2807 176.438 28.9025ZM177.768 26.9961V28.8796C177.768 29.5686 178.387 30.1429 179.121 30.1429C179.877 30.1429 180.473 29.5686 180.473 28.8796V27.019V26.9731C180.473 26.284 179.854 25.7098 179.121 25.7098C178.387 25.7327 177.768 26.307 177.768 26.9961Z" fill="white"/>
<path fill-rule="evenodd" clip-rule="evenodd" d="M271.597 163.836C271.839 163.836 272.035 164.142 272.035 164.519C272.035 164.883 271.853 165.181 271.623 165.201L271.597 165.202H22.353C22.1115 165.202 21.9157 164.897 21.9157 164.519C21.9157 164.155 22.0978 163.858 22.3273 163.837L22.353 163.836H271.597Z" fill="#2E186A"/>
</svg>
