<svg xmlns="http://www.w3.org/2000/svg" width="61.988" height="50.63" viewBox="0 0 61.988 50.63">
  <g id="spider" transform="translate(0.001 97.537) rotate(-90)">
    <g id="Group_41239" data-name="Group 41239" transform="translate(46.907 -0.001)" style="fill:#EB4335;">
      <path id="Path_34772" data-name="Path 34772" d="M93.021,7.771a1.05,1.05,0,0,0-1.676,1.267,25.249,25.249,0,0,1,3.1,20.71L77.306,38.824a7.5,7.5,0,0,0-.847-.7A12.652,12.652,0,0,0,84.117,30.4a1.006,1.006,0,0,0,.2-.086l5.253-3.152a1.051,1.051,0,0,0,.51-.9c0-20.085-6.4-25.782-6.671-26.015a1.051,1.051,0,1,0-1.365,1.6c.058.05,5.813,5.183,5.933,23.823l-3.223,1.933a12.608,12.608,0,1,0-25.068,0l-3.223-1.933c.12-18.418,5.853-23.75,5.939-23.829A1.05,1.05,0,0,0,61.033.252c-.273.232-6.673,5.93-6.673,26.015a1.053,1.053,0,0,0,.51.9l5.253,3.152a1.033,1.033,0,0,0,.2.086,12.651,12.651,0,0,0,7.659,7.721,7.408,7.408,0,0,0-.848.7L49.995,29.748a25.249,25.249,0,0,1,3.1-20.71,1.05,1.05,0,0,0-1.676-1.267,26.913,26.913,0,0,0-3.322,23,1.048,1.048,0,0,0,.516.63l16.107,8.528H52.26a1.051,1.051,0,0,0-.974.657C47.8,49.2,53.195,59.913,53.426,60.366a1.051,1.051,0,1,0,1.87-.959c-.05-.1-4.911-9.735-2.307-17.381H65.177a7.207,7.207,0,0,0-.246,1.181l-6.516.931a1.048,1.048,0,0,0-.8.585c-4.227,8.805,4.08,16.655,4.435,16.984a1.051,1.051,0,1,0,1.429-1.541c-.073-.068-7.2-6.8-4.194-14.03l5.687-.813a7.352,7.352,0,0,0,2.9,4.72,4.2,4.2,0,0,0,2.247,7.742,1.051,1.051,0,1,0,0-2.1,2.1,2.1,0,0,1,0-4.2,1.023,1.023,0,0,0,.54-.171,7.2,7.2,0,0,0,3.122,0,1.024,1.024,0,0,0,.54.171,2.1,2.1,0,0,1,0,4.2,1.051,1.051,0,1,0,0,2.1,4.194,4.194,0,0,0,2.247-7.741,7.357,7.357,0,0,0,2.9-4.722l5.688.813c2.992,7.214-4.122,13.963-4.2,14.031a1.051,1.051,0,0,0,1.43,1.54c.356-.33,8.661-8.179,4.435-16.984a1.048,1.048,0,0,0-.8-.585l-6.517-.931a7.206,7.206,0,0,0-.246-1.181H91.454c2.6,7.632-2.257,17.282-2.308,17.382a1.051,1.051,0,0,0,1.871.958c.231-.453,5.629-11.165,2.14-19.784a1.05,1.05,0,0,0-.974-.657H79.72L95.827,31.4a1.049,1.049,0,0,0,.516-.63A26.909,26.909,0,0,0,93.021,7.771Z" transform="translate(-46.907 0.001)"/>
    </g>
  </g>
</svg>
