<svg width="32" height="33" viewBox="0 0 32 33" fill="none" xmlns="http://www.w3.org/2000/svg">
<g clip-path="url(#clip0)">
<path d="M24.016 12.0459C23.6778 12.1806 23.5115 12.5676 23.6445 12.9103C24.1738 14.2742 24.4422 15.7179 24.4422 17.2013C24.4422 23.6608 19.254 28.916 12.8768 28.916C6.50221 28.916 1.31609 23.6608 1.31609 17.2013C1.31609 10.7429 6.50221 5.4886 12.8768 5.4886C16.0929 5.4886 19.0801 6.79253 21.2881 9.16006C21.5377 9.42773 21.9541 9.43966 22.2182 9.1868C22.4824 8.93393 22.4941 8.512 22.2446 8.24433C21.0532 6.96673 19.6469 5.96134 18.0647 5.25594C16.4264 4.52561 14.681 4.15527 12.8766 4.15527C5.7764 4.15527 0 10.0077 0 17.2013C0 24.396 5.7764 30.2493 12.8766 30.2493C16.3177 30.2493 19.5525 28.8924 21.9852 26.4286C24.4182 23.9644 25.7581 20.6874 25.7581 17.2013C25.7581 15.5502 25.459 13.9423 24.8692 12.4223C24.7361 12.0797 24.3544 11.9111 24.016 12.0459Z" fill="#2BA860"/>
<path d="M19.188 11.4668C19.4386 11.2001 19.4283 10.7781 19.1651 10.5243C17.4615 8.88102 15.2282 7.97595 12.8766 7.97595C7.85855 7.97595 3.77612 12.1143 3.77612 17.2011C3.77612 22.2881 7.85855 26.4267 12.8766 26.4267C17.9 26.4267 21.9869 22.2881 21.9869 17.2011C21.9869 16.2497 21.8438 15.3129 21.5615 14.4167C21.451 14.0659 21.0808 13.8724 20.7346 13.9842C20.3884 14.0961 20.1974 14.4713 20.3078 14.822C20.5488 15.5871 20.671 16.3875 20.671 17.2011C20.671 21.5529 17.1744 25.0934 12.8766 25.0934C8.58417 25.0934 5.09208 21.5529 5.09208 17.2011C5.09208 12.8495 8.58417 9.30928 12.8766 9.30928C14.8888 9.30928 16.7999 10.0837 18.2578 11.4899C18.521 11.7439 18.9375 11.7335 19.188 11.4668Z" fill="#2BA860"/>
<path d="M12.8766 12.903C13.6727 12.903 14.4466 13.126 15.1159 13.5485C15.2216 13.6149 15.3217 13.685 15.4137 13.7567C15.7016 13.9813 16.1147 13.927 16.3364 13.6353C16.5582 13.3436 16.5045 12.925 16.2166 12.7004C16.0897 12.6014 15.9527 12.5055 15.8107 12.4162C14.9336 11.8624 13.919 11.5697 12.8765 11.5697C9.81459 11.5697 7.32349 14.096 7.32349 17.2012C7.32349 20.3074 9.81453 22.8345 12.8765 22.8345C15.9434 22.8345 18.4385 20.3074 18.4385 17.2012C18.4385 16.9476 18.4218 16.6996 18.3873 16.443C18.3384 16.0782 18.0068 15.8229 17.6467 15.8722C17.2866 15.9219 17.0344 16.2578 17.0834 16.6227C17.1097 16.8192 17.1226 17.0084 17.1226 17.2012C17.1226 19.5722 15.2178 21.5012 12.8765 21.5012C10.5402 21.5012 8.63944 19.5722 8.63944 17.2012C8.63958 14.8311 10.5403 12.903 12.8766 12.903Z" fill="#2BA860"/>
<path d="M31.2625 8.86011L28.577 7.23305L28.2554 4.11279C28.2317 3.88246 28.0917 3.68119 27.8856 3.58099C27.6797 3.48086 27.437 3.49613 27.2449 3.62139L24.6602 5.30672C24.4747 5.42766 24.3613 5.63479 24.3584 5.85825L24.312 9.32118L13.8902 15.7343C13.5907 15.5146 13.2232 15.3846 12.8262 15.3846C11.8192 15.3846 11 16.214 11 17.2336C11 18.2531 11.8192 19.0826 12.8262 19.0826C13.8305 19.0826 14.6476 18.2531 14.6476 17.2336C14.6476 17.1029 14.634 16.9754 14.6084 16.8524L25.0739 10.4124L28.0728 11.7264C28.1565 11.7631 28.2454 11.7812 28.3339 11.7812C28.458 11.7812 28.5815 11.7456 28.689 11.6758L31.2799 9.99345C31.4718 9.86891 31.5863 9.65265 31.5828 9.42185C31.5792 9.19111 31.4581 8.97858 31.2625 8.86011ZM28.2737 10.3618L25.6296 9.20331L25.6694 6.23432L27.0576 5.32912L27.3023 7.70325C27.3239 7.91205 27.4412 8.09845 27.6191 8.20618L29.6751 9.45185L28.2737 10.3618Z" fill="#2BA860"/>
</g>
<defs>
<clipPath id="clip0">
<path d="M0 0.882324H31.5831V32.8823H0V0.882324Z" fill="white"/>
</clipPath>
</defs>
</svg>
