<svg width="150" height="24" viewBox="0 0 150 24" fill="none" xmlns="http://www.w3.org/2000/svg">
<path d="M19.2766 21.9574C21.9574 21.7021 24.6383 20.8085 24.6383 18V8.93617L23.3617 7.65957L21.9574 8.93617V15.7021L23.1064 16.7234L20.5532 19.0213H20.4255L17.8723 16.8511L18.5106 16.2128V2.42553C18.5106 1.40426 17.617 0.893617 17.1064 0.765958V0.510638C17.3617 0.382979 17.7447 0.255319 18.2553 0.255319C19.1489 0.255319 19.9149 0.765957 20.1702 1.40426H20.2979C20.8085 0.638298 21.7021 0.255319 22.4681 0.255319C22.7234 0.255319 22.9787 0.255319 23.234 0.382979V0.638298C22.8511 0.765957 22.0851 1.2766 22.0851 2.68085V8.42553L25.5319 5.23404H25.7872C26.0426 5.48936 27.4468 6.76596 27.8298 7.02128C27.9574 7.14894 28.0851 7.14894 28.3404 7.14894C28.5957 7.14894 28.8511 7.02128 29.1064 6.89362V7.2766C28.8511 7.53192 28.4681 7.91489 28.4681 8.55319V16.3404C28.4681 19.7872 24.6383 21.9574 19.5319 22.3404V21.9574H19.2766ZM18 0.638298C18.5106 1.02128 19.0213 1.40426 19.0213 2.29787V16.4681L18.5106 16.9787L20.6809 18.766L21.3192 18.2553L19.6596 16.8511L19.9149 16.5957V2.42553C19.7872 1.2766 18.766 0.765957 18 0.638298ZM24 21.0638C25.0213 20.4255 26.0426 19.6596 26.0426 18.1277V8.42553L24.5106 6.76596L23.7447 7.40426L25.0213 8.80851V18C25.1489 19.2766 24.6383 20.2979 24 21.0638ZM30.383 8.42553C31.9149 7.65958 34.0851 6.38298 35.617 5.23404H35.8723C36.8936 6.25532 38.2979 7.91489 39.5745 9.06383V9.31915L33.9575 12.8936V15.1915C34.4681 15.5745 36.1277 16.3404 37.1489 16.7234L39.4468 14.5532L39.7021 14.8085L35.234 19.1489H34.9787C33.4468 18.5106 31.5319 17.617 30.2553 16.9787C30.383 16.4681 30.5106 15.3192 30.5106 13.9149V8.42553H30.383ZM35.617 18.2553C34.0851 17.617 32.8085 16.9787 31.5319 16.3404C31.6596 15.9574 31.6596 15.3192 31.6596 13.9149V8.17021L30.766 8.68085V13.9149C30.766 15.3192 30.766 16.3404 30.6383 16.7234C31.7872 17.3617 33.4468 18.1277 34.9787 18.766L35.617 18.2553ZM33.9575 12.5106L36.5106 10.8511C35.617 9.82979 34.7234 8.80851 33.9575 8.04255V12.5106ZM34.7234 6.89362L34.0851 7.40426C34.8511 8.29787 35.8723 9.44681 36.8936 10.5957L37.6596 10.0851C36.5106 8.93617 35.4894 7.78723 34.7234 6.89362ZM139.787 21.9574C142.468 21.7021 145.149 20.8085 145.149 18V8.93617L143.872 7.65957L142.468 8.93617V15.7021L143.617 16.7234L141.064 19.0213H140.809L138.255 16.8511L138.894 16.2128V2.42553C138.894 1.40426 138 0.893617 137.489 0.765958V0.510638C137.745 0.382979 138.128 0.255319 138.638 0.255319C139.532 0.255319 140.298 0.765957 140.553 1.40426H140.681C141.191 0.638298 142.085 0.255319 142.851 0.255319C143.106 0.255319 143.362 0.255319 143.617 0.382979V0.638298C143.234 0.765957 142.468 1.2766 142.468 2.68085V8.42553L145.787 5.23404H146.043C146.298 5.48936 147.702 6.76596 148.085 7.02128C148.213 7.14894 148.34 7.14894 148.596 7.14894C148.851 7.14894 149.106 7.02128 149.362 6.89362V7.40426C149.106 7.65958 148.723 8.04255 148.723 8.68085V16.3404C148.723 19.7872 144.894 21.9574 139.787 22.3404V21.9574ZM138.511 0.638298C138.894 0.893617 139.532 1.40426 139.532 2.29787V16.3404L139.021 16.8511L141.191 18.6383L141.83 18.1277L140.17 16.7234L140.426 16.4681V2.42553C140.298 1.2766 139.277 0.765957 138.511 0.638298ZM144.383 20.9362C145.404 20.2979 146.426 19.5319 146.426 18V8.42553L144.894 6.76596L144.255 7.40426L145.532 8.80851V18C145.66 19.2766 145.149 20.2979 144.383 20.9362ZM63.4468 8.42553C64.9787 7.65958 67.1489 6.38298 68.6809 5.23404H68.9362C69.9575 6.25532 71.3617 7.91489 72.5106 8.93617V9.19149L67.0213 12.766V15.0638C67.6596 15.4468 69.1915 16.2128 70.2128 16.5957L72.5106 14.4255L72.766 14.6809L68.2979 19.0213H68.0426C66.5106 18.383 64.5957 17.4894 63.3192 16.8511C63.4468 16.3404 63.5745 15.1915 63.5745 13.7872V8.42553H63.4468ZM68.5532 18.2553C67.0213 17.617 65.7447 16.9787 64.4681 16.3404C64.5957 15.9574 64.5957 15.3192 64.5957 13.9149V8.17021L63.8298 8.55319V13.7872C63.8298 15.1915 63.8298 16.2128 63.7021 16.5957C64.8511 17.234 66.5106 18 68.0426 18.6383L68.5532 18.2553ZM67.0213 12.383L69.5745 10.7234C68.6809 9.70213 67.7872 8.68085 67.0213 7.91489V12.383ZM67.7872 6.89362L67.0213 7.40426C67.7872 8.29787 68.8085 9.44681 69.8298 10.5957L70.5957 10.0851C69.5745 8.93617 68.5532 7.78723 67.7872 6.89362ZM77.617 2.04255V15.4468C77.617 15.9574 78.1277 16.5957 78.6383 16.7234L79.4043 15.9574L79.6596 16.2128L76.8511 19.1489H76.5957C75.5745 18.8936 74.0426 17.8723 74.0426 16.2128V3.70213L73.2766 2.93617L72.383 3.82979L72.1277 3.57447L75.3192 0.255319H75.5745L77.617 2.04255ZM77.234 18.1277C76.2128 17.8723 75.1915 17.234 75.1915 15.8298V3.19149L74.0426 2.04255L73.4043 2.68085L74.4255 3.57447V16.2128C74.4255 17.617 75.5745 18.5106 76.5957 18.766L77.234 18.1277ZM80.9362 8.42553C82.4681 7.65958 84.6383 6.38298 86.1702 5.23404H86.4255C87.4468 6.25532 88.8511 7.91489 90 8.93617V9.19149L84.5106 12.766V15.0638C85.0213 15.4468 86.6809 16.2128 87.7021 16.5957L90 14.4255L90.2553 14.6809L85.7872 19.0213H85.5319C84 18.383 82.0851 17.4894 80.8085 16.8511C80.9362 16.3404 81.0638 15.1915 81.0638 13.7872V8.42553H80.9362ZM86.0426 18.2553C84.5106 17.617 83.234 16.9787 81.9575 16.3404C82.0851 15.9574 82.0851 15.3192 82.0851 13.9149V8.17021L81.3192 8.55319V13.7872C81.3192 15.1915 81.3192 16.2128 81.1915 16.5957C82.3404 17.234 84 18 85.5319 18.6383L86.0426 18.2553ZM84.5106 12.383L87.0638 10.7234C86.1702 9.70213 85.2766 8.68085 84.5106 7.91489V12.383ZM85.2766 6.89362L84.6383 7.40426C85.4043 8.29787 86.4255 9.44681 87.4468 10.5957L88.0851 10.0851C87.0638 8.93617 86.0426 7.78723 85.2766 6.89362ZM108 8.93617V15.4468C108 15.9574 108.511 16.5957 109.021 16.5957L109.787 15.8298L110.043 16.0851L107.234 19.0213H107.106C106.085 18.766 104.553 17.8723 104.553 16.0851V8.68085L103.787 7.91489L102.894 8.68085L102.638 8.42553L105.83 5.23404H106.085L108.128 7.2766V8.42553L110.681 5.3617H110.936C111.447 5.87234 112.213 6.6383 112.979 7.14894L110.809 9.70213C110.17 9.19149 109.404 8.42553 108.894 8.04255L108 8.93617ZM107.745 18.1277C106.723 17.8723 105.702 17.234 105.702 15.8298V8.17021L104.681 7.02128L104.043 7.65957L104.936 8.55319V16.0851C104.936 17.4894 106.085 18.383 107.106 18.6383L107.745 18.1277ZM109.149 7.78724C109.532 8.17021 110.17 8.80851 110.681 9.19149L111.191 8.55319C110.681 8.17021 109.915 7.40426 109.532 7.14894L109.149 7.78724ZM116.298 19.1489L113.234 17.1064V13.0213C114 12.5106 115.66 11.3617 116.426 10.8511C115.149 10.2128 114.128 9.44681 113.489 8.55319V8.29787C115.277 7.2766 116.681 6.25532 117.702 5.23404H117.957C117.957 5.23404 121.787 7.02128 121.915 7.14894C122.17 7.2766 122.298 7.2766 122.426 7.2766C122.681 7.2766 122.936 7.14894 123.191 7.02128V7.40426C122.936 7.65958 122.553 8.04255 122.553 8.55319V15.3191C122.553 16.0851 123.191 16.4681 123.702 16.5957L124.468 15.8298L124.723 16.0851L121.915 19.0213H121.787C120.638 18.766 119.362 17.617 119.234 16.3404L116.553 19.0213H116.298V19.1489ZM116.936 18.1277L114.383 16.4681V12.6383L113.617 13.1489V16.8511L116.426 18.6383L116.936 18.1277ZM119.106 11.4894V9.44681L115.404 7.53192C115.149 7.78723 114.128 8.29787 113.872 8.55319C114.766 9.57447 117.064 10.9787 119.106 11.4894ZM122.426 18.1277C121.404 17.7447 120.383 17.1064 120.383 15.7021V8.68085L116.553 6.76596C116.426 6.89362 116.043 7.14894 115.915 7.2766L119.617 9.19149V16.0851C119.617 17.3617 120.894 18.383 121.787 18.766L122.426 18.1277ZM119.106 15.9574V11.8723C118.34 11.617 117.447 11.3617 116.681 10.9787V16.0851L118.085 16.9787L119.106 15.9574ZM91.4043 16.9787V8.42553L96 5.23404H96.2553C97.1489 5.61702 100.085 6.89362 100.34 7.02128C100.468 7.02128 100.596 7.14894 100.851 7.14894C101.106 7.14894 101.362 7.02128 101.745 6.89362V7.40426C101.489 7.65958 101.106 8.17021 101.106 8.55319V15.8298C101.106 17.4894 101.489 18.5106 102.128 19.1489V19.4043C101.106 20.4255 98.8085 22.8511 97.7872 24H97.6596C96.6383 23.4894 94.9787 22.9787 93.7021 22.9787C92.6809 22.9787 91.5319 23.234 90.766 23.8723L90.5106 23.7447C91.2766 21.9574 92.9362 20.0426 95.1064 20.0426C96.383 20.0426 98.1702 20.5532 99.7021 21.4468C98.6809 20.2979 97.7872 18.1277 97.7872 16.4681L95.1064 19.0213H94.8511L91.4043 16.9787ZM93.5745 21.9574C92.5532 21.9574 91.6596 22.4681 91.1489 23.1064V23.234C91.7872 22.8511 92.4255 22.7234 93.5745 22.7234C94.8511 22.7234 96.6383 23.1064 97.5319 23.617L98.0426 22.9787C96.8936 22.4681 95.2341 21.9574 93.5745 21.9574ZM94.5957 18.766L95.234 18.2553L92.5532 16.3404V8.17021L91.7872 8.68085V16.8511L94.5957 18.766ZM98.6809 8.17021L94.8511 6.6383V7.40426L97.7872 8.68085V16.3404C97.7872 18 98.5532 19.7872 99.7021 21.1915L100.34 20.5532C99.3192 19.2766 98.6809 17.8723 98.6809 16.2128V8.17021ZM97.5319 15.9574V8.93617L94.9787 7.78724V15.8298L96.6383 16.8511L97.5319 15.9574ZM130.213 8.42553L133.532 5.23404H133.787C134.043 5.48936 135.574 6.89362 135.83 7.02128C135.957 7.14894 136.085 7.14894 136.213 7.14894C136.468 7.14894 136.723 7.02128 136.979 6.89362V7.40426C136.723 7.65958 136.34 8.17021 136.34 8.68085V16.8511C134.936 17.234 133.787 18 132.511 19.4043H132.383L130.213 18.8936V20.6809L131.362 21.7021L128.681 24H128.553L126 21.8298L126.638 21.0638V18C126.383 18 125.872 17.8723 125.617 17.7447V17.3617C125.872 17.234 126.766 16.4681 126.766 15.8298V8.80851L126 8.04255L125.106 8.93617L124.851 8.68085L128.043 5.48936H128.298L130.34 7.53192V8.42553H130.213ZM127.021 21.3191L126.511 21.8298L128.553 23.617L129.191 23.1064L127.532 21.7021L127.787 21.4468V8.17021L126.638 7.02128L126.128 7.53192L127.021 8.42553V21.3191ZM132.766 16.3404V8.93617L131.489 7.65957L130.085 8.93617V15.7021C130.723 15.9574 132.511 16.2128 132.766 16.3404ZM132.383 19.0213C132.511 18.766 132.766 18.5106 132.894 18.383L130.085 17.8723V18.6383L132.383 19.0213ZM131.745 7.53192L133.149 8.93617V16.3404L133.915 15.9574V8.42553L132.383 6.89362L131.745 7.53192ZM1.02128 11.617C1.02128 8.29787 3.44681 6.12766 5.74468 5.10638L5.87234 5.3617C5.10638 6.25532 4.59575 7.14894 4.59575 9.19149C4.59575 11.4894 5.23404 13.0213 6.12766 14.0426C6.38298 13.6596 6.6383 13.1489 6.6383 12.6383V9.31915L10.7234 6.38298L10.8511 6.6383C10.5957 7.02128 10.3404 7.53192 10.3404 8.29787V10.4681C10.3404 12 7.91489 13.6596 6.38298 14.1702C7.40426 15.1915 8.80851 15.5745 10.3404 15.5745C10.8511 15.5745 11.3617 15.5745 11.8723 15.4468V6.12766C10.4681 6 9.19149 5.74468 8.04255 5.3617C6.76596 4.97872 5.48936 4.59575 4.46809 4.59575C2.80851 4.59575 0.765958 5.10638 0.765958 7.53192V8.29787L0.382979 8.42553C0.12766 7.65958 0 6.89362 0 6.25532C0 3.31915 2.17021 0.765958 5.61702 0.765958C7.02128 0.765958 8.42553 1.14894 9.70213 1.53191C10.9787 1.91489 12.2553 2.29787 13.5319 2.29787C14.1702 2.29787 14.5532 1.91489 14.5532 1.2766C14.5532 0.638298 14.2979 0.382979 13.7872 0.255319V0C15.3191 0.255319 16.8511 1.14894 16.8511 3.06383C16.9787 4.97872 15.3191 6.12766 12.5106 6.12766H12.2553V15.5745C14.0426 15.1915 15.3191 14.4255 16.2128 12.8936L16.4681 13.0213C15.4468 16.2128 13.0213 19.2766 8.80851 19.2766C4.59575 19.2766 1.02128 16.7234 1.02128 11.617ZM12.5106 4.97872C9.44681 4.97872 6.6383 3.44681 4.46809 3.44681C2.93617 3.44681 1.2766 4.08511 0.765958 5.74468H0.893617C1.53191 4.59575 3.06383 4.21277 4.46809 4.21277C6.76596 4.21277 9.44681 5.74468 12.5106 5.74468C14.9362 5.74468 16.4681 4.85106 16.5957 2.93617H16.4681C16.2128 4.46809 14.9362 4.97872 12.5106 4.97872ZM3.70213 6.89362C2.55319 8.04255 1.53192 9.57447 1.53192 11.617C1.53192 16.4681 4.7234 18.8936 8.93617 18.8936C11.4894 18.8936 13.2766 17.4894 14.2979 16.4681L14.1702 16.3404C13.0213 17.3617 11.3617 18.1277 8.80851 18.1277C5.48936 18.1277 2.29787 16.0851 2.29787 11.617C2.29787 9.82979 2.93617 8.04255 3.70213 6.89362ZM7.78723 12.383V8.80851L7.02128 9.44681V12.766C7.02128 13.1489 6.89362 13.4043 6.89362 13.6596H7.02128C7.40426 13.2766 7.78723 12.8936 7.78723 12.383ZM46.4681 11.617C46.4681 8.29787 48.8936 6.12766 51.1915 5.10638L51.3192 5.3617C50.4255 6.38298 49.9149 7.2766 49.9149 9.19149C49.9149 11.4894 50.5532 13.0213 51.4468 14.0426C51.7021 13.6596 51.9575 13.1489 51.9575 12.6383V9.31915L56.1702 6.25532L56.2979 6.51064C55.9149 7.02128 55.7872 7.53192 55.7872 8.29787V10.4681C55.7872 12 53.3617 13.6596 51.8298 14.1702C52.8511 15.1915 54.2553 15.5745 55.7872 15.5745C56.2979 15.5745 56.8085 15.5745 57.3192 15.4468V6.12766C55.9149 6 54.6383 5.74468 53.4894 5.3617C52.2128 4.97872 50.9362 4.59575 49.9149 4.59575C48.2553 4.59575 46.2128 5.10638 46.2128 7.53192V8.29787L45.9575 8.42553C45.7021 7.65958 45.5745 6.89362 45.5745 6.25532C45.5745 3.31915 47.7447 0.765958 51.1915 0.765958C52.5957 0.765958 54 1.14894 55.2766 1.53191C56.5532 1.91489 57.8298 2.29787 59.1064 2.29787C59.7447 2.29787 60.1277 1.91489 60.1277 1.2766C60.1277 0.638298 59.8723 0.382979 59.3617 0.255319V0C60.8936 0.255319 62.4255 1.14894 62.4255 3.06383C62.4255 5.3617 60.766 6.38298 57.9575 6.38298H57.7021V15.8298C59.4894 15.4468 60.766 14.6809 61.6596 13.1489L61.9149 13.2766C60.8936 16.4681 58.4681 19.5319 54.2553 19.5319C50.0426 19.2766 46.4681 16.7234 46.4681 11.617ZM57.9575 4.97872C54.8936 4.97872 52.0851 3.44681 49.9149 3.44681C48.5106 3.44681 46.8511 4.08511 46.2128 5.74468H46.3404C46.9787 4.59575 48.5106 4.21277 49.9149 4.21277C52.2128 4.21277 54.8936 5.74468 57.9575 5.74468C60.383 5.74468 61.9149 4.85106 62.0426 2.93617H61.9149C61.5319 4.46809 60.383 4.97872 57.9575 4.97872ZM49.1489 6.89362C48 8.04255 46.9787 9.57447 46.9787 11.617C46.9787 16.4681 50.1702 18.8936 54.383 18.8936C56.9362 18.8936 58.7234 17.4894 59.7447 16.4681L59.617 16.3404C58.4681 17.3617 56.8085 18.1277 54.2553 18.1277C50.9362 18.1277 47.7447 16.0851 47.7447 11.617C47.7447 9.82979 48.383 8.04255 49.1489 6.89362ZM53.234 12.383V8.80851L52.4681 9.31915V12.6383C52.4681 13.0213 52.3404 13.2766 52.3404 13.5319H52.4681C52.8511 13.2766 53.234 12.8936 53.234 12.383Z" fill="#606060"/>
</svg>
