<svg width="640" height="436" viewBox="0 0 640 436" fill="none" xmlns="http://www.w3.org/2000/svg">
<g filter="url(#filter0_d)">
<path d="M599.136 18H36.8644C34.7302 18 33 19.7291 33 21.8621V381.034C33 383.167 34.7302 384.897 36.8644 384.897H599.136C601.27 384.897 603 383.167 603 381.034V21.8621C603 19.7291 601.27 18 599.136 18Z" fill="white"/>
<path d="M572.086 186.965V187.931H104.492V186.965H572.086Z" fill="#E8E8E8"/>
<path d="M572.086 138.69V139.655H104.492V138.69H572.086Z" fill="#E8E8E8"/>
<path d="M105.458 330.827H104.492V138.689H105.458V330.827Z" fill="#E8E8E8"/>
<path d="M416.542 331.793H415.576V138.689H416.542V331.793Z" fill="#E8E8E8"/>
<path d="M572.084 331.793H571.118V139.655H572.084V331.793Z" fill="#E8E8E8"/>
<path d="M260.999 331.793H260.033V138.689H260.999V331.793Z" fill="#E8E8E8"/>
<path d="M572.086 283.517V284.483H104.492V283.517H572.086Z" fill="#E8E8E8"/>
<path d="M572.086 331.793V332.758H104.492V331.793H572.086Z" fill="#E8E8E8"/>
<path d="M572.086 235.242V236.207H104.492V235.242H572.086Z" fill="#E8E8E8"/>
<path d="M65.9814 135.485V134.443H68.3426V143.518H67.1871V135.485H65.9814ZM70.3058 138.887C70.3058 137.447 70.5402 136.326 71.0091 135.523C71.478 134.711 72.2985 134.305 73.4708 134.305C74.6345 134.305 75.4509 134.711 75.9198 135.523C76.3887 136.326 76.6232 137.447 76.6232 138.887C76.6232 140.351 76.3887 141.489 75.9198 142.301C75.4509 143.113 74.6345 143.518 73.4708 143.518C72.2985 143.518 71.478 143.113 71.0091 142.301C70.5402 141.489 70.3058 140.351 70.3058 138.887ZM75.4928 138.887C75.4928 138.159 75.4426 137.544 75.3421 137.041C75.2499 136.531 75.0532 136.121 74.7518 135.811C74.4587 135.501 74.0317 135.347 73.4708 135.347C72.9013 135.347 72.466 135.501 72.1646 135.811C71.8715 136.121 71.6748 136.531 71.5743 137.041C71.4821 137.544 71.4362 138.159 71.4362 138.887C71.4362 139.64 71.4821 140.271 71.5743 140.782C71.6748 141.293 71.8715 141.702 72.1646 142.012C72.466 142.322 72.9013 142.476 73.4708 142.476C74.0317 142.476 74.4587 142.322 74.7518 142.012C75.0532 141.702 75.2499 141.293 75.3421 140.782C75.4426 140.271 75.4928 139.64 75.4928 138.887ZM78.1922 138.887C78.1922 137.447 78.4266 136.326 78.8955 135.523C79.3644 134.711 80.1849 134.305 81.3571 134.305C82.5209 134.305 83.3373 134.711 83.8062 135.523C84.2751 136.326 84.5095 137.447 84.5095 138.887C84.5095 140.351 84.2751 141.489 83.8062 142.301C83.3373 143.113 82.5209 143.518 81.3571 143.518C80.1849 143.518 79.3644 143.113 78.8955 142.301C78.4266 141.489 78.1922 140.351 78.1922 138.887ZM83.3792 138.887C83.3792 138.159 83.329 137.544 83.2285 137.041C83.1363 136.531 82.9396 136.121 82.6382 135.811C82.3451 135.501 81.9181 135.347 81.3571 135.347C80.7877 135.347 80.3524 135.501 80.051 135.811C79.7579 136.121 79.5612 136.531 79.4607 137.041C79.3685 137.544 79.3225 138.159 79.3225 138.887C79.3225 139.64 79.3685 140.271 79.4607 140.782C79.5612 141.293 79.7579 141.702 80.051 142.012C80.3524 142.322 80.7877 142.476 81.3571 142.476C81.9181 142.476 82.3451 142.322 82.6382 142.012C82.9396 141.702 83.1363 141.293 83.2285 140.782C83.329 140.271 83.3792 139.64 83.3792 138.887ZM85.8273 136.489C85.8273 135.92 85.999 135.469 86.3422 135.134C86.6856 134.791 87.1252 134.619 87.661 134.619C88.1969 134.619 88.6364 134.791 88.9797 135.134C89.323 135.469 89.4946 135.92 89.4946 136.489C89.4946 137.067 89.323 137.527 88.9797 137.87C88.6364 138.205 88.1969 138.372 87.661 138.372C87.1252 138.372 86.6856 138.205 86.3422 137.87C85.999 137.527 85.8273 137.067 85.8273 136.489ZM93.1619 134.757L88.0754 143.518H86.9451L92.0316 134.757H93.1619ZM87.661 135.322C87.3763 135.322 87.1503 135.422 86.9828 135.623C86.8237 135.815 86.7441 136.104 86.7441 136.489C86.7441 136.874 86.8237 137.167 86.9828 137.368C87.1503 137.569 87.3763 137.669 87.661 137.669C87.9457 137.669 88.1717 137.569 88.3392 137.368C88.5067 137.158 88.5903 136.866 88.5903 136.489C88.5903 136.104 88.5067 135.815 88.3392 135.623C88.1717 135.422 87.9457 135.322 87.661 135.322ZM90.6375 141.786C90.6375 141.209 90.8092 140.753 91.1525 140.418C91.4958 140.075 91.9354 139.903 92.4712 139.903C93.0071 139.903 93.4425 140.075 93.7774 140.418C94.1207 140.753 94.2923 141.209 94.2923 141.786C94.2923 142.355 94.1207 142.811 93.7774 143.154C93.4425 143.497 93.0071 143.669 92.4712 143.669C91.9354 143.669 91.4958 143.502 91.1525 143.167C90.8092 142.824 90.6375 142.363 90.6375 141.786ZM92.4586 140.619C92.174 140.619 91.9479 140.719 91.7804 140.92C91.613 141.112 91.5292 141.401 91.5292 141.786C91.5292 142.163 91.613 142.451 91.7804 142.652C91.9479 142.844 92.174 142.941 92.4586 142.941C92.7433 142.941 92.9694 142.844 93.1368 142.652C93.3043 142.451 93.388 142.163 93.388 141.786C93.388 141.401 93.3043 141.112 93.1368 140.92C92.9694 140.719 92.7433 140.619 92.4586 140.619Z" fill="#262626"/>
<path d="M76.9258 183.608L73.4343 191.791H72.2788L75.8206 183.721H70.9727V182.742H76.9258V183.608ZM83.9829 183.708H79.5745V186.57C79.7671 186.302 80.0518 186.084 80.4286 185.917C80.8053 185.741 81.2114 185.654 81.6468 185.654C82.3417 185.654 82.9069 185.8 83.3423 186.093C83.7777 186.378 84.0875 186.749 84.2717 187.21C84.4643 187.662 84.5606 188.143 84.5606 188.653C84.5606 189.256 84.4476 189.796 84.2215 190.273C83.9954 190.75 83.6479 191.126 83.1791 191.402C82.7185 191.678 82.1449 191.816 81.4584 191.816C80.5793 191.816 79.8676 191.59 79.3233 191.139C78.779 190.687 78.4483 190.084 78.3312 189.331H79.4489C79.5577 189.808 79.788 190.181 80.1397 190.448C80.4914 190.716 80.9351 190.85 81.471 190.85C82.1324 190.85 82.6306 190.653 82.9656 190.26C83.3004 189.858 83.4679 189.331 83.4679 188.678C83.4679 188.026 83.3004 187.524 82.9656 187.172C82.6306 186.812 82.1366 186.633 81.4836 186.633C81.0397 186.633 80.6504 186.742 80.3155 186.959C79.989 187.168 79.7504 187.457 79.5997 187.825H78.5196V182.704H83.9829V183.708ZM85.8281 184.762C85.8281 184.194 85.9998 183.742 86.343 183.407C86.6864 183.064 87.126 182.892 87.6618 182.892C88.1977 182.892 88.6372 183.064 88.9805 183.407C89.3239 183.742 89.4954 184.194 89.4954 184.762C89.4954 185.34 89.3239 185.8 88.9805 186.143C88.6372 186.478 88.1977 186.645 87.6618 186.645C87.126 186.645 86.6864 186.478 86.343 186.143C85.9998 185.8 85.8281 185.34 85.8281 184.762ZM93.1628 183.03L88.0762 191.791H86.9459L92.0324 183.03H93.1628ZM87.6618 183.595C87.3772 183.595 87.1511 183.695 86.9836 183.896C86.8245 184.088 86.7449 184.377 86.7449 184.762C86.7449 185.148 86.8245 185.44 86.9836 185.641C87.1511 185.842 87.3772 185.942 87.6618 185.942C87.9465 185.942 88.1725 185.842 88.34 185.641C88.5075 185.431 88.5912 185.139 88.5912 184.762C88.5912 184.377 88.5075 184.088 88.34 183.896C88.1725 183.695 87.9465 183.595 87.6618 183.595ZM90.6383 190.059C90.6383 189.482 90.81 189.026 91.1533 188.691C91.4966 188.348 91.9362 188.176 92.472 188.176C93.0079 188.176 93.4433 188.348 93.7782 188.691C94.1215 189.026 94.2931 189.482 94.2931 190.059C94.2931 190.628 94.1215 191.085 93.7782 191.427C93.4433 191.77 93.0079 191.942 92.472 191.942C91.9362 191.942 91.4966 191.775 91.1533 191.44C90.81 191.097 90.6383 190.637 90.6383 190.059ZM92.4594 188.892C92.1748 188.892 91.9488 188.992 91.7812 189.193C91.6138 189.385 91.53 189.674 91.53 190.059C91.53 190.436 91.6138 190.724 91.7812 190.925C91.9488 191.117 92.1748 191.214 92.4594 191.214C92.7441 191.214 92.9702 191.117 93.1376 190.925C93.3052 190.724 93.3888 190.436 93.3888 190.059C93.3888 189.674 93.3052 189.385 93.1376 189.193C92.9702 188.992 92.7441 188.892 92.4594 188.892Z" fill="#262626"/>
<path d="M76.096 231.02H71.6877V233.882C71.8803 233.615 72.165 233.396 72.5417 233.229C72.9185 233.054 73.3246 232.966 73.76 232.966C74.4549 232.966 75.0201 233.112 75.4555 233.405C75.8908 233.69 76.2007 234.062 76.3849 234.522C76.5774 234.974 76.6738 235.455 76.6738 235.966C76.6738 236.568 76.5607 237.108 76.3347 237.585C76.1086 238.062 75.7611 238.438 75.2922 238.714C74.8317 238.991 74.2581 239.129 73.5716 239.129C72.6925 239.129 71.9807 238.903 71.4365 238.451C70.8922 237.999 70.5615 237.396 70.4443 236.643H71.5621C71.6709 237.12 71.9012 237.493 72.2529 237.76C72.6045 238.028 73.0483 238.162 73.5842 238.162C74.2456 238.162 74.7438 237.965 75.0787 237.572C75.4136 237.171 75.5811 236.643 75.5811 235.991C75.5811 235.338 75.4136 234.836 75.0787 234.484C74.7438 234.124 74.2498 233.945 73.5967 233.945C73.1529 233.945 72.7636 234.054 72.4287 234.271C72.1022 234.481 71.8635 234.769 71.7128 235.137H70.6327V230.016H76.096V231.02ZM78.1926 234.472C78.1926 233.032 78.4269 231.911 78.8959 231.108C79.3647 230.296 80.1852 229.891 81.3575 229.891C82.5213 229.891 83.3376 230.296 83.8066 231.108C84.2754 231.911 84.5099 233.032 84.5099 234.472C84.5099 235.937 84.2754 237.074 83.8066 237.886C83.3376 238.698 82.5213 239.103 81.3575 239.103C80.1852 239.103 79.3647 238.698 78.8959 237.886C78.4269 237.074 78.1926 235.937 78.1926 234.472ZM83.3796 234.472C83.3796 233.744 83.3293 233.129 83.2289 232.627C83.1367 232.116 82.94 231.707 82.6386 231.397C82.3455 231.087 81.9184 230.932 81.3575 230.932C80.7881 230.932 80.3528 231.087 80.0514 231.397C79.7582 231.707 79.5615 232.116 79.4611 232.627C79.3689 233.129 79.3229 233.744 79.3229 234.472C79.3229 235.225 79.3689 235.856 79.4611 236.367C79.5615 236.878 79.7582 237.287 80.0514 237.597C80.3528 237.907 80.7881 238.062 81.3575 238.062C81.9184 238.062 82.3455 237.907 82.6386 237.597C82.94 237.287 83.1367 236.878 83.2289 236.367C83.3293 235.856 83.3796 235.225 83.3796 234.472ZM85.8277 232.075C85.8277 231.506 85.9993 231.054 86.3426 230.719C86.686 230.376 87.1255 230.204 87.6613 230.204C88.1972 230.204 88.6368 230.376 88.9801 230.719C89.3234 231.054 89.495 231.506 89.495 232.075C89.495 232.652 89.3234 233.112 88.9801 233.455C88.6368 233.79 88.1972 233.957 87.6613 233.957C87.1255 233.957 86.686 233.79 86.3426 233.455C85.9993 233.112 85.8277 232.652 85.8277 232.075ZM93.1623 230.342L88.0758 239.103H86.9454L92.032 230.342H93.1623ZM87.6613 230.907C87.3767 230.907 87.1507 231.008 86.9831 231.208C86.8241 231.401 86.7445 231.689 86.7445 232.075C86.7445 232.46 86.8241 232.752 86.9831 232.953C87.1507 233.154 87.3767 233.254 87.6613 233.254C87.946 233.254 88.1721 233.154 88.3395 232.953C88.5071 232.744 88.5907 232.451 88.5907 232.075C88.5907 231.689 88.5071 231.401 88.3395 231.208C88.1721 231.008 87.946 230.907 87.6613 230.907ZM90.6379 237.371C90.6379 236.794 90.8096 236.338 91.1528 236.003C91.4962 235.66 91.9358 235.489 92.4716 235.489C93.0074 235.489 93.4429 235.66 93.7777 236.003C94.1211 236.338 94.2927 236.794 94.2927 237.371C94.2927 237.94 94.1211 238.397 93.7777 238.739C93.4429 239.082 93.0074 239.254 92.4716 239.254C91.9358 239.254 91.4962 239.087 91.1528 238.752C90.8096 238.409 90.6379 237.949 90.6379 237.371ZM92.459 236.204C92.1744 236.204 91.9483 236.304 91.7808 236.505C91.6134 236.697 91.5296 236.986 91.5296 237.371C91.5296 237.748 91.6134 238.037 91.7808 238.237C91.9483 238.43 92.1744 238.526 92.459 238.526C92.7437 238.526 92.9698 238.43 93.1372 238.237C93.3047 238.037 93.3884 237.748 93.3884 237.371C93.3884 236.986 93.3047 236.697 93.1372 236.505C92.9698 236.304 92.7437 236.204 92.459 236.204Z" fill="#262626"/>
<path d="M114.338 343.383V352.069H113.196V345.592L110.307 352.069H109.503L106.602 345.58V352.069H105.459V343.383H106.69L109.905 350.563L113.12 343.383H114.338ZM115.85 348.605C115.85 347.902 115.992 347.287 116.277 346.76C116.561 346.224 116.951 345.81 117.445 345.517C117.947 345.225 118.504 345.078 119.115 345.078C119.718 345.078 120.241 345.207 120.685 345.467C121.129 345.727 121.459 346.053 121.677 346.446V345.191H122.833V352.069H121.677V350.789C121.451 351.191 121.112 351.526 120.66 351.793C120.216 352.053 119.697 352.182 119.103 352.182C118.491 352.182 117.939 352.031 117.445 351.73C116.951 351.429 116.561 351.006 116.277 350.463C115.992 349.919 115.85 349.299 115.85 348.605ZM121.677 348.617C121.677 348.099 121.573 347.647 121.363 347.262C121.154 346.877 120.869 346.584 120.509 346.383C120.158 346.174 119.768 346.069 119.341 346.069C118.914 346.069 118.525 346.17 118.173 346.371C117.822 346.571 117.541 346.864 117.332 347.249C117.122 347.635 117.018 348.086 117.018 348.605C117.018 349.132 117.122 349.593 117.332 349.986C117.541 350.371 117.822 350.667 118.173 350.877C118.525 351.078 118.914 351.178 119.341 351.178C119.768 351.178 120.158 351.078 120.509 350.877C120.869 350.667 121.154 350.371 121.363 349.986C121.573 349.593 121.677 349.136 121.677 348.617ZM130.692 345.191L126.547 355.307H125.367L126.723 351.994L123.948 345.191H125.216L127.376 350.764L129.511 345.191H130.692ZM134.699 344.036V342.994H137.06V352.069H135.905V344.036H134.699ZM139.024 347.438C139.024 345.998 139.258 344.877 139.728 344.074C140.196 343.262 141.016 342.856 142.189 342.856C143.352 342.856 144.169 343.262 144.638 344.074C145.107 344.877 145.341 345.998 145.341 347.438C145.341 348.902 145.107 350.04 144.638 350.852C144.169 351.664 143.352 352.069 142.189 352.069C141.016 352.069 140.196 351.664 139.728 350.852C139.258 350.04 139.024 348.902 139.024 347.438ZM144.211 347.438C144.211 346.71 144.161 346.095 144.061 345.592C143.968 345.082 143.772 344.672 143.47 344.362C143.177 344.052 142.75 343.898 142.189 343.898C141.619 343.898 141.184 344.052 140.883 344.362C140.589 344.672 140.393 345.082 140.293 345.592C140.2 346.095 140.155 346.71 140.155 347.438C140.155 348.191 140.2 348.822 140.293 349.333C140.393 349.844 140.589 350.253 140.883 350.563C141.184 350.873 141.619 351.027 142.189 351.027C142.75 351.027 143.177 350.873 143.47 350.563C143.772 350.253 143.968 349.844 144.061 349.333C144.161 348.822 144.211 348.191 144.211 347.438Z" fill="#262626"/>
<path d="M249.751 350.125H245.933L245.23 352.07H244.024L247.189 343.372H248.508L251.66 352.07H250.455L249.751 350.125ZM249.425 349.196L247.842 344.778L246.26 349.196H249.425ZM259.144 345.192V352.07H258.001V351.054C257.783 351.405 257.477 351.681 257.084 351.882C256.699 352.074 256.272 352.171 255.803 352.171C255.267 352.171 254.786 352.062 254.359 351.844C253.932 351.618 253.593 351.283 253.341 350.84C253.098 350.397 252.977 349.857 252.977 349.221V345.192H254.108V349.07C254.108 349.748 254.279 350.271 254.623 350.639C254.966 350.999 255.434 351.179 256.029 351.179C256.64 351.179 257.122 350.991 257.474 350.614C257.825 350.238 258.001 349.689 258.001 348.97V345.192H259.144ZM263.912 345.079C264.507 345.079 265.026 345.208 265.469 345.468C265.921 345.728 266.256 346.054 266.474 346.447V345.192H267.629V352.221C267.629 352.848 267.496 353.405 267.227 353.89C266.96 354.384 266.574 354.769 266.072 355.045C265.578 355.321 265 355.459 264.339 355.459C263.434 355.459 262.681 355.246 262.078 354.819C261.475 354.392 261.12 353.811 261.01 353.074H262.141C262.266 353.492 262.526 353.827 262.919 354.078C263.314 354.338 263.786 354.468 264.339 354.468C264.967 354.468 265.478 354.271 265.871 353.878C266.273 353.485 266.474 352.932 266.474 352.221V350.777C266.248 351.179 265.913 351.514 265.469 351.782C265.026 352.049 264.507 352.183 263.912 352.183C263.301 352.183 262.744 352.033 262.241 351.731C261.748 351.43 261.358 351.007 261.073 350.464C260.789 349.92 260.646 349.3 260.646 348.606C260.646 347.903 260.789 347.288 261.073 346.761C261.358 346.225 261.748 345.811 262.241 345.518C262.744 345.226 263.301 345.079 263.912 345.079ZM266.474 348.618C266.474 348.1 266.369 347.648 266.16 347.263C265.951 346.878 265.666 346.585 265.306 346.384C264.954 346.175 264.565 346.07 264.138 346.07C263.711 346.07 263.321 346.171 262.97 346.372C262.618 346.573 262.338 346.865 262.128 347.25C261.92 347.636 261.814 348.087 261.814 348.606C261.814 349.133 261.92 349.594 262.128 349.987C262.338 350.372 262.618 350.668 262.97 350.878C263.321 351.079 263.711 351.179 264.138 351.179C264.565 351.179 264.954 351.079 265.306 350.878C265.666 350.668 265.951 350.372 266.16 349.987C266.369 349.594 266.474 349.137 266.474 348.618ZM272.695 345.28C272.754 344.51 273.052 343.908 273.587 343.472C274.123 343.037 274.818 342.82 275.672 342.82C276.242 342.82 276.732 342.924 277.141 343.133C277.561 343.334 277.875 343.61 278.083 343.962C278.302 344.313 278.41 344.711 278.41 345.154C278.41 345.673 278.259 346.121 277.958 346.497C277.665 346.874 277.28 347.116 276.802 347.225V347.288C277.347 347.422 277.778 347.686 278.096 348.079C278.415 348.472 278.573 348.986 278.573 349.623C278.573 350.1 278.465 350.53 278.247 350.915C278.029 351.292 277.703 351.589 277.267 351.807C276.832 352.024 276.309 352.133 275.697 352.133C274.81 352.133 274.082 351.903 273.512 351.443C272.943 350.974 272.625 350.313 272.557 349.459H273.662C273.721 349.962 273.926 350.372 274.278 350.69C274.63 351.007 275.099 351.166 275.685 351.166C276.271 351.166 276.714 351.016 277.016 350.715C277.326 350.405 277.481 350.008 277.481 349.522C277.481 348.895 277.272 348.443 276.853 348.167C276.434 347.89 275.802 347.752 274.956 347.752H274.667V346.798H274.969C275.74 346.79 276.321 346.664 276.714 346.422C277.109 346.171 277.305 345.786 277.305 345.267C277.305 344.824 277.159 344.468 276.865 344.2C276.581 343.933 276.17 343.799 275.634 343.799C275.115 343.799 274.697 343.933 274.378 344.2C274.061 344.468 273.872 344.828 273.813 345.28H272.695ZM280.116 347.439C280.116 345.999 280.351 344.878 280.819 344.075C281.289 343.263 282.109 342.857 283.281 342.857C284.445 342.857 285.261 343.263 285.73 344.075C286.2 344.878 286.433 345.999 286.433 347.439C286.433 348.903 286.2 350.041 285.73 350.853C285.261 351.665 284.445 352.07 283.281 352.07C282.109 352.07 281.289 351.665 280.819 350.853C280.351 350.041 280.116 348.903 280.116 347.439ZM285.303 347.439C285.303 346.711 285.253 346.096 285.152 345.594C285.061 345.083 284.863 344.673 284.562 344.363C284.269 344.054 283.842 343.899 283.281 343.899C282.712 343.899 282.276 344.054 281.975 344.363C281.682 344.673 281.485 345.083 281.385 345.594C281.293 346.096 281.246 346.711 281.246 347.439C281.246 348.192 281.293 348.823 281.385 349.334C281.485 349.845 281.682 350.254 281.975 350.564C282.276 350.874 282.712 351.028 283.281 351.028C283.842 351.028 284.269 350.874 284.562 350.564C284.863 350.254 285.061 349.845 285.152 349.334C285.253 348.823 285.303 348.192 285.303 347.439Z" fill="#262626"/>
<path d="M533.021 343.319C533.976 343.319 534.801 343.499 535.495 343.859C536.199 344.21 536.735 344.716 537.103 345.378C537.48 346.039 537.668 346.817 537.668 347.712C537.668 348.607 537.48 349.385 537.103 350.047C536.735 350.7 536.199 351.202 535.495 351.553C534.801 351.896 533.976 352.068 533.021 352.068H530.296V343.319H533.021ZM533.021 351.126C534.152 351.126 535.014 350.829 535.609 350.235C536.203 349.633 536.5 348.792 536.5 347.712C536.5 346.624 536.199 345.775 535.596 345.164C535.002 344.553 534.143 344.248 533.021 344.248H531.439V351.126H533.021ZM545.456 348.365C545.456 348.582 545.443 348.813 545.418 349.055H539.917C539.959 349.733 540.189 350.264 540.608 350.649C541.035 351.026 541.55 351.214 542.153 351.214C542.647 351.214 543.057 351.101 543.384 350.875C543.718 350.641 543.953 350.332 544.087 349.946H545.318C545.133 350.608 544.765 351.148 544.213 351.566C543.66 351.976 542.973 352.181 542.153 352.181C541.5 352.181 540.913 352.034 540.395 351.741C539.884 351.449 539.482 351.035 539.189 350.499C538.895 349.955 538.749 349.328 538.749 348.616C538.749 347.904 538.891 347.282 539.176 346.746C539.46 346.21 539.858 345.8 540.369 345.516C540.888 345.223 541.482 345.076 542.153 345.076C542.806 345.076 543.384 345.218 543.886 345.503C544.388 345.788 544.773 346.181 545.042 346.683C545.318 347.176 545.456 347.737 545.456 348.365ZM544.275 348.126C544.275 347.691 544.179 347.319 543.987 347.009C543.793 346.692 543.53 346.453 543.195 346.294C542.869 346.127 542.505 346.043 542.103 346.043C541.525 346.043 541.03 346.227 540.621 346.595C540.219 346.963 539.988 347.474 539.93 348.126H544.275ZM546.537 348.616C546.537 347.904 546.679 347.285 546.964 346.758C547.249 346.222 547.642 345.808 548.145 345.516C548.656 345.223 549.237 345.076 549.89 345.076C550.736 345.076 551.431 345.281 551.975 345.691C552.528 346.102 552.892 346.67 553.068 347.398H551.837C551.72 346.98 551.489 346.649 551.146 346.407C550.811 346.164 550.393 346.043 549.89 346.043C549.237 346.043 548.71 346.269 548.308 346.721C547.906 347.164 547.705 347.796 547.705 348.616C547.705 349.444 547.906 350.084 548.308 350.536C548.71 350.988 549.237 351.214 549.89 351.214C550.393 351.214 550.811 351.097 551.146 350.863C551.482 350.628 551.711 350.294 551.837 349.859H553.068C552.883 350.561 552.515 351.126 551.963 351.553C551.41 351.971 550.719 352.181 549.89 352.181C549.237 352.181 548.656 352.034 548.145 351.741C547.642 351.449 547.249 351.035 546.964 350.499C546.679 349.963 546.537 349.335 546.537 348.616ZM557.614 351.151C558.678 350.298 559.511 349.599 560.114 349.055C560.717 348.503 561.224 347.929 561.633 347.336C562.053 346.733 562.261 346.143 562.261 345.566C562.261 345.022 562.128 344.596 561.859 344.286C561.601 343.968 561.177 343.809 560.591 343.809C560.022 343.809 559.578 343.988 559.26 344.348C558.95 344.7 558.782 345.173 558.757 345.767H557.652C557.686 344.829 557.971 344.106 558.506 343.595C559.042 343.084 559.733 342.83 560.578 342.83C561.441 342.83 562.123 343.068 562.626 343.545C563.137 344.022 563.392 344.679 563.392 345.516C563.392 346.21 563.183 346.888 562.764 347.549C562.354 348.202 561.885 348.779 561.357 349.281C560.83 349.775 560.156 350.352 559.335 351.013H563.655V351.967H557.614V351.151ZM564.977 347.436C564.977 345.996 565.212 344.876 565.68 344.072C566.149 343.26 566.97 342.855 568.142 342.855C569.306 342.855 570.122 343.26 570.591 344.072C571.06 344.876 571.294 345.996 571.294 347.436C571.294 348.901 571.06 350.038 570.591 350.85C570.122 351.662 569.306 352.068 568.142 352.068C566.97 352.068 566.149 351.662 565.68 350.85C565.212 350.038 564.977 348.901 564.977 347.436ZM570.164 347.436C570.164 346.708 570.114 346.093 570.013 345.591C569.922 345.08 569.724 344.671 569.423 344.361C569.13 344.051 568.703 343.896 568.142 343.896C567.573 343.896 567.137 344.051 566.836 344.361C566.543 344.671 566.346 345.08 566.246 345.591C566.154 346.093 566.107 346.708 566.107 347.436C566.107 348.189 566.154 348.821 566.246 349.331C566.346 349.842 566.543 350.252 566.836 350.561C567.137 350.871 567.573 351.026 568.142 351.026C568.703 351.026 569.13 350.871 569.423 350.561C569.724 350.252 569.922 349.842 570.013 349.331C570.114 348.821 570.164 348.189 570.164 347.436Z" fill="#262626"/>
<path d="M401.428 350.123H397.61L396.907 352.069H395.701L398.866 343.37H400.185L403.337 352.069H402.132L401.428 350.123ZM401.102 349.194L399.519 344.776L397.937 349.194H401.102ZM405.86 346.458C406.086 346.065 406.42 345.739 406.864 345.479C407.317 345.212 407.839 345.077 408.434 345.077C409.045 345.077 409.598 345.224 410.092 345.517C410.595 345.809 410.988 346.224 411.273 346.759C411.557 347.287 411.7 347.902 411.7 348.604C411.7 349.299 411.557 349.919 411.273 350.462C410.988 351.006 410.595 351.429 410.092 351.73C409.598 352.031 409.045 352.182 408.434 352.182C407.848 352.182 407.329 352.052 406.877 351.793C406.433 351.525 406.094 351.194 405.86 350.801V355.332H404.717V345.19H405.86V346.458ZM410.532 348.604C410.532 348.086 410.426 347.634 410.218 347.249C410.008 346.864 409.723 346.571 409.364 346.37C409.012 346.169 408.623 346.069 408.196 346.069C407.776 346.069 407.387 346.173 407.028 346.383C406.676 346.584 406.391 346.881 406.174 347.274C405.964 347.659 405.86 348.106 405.86 348.617C405.86 349.136 405.964 349.592 406.174 349.985C406.391 350.37 406.676 350.667 407.028 350.876C407.387 351.077 407.776 351.178 408.196 351.178C408.623 351.178 409.012 351.077 409.364 350.876C409.723 350.667 410.008 350.37 410.218 349.985C410.426 349.592 410.532 349.132 410.532 348.604ZM414.347 346.308C414.548 345.915 414.833 345.609 415.201 345.391C415.578 345.174 416.034 345.065 416.57 345.065V346.245H416.269C414.987 346.245 414.347 346.939 414.347 348.328V352.069H413.204V345.19H414.347V346.308ZM420.747 344.036V342.994H423.109V352.069H421.953V344.036H420.747ZM424.77 344.036V342.994H427.131V352.069H425.976V344.036H424.77Z" fill="#262626"/>
<path d="M70.832 288.393C71.8954 287.539 72.7285 286.84 73.3313 286.296C73.9342 285.744 74.4408 285.171 74.851 284.577C75.2697 283.974 75.479 283.384 75.479 282.807C75.479 282.263 75.3451 281.837 75.0771 281.527C74.8176 281.209 74.3947 281.05 73.8086 281.05C73.2393 281.05 72.7955 281.229 72.4773 281.59C72.1676 281.941 72 282.414 71.9749 283.008H70.8697C70.9032 282.07 71.1879 281.347 71.7237 280.836C72.2596 280.326 72.9504 280.071 73.796 280.071C74.6585 280.071 75.3408 280.309 75.8432 280.786C76.354 281.263 76.6093 281.92 76.6093 282.757C76.6093 283.451 76.4001 284.129 75.9814 284.79C75.5711 285.443 75.1022 286.02 74.5747 286.522C74.0472 287.016 73.3733 287.593 72.5527 288.255H76.8731V289.208H70.832V288.393ZM83.9842 281.226H79.5758V284.087C79.7684 283.82 80.0531 283.602 80.4299 283.435C80.8066 283.259 81.2127 283.171 81.6481 283.171C82.343 283.171 82.9082 283.318 83.3436 283.61C83.779 283.895 84.0888 284.267 84.273 284.727C84.4656 285.179 84.5619 285.66 84.5619 286.171C84.5619 286.773 84.4488 287.313 84.2228 287.79C83.9967 288.267 83.6492 288.644 83.1804 288.92C82.7198 289.196 82.1462 289.334 81.4597 289.334C80.5806 289.334 79.8688 289.108 79.3246 288.656C78.7803 288.204 78.4496 287.602 78.3325 286.849H79.4502C79.559 287.326 79.7893 287.698 80.141 287.966C80.4927 288.233 80.9364 288.367 81.4723 288.367C82.1337 288.367 82.6319 288.171 82.9668 287.778C83.3017 287.376 83.4692 286.849 83.4692 286.196C83.4692 285.543 83.3017 285.041 82.9668 284.69C82.6319 284.33 82.1379 284.15 81.4848 284.15C81.041 284.15 80.6517 284.259 80.3168 284.476C79.9903 284.686 79.7517 284.975 79.6009 285.343H78.5208V280.221H83.9842V281.226ZM85.8294 282.28C85.8294 281.711 86.0011 281.259 86.3443 280.924C86.6877 280.582 87.1273 280.41 87.6631 280.41C88.199 280.41 88.6385 280.582 88.9818 280.924C89.3251 281.259 89.4967 281.711 89.4967 282.28C89.4967 282.857 89.3251 283.318 88.9818 283.661C88.6385 283.996 88.199 284.163 87.6631 284.163C87.1273 284.163 86.6877 283.996 86.3443 283.661C86.0011 283.318 85.8294 282.857 85.8294 282.28ZM93.1641 280.548L88.0775 289.309H86.9472L92.0337 280.548H93.1641ZM87.6631 281.113C87.3785 281.113 87.1524 281.213 86.9849 281.414C86.8258 281.606 86.7462 281.895 86.7462 282.28C86.7462 282.665 86.8258 282.958 86.9849 283.159C87.1524 283.359 87.3785 283.46 87.6631 283.46C87.9478 283.46 88.1738 283.359 88.3413 283.159C88.5088 282.949 88.5925 282.656 88.5925 282.28C88.5925 281.895 88.5088 281.606 88.3413 281.414C88.1738 281.213 87.9478 281.113 87.6631 281.113ZM90.6396 287.577C90.6396 286.999 90.8113 286.544 91.1546 286.209C91.4979 285.866 91.9375 285.694 92.4733 285.694C93.0092 285.694 93.4446 285.866 93.7795 286.209C94.1228 286.544 94.2944 286.999 94.2944 287.577C94.2944 288.145 94.1228 288.602 93.7795 288.945C93.4446 289.288 93.0092 289.46 92.4733 289.46C91.9375 289.46 91.4979 289.292 91.1546 288.957C90.8113 288.615 90.6396 288.154 90.6396 287.577ZM92.4607 286.409C92.1761 286.409 91.95 286.51 91.7825 286.711C91.6151 286.903 91.5313 287.191 91.5313 287.577C91.5313 287.953 91.6151 288.242 91.7825 288.443C91.95 288.635 92.1761 288.732 92.4607 288.732C92.7454 288.732 92.9715 288.635 93.1389 288.443C93.3065 288.242 93.3901 287.953 93.3901 287.577C93.3901 287.191 93.3065 286.903 93.1389 286.711C92.9715 286.51 92.7454 286.409 92.4607 286.409Z" fill="#262626"/>
<path d="M78.1943 325.232C78.1943 323.792 78.4287 322.671 78.8977 321.868C79.3665 321.056 80.187 320.65 81.3593 320.65C82.523 320.65 83.3394 321.056 83.8084 321.868C84.2772 322.671 84.5117 323.792 84.5117 325.232C84.5117 326.696 84.2772 327.834 83.8084 328.646C83.3394 329.458 82.523 329.863 81.3593 329.863C80.187 329.863 79.3665 329.458 78.8977 328.646C78.4287 327.834 78.1943 326.696 78.1943 325.232ZM83.3813 325.232C83.3813 324.504 83.3311 323.889 83.2306 323.387C83.1385 322.876 82.9418 322.466 82.6403 322.156C82.3472 321.847 81.9202 321.692 81.3593 321.692C80.7899 321.692 80.3545 321.847 80.0531 322.156C79.76 322.466 79.5633 322.876 79.4628 323.387C79.3707 323.889 79.3247 324.504 79.3247 325.232C79.3247 325.985 79.3707 326.616 79.4628 327.127C79.5633 327.638 79.76 328.047 80.0531 328.357C80.3545 328.667 80.7899 328.821 81.3593 328.821C81.9202 328.821 82.3472 328.667 82.6403 328.357C82.9418 328.047 83.1385 327.638 83.2306 327.127C83.3311 326.616 83.3813 325.985 83.3813 325.232ZM85.8294 322.834C85.8294 322.266 86.0011 321.814 86.3444 321.479C86.6877 321.136 87.1273 320.964 87.6631 320.964C88.199 320.964 88.6386 321.136 88.9818 321.479C89.3252 321.814 89.4968 322.266 89.4968 322.834C89.4968 323.412 89.3252 323.872 88.9818 324.215C88.6386 324.55 88.199 324.717 87.6631 324.717C87.1273 324.717 86.6877 324.55 86.3444 324.215C86.0011 323.872 85.8294 323.412 85.8294 322.834ZM93.1641 321.102L88.0776 329.863H86.9472L92.0337 321.102H93.1641ZM87.6631 321.667C87.3785 321.667 87.1524 321.767 86.9849 321.968C86.8259 322.16 86.7463 322.449 86.7463 322.834C86.7463 323.22 86.8259 323.512 86.9849 323.713C87.1524 323.914 87.3785 324.014 87.6631 324.014C87.9478 324.014 88.1739 323.914 88.3413 323.713C88.5088 323.503 88.5925 323.211 88.5925 322.834C88.5925 322.449 88.5088 322.16 88.3413 321.968C88.1739 321.767 87.9478 321.667 87.6631 321.667ZM90.6397 328.131C90.6397 327.554 90.8113 327.098 91.1546 326.763C91.4979 326.42 91.9375 326.248 92.4733 326.248C93.0092 326.248 93.4446 326.42 93.7795 326.763C94.1228 327.098 94.2944 327.554 94.2944 328.131C94.2944 328.7 94.1228 329.157 93.7795 329.499C93.4446 329.842 93.0092 330.014 92.4733 330.014C91.9375 330.014 91.4979 329.847 91.1546 329.512C90.8113 329.169 90.6397 328.709 90.6397 328.131ZM92.4608 326.964C92.1761 326.964 91.9501 327.064 91.7826 327.265C91.6151 327.457 91.5314 327.746 91.5314 328.131C91.5314 328.508 91.6151 328.796 91.7826 328.997C91.9501 329.189 92.1761 329.286 92.4608 329.286C92.7455 329.286 92.9715 329.189 93.139 328.997C93.3065 328.796 93.3902 328.508 93.3902 328.131C93.3902 327.746 93.3065 327.457 93.139 327.265C92.9715 327.064 92.7455 326.964 92.4608 326.964Z" fill="#262626"/>
<path d="M129.45 264.686L130.658 263.885L129.051 261.46L128.084 264.204L129.45 264.686ZM145.447 288.813L144.238 289.613L145.956 292.204L146.836 289.222L145.447 288.813ZM173.939 192.303L175.225 191.635L173.566 188.447L172.549 191.893L173.939 192.303ZM186.935 217.292L185.649 217.96L186.645 219.874L188.041 218.228L186.935 217.292ZM224.925 172.484L226.084 171.614L224.993 170.163L223.82 171.547L224.925 172.484ZM253.418 210.399L252.259 211.269L253.944 213.51L254.798 210.84L253.418 210.399ZM261.415 185.409L262.821 185.055L261.581 180.139L260.035 184.968L261.415 185.409ZM266.414 205.228L265.009 205.583L265.836 208.862L267.64 206.001L266.414 205.228ZM278.911 185.409L279.795 184.261L278.533 183.292L277.685 184.637L278.911 185.409ZM320.4 217.292L319.517 218.44L320.606 219.277L321.499 218.236L320.4 217.292ZM358.89 172.484L360.284 172.089L359.548 169.494L357.791 171.54L358.89 172.484ZM391.882 288.813L390.487 289.208L391.353 292.261L393.093 289.607L391.882 288.813ZM404.878 268.994L406.207 268.417L405.137 265.957L403.666 268.2L404.878 268.994ZM415.375 293.121L414.046 293.699L414.261 294.193L414.747 294.427L415.375 293.121ZM467.361 318.111L466.733 319.416L467.724 319.892L468.449 319.068L467.361 318.111ZM489.356 293.121L490.526 292.267L489.46 290.81L488.268 292.165L489.356 293.121ZM503.852 312.94L502.682 313.795L504.739 316.607L505.283 313.166L503.852 312.94ZM517.348 227.632L518.689 227.083L516.725 222.3L515.917 227.406L517.348 227.632ZM548.84 304.323L547.499 304.874L549.307 309.275L550.26 304.614L548.84 304.323ZM106.824 333.24L130.817 265.167L128.084 264.204L104.09 332.279L106.824 333.24ZM128.242 265.485L144.238 289.613L146.654 288.013L130.658 263.885L128.242 265.485ZM146.836 289.222L175.329 192.712L172.549 191.893L144.056 288.403L146.836 289.222ZM172.653 192.971L185.649 217.96L188.221 216.624L175.225 191.635L172.653 192.971ZM188.041 218.228L226.031 173.42L223.82 171.547L185.83 216.356L188.041 218.228ZM223.766 173.354L252.259 211.269L254.576 209.529L226.084 171.614L223.766 173.354ZM254.798 210.84L262.796 185.85L260.035 184.968L252.038 209.957L254.798 210.84ZM260.011 185.763L265.009 205.583L267.82 204.874L262.821 185.055L260.011 185.763ZM267.64 206.001L280.137 186.182L277.685 184.637L265.188 204.456L267.64 206.001ZM278.028 186.557L319.517 218.44L321.284 216.143L279.795 184.261L278.028 186.557ZM321.499 218.236L359.99 173.427L357.791 171.54L319.3 216.349L321.499 218.236ZM357.496 172.879L390.487 289.208L393.276 288.418L360.284 172.089L357.496 172.879ZM393.093 289.607L406.09 269.788L403.666 268.2L390.669 288.019L393.093 289.607ZM403.549 269.571L414.046 293.699L416.704 292.544L406.207 268.417L403.549 269.571ZM414.747 294.427L466.733 319.416L467.989 316.805L416.003 291.816L414.747 294.427ZM468.449 319.068L490.443 294.078L488.268 292.165L466.273 317.154L468.449 319.068ZM488.186 293.976L502.682 313.795L505.022 312.086L490.526 292.267L488.186 293.976ZM505.283 313.166L518.779 227.859L515.917 227.406L502.42 312.715L505.283 313.166ZM516.007 228.183L547.499 304.874L550.18 303.774L518.689 227.083L516.007 228.183ZM550.26 304.614L573.504 190.869L570.664 190.29L547.42 304.034L550.26 304.614Z" fill="#44C577"/>
<path d="M261.484 86.0691H161.009C159.142 86.0691 157.628 87.5821 157.628 89.4484V108.759C157.628 110.625 159.142 112.138 161.009 112.138H261.484C263.351 112.138 264.865 110.625 264.865 108.759V89.4484C264.865 87.5821 263.351 86.0691 261.484 86.0691Z" fill="white"/>
<path d="M180.324 97.2665C180.324 98.0505 180.054 98.7039 179.513 99.2265C178.98 99.7401 178.164 99.997 177.065 99.997H175.252V103.931H174.021V94.509H177.065C178.128 94.509 178.935 94.7658 179.486 95.2795C180.044 95.7931 180.324 96.4555 180.324 97.2665ZM177.065 98.9832C177.75 98.9832 178.255 98.8345 178.58 98.5371C178.904 98.2397 179.066 97.8162 179.066 97.2665C179.066 96.104 178.399 95.5228 177.065 95.5228H175.252V98.9832H177.065ZM181.394 100.2C181.394 99.4428 181.547 98.7804 181.854 98.2127C182.16 97.636 182.579 97.1899 183.112 96.8745C183.653 96.5591 184.253 96.4014 184.91 96.4014C185.56 96.4014 186.123 96.5411 186.601 96.8204C187.079 97.0997 187.435 97.4512 187.67 97.8748V96.523H188.914V103.931H187.67V102.552C187.426 102.984 187.061 103.345 186.574 103.633C186.096 103.912 185.537 104.052 184.897 104.052C184.239 104.052 183.644 103.89 183.112 103.566C182.579 103.241 182.16 102.786 181.854 102.2C181.547 101.615 181.394 100.948 181.394 100.2ZM187.67 100.213C187.67 99.6545 187.557 99.1679 187.331 98.7534C187.106 98.3389 186.799 98.0235 186.412 97.8072C186.033 97.5819 185.614 97.4692 185.154 97.4692C184.694 97.4692 184.275 97.5774 183.896 97.7937C183.517 98.0099 183.215 98.3254 182.99 98.7399C182.765 99.1544 182.652 99.641 182.652 100.2C182.652 100.768 182.765 101.263 182.99 101.687C183.215 102.101 183.517 102.421 183.896 102.646C184.275 102.863 184.694 102.971 185.154 102.971C185.614 102.971 186.033 102.863 186.412 102.646C186.799 102.421 187.106 102.101 187.331 101.687C187.557 101.263 187.67 100.772 187.67 100.213ZM193.618 104.052C193.05 104.052 192.541 103.958 192.09 103.768C191.638 103.57 191.283 103.3 191.021 102.957C190.759 102.606 190.615 102.205 190.588 101.754H191.86C191.895 102.124 192.067 102.426 192.374 102.66C192.689 102.894 193.099 103.011 193.604 103.011C194.073 103.011 194.443 102.908 194.713 102.7C194.984 102.493 195.119 102.232 195.119 101.916C195.119 101.592 194.975 101.353 194.686 101.2C194.398 101.038 193.951 100.88 193.347 100.727C192.798 100.583 192.346 100.439 191.995 100.294C191.652 100.141 191.354 99.9204 191.102 99.632C190.859 99.3346 190.737 98.9472 190.737 98.4695C190.737 98.091 190.85 97.7441 191.075 97.4287C191.3 97.1133 191.621 96.8655 192.035 96.6853C192.45 96.496 192.923 96.4014 193.456 96.4014C194.276 96.4014 194.939 96.6087 195.444 97.0232C195.949 97.4377 196.22 98.0054 196.255 98.7264H195.025C194.997 98.3389 194.84 98.028 194.551 97.7937C194.272 97.5593 193.893 97.4422 193.415 97.4422C192.973 97.4422 192.622 97.5368 192.36 97.7261C192.098 97.9153 191.968 98.1632 191.968 98.4695C191.968 98.7128 192.044 98.9156 192.198 99.0778C192.36 99.231 192.558 99.3571 192.793 99.4563C193.036 99.5464 193.37 99.6501 193.794 99.7672C194.326 99.9113 194.759 100.056 195.092 100.2C195.425 100.335 195.709 100.542 195.944 100.822C196.188 101.101 196.314 101.466 196.323 101.916C196.323 102.322 196.21 102.687 195.985 103.011C195.76 103.336 195.439 103.593 195.025 103.782C194.619 103.962 194.15 104.052 193.618 104.052ZM199.561 97.5368V101.903C199.561 102.263 199.639 102.52 199.791 102.673C199.945 102.818 200.211 102.89 200.589 102.89H201.495V103.931H200.386C199.701 103.931 199.187 103.773 198.844 103.457C198.502 103.142 198.331 102.624 198.331 101.903V97.5368H197.37V96.523H198.331V94.6577H199.561V96.523H201.495V97.5368H199.561ZM212.409 95.1173L208.648 103.931H207.404L211.218 95.2389H205.997V94.1846H212.409V95.1173ZM217.122 100.2C217.122 99.4428 217.276 98.7804 217.582 98.2127C217.889 97.636 218.309 97.1899 218.84 96.8745C219.381 96.5591 219.986 96.4014 220.652 96.4014C221.23 96.4014 221.766 96.5366 222.262 96.8069C222.758 97.0683 223.137 97.4152 223.398 97.8477V93.9277H224.642V103.931H223.398V102.538C223.154 102.98 222.794 103.345 222.316 103.633C221.839 103.912 221.279 104.052 220.639 104.052C219.981 104.052 219.381 103.89 218.84 103.566C218.309 103.241 217.889 102.786 217.582 102.2C217.276 101.615 217.122 100.948 217.122 100.2ZM223.398 100.213C223.398 99.6545 223.286 99.1679 223.06 98.7534C222.835 98.3389 222.528 98.0235 222.14 97.8072C221.761 97.5819 221.342 97.4692 220.882 97.4692C220.422 97.4692 220.003 97.5774 219.624 97.7937C219.246 98.0099 218.944 98.3254 218.718 98.7399C218.493 99.1544 218.38 99.641 218.38 100.2C218.38 100.768 218.493 101.263 218.718 101.687C218.944 102.101 219.246 102.421 219.624 102.646C220.003 102.863 220.422 102.971 220.882 102.971C221.342 102.971 221.761 102.863 222.14 102.646C222.528 102.421 222.835 102.101 223.06 101.687C223.286 101.263 223.398 100.772 223.398 100.213ZM226.262 100.2C226.262 99.4428 226.416 98.7804 226.722 98.2127C227.03 97.636 227.449 97.1899 227.98 96.8745C228.521 96.5591 229.121 96.4014 229.779 96.4014C230.428 96.4014 230.992 96.5411 231.47 96.8204C231.948 97.0997 232.304 97.4512 232.538 97.8748V96.523H233.783V103.931H232.538V102.552C232.295 102.984 231.93 103.345 231.443 103.633C230.965 103.912 230.406 104.052 229.766 104.052C229.108 104.052 228.512 103.89 227.98 103.566C227.449 103.241 227.03 102.786 226.722 102.2C226.416 101.615 226.262 100.948 226.262 100.2ZM232.538 100.213C232.538 99.6545 232.426 99.1679 232.2 98.7534C231.975 98.3389 231.669 98.0235 231.28 97.8072C230.902 97.5819 230.482 97.4692 230.022 97.4692C229.563 97.4692 229.143 97.5774 228.765 97.7937C228.386 98.0099 228.085 98.3254 227.858 98.7399C227.633 99.1544 227.52 99.641 227.52 100.2C227.52 100.768 227.633 101.263 227.858 101.687C228.085 102.101 228.386 102.421 228.765 102.646C229.143 102.863 229.563 102.971 230.022 102.971C230.482 102.971 230.902 102.863 231.28 102.646C231.669 102.421 231.975 102.101 232.2 101.687C232.426 101.263 232.538 100.772 232.538 100.213ZM242.247 96.523L237.783 107.418H236.512L237.973 103.849L234.983 96.523H236.349L238.676 102.525L240.975 96.523H242.247ZM246.108 104.052C245.54 104.052 245.031 103.958 244.58 103.768C244.129 103.57 243.773 103.3 243.511 102.957C243.249 102.606 243.105 102.205 243.078 101.754H244.35C244.386 102.124 244.557 102.426 244.864 102.66C245.18 102.894 245.589 103.011 246.095 103.011C246.563 103.011 246.933 102.908 247.204 102.7C247.474 102.493 247.609 102.232 247.609 101.916C247.609 101.592 247.465 101.353 247.177 101.2C246.888 101.038 246.441 100.88 245.838 100.727C245.288 100.583 244.837 100.439 244.485 100.294C244.142 100.141 243.845 99.9204 243.592 99.632C243.349 99.3346 243.227 98.9472 243.227 98.4695C243.227 98.091 243.34 97.7441 243.565 97.4287C243.79 97.1133 244.111 96.8655 244.526 96.6853C244.94 96.496 245.413 96.4014 245.946 96.4014C246.766 96.4014 247.429 96.6087 247.934 97.0232C248.439 97.4377 248.71 98.0054 248.746 98.7264H247.515C247.488 98.3389 247.33 98.028 247.041 97.7937C246.762 97.5593 246.383 97.4422 245.905 97.4422C245.464 97.4422 245.112 97.5368 244.85 97.7261C244.588 97.9153 244.458 98.1632 244.458 98.4695C244.458 98.7128 244.534 98.9156 244.688 99.0778C244.85 99.231 245.048 99.3571 245.283 99.4563C245.526 99.5464 245.86 99.6501 246.284 99.7672C246.816 99.9113 247.249 100.056 247.582 100.2C247.916 100.335 248.2 100.542 248.434 100.822C248.678 101.101 248.804 101.466 248.813 101.916C248.813 102.322 248.7 102.687 248.475 103.011C248.25 103.336 247.929 103.593 247.515 103.782C247.109 103.962 246.64 104.052 246.108 104.052Z" fill="#00AC45"/>
<path d="M261.484 86.0691H161.009C159.142 86.0691 157.628 87.5821 157.628 89.4484V108.759C157.628 110.625 159.142 112.138 161.009 112.138H261.484C263.351 112.138 264.865 110.625 264.865 108.759V89.4484C264.865 87.5821 263.351 86.0691 261.484 86.0691Z" stroke="#E8E8E8"/>
<path d="M381.763 86.0691H272.593C270.726 86.0691 269.212 87.5821 269.212 89.4484V108.759C269.212 110.625 270.726 112.138 272.593 112.138H381.763C383.63 112.138 385.144 110.625 385.144 108.759V89.4484C385.144 87.5821 383.63 86.0691 381.763 86.0691Z" fill="white"/>
<path d="M291.721 97.2665C291.721 98.0505 291.45 98.7039 290.909 99.2265C290.378 99.7401 289.562 99.997 288.461 99.997H286.649V103.931H285.418V94.509H288.461C289.526 94.509 290.333 94.7658 290.882 95.2795C291.442 95.7931 291.721 96.4555 291.721 97.2665ZM288.461 98.9832C289.147 98.9832 289.651 98.8345 289.976 98.5371C290.301 98.2397 290.463 97.8162 290.463 97.2665C290.463 96.104 289.796 95.5228 288.461 95.5228H286.649V98.9832H288.461ZM292.791 100.2C292.791 99.4428 292.944 98.7804 293.251 98.2127C293.557 97.636 293.977 97.1899 294.509 96.8745C295.05 96.5591 295.649 96.4014 296.308 96.4014C296.957 96.4014 297.52 96.5411 297.999 96.8204C298.476 97.0997 298.832 97.4512 299.067 97.8748V96.523H300.311V103.931H299.067V102.552C298.824 102.984 298.458 103.345 297.972 103.633C297.493 103.912 296.934 104.052 296.294 104.052C295.635 104.052 295.04 103.89 294.509 103.566C293.977 103.241 293.557 102.786 293.251 102.2C292.944 101.615 292.791 100.948 292.791 100.2ZM299.067 100.213C299.067 99.6545 298.954 99.1679 298.729 98.7534C298.503 98.3389 298.197 98.0235 297.809 97.8072C297.43 97.5819 297.011 97.4692 296.551 97.4692C296.091 97.4692 295.672 97.5774 295.293 97.7937C294.915 98.0099 294.612 98.3254 294.387 98.7399C294.161 99.1544 294.049 99.641 294.049 100.2C294.049 100.768 294.161 101.263 294.387 101.687C294.612 102.101 294.915 102.421 295.293 102.646C295.672 102.863 296.091 102.971 296.551 102.971C297.011 102.971 297.43 102.863 297.809 102.646C298.197 102.421 298.503 102.101 298.729 101.687C298.954 101.263 299.067 100.772 299.067 100.213ZM305.015 104.052C304.447 104.052 303.937 103.958 303.487 103.768C303.036 103.57 302.679 103.3 302.418 102.957C302.157 102.606 302.013 102.205 301.986 101.754H303.257C303.293 102.124 303.464 102.426 303.771 102.66C304.086 102.894 304.497 103.011 305.002 103.011C305.47 103.011 305.84 102.908 306.111 102.7C306.381 102.493 306.517 102.232 306.517 101.916C306.517 101.592 306.372 101.353 306.084 101.2C305.795 101.038 305.349 100.88 304.745 100.727C304.194 100.583 303.744 100.439 303.392 100.294C303.049 100.141 302.752 99.9204 302.5 99.632C302.256 99.3346 302.134 98.9472 302.134 98.4695C302.134 98.091 302.247 97.7441 302.473 97.4287C302.698 97.1133 303.017 96.8655 303.433 96.6853C303.847 96.496 304.321 96.4014 304.853 96.4014C305.673 96.4014 306.336 96.6087 306.841 97.0232C307.346 97.4377 307.616 98.0054 307.653 98.7264H306.422C306.395 98.3389 306.237 98.028 305.949 97.7937C305.668 97.5593 305.29 97.4422 304.812 97.4422C304.37 97.4422 304.018 97.5368 303.757 97.7261C303.496 97.9153 303.365 98.1632 303.365 98.4695C303.365 98.7128 303.442 98.9156 303.595 99.0778C303.757 99.231 303.956 99.3571 304.19 99.4563C304.434 99.5464 304.767 99.6501 305.191 99.7672C305.723 99.9113 306.155 100.056 306.49 100.2C306.823 100.335 307.107 100.542 307.342 100.822C307.585 101.101 307.711 101.466 307.72 101.916C307.72 102.322 307.607 102.687 307.382 103.011C307.156 103.336 306.836 103.593 306.422 103.782C306.016 103.962 305.547 104.052 305.015 104.052ZM310.959 97.5368V101.903C310.959 102.263 311.035 102.52 311.189 102.673C311.342 102.818 311.608 102.89 311.987 102.89H312.893V103.931H311.784C311.099 103.931 310.585 103.773 310.242 103.457C309.899 103.142 309.728 102.624 309.728 101.903V97.5368H308.768V96.523H309.728V94.6577H310.959V96.523H312.893V97.5368H310.959ZM317.76 96.6177C317.823 95.7886 318.144 95.1398 318.72 94.6712C319.297 94.2026 320.046 93.9683 320.966 93.9683C321.579 93.9683 322.107 94.081 322.548 94.3062C322.999 94.5225 323.337 94.8199 323.563 95.1984C323.797 95.5768 323.914 96.0049 323.914 96.4825C323.914 97.0412 323.752 97.5233 323.427 97.9288C323.111 98.3343 322.697 98.5957 322.183 98.7128V98.7804C322.769 98.9246 323.233 99.2084 323.576 99.632C323.919 100.056 324.09 100.61 324.09 101.295C324.09 101.808 323.973 102.272 323.738 102.687C323.504 103.092 323.152 103.412 322.683 103.647C322.215 103.881 321.651 103.998 320.993 103.998C320.037 103.998 319.253 103.75 318.639 103.255C318.026 102.75 317.684 102.038 317.611 101.119H318.802C318.864 101.66 319.086 102.101 319.464 102.444C319.843 102.786 320.348 102.957 320.979 102.957C321.61 102.957 322.088 102.795 322.413 102.471C322.746 102.137 322.913 101.709 322.913 101.187C322.913 100.511 322.688 100.024 322.237 99.7266C321.786 99.4293 321.106 99.2806 320.195 99.2806H319.884V98.2533H320.208C321.038 98.2443 321.664 98.1091 322.088 97.8477C322.512 97.5774 322.724 97.1629 322.724 96.6041C322.724 96.1265 322.567 95.7436 322.251 95.4552C321.944 95.1668 321.502 95.0226 320.925 95.0226C320.366 95.0226 319.916 95.1668 319.573 95.4552C319.23 95.7436 319.027 96.131 318.964 96.6177H317.76ZM325.752 98.9426C325.752 97.3927 326.005 96.1851 326.509 95.32C327.014 94.4459 327.898 94.0088 329.16 94.0088C330.414 94.0088 331.293 94.4459 331.798 95.32C332.303 96.1851 332.555 97.3927 332.555 98.9426C332.555 100.52 332.303 101.745 331.798 102.619C331.293 103.493 330.414 103.931 329.16 103.931C327.898 103.931 327.014 103.493 326.509 102.619C326.005 101.745 325.752 100.52 325.752 98.9426ZM331.338 98.9426C331.338 98.1586 331.284 97.4963 331.175 96.9556C331.077 96.4059 330.864 95.9643 330.54 95.6309C330.225 95.2975 329.765 95.1308 329.16 95.1308C328.548 95.1308 328.078 95.2975 327.754 95.6309C327.439 95.9643 327.226 96.4059 327.118 96.9556C327.019 97.4963 326.969 98.1586 326.969 98.9426C326.969 99.7537 327.019 100.434 327.118 100.984C327.226 101.533 327.439 101.975 327.754 102.308C328.078 102.642 328.548 102.809 329.16 102.809C329.765 102.809 330.225 102.642 330.54 102.308C330.864 101.975 331.077 101.533 331.175 100.984C331.284 100.434 331.338 99.7537 331.338 98.9426ZM337.594 100.2C337.594 99.4428 337.747 98.7804 338.054 98.2127C338.36 97.636 338.78 97.1899 339.312 96.8745C339.853 96.5591 340.457 96.4014 341.124 96.4014C341.701 96.4014 342.237 96.5366 342.734 96.8069C343.23 97.0683 343.608 97.4152 343.87 97.8477V93.9277H345.114V103.931H343.87V102.538C343.627 102.98 343.265 103.345 342.788 103.633C342.31 103.912 341.75 104.052 341.111 104.052C340.452 104.052 339.853 103.89 339.312 103.566C338.78 103.241 338.36 102.786 338.054 102.2C337.747 101.615 337.594 100.948 337.594 100.2ZM343.87 100.213C343.87 99.6545 343.757 99.1679 343.532 98.7534C343.306 98.3389 343 98.0235 342.612 97.8072C342.233 97.5819 341.814 97.4692 341.354 97.4692C340.894 97.4692 340.475 97.5774 340.096 97.7937C339.718 98.0099 339.415 98.3254 339.19 98.7399C338.964 99.1544 338.852 99.641 338.852 100.2C338.852 100.768 338.964 101.263 339.19 101.687C339.415 102.101 339.718 102.421 340.096 102.646C340.475 102.863 340.894 102.971 341.354 102.971C341.814 102.971 342.233 102.863 342.612 102.646C343 102.421 343.306 102.101 343.532 101.687C343.757 101.263 343.87 100.772 343.87 100.213ZM346.735 100.2C346.735 99.4428 346.887 98.7804 347.194 98.2127C347.501 97.636 347.92 97.1899 348.452 96.8745C348.993 96.5591 349.592 96.4014 350.251 96.4014C350.9 96.4014 351.464 96.5411 351.942 96.8204C352.419 97.0997 352.776 97.4512 353.01 97.8748V96.523H354.255V103.931H353.01V102.552C352.767 102.984 352.402 103.345 351.915 103.633C351.437 103.912 350.877 104.052 350.238 104.052C349.579 104.052 348.984 103.89 348.452 103.566C347.92 103.241 347.501 102.786 347.194 102.2C346.887 101.615 346.735 100.948 346.735 100.2ZM353.01 100.213C353.01 99.6545 352.897 99.1679 352.672 98.7534C352.446 98.3389 352.14 98.0235 351.752 97.8072C351.374 97.5819 350.954 97.4692 350.495 97.4692C350.035 97.4692 349.615 97.5774 349.237 97.7937C348.858 98.0099 348.556 98.3254 348.331 98.7399C348.104 99.1544 347.992 99.641 347.992 100.2C347.992 100.768 348.104 101.263 348.331 101.687C348.556 102.101 348.858 102.421 349.237 102.646C349.615 102.863 350.035 102.971 350.495 102.971C350.954 102.971 351.374 102.863 351.752 102.646C352.14 102.421 352.446 102.101 352.672 101.687C352.897 101.263 353.01 100.772 353.01 100.213ZM362.719 96.523L358.255 107.418H356.984L358.445 103.849L355.456 96.523H356.822L359.148 102.525L361.447 96.523H362.719ZM366.579 104.052C366.011 104.052 365.502 103.958 365.051 103.768C364.601 103.57 364.244 103.3 363.982 102.957C363.722 102.606 363.577 102.205 363.55 101.754H364.821C364.858 102.124 365.029 102.426 365.335 102.66C365.651 102.894 366.061 103.011 366.566 103.011C367.035 103.011 367.404 102.908 367.675 102.7C367.945 102.493 368.081 102.232 368.081 101.916C368.081 101.592 367.937 101.353 367.648 101.2C367.36 101.038 366.914 100.88 366.309 100.727C365.759 100.583 365.308 100.439 364.956 100.294C364.614 100.141 364.317 99.9204 364.063 99.632C363.82 99.3346 363.698 98.9472 363.698 98.4695C363.698 98.091 363.811 97.7441 364.036 97.4287C364.263 97.1133 364.582 96.8655 364.997 96.6853C365.412 96.496 365.886 96.4014 366.417 96.4014C367.238 96.4014 367.901 96.6087 368.405 97.0232C368.91 97.4377 369.181 98.0054 369.217 98.7264H367.986C367.959 98.3389 367.801 98.028 367.512 97.7937C367.233 97.5593 366.855 97.4422 366.376 97.4422C365.935 97.4422 365.583 97.5368 365.321 97.7261C365.061 97.9153 364.929 98.1632 364.929 98.4695C364.929 98.7128 365.006 98.9156 365.159 99.0778C365.321 99.231 365.52 99.3571 365.754 99.4563C365.998 99.5464 366.332 99.6501 366.755 99.7672C367.287 99.9113 367.72 100.056 368.054 100.2C368.388 100.335 368.672 100.542 368.906 100.822C369.149 101.101 369.276 101.466 369.284 101.916C369.284 102.322 369.172 102.687 368.946 103.011C368.721 103.336 368.401 103.593 367.986 103.782C367.58 103.962 367.112 104.052 366.579 104.052Z" fill="#00AC45"/>
<path d="M381.763 86.0691H272.593C270.726 86.0691 269.212 87.5821 269.212 89.4484V108.759C269.212 110.625 270.726 112.138 272.593 112.138H381.763C383.63 112.138 385.144 110.625 385.144 108.759V89.4484C385.144 87.5821 383.63 86.0691 381.763 86.0691Z" stroke="#E8E8E8"/>
<path d="M503.009 86.0691H392.874C391.006 86.0691 389.492 87.5821 389.492 89.4484V108.759C389.492 110.625 391.006 112.138 392.874 112.138H503.009C504.877 112.138 506.391 110.625 506.391 108.759V89.4484C506.391 87.5821 504.877 86.0691 503.009 86.0691Z" fill="white"/>
<path d="M412.205 97.2665C412.205 98.0505 411.935 98.7039 411.394 99.2265C410.862 99.7401 410.046 99.997 408.946 99.997H407.133V103.931H405.902V94.509H408.946C410.01 94.509 410.817 94.7658 411.367 95.2795C411.926 95.7931 412.205 96.4555 412.205 97.2665ZM408.946 98.9832C409.631 98.9832 410.136 98.8345 410.46 98.5371C410.785 98.2397 410.947 97.8162 410.947 97.2665C410.947 96.104 410.281 95.5228 408.946 95.5228H407.133V98.9832H408.946ZM413.276 100.2C413.276 99.4428 413.428 98.7804 413.735 98.2127C414.042 97.636 414.461 97.1899 414.993 96.8745C415.534 96.5591 416.133 96.4014 416.792 96.4014C417.441 96.4014 418.005 96.5411 418.483 96.8204C418.96 97.0997 419.317 97.4512 419.551 97.8748V96.523H420.796V103.931H419.551V102.552C419.308 102.984 418.943 103.345 418.456 103.633C417.978 103.912 417.418 104.052 416.779 104.052C416.12 104.052 415.525 103.89 414.993 103.566C414.461 103.241 414.042 102.786 413.735 102.2C413.428 101.615 413.276 100.948 413.276 100.2ZM419.551 100.213C419.551 99.6545 419.438 99.1679 419.213 98.7534C418.987 98.3389 418.681 98.0235 418.294 97.8072C417.915 97.5819 417.496 97.4692 417.036 97.4692C416.576 97.4692 416.157 97.5774 415.778 97.7937C415.399 98.0099 415.097 98.3254 414.872 98.7399C414.646 99.1544 414.533 99.641 414.533 100.2C414.533 100.768 414.646 101.263 414.872 101.687C415.097 102.101 415.399 102.421 415.778 102.646C416.157 102.863 416.576 102.971 417.036 102.971C417.496 102.971 417.915 102.863 418.294 102.646C418.681 102.421 418.987 102.101 419.213 101.687C419.438 101.263 419.551 100.772 419.551 100.213ZM425.5 104.052C424.932 104.052 424.422 103.958 423.971 103.768C423.52 103.57 423.164 103.3 422.903 102.957C422.641 102.606 422.497 102.205 422.47 101.754H423.741C423.777 102.124 423.948 102.426 424.255 102.66C424.57 102.894 424.981 103.011 425.486 103.011C425.955 103.011 426.325 102.908 426.595 102.7C426.866 102.493 427.001 102.232 427.001 101.916C427.001 101.592 426.856 101.353 426.568 101.2C426.279 101.038 425.833 100.88 425.229 100.727C424.679 100.583 424.228 100.439 423.877 100.294C423.534 100.141 423.236 99.9204 422.984 99.632C422.741 99.3346 422.619 98.9472 422.619 98.4695C422.619 98.091 422.731 97.7441 422.957 97.4287C423.182 97.1133 423.502 96.8655 423.917 96.6853C424.332 96.496 424.805 96.4014 425.337 96.4014C426.158 96.4014 426.82 96.6087 427.326 97.0232C427.83 97.4377 428.1 98.0054 428.137 98.7264H426.906C426.879 98.3389 426.721 98.028 426.433 97.7937C426.153 97.5593 425.774 97.4422 425.297 97.4422C424.854 97.4422 424.503 97.5368 424.242 97.7261C423.98 97.9153 423.85 98.1632 423.85 98.4695C423.85 98.7128 423.926 98.9156 424.08 99.0778C424.242 99.231 424.44 99.3571 424.675 99.4563C424.918 99.5464 425.251 99.6501 425.676 99.7672C426.207 99.9113 426.64 100.056 426.974 100.2C427.307 100.335 427.591 100.542 427.826 100.822C428.07 101.101 428.195 101.466 428.205 101.916C428.205 102.322 428.092 102.687 427.867 103.011C427.641 103.336 427.321 103.593 426.906 103.782C426.501 103.962 426.031 104.052 425.5 104.052ZM431.443 97.5368V101.903C431.443 102.263 431.519 102.52 431.673 102.673C431.827 102.818 432.092 102.89 432.471 102.89H433.377V103.931H432.268C431.583 103.931 431.069 103.773 430.726 103.457C430.383 103.142 430.212 102.624 430.212 101.903V97.5368H429.252V96.523H430.212V94.6577H431.443V96.523H433.377V97.5368H431.443ZM439.854 101.308C439.944 101.822 440.152 102.218 440.476 102.498C440.809 102.777 441.256 102.917 441.815 102.917C442.564 102.917 443.114 102.624 443.465 102.038C443.826 101.452 443.998 100.466 443.979 99.0778C443.79 99.4833 443.474 99.8032 443.033 100.038C442.591 100.263 442.099 100.376 441.558 100.376C440.954 100.376 440.413 100.254 439.935 100.011C439.467 99.7582 439.097 99.3932 438.826 98.9156C438.556 98.438 438.42 97.8612 438.42 97.1854C438.42 96.2211 438.7 95.4462 439.259 94.8604C439.818 94.2657 440.611 93.9683 441.639 93.9683C442.902 93.9683 443.785 94.3783 444.29 95.1984C444.804 96.0184 445.061 97.2395 445.061 98.8615C445.061 99.997 444.958 100.934 444.75 101.673C444.552 102.412 444.209 102.975 443.722 103.363C443.244 103.75 442.586 103.944 441.748 103.944C440.828 103.944 440.111 103.696 439.597 103.201C439.083 102.705 438.79 102.074 438.718 101.308H439.854ZM441.761 99.3346C442.365 99.3346 442.862 99.1499 443.249 98.7804C443.636 98.4019 443.831 97.8928 443.831 97.253C443.831 96.5771 443.641 96.0319 443.262 95.6174C442.884 95.2029 442.351 94.9956 441.666 94.9956C441.036 94.9956 440.53 95.1938 440.152 95.5904C439.782 95.9869 439.597 96.5095 439.597 97.1584C439.597 97.8162 439.782 98.3433 440.152 98.7399C440.522 99.1364 441.058 99.3346 441.761 99.3346ZM446.791 98.9426C446.791 97.3927 447.044 96.1851 447.548 95.32C448.053 94.4459 448.937 94.0088 450.199 94.0088C451.453 94.0088 452.332 94.4459 452.836 95.32C453.342 96.1851 453.594 97.3927 453.594 98.9426C453.594 100.52 453.342 101.745 452.836 102.619C452.332 103.493 451.453 103.931 450.199 103.931C448.937 103.931 448.053 103.493 447.548 102.619C447.044 101.745 446.791 100.52 446.791 98.9426ZM452.377 98.9426C452.377 98.1586 452.323 97.4963 452.214 96.9556C452.116 96.4059 451.903 95.9643 451.579 95.6309C451.264 95.2975 450.804 95.1308 450.199 95.1308C449.587 95.1308 449.117 95.2975 448.792 95.6309C448.477 95.9643 448.265 96.4059 448.157 96.9556C448.058 97.4963 448.008 98.1586 448.008 98.9426C448.008 99.7537 448.058 100.434 448.157 100.984C448.265 101.533 448.477 101.975 448.792 102.308C449.117 102.642 449.587 102.809 450.199 102.809C450.804 102.809 451.264 102.642 451.579 102.308C451.903 101.975 452.116 101.533 452.214 100.984C452.323 100.434 452.377 99.7537 452.377 98.9426ZM458.633 100.2C458.633 99.4428 458.786 98.7804 459.093 98.2127C459.399 97.636 459.819 97.1899 460.351 96.8745C460.892 96.5591 461.496 96.4014 462.163 96.4014C462.74 96.4014 463.276 96.5366 463.773 96.8069C464.268 97.0683 464.647 97.4152 464.909 97.8477V93.9277H466.153V103.931H464.909V102.538C464.665 102.98 464.304 103.345 463.827 103.633C463.349 103.912 462.789 104.052 462.15 104.052C461.491 104.052 460.892 103.89 460.351 103.566C459.819 103.241 459.399 102.786 459.093 102.2C458.786 101.615 458.633 100.948 458.633 100.2ZM464.909 100.213C464.909 99.6545 464.796 99.1679 464.571 98.7534C464.345 98.3389 464.038 98.0235 463.651 97.8072C463.272 97.5819 462.853 97.4692 462.393 97.4692C461.933 97.4692 461.514 97.5774 461.135 97.7937C460.757 98.0099 460.454 98.3254 460.229 98.7399C460.003 99.1544 459.891 99.641 459.891 100.2C459.891 100.768 460.003 101.263 460.229 101.687C460.454 102.101 460.757 102.421 461.135 102.646C461.514 102.863 461.933 102.971 462.393 102.971C462.853 102.971 463.272 102.863 463.651 102.646C464.038 102.421 464.345 102.101 464.571 101.687C464.796 101.263 464.909 100.772 464.909 100.213ZM467.773 100.2C467.773 99.4428 467.926 98.7804 468.233 98.2127C468.54 97.636 468.959 97.1899 469.491 96.8745C470.032 96.5591 470.631 96.4014 471.29 96.4014C471.939 96.4014 472.502 96.5411 472.981 96.8204C473.458 97.0997 473.814 97.4512 474.049 97.8748V96.523H475.294V103.931H474.049V102.552C473.806 102.984 473.441 103.345 472.954 103.633C472.475 103.912 471.916 104.052 471.276 104.052C470.618 104.052 470.022 103.89 469.491 103.566C468.959 103.241 468.54 102.786 468.233 102.2C467.926 101.615 467.773 100.948 467.773 100.2ZM474.049 100.213C474.049 99.6545 473.936 99.1679 473.711 98.7534C473.485 98.3389 473.179 98.0235 472.791 97.8072C472.413 97.5819 471.993 97.4692 471.533 97.4692C471.074 97.4692 470.654 97.5774 470.276 97.7937C469.897 98.0099 469.594 98.3254 469.369 98.7399C469.143 99.1544 469.031 99.641 469.031 100.2C469.031 100.768 469.143 101.263 469.369 101.687C469.594 102.101 469.897 102.421 470.276 102.646C470.654 102.863 471.074 102.971 471.533 102.971C471.993 102.971 472.413 102.863 472.791 102.646C473.179 102.421 473.485 102.101 473.711 101.687C473.936 101.263 474.049 100.772 474.049 100.213ZM483.758 96.523L479.294 107.418H478.023L479.483 103.849L476.494 96.523H477.86L480.187 102.525L482.486 96.523H483.758ZM487.618 104.052C487.05 104.052 486.541 103.958 486.09 103.768C485.64 103.57 485.283 103.3 485.021 102.957C484.76 102.606 484.615 102.205 484.588 101.754H485.86C485.896 102.124 486.067 102.426 486.374 102.66C486.69 102.894 487.1 103.011 487.605 103.011C488.074 103.011 488.443 102.908 488.714 102.7C488.984 102.493 489.119 102.232 489.119 101.916C489.119 101.592 488.975 101.353 488.687 101.2C488.399 101.038 487.952 100.88 487.348 100.727C486.798 100.583 486.347 100.439 485.995 100.294C485.653 100.141 485.355 99.9204 485.102 99.632C484.859 99.3346 484.737 98.9472 484.737 98.4695C484.737 98.091 484.85 97.7441 485.075 97.4287C485.301 97.1133 485.621 96.8655 486.036 96.6853C486.451 96.496 486.924 96.4014 487.456 96.4014C488.277 96.4014 488.94 96.6087 489.444 97.0232C489.949 97.4377 490.22 98.0054 490.256 98.7264H489.025C488.998 98.3389 488.84 98.028 488.551 97.7937C488.272 97.5593 487.893 97.4422 487.415 97.4422C486.974 97.4422 486.622 97.5368 486.36 97.7261C486.099 97.9153 485.968 98.1632 485.968 98.4695C485.968 98.7128 486.045 98.9156 486.198 99.0778C486.36 99.231 486.559 99.3571 486.793 99.4563C487.036 99.5464 487.371 99.6501 487.794 99.7672C488.326 99.9113 488.759 100.056 489.092 100.2C489.427 100.335 489.711 100.542 489.944 100.822C490.188 101.101 490.314 101.466 490.323 101.916C490.323 102.322 490.211 102.687 489.985 103.011C489.76 103.336 489.44 103.593 489.025 103.782C488.619 103.962 488.15 104.052 487.618 104.052Z" fill="#00AC45"/>
<path d="M503.009 86.0691H392.874C391.006 86.0691 389.492 87.5821 389.492 89.4484V108.759C389.492 110.625 391.006 112.138 392.874 112.138H503.009C504.877 112.138 506.391 110.625 506.391 108.759V89.4484C506.391 87.5821 504.877 86.0691 503.009 86.0691Z" stroke="#E8E8E8"/>
<path d="M149.897 86.0691H67.7788C65.9113 86.0691 64.3975 87.5821 64.3975 89.4484V108.759C64.3975 110.625 65.9113 112.138 67.7788 112.138H149.897C151.765 112.138 153.279 110.625 153.279 108.759V89.4484C153.279 87.5821 151.765 86.0691 149.897 86.0691Z" fill="#00AC45"/>
<path d="M86.9454 97.2665C86.9454 98.0505 86.6749 98.7039 86.1339 99.2265C85.6019 99.7401 84.7859 99.997 83.6858 99.997H81.8734V103.931H80.6426V94.509H83.6858C84.7498 94.509 85.5568 94.7658 86.1068 95.2795C86.6659 95.7931 86.9454 96.4555 86.9454 97.2665ZM83.6858 98.9832C84.3711 98.9832 84.876 98.8345 85.2006 98.5371C85.5253 98.2397 85.6876 97.8162 85.6876 97.2665C85.6876 96.104 85.0203 95.5228 83.6858 95.5228H81.8734V98.9832H83.6858ZM88.0153 100.2C88.0153 99.4428 88.1686 98.7804 88.4751 98.2127C88.7818 97.636 89.2011 97.1899 89.733 96.8745C90.274 96.5591 90.8737 96.4014 91.5319 96.4014C92.1811 96.4014 92.7447 96.5411 93.2226 96.8204C93.7005 97.0997 94.0567 97.4512 94.2911 97.8748V96.523H95.5354V103.931H94.2911V102.552C94.0476 102.984 93.6824 103.345 93.1955 103.633C92.7177 103.912 92.1586 104.052 91.5184 104.052C90.8602 104.052 90.265 103.89 89.733 103.566C89.2011 103.241 88.7818 102.786 88.4751 102.2C88.1686 101.615 88.0153 100.948 88.0153 100.2ZM94.2911 100.213C94.2911 99.6545 94.1784 99.1679 93.9529 98.7534C93.7276 98.3389 93.421 98.0235 93.0332 97.8072C92.6545 97.5819 92.2352 97.4692 91.7754 97.4692C91.3155 97.4692 90.8962 97.5774 90.5175 97.7937C90.1388 98.0099 89.8368 98.3254 89.6113 98.7399C89.3859 99.1544 89.2731 99.641 89.2731 100.2C89.2731 100.768 89.3859 101.263 89.6113 101.687C89.8368 102.101 90.1388 102.421 90.5175 102.646C90.8962 102.863 91.3155 102.971 91.7754 102.971C92.2352 102.971 92.6545 102.863 93.0332 102.646C93.421 102.421 93.7276 102.101 93.9529 101.687C94.1784 101.263 94.2911 100.772 94.2911 100.213ZM100.239 104.052C99.6713 104.052 99.1618 103.958 98.711 103.768C98.2601 103.57 97.9039 103.3 97.6425 102.957C97.381 102.606 97.2367 102.205 97.2097 101.754H98.4811C98.5171 102.124 98.6884 102.426 98.995 102.66C99.3106 102.894 99.7209 103.011 100.226 103.011C100.695 103.011 101.064 102.908 101.335 102.7C101.605 102.493 101.741 102.232 101.741 101.916C101.741 101.592 101.596 101.353 101.308 101.2C101.019 101.038 100.573 100.88 99.9689 100.727C99.4188 100.583 98.968 100.439 98.6163 100.294C98.2736 100.141 97.9761 99.9204 97.7236 99.632C97.4802 99.3346 97.3585 98.9472 97.3585 98.4695C97.3585 98.091 97.4711 97.7441 97.6966 97.4287C97.922 97.1133 98.2421 96.8655 98.6569 96.6853C99.0716 96.496 99.545 96.4014 100.077 96.4014C100.898 96.4014 101.56 96.6087 102.065 97.0232C102.57 97.4377 102.841 98.0054 102.877 98.7264H101.646C101.619 98.3389 101.461 98.028 101.173 97.7937C100.893 97.5593 100.514 97.4422 100.036 97.4422C99.5946 97.4422 99.2429 97.5368 98.9815 97.7261C98.72 97.9153 98.5893 98.1632 98.5893 98.4695C98.5893 98.7128 98.6659 98.9156 98.8192 99.0778C98.9815 99.231 99.1798 99.3571 99.4143 99.4563C99.6578 99.5464 99.9914 99.6501 100.415 99.7672C100.947 99.9113 101.38 100.056 101.714 100.2C102.047 100.335 102.331 100.542 102.566 100.822C102.809 101.101 102.935 101.466 102.944 101.916C102.944 102.322 102.832 102.687 102.606 103.011C102.381 103.336 102.061 103.593 101.646 103.782C101.24 103.962 100.771 104.052 100.239 104.052ZM106.183 97.5368V101.903C106.183 102.263 106.26 102.52 106.413 102.673C106.566 102.818 106.832 102.89 107.211 102.89H108.117V103.931H107.008C106.323 103.931 105.809 103.773 105.466 103.457C105.124 103.142 104.952 102.624 104.952 101.903V97.5368H103.992V96.523H104.952V94.6577H106.183V96.523H108.117V97.5368H106.183ZM112.755 100.2C112.755 99.4428 112.908 98.7804 113.214 98.2127C113.521 97.636 113.94 97.1899 114.472 96.8745C115.013 96.5591 115.618 96.4014 116.285 96.4014C116.862 96.4014 117.398 96.5366 117.894 96.8069C118.39 97.0683 118.769 97.4152 119.03 97.8477V93.9277H120.275V103.931H119.03V102.538C118.787 102.98 118.426 103.345 117.948 103.633C117.471 103.912 116.911 104.052 116.271 104.052C115.613 104.052 115.013 103.89 114.472 103.566C113.94 103.241 113.521 102.786 113.214 102.2C112.908 101.615 112.755 100.948 112.755 100.2ZM119.03 100.213C119.03 99.6545 118.918 99.1679 118.692 98.7534C118.467 98.3389 118.16 98.0235 117.773 97.8072C117.394 97.5819 116.975 97.4692 116.515 97.4692C116.055 97.4692 115.636 97.5774 115.257 97.7937C114.878 98.0099 114.576 98.3254 114.351 98.7399C114.125 99.1544 114.013 99.641 114.013 100.2C114.013 100.768 114.125 101.263 114.351 101.687C114.576 102.101 114.878 102.421 115.257 102.646C115.636 102.863 116.055 102.971 116.515 102.971C116.975 102.971 117.394 102.863 117.773 102.646C118.16 102.421 118.467 102.101 118.692 101.687C118.918 101.263 119.03 100.772 119.03 100.213ZM121.895 100.2C121.895 99.4428 122.048 98.7804 122.355 98.2127C122.661 97.636 123.081 97.1899 123.613 96.8745C124.154 96.5591 124.753 96.4014 125.412 96.4014C126.061 96.4014 126.624 96.5411 127.102 96.8204C127.58 97.0997 127.936 97.4512 128.171 97.8748V96.523H129.415V103.931H128.171V102.552C127.927 102.984 127.562 103.345 127.075 103.633C126.597 103.912 126.038 104.052 125.398 104.052C124.74 104.052 124.145 103.89 123.613 103.566C123.081 103.241 122.661 102.786 122.355 102.2C122.048 101.615 121.895 100.948 121.895 100.2ZM128.171 100.213C128.171 99.6545 128.058 99.1679 127.833 98.7534C127.607 98.3389 127.301 98.0235 126.913 97.8072C126.534 97.5819 126.115 97.4692 125.655 97.4692C125.195 97.4692 124.776 97.5774 124.397 97.7937C124.018 98.0099 123.716 98.3254 123.491 98.7399C123.266 99.1544 123.153 99.641 123.153 100.2C123.153 100.768 123.266 101.263 123.491 101.687C123.716 102.101 124.018 102.421 124.397 102.646C124.776 102.863 125.195 102.971 125.655 102.971C126.115 102.971 126.534 102.863 126.913 102.646C127.301 102.421 127.607 102.101 127.833 101.687C128.058 101.263 128.171 100.772 128.171 100.213ZM137.879 96.523L133.416 107.418H132.144L133.605 103.849L130.616 96.523H131.982L134.308 102.525L136.608 96.523H137.879Z" fill="white"/>
<path d="M149.897 86.0691H67.7788C65.9113 86.0691 64.3975 87.5821 64.3975 89.4484V108.759C64.3975 110.625 65.9113 112.138 67.7788 112.138H149.897C151.765 112.138 153.279 110.625 153.279 108.759V89.4484C153.279 87.5821 151.765 86.0691 149.897 86.0691Z" stroke="#00AC45"/>
<path d="M78.6314 51.267V54.3219H73.5998V70.1371H69.8127V54.3219H64.7812V51.267H78.6314ZM85.1817 57.485C85.6687 56.692 86.2998 56.0702 87.0753 55.6196C87.8688 55.169 88.7703 54.9437 89.7803 54.9437V58.9178H88.7795C87.5893 58.9178 86.6875 59.1971 86.0744 59.7559C85.4793 60.3146 85.1817 61.2879 85.1817 62.6756V70.1371H81.3946V55.16H85.1817V57.485ZM106.262 62.3241C106.262 62.8648 106.226 63.3514 106.154 63.784H95.1986C95.2887 64.8654 95.6674 65.7124 96.3347 66.3252C97.0019 66.9381 97.8225 67.2444 98.7963 67.2444C100.203 67.2444 101.204 66.6407 101.799 65.4331H105.884C105.451 66.8749 104.621 68.0644 103.395 69.0017C102.169 69.9208 100.663 70.3804 98.8775 70.3804C97.4347 70.3804 96.1363 70.065 94.9822 69.4342C93.846 68.7854 92.9534 67.8752 92.3041 66.7037C91.6729 65.5323 91.3573 64.1805 91.3573 62.6486C91.3573 61.0986 91.6729 59.7378 92.3041 58.5663C92.9353 57.3949 93.819 56.4937 94.9551 55.8629C96.0913 55.2321 97.3987 54.9167 98.8775 54.9167C100.302 54.9167 101.573 55.2231 102.692 55.8359C103.828 56.4487 104.702 57.3228 105.315 58.4582C105.947 59.5756 106.262 60.8643 106.262 62.3241ZM102.34 61.2428C102.322 60.2695 101.97 59.4945 101.285 58.9178C100.6 58.323 99.7611 58.0257 98.7693 58.0257C97.8315 58.0257 97.038 58.3141 96.3888 58.8908C95.7576 59.4495 95.3699 60.2335 95.2256 61.2428H102.34ZM117.331 54.9437C119.116 54.9437 120.559 55.5115 121.659 56.6469C122.759 57.7643 123.309 59.3323 123.309 61.3509V70.1371H119.522V61.8646C119.522 60.675 119.225 59.7648 118.63 59.1341C118.034 58.4852 117.223 58.1608 116.195 58.1608C115.149 58.1608 114.319 58.4852 113.706 59.1341C113.111 59.7648 112.814 60.675 112.814 61.8646V70.1371H109.026V55.16H112.814V57.0254C113.319 56.3766 113.959 55.8719 114.734 55.5115C115.528 55.133 116.393 54.9437 117.331 54.9437ZM125.937 62.5945C125.937 61.0806 126.234 59.7378 126.83 58.5663C127.443 57.3949 128.272 56.4937 129.318 55.8629C130.364 55.2321 131.527 54.9167 132.807 54.9167C133.781 54.9167 134.711 55.133 135.594 55.5655C136.478 55.98 137.181 56.5388 137.704 57.2417V50.1316H141.545V70.1371H137.704V67.9203C137.235 68.6592 136.577 69.2539 135.729 69.7046C134.882 70.1552 133.899 70.3804 132.78 70.3804C131.519 70.3804 130.364 70.056 129.318 69.4072C128.272 68.7583 127.443 67.8482 126.83 66.6767C126.234 65.4872 125.937 64.1265 125.937 62.5945ZM137.731 62.6486C137.731 61.7294 137.551 60.9454 137.19 60.2966C136.829 59.6297 136.342 59.1251 135.729 58.7826C135.116 58.4222 134.457 58.2419 133.754 58.2419C133.051 58.2419 132.402 58.4131 131.806 58.7556C131.211 59.0981 130.724 59.6026 130.346 60.2695C129.985 60.9183 129.805 61.6934 129.805 62.5945C129.805 63.4956 129.985 64.2887 130.346 64.9735C130.724 65.6404 131.211 66.1541 131.806 66.5145C132.42 66.8749 133.069 67.0552 133.754 67.0552C134.457 67.0552 135.116 66.884 135.729 66.5415C136.342 66.1811 136.829 65.6764 137.19 65.0276C137.551 64.3607 137.731 63.5677 137.731 62.6486ZM150.979 70.3804C149.753 70.3804 148.652 70.1641 147.679 69.7316C146.705 69.281 145.929 68.6772 145.352 67.9203C144.793 67.1633 144.487 66.3252 144.432 65.4061H148.247C148.319 65.9828 148.598 66.4604 149.085 66.8389C149.59 67.2174 150.213 67.4066 150.952 67.4066C151.673 67.4066 152.232 67.2625 152.629 66.9741C153.043 66.6857 153.251 66.3163 153.251 65.8657C153.251 65.379 152.999 65.0186 152.494 64.7843C152.007 64.532 151.222 64.2616 150.14 63.9732C149.022 63.7029 148.103 63.4236 147.381 63.1352C146.678 62.8468 146.064 62.4052 145.542 61.8105C145.036 61.2157 144.784 60.4137 144.784 59.4044C144.784 58.5753 145.019 57.8184 145.487 57.1335C145.974 56.4487 146.659 55.908 147.543 55.5115C148.445 55.1149 149.5 54.9167 150.708 54.9167C152.494 54.9167 153.919 55.3673 154.982 56.2684C156.046 57.1516 156.632 58.3501 156.741 59.864H153.116C153.062 59.2692 152.81 58.8007 152.358 58.4582C151.926 58.0978 151.339 57.9175 150.6 57.9175C149.915 57.9175 149.383 58.0437 149.004 58.296C148.644 58.5483 148.463 58.8997 148.463 59.3503C148.463 59.855 148.715 60.2425 149.22 60.5128C149.726 60.7651 150.51 61.0265 151.574 61.2968C152.656 61.5672 153.549 61.8465 154.252 62.1349C154.955 62.4233 155.559 62.8738 156.064 63.4866C156.587 64.0814 156.858 64.8744 156.876 65.8657C156.876 66.7308 156.632 67.5058 156.145 68.1906C155.677 68.8755 154.991 69.4162 154.09 69.8127C153.206 70.1912 152.169 70.3804 150.979 70.3804Z" fill="black"/>
<path d="M179.847 50.3445C174.246 50.3445 169.703 54.884 169.703 60.4824C169.703 66.0809 174.246 70.6203 179.847 70.6203C185.449 70.6203 189.991 66.0809 189.991 60.4824C189.991 54.884 185.449 50.3445 179.847 50.3445ZM179.847 68.9006C175.196 68.9006 171.424 65.1305 171.424 60.4824C171.424 55.8343 175.196 52.0643 179.847 52.0643C184.498 52.0643 188.271 55.8343 188.271 60.4824C188.271 65.1305 184.498 68.9006 179.847 68.9006Z" fill="#FFE58F"/>
<path d="M179.847 52.0645C175.196 52.0645 171.424 55.8345 171.424 60.4826C171.424 65.1307 175.196 68.9008 179.847 68.9008C184.498 68.9008 188.271 65.1307 188.271 60.4826C188.271 55.8345 184.498 52.0645 179.847 52.0645ZM179.847 66.3663C179.347 66.3663 178.941 65.9611 178.941 65.461C178.941 64.961 179.347 64.5559 179.847 64.5559C180.348 64.5559 180.753 64.961 180.753 65.461C180.753 65.9611 180.348 66.3663 179.847 66.3663ZM181.271 61.3991C181.066 61.4782 180.89 61.6173 180.765 61.7981C180.64 61.979 180.573 62.1932 180.572 62.4129V62.9265C180.572 63.0262 180.491 63.1077 180.39 63.1077H179.304C179.204 63.1077 179.123 63.0262 179.123 62.9265V62.44C179.123 61.9173 179.274 61.4014 179.573 60.9713C179.866 60.5505 180.273 60.2292 180.753 60.0459C181.523 59.7494 182.021 59.1045 182.021 58.4008C182.021 57.4028 181.045 56.5904 179.847 56.5904C178.649 56.5904 177.674 57.4028 177.674 58.4008V58.5727C177.674 58.6723 177.592 58.7537 177.492 58.7537H176.406C176.306 58.7537 176.224 58.6723 176.224 58.5727V58.4008C176.224 57.5114 176.614 56.6809 177.32 56.0631C177.999 55.468 178.897 55.1421 179.847 55.1421C180.798 55.1421 181.694 55.4702 182.375 56.0631C183.081 56.6809 183.47 57.5114 183.47 58.4008C183.47 59.7086 182.607 60.8854 181.271 61.3991Z" fill="#FFE58F"/>
<path d="M178.941 65.461C178.941 65.7011 179.037 65.9313 179.207 66.1011C179.377 66.2708 179.607 66.3662 179.847 66.3662C180.088 66.3662 180.318 66.2708 180.488 66.1011C180.658 65.9313 180.754 65.7011 180.754 65.461C180.754 65.2209 180.658 64.9908 180.488 64.8209C180.318 64.6512 180.088 64.5559 179.847 64.5559C179.607 64.5559 179.377 64.6512 179.207 64.8209C179.037 64.9908 178.941 65.2209 178.941 65.461ZM182.375 56.0631C181.695 55.4702 180.798 55.1421 179.847 55.1421C178.897 55.1421 177.999 55.468 177.32 56.0631C176.614 56.6808 176.225 57.5114 176.225 58.4007V58.5727C176.225 58.6722 176.306 58.7537 176.406 58.7537H177.492C177.593 58.7537 177.674 58.6722 177.674 58.5727V58.4007C177.674 57.4028 178.65 56.5904 179.847 56.5904C181.045 56.5904 182.021 57.4028 182.021 58.4007C182.021 59.1045 181.523 59.7493 180.754 60.0459C180.274 60.2291 179.866 60.5504 179.573 60.9713C179.275 61.4013 179.123 61.9172 179.123 62.44V62.9265C179.123 63.0261 179.204 63.1076 179.305 63.1076H180.39C180.491 63.1076 180.572 63.0261 180.572 62.9265V62.4128C180.573 62.1932 180.641 61.9789 180.765 61.7981C180.89 61.6172 181.067 61.4782 181.271 61.399C182.608 60.8854 183.47 59.7086 183.47 58.4007C183.47 57.5114 183.081 56.6808 182.375 56.0631Z" fill="black" fill-opacity="0.75"/>
<g filter="url(#filter1_d)">
<path d="M406.587 262.043C406.212 262.406 405.617 262.406 405.242 262.043L397.587 254.626C396.964 254.021 397.391 252.967 398.259 252.967H413.57C414.438 252.967 414.865 254.021 414.242 254.626L406.587 262.043Z" fill="black"/>
<path d="M486.101 203.38H326.694C324.56 203.38 322.83 205.109 322.83 207.242V251.655C322.83 253.788 324.56 255.517 326.694 255.517H486.101C488.236 255.517 489.966 253.788 489.966 251.655V207.242C489.966 205.109 488.236 203.38 486.101 203.38Z" fill="black"/>
<path d="M335.993 216.57C336.851 216.57 337.601 216.736 338.242 217.068C338.891 217.393 339.39 217.864 339.738 218.482C340.093 219.092 340.271 219.806 340.271 220.625C340.271 221.444 340.093 222.154 339.738 222.757C339.39 223.359 338.891 223.823 338.242 224.147C337.601 224.464 336.851 224.622 335.993 224.622H333.361V216.57H335.993ZM335.993 223.545C336.936 223.545 337.659 223.29 338.161 222.78C338.663 222.27 338.914 221.552 338.914 220.625C338.914 219.69 338.663 218.961 338.161 218.435C337.659 217.91 336.936 217.647 335.993 217.647H334.683V223.545H335.993ZM347.435 221.274C347.435 221.513 347.42 221.73 347.389 221.923H342.508C342.547 222.433 342.736 222.842 343.076 223.151C343.417 223.46 343.834 223.614 344.329 223.614C345.04 223.614 345.542 223.317 345.836 222.722H347.262C347.068 223.309 346.717 223.792 346.207 224.17C345.704 224.541 345.078 224.727 344.329 224.727C343.718 224.727 343.169 224.591 342.682 224.321C342.203 224.043 341.824 223.657 341.546 223.162C341.276 222.66 341.14 222.081 341.14 221.425C341.14 220.768 341.272 220.193 341.535 219.698C341.805 219.196 342.18 218.81 342.659 218.54C343.146 218.269 343.702 218.134 344.329 218.134C344.931 218.134 345.469 218.265 345.94 218.528C346.411 218.791 346.779 219.161 347.041 219.64C347.304 220.111 347.435 220.656 347.435 221.274ZM346.056 220.857C346.048 220.37 345.874 219.98 345.534 219.687C345.194 219.393 344.773 219.246 344.271 219.246C343.815 219.246 343.424 219.393 343.1 219.687C342.775 219.972 342.582 220.362 342.52 220.857H346.056ZM348.295 221.425C348.295 220.768 348.427 220.193 348.689 219.698C348.96 219.196 349.331 218.81 349.802 218.54C350.274 218.269 350.815 218.134 351.425 218.134C352.198 218.134 352.836 218.319 353.338 218.69C353.848 219.053 354.192 219.575 354.37 220.254H352.944C352.828 219.938 352.643 219.69 352.388 219.513C352.133 219.335 351.812 219.246 351.425 219.246C350.884 219.246 350.452 219.439 350.127 219.826C349.81 220.204 349.652 220.737 349.652 221.425C349.652 222.112 349.81 222.649 350.127 223.035C350.452 223.421 350.884 223.614 351.425 223.614C352.191 223.614 352.697 223.278 352.944 222.606H354.37C354.185 223.255 353.837 223.773 353.327 224.159C352.817 224.537 352.183 224.727 351.425 224.727C350.815 224.727 350.274 224.591 349.802 224.321C349.331 224.043 348.96 223.657 348.689 223.162C348.427 222.66 348.295 222.081 348.295 221.425ZM359.256 222.826C359.998 222.185 360.581 221.66 361.006 221.251C361.439 220.834 361.799 220.401 362.085 219.953C362.37 219.505 362.513 219.057 362.513 218.609C362.513 218.146 362.401 217.783 362.177 217.52C361.961 217.257 361.617 217.126 361.145 217.126C360.689 217.126 360.334 217.273 360.079 217.566C359.832 217.852 359.7 218.238 359.685 218.725H358.409C358.433 217.844 358.695 217.172 359.198 216.709C359.708 216.238 360.353 216.002 361.134 216.002C361.976 216.002 362.633 216.234 363.105 216.697C363.584 217.161 363.823 217.779 363.823 218.551C363.823 219.107 363.68 219.644 363.395 220.162C363.116 220.671 362.78 221.131 362.386 221.54C361.999 221.942 361.505 222.409 360.902 222.942L360.38 223.406H364.055V224.506H358.421V223.545L359.256 222.826ZM370.664 217.311H366.781V219.617C366.943 219.401 367.183 219.219 367.499 219.073C367.824 218.926 368.168 218.852 368.531 218.852C369.18 218.852 369.706 218.991 370.108 219.269C370.518 219.548 370.807 219.899 370.977 220.324C371.155 220.749 371.244 221.197 371.244 221.668C371.244 222.239 371.132 222.749 370.908 223.197C370.691 223.637 370.363 223.985 369.922 224.24C369.49 224.495 368.956 224.622 368.323 224.622C367.48 224.622 366.804 224.414 366.294 223.997C365.784 223.58 365.478 223.027 365.378 222.34H366.665C366.75 222.703 366.939 222.993 367.233 223.209C367.527 223.417 367.894 223.522 368.334 223.522C368.883 223.522 369.293 223.356 369.563 223.023C369.841 222.691 369.98 222.251 369.98 221.703C369.98 221.146 369.841 220.722 369.563 220.428C369.285 220.127 368.875 219.976 368.334 219.976C367.955 219.976 367.635 220.073 367.372 220.266C367.117 220.451 366.931 220.706 366.816 221.031H365.563V216.153H370.664V217.311ZM374.243 223.035L372.84 226.233H371.982L372.805 223.035H374.243ZM378.966 222.826C379.708 222.185 380.292 221.66 380.717 221.251C381.15 220.834 381.509 220.401 381.795 219.953C382.081 219.505 382.224 219.057 382.224 218.609C382.224 218.146 382.112 217.783 381.888 217.52C381.671 217.257 381.327 217.126 380.856 217.126C380.4 217.126 380.044 217.273 379.789 217.566C379.542 217.852 379.411 218.238 379.395 218.725H378.12C378.143 217.844 378.406 217.172 378.908 216.709C379.418 216.238 380.064 216.002 380.844 216.002C381.687 216.002 382.344 216.234 382.815 216.697C383.294 217.161 383.534 217.779 383.534 218.551C383.534 219.107 383.391 219.644 383.105 220.162C382.827 220.671 382.49 221.131 382.096 221.54C381.71 221.942 381.215 222.409 380.612 222.942L380.091 223.406H383.766V224.506H378.131V223.545L378.966 222.826ZM384.927 220.289C384.927 218.953 385.151 217.91 385.599 217.161C386.055 216.404 386.836 216.025 387.941 216.025C389.046 216.025 389.823 216.404 390.271 217.161C390.727 217.91 390.955 218.953 390.955 220.289C390.955 221.641 390.727 222.699 390.271 223.464C389.823 224.221 389.046 224.599 387.941 224.599C386.836 224.599 386.055 224.221 385.599 223.464C385.151 222.699 384.927 221.641 384.927 220.289ZM389.657 220.289C389.657 219.663 389.615 219.134 389.529 218.702C389.452 218.269 389.29 217.918 389.043 217.647C388.795 217.369 388.428 217.23 387.941 217.23C387.454 217.23 387.087 217.369 386.84 217.647C386.593 217.918 386.426 218.269 386.341 218.702C386.264 219.134 386.225 219.663 386.225 220.289C386.225 220.938 386.264 221.482 386.341 221.923C386.419 222.363 386.581 222.718 386.828 222.989C387.083 223.259 387.454 223.394 387.941 223.394C388.428 223.394 388.795 223.259 389.043 222.989C389.298 222.718 389.464 222.363 389.541 221.923C389.618 221.482 389.657 220.938 389.657 220.289ZM393.084 222.826C393.826 222.185 394.409 221.66 394.834 221.251C395.267 220.834 395.627 220.401 395.913 219.953C396.198 219.505 396.341 219.057 396.341 218.609C396.341 218.146 396.229 217.783 396.005 217.52C395.789 217.257 395.445 217.126 394.973 217.126C394.517 217.126 394.162 217.273 393.907 217.566C393.66 217.852 393.528 218.238 393.513 218.725H392.237C392.261 217.844 392.523 217.172 393.026 216.709C393.536 216.238 394.181 216.002 394.962 216.002C395.804 216.002 396.461 216.234 396.933 216.697C397.412 217.161 397.652 217.779 397.652 218.551C397.652 219.107 397.509 219.644 397.223 220.162C396.944 220.671 396.608 221.131 396.214 221.54C395.828 221.942 395.333 222.409 394.73 222.942L394.208 223.406H397.883V224.506H392.249V223.545L393.084 222.826ZM399.045 220.289C399.045 218.953 399.269 217.91 399.717 217.161C400.173 216.404 400.954 216.025 402.059 216.025C403.164 216.025 403.941 216.404 404.389 217.161C404.845 217.91 405.073 218.953 405.073 220.289C405.073 221.641 404.845 222.699 404.389 223.464C403.941 224.221 403.164 224.599 402.059 224.599C400.954 224.599 400.173 224.221 399.717 223.464C399.269 222.699 399.045 221.641 399.045 220.289ZM403.775 220.289C403.775 219.663 403.732 219.134 403.647 218.702C403.57 218.269 403.408 217.918 403.16 217.647C402.913 217.369 402.546 217.23 402.059 217.23C401.572 217.23 401.205 217.369 400.958 217.647C400.71 217.918 400.544 218.269 400.459 218.702C400.382 219.134 400.343 219.663 400.343 220.289C400.343 220.938 400.382 221.482 400.459 221.923C400.536 222.363 400.699 222.718 400.946 222.989C401.201 223.259 401.572 223.394 402.059 223.394C402.546 223.394 402.913 223.259 403.16 222.989C403.415 222.718 403.581 222.363 403.659 221.923C403.736 221.482 403.775 220.938 403.775 220.289Z" fill="white"/>
<path d="M334.914 237.485C335.123 237.176 335.409 236.925 335.772 236.732C336.143 236.539 336.564 236.442 337.036 236.442C337.584 236.442 338.079 236.577 338.52 236.848C338.968 237.118 339.319 237.504 339.575 238.006C339.837 238.5 339.969 239.076 339.969 239.732C339.969 240.389 339.837 240.972 339.575 241.482C339.319 241.984 338.968 242.374 338.52 242.652C338.079 242.93 337.584 243.069 337.036 243.069C336.556 243.069 336.135 242.977 335.772 242.791C335.416 242.598 335.13 242.351 334.914 242.05V242.965H333.291V234.391H334.914V237.485ZM338.311 239.732C338.311 239.346 338.23 239.014 338.067 238.736C337.913 238.45 337.704 238.234 337.441 238.087C337.186 237.94 336.908 237.867 336.607 237.867C336.313 237.867 336.035 237.944 335.772 238.099C335.517 238.246 335.308 238.462 335.146 238.748C334.991 239.033 334.914 239.369 334.914 239.756C334.914 240.142 334.991 240.478 335.146 240.764C335.308 241.049 335.517 241.27 335.772 241.424C336.035 241.571 336.313 241.644 336.607 241.644C336.908 241.644 337.186 241.567 337.441 241.412C337.704 241.258 337.913 241.038 338.067 240.752C338.23 240.466 338.311 240.126 338.311 239.732ZM344 243.069C343.382 243.069 342.825 242.934 342.331 242.664C341.836 242.386 341.446 241.996 341.16 241.494C340.882 240.992 340.743 240.412 340.743 239.756C340.743 239.099 340.886 238.52 341.171 238.018C341.465 237.516 341.863 237.129 342.366 236.859C342.868 236.581 343.428 236.442 344.047 236.442C344.665 236.442 345.225 236.581 345.728 236.859C346.23 237.129 346.624 237.516 346.91 238.018C347.204 238.52 347.351 239.099 347.351 239.756C347.351 240.412 347.2 240.992 346.899 241.494C346.605 241.996 346.203 242.386 345.693 242.664C345.19 242.934 344.626 243.069 344 243.069ZM344 241.656C344.294 241.656 344.568 241.586 344.823 241.447C345.086 241.3 345.295 241.084 345.449 240.798C345.604 240.513 345.681 240.165 345.681 239.756C345.681 239.145 345.519 238.678 345.194 238.354C344.877 238.022 344.487 237.856 344.023 237.856C343.56 237.856 343.169 238.022 342.853 238.354C342.543 238.678 342.389 239.145 342.389 239.756C342.389 240.366 342.54 240.837 342.841 241.169C343.15 241.494 343.537 241.656 344 241.656ZM354.604 236.546V242.965H352.97V242.154C352.761 242.432 352.486 242.652 352.146 242.814C351.814 242.969 351.451 243.046 351.057 243.046C350.554 243.046 350.11 242.942 349.723 242.733C349.337 242.517 349.032 242.204 348.808 241.795C348.591 241.378 348.483 240.883 348.483 240.312V236.546H350.106V240.08C350.106 240.59 350.234 240.984 350.489 241.262C350.744 241.532 351.091 241.667 351.532 241.667C351.98 241.667 352.332 241.532 352.587 241.262C352.842 240.984 352.97 240.59 352.97 240.08V236.546H354.604ZM359.765 236.454C360.53 236.454 361.149 236.697 361.62 237.184C362.091 237.662 362.327 238.334 362.327 239.2V242.965H360.704V239.42C360.704 238.91 360.577 238.52 360.322 238.249C360.067 237.971 359.719 237.832 359.278 237.832C358.83 237.832 358.474 237.971 358.212 238.249C357.957 238.52 357.829 238.91 357.829 239.42V242.965H356.206V236.546H357.829V237.346C358.045 237.068 358.32 236.851 358.652 236.697C358.992 236.535 359.363 236.454 359.765 236.454ZM363.453 239.756C363.453 239.091 363.588 238.512 363.858 238.018C364.129 237.516 364.504 237.129 364.983 236.859C365.462 236.581 366.011 236.442 366.629 236.442C367.425 236.442 368.082 236.643 368.6 237.044C369.126 237.438 369.477 237.995 369.655 238.713H367.904C367.812 238.435 367.653 238.219 367.429 238.064C367.213 237.902 366.942 237.821 366.618 237.821C366.154 237.821 365.787 237.991 365.516 238.331C365.246 238.663 365.111 239.138 365.111 239.756C365.111 240.366 365.246 240.841 365.516 241.181C365.787 241.513 366.154 241.679 366.618 241.679C367.275 241.679 367.704 241.385 367.904 240.798H369.655C369.477 241.494 369.126 242.046 368.6 242.455C368.075 242.865 367.418 243.069 366.629 243.069C366.011 243.069 365.462 242.934 364.983 242.664C364.504 242.386 364.129 242 363.858 241.505C363.588 241.003 363.453 240.42 363.453 239.756ZM376.815 239.617C376.815 239.848 376.799 240.057 376.768 240.242H372.073C372.112 240.706 372.274 241.069 372.56 241.331C372.846 241.594 373.198 241.725 373.615 241.725C374.218 241.725 374.647 241.467 374.902 240.949H376.653C376.467 241.567 376.112 242.077 375.586 242.478C375.06 242.872 374.415 243.069 373.65 243.069C373.032 243.069 372.475 242.934 371.98 242.664C371.494 242.386 371.111 241.996 370.833 241.494C370.562 240.992 370.427 240.412 370.427 239.756C370.427 239.091 370.562 238.508 370.833 238.006C371.103 237.504 371.482 237.118 371.969 236.848C372.456 236.577 373.016 236.442 373.65 236.442C374.26 236.442 374.805 236.573 375.285 236.836C375.771 237.099 376.146 237.473 376.409 237.96C376.68 238.439 376.815 238.991 376.815 239.617ZM375.134 239.153C375.126 238.736 374.975 238.404 374.682 238.157C374.388 237.902 374.029 237.774 373.604 237.774C373.202 237.774 372.862 237.898 372.583 238.145C372.313 238.385 372.147 238.721 372.085 239.153H375.134ZM382.385 237.543C382.594 237.203 382.865 236.936 383.197 236.743C383.537 236.55 383.923 236.454 384.356 236.454V238.157H383.927C383.417 238.157 383.031 238.276 382.768 238.516C382.513 238.755 382.385 239.172 382.385 239.767V242.965H380.762V236.546H382.385V237.543ZM385.032 239.732C385.032 239.084 385.159 238.508 385.414 238.006C385.677 237.504 386.029 237.118 386.469 236.848C386.917 236.577 387.416 236.442 387.965 236.442C388.444 236.442 388.861 236.539 389.217 236.732C389.58 236.925 389.87 237.168 390.086 237.462V236.546H391.721V242.965H390.086V242.027C389.877 242.328 389.588 242.579 389.217 242.78C388.853 242.973 388.432 243.069 387.953 243.069C387.412 243.069 386.917 242.93 386.469 242.652C386.029 242.374 385.677 241.984 385.414 241.482C385.159 240.972 385.032 240.389 385.032 239.732ZM390.086 239.756C390.086 239.362 390.009 239.026 389.854 238.748C389.7 238.462 389.491 238.246 389.228 238.099C388.965 237.944 388.683 237.867 388.382 237.867C388.081 237.867 387.802 237.94 387.547 238.087C387.292 238.234 387.084 238.45 386.921 238.736C386.767 239.014 386.689 239.346 386.689 239.732C386.689 240.119 386.767 240.459 386.921 240.752C387.084 241.038 387.292 241.258 387.547 241.412C387.81 241.567 388.088 241.644 388.382 241.644C388.683 241.644 388.965 241.571 389.228 241.424C389.491 241.27 389.7 241.053 389.854 240.775C390.009 240.489 390.086 240.15 390.086 239.756ZM395.196 237.879V240.984C395.196 241.2 395.246 241.358 395.347 241.459C395.455 241.552 395.633 241.598 395.88 241.598H396.633V242.965H395.613C394.245 242.965 393.561 242.301 393.561 240.972V237.879H392.796V236.546H393.561V234.959H395.196V236.546H396.633V237.879H395.196ZM403.771 239.617C403.771 239.848 403.756 240.057 403.725 240.242H399.029C399.068 240.706 399.23 241.069 399.516 241.331C399.802 241.594 400.154 241.725 400.571 241.725C401.174 241.725 401.603 241.467 401.858 240.949H403.609C403.423 241.567 403.068 242.077 402.542 242.478C402.017 242.872 401.371 243.069 400.606 243.069C399.988 243.069 399.431 242.934 398.937 242.664C398.45 242.386 398.067 241.996 397.789 241.494C397.518 240.992 397.383 240.412 397.383 239.756C397.383 239.091 397.518 238.508 397.789 238.006C398.059 237.504 398.438 237.118 398.925 236.848C399.412 236.577 399.972 236.442 400.606 236.442C401.217 236.442 401.761 236.573 402.241 236.836C402.728 237.099 403.102 237.473 403.365 237.96C403.636 238.439 403.771 238.991 403.771 239.617ZM402.09 239.153C402.082 238.736 401.932 238.404 401.638 238.157C401.344 237.902 400.985 237.774 400.56 237.774C400.158 237.774 399.818 237.898 399.539 238.145C399.269 238.385 399.103 238.721 399.041 239.153H402.09Z" fill="white"/>
<path d="M458.858 235.572C458.767 235.194 458.61 234.91 458.385 234.721C458.168 234.532 457.852 234.437 457.438 234.437C456.816 234.437 456.356 234.689 456.058 235.194C455.769 235.689 455.621 236.5 455.612 237.627C455.828 237.267 456.143 236.987 456.559 236.789C456.973 236.581 457.424 236.478 457.911 236.478C458.497 236.478 459.016 236.605 459.467 236.857C459.917 237.109 460.269 237.478 460.522 237.965C460.774 238.443 460.9 239.019 460.9 239.695C460.9 240.335 460.769 240.907 460.508 241.412C460.255 241.907 459.881 242.295 459.386 242.574C458.889 242.853 458.299 242.993 457.614 242.993C456.676 242.993 455.937 242.786 455.396 242.372C454.863 241.957 454.489 241.38 454.273 240.641C454.065 239.893 453.962 238.974 453.962 237.884C453.962 236.235 454.246 234.991 454.814 234.153C455.382 233.306 456.279 232.882 457.506 232.882C458.452 232.882 459.187 233.139 459.71 233.653C460.233 234.167 460.535 234.807 460.616 235.572H458.858ZM457.479 238.033C457 238.033 456.599 238.173 456.275 238.452C455.95 238.731 455.788 239.136 455.788 239.668C455.788 240.2 455.937 240.619 456.234 240.925C456.54 241.231 456.968 241.385 457.519 241.385C458.006 241.385 458.389 241.236 458.669 240.939C458.957 240.641 459.102 240.241 459.102 239.736C459.102 239.213 458.961 238.798 458.682 238.492C458.412 238.186 458.01 238.033 457.479 238.033ZM468.673 234.545L465.075 242.966H463.154L466.779 234.761H462.153V233.139H468.673V234.545ZM469.591 235.532C469.591 234.847 469.789 234.31 470.186 233.923C470.591 233.536 471.109 233.342 471.741 233.342C472.372 233.342 472.886 233.536 473.283 233.923C473.689 234.31 473.892 234.847 473.892 235.532C473.892 236.226 473.689 236.767 473.283 237.154C472.886 237.541 472.372 237.735 471.741 237.735C471.109 237.735 470.591 237.541 470.186 237.154C469.789 236.767 469.591 236.226 469.591 235.532ZM478.274 233.504L472.958 242.966H471.119L476.421 233.504H478.274ZM471.728 234.477C471.231 234.477 470.984 234.829 470.984 235.532C470.984 236.243 471.231 236.6 471.728 236.6C471.971 236.6 472.16 236.514 472.296 236.343C472.431 236.162 472.498 235.892 472.498 235.532C472.498 234.829 472.242 234.477 471.728 234.477ZM475.528 240.925C475.528 240.231 475.726 239.695 476.123 239.317C476.529 238.93 477.047 238.735 477.679 238.735C478.31 238.735 478.819 238.93 479.207 239.317C479.603 239.695 479.802 240.231 479.802 240.925C479.802 241.619 479.603 242.16 479.207 242.547C478.819 242.934 478.31 243.129 477.679 243.129C477.038 243.129 476.519 242.934 476.123 242.547C475.726 242.16 475.528 241.619 475.528 240.925ZM477.665 239.871C477.151 239.871 476.894 240.222 476.894 240.925C476.894 241.637 477.151 241.993 477.665 241.993C478.17 241.993 478.423 241.637 478.423 240.925C478.423 240.222 478.17 239.871 477.665 239.871Z" fill="#44C577"/>
</g>
<g filter="url(#filter2_d)">
<path d="M405.915 273.862C408.583 273.862 410.746 271.701 410.746 269.035C410.746 266.368 408.583 264.207 405.915 264.207C403.248 264.207 401.085 266.368 401.085 269.035C401.085 271.701 403.248 273.862 405.915 273.862Z" fill="#00AC45"/>
</g>
</g>
<defs>
<filter id="filter0_d" x="5" y="4" width="630" height="426.897" filterUnits="userSpaceOnUse" color-interpolation-filters="sRGB">
<feFlood flood-opacity="0" result="BackgroundImageFix"/>
<feColorMatrix in="SourceAlpha" type="matrix" values="0 0 0 0 0 0 0 0 0 0 0 0 0 0 0 0 0 0 127 0"/>
<feOffset dx="2" dy="16"/>
<feGaussianBlur stdDeviation="15"/>
<feColorMatrix type="matrix" values="0 0 0 0 0 0 0 0 0 0 0 0 0 0 0 0 0 0 0.2 0"/>
<feBlend mode="normal" in2="BackgroundImageFix" result="effect1_dropShadow"/>
<feBlend mode="normal" in="SourceGraphic" in2="effect1_dropShadow" result="shape"/>
</filter>
<filter id="filter1_d" x="312.83" y="194.38" width="187.136" height="78.9353" filterUnits="userSpaceOnUse" color-interpolation-filters="sRGB">
<feFlood flood-opacity="0" result="BackgroundImageFix"/>
<feColorMatrix in="SourceAlpha" type="matrix" values="0 0 0 0 0 0 0 0 0 0 0 0 0 0 0 0 0 0 127 0"/>
<feOffset dy="1"/>
<feGaussianBlur stdDeviation="5"/>
<feColorMatrix type="matrix" values="0 0 0 0 0.490196 0 0 0 0 0.490196 0 0 0 0 0.572549 0 0 0 0.5 0"/>
<feBlend mode="normal" in2="BackgroundImageFix" result="effect1_dropShadow"/>
<feBlend mode="normal" in="SourceGraphic" in2="effect1_dropShadow" result="shape"/>
</filter>
<filter id="filter2_d" x="401.085" y="264.207" width="11.661" height="11.655" filterUnits="userSpaceOnUse" color-interpolation-filters="sRGB">
<feFlood flood-opacity="0" result="BackgroundImageFix"/>
<feColorMatrix in="SourceAlpha" type="matrix" values="0 0 0 0 0 0 0 0 0 0 0 0 0 0 0 0 0 0 127 0"/>
<feOffset dx="1" dy="1"/>
<feGaussianBlur stdDeviation="0.5"/>
<feColorMatrix type="matrix" values="0 0 0 0 0 0 0 0 0 0.67451 0 0 0 0 0.270588 0 0 0 0.3 0"/>
<feBlend mode="normal" in2="BackgroundImageFix" result="effect1_dropShadow"/>
<feBlend mode="normal" in="SourceGraphic" in2="effect1_dropShadow" result="shape"/>
</filter>
</defs>
</svg>
