<svg width="32" height="33" viewBox="0 0 32 33" fill="none" xmlns="http://www.w3.org/2000/svg">
<path d="M16 22.2157C15.7363 22.2157 15.4785 22.2939 15.2592 22.4404C15.04 22.5869 14.8691 22.7951 14.7682 23.0388C14.6672 23.2824 14.6408 23.5505 14.6923 23.8091C14.7437 24.0678 14.8707 24.3053 15.0572 24.4918C15.2437 24.6783 15.4812 24.8053 15.7399 24.8567C15.9985 24.9082 16.2666 24.8818 16.5102 24.7808C16.7539 24.6799 16.9621 24.509 17.1086 24.2898C17.2551 24.0705 17.3333 23.8127 17.3333 23.549C17.3333 23.1954 17.1929 22.8562 16.9428 22.6062C16.6928 22.3561 16.3536 22.2157 16 22.2157ZM30.2267 24.1757L19.4933 5.509C19.1464 4.88702 18.6397 4.36894 18.0256 4.00829C17.4115 3.64764 16.7122 3.45749 16 3.45749C15.2878 3.45749 14.5885 3.64764 13.9744 4.00829C13.3603 4.36894 12.8536 4.88702 12.5067 5.509L1.84 24.1757C1.48106 24.781 1.28819 25.4704 1.28086 26.1741C1.27353 26.8778 1.45199 27.571 1.79825 28.1837C2.1445 28.7964 2.64627 29.3069 3.25291 29.6637C3.85955 30.0205 4.54958 30.2109 5.25333 30.2157H26.7467C27.4561 30.2227 28.1546 30.0408 28.7705 29.6889C29.3865 29.3369 29.8978 28.8275 30.252 28.2128C30.6061 27.5981 30.7904 26.9002 30.786 26.1908C30.7816 25.4814 30.5885 24.7859 30.2267 24.1757ZM27.92 26.8423C27.8031 27.0503 27.6326 27.223 27.4262 27.3426C27.2199 27.4622 26.9852 27.5243 26.7467 27.5223H5.25333C5.01481 27.5243 4.78013 27.4622 4.57375 27.3426C4.36738 27.223 4.19687 27.0503 4.08 26.8423C3.96297 26.6396 3.90136 26.4097 3.90136 26.1757C3.90136 25.9416 3.96297 25.7117 4.08 25.509L14.7467 6.84233C14.8586 6.62393 15.0285 6.44064 15.2379 6.31265C15.4473 6.18467 15.6879 6.11694 15.9333 6.11694C16.1787 6.11694 16.4194 6.18467 16.6287 6.31265C16.8381 6.44064 17.0081 6.62393 17.12 6.84233L27.8533 25.509C27.9856 25.7088 28.0616 25.9405 28.0734 26.1798C28.0851 26.4192 28.0321 26.6572 27.92 26.869V26.8423ZM16 11.549C15.6464 11.549 15.3072 11.6895 15.0572 11.9395C14.8071 12.1896 14.6667 12.5287 14.6667 12.8823V18.2157C14.6667 18.5693 14.8071 18.9084 15.0572 19.1585C15.3072 19.4085 15.6464 19.549 16 19.549C16.3536 19.549 16.6928 19.4085 16.9428 19.1585C17.1929 18.9084 17.3333 18.5693 17.3333 18.2157V12.8823C17.3333 12.5287 17.1929 12.1896 16.9428 11.9395C16.6928 11.6895 16.3536 11.549 16 11.549Z" fill="#F7B976"/>
</svg>
