<svg width="24" height="24" viewBox="0 0 24 24" fill="none" xmlns="http://www.w3.org/2000/svg">
<path d="M12 2.00011C10.0222 2.00011 8.08879 2.5866 6.4443 3.68541C4.79981 4.78422 3.51809 6.34601 2.76121 8.17327C2.00433 10.0005 1.8063 12.0112 2.19215 13.951C2.578 15.8908 3.53041 17.6726 4.92894 19.0712C6.32746 20.4697 8.10929 21.4221 10.0491 21.808C11.9889 22.1938 13.9996 21.9958 15.8268 21.2389C17.6541 20.482 19.2159 19.2003 20.3147 17.5558C21.4135 15.9113 22 13.9779 22 12.0001C22 10.6869 21.7413 9.38653 21.2388 8.17327C20.7363 6.96002 19.9997 5.85762 19.0711 4.92904C18.1425 4.00045 17.0401 3.26386 15.8268 2.76131C14.6136 2.25876 13.3132 2.00011 12 2.00011ZM12 20.0001C10.4178 20.0001 8.87104 19.5309 7.55544 18.6519C6.23985 17.7728 5.21447 16.5234 4.60897 15.0616C4.00347 13.5998 3.84504 11.9912 4.15372 10.4394C4.4624 8.88754 5.22433 7.46207 6.34315 6.34325C7.46197 5.22443 8.88743 4.46251 10.4393 4.15382C11.9911 3.84514 13.5997 4.00357 15.0615 4.60907C16.5233 5.21457 17.7727 6.23995 18.6518 7.55554C19.5308 8.87114 20 10.4179 20 12.0001C20 14.1218 19.1572 16.1567 17.6569 17.657C16.1566 19.1573 14.1217 20.0001 12 20.0001ZM16 11.0001H13V8.00011C13 7.73489 12.8946 7.48054 12.7071 7.293C12.5196 7.10546 12.2652 7.00011 12 7.00011C11.7348 7.00011 11.4804 7.10546 11.2929 7.293C11.1054 7.48054 11 7.73489 11 8.00011V11.0001H8C7.73479 11.0001 7.48043 11.1055 7.2929 11.293C7.10536 11.4805 7 11.7349 7 12.0001C7 12.2653 7.10536 12.5197 7.2929 12.7072C7.48043 12.8947 7.73479 13.0001 8 13.0001H11V16.0001C11 16.2653 11.1054 16.5197 11.2929 16.7072C11.4804 16.8948 11.7348 17.0001 12 17.0001C12.2652 17.0001 12.5196 16.8948 12.7071 16.7072C12.8946 16.5197 13 16.2653 13 16.0001V13.0001H16C16.2652 13.0001 16.5196 12.8947 16.7071 12.7072C16.8946 12.5197 17 12.2653 17 12.0001C17 11.7349 16.8946 11.4805 16.7071 11.293C16.5196 11.1055 16.2652 11.0001 16 11.0001Z" fill="#2BA860"/>
</svg>
