<svg width="33" height="33" viewBox="0 0 33 33" fill="none" xmlns="http://www.w3.org/2000/svg">
<g opacity="0.8">
<path d="M16.4687 9.39216C16.1151 9.39216 15.776 9.53264 15.5259 9.78269C15.2759 10.0327 15.1354 10.3719 15.1354 10.7255V16.0588C15.1354 16.4124 15.2759 16.7516 15.5259 17.0016C15.776 17.2517 16.1151 17.3922 16.4687 17.3922C16.8224 17.3922 17.1615 17.2517 17.4116 17.0016C17.6616 16.7516 17.8021 16.4124 17.8021 16.0588V10.7255C17.8021 10.3719 17.6616 10.0327 17.4116 9.78269C17.1615 9.53264 16.8224 9.39216 16.4687 9.39216ZM17.6954 20.8855C17.6662 20.8005 17.6259 20.7198 17.5754 20.6455L17.4154 20.4455C17.2279 20.2605 16.9898 20.1352 16.7312 20.0853C16.4725 20.0355 16.2049 20.0634 15.9621 20.1655C15.8005 20.233 15.6517 20.3277 15.5221 20.4455C15.3985 20.5701 15.3007 20.7178 15.2344 20.8803C15.168 21.0427 15.1344 21.2167 15.1354 21.3922C15.1375 21.5664 15.1738 21.7385 15.2421 21.8988C15.302 22.0643 15.3975 22.2146 15.5219 22.339C15.6464 22.4634 15.7966 22.5589 15.9621 22.6188C16.1217 22.6894 16.2943 22.7258 16.4687 22.7258C16.6432 22.7258 16.8158 22.6894 16.9754 22.6188C17.1409 22.5589 17.2911 22.4634 17.4156 22.339C17.54 22.2146 17.6355 22.0643 17.6954 21.8988C17.7637 21.7385 17.8 21.5664 17.8021 21.3922C17.8086 21.3034 17.8086 21.2143 17.8021 21.1255C17.7791 21.0405 17.7431 20.9595 17.6954 20.8855ZM16.4687 2.72549C13.8317 2.72549 11.2538 3.50748 9.06114 4.97257C6.86849 6.43765 5.15952 8.52003 4.15035 10.9564C3.14118 13.3927 2.87714 16.0736 3.39161 18.66C3.90608 21.2464 5.17596 23.6222 7.04066 25.4869C8.90536 27.3516 11.2811 28.6215 13.8675 29.136C16.454 29.6504 19.1348 29.3864 21.5712 28.3772C24.0075 27.3681 26.0899 25.6591 27.555 23.4664C29.0201 21.2738 29.8021 18.6959 29.8021 16.0588C29.8021 14.3079 29.4572 12.5741 28.7871 10.9564C28.1171 9.33871 27.135 7.86885 25.8968 6.63074C24.6587 5.39262 23.1889 4.4105 21.5712 3.74043C19.9535 3.07037 18.2197 2.72549 16.4687 2.72549ZM16.4687 26.7255C14.3591 26.7255 12.2968 26.0999 10.5427 24.9278C8.78854 23.7558 7.42137 22.0899 6.61403 20.1408C5.8067 18.1917 5.59546 16.047 6.00704 13.9779C6.41861 11.9087 7.43451 10.0081 8.92627 8.51636C10.418 7.0246 12.3187 6.00869 14.3878 5.59712C16.4569 5.18554 18.6016 5.39678 20.5507 6.20411C22.4998 7.01145 24.1657 8.37862 25.3378 10.1327C26.5098 11.8869 27.1354 13.9492 27.1354 16.0588C27.1354 18.8878 26.0116 21.6009 24.0112 23.6013C22.0108 25.6017 19.2977 26.7255 16.4687 26.7255Z" fill="#EB5757"/>
</g>
</svg>
