<svg width="25" height="25" viewBox="0 0 25 25" fill="none" xmlns="http://www.w3.org/2000/svg">
<path d="M21.925 10.7123C21.644 10.375 21.2924 10.1034 20.895 9.91678C20.4976 9.73017 20.064 9.63306 19.625 9.63231H15.065L15.625 8.20231C15.8579 7.57619 15.9355 6.90291 15.8511 6.24023C15.7666 5.57754 15.5227 4.94523 15.1402 4.39754C14.7577 3.84984 14.248 3.4031 13.6549 3.09565C13.0619 2.7882 12.403 2.6292 11.735 2.63231C11.5426 2.63271 11.3545 2.68858 11.1931 2.79323C11.0317 2.89788 10.9039 3.04686 10.825 3.22231L7.975 9.63231H5.625C4.82935 9.63231 4.06629 9.94838 3.50368 10.511C2.94107 11.0736 2.625 11.8367 2.625 12.6323V19.6323C2.625 20.428 2.94107 21.191 3.50368 21.7536C4.06629 22.3162 4.82935 22.6323 5.625 22.6323H18.355C19.0568 22.6321 19.7363 22.3858 20.2753 21.9363C20.8143 21.4869 21.1787 20.8627 21.305 20.1723L22.575 13.1723C22.6536 12.7397 22.636 12.2951 22.5237 11.87C22.4114 11.4449 22.207 11.0497 21.925 10.7123ZM7.625 20.6323H5.625C5.35978 20.6323 5.10543 20.527 4.91789 20.3394C4.73036 20.1519 4.625 19.8975 4.625 19.6323V12.6323C4.625 12.3671 4.73036 12.1127 4.91789 11.9252C5.10543 11.7377 5.35978 11.6323 5.625 11.6323H7.625V20.6323ZM20.625 12.8123L19.355 19.8123C19.3124 20.0453 19.1885 20.2555 19.0054 20.4057C18.8223 20.5559 18.5918 20.6362 18.355 20.6323H9.625V10.8423L12.345 4.72231C12.625 4.80393 12.885 4.94271 13.1087 5.12989C13.3323 5.31707 13.5147 5.54858 13.6444 5.8098C13.7741 6.07103 13.8482 6.3563 13.8621 6.64761C13.8759 6.93892 13.8293 7.22994 13.725 7.50231L13.195 8.93231C13.0821 9.23456 13.0439 9.55966 13.0839 9.87984C13.1238 10.2 13.2406 10.5058 13.4243 10.771C13.608 11.0363 13.8532 11.2532 14.1389 11.4031C14.4246 11.5531 14.7423 11.6317 15.065 11.6323H19.625C19.7719 11.6321 19.9171 11.6642 20.0502 11.7264C20.1832 11.7886 20.301 11.8794 20.395 11.9923C20.4913 12.1036 20.5619 12.2349 20.6017 12.3766C20.6414 12.5183 20.6494 12.6671 20.625 12.8123Z" fill="#C8D1E0"/>
</svg>
