<svg width="203" height="111" viewBox="0 0 203 111" fill="none" xmlns="http://www.w3.org/2000/svg">
<path fill-rule="evenodd" clip-rule="evenodd" d="M72.2027 110.172H42.6892C40.625 110.172 38.9414 108.489 38.9414 106.426V63.2006C38.9414 61.1374 40.625 59.4546 42.6892 59.4546H72.2027C74.2669 59.4546 75.9504 61.1374 75.9504 63.2006V106.426C75.9504 108.504 74.2669 110.172 72.2027 110.172Z" fill="#5D21D1"/>
<path fill-rule="evenodd" clip-rule="evenodd" d="M73.9801 59.9786C74.1191 59.7798 74.3929 59.7313 74.5917 59.8702C74.7829 60.0038 74.8351 60.2619 74.7153 60.4583L74.7001 60.4815L40.5897 109.267C40.4508 109.466 40.177 109.515 39.9782 109.376C39.787 109.242 39.7348 108.984 39.8546 108.788L39.8698 108.764L73.9801 59.9786Z" fill="white"/>
<path fill-rule="evenodd" clip-rule="evenodd" d="M39.9805 60.3369C40.1728 60.2044 40.4336 60.2461 40.5755 60.4276L40.5914 60.4492L74.2333 109.235C74.3709 109.435 74.3206 109.708 74.1209 109.846C73.9286 109.978 73.6679 109.936 73.5259 109.755L73.51 109.733L39.8681 60.9474C39.7305 60.7478 39.7808 60.4744 39.9805 60.3369Z" fill="white"/>
<path fill-rule="evenodd" clip-rule="evenodd" d="M48.4721 110.377H4.87523C3.74798 110.377 2.82568 109.469 2.82568 108.328V82.8377C2.82568 81.7109 3.73334 80.7891 4.87523 80.7891H48.4721C49.5993 80.7891 50.5216 81.6963 50.5216 82.8377V108.328C50.5216 109.469 49.5993 110.377 48.4721 110.377Z" fill="white"/>
<path fill-rule="evenodd" clip-rule="evenodd" d="M48.4723 80.3501H4.87546C3.49557 80.3501 2.38672 81.4639 2.38672 82.8377V108.328C2.38672 109.707 3.50106 110.816 4.87546 110.816H48.4723C49.8467 110.816 50.961 109.707 50.961 108.328V82.8377C50.961 81.4584 49.8467 80.3501 48.4723 80.3501ZM4.87531 81.2282H48.4722C49.3624 81.2282 50.0825 81.9444 50.0825 82.8378V108.328C50.0825 109.222 49.3624 109.938 48.4722 109.938H4.87531C3.98506 109.938 3.26495 109.222 3.26495 108.328V82.8378C3.26495 81.948 3.98151 81.2282 4.87531 81.2282Z" fill="#2E186A"/>
<path fill-rule="evenodd" clip-rule="evenodd" d="M50.5658 84.7402C50.8084 84.7402 51.005 84.9368 51.005 85.1792C51.005 85.413 50.8222 85.6041 50.5916 85.6175L50.5658 85.6182H2.9138C2.67124 85.6182 2.47461 85.4217 2.47461 85.1792C2.47461 84.9454 2.65745 84.7543 2.88799 84.741L2.9138 84.7402H50.5658Z" fill="#2E186A"/>
<path fill-rule="evenodd" clip-rule="evenodd" d="M37.4928 106.001H15.8554C15.3137 106.001 14.8745 105.562 14.8745 105.021V91.4125C14.8745 90.8711 15.3137 90.4321 15.8554 90.4321H37.4928C38.0344 90.4321 38.4736 90.8711 38.4736 91.4125V105.021C38.4736 105.562 38.0344 106.001 37.4928 106.001Z" fill="#00AC45"/>
<path fill-rule="evenodd" clip-rule="evenodd" d="M31.2123 102.475H22.1357C21.6233 102.475 21.2134 102.065 21.2134 101.553V100.938C21.2134 100.426 21.6233 100.017 22.1357 100.017H31.2123C31.7246 100.017 32.1346 100.426 32.1346 100.938V101.553C32.1492 102.051 31.7246 102.475 31.2123 102.475Z" fill="white"/>
<path fill-rule="evenodd" clip-rule="evenodd" d="M6.55873 83.6277C6.88214 83.6277 7.14432 83.3656 7.14432 83.0423C7.14432 82.7191 6.88214 82.457 6.55873 82.457C6.23532 82.457 5.97314 82.7191 5.97314 83.0423C5.97314 83.3656 6.23532 83.6277 6.55873 83.6277Z" fill="#2E186A"/>
<path fill-rule="evenodd" clip-rule="evenodd" d="M9.76527 83.6277C10.0887 83.6277 10.3509 83.3656 10.3509 83.0423C10.3509 82.7191 10.0887 82.457 9.76527 82.457C9.44186 82.457 9.17969 82.7191 9.17969 83.0423C9.17969 83.3656 9.44186 83.6277 9.76527 83.6277Z" fill="#2E186A"/>
<path fill-rule="evenodd" clip-rule="evenodd" d="M12.9713 83.6277C13.2947 83.6277 13.5569 83.3656 13.5569 83.0423C13.5569 82.7191 13.2947 82.457 12.9713 82.457C12.6479 82.457 12.3857 82.7191 12.3857 83.0423C12.3857 83.3656 12.6479 83.6277 12.9713 83.6277Z" fill="#2E186A"/>
<path fill-rule="evenodd" clip-rule="evenodd" d="M31.6364 94.2808C31.8789 94.2808 32.0755 94.4773 32.0755 94.7197C32.0755 94.9535 31.8927 95.1446 31.6622 95.158L31.6364 95.1587H21.7107C21.4681 95.1587 21.2715 94.9622 21.2715 94.7197C21.2715 94.486 21.4543 94.2949 21.6849 94.2815L21.7107 94.2808H31.6364Z" fill="#2E186A"/>
<path fill-rule="evenodd" clip-rule="evenodd" d="M29.4993 96.6074C29.7418 96.6074 29.9385 96.804 29.9385 97.0464C29.9385 97.2802 29.7556 97.4713 29.5251 97.4846L29.4993 97.4854H23.8484C23.6058 97.4854 23.4092 97.2889 23.4092 97.0464C23.4092 96.8126 23.592 96.6215 23.8226 96.6082L23.8484 96.6074H29.4993Z" fill="#2E186A"/>
<path fill-rule="evenodd" clip-rule="evenodd" d="M129.038 62.4565L99.0719 53.1653C96.1854 52.2606 94.5464 49.1799 95.4515 46.2947L103.989 18.7878C104.894 15.9027 107.976 14.2645 110.863 15.1692L140.828 24.4604C143.715 25.365 145.354 28.4458 144.449 31.331L135.936 58.8378C135.031 61.723 131.949 63.3367 129.038 62.4565Z" fill="#2E186A"/>
<rect width="37.1576" height="36.5051" transform="matrix(0.992302 -0.123842 0.123956 0.992288 73.3477 15.6016)" fill="#5D21D1"/>
<path fill-rule="evenodd" clip-rule="evenodd" d="M107.779 31.1496L99.1861 32.2216C98.784 32.2718 98.4987 32.6384 98.5489 33.0404L99.6223 41.6296C99.6725 42.0316 100.039 42.3169 100.441 42.2667L109.034 41.1947C109.436 41.1445 109.721 40.778 109.671 40.3759L108.598 31.7867C108.547 31.3847 108.181 31.0995 107.779 31.1496ZM107.232 32.6962L108.124 39.8296L100.988 40.7199L100.096 33.5865L107.232 32.6962Z" fill="white"/>
<path fill-rule="evenodd" clip-rule="evenodd" d="M107.3 31.4663C107.549 31.1467 108.01 31.0895 108.33 31.3385C108.637 31.578 108.702 32.0133 108.485 32.3305L108.457 32.368L100.948 42.0015C100.698 42.3211 100.237 42.3783 99.9176 42.1293C99.6102 41.8898 99.5455 41.4545 99.7624 41.1373L99.7898 41.0998L107.3 31.4663Z" fill="white"/>
<path fill-rule="evenodd" clip-rule="evenodd" d="M105.922 16.7579L78.712 20.1528C78.3099 20.203 78.0246 20.5695 78.0748 20.9716L79.0997 29.1732C79.1499 29.5753 79.5167 29.8605 79.9188 29.8103L107.129 26.4155C107.531 26.3653 107.817 25.9987 107.766 25.5967L106.741 17.395C106.691 16.993 106.324 16.7077 105.922 16.7579ZM105.376 18.3044L106.219 25.0503L80.4647 28.2635L79.6218 21.5176L105.376 18.3044Z" fill="white"/>
<path fill-rule="evenodd" clip-rule="evenodd" d="M95.4827 41.8012C95.8849 41.7508 96.2518 42.0357 96.3022 42.4377C96.3509 42.8253 96.0875 43.1801 95.708 43.2502L95.6654 43.2568L81.8199 44.9928C81.4178 45.0432 81.0509 44.7582 81.0004 44.3563C80.9518 43.9687 81.2151 43.6138 81.5946 43.5438L81.6372 43.5372L95.4827 41.8012Z" fill="white"/>
<path fill-rule="evenodd" clip-rule="evenodd" d="M95.0679 38.4514C95.4702 38.4017 95.8366 38.6873 95.8863 39.0894C95.9343 39.4771 95.6703 39.8314 95.2907 39.9008L95.2481 39.9074L81.4026 41.6189C81.0004 41.6686 80.634 41.383 80.5842 40.981C80.5363 40.5933 80.8003 40.2389 81.1798 40.1695L81.2225 40.163L95.0679 38.4514Z" fill="white"/>
<path fill-rule="evenodd" clip-rule="evenodd" d="M94.6262 35.0776C95.0283 35.0271 95.3952 35.3121 95.4457 35.7141C95.4943 36.1017 95.2309 36.4565 94.8515 36.5266L94.8089 36.5332L80.9635 38.2692C80.5613 38.3196 80.1944 38.0346 80.144 37.6326C80.0953 37.245 80.3587 36.8902 80.7381 36.8201L80.7808 36.8135L94.6262 35.0776Z" fill="white"/>
<path fill-rule="evenodd" clip-rule="evenodd" d="M94.212 31.7278C94.6142 31.6781 94.9806 31.9637 95.0304 32.3657C95.0784 32.7534 94.8144 33.1078 94.4348 33.1772L94.3921 33.1837L80.5467 34.8953C80.1444 34.945 79.778 34.6594 79.7283 34.2573C79.6803 33.8697 79.9443 33.5153 80.3239 33.4459L80.3665 33.4393L94.212 31.7278Z" fill="white"/>
<path fill-rule="evenodd" clip-rule="evenodd" d="M105.722 16.8212C106.093 16.6573 106.526 16.8247 106.69 17.1951C106.848 17.5524 106.698 17.9679 106.355 18.1442L106.316 18.1628L80.1175 29.7523C79.7468 29.9163 79.3134 29.7489 79.1494 29.3784C78.9912 29.0212 79.1413 28.6056 79.4845 28.4294L79.5235 28.4108L105.722 16.8212Z" fill="white"/>
<path fill-rule="evenodd" clip-rule="evenodd" d="M156.924 36.9056L65.0205 36.3433L80.4805 109.89L141.758 110.159L156.924 36.9056Z" fill="white"/>
<path fill-rule="evenodd" clip-rule="evenodd" d="M156.928 36.1722L65.0248 35.6099C64.5569 35.607 64.2059 36.0366 64.3021 36.4942L79.762 110.041C79.8332 110.38 80.131 110.623 80.477 110.624L141.754 110.893C142.103 110.895 142.405 110.65 142.476 110.308L157.642 37.0544C157.736 36.601 157.391 36.1751 156.928 36.1722ZM65.9253 37.0821L156.024 37.6335L141.161 109.423L81.0766 109.16L65.9253 37.0821Z" fill="#2E186A"/>
<path fill-rule="evenodd" clip-rule="evenodd" d="M127.716 87.8362L119.302 77.7137L128.426 68.6181L131.533 72.359L131.924 70.5252L129.478 67.5912L133.318 63.7525L133.856 61.1362L128.524 66.442L120.109 56.3195L129.429 47.0283L135.3 54.0945L135.691 52.2607L130.481 46.0014L138.675 37.8349L138.871 36.9058H137.55L129.551 44.8766L122.824 36.7835L120.892 36.7591L128.499 45.9036L119.179 55.1948L110.764 45.0722L119.13 36.7346L117.075 36.7102L109.835 43.9231L103.744 36.6124L101.811 36.5879L108.783 44.95L99.6586 54.0456L91.2437 43.9231L98.6556 36.539L96.6008 36.5146L90.3141 42.7739L85.0303 36.4168L83.0978 36.3923L89.2623 43.8008L79.9423 53.092L71.6496 43.1407L78.4501 36.3679L76.3953 36.3434L70.7201 41.9915L65.95 36.2456H65.0449L65.3874 37.8593L69.6927 43.0429L67.0263 45.6835L67.3933 47.395L70.6222 44.1676L78.9148 54.1189L70.5489 62.4566L70.9158 64.1681L79.8444 55.2681L88.2593 65.3906L78.9393 74.6818L71.1359 65.3173L71.772 68.3981L77.8874 75.7332L74.1203 79.4986L74.4872 81.2101L78.8415 76.8824L87.2564 87.0049L77.9364 96.2961L77.5694 95.856L78.2055 98.9368L86.2534 108.595L84.9569 109.891L87.0118 109.915L87.183 109.744L87.3298 109.915L89.2378 109.939L88.2104 108.717L97.5304 99.4258L105.945 109.548L105.432 110.062L108.294 110.086L107.927 109.646L117.247 100.355L124.047 108.546L124.439 106.712L118.299 99.328L127.619 90.0368L127.839 90.3057L128.499 87.1027L127.716 87.8362ZM127.496 67.4935L118.371 76.589L109.957 66.4665L119.081 57.371L127.496 67.4935ZM117.32 77.6404L108 86.9316L99.585 76.8091L108.905 67.5179L117.32 77.6404ZM109.737 46.1237L118.152 56.2462L109.027 65.3418L100.612 55.2193L109.737 46.1237ZM107.975 66.3931L98.6554 75.6843L90.2405 65.5618L99.5605 56.2706L107.975 66.3931ZM80.8712 54.3146L90.1913 45.0234L98.6062 55.1459L89.2862 64.4371L80.8712 54.3146ZM79.8686 75.88L89.1886 66.5888L97.6035 76.7113L88.2835 86.0025L79.8686 75.88ZM87.2561 107.568L78.8411 97.4454L88.1612 88.1542L96.5761 98.2767L87.2561 107.568ZM89.2131 87.1272L98.5331 77.836L106.948 87.9586L97.628 97.2498L89.2131 87.1272ZM106.997 108.497L98.582 98.3745L107.902 89.0833L116.317 99.2058L106.997 108.497ZM117.344 98.1789L108.929 88.0563L118.249 78.7651L126.664 88.8877L117.344 98.1789Z" fill="#2E186A"/>
<path fill-rule="evenodd" clip-rule="evenodd" d="M138.152 37.5627C138.235 37.1662 138.624 36.9118 139.021 36.9946C139.403 37.0745 139.654 37.4387 139.597 37.8201L139.589 37.8626L124.618 109.527C124.536 109.924 124.147 110.178 123.75 110.095C123.367 110.015 123.117 109.651 123.174 109.27L123.182 109.227L138.152 37.5627Z" fill="#2E186A"/>
<rect width="35.2523" height="14.6182" transform="matrix(0.999999 -0.00136964 0.00137092 0.999999 55.0645 95.7534)" fill="#A1F7C4"/>
<path fill-rule="evenodd" clip-rule="evenodd" d="M69.2159 106.367C69.4585 106.367 69.6554 106.563 69.6558 106.805C69.6561 107.039 69.4736 107.231 69.2431 107.244L69.2173 107.245L59.5844 107.26C59.3418 107.26 59.1449 107.064 59.1445 106.821C59.1442 106.588 59.3267 106.396 59.5572 106.383L59.5831 106.382L69.2159 106.367Z" fill="#2E186A"/>
<path fill-rule="evenodd" clip-rule="evenodd" d="M85.2023 103.821C85.4449 103.821 85.6419 104.017 85.6423 104.26C85.6427 104.493 85.4602 104.685 85.2297 104.698L85.2039 104.699L59.5698 104.743C59.3273 104.744 59.1303 104.547 59.1299 104.305C59.1295 104.071 59.312 103.88 59.5425 103.866L59.5683 103.865L85.2023 103.821Z" fill="#2E186A"/>
<path fill-rule="evenodd" clip-rule="evenodd" d="M85.2026 101.407C85.4452 101.406 85.642 101.603 85.6423 101.845C85.6426 102.079 85.4599 102.27 85.2294 102.284L85.2036 102.285L59.5696 102.314C59.327 102.314 59.1302 102.118 59.1299 101.875C59.1296 101.642 59.3122 101.45 59.5428 101.437L59.5686 101.436L85.2026 101.407Z" fill="#2E186A"/>
<path fill-rule="evenodd" clip-rule="evenodd" d="M85.2026 98.9922C85.4452 98.9919 85.642 99.1882 85.6423 99.4307C85.6426 99.6645 85.4599 99.8558 85.2294 99.8694L85.2036 99.8702L59.5696 99.8994C59.327 99.8997 59.1302 99.7034 59.1299 99.4609C59.1296 99.2272 59.3122 99.0358 59.5428 99.0222L59.5686 99.0215L85.2026 98.9922Z" fill="#2E186A"/>
<rect width="31.7001" height="20.1241" transform="matrix(0.777001 0.629499 -0.630378 0.776288 173.482 0.57373)" fill="#A1F7C4"/>
<path fill-rule="evenodd" clip-rule="evenodd" d="M174.133 19.9396C174.302 20.0769 174.269 20.3982 174.059 20.6573C173.856 20.9071 173.562 21.0079 173.39 20.8917L173.371 20.8779L166.639 15.4269C166.469 15.2897 166.502 14.9683 166.713 14.7092C166.916 14.4594 167.209 14.3586 167.382 14.4748L167.401 14.4886L174.133 19.9396Z" fill="#2E186A"/>
<path fill-rule="evenodd" clip-rule="evenodd" d="M187.495 26.2921C187.665 26.4293 187.632 26.7506 187.421 27.0098C187.219 27.2596 186.925 27.3605 186.752 27.2443L186.734 27.2305L168.815 12.7302C168.645 12.593 168.678 12.2717 168.888 12.0125C169.091 11.7627 169.385 11.6618 169.558 11.778L169.576 11.7918L187.495 26.2921Z" fill="#2E186A"/>
<path fill-rule="evenodd" clip-rule="evenodd" d="M189.593 23.7141C189.763 23.8515 189.729 24.1729 189.519 24.4319C189.316 24.6817 189.022 24.7824 188.85 24.6661L188.831 24.6523L170.925 10.1363C170.755 9.99897 170.789 9.67761 170.999 9.41854C171.202 9.16874 171.496 9.06807 171.668 9.18436L171.687 9.19818L189.593 23.7141Z" fill="#2E186A"/>
<path fill-rule="evenodd" clip-rule="evenodd" d="M191.691 21.1355C191.86 21.2729 191.827 21.5942 191.617 21.8533C191.414 22.1031 191.12 22.2038 190.947 22.0875L190.929 22.0737L173.022 7.55769C172.853 7.42034 172.886 7.09898 173.097 6.83992C173.3 6.59012 173.593 6.48946 173.766 6.60574L173.784 6.61956L191.691 21.1355Z" fill="#2E186A"/>
<rect width="31.8318" height="20.2077" transform="matrix(0.910088 -0.414415 0.413385 0.910556 165.027 47.1997)" fill="#A1F7C4"/>
<path fill-rule="evenodd" clip-rule="evenodd" d="M182.721 55.2931C182.921 55.2023 183.194 55.376 183.333 55.6812C183.467 55.9755 183.426 56.2845 183.244 56.3876L183.223 56.3982L175.308 60.0051C175.109 60.0959 174.835 59.9221 174.696 59.617C174.562 59.3227 174.603 59.0137 174.785 58.9106L174.806 58.9L182.721 55.2931Z" fill="#2E186A"/>
<path fill-rule="evenodd" clip-rule="evenodd" d="M194.418 46.1317C194.617 46.0408 194.891 46.2145 195.03 46.5197C195.163 46.8139 195.122 47.1229 194.941 47.2261L194.92 47.2367L173.86 56.8412C173.66 56.9321 173.387 56.7584 173.248 56.4532C173.114 56.159 173.155 55.85 173.337 55.7468L173.358 55.7362L194.418 46.1317Z" fill="#2E186A"/>
<path fill-rule="evenodd" clip-rule="evenodd" d="M193.041 43.0916C193.241 43.0009 193.515 43.1747 193.653 43.4799C193.787 43.7742 193.745 44.0832 193.564 44.1862L193.543 44.1968L172.474 53.7829C172.275 53.8736 172.001 53.6997 171.863 53.3945C171.729 53.1002 171.77 52.7912 171.952 52.6882L171.973 52.6776L193.041 43.0916Z" fill="#2E186A"/>
<path fill-rule="evenodd" clip-rule="evenodd" d="M191.664 40.051C191.864 39.9603 192.138 40.1342 192.276 40.4394C192.41 40.7337 192.368 41.0426 192.187 41.1457L192.166 41.1562L171.097 50.7423C170.898 50.833 170.624 50.6591 170.486 50.3539C170.352 50.0597 170.393 49.7507 170.575 49.6477L170.596 49.6371L191.664 40.051Z" fill="#2E186A"/>
<path fill-rule="evenodd" clip-rule="evenodd" d="M201.622 110C201.831 110 202 110.224 202 110.5C202 110.766 201.843 110.984 201.645 110.999L201.622 111H0.37757C0.169044 111 0 110.776 0 110.5C0 110.234 0.157185 110.016 0.355385 110.001L0.37757 110H201.622Z" fill="#2E186A"/>
</svg>
