<svg width="86" height="22" viewBox="0 0 86 22" fill="none" xmlns="http://www.w3.org/2000/svg">
<path d="M0 0.0954056V6.48454H2.13021V17.108L6.39062 21.3408H16.9865L21.2447 17.108V6.48454H23.3764V0.0954056H12.7522V6.48454H14.8839V14.9509H8.49324V6.48454H10.6235V0.0954056H0Z" fill="#606060"/>
<path d="M27.8216 0.348898L27.0782 0.369029C26.7889 0.378722 26.6696 0.404073 26.5943 0.513678C26.5444 0.588238 26.5198 0.647887 26.5101 0.68815C26.4996 0.727667 26.4847 0.747799 26.4549 0.747799C26.4198 0.747799 26.4102 0.723194 26.4102 0.668019C26.4102 0.588238 26.5048 0.134162 26.5145 0.0946445C26.5295 0.0297766 26.5444 -4.79221e-05 26.5749 -4.79221e-05C26.6145 -4.79221e-05 26.6644 0.0499079 26.7889 0.0596008C26.9336 0.0745132 27.123 0.0849516 27.2877 0.0849516H29.2629C29.582 0.0849516 29.702 0.0349958 29.7415 0.0349958C29.7766 0.0349958 29.7818 0.0648201 29.7818 0.139381C29.7818 0.243767 29.7669 0.588238 29.7669 0.717974C29.7617 0.76793 29.752 0.797755 29.7222 0.797755C29.6819 0.797755 29.6722 0.772404 29.667 0.697843L29.6618 0.643414C29.6521 0.513677 29.5171 0.373503 29.0735 0.36381L28.4449 0.348898V2.39411C28.4449 2.85266 28.4449 3.24634 28.4703 3.46107C28.4852 3.6005 28.515 3.71011 28.6641 3.73024C28.7342 3.74068 28.8438 3.75037 28.9184 3.75037C28.9736 3.75037 28.9989 3.76528 28.9989 3.78989C28.9989 3.82493 28.9587 3.83984 28.9035 3.83984C28.5747 3.83984 28.26 3.82493 28.1206 3.82493C28.0058 3.82493 27.6919 3.83984 27.4928 3.83984C27.4279 3.83984 27.3929 3.82493 27.3929 3.78989C27.3929 3.76528 27.4123 3.75037 27.4719 3.75037C27.5472 3.75037 27.6069 3.74068 27.6516 3.73024C27.7515 3.71011 27.7813 3.6005 27.7962 3.45585C27.8216 3.24634 27.8216 2.85266 27.8216 2.39411V0.348898Z" fill="#606060"/>
<path d="M33.5075 1.65569C33.5224 1.65569 33.5374 1.646 33.5374 1.62065V1.51627C33.5374 0.75798 33.5374 0.618551 33.5277 0.458991C33.5172 0.288992 33.4777 0.209212 33.3129 0.174168C33.2734 0.164475 33.1884 0.159255 33.1183 0.159255C33.0639 0.159255 33.0341 0.149563 33.0341 0.114519C33.0341 0.0794754 33.0684 0.0697823 33.1385 0.0697823C33.4076 0.0697823 33.7223 0.0846944 33.8565 0.0846944C33.9765 0.0846944 34.2904 0.0697823 34.485 0.0697823C34.5551 0.0697823 34.5902 0.0794754 34.5902 0.114519C34.5902 0.149563 34.5596 0.159255 34.4999 0.159255C34.4604 0.159255 34.4149 0.164475 34.3553 0.174168C34.2211 0.199518 34.1808 0.283772 34.1711 0.458991C34.1607 0.618551 34.1607 0.75798 34.1607 1.51627V2.39385C34.1607 2.8524 34.1607 3.24683 34.186 3.46082C34.201 3.60099 34.2308 3.7106 34.3799 3.73073C34.45 3.74042 34.5596 3.75011 34.6349 3.75011C34.6893 3.75011 34.7147 3.76503 34.7147 3.79038C34.7147 3.82542 34.6744 3.84033 34.6148 3.84033C34.2904 3.84033 33.9765 3.82542 33.8363 3.82542C33.7223 3.82542 33.4076 3.84033 33.213 3.84033C33.1437 3.84033 33.1086 3.82542 33.1086 3.79038C33.1086 3.76503 33.1288 3.75011 33.1884 3.75011C33.263 3.75011 33.3226 3.74042 33.3681 3.73073C33.4673 3.7106 33.4926 3.60099 33.5128 3.45634C33.5374 3.24683 33.5374 2.8524 33.5374 2.39385V1.95468C33.5374 1.93455 33.5224 1.92486 33.5075 1.92486H31.6025C31.5876 1.92486 31.5727 1.93008 31.5727 1.95468V2.39385C31.5727 2.8524 31.5727 3.24683 31.5973 3.46082C31.6122 3.60099 31.642 3.7106 31.7919 3.73073C31.862 3.74042 31.9716 3.75011 32.0461 3.75011C32.1013 3.75011 32.1259 3.76503 32.1259 3.79038C32.1259 3.82542 32.0857 3.84033 32.026 3.84033C31.7017 3.84033 31.3878 3.82542 31.2483 3.82542C31.1335 3.82542 30.8189 3.84033 30.6198 3.84033C30.5549 3.84033 30.5199 3.82542 30.5199 3.79038C30.5199 3.76503 30.54 3.75011 30.5997 3.75011C30.675 3.75011 30.7346 3.74042 30.7793 3.73073C30.8793 3.7106 30.9039 3.60099 30.924 3.45634C30.9486 3.24683 30.9486 2.8524 30.9486 2.39385V1.51627C30.9486 0.75798 30.9486 0.618551 30.9389 0.458991C30.9292 0.288992 30.889 0.209212 30.7249 0.174168C30.6847 0.164475 30.5997 0.159255 30.5303 0.159255C30.4751 0.159255 30.4453 0.149563 30.4453 0.114519C30.4453 0.0794754 30.4804 0.0697823 30.5497 0.0697823C30.8189 0.0697823 31.1335 0.0846944 31.2685 0.0846944C31.3878 0.0846944 31.7017 0.0697823 31.8963 0.0697823C31.9664 0.0697823 32.0014 0.0794754 32.0014 0.114519C32.0014 0.149563 31.9716 0.159255 31.9112 0.159255C31.8717 0.159255 31.8269 0.164475 31.7665 0.174168C31.6323 0.199518 31.5921 0.283772 31.5824 0.458991C31.5727 0.618551 31.5727 0.75798 31.5727 1.51627V1.62065C31.5727 1.646 31.5876 1.65569 31.6025 1.65569H33.5075Z" fill="#606060"/>
<path d="M36.0458 1.516C36.0458 0.757716 36.0458 0.618287 36.0361 0.458726C36.0256 0.288727 35.9861 0.208947 35.8213 0.173903C35.7818 0.164211 35.6968 0.158991 35.6267 0.158991C35.5723 0.158991 35.5425 0.149298 35.5425 0.114255C35.5425 0.0799565 35.5768 0.0695181 35.6521 0.0695181C35.916 0.0695181 36.2307 0.0844302 36.3701 0.0844302C36.5297 0.0844302 37.5221 0.0844302 37.6168 0.0799565C37.7115 0.0695181 37.7912 0.0598252 37.8315 0.0493867C37.8561 0.0449131 37.8859 0.0300007 37.9113 0.0300007C37.9359 0.0300007 37.9411 0.0493865 37.9411 0.0747373C37.9411 0.109035 37.9165 0.16943 37.9016 0.399078C37.8964 0.448288 37.8859 0.668243 37.8762 0.727892C37.871 0.752497 37.8613 0.783067 37.8263 0.783067C37.7912 0.783067 37.7815 0.757716 37.7815 0.71298C37.7815 0.677936 37.7763 0.593682 37.7517 0.533288C37.7167 0.443815 37.6667 0.38342 37.4177 0.353595C37.3327 0.343903 36.8093 0.33421 36.7094 0.33421C36.684 0.33421 36.6743 0.349122 36.6743 0.38342V1.64574C36.6743 1.68078 36.6795 1.70091 36.7094 1.70091C36.819 1.70091 37.3923 1.70091 37.5072 1.69047C37.6265 1.68078 37.7018 1.66587 37.7465 1.61591C37.7815 1.57565 37.8017 1.55105 37.8263 1.55105C37.8464 1.55105 37.8613 1.56074 37.8613 1.59056C37.8613 1.62039 37.8367 1.70091 37.8211 1.95442C37.8114 2.05433 37.8017 2.25416 37.8017 2.2892C37.8017 2.32872 37.8017 2.38389 37.7562 2.38389C37.7219 2.38389 37.7115 2.36376 37.7115 2.33916C37.707 2.2892 37.707 2.22433 37.6913 2.15946C37.6667 2.05955 37.5966 1.98499 37.4125 1.96486C37.3178 1.95442 36.8242 1.94995 36.7041 1.94995C36.6795 1.94995 36.6743 1.97008 36.6743 1.9999V2.39358C36.6743 2.56358 36.6691 3.02213 36.6743 3.16678C36.684 3.51125 36.7638 3.58582 37.273 3.58582C37.4028 3.58582 37.6115 3.58582 37.7413 3.52617C37.871 3.46577 37.9314 3.36139 37.9665 3.15709C37.9762 3.10191 37.9858 3.08178 38.0209 3.08178C38.0612 3.08178 38.0612 3.12205 38.0612 3.172C38.0612 3.28683 38.0209 3.62533 37.9963 3.72524C37.9612 3.85498 37.9165 3.85498 37.7264 3.85498C36.9733 3.85498 36.6393 3.82516 36.3448 3.82516C36.2307 3.82516 35.916 3.84007 35.717 3.84007C35.6521 3.84007 35.617 3.82516 35.617 3.79011C35.617 3.76551 35.6372 3.75059 35.6968 3.75059C35.7714 3.75059 35.831 3.74016 35.8765 3.73046C35.9757 3.71033 36.001 3.60073 36.0212 3.45608C36.0458 3.24656 36.0458 2.85288 36.0458 2.39358V1.516Z" fill="#606060"/>
<path d="M27.3375 8.70409C27.3375 7.40747 27.3375 7.17484 27.3211 6.90866C27.3047 6.62607 27.2376 6.49261 26.9632 6.4352C26.8968 6.41805 26.7559 6.40985 26.6806 6.40985C26.6478 6.40985 26.6143 6.39344 26.6143 6.35989C26.6143 6.30993 26.656 6.29353 26.747 6.29353C27.1213 6.29353 27.6283 6.31888 27.7036 6.31888C27.7782 6.31888 28.277 6.29353 28.526 6.29353C28.6177 6.29353 28.6595 6.30993 28.6595 6.35989C28.6595 6.39344 28.6259 6.40985 28.5924 6.40985C28.5349 6.40985 28.485 6.41805 28.3851 6.4352C28.1607 6.468 28.0943 6.61787 28.0771 6.90866C28.0607 7.17484 28.0607 7.40747 28.0607 8.70409V9.86799C28.0607 11.0647 28.3269 11.5799 28.6841 11.9214C29.0912 12.3031 29.4655 12.3785 29.9397 12.3785C30.4467 12.3785 30.9455 12.1376 31.2445 11.7797C31.627 11.3063 31.7269 10.5994 31.7269 9.74347V8.70409C31.7269 7.40747 31.7269 7.17484 31.7098 6.90866C31.6934 6.62607 31.627 6.49261 31.3526 6.4352C31.2863 6.41805 31.1446 6.40985 31.07 6.40985C31.0365 6.40985 31.0037 6.39344 31.0037 6.35989C31.0037 6.30993 31.0447 6.29353 31.1364 6.29353C31.5107 6.29353 31.9677 6.31888 32.0177 6.31888C32.0759 6.31888 32.4666 6.29353 32.7156 6.29353C32.8073 6.29353 32.849 6.30993 32.849 6.35989C32.849 6.39344 32.8155 6.40985 32.7819 6.40985C32.7245 6.40985 32.6746 6.40985 32.5747 6.4352C32.3502 6.47621 32.2839 6.61787 32.2667 6.90866C32.2503 7.17484 32.2503 7.40747 32.2503 8.70409V9.5936C32.2503 10.4913 32.1504 11.4889 31.4853 12.0795C30.8866 12.6111 30.2633 12.6938 29.7734 12.6938C29.4908 12.6938 28.6513 12.661 28.0607 12.1041C27.6536 11.7134 27.3375 11.131 27.3375 9.91794V8.70409Z" fill="#606060"/>
<path d="M35.3598 11.4472C35.3762 12.1287 35.4597 12.345 35.6841 12.4113C35.8415 12.4531 36.0249 12.4613 36.0994 12.4613C36.1412 12.4613 36.1658 12.4777 36.1658 12.5112C36.1658 12.5612 36.1166 12.5776 36.0167 12.5776C35.5425 12.5776 35.2099 12.553 35.1354 12.553C35.0608 12.553 34.7111 12.5776 34.3376 12.5776C34.2541 12.5776 34.2041 12.5694 34.2041 12.5112C34.2041 12.4777 34.2295 12.4613 34.2705 12.4613C34.3376 12.4613 34.4867 12.4531 34.612 12.4113C34.8192 12.3532 34.861 12.1123 34.861 11.3555L34.8692 6.59257C34.8692 6.26823 34.8945 6.17727 34.9609 6.17727C35.0273 6.17727 35.1689 6.35994 35.2517 6.44345C35.3762 6.58437 36.6147 7.92274 37.8949 9.29392C38.718 10.1752 39.6239 11.1893 39.8901 11.4636L39.7984 7.24125C39.7902 6.70069 39.7321 6.51801 39.4748 6.45165C39.325 6.4181 39.1341 6.4099 39.067 6.4099C39.0088 6.4099 39.0006 6.38529 39.0006 6.35174C39.0006 6.30178 39.067 6.29358 39.1669 6.29358C39.5412 6.29358 39.9401 6.31819 40.031 6.31819C40.1228 6.31819 40.3971 6.29358 40.7379 6.29358C40.8296 6.29358 40.8878 6.30178 40.8878 6.35174C40.8878 6.38529 40.8542 6.4099 40.796 6.4099C40.7543 6.4099 40.6969 6.4099 40.597 6.4345C40.3226 6.49266 40.289 6.67608 40.289 7.17489L40.2726 12.046C40.2726 12.5947 40.2562 12.6357 40.1981 12.6357C40.131 12.6357 40.031 12.5448 39.5911 12.1041C39.4994 12.0206 38.3027 10.7986 37.4214 9.85163C36.4573 8.81225 35.5179 7.76467 35.2517 7.46568L35.3598 11.4472Z" fill="#606060"/>
<path d="M44.1208 10.1676C44.1208 10.9654 44.1208 11.6223 44.1625 11.9712C44.1872 12.212 44.2371 12.3955 44.4869 12.4283C44.6032 12.4454 44.7859 12.4618 44.8604 12.4618C44.9104 12.4618 44.9268 12.4864 44.9268 12.5118C44.9268 12.5535 44.8858 12.5781 44.7941 12.5781C44.337 12.5781 43.8136 12.5535 43.7718 12.5535C43.7301 12.5535 43.2067 12.5781 42.9569 12.5781C42.8659 12.5781 42.8242 12.5617 42.8242 12.5118C42.8242 12.4864 42.8406 12.4618 42.8905 12.4618C42.9658 12.4618 43.065 12.4454 43.1396 12.4283C43.3066 12.3955 43.3476 12.212 43.3811 11.9712C43.4229 11.6223 43.4229 10.9654 43.4229 10.1676V8.70468C43.4229 7.40732 43.4229 7.17469 43.4058 6.90925C43.3894 6.62667 43.3066 6.485 43.1232 6.44325C43.0322 6.41864 42.9241 6.41044 42.8659 6.41044C42.8324 6.41044 42.7988 6.39329 42.7988 6.36048C42.7988 6.31053 42.8406 6.29338 42.9323 6.29338C43.2067 6.29338 43.7301 6.31873 43.7718 6.31873C43.8136 6.31873 44.337 6.29338 44.5861 6.29338C44.6778 6.29338 44.7195 6.31053 44.7195 6.36048C44.7195 6.39329 44.686 6.41044 44.6532 6.41044C44.595 6.41044 44.5443 6.41864 44.4451 6.43504C44.2207 6.4768 44.1543 6.61772 44.1372 6.90925C44.1208 7.17469 44.1208 7.40732 44.1208 8.70468V10.1676Z" fill="#606060"/>
<path d="M49.2992 11.5635C49.7816 10.4496 50.8956 7.54839 51.0782 6.94967C51.12 6.82515 51.1528 6.70884 51.1528 6.63427C51.1528 6.56792 51.1274 6.48441 51.0447 6.44265C50.9448 6.40985 50.8203 6.40985 50.7285 6.40985C50.6793 6.40985 50.6376 6.40164 50.6376 6.35989C50.6376 6.30993 50.6875 6.29353 50.8203 6.29353C51.1528 6.29353 51.5353 6.31814 51.6352 6.31814C51.6852 6.31814 52.0423 6.29353 52.2839 6.29353C52.3749 6.29353 52.4248 6.30993 52.4248 6.35169C52.4248 6.39344 52.392 6.40985 52.3249 6.40985C52.2675 6.40985 52.0841 6.40985 51.926 6.50976C51.8179 6.58432 51.6934 6.72524 51.4682 7.29116C51.3772 7.52379 50.9612 8.52067 50.5377 9.54364C50.0307 10.7575 49.6571 11.6552 49.4655 12.0623C49.2329 12.5611 49.2 12.6938 49.1165 12.6938C49.0166 12.6938 48.9749 12.5775 48.8175 12.1786L46.7805 7.08313C46.5979 6.61713 46.4733 6.52616 46.1818 6.44265C46.0573 6.40985 45.9156 6.40985 45.8664 6.40985C45.8165 6.40985 45.7993 6.3845 45.7993 6.35169C45.7993 6.30173 45.8828 6.29353 46.0155 6.29353C46.4144 6.29353 46.8887 6.31814 46.9886 6.31814C47.0713 6.31814 47.4456 6.29353 47.761 6.29353C47.9109 6.29353 47.9854 6.30993 47.9854 6.35169C47.9854 6.39344 47.9608 6.40985 47.9027 6.40985C47.811 6.40985 47.6611 6.41805 47.5865 6.4516C47.4956 6.49261 47.4784 6.55897 47.4784 6.61713C47.4784 6.72524 47.5783 6.98322 47.7029 7.30756L49.2992 11.5635Z" fill="#606060"/>
<path d="M54.0787 8.70472C54.0787 7.4081 54.0787 7.17547 54.0623 6.90929C54.0459 6.6267 53.9788 6.49324 53.7052 6.43583C53.6381 6.41868 53.4971 6.41048 53.4218 6.41048C53.3883 6.41048 53.3555 6.39407 53.3555 6.36052C53.3555 6.31057 53.3972 6.29416 53.4882 6.29416C53.8625 6.29416 54.3866 6.31951 54.4284 6.31951C54.4866 6.31951 56.1403 6.31951 56.3312 6.31057C56.4893 6.30236 56.6227 6.28596 56.6891 6.26956C56.7308 6.26061 56.7637 6.2278 56.8054 6.2278C56.8308 6.2278 56.8382 6.26061 56.8382 6.30236C56.8382 6.36052 56.7965 6.46043 56.7726 6.69306C56.7637 6.77657 56.7472 7.14192 56.7308 7.24183C56.7219 7.28359 56.7055 7.33354 56.6727 7.33354C56.6227 7.33354 56.6056 7.29179 56.6056 7.22543C56.6056 7.16727 56.5974 7.02561 56.5556 6.92569C56.4975 6.79298 56.414 6.69306 55.9658 6.64311C55.8242 6.6267 54.9183 6.6185 54.8273 6.6185C54.7938 6.6185 54.7766 6.64311 54.7766 6.70127V8.99551C54.7766 9.05367 54.7855 9.07902 54.8273 9.07902C54.9354 9.07902 55.9569 9.07902 56.1485 9.06261C56.3483 9.04546 56.4647 9.02906 56.5392 8.94555C56.5974 8.87919 56.6309 8.83744 56.6637 8.83744C56.6891 8.83744 56.7055 8.85459 56.7055 8.90454C56.7055 8.9545 56.6637 9.09542 56.6391 9.3698C56.6227 9.53608 56.6056 9.84401 56.6056 9.90217C56.6056 9.96853 56.6056 10.0595 56.5474 10.0595C56.5064 10.0595 56.4893 10.0267 56.4893 9.98493C56.4893 9.90217 56.4893 9.81866 56.4557 9.71055C56.4229 9.59423 56.3483 9.45331 56.024 9.41976C55.7996 9.39516 54.9764 9.37801 54.8355 9.37801C54.7938 9.37801 54.7766 9.40336 54.7766 9.43616V10.1676C54.7766 10.4502 54.7691 11.415 54.7766 11.5895C54.802 12.1629 54.9265 12.271 55.7414 12.271C55.9569 12.271 56.323 12.271 56.5392 12.1793C56.7555 12.0883 56.8554 11.922 56.9135 11.5805C56.9299 11.4896 56.9463 11.456 56.9881 11.456C57.038 11.456 57.038 11.5224 57.038 11.5805C57.038 11.6476 56.9717 12.2128 56.9299 12.3873C56.8718 12.6035 56.8054 12.6035 56.4811 12.6035C55.2262 12.6035 54.6692 12.5536 54.4284 12.5536C54.412 12.5536 54.2703 12.5618 54.0951 12.5618C53.9288 12.57 53.738 12.5782 53.6134 12.5782C53.5217 12.5782 53.48 12.5618 53.48 12.5118C53.48 12.4872 53.4971 12.4618 53.5463 12.4618C53.6217 12.4618 53.7216 12.4454 53.7961 12.429C53.9624 12.3955 54.0041 12.2128 54.037 11.972C54.0787 11.6223 54.0787 10.9662 54.0787 10.1676V8.70472Z" fill="#606060"/>
<path d="M60.2301 9.42743C60.2301 9.46919 60.2473 9.502 60.2883 9.52735C60.4128 9.60191 60.7953 9.66006 61.1614 9.66006C61.3605 9.66006 61.5931 9.63546 61.7847 9.502C62.0755 9.30292 62.2917 8.85406 62.2917 8.22253C62.2917 7.18315 61.743 6.55982 60.8542 6.55982C60.6044 6.55982 60.38 6.58442 60.2965 6.60977C60.2547 6.62618 60.2301 6.65973 60.2301 6.70969V9.42743ZM59.565 8.70419C59.565 7.40758 59.565 7.17495 59.5486 6.90876C59.5315 6.62618 59.4651 6.49271 59.1907 6.4353C59.1244 6.41815 58.9835 6.40995 58.9082 6.40995C58.8753 6.40995 58.8418 6.39355 58.8418 6.35999C58.8418 6.31004 58.8836 6.29364 58.9753 6.29364C59.3488 6.29364 59.8722 6.31899 59.914 6.31899C60.0057 6.31899 60.6372 6.29364 60.8952 6.29364C61.4186 6.29364 61.9756 6.34359 62.4163 6.65973C62.6243 6.80885 62.9904 7.2167 62.9904 7.79007C62.9904 8.4052 62.7316 9.02033 61.9845 9.71002C62.666 10.5831 63.2312 11.3228 63.7136 11.838C64.1617 12.3122 64.5196 12.4032 64.7276 12.4367C64.885 12.4621 65.0013 12.4621 65.052 12.4621C65.093 12.4621 65.1265 12.4867 65.1265 12.5113C65.1265 12.5612 65.0758 12.5776 64.9267 12.5776H64.3362C63.8709 12.5776 63.6629 12.5366 63.4474 12.4203C63.0903 12.2287 62.7987 11.8216 62.3253 11.1983C61.9756 10.7405 61.5849 10.1842 61.4186 9.968C61.3858 9.93445 61.3605 9.91805 61.3113 9.91805L60.2883 9.90164C60.2473 9.90164 60.2301 9.92625 60.2301 9.968V10.1671C60.2301 10.9656 60.2301 11.6218 60.2719 11.9715C60.2965 12.2123 60.3472 12.395 60.5955 12.4285C60.7125 12.4449 60.8952 12.4621 60.9705 12.4621C61.0197 12.4621 61.0361 12.4867 61.0361 12.5113C61.0361 12.553 60.9951 12.5776 60.9034 12.5776C60.4463 12.5776 59.9229 12.553 59.8812 12.553C59.8722 12.553 59.3488 12.5776 59.0998 12.5776C59.0081 12.5776 58.9663 12.5612 58.9663 12.5113C58.9663 12.4867 58.9835 12.4621 59.0334 12.4621C59.108 12.4621 59.2079 12.4449 59.2825 12.4285C59.4487 12.395 59.4905 12.2123 59.5233 11.9715C59.565 11.6218 59.565 10.9656 59.565 10.1671V8.70419Z" fill="#606060"/>
<path d="M65.635 12.4699C65.518 12.4117 65.5098 12.3782 65.5098 12.1538C65.5098 11.7385 65.5433 11.4059 65.5515 11.2725C65.5597 11.1815 65.5769 11.1397 65.6186 11.1397C65.6678 11.1397 65.6768 11.1651 65.6768 11.2314C65.6768 11.306 65.6768 11.4223 65.7006 11.5386C65.8259 12.1538 66.3747 12.3864 66.9316 12.3864C67.7294 12.3864 68.1201 11.813 68.1201 11.2814C68.1201 10.7073 67.8793 10.3747 67.1643 9.78497L66.7907 9.47703C65.9094 8.75379 65.7096 8.23857 65.7096 7.6734C65.7096 6.78389 66.3747 6.17696 67.4305 6.17696C67.7548 6.17696 67.9956 6.21051 68.2037 6.26047C68.3617 6.29327 68.4273 6.30222 68.4944 6.30222C68.5608 6.30222 68.5772 6.31862 68.5772 6.35963C68.5772 6.40139 68.5444 6.67577 68.5444 7.24094C68.5444 7.37441 68.5272 7.43257 68.4862 7.43257C68.4363 7.43257 68.4273 7.39081 68.4199 7.32445C68.4109 7.22454 68.3617 7.00011 68.311 6.9084C68.2618 6.81744 68.0374 6.46849 67.2724 6.46849C66.699 6.46849 66.2502 6.82564 66.2502 7.43257C66.2502 7.90603 66.4828 8.18861 67.2642 8.82909L67.4968 9.01177C68.478 9.78497 68.7099 10.3002 68.7099 10.9653C68.7099 11.306 68.5772 11.9375 68.0038 12.3454C67.6459 12.5944 67.1978 12.6943 66.749 12.6943C66.3583 12.6943 65.9758 12.6362 65.635 12.4699Z" fill="#606060"/>
<path d="M72.0192 10.1676C72.0192 10.9654 72.0192 11.6223 72.061 11.9712C72.0856 12.212 72.1355 12.3955 72.3846 12.4283C72.5016 12.4454 72.6843 12.4618 72.7596 12.4618C72.8088 12.4618 72.826 12.4864 72.826 12.5118C72.826 12.5535 72.7842 12.5781 72.6925 12.5781C72.2355 12.5781 71.712 12.5535 71.6703 12.5535C71.6285 12.5535 71.1044 12.5781 70.8553 12.5781C70.7644 12.5781 70.7226 12.5617 70.7226 12.5118C70.7226 12.4864 70.739 12.4618 70.789 12.4618C70.8635 12.4618 70.9634 12.4454 71.038 12.4283C71.2043 12.3955 71.246 12.212 71.2788 11.9712C71.3206 11.6223 71.3206 10.9654 71.3206 10.1676V8.70468C71.3206 7.40732 71.3206 7.17469 71.3042 6.90925C71.2878 6.62667 71.2043 6.485 71.0216 6.44325C70.9299 6.41864 70.8225 6.41044 70.7644 6.41044C70.7308 6.41044 70.6973 6.39329 70.6973 6.36048C70.6973 6.31053 70.739 6.29338 70.8307 6.29338C71.1044 6.29338 71.6285 6.31873 71.6703 6.31873C71.712 6.31873 72.2355 6.29338 72.4852 6.29338C72.5762 6.29338 72.618 6.31053 72.618 6.36048C72.618 6.39329 72.5852 6.41044 72.5509 6.41044C72.4934 6.41044 72.4435 6.41864 72.3436 6.43504C72.1191 6.4768 72.0528 6.61772 72.0364 6.90925C72.0192 7.17469 72.0192 7.40732 72.0192 8.70468V10.1676Z" fill="#606060"/>
<path d="M77.1644 10.1676C77.1644 10.9654 77.1644 11.6223 77.2062 11.9712C77.23 12.212 77.2807 12.3955 77.5305 12.4283C77.6468 12.4454 77.8295 12.4618 77.9041 12.4618C77.954 12.4618 77.9712 12.4864 77.9712 12.5118C77.9712 12.5535 77.9294 12.5781 77.8377 12.5781C77.3806 12.5781 76.8565 12.5535 76.8147 12.5535C76.773 12.5535 76.2496 12.5781 76.0005 12.5781C75.9088 12.5781 75.8678 12.5617 75.8678 12.5118C75.8678 12.4864 75.8842 12.4618 75.9342 12.4618C76.0087 12.4618 76.1086 12.4454 76.1832 12.4283C76.3495 12.3955 76.3912 12.212 76.424 11.9712C76.4658 11.6223 76.4658 10.9654 76.4658 10.1676V6.65127L75.2355 6.66767C74.7203 6.67588 74.5212 6.73403 74.3878 6.93386C74.2968 7.07478 74.2714 7.13293 74.2461 7.19184C74.2215 7.2582 74.1969 7.2746 74.1633 7.2746C74.1387 7.2746 74.1216 7.25 74.1216 7.20004C74.1216 7.11653 74.2879 6.40149 74.3043 6.33513C74.3214 6.28518 74.3542 6.17781 74.3878 6.17781C74.4459 6.17781 74.5287 6.26057 74.7539 6.27697C74.9947 6.30232 75.3108 6.31873 75.4107 6.31873H78.5274C78.7936 6.31873 78.9845 6.29338 79.1179 6.27697C79.2424 6.25237 79.317 6.23597 79.3505 6.23597C79.3916 6.23597 79.3916 6.28518 79.3916 6.33513C79.3916 6.58491 79.3669 7.15829 79.3669 7.25C79.3669 7.32456 79.3423 7.35811 79.3088 7.35811C79.2678 7.35811 79.2506 7.33276 79.2424 7.21644L79.2342 7.12473C79.2007 6.8757 79.0098 6.68408 78.212 6.66767L77.1644 6.65127V10.1676Z" fill="#606060"/>
<path d="M82.6589 10.4251C82.6589 9.9762 82.5754 9.79353 82.4673 9.55195C82.4091 9.41923 81.2952 7.59025 81.0051 7.15854C80.7963 6.85061 80.5883 6.64258 80.4392 6.54267C80.3147 6.45991 80.1566 6.40995 80.0813 6.40995C80.0395 6.40995 79.9985 6.39355 79.9985 6.35179C79.9985 6.31824 80.0321 6.29364 80.1066 6.29364C80.264 6.29364 80.888 6.31824 80.9298 6.31824C80.9872 6.31824 81.3041 6.29364 81.6277 6.29364C81.7194 6.29364 81.7358 6.31824 81.7358 6.35179C81.7358 6.38534 81.6859 6.39355 81.6113 6.42635C81.5449 6.45991 81.5032 6.50986 81.5032 6.57622C81.5032 6.67613 81.5449 6.77604 81.6113 6.90056C81.744 7.14139 82.9907 9.28577 83.1405 9.52735C83.2986 9.17765 84.3544 7.35762 84.5207 7.08324C84.6288 6.90876 84.6616 6.76784 84.6616 6.65898C84.6616 6.54267 84.6288 6.4517 84.5289 6.42635C84.4543 6.40175 84.4043 6.38534 84.4043 6.34359C84.4043 6.31004 84.4543 6.29364 84.5371 6.29364C84.7533 6.29364 85.0195 6.31824 85.0858 6.31824C85.1358 6.31824 85.7338 6.29364 85.8926 6.29364C85.9507 6.29364 86 6.31004 86 6.34359C86 6.38534 85.9582 6.40995 85.8926 6.40995C85.8009 6.40995 85.6428 6.4435 85.5101 6.52627C85.3438 6.62618 85.2521 6.72609 85.0687 6.95052C84.795 7.28306 83.6319 9.23581 83.482 9.59371C83.3568 9.89269 83.3568 10.1507 83.3568 10.4251V11.1394C83.3568 11.2728 83.3568 11.6218 83.3821 11.9707C83.3985 12.2123 83.4731 12.395 83.7229 12.4285C83.8392 12.4449 84.0218 12.4613 84.0964 12.4613C84.1471 12.4613 84.1635 12.4867 84.1635 12.5113C84.1635 12.553 84.1218 12.5776 84.0308 12.5776C83.573 12.5776 83.0488 12.553 83.0071 12.553C82.9661 12.553 82.4419 12.5776 82.1929 12.5776C82.1019 12.5776 82.0601 12.5612 82.0601 12.5113C82.0601 12.4867 82.0766 12.4613 82.1265 12.4613C82.2011 12.4613 82.301 12.4449 82.3763 12.4285C82.5418 12.395 82.6171 12.2123 82.6335 11.9707C82.6589 11.6218 82.6589 11.2728 82.6589 11.1394V10.4251Z" fill="#606060"/>
<path d="M30.322 21.1067C31.0699 21.1067 32.6163 20.6743 32.6163 18.2555C32.6163 16.2602 31.4024 15.1881 30.0894 15.1881C28.7011 15.1881 27.6617 16.1029 27.6617 17.923C27.6617 19.8601 28.8256 21.1067 30.322 21.1067ZM30.1475 14.9055C32.0175 14.9055 33.4141 16.0858 33.4141 18.0229C33.4141 19.8847 32.101 21.4229 30.0976 21.4229C27.8197 21.4229 26.8721 19.652 26.8721 18.1556C26.8721 16.809 27.8533 14.9055 30.1475 14.9055Z" fill="#606060"/>
<path d="M35.5938 17.4327C35.5938 16.1361 35.5938 15.9035 35.5774 15.6373C35.561 15.3547 35.4939 15.222 35.2203 15.1638C35.1532 15.1467 35.0123 15.1385 34.937 15.1385C34.9042 15.1385 34.8706 15.1221 34.8706 15.0885C34.8706 15.0386 34.9124 15.0222 35.0033 15.0222C35.3776 15.0222 35.9018 15.0475 35.9435 15.0475C36.1091 15.0475 37.7971 15.0475 37.988 15.0386C38.1461 15.0304 38.2788 15.0304 38.3534 15.0057C38.4033 14.9886 38.4369 14.9558 38.4697 14.9558C38.5032 14.9558 38.5196 14.9886 38.5196 15.0304C38.5196 15.0885 38.4786 15.1884 38.4533 15.4211C38.4451 15.5046 38.4287 15.8699 38.4115 15.9698C38.4033 16.0116 38.3869 16.0608 38.3451 16.0608C38.3041 16.0608 38.287 16.0198 38.287 15.9616C38.287 15.8953 38.2624 15.7536 38.2124 15.6455C38.1625 15.5374 37.9716 15.3882 37.6473 15.3793L36.367 15.3547C36.3171 15.3547 36.2925 15.3793 36.2925 15.4464V17.7406C36.2925 17.7906 36.3007 17.8152 36.3506 17.8152L37.4146 17.807C37.5555 17.807 37.6719 17.807 37.7882 17.7988C37.988 17.7817 38.0961 17.757 38.1707 17.6489C38.2042 17.6072 38.2288 17.5654 38.2624 17.5654C38.2959 17.5654 38.3041 17.5908 38.3041 17.6325C38.3041 17.6825 38.2624 17.8234 38.2378 18.0978C38.2206 18.2641 38.2042 18.5966 38.2042 18.6548C38.2042 18.7293 38.2042 18.8128 38.1461 18.8128C38.1043 18.8128 38.0879 18.7793 38.0879 18.7375C38.079 18.6548 38.0708 18.5384 38.038 18.4385C37.9962 18.3222 37.8635 18.1724 37.6055 18.1395C37.3975 18.1142 36.4916 18.1142 36.3506 18.1142C36.3089 18.1142 36.2925 18.1313 36.2925 18.1895V18.8956C36.2925 19.6941 36.2925 20.3503 36.3335 20.6992C36.3588 20.9408 36.4088 21.1235 36.6578 21.157C36.7741 21.1734 36.9568 21.1898 37.0321 21.1898C37.0821 21.1898 37.0985 21.2152 37.0985 21.2398C37.0985 21.2815 37.0567 21.3062 36.9658 21.3062C36.508 21.3062 35.9845 21.2815 35.9435 21.2815C35.9018 21.2815 35.3776 21.3062 35.1286 21.3062C35.0369 21.3062 34.9951 21.2897 34.9951 21.2398C34.9951 21.2152 35.0123 21.1898 35.0615 21.1898C35.1368 21.1898 35.2367 21.1734 35.3113 21.157C35.4775 21.1235 35.5193 20.9408 35.5521 20.6992C35.5938 20.3503 35.5938 19.6941 35.5938 18.8956V17.4327Z" fill="#606060"/>
<path d="M43.5655 17.4326C43.5655 16.136 43.5655 15.9034 43.5484 15.6372C43.532 15.3546 43.4656 15.2219 43.1912 15.1637C43.1249 15.1466 42.984 15.1384 42.9086 15.1384C42.8758 15.1384 42.8423 15.122 42.8423 15.0884C42.8423 15.0385 42.884 15.022 42.975 15.022C43.3493 15.022 43.8563 15.0474 43.9309 15.0474C44.0062 15.0474 44.505 15.022 44.754 15.022C44.8457 15.022 44.8867 15.0385 44.8867 15.0884C44.8867 15.122 44.8539 15.1384 44.8204 15.1384C44.7622 15.1384 44.713 15.1466 44.6131 15.1637C44.3887 15.1965 44.3216 15.3464 44.3052 15.6372C44.2888 15.9034 44.2888 16.136 44.2888 17.4326V18.5965C44.2888 19.7932 44.555 20.3084 44.9121 20.6492C45.3192 21.0317 45.6935 21.107 46.167 21.107C46.674 21.107 47.1728 20.8661 47.4725 20.5082C47.855 20.0348 47.9542 19.3279 47.9542 18.472V17.4326C47.9542 16.136 47.9542 15.9034 47.9378 15.6372C47.9214 15.3546 47.855 15.2219 47.5806 15.1637C47.5135 15.1466 47.3726 15.1384 47.2981 15.1384C47.2645 15.1384 47.2309 15.122 47.2309 15.0884C47.2309 15.0385 47.2727 15.022 47.3644 15.022C47.7387 15.022 48.1958 15.0474 48.2457 15.0474C48.3039 15.0474 48.6946 15.022 48.9436 15.022C49.0353 15.022 49.0763 15.0385 49.0763 15.0884C49.0763 15.122 49.0435 15.1384 49.01 15.1384C48.9518 15.1384 48.9019 15.1384 48.8027 15.1637C48.5783 15.2047 48.5119 15.3464 48.4948 15.6372C48.4784 15.9034 48.4784 16.136 48.4784 17.4326V18.3221C48.4784 19.2198 48.3784 20.2175 47.7134 20.808C47.1146 21.3396 46.4913 21.4224 46.0014 21.4224C45.7188 21.4224 44.8793 21.3896 44.2888 20.8326C43.8809 20.4419 43.5655 19.8596 43.5655 18.6465V17.4326Z" fill="#606060"/>
<path d="M53.1337 18.8956C53.1337 19.6934 53.1337 20.3503 53.1754 20.6992C53.2 20.9401 53.25 21.1235 53.4997 21.1563C53.6161 21.1727 53.7987 21.1898 53.8733 21.1898C53.924 21.1898 53.9404 21.2144 53.9404 21.2398C53.9404 21.2808 53.8987 21.3062 53.8069 21.3062C53.3499 21.3062 52.8257 21.2808 52.784 21.2808C52.7422 21.2808 52.2188 21.3062 51.9698 21.3062C51.8788 21.3062 51.837 21.2897 51.837 21.2398C51.837 21.2144 51.8534 21.1898 51.9034 21.1898C51.978 21.1898 52.0779 21.1727 52.1524 21.1563C52.3187 21.1235 52.3605 20.9401 52.3933 20.6992C52.435 20.3503 52.435 19.6934 52.435 18.8956V15.3793L51.2048 15.3957C50.6895 15.4039 50.4905 15.4621 50.357 15.6619C50.266 15.8028 50.2407 15.861 50.2153 15.9199C50.1915 15.9862 50.1661 16.0026 50.1326 16.0026C50.108 16.0026 50.0908 15.978 50.0908 15.9281C50.0908 15.8446 50.2571 15.1295 50.2735 15.0632C50.2906 15.0132 50.3242 14.9058 50.357 14.9058C50.4152 14.9058 50.4979 14.9886 50.7231 15.005C50.9639 15.0304 51.2801 15.0468 51.38 15.0468H54.4966C54.7628 15.0468 54.9537 15.0214 55.0872 15.005C55.2117 14.9804 55.2862 14.964 55.3198 14.964C55.3608 14.964 55.3608 15.0132 55.3608 15.0632C55.3608 15.3129 55.3362 15.8863 55.3362 15.978C55.3362 16.0526 55.3116 16.0861 55.278 16.0861C55.237 16.0861 55.2199 16.0608 55.2117 15.9445L55.2035 15.8528C55.1699 15.6037 54.979 15.4121 54.1812 15.3957L53.1337 15.3793V18.8956Z" fill="#606060"/>
<path d="M59.2104 18.5549C59.2522 18.5549 59.2522 18.5302 59.2432 18.4967L58.4536 16.2524C58.4119 16.1279 58.3709 16.1279 58.3291 16.2524L57.5977 18.4967C57.5813 18.5384 57.5977 18.5549 57.623 18.5549H59.2104ZM58.3455 15.2302C58.4454 14.9558 58.4782 14.9058 58.5289 14.9058C58.5781 14.9058 58.6117 14.9476 58.7116 15.2048C58.8361 15.521 60.1417 18.9538 60.6487 20.2176C60.9477 20.9572 61.1885 21.0899 61.363 21.1399C61.4875 21.1816 61.6128 21.1898 61.6963 21.1898C61.7455 21.1898 61.779 21.1988 61.779 21.2398C61.779 21.2897 61.7037 21.3062 61.6128 21.3062C61.4875 21.3062 60.8813 21.3062 60.308 21.2897C60.1499 21.2815 60.0582 21.2815 60.0582 21.2316C60.0582 21.1988 60.0835 21.1816 60.1163 21.1734C60.1663 21.157 60.2162 21.0817 60.1663 20.949L59.3931 18.9038C59.3767 18.871 59.3595 18.8546 59.3185 18.8546H57.5313C57.4895 18.8546 57.4649 18.8792 57.4485 18.9209L56.9497 20.392C56.8752 20.6001 56.8334 20.7991 56.8334 20.949C56.8334 21.1153 57.0079 21.1898 57.1488 21.1898H57.2323C57.2905 21.1898 57.3151 21.207 57.3151 21.2398C57.3151 21.2897 57.2651 21.3062 57.1906 21.3062C56.9915 21.3062 56.6328 21.2815 56.5419 21.2815C56.4509 21.2815 55.9931 21.3062 55.6024 21.3062C55.4943 21.3062 55.4443 21.2897 55.4443 21.2398C55.4443 21.207 55.4779 21.1898 55.5196 21.1898C55.5778 21.1898 55.6941 21.1816 55.7605 21.1734C56.143 21.1235 56.3092 20.8081 56.4591 20.392L58.3455 15.2302Z" fill="#606060"/>
<path d="M68.4043 18.8956C68.4043 19.6934 68.4043 20.3503 68.4461 20.6992C68.4707 20.9401 68.5207 21.1235 68.7697 21.1563C68.8867 21.1727 69.0694 21.1898 69.144 21.1898C69.1939 21.1898 69.2111 21.2144 69.2111 21.2398C69.2111 21.2808 69.1693 21.3062 69.0776 21.3062C68.6206 21.3062 68.0964 21.2808 68.0546 21.2808C68.0136 21.2808 67.4895 21.3062 67.2404 21.3062C67.1487 21.3062 67.1077 21.2897 67.1077 21.2398C67.1077 21.2144 67.1241 21.1898 67.1741 21.1898C67.2486 21.1898 67.3486 21.1727 67.4231 21.1563C67.5894 21.1235 67.6311 20.9401 67.6639 20.6992C67.7057 20.3503 67.7057 19.6934 67.7057 18.8956V18.0225C67.7057 17.9897 67.6811 17.9725 67.6557 17.9725H64.1312C64.1066 17.9725 64.082 17.9815 64.082 18.0225V18.8956C64.082 19.6934 64.082 20.3503 64.1238 20.6992C64.1484 20.9401 64.1983 21.1235 64.4474 21.1563C64.5637 21.1727 64.7464 21.1898 64.8217 21.1898C64.8716 21.1898 64.888 21.2144 64.888 21.2398C64.888 21.2808 64.8463 21.3062 64.7546 21.3062C64.2983 21.3062 63.7741 21.2808 63.7323 21.2808C63.6913 21.2808 63.1672 21.3062 62.9174 21.3062C62.8264 21.3062 62.7847 21.2897 62.7847 21.2398C62.7847 21.2144 62.8011 21.1898 62.8518 21.1898C62.9263 21.1898 63.0263 21.1727 63.1008 21.1563C63.2671 21.1235 63.3088 20.9401 63.3416 20.6992C63.3834 20.3503 63.3834 19.6934 63.3834 18.8956V17.4327C63.3834 16.1353 63.3834 15.9027 63.367 15.6373C63.3506 15.3547 63.2835 15.2212 63.0091 15.1631C62.9427 15.1467 62.8011 15.1385 62.7265 15.1385C62.693 15.1385 62.6602 15.1213 62.6602 15.0885C62.6602 15.0386 62.7019 15.0214 62.7929 15.0222C63.1672 15.0222 63.6913 15.0468 63.7323 15.0468C63.7741 15.0468 64.2983 15.0222 64.5473 15.0214C64.6383 15.0214 64.68 15.0386 64.68 15.0885C64.68 15.1213 64.6472 15.1385 64.6137 15.1385C64.5555 15.1385 64.5055 15.1467 64.4056 15.1631C64.1819 15.2048 64.1148 15.3457 64.0984 15.6373C64.082 15.9027 64.082 16.1353 64.082 17.4327V17.6072C64.082 17.6489 64.1066 17.6571 64.1312 17.6571H67.6557C67.6811 17.6571 67.7057 17.6489 67.7057 17.6072V17.4327C67.7057 16.1353 67.7057 15.9027 67.6893 15.6373C67.6729 15.3547 67.6058 15.2212 67.3321 15.1631C67.265 15.1467 67.1241 15.1385 67.0496 15.1385C67.016 15.1385 66.9832 15.1213 66.9832 15.0885C66.9832 15.0386 67.0242 15.0214 67.1159 15.0222C67.4895 15.0222 68.0136 15.0468 68.0546 15.0468C68.0964 15.0468 68.6206 15.0222 68.8703 15.0214C68.9613 15.0214 69.0031 15.0386 69.0031 15.0885C69.0031 15.1213 68.9695 15.1385 68.936 15.1385C68.8778 15.1385 68.8286 15.1467 68.7287 15.1631C68.5042 15.2048 68.4371 15.3457 68.4207 15.6373C68.4043 15.9027 68.4043 16.1353 68.4043 17.4327V18.8956Z" fill="#606060"/>
</svg>
