<svg width="94" height="37" viewBox="0 0 94 37" fill="none" xmlns="http://www.w3.org/2000/svg">
<path d="M42.6275 0.536527C42.6481 0.473385 42.707 0.430664 42.7734 0.430664H47.7658C47.87 0.430664 47.9439 0.532301 47.9118 0.631447L45.6128 7.73053C45.5924 7.79385 45.5334 7.83675 45.4668 7.83675H40.4561C40.3517 7.83675 40.2778 7.73483 40.3102 7.63563L42.6275 0.536527Z" fill="#666666"/>
<path d="M56.3221 2.79834C56.3885 2.79871 56.4471 2.84177 56.4674 2.90503L57.9895 7.65965C58.0213 7.75888 57.947 7.86026 57.8428 7.85992L50.3808 7.83497C50.3142 7.83474 50.2554 7.79165 50.2351 7.7283L48.7074 2.95615C48.6755 2.85676 48.7501 2.75527 48.8544 2.75586L56.3221 2.79834Z" fill="#666666"/>
<path d="M58.5785 16.364C58.5992 16.4271 58.5769 16.4964 58.5233 16.5356L54.4938 19.483C54.4097 19.5445 54.2901 19.5061 54.2575 19.4071L51.9218 12.32C51.901 12.2568 51.9232 12.1874 51.977 12.1481L56.0212 9.18985C56.1054 9.12822 56.2253 9.16682 56.2577 9.26602L58.5785 16.364Z" fill="#666666"/>
<path d="M46.0948 22.7207C46.0411 22.7598 45.9683 22.7599 45.9145 22.7209L41.8692 19.7954C41.7848 19.7343 41.7844 19.6087 41.8685 19.5471L47.8915 15.1419C47.9452 15.1026 48.0182 15.1024 48.0721 15.1414L52.1323 18.0777C52.2169 18.1389 52.2171 18.2648 52.1327 18.3263L46.0948 22.7207Z" fill="#666666"/>
<path d="M36.3553 12.9592C36.3016 12.9202 36.279 12.851 36.2994 12.7878L37.8337 8.03709C37.8657 7.93789 37.9851 7.89879 38.0696 7.9598L44.1187 12.3292C44.1726 12.3682 44.1953 12.4375 44.1748 12.5008L42.635 17.269C42.6029 17.3683 42.4832 17.4074 42.3987 17.346L36.3553 12.9592Z" fill="#666666"/>
<path d="M6.02435 31.1844C6.02435 32.0179 5.78181 32.6738 5.29675 33.152C4.81852 33.6303 4.13874 33.8694 3.25742 33.8694C2.37611 33.8694 1.69975 33.6303 1.22835 33.152C0.76378 32.6738 0.531494 32.0111 0.531494 31.1639V26.4499H1.12587V31.1639C1.12587 31.8745 1.31033 32.4142 1.67925 32.7831C2.04818 33.152 2.58448 33.3365 3.28817 33.3365C3.97819 33.3365 4.50766 33.152 4.87659 32.7831C5.25234 32.4073 5.44022 31.8881 5.44022 31.2254V26.4499H6.02435V31.1844ZM11.7495 31.8608C11.7495 32.298 11.6402 32.667 11.4216 32.9676C11.2029 33.2682 10.9023 33.4936 10.5197 33.6439C10.1372 33.7942 9.70333 33.8694 9.21826 33.8694C8.77419 33.8694 8.38819 33.8386 8.06025 33.7771C7.73232 33.7156 7.45222 33.6371 7.21993 33.5414V32.9573C7.47271 33.0598 7.77331 33.1486 8.12174 33.2238C8.47017 33.2989 8.84592 33.3365 9.24901 33.3365C9.80922 33.3365 10.2635 33.2169 10.612 32.9778C10.9672 32.7387 11.1449 32.38 11.1449 31.9018C11.1449 31.6148 11.0765 31.3791 10.9399 31.1947C10.8101 31.0034 10.6051 30.8394 10.325 30.7028C10.0518 30.5593 9.69991 30.4158 9.2695 30.2724C8.85959 30.1357 8.50774 29.982 8.21397 29.8112C7.9202 29.6404 7.69475 29.4286 7.53761 29.1758C7.38048 28.9162 7.30191 28.5917 7.30191 28.2023C7.30191 27.8061 7.40098 27.4713 7.5991 27.198C7.80406 26.9179 8.08075 26.7061 8.42918 26.5626C8.78444 26.4192 9.18752 26.3474 9.63843 26.3474C9.99368 26.3474 10.3319 26.3816 10.653 26.4499C10.9741 26.5182 11.2781 26.6139 11.565 26.7369L11.3703 27.2493C10.7828 27.0033 10.1986 26.8803 9.61793 26.8803C9.11237 26.8803 8.69904 26.9931 8.37794 27.2185C8.06367 27.4371 7.90654 27.7616 7.90654 28.1921C7.90654 28.5063 7.97486 28.7591 8.11149 28.9504C8.24813 29.1349 8.44626 29.292 8.70587 29.4218C8.96548 29.5516 9.28317 29.6814 9.65892 29.8112C10.0893 29.9615 10.4583 30.1187 10.7657 30.2826C11.08 30.4466 11.3225 30.655 11.4933 30.9077C11.6641 31.1537 11.7495 31.4714 11.7495 31.8608ZM16.0527 33.7669L14.0442 27.7719H14.0032C14.01 27.9085 14.0202 28.1032 14.0339 28.356C14.0476 28.602 14.0578 28.8718 14.0646 29.1656C14.0783 29.4525 14.0851 29.7224 14.0851 29.9752V33.7669H12.9066V26.4499H14.7308L16.6574 32.199H16.6983L18.7069 26.4499H20.531V33.7669H19.2808V29.9137C19.2808 29.6814 19.2842 29.4286 19.2911 29.1554C19.3047 28.8752 19.315 28.6122 19.3218 28.3663C19.3355 28.1203 19.3457 27.9256 19.3525 27.7821H19.3115L17.221 33.7669H16.0527ZM24.2274 28.1101C24.9721 28.1101 25.5596 28.3321 25.99 28.7762C26.4273 29.2203 26.6459 29.8385 26.6459 30.631V31.2869H22.9772C22.9908 31.7925 23.1309 32.1853 23.3973 32.4654C23.6638 32.7387 24.0327 32.8753 24.5041 32.8753C24.8593 32.8753 25.1804 32.8412 25.4674 32.7728C25.7543 32.6977 26.0481 32.5918 26.3487 32.4552V33.4902C26.0754 33.62 25.7919 33.7156 25.4981 33.7771C25.2044 33.8386 24.8525 33.8694 24.4426 33.8694C23.9029 33.8694 23.4212 33.7669 22.9976 33.5619C22.5809 33.3501 22.253 33.0325 22.0139 32.6089C21.7816 32.1853 21.6654 31.6592 21.6654 31.0307C21.6654 30.0811 21.9011 29.3569 22.3725 28.8582C22.8439 28.3594 23.4622 28.1101 24.2274 28.1101ZM24.2274 29.0631C23.879 29.0631 23.5954 29.1758 23.3768 29.4013C23.165 29.6199 23.0421 29.9479 23.0079 30.3851H25.3956C25.3888 30.0025 25.2898 29.6882 25.0985 29.4423C24.914 29.1895 24.6236 29.0631 24.2274 29.0631ZM30.5509 28.1101C30.6397 28.1101 30.7354 28.1135 30.8378 28.1203C30.9471 28.1272 31.0394 28.1408 31.1145 28.1613L31.0018 29.3603C30.9335 29.3466 30.8515 29.3364 30.7558 29.3296C30.6602 29.3159 30.5748 29.3091 30.4997 29.3091C30.2264 29.3091 29.9702 29.3671 29.7311 29.4833C29.4919 29.5926 29.2972 29.7668 29.1469 30.0059C29.0035 30.2382 28.9317 30.532 28.9317 30.8872V33.7669H27.6405V28.2125H28.6345L28.819 29.1758H28.8805C29.0445 28.8821 29.2699 28.6327 29.5568 28.4278C29.8438 28.216 30.1751 28.1101 30.5509 28.1101ZM33.8809 33.8694C33.0815 33.8694 32.453 33.6405 31.9953 33.1828C31.5375 32.725 31.3087 32.0043 31.3087 31.0205C31.3087 30.3373 31.4214 29.7839 31.6468 29.3603C31.8791 28.9299 32.1968 28.6156 32.5999 28.4175C33.003 28.2125 33.4641 28.1101 33.9834 28.1101C34.3318 28.1101 34.6426 28.1442 34.9159 28.2125C35.1892 28.2809 35.4215 28.3629 35.6128 28.4585L35.2336 29.473C35.0218 29.3911 34.81 29.3227 34.5982 29.2681C34.3864 29.2066 34.1815 29.1758 33.9834 29.1758C33.0815 29.1758 32.6306 29.7873 32.6306 31.0102C32.6306 31.6046 32.7434 32.0521 32.9688 32.3527C33.2011 32.6533 33.5324 32.8036 33.9629 32.8036C34.2703 32.8036 34.5436 32.766 34.7827 32.6909C35.0218 32.6157 35.2507 32.5132 35.4693 32.3834V33.5004C35.2575 33.6234 35.0286 33.7156 34.7827 33.7771C34.5436 33.8386 34.243 33.8694 33.8809 33.8694ZM37.7543 27.8334C37.7543 28.052 37.744 28.2672 37.7235 28.479C37.7099 28.684 37.6962 28.8377 37.6825 28.9401H37.7645C37.9422 28.66 38.1744 28.4517 38.4614 28.315C38.7483 28.1784 39.066 28.1101 39.4144 28.1101C40.043 28.1101 40.5349 28.2706 40.8901 28.5917C41.2454 28.9128 41.423 29.432 41.423 30.1494V33.7669H40.1318V30.4056C40.1318 29.5721 39.7902 29.1554 39.107 29.1554C38.5878 29.1554 38.2325 29.3193 38.0412 29.6472C37.8499 29.9752 37.7543 30.4432 37.7543 31.0512V33.7669H36.4631V25.9785H37.7543V27.8334ZM44.944 28.1101C45.6614 28.1101 46.2045 28.2672 46.5734 28.5815C46.9492 28.8957 47.137 29.3808 47.137 30.0367V33.7669H46.225L45.9688 32.9983H45.9278C45.6887 33.2989 45.4359 33.5209 45.1695 33.6644C44.903 33.801 44.5409 33.8694 44.0832 33.8694C43.5845 33.8694 43.1711 33.7293 42.8432 33.4492C42.5153 33.1691 42.3513 32.7353 42.3513 32.1477C42.3513 31.5738 42.5597 31.1434 42.9764 30.8565C43.4 30.5696 44.0388 30.409 44.8928 30.3748L45.8561 30.3441V30.0674C45.8561 29.719 45.7707 29.4696 45.5999 29.3193C45.4291 29.1622 45.19 29.0836 44.8825 29.0836C44.6024 29.0836 44.3326 29.1246 44.0729 29.2066C43.8202 29.2886 43.5674 29.3842 43.3146 29.4935L42.9047 28.5917C43.178 28.4483 43.4888 28.3321 43.8372 28.2433C44.1925 28.1545 44.5614 28.1101 44.944 28.1101ZM45.1797 31.1639C44.6127 31.1844 44.2198 31.2835 44.0012 31.4611C43.7826 31.6319 43.6733 31.8642 43.6733 32.158C43.6733 32.4244 43.7484 32.6157 43.8987 32.7319C44.0559 32.8412 44.2608 32.8958 44.5136 32.8958C44.8894 32.8958 45.207 32.7899 45.4666 32.5781C45.7263 32.3595 45.8561 32.0384 45.8561 31.6148V31.1434L45.1797 31.1639ZM51.4195 28.1101C52.0412 28.1101 52.5263 28.2706 52.8747 28.5917C53.23 28.9128 53.4076 29.432 53.4076 30.1494V33.7669H52.1164V30.4056C52.1164 29.5721 51.7748 29.1554 51.0916 29.1554C50.5724 29.1554 50.2171 29.3193 50.0258 29.6472C49.8345 29.9752 49.7389 30.4432 49.7389 31.0512V33.7669H48.4476V28.2125H49.4417L49.6261 28.9401H49.6979C49.8755 28.6532 50.118 28.4448 50.4255 28.315C50.7397 28.1784 51.0711 28.1101 51.4195 28.1101ZM56.8674 32.8343C57.0245 32.8343 57.1782 32.8207 57.3285 32.7933C57.4857 32.7592 57.6292 32.7216 57.759 32.6806V33.6439C57.6223 33.7054 57.4447 33.7566 57.2261 33.7976C57.0075 33.8455 56.7786 33.8694 56.5395 33.8694C56.2252 33.8694 55.9383 33.8181 55.6786 33.7156C55.419 33.6063 55.2141 33.4219 55.0638 33.1623C54.9135 32.9027 54.8383 32.5406 54.8383 32.076V29.1861H54.0902V28.6225L54.91 28.1716L55.32 26.9931H56.1295V28.2125H57.7077V29.1861H56.1295V32.0657C56.1295 32.3254 56.1979 32.5201 56.3345 32.6499C56.4711 32.7728 56.6488 32.8343 56.8674 32.8343ZM62.824 31.8608C62.824 32.298 62.7146 32.667 62.496 32.9676C62.2774 33.2682 61.9768 33.4936 61.5942 33.6439C61.2116 33.7942 60.7778 33.8694 60.2927 33.8694C59.8487 33.8694 59.4627 33.8386 59.1347 33.7771C58.8068 33.7156 58.5267 33.6371 58.2944 33.5414V32.9573C58.5472 33.0598 58.8478 33.1486 59.1962 33.2238C59.5446 33.2989 59.9204 33.3365 60.3235 33.3365C60.8837 33.3365 61.338 33.2169 61.6864 32.9778C62.0417 32.7387 62.2193 32.38 62.2193 31.9018C62.2193 31.6148 62.151 31.3791 62.0144 31.1947C61.8846 31.0034 61.6796 30.8394 61.3995 30.7028C61.1262 30.5593 60.7744 30.4158 60.344 30.2724C59.9341 30.1357 59.5822 29.982 59.2884 29.8112C58.9947 29.6404 58.7692 29.4286 58.6121 29.1758C58.455 28.9162 58.3764 28.5917 58.3764 28.2023C58.3764 27.8061 58.4755 27.4713 58.6736 27.198C58.8785 26.9179 59.1552 26.7061 59.5037 26.5626C59.8589 26.4192 60.262 26.3474 60.7129 26.3474C61.0682 26.3474 61.4063 26.3816 61.7274 26.4499C62.0485 26.5182 62.3526 26.6139 62.6395 26.7369L62.4448 27.2493C61.8572 27.0033 61.2731 26.8803 60.6924 26.8803C60.1868 26.8803 59.7735 26.9931 59.4524 27.2185C59.1381 27.4371 58.981 27.7616 58.981 28.1921C58.981 28.5063 59.0493 28.7591 59.186 28.9504C59.3226 29.1349 59.5207 29.292 59.7803 29.4218C60.04 29.5516 60.3576 29.6814 60.7334 29.8112C61.1638 29.9615 61.5327 30.1187 61.8402 30.2826C62.1544 30.4466 62.397 30.655 62.5678 30.9077C62.7386 31.1537 62.824 31.4714 62.824 31.8608ZM63.038 28.315H63.6529L64.9544 31.6968C65.0637 32.0043 65.1593 32.2775 65.2413 32.5166C65.3233 32.7489 65.3882 32.9573 65.436 33.1418H65.4668C65.5693 32.8002 65.7298 32.3254 65.9484 31.7173L67.2191 28.315H67.8443L65.3848 34.7302C65.2003 35.2153 64.9817 35.5876 64.7289 35.8472C64.4761 36.1068 64.1345 36.2366 63.7041 36.2366C63.5743 36.2366 63.4548 36.2298 63.3455 36.2161C63.243 36.2025 63.1473 36.1786 63.0585 36.1444V35.6525C63.1405 35.6798 63.2293 35.7003 63.325 35.714C63.4206 35.7345 63.5231 35.7447 63.6324 35.7447C63.9193 35.7447 64.1516 35.6559 64.3293 35.4783C64.5137 35.3007 64.6777 35.0274 64.8212 34.6585L65.1696 33.7464L63.038 28.315ZM71.8589 32.3219C71.8589 32.8138 71.6744 33.1964 71.3055 33.4697C70.9366 33.7361 70.4173 33.8694 69.7478 33.8694C69.3652 33.8694 69.027 33.8352 68.7333 33.7669C68.4395 33.7054 68.1936 33.6234 67.9954 33.5209V32.9573C68.2345 33.0803 68.5078 33.1828 68.8153 33.2647C69.1227 33.3399 69.437 33.3775 69.7581 33.3775C70.291 33.3775 70.6769 33.2887 70.9161 33.111C71.162 32.9266 71.285 32.6772 71.285 32.3629C71.285 32.0623 71.1586 31.8335 70.9058 31.6763C70.653 31.5124 70.2807 31.345 69.7888 31.1742C69.4472 31.058 69.1466 30.9419 68.887 30.8258C68.6342 30.7028 68.4361 30.5491 68.2926 30.3646C68.1491 30.1801 68.0774 29.9274 68.0774 29.6063C68.0774 29.169 68.255 28.8274 68.6103 28.5815C68.9656 28.3355 69.4404 28.2125 70.0348 28.2125C70.3627 28.2125 70.6667 28.2433 70.9468 28.3048C71.2338 28.3663 71.4968 28.4483 71.7359 28.5507L71.5207 29.0324C71.3089 28.9436 71.0698 28.8684 70.8033 28.8069C70.5369 28.7386 70.2705 28.7044 70.004 28.7044C69.5736 28.7044 69.2388 28.7796 68.9997 28.9299C68.7606 29.0802 68.641 29.2988 68.641 29.5858C68.641 29.8044 68.6991 29.9786 68.8153 30.1084C68.9314 30.2314 69.0988 30.3373 69.3174 30.4261C69.536 30.5149 69.8025 30.614 70.1167 30.7233C70.4447 30.8394 70.7384 30.959 70.998 31.0819C71.2577 31.2049 71.466 31.3621 71.6232 31.5534C71.7803 31.7446 71.8589 32.0008 71.8589 32.3219ZM74.4593 33.3672C74.6096 33.3672 74.753 33.357 74.8897 33.3365C75.0263 33.316 75.1459 33.2852 75.2484 33.2442V33.7156C75.1459 33.7566 75.0195 33.7908 74.8692 33.8181C74.7189 33.8523 74.5583 33.8694 74.3875 33.8694C73.9298 33.8694 73.5779 33.743 73.332 33.4902C73.0861 33.2374 72.9631 32.8241 72.9631 32.2502V28.7864H72.1535V28.4585L72.9631 28.2638L73.168 27.0135H73.5472V28.315H75.2176V28.7864H73.5472V32.2195C73.5472 32.9846 73.8512 33.3672 74.4593 33.3672ZM78.1676 28.2125C78.6321 28.2125 79.0181 28.3219 79.3256 28.5405C79.6398 28.7523 79.8755 29.046 80.0327 29.4218C80.1966 29.7976 80.2786 30.228 80.2786 30.713V31.1127H76.3844C76.3844 31.8369 76.5518 32.3937 76.8866 32.7831C77.2282 33.1657 77.7132 33.357 78.3418 33.357C78.6765 33.357 78.9703 33.3296 79.2231 33.275C79.4759 33.2135 79.7526 33.1179 80.0532 32.9881V33.5209C79.7799 33.6439 79.51 33.7327 79.2436 33.7874C78.9771 33.842 78.6697 33.8694 78.3213 33.8694C77.5015 33.8694 76.8729 33.62 76.4357 33.1213C75.9984 32.6225 75.7798 31.9428 75.7798 31.0819C75.7798 30.5286 75.872 30.0367 76.0565 29.6063C76.2478 29.1758 76.5211 28.8377 76.8763 28.5917C77.2316 28.3389 77.662 28.2125 78.1676 28.2125ZM78.1573 28.7044C77.6586 28.7044 77.2521 28.8718 76.9378 29.2066C76.6304 29.5414 76.4528 30.0162 76.4049 30.631H79.674C79.674 30.0572 79.5476 29.5926 79.2948 29.2373C79.0489 28.8821 78.6697 28.7044 78.1573 28.7044ZM87.1421 28.2125C87.6819 28.2125 88.102 28.3663 88.4026 28.6737C88.7101 28.9811 88.8638 29.4662 88.8638 30.1289V33.7669H88.2899V30.1494C88.2899 29.6643 88.1772 29.3057 87.9517 29.0734C87.7331 28.8343 87.4359 28.7147 87.0601 28.7147C86.5409 28.7147 86.1413 28.8684 85.8611 29.1758C85.581 29.4765 85.441 29.9444 85.441 30.5798V33.7669H84.8671V30.1494C84.8671 29.6643 84.7544 29.3057 84.5289 29.0734C84.3103 28.8343 84.0131 28.7147 83.6374 28.7147C83.1181 28.7147 82.7185 28.8752 82.4384 29.1963C82.1651 29.5174 82.0284 30.0093 82.0284 30.672V33.7669H81.4443V28.315H81.9157L81.9977 29.1758H82.0387C82.1753 28.9094 82.3803 28.684 82.6536 28.4995C82.9337 28.3082 83.2889 28.2125 83.7193 28.2125C84.1156 28.2125 84.4504 28.2979 84.7236 28.4687C84.9969 28.6395 85.1916 28.8923 85.3078 29.2271H85.3385C85.4956 28.906 85.7279 28.6566 86.0354 28.479C86.3496 28.3014 86.7186 28.2125 87.1421 28.2125ZM93.727 32.3219C93.727 32.8138 93.5425 33.1964 93.1736 33.4697C92.8046 33.7361 92.2854 33.8694 91.6159 33.8694C91.2333 33.8694 90.8951 33.8352 90.6013 33.7669C90.3076 33.7054 90.0616 33.6234 89.8635 33.5209V32.9573C90.1026 33.0803 90.3759 33.1828 90.6833 33.2647C90.9908 33.3399 91.305 33.3775 91.6261 33.3775C92.159 33.3775 92.545 33.2887 92.7841 33.111C93.0301 32.9266 93.1531 32.6772 93.1531 32.3629C93.1531 32.0623 93.0267 31.8335 92.7739 31.6763C92.5211 31.5124 92.1488 31.345 91.6569 31.1742C91.3153 31.058 91.0147 30.9419 90.7551 30.8258C90.5023 30.7028 90.3042 30.5491 90.1607 30.3646C90.0172 30.1801 89.9455 29.9274 89.9455 29.6063C89.9455 29.169 90.1231 28.8274 90.4784 28.5815C90.8336 28.3355 91.3085 28.2125 91.9028 28.2125C92.2308 28.2125 92.5348 28.2433 92.8149 28.3048C93.1018 28.3663 93.3649 28.4483 93.604 28.5507L93.3888 29.0324C93.177 28.9436 92.9379 28.8684 92.6714 28.8069C92.405 28.7386 92.1385 28.7044 91.8721 28.7044C91.4417 28.7044 91.1069 28.7796 90.8678 28.9299C90.6287 29.0802 90.5091 29.2988 90.5091 29.5858C90.5091 29.8044 90.5672 29.9786 90.6833 30.1084C90.7995 30.2314 90.9669 30.3373 91.1855 30.4261C91.4041 30.5149 91.6705 30.614 91.9848 30.7233C92.3127 30.8394 92.6065 30.959 92.8661 31.0819C93.1257 31.2049 93.3341 31.3621 93.4912 31.5534C93.6484 31.7446 93.727 32.0008 93.727 32.3219Z" fill="#666666"/>
</svg>
