<svg width="64" height="64" viewBox="0 0 64 64" fill="none" xmlns="http://www.w3.org/2000/svg">
<g clip-path="url(#clip0)">
<path d="M43.0428 11.0703C42.5228 11.5904 42.5228 12.4358 43.0428 12.9558L45.7096 15.6225C45.9709 15.8811 46.3122 16.0119 46.6536 16.0119C46.995 16.0119 47.3362 15.8812 47.595 15.6199L50.2617 12.9532C50.7817 12.4331 50.7817 11.5877 50.2617 11.0677L47.8162 8.62227C47.7629 8.53689 47.6962 8.45164 47.6216 8.37689C47.1016 7.85687 46.2562 7.85687 45.7362 8.37689L43.0428 11.0703ZM46.6536 11.2304L47.435 12.0117L46.6536 12.7931L45.8722 12.0117L46.6536 11.2304Z" fill="#2BA860"/>
<path d="M63.6115 16.3905L47.611 0.390012C47.091 -0.130004 46.2455 -0.130004 45.7255 0.390012L33.3358 12.7798L31.6103 11.0543C31.0903 10.5343 30.2449 10.5343 29.7249 11.0543L14.9432 25.8334C12.2577 28.5189 10.7804 32.087 10.7804 35.8817C10.7804 39.6765 12.2579 43.2473 14.9432 45.9301L15.5646 46.5515L0.390745 61.7253C-0.129272 62.2453 -0.129272 63.0907 0.390745 63.6107C0.652128 63.8694 0.990763 64.0001 1.33215 64.0001C1.67353 64.0001 2.0148 63.8695 2.27355 63.6107L17.4474 48.4369L18.066 49.0555C20.8368 51.8262 24.4769 53.2103 28.1144 53.2103C31.7518 53.2103 35.3892 51.8262 38.1627 49.0582L52.9445 34.2763C53.4645 33.7563 53.4645 32.9109 52.9445 32.3909L51.2218 30.6655L63.6116 18.2757C64.1287 17.7559 64.1287 16.9105 63.6115 16.3905ZM36.2772 47.1701C31.7785 51.6716 24.4555 51.6689 19.9541 47.1701L16.8286 44.0446C14.6472 41.8632 13.4472 38.9645 13.4472 35.8817C13.4472 32.7963 14.6498 29.8976 16.8286 27.7189L30.6664 13.8811L32.3785 15.5931C32.3839 15.5985 32.3839 15.6037 32.3891 15.6091L48.3896 31.6096C48.3922 31.6122 48.395 31.6122 48.3976 31.615L50.115 33.3324L36.2772 47.1701ZM49.3336 28.7803L35.2212 14.6651L46.6669 3.21673L60.7848 17.3318L49.3336 28.7803Z" fill="#2BA860"/>
<path d="M48.3895 18.2759L51.0562 20.9427C51.3202 21.2013 51.6589 21.332 52.0003 21.332C52.3416 21.332 52.6829 21.2014 52.9417 20.9427L55.6084 18.2759C56.1284 17.7559 56.1284 16.9105 55.6084 16.3905L52.9417 13.7238C52.4216 13.2038 51.5762 13.2038 51.0562 13.7238L48.3895 16.3905C47.8695 16.9105 47.8695 17.7559 48.3895 18.2759ZM52.0003 16.5505L52.7843 17.3319L52.0003 18.1133L51.2216 17.3319L52.0003 16.5505Z" fill="#2BA860"/>
</g>
<defs>
<clipPath id="clip0">
<rect width="64" height="64" fill="white"/>
</clipPath>
</defs>
</svg>
