<svg id="Menu_ICon" data-name="Menu ICon" xmlns="http://www.w3.org/2000/svg" width="21.312" height="19.409" viewBox="0 0 21.312 19.409">
  <g id="Subtract" transform="translate(15.756 11.208)" fill="none">
    <path d="M1.655,1.882A3.555,3.555,0,0,1,3.917,5.194V7.381a.82.82,0,1,0,1.639,0V5.194A5.193,5.193,0,0,0,.365,0H0A6.593,6.593,0,0,1,1.655,1.882Z" stroke="none"/>
    <path d="M 0 9.5367431640625e-07 L 0.3648300170898438 9.5367431640625e-07 C 3.231959819793701 9.5367431640625e-07 5.556239604949951 2.325360774993896 5.556239604949951 5.193830966949463 L 5.556239604949951 7.380701065063477 C 5.556239604949951 7.833621025085449 5.189249992370605 8.200780868530273 4.736539840698242 8.200780868530273 C 4.283839702606201 8.200780868530273 3.916849851608276 7.833621025085449 3.916849851608276 7.380701065063477 L 3.916849851608276 5.193830966949463 C 3.916849851608276 3.686511039733887 2.978839874267578 2.398370742797852 1.654949903488159 1.881820678710938 C 1.228139877319336 1.153080940246582 0.6647696495056152 0.5140810012817383 0 9.5367431640625e-07 Z" stroke="none" fill="#838383"/>
  </g>
  <g id="Vector_631_Stroke_" data-name="Vector 631 (Stroke)" transform="translate(0 11.208)" fill="none">
    <path d="M5.191,1.64A3.553,3.553,0,0,0,1.639,5.194V7.381A.82.82,0,1,1,0,7.381V5.194A5.193,5.193,0,0,1,5.191,0h6.558A5.193,5.193,0,0,1,16.94,5.194V7.381a.82.82,0,1,1-1.639,0V5.194A3.553,3.553,0,0,0,11.749,1.64Z" stroke="none"/>
    <path d="M 5.191411018371582 9.5367431640625e-07 L 11.74899101257324 9.5367431640625e-07 C 14.61613178253174 9.5367431640625e-07 16.94040107727051 2.325360774993896 16.94040107727051 5.193830966949463 L 16.94040107727051 7.380701065063477 C 16.94040107727051 7.833621025085449 16.57341194152832 8.200780868530273 16.12070083618164 8.200780868530273 C 15.66800117492676 8.200780868530273 15.30101108551025 7.833621025085449 15.30101108551025 7.380701065063477 L 15.30101108551025 5.193830966949463 C 15.30101108551025 3.23119068145752 13.71071147918701 1.640161037445068 11.74899101257324 1.640161037445068 L 5.191411018371582 1.640161037445068 C 3.229691505432129 1.640161037445068 1.639391899108887 3.23119068145752 1.639391899108887 5.193830966949463 L 1.639391899108887 7.380701065063477 C 1.639391899108887 7.833621025085449 1.272401809692383 8.200780868530273 0.8196907043457031 8.200780868530273 C 0.3669910430908203 8.200780868530273 1.9073486328125e-06 7.833621025085449 1.9073486328125e-06 7.380701065063477 L 1.9073486328125e-06 5.193830966949463 C 1.9073486328125e-06 2.325360774993896 2.324271202087402 9.5367431640625e-07 5.191411018371582 9.5367431640625e-07 Z" stroke="none" fill="#838383"/>
  </g>
  <g id="Subtract-2" data-name="Subtract" transform="translate(12.603)" fill="none">
    <path d="M1.334,6.879a2.735,2.735,0,0,0,0-5.011A6.029,6.029,0,0,0,0,.006Q.119,0,.239,0a4.374,4.374,0,0,1,0,8.748q-.12,0-.239-.006A6.029,6.029,0,0,0,1.334,6.879Z" stroke="none"/>
    <path d="M 0.2391756772994995 8.747500419616699 C 0.1589256674051285 8.747500419616699 0.07918567210435867 8.745340347290039 -4.328918294049799e-06 8.741070747375488 C 0.5554556846618652 8.214800834655762 1.01058566570282 7.583600521087646 1.333675622940063 6.879200458526611 C 2.297845602035522 6.457010746002197 2.971495628356934 5.494090557098389 2.971495628356934 4.373750686645508 C 2.971495628356934 3.253410577774048 2.297845602035522 2.290490627288818 1.333675622940063 1.868300676345825 C 1.01058566570282 1.16390073299408 0.5554556846618652 0.5327006578445435 -4.328918294049799e-06 0.006430686451494694 C 0.07918567210435867 0.002160686533898115 0.1589256674051285 6.866455350973411e-07 0.2391756772994995 6.866455350973411e-07 C 2.653605699539185 6.866455350973411e-07 4.61089563369751 1.958190679550171 4.61089563369751 4.373750686645508 C 4.61089563369751 6.789310455322266 2.653605699539185 8.747500419616699 0.2391756772994995 8.747500419616699 Z" stroke="none" fill="#838383"/>
  </g>
  <g id="Ellipse_132_Stroke_" data-name="Ellipse 132 (Stroke)" transform="translate(4.098)" fill="none">
    <path d="M4.372,7.107A2.734,2.734,0,1,0,1.639,4.374,2.733,2.733,0,0,0,4.372,7.107Zm0,1.64A4.374,4.374,0,1,0,0,4.374,4.373,4.373,0,0,0,4.372,8.748Z" stroke="none"/>
    <path d="M 4.371716976165771 8.747500419616699 C 1.957286953926086 8.747500419616699 -3.023834324267227e-06 6.789310455322266 -3.023834324267227e-06 4.373750686645508 C -3.023834324267227e-06 1.958190679550171 1.957286953926086 6.866455350973411e-07 4.371716976165771 6.866455350973411e-07 C 6.786147117614746 6.866455350973411e-07 8.743436813354492 1.958190679550171 8.743436813354492 4.373750686645508 C 8.743436813354492 6.789310455322266 6.786147117614746 8.747500419616699 4.371716976165771 8.747500419616699 Z M 4.371716976165771 1.6401606798172 C 2.862696886062622 1.6401606798172 1.639397025108337 2.864030599594116 1.639397025108337 4.373750686645508 C 1.639397025108337 5.88347053527832 2.862696886062622 7.107340812683105 4.371716976165771 7.107340812683105 C 5.880736827850342 7.107340812683105 7.104036808013916 5.88347053527832 7.104036808013916 4.373750686645508 C 7.104036808013916 2.864030599594116 5.880736827850342 1.6401606798172 4.371716976165771 1.6401606798172 Z" stroke="none" fill="#838383"/>
  </g>
</svg>
