<svg width="1184" height="741" fill="none" xmlns="http://www.w3.org/2000/svg"><path fill-rule="evenodd" clip-rule="evenodd" d="m1180.8 305.502-46.21-25.69v-148.49h-120.37v81.57L687.56 31.282 0 437.402v297.86l1183.33.26-2.53-430.02Z" fill="#A1F7C4"/><path fill-rule="evenodd" clip-rule="evenodd" d="M1074.54 26.282s-8.07-36.18-35.75-23.64c-28.89 13.09 4.2 78.32 33.34 87.57 1.1.337 2.24.502 3.39.49 1.15.012 2.3-.153 3.4-.49 29.07-9.26 58.58-77 31.66-87.57-28.3-11.1-36.04 23.64-36.04 23.64ZM601.38 738.911v-231.35c0-85.29 7.21-187.51 216.42-186.79 210.15 3.8 216.42 101.5 216.42 186.79v231.35H601.38Z" fill="#00AC45"/><path fill="#2E186A" d="M359.41 684.421h602.68v52.79H359.41z"/><path fill-rule="evenodd" clip-rule="evenodd" d="M1147.95 658.241c-6-4.51-13.27-2.9-19.53.54-.52-3.64-1-5.88-1-5.88H1000.9s-7.35 36 3.39 54.05c10.74 18.05 40.68 27.69 40.68 27.69h38.4s30-9.61 40.68-27.69a31.795 31.795 0 0 0 2.37-5 167.2 167.2 0 0 0 19.12-6.69 18.52 18.52 0 0 0 11.71-15 24.466 24.466 0 0 0-9.3-22.02Zm.52 20.87a9.503 9.503 0 0 1-6.28 7.95c-5.56 2.27-10 3.84-13.25 4.89 1.06-7.724 1.24-15.543.56-23.31 4.18-3 9.77-5.87 13.11-3.34a15.826 15.826 0 0 1 5.86 13.81ZM758.36 361.241s63.87-13.67 88.06-1.06c15.09 7.87 32.42 29.7 59.53 106.23.38 1.06-64.81 41.59-64.81 41.59l1.65 171.14-222.48-3.11 14-119.7s-26.75-22.75-26.39-53.33c.36-30.58 1.47-29.43 1.47-29.43l-36.8-6.37s19.17-63.43 42.16-77.14c0-.06 38.39-18.72 143.61-28.82Z" fill="#5D21D1"/><path fill-rule="evenodd" clip-rule="evenodd" d="m805.27 511.062 25.08 76.85s-79.36 27.09-129.21 31.42c-2.24.2-47.27 17.59-42.65 19.78 27 12.83-2.09 21.14 33.62 16.33 0 0 84.55 18.9 191.56-.71 12.86-2.35 26.64-13.35 30.38-25.88 9.21-31 10.76-114.76-13.71-168l-95.07 50.21Z" fill="#fff"/><path fill-rule="evenodd" clip-rule="evenodd" d="m803.869 508.409-.158.089a3 3 0 0 0-1.293 3.494l24.157 74.02-2.731.9-3.055.992-3.266 1.048-3.467 1.098a999.46 999.46 0 0 1-37.331 10.967c-10.852 2.953-21.368 5.594-31.37 7.843l-2.308.513-1.145.252-2.27.49-2.245.475-2.219.458-1.099.224-2.179.434-2.152.418-2.126.402-2.098.385-1.038.186-2.056.36-1.018.173-2.014.335c-.666.109-1.328.214-1.985.317l-1.956.3c-.647.097-1.289.191-1.927.283l-1.897.265c-3.764.512-7.349.918-10.743 1.213l-.151.02-.091.016-.328.074-.412.11-.49.143-.368.114-.832.27-1.205.41-1.086.382-1.491.54-2.655.989-1.798.686-1.883.729-3.541 1.399-2.831 1.143-2.843 1.169-2.804 1.176-1.859.794-1.788.776-1.713.757-1.099.493-1.064.483-1.026.473-.987.463-.949.451-.909.441-.867.428-.824.417-.397.203-.758.398-.363.193-.744.407-.692.392c-1.333.77-2.359 1.458-3.089 2.089-.794.686-1.344 1.36-1.626 2.274-.544 1.759.322 3.435 1.888 4.177 5.277 2.508 8.452 4.88 10.104 7.148.904 1.241 1.22 2.051 1.508 3.764l.09.573.076.513.064.383.07.369.078.355.086.342c.556 2.065 1.604 3.354 3.755 4.01l.359.101c.307.08.635.148.985.205l.431.064c.147.019.298.037.452.052l.476.043.246.017.51.028.264.01.546.012.571.002.295-.002.61-.012.636-.021.662-.031.69-.04 1.088-.076 1.153-.097.805-.075 1.265-.129 1.336-.147.93-.109 1.959-.24 1.558-.201 1.124-.15.923.192 1.167.234 1.427.275 1.56.29 1.115.201 1.654.291 1.707.29.873.144 1.783.289 1.834.287.936.143 1.91.285 1.959.282 2.009.279 2.057.277 2.106.272c20.718 2.634 43.887 4.188 68.922 4.119 32.262-.09 65.217-2.892 98.282-8.951 14.32-2.617 28.74-14.659 32.713-27.973a84.714 84.714 0 0 0 1.045-3.856l.283-1.173c.093-.396.185-.798.276-1.204l.269-1.234c.133-.624.263-1.259.39-1.905l.251-1.305c.165-.88.325-1.778.48-2.693l.229-1.387.221-1.412.108-.715.21-1.449.202-1.474.194-1.496.187-1.52.178-1.541.171-1.563.163-1.583.078-.799.15-1.614.142-1.632.134-1.651.064-.832.121-1.678.113-1.694.053-.853.1-1.718.091-1.734.083-1.747.073-1.762.065-1.775.056-1.788.047-1.799.038-1.811.015-.909.024-1.826.015-1.836.005-1.845-.004-1.854-.013-1.86-.023-1.868-.015-.937-.038-1.877-.022-.941-.052-1.885-.062-1.889-.071-1.893c-.039-.947-.081-1.896-.127-2.845-1.711-35.441-8.302-68.53-19.755-93.448a3 3 0 0 0-4.127-1.4l-95.07 50.21Zm95.036-43.408.226.523c10.162 23.724 16.098 54.691 17.697 87.812l.044.93.08 1.857.07 1.855.061 1.85.051 1.846.022.921.037 1.838.027 1.832.018 1.826.009 1.817-.001 1.81c0 .301-.002.602-.003.902l-.014 1.796-.023 1.787-.032 1.776-.041 1.765-.049 1.754-.059 1.741-.032.866-.071 1.721-.08 1.708-.088 1.692-.096 1.678-.105 1.661-.055.825-.117 1.636-.125 1.619-.133 1.6-.141 1.581-.149 1.562-.156 1.542-.165 1.52-.172 1.499-.179 1.477-.093.73-.191 1.442-.198 1.418-.205 1.394-.213 1.369-.219 1.342-.113.662-.23 1.303-.118.641-.241 1.261c-.041.208-.081.415-.123.62l-.251 1.218c-.042.201-.085.4-.128.598l-.261 1.174a86.788 86.788 0 0 1-1.403 5.399c-3.303 11.065-15.867 21.558-28.043 23.783-32.7 5.993-65.301 8.764-97.219 8.853-24.765.069-47.677-1.468-68.149-4.071l-2.075-.269-1.02-.135-2.003-.274-1.953-.276-1.905-.279-1.855-.281-.908-.141-1.78-.284-1.728-.284-1.678-.285-1.625-.286-1.61-.292-1.476-.278-2.038-.402-1.345-.282a2.994 2.994 0 0 0-1.055-.046l-2.453.323-1.366.171-1.7.204-1.937.214-1.406.141-1.282.113-.597.047-.567.039-1.05.061-.716.028-.443.011-.418.005-.58-.005-.355-.011-.332-.016-.308-.023-.286-.028-.263-.035-.124-.019-.141-.025-.125-.026-.203-.052-.034-.011-.086-.509-.089-.592c-.897-5.811-3.422-9.768-11.202-14.093l-.225-.124.597-.33.636-.342.719-.377.765-.39.809-.403.852-.417.893-.428 1.416-.665.993-.457 1.03-.468 1.613-.721 1.69-.742 1.764-.761 1.215-.518 1.931-.811 1.988-.822 1.835-.749 3.327-1.336 3.255-1.283 3.033-1.174 2.128-.809 2.34-.87 1.439-.518.922-.317.522-.164.195-.051a.51.51 0 0 1 .045-.009l.034-.004c5.926-.515 12.398-1.357 19.363-2.501l2.104-.352 2.133-.37 2.162-.388 2.191-.406 1.106-.209 2.233-.432 1.127-.223 2.275-.457 1.148-.235 2.315-.484c.388-.082.778-.164 1.168-.248l2.356-.508 1.188-.26 2.395-.534c10.095-2.269 20.696-4.931 31.629-7.907a1000.336 1000.336 0 0 0 35.307-10.328l3.141-.986 3.439-1.092 3.236-1.042 4.998-1.637 2.898-.97.164-.062a3 3 0 0 0 1.719-3.708l-24.297-74.448 90-47.532Z" fill="#2E186A"/><path fill-rule="evenodd" clip-rule="evenodd" d="m676.52 316.091 9.76 52.08-33.58 12.77s-5.53 51.16 50 57.64c77.33 9 89.68-48.36 94.16-67.35-21.08-3.6-23.61-4.35-23.61-4.35l-10.57-113.22-86.16 62.43Z" fill="#fff"/><path fill-rule="evenodd" clip-rule="evenodd" d="m674.76 313.662-.161.125a3 3 0 0 0-1.028 2.857l9.298 49.614-31.235 11.879a3.003 3.003 0 0 0-1.917 2.482l-.041.458-.047.693c-.515 8.788.865 19.381 5.766 29.623 7.867 16.436 23.059 27.38 46.957 30.168 23.454 2.73 42.473-.342 57.517-8.435 12.579-6.768 21.94-16.77 28.727-29.292l.578-1.08.556-1.064.534-1.051.514-1.041.495-1.032c.242-.515.478-1.027.708-1.539l.452-1.023c.221-.512.437-1.024.648-1.537l.416-1.031c.205-.517.404-1.036.6-1.56l.387-1.053.377-1.068.185-.539.365-1.093c.061-.184.121-.369.18-.554l.356-1.124c.117-.379.234-.762.35-1.149l.347-1.175.344-1.204.342-1.236.342-1.271.171-.649.344-1.326.52-2.068.53-2.169.36-1.506.183-.772a3 3 0 0 0-2.415-3.646l-5.968-1.028-5.553-.979-4.541-.826-3.292-.623-1.977-.391-10.367-111.044c-.216-2.313-2.866-3.514-4.747-2.151l-86.16 62.43Zm5.058 3.745 80.363-58.23 10.082 107.983a3.001 3.001 0 0 0 2.134 2.598l.27.073.657.154.809.175 2.144.433 3.144.601 4.003.734 4.265.76 5.507.959-.324 1.321-.37 1.476c-.123.483-.245.959-.367 1.426l-.364 1.378-.182.673-.363 1.314-.183.643-.366 1.257-.37 1.224c-.186.604-.374 1.196-.565 1.779l-.385 1.155a82.854 82.854 0 0 1-3.523 8.733l-.518 1.08c-.176.361-.356.723-.539 1.088l-.564 1.1c-.288.554-.585 1.114-.892 1.681-6.26 11.549-14.816 20.691-26.295 26.867-13.904 7.48-31.693 10.353-53.979 7.76-21.842-2.549-35.258-12.213-42.239-26.8l-.295-.626c-3.864-8.36-5.163-17.053-4.965-24.409l.024-.708 31.774-12.083.167-.069a3.001 3.001 0 0 0 1.716-3.288l-9.411-50.212Z" fill="#2E186A"/><ellipse cx="777.688" cy="301.557" rx="44.63" ry="45.46" transform="rotate(-18.76 777.688 301.557)" fill="#2E186A"/><ellipse cx="778.283" cy="375.596" rx="37.87" ry="32.96" transform="rotate(-19.8 778.283 375.596)" fill="#2E186A"/><ellipse cx="768.286" cy="436.975" rx="33.861" ry="29.473" transform="rotate(-3.434 768.286 436.975)" fill="#2E186A"/><path fill-rule="evenodd" clip-rule="evenodd" d="M727.9 488.001c.91 13.41 14.15 23.52 29.56 22.59 15.41-.93 27.15-12.55 26.24-25.95-.91-13.4-13.81-24.35-29.22-23.42-15.41.93-27.5 13.36-26.58 26.78Z" fill="#2E186A"/><path fill-rule="evenodd" clip-rule="evenodd" d="M721.14 532.921c6.17 12.23 2.79 20.4-2 25.46a3.51 3.51 0 0 0 2.87 5.9c18.56-2.18 50-9.7 47-35.73-1.39-12.29-12.87-21.79-27.08-21.13-14.21.66-26.35 14.45-20.79 25.5Z" fill="#2E186A"/><path fill-rule="evenodd" clip-rule="evenodd" d="M796.868 340.191a4 4 0 0 1 .204 7.995l-.2.005-34.17.02a3.999 3.999 0 0 1-4.002-3.997 4.002 4.002 0 0 1 3.798-3.998l.2-.005 34.17-.02ZM752.996 404.869a4 4 0 0 1 4.227-3.54l.199.018 29.97 3.41a4 4 0 0 1-.705 7.966l-.199-.017-29.97-3.41a4 4 0 0 1-3.522-4.427ZM750.118 460.615a4 4 0 0 1 4.37-3.362l.198.026 13.34 2.08a4 4 0 0 1-1.034 7.931l-.198-.026-13.34-2.08a4 4 0 0 1-3.336-4.569ZM739.82 507.452a4 4 0 0 1 4.432-3.28l.197.029 9.26 1.62a4 4 0 0 1-1.181 7.91l-.197-.03-9.26-1.62a4 4 0 0 1-3.251-4.629Z" fill="#00AC45"/><path fill-rule="evenodd" clip-rule="evenodd" d="m728.57 262.001 6.45.22s36.82-1.75 28.54-35c-6.28-25.21-30.67-19.53-42.09-15.32" fill="#fff"/><path fill-rule="evenodd" clip-rule="evenodd" d="M720.432 209.087c8.383-3.091 16.81-4.634 24.441-3.527 10.769 1.562 18.457 8.328 21.598 20.937 4.303 17.278-2.183 28.668-15.325 34.69-3.5 1.604-7.219 2.697-10.933 3.382l-.769.136a49.33 49.33 0 0 1-.726.119l-.683.101-.325.045-.613.077-.563.063-.512.049-.458.035-.402.024-.122.003-.122-.001-6.45-.22a3 3 0 0 1 .028-5.998l.176.001 6.319.215.611-.05.38-.038c.943-.1 2.001-.251 3.143-.462 3.259-.601 6.514-1.557 9.522-2.936 10.66-4.885 15.561-13.492 12.002-27.785-2.544-10.212-8.248-15.233-16.637-16.449-6.449-.935-13.975.443-21.504 3.218a3 3 0 1 1-2.076-5.629Z" fill="#2E186A"/><path fill-rule="evenodd" clip-rule="evenodd" d="M597.39 269.361c4 15.13 30.17 82.55 78.38 74 48.21-8.55 66.42-61.14 57.56-107s-39.8-77.28-70.46-72.55c-30.66 4.73-94.49-3.92-65.48 105.55Z" fill="#fff"/><path fill-rule="evenodd" clip-rule="evenodd" d="m662.413 160.847-.845.126-1.162.16-1.233.155-1.34.154-1.875.199-3.121.303-6.44.611-2.835.286-1.535.165-1.661.192-1.273.159-1.211.164-1.23.18-.598.093-1.22.196-1.283.218c-.425.073-.847.148-1.266.225l-1.247.238c-17.341 3.415-29.447 10.417-36.836 23.772-9.474 17.123-9.817 43.554.288 81.687 3.36 12.709 12.133 32.062 23.099 46.895 16.256 21.989 35.94 33.328 58.705 29.29 23.81-4.222 41.849-19.022 52.367-41.176 9.589-20.197 12.246-45.376 7.614-69.347-9.094-47.073-41.193-79.985-73.862-74.945Zm67.971 76.084c4.397 22.755 1.878 46.636-7.143 65.635-9.717 20.466-26.179 33.973-47.995 37.842-20.128 3.569-37.793-6.606-52.832-26.95-10.486-14.183-18.947-32.849-22.124-44.863-9.747-36.781-9.422-61.732-.838-77.247 6.623-11.97 17.772-18.13 34.497-21.119l1.231-.213 1.166-.193.967-.153 1.185-.175 1.079-.149 1.126-.144 1.2-.143 1.303-.146 2.472-.257 4.972-.481 4.21-.396 2.553-.257 1.489-.162 1.359-.16 1.265-.163.909-.127.892-.134c28.908-4.459 58.505 25.888 67.057 70.155Z" fill="#2E186A"/><path fill-rule="evenodd" clip-rule="evenodd" d="M628.821 232.218a3 3 0 0 1 3.344 2.4l.028.174 6.293 46.863 10.659-3.169a2.999 2.999 0 0 1 3.675 1.852l.056.168a3.002 3.002 0 0 1-1.853 3.676l-.168.055-14.02 4.17a3.001 3.001 0 0 1-3.8-2.302l-.028-.174-6.76-50.34a3 3 0 0 1 2.574-3.373ZM658.748 221.143c4.044-.754 8.167.268 12.153 2.371a27.497 27.497 0 0 1 3.245 1.995l.421.313c.13.1.252.196.363.288a3 3 0 0 1-3.649 4.758l-.34-.262-.308-.226-.269-.189a22.416 22.416 0 0 0-2.263-1.371c-2.901-1.53-5.771-2.241-8.253-1.778-1.654.308-3.148 1.137-4.519 2.629a2.999 2.999 0 1 1-4.418-4.059c2.248-2.448 4.907-3.923 7.837-4.469ZM609.588 239.034c3.079-.456 6.268-.108 9.366.735.321.088.624.176.907.262l.539.172c.085.028.168.055.248.083l.455.161.396.15c.121.048.232.094.333.137a3 3 0 0 1-2.2 5.58l-.343-.137-.327-.121c-.467-.168-1-.338-1.585-.497-2.365-.645-4.769-.907-6.91-.589-2.89.428-5.014 1.852-6.388 4.682a3.001 3.001 0 0 1-5.397-2.621c2.285-4.705 6.14-7.291 10.906-7.997Z" fill="#2E186A"/><ellipse cx="658.964" cy="256.484" rx="4.85" ry="7.68" transform="rotate(-19.63 658.964 256.484)" fill="#2E186A"/><ellipse cx="614.749" cy="271.682" rx="4.85" ry="7.68" transform="rotate(-19.63 614.749 271.682)" fill="#2E186A"/><path fill-rule="evenodd" clip-rule="evenodd" d="M653.601 202.584c-18.778 8.15-27.166 32.318-19.362 53.882 7.804 21.565 29.033 32.878 47.81 24.728 18.778-8.15 27.166-32.318 19.362-53.883-7.804-21.564-29.033-32.877-47.81-24.727Zm1.885 5.222c15.06-6.534 33.155 3.105 40.022 22.072 6.866 18.967-.284 39.56-15.344 46.094-15.06 6.534-33.155-3.105-40.022-22.072-6.866-18.967.284-39.56 15.344-46.094ZM577.482 230.851c-18.778 8.151-27.166 32.319-19.362 53.883 7.804 21.564 29.033 32.877 47.811 24.727 18.777-8.15 27.165-32.318 19.361-53.882-7.804-21.565-29.033-32.878-47.81-24.728Zm1.885 5.222c15.06-6.534 33.155 3.106 40.022 22.072 6.866 18.967-.284 39.56-15.344 46.094-15.059 6.535-33.155-3.105-40.021-22.072-6.867-18.967.283-39.56 15.343-46.094Z" fill="#00AC45"/><path fill-rule="evenodd" clip-rule="evenodd" d="M633.447 239.692a3 3 0 0 1 2.269 5.552l-.163.066-18.01 6.75a2.999 2.999 0 0 1-2.269-5.551l.163-.067 18.01-6.75ZM733.394 204.884a3 3 0 0 1 1.483 5.812l-.171.043-44.01 9.86a3 3 0 0 1-1.483-5.811l.171-.044 44.01-9.86Z" fill="#00AC45"/><path fill-rule="evenodd" clip-rule="evenodd" d="m668.402 293.689-.359.42-.196.224-.428.473a36.593 36.593 0 0 1-3.605 3.426c-3.344 2.761-6.718 4.463-9.823 4.684l-.332.017c-2.213.082-3.578 2.451-2.538 4.407l.145.264.185.322.224.376.264.425.146.23a30.537 30.537 0 0 0 2.547 3.428c4.713 5.463 10.303 7.63 15.792 3.391 3.08-2.38 4.753-5.693 5.231-9.565.374-3.029.008-6.171-.819-9.234l-.084-.303-.166-.572-.082-.268-.161-.502-.155-.451-.146-.4-.136-.345a9.328 9.328 0 0 0-.062-.152c-.868-2.054-3.574-2.461-5.015-.816l-.427.521Zm1.187 7.443.039.258c.194 1.413.232 2.796.072 4.085-.293 2.377-1.227 4.226-2.944 5.552-2.254 1.741-4.681.8-7.581-2.561l-.38-.454.371-.126c2.898-1.027 5.727-2.764 8.468-5.027a41.343 41.343 0 0 0 1.677-1.464l.278-.263ZM547.05 220.141c-7.25-79.09 64-101.3 118.88-71.39 56.94-35.14 91.23-2.69 112.88 22.4 20.94 24.27 25.19 64 4.64 97-10.68 17.15-30 17.72-49.4 21.9l1.4-27.94c4.07-.32 35.86-3.83 28.11-35-2.84-11.37-9.35-16.45-16.7-18.22-1.15 3.87-4.92 6.62-12.46 7.52-26.09 3.12-47.68-15.65-59.26-28.64l-12.39 8.23-98.78 35.62a13.18 13.18 0 0 1-16.92-11.48Z" fill="#2E186A"/><path fill-rule="evenodd" clip-rule="evenodd" d="M486.42 352.001c-19.29-12.14-39.4-46.18-49-36.49-1.8 1.82-5.37 8.1 3.34 17.06l-1.4-.56a6.16 6.16 0 0 0-1.42-.24c-9.87-.45-10.44 10.16 2 21.85l4.28 2.57c-8.31-8.07-17.3 3-9.12 11.24 5.54 5.54 16.82 17 18.49 19 12.53 17.12 31 32.41 45 27.14 38.71-14.59 1-69.13 1-69.13-8.83-5-18.77-15.09-30.68-28.3-7.51-8.32-16.62-2.18-14.31 4.83l2.2 3.06c-8-8-14.86-13.12-19.37-8.56-1.8 1.82-5.37 8.1 3.34 17.06" fill="#fff"/><path fill-rule="evenodd" clip-rule="evenodd" d="M456.8 310.091c4.551-2.132 10.05-.709 14.338 4.042l2.034 2.244.988 1.083 1.448 1.575 1.868 2.01 1.8 1.911 1.307 1.368 1.272 1.315 1.237 1.263 1.205 1.21.786.779 1.154 1.128.752.724.741.703.728.681.716.661.705.641.694.621.683.6.673.582.663.562.654.543.645.525.636.507.628.488.62.472.613.454.605.437.599.42.593.404.587.388.581.372.576.358.287.172.569.335.283.162c.394.223.732.532.99.904l.532.794.221.338.513.796.542.86.57.921.294.484a131.182 131.182 0 0 1 5.794 10.66c3.76 7.765 6.496 15.429 7.764 22.678 2.983 17.045-2.494 30.027-18.641 36.113-14.167 5.333-32.739-6.934-48.016-27.549l-.403-.546-.227-.258-.673-.735-1.304-1.382-2.92-3.034-3.616-3.709-4.915-4.993-1.571-1.585-3.031-3.043c-4.801-4.836-5.363-11.381-1.824-15.741a9.504 9.504 0 0 1 2.466-2.164l.204-.12-.212-.254c-3.642-4.421-5.737-8.807-6.009-12.661l-.019-.329c-.205-4.641 2.293-7.965 6.454-9.095l.308-.079-.097-.171c-2.018-3.617-2.559-7.046-1.944-10.003l.08-.354a10.967 10.967 0 0 1 2.749-5.036l.17-.176a9.06 9.06 0 0 1 2.453-1.794l.134-.064c1.587-.765 3.301-.945 5.138-.604l.153.029c1.202.225 2.447.664 3.723 1.302l.295.15c1.326.692 2.701 1.589 4.176 2.719l.457.354.048-.13c.839-2.17 2.469-4.004 4.678-5.113l.248-.12Zm9.321 28.031-8.182-8.591-1.694-1.757-.544-.555-.834-.84-.803-.798-.775-.757-.746-.717-.364-.345-.709-.66-.687-.625-.665-.59-.646-.556-.628-.525c-.206-.17-.41-.334-.612-.494l-.563-.439-.541-.407c-3.899-2.875-6.164-3.269-7.575-1.845-.448.453-.849 1.112-1.107 1.911l-.073.238-.054.218a6.345 6.345 0 0 0-.151 1.08l-.009.285c-.026 2.562 1.367 5.594 4.762 9.087.317.326.545.706.684 1.108l.077.253c.576 2.121-1.467 4.446-3.878 3.615l-.158-.059-1.233-.494-.135-.033a3.309 3.309 0 0 0-.239-.04l-.236-.022c-3.135-.143-4.334.929-4.232 3.244.144 3.267 2.795 7.929 7.706 12.736l.232.223.084.03c1.533.555 3.052 1.484 4.468 2.802l.249.236c2.516 2.443-.479 6.428-3.487 4.809l-.147-.085-3.925-2.357-.059-.009c-1.099-.146-2.053.243-2.775 1.057l-.112.132c-1.546 1.905-1.28 5.008 1.416 7.724l4.062 4.082 4.776 4.845 3.552 3.637 3.453 3.581 1.787 1.894.623.681.352.4.067.079.118.151c3.061 4.182 6.258 7.985 9.5 11.331l.885.901c11.223 11.267 22.873 16.983 31.136 13.872 12.045-4.54 16.614-13.389 15.332-25.979l-.095-.854-.113-.866-.063-.437-.139-.882c-.024-.148-.05-.297-.076-.446-1.16-6.629-3.717-13.793-7.254-21.097a125.022 125.022 0 0 0-5.528-10.169l-.551-.902-.526-.842-.497-.781-.533-.816-.321-.189-.644-.392-.647-.406-.652-.423a61.615 61.615 0 0 1-.327-.217l-.659-.448-.663-.464-.67-.482a36.075 36.075 0 0 1-.337-.247l-.679-.508-.686-.527-.694-.545-.701-.564-.71-.583-.719-.603-.728-.623-.738-.643-.748-.665-.759-.685-.771-.707-.782-.73-.794-.751-.807-.774-.821-.797-.834-.821-.848-.844-1.3-1.312-1.334-1.368-1.371-1.425-1.409-1.483-.961-1.021-.979-1.049-1.503-1.623-1.546-1.686-1.056-1.159-1.608-1.777c-4.697-5.204-10.311-2.839-9.366 1.402l.02.084 1.853 2.579.774.78.973.996 8.54 8.959.966 1.008.998 1.034.967.991.936.952 1.353 1.354.438.434.858.84.837.807.817.775.798.745.783.716.386.347.763.677.377.329.748.64.739.619.368.301.731.589.719.563a49.986 49.986 0 0 0 3.959 2.789 3 3 0 0 1-3.196 5.078 56.033 56.033 0 0 1-4.434-3.121c-.379-.292-.756-.59-1.134-.894l-.758-.616a90.074 90.074 0 0 1-.38-.315l-.763-.644-.77-.665-.778-.686-.789-.71-.801-.736-.815-.762-1.254-1.199-.86-.837-.438-.431-.893-.886-.917-.922-.943-.959-.972-.997-1.002-1.038Z" fill="#2E186A"/><path fill-rule="evenodd" clip-rule="evenodd" d="M442.693 354.726a3 3 0 0 1 4.242-.071 389.906 389.906 0 0 1 3.527 3.452l1.705 1.701.856.862 2.024 2.057 4.244 4.338.841.851a201.578 201.578 0 0 0 5.766 5.613 3 3 0 0 1-4.096 4.385 208.121 208.121 0 0 1-5.932-5.774l-1.997-2.032-4.259-4.351-1.696-1.713a382.35 382.35 0 0 0-5.153-5.076 2.999 2.999 0 0 1-.072-4.242ZM437.918 328.731l.177.003c2.919.131 5.718 1.673 9.398 4.917l.621.556.639.589.326.306.667.637.687.669.351.347.483.49 7.279 7.535 2.475 2.529 2.098 2.124 1.789 1.784 1.024 1.004.667.641.2.19c2.618 2.463 5.174 4.696 7.758 6.751a3 3 0 0 1-3.734 4.696c-2.723-2.165-5.403-4.506-8.136-7.078l-.644-.614-.995-.97-1.423-1.412-1.245-1.251-1.978-2.005-5.174-5.311-4.331-4.506-.607-.602-.586-.571-.566-.541a31.748 31.748 0 0 0-.275-.259l-.535-.496-.261-.236-.506-.452-.488-.422a32.76 32.76 0 0 0-.468-.393l-.451-.364a29.376 29.376 0 0 0-.432-.337l-.414-.308a16.21 16.21 0 0 0-.589-.411l-.372-.24c-.968-.605-1.76-.923-2.403-.984l-.119-.008a3 3 0 0 1 .093-5.997Z" fill="#2E186A"/><path fill-rule="evenodd" clip-rule="evenodd" d="m487.55 414.221 13 59.76s42.45 14.89 57.43-21.47l-21.27-54.14c.5-7-4-19.57-4.8-28.41-.9-10.35-15.15-35.72-15.24-43.7-.13-12.51-22.34-10.26-16.27 16.54l.28 1.47s6.92 14.13-1.13 26.65c-8.05 12.52-3.06 18.83-3.06 18.83" fill="#fff"/><path fill-rule="evenodd" clip-rule="evenodd" d="M504.894 317.094c6.93-3.384 14.514.804 14.77 8.851l.011.494.02.33.036.348.072.497.074.399.091.425.071.299.122.472.093.333.101.347.23.742.13.396.289.844.33.92.473 1.263.429 1.109.476 1.202.951 2.342.941 2.268 1.844 4.369 1.348 3.167 1.134 2.693.827 1.999.759 1.868.354.888.5 1.277.464 1.214.428 1.153.267.737.37 1.06.338 1.008.206.645.193.624.178.605.165.587.151.568.137.552.064.27.118.529.105.514.093.501.081.488.068.477.057.466.069.715.084.783.102.806.08.556.089.574.152.904.115.634.193 1.009.22 1.086.249 1.176.378 1.724 1.261 5.549.464 2.109.165.778.228 1.101.267 1.357.117.634.158.9.135.846.114.796.064.507.055.489.046.473.038.46.029.447.02.437.012.428.005.421-.004.417-.017.533 21.031 53.531c.258.656.276 1.378.055 2.043l-.073.197c-5.684 13.797-15.531 21.81-28.198 24.906-8.801 2.151-18.104 1.774-26.981-.137a65.504 65.504 0 0 1-3.857-.949l-.981-.285-.779-.242-.401-.135a2.999 2.999 0 0 1-1.891-2.005l-.047-.188-13-59.76a2.999 2.999 0 0 1 5.82-1.447l.042.171 12.627 58.047.232.067c.897.251 1.886.502 2.956.742l.542.119c8.065 1.736 16.502 2.077 24.294.173 10.366-2.534 18.385-8.791 23.381-19.763l.225-.504-20.82-52.996a2.983 2.983 0 0 1-.208-1.087l.008-.224.022-.374.007-.19.009-.387-.001-.397-.004-.203-.015-.417-.026-.434-.035-.451-.047-.473-.057-.495-.069-.521-.08-.547-.092-.578-.104-.609-.116-.644-.198-1.034-.227-1.123-.35-1.65-.492-2.223-1.019-4.475-.413-1.861-.271-1.272-.242-1.179-.214-1.099-.127-.695-.117-.667-.105-.645-.096-.625-.085-.609-.077-.597-.068-.588-.061-.583-.027-.291a10.36 10.36 0 0 0-.038-.375l-.05-.39-.062-.404-.074-.421-.087-.438-.049-.225-.106-.464-.058-.239-.126-.492-.139-.511-.153-.532-.166-.553-.276-.869-.201-.609-.329-.956-.362-1.012-.26-.706-.275-.733-.596-1.547-.659-1.66-.536-1.324-.772-1.873-1.059-2.525-2.237-5.26-1.513-3.595-.978-2.364-.718-1.773-.391-.983-.587-1.516-.315-.84-.289-.792-.263-.747-.162-.475-.151-.456-.207-.655-.185-.619-.111-.395-.102-.382-.136-.55-.08-.352-.105-.511-.059-.329-.052-.322-.045-.315-.036-.292-.03-.288-.024-.284a14.59 14.59 0 0 1-.035-.653l-.007-.323c-.038-3.692-2.982-5.35-6.144-3.806-4.317 2.108-6.546 8.795-4.305 19.178l.126.576.21 1.1.067.15c.064.145.131.301.199.468l.212.529c.036.093.073.189.109.287l.225.619.23.677c.077.235.155.479.233.732l.107.354c2.035 6.849 2.251 14.121-.591 21.031a27.067 27.067 0 0 1-1.944 3.829l-.331.528c-4.26 6.626-4.843 11.412-3.558 14.654l.109.262.094.2.097.185.028.045a3 3 0 0 1-4.706 3.722c-.365-.462-.801-1.196-1.2-2.203-2.018-5.093-1.189-11.901 4.09-20.11a21.195 21.195 0 0 0 1.772-3.394c2.244-5.455 2.068-11.39.388-17.04a28.815 28.815 0 0 0-.712-2.107l-.206-.517-.107-.257-.176-.393a3.002 3.002 0 0 1-.209-.563l-.044-.195-.28-1.47-.082-.366c-2.791-12.877.382-22.416 7.523-25.903Z" fill="#2E186A"/><path fill-rule="evenodd" clip-rule="evenodd" d="M944.69 656.941h-186l-90.26-219c-1.79-4.57-6.08-7.79-10.35-7.79l-311.81 3.85c-5.95 0-16.28 7.58-13.78 13.93l90.22 229.78c1.79 4.57 6.08 7.8 10.35 7.8h236.73l-.14.35h248c32.64.02 27.04-28.92 27.04-28.92Z" fill="#fff"/><path fill-rule="evenodd" clip-rule="evenodd" d="M527.43 531.721s-13.37-3.11-12.23 8c0-.02 10.94 4.08 12.23-8Z" fill="#5D21D1"/><path fill-rule="evenodd" clip-rule="evenodd" d="M539.87 566.001a34.581 34.581 0 0 0-15-7.87 7.293 7.293 0 0 0 .38-4.07 13.38 13.38 0 0 0-8.86-9.94c-1.53-3.12-5.53-10.87-8.58-13.85a3 3 0 0 0-4.19 4.29c1.73 1.69 4.54 6.62 6.58 10.61a6.37 6.37 0 0 0-1.61 5.94 13.15 13.15 0 0 0 4.24 7.25 13.508 13.508 0 0 0-3.78 1.92c-7.37 5.47-5.54 16.91 4.1 25.54 9.64 8.63 23.43 11.2 30.8 5.72 7.37-5.48 5.56-16.87-4.08-25.54Z" fill="#5D21D1"/><path fill-rule="evenodd" clip-rule="evenodd" d="M639.61 444.661c5.669 0 10.605 4.17 13.542 11.321l90.819 224.303a3.001 3.001 0 0 1-5.491 2.414l-.071-.162-90.67-223.935c-2.052-5.201-4.993-7.818-7.877-7.937l-.206-.004-299.42 4.62a3.001 3.001 0 0 1-.269-5.992l.177-.008 299.466-4.62ZM942.5 653.951a3 3 0 0 1 .176 5.995l-.176.005H766.12l7.624 20.054a3 3 0 0 1-1.575 3.803l-.163.067a3 3 0 0 1-3.803-1.575l-.067-.163-9.17-24.12c-.725-1.907.623-3.946 2.626-4.061l.178-.005H942.5Z" fill="#2E186A"/><rect x="830.05" y="679.721" width="32.16" height="17.04" rx="7.7" transform="rotate(-180 830.05 679.721)" fill="#5D21D1"/><rect x="867.9" y="679.721" width="32.16" height="17.04" rx="7.7" transform="rotate(-180 867.9 679.721)" fill="#00AC45"/><path fill-rule="evenodd" clip-rule="evenodd" d="M742.701 609.508a3 3 0 0 1 3.832 1.503l.071.161 17.95 44.65a3 3 0 0 1-5.497 2.4l-.07-.162-17.95-44.65a3 3 0 0 1 1.664-3.902Z" fill="#2E186A"/><path fill-rule="evenodd" clip-rule="evenodd" d="M851.367 671.375a3 3 0 0 1 3.3-2.667c21.877 2.324 26.03 26.925 8.12 44.759-11.034 10.989-28.618 16.439-49.471 16.613-17.885.15-37.016-3.717-51.275-10.1l-.733-.332c-12.33-5.663-23.893-7.536-34.682-6.269-8.567 1.007-16.273 3.941-23.053 8.207a55.19 55.19 0 0 0-7.783 5.895 40.881 40.881 0 0 0-1.718 1.657l-.453.474-.382.421a3 3 0 1 1-4.574-3.883l.232-.266.276-.305.32-.34.363-.376.408-.408.451-.439.495-.469.537-.498a61.14 61.14 0 0 1 8.632-6.541c7.499-4.718 16.04-7.971 25.549-9.088 11.671-1.371 24.093.581 37.146 6.44l.74.335c13.515 6.206 32.125 10.03 49.454 9.886 19.426-.163 35.539-5.157 45.287-14.865 14.711-14.648 11.642-32.824-4.52-34.541a3 3 0 0 1-2.666-3.3ZM683.32 713.652s.15-6.11-7-9.87c-7.15-3.76-12.68 1.77-12.68 1.77l19.68 8.1Z" fill="#fff"/><path fill-rule="evenodd" clip-rule="evenodd" d="M695.14 727.482c.32-4.25-4.5-9.87-17.3-16.93-12.8-7.06-19.7-13.12-44.92-13.44-26.84-.35-38.17 15.55-40.8 19.27-2.35 3.33-5.66 8.91-3.14 12.73 2.52 3.82 2.35 4 5.68 5 3.33 1 95.11 0 95.11 0s4.79 1.09 5.37-6.63ZM515.14 733.442a37.002 37.002 0 0 0-2.54-11.88c-8.65-22.14-43.38-11.71-48.2-7l-13 22.6 63.64.26.1-3.98Z" fill="#00AC45"/><path fill-rule="evenodd" clip-rule="evenodd" d="M486.94 704.995c-3.506.145-7.183.689-10.626 1.484l-.932.223c-5.867 1.449-10.923 3.607-13.079 5.714a3.004 3.004 0 0 0-.504.65l-13 22.6c-1.147 1.995.287 4.486 2.589 4.496l63.64.26a3 3 0 0 0 3.011-2.925l.1-3.98-.002-.212a40.009 40.009 0 0 0-2.746-12.844c-4.395-11.249-14.927-16.025-28.451-15.466Zm23.117 18.316a34.028 34.028 0 0 1 2.047 9.567l.033.599-.023.933-55.541-.227 10.188-17.711.125-.099c.764-.586 1.993-1.221 3.539-1.842l.635-.247.666-.246.696-.242.724-.238.372-.117.761-.23.783-.224.803-.217.822-.21c.277-.068.556-.135.837-.2l.852-.19.43-.092.868-.174a54.624 54.624 0 0 1 5.315-.766l.885-.072c.44-.032.879-.058 1.314-.076 11.23-.464 19.311 3.2 22.618 11.663l.251.658Z" fill="#2E186A"/><path fill-rule="evenodd" clip-rule="evenodd" d="M483.688 715.228a3 3 0 0 1 3.486-2.418l.16.031.358.081c.574.142 1.312.378 2.169.732a19.418 19.418 0 0 1 5.399 3.368c4.896 4.298 7.762 10.933 7.66 20.123a3.001 3.001 0 0 1-6-.067c.083-7.465-2.057-12.421-5.618-15.546a13.45 13.45 0 0 0-3.732-2.333l-.375-.148-.331-.12-.148-.05-.258-.08a4.91 4.91 0 0 0-.109-.03l-.177-.044-.066-.013a3 3 0 0 1-2.418-3.486ZM470.403 719.085a3 3 0 0 1 3.773-1.94c.102.033.214.072.336.118l.395.159c.354.15.765.346 1.221.591a17.254 17.254 0 0 1 3.85 2.836c3.962 3.863 6.074 9.453 5.41 16.803a3.001 3.001 0 0 1-5.976-.54c.501-5.535-.942-9.353-3.623-11.967-.8-.78-1.658-1.392-2.507-1.85a9.046 9.046 0 0 0-.598-.295l-.235-.1-.106-.042a3 3 0 0 1-1.94-3.773Z" fill="#2E186A"/><path fill-rule="evenodd" clip-rule="evenodd" d="M483.26 642.652a127.912 127.912 0 0 0-22.26-10c-26.77-8.3-59.88-6.87-83.3-4.14a360.82 360.82 0 0 0-37.39-17.39c-19.37-7.72-49.75-22.37-74.57-25.45-58.06-7.21-75 23-94.23 28.83-38.92 11.78-55.29 40.6-55.05 67.6a51.858 51.858 0 0 1-11.14-2.31c-20.35-6.7-35.79-27.88-9-50 67.49-55.79 22.82-107.44-10.61-108.63-40.27-1.44-31.16 35-8 36.9 23.16 1.9 14.63 32.43-3.25 42.63-16.33 9.31-49.82 31.42-41.2 75.52 8.06 41.27 35.15 53.65 75.44 58.25a187.42 187.42 0 0 0 38.52-.14c.92.44 1.85.87 2.81 1.26h148.94c55.84 4 121.51-1 163.86-1 10.39-5.08 21.87-14.17 27.71-21.33 36.96-39.41 3.48-64.5-7.28-70.6Z" fill="#00AC45"/><path fill-rule="evenodd" clip-rule="evenodd" d="M436.14 629.141c.06-1.34 2.39-6.55 3.21-7.8 4.33-6.58 15.53-16.26 28.72-24.11 4.84-2.88 11-2.52 14.11 1.74 8.44 11.64 2.25 38.65 2.31 52.31" fill="#00AC45"/><path fill-rule="evenodd" clip-rule="evenodd" d="M476.98 602.165a2.998 2.998 0 0 1-1.423 3.996l-.481.241-.628.33a59.345 59.345 0 0 0-3.108 1.8c-3.236 2.001-6.472 4.376-9.483 7.103-7.091 6.424-11.79 13.749-13.084 21.869a3 3 0 0 1-5.925-.945c1.538-9.651 6.962-18.106 14.98-25.37 3.302-2.991 6.828-5.577 10.355-7.759a66.016 66.016 0 0 1 2.977-1.74l.658-.355.693-.36.473-.234a3 3 0 0 1 3.996 1.424ZM505.827 654.973c11.165-2.54 22.986-2.525 34.084-.987.409.056.808.114 1.196.173l1.134.177c.552.09 1.079.181 1.581.272l.985.186 1.055.219.112.026a3 3 0 0 1-1.176 5.881l-.907-.19-.689-.134-.458-.085-.966-.17-1.03-.167-1.092-.165-.569-.08c-10.441-1.447-21.576-1.461-31.929.894-7.724 1.757-14.469 4.754-19.99 9.146a3 3 0 1 1-3.736-4.695c6.279-4.996 13.844-8.357 22.395-10.301ZM542.19 678.33a3 3 0 1 1-3.4 4.943c-7.542-5.188-18.516-7.292-30.343-6.48a70.08 70.08 0 0 0-2.418.209l-.955.106-.474.058-.941.123c-.312.043-.622.088-.929.135l-.918.146-.453.077-.897.16-.442.084-.873.175-.429.091-.846.187c-.279.064-.554.13-.826.196l-.806.203-.394.104-.772.213c-.253.073-.502.146-.747.22l-.722.225c-.591.19-1.154.385-1.686.584l-.623.24-.3.122-.576.246c-1.398.617-2.484 1.259-3.167 1.89l-.132.126a3 3 0 0 1-4.242-4.243c2.241-2.241 6.746-4.241 12.336-5.66l.942-.232c.317-.075.637-.148.96-.22l.978-.208a76.54 76.54 0 0 1 1.498-.291l1.017-.178a79.755 79.755 0 0 1 1.55-.244l1.048-.146a77.17 77.17 0 0 1 3.742-.401l1.086-.083c13.062-.896 25.337 1.457 34.154 7.523ZM386.464 676.751c10.127-.556 20.534 1.038 27.435 3.783a3 3 0 1 1-2.218 5.575c-6.072-2.416-15.611-3.876-24.888-3.367-11.603.638-21.993 4.159-29.914 10.869a3 3 0 0 1-3.878-4.578c9.013-7.636 20.644-11.577 33.463-12.282ZM349.794 670.04c10.533-6.974 23.503-10.066 36.409-9.335 11.789.668 22.469 4.541 28.353 10.34a3 3 0 1 1-4.212 4.273c-4.722-4.654-14.034-8.03-24.48-8.622-11.671-.661-23.361 2.125-32.758 8.347a3 3 0 0 1-3.312-5.003Z" fill="#2E186A"/><path fill-rule="evenodd" clip-rule="evenodd" d="M417.72 629.202a26 26 0 0 0-1.33-7.9 125.616 125.616 0 0 0-23.49-32.72c-4.37-4.39-11-3.52-15.65 0-11.9 8.94-22 32-13.69 58.71" fill="#00AC45"/><path fill-rule="evenodd" clip-rule="evenodd" d="M383.442 594.419a3 3 0 0 1 4.905 3.451l-.653.905-.469.671-.502.734a94.845 94.845 0 0 0-5.124 8.523c-2.783 5.245-4.834 10.373-5.847 15.097-1.427 6.657-.691 11.988 2.482 15.79a3 3 0 0 1-4.607 3.844c-4.531-5.429-5.52-12.596-3.741-20.892 1.144-5.338 3.391-10.956 6.413-16.652a100.825 100.825 0 0 1 4.884-8.218l.289-.435.556-.823.524-.757.603-.847.177-.243.11-.148ZM425.98 665.162c0-4.56 2.37-5.88 5.26-5.87 2.89.01 5.23 1.34 5.22 5.91-.01 4.57-2.67 3.67-5.56 3.66-2.89-.01-4.93.87-4.92-3.7ZM459.33 664.912c0-4.57 2.31-5.9 5.2-5.91 2.89-.01 5.26 1.3 5.27 5.87.01 4.57-2.63 3.55-5.52 3.56-2.89.01-4.94 1.05-4.95-3.52ZM457.55 671.942l-6.29 6.89a2.541 2.541 0 0 1-3.53.12l-6.48-5.84a2.29 2.29 0 0 1 1.38-4l12.78-1.11a2.39 2.39 0 0 1 2.14 3.94Z" fill="#2E186A"/><path fill-rule="evenodd" clip-rule="evenodd" d="M448.728 679.192a3.002 3.002 0 0 1 4.014.894l.098.154c1.04 1.752 2.718 3.208 4.209 3.673 1.246.389 2.171.085 3.114-1.33l.123-.191a3 3 0 0 1 5.088 3.18c-4.754 7.607-13.439 4.897-17.694-2.268a3.002 3.002 0 0 1 1.048-4.112Z" fill="#2E186A"/><path fill-rule="evenodd" clip-rule="evenodd" d="M449.209 673.762a3 3 0 0 1 3.45 2.468c2.239 13.488-10.936 20.709-20.338 9.611a3 3 0 0 1 4.578-3.879c5.266 6.217 11.128 3.004 9.841-4.749a3 3 0 0 1 2.469-3.451ZM263.274 642.15a3.001 3.001 0 0 1 3.252 5.043c-13.569 8.749-23.975 27.381-25.949 48.509-1.055 11.255 5.587 21.009 17.595 29.217 4.002 2.736 8.309 5.086 12.616 7.039a83.267 83.267 0 0 0 3.678 1.566l.729.284.47.178.787.284a3 3 0 0 1-1.924 5.683l-.528-.186-.989-.37-.24-.093a85.932 85.932 0 0 1-4.461-1.882c-4.604-2.088-9.209-4.6-13.524-7.549a71.866 71.866 0 0 1-5.187-3.888l-.8-.672c-9.879-8.441-15.291-18.481-14.196-30.17 2.138-22.888 13.482-43.199 28.671-52.993ZM320.701 686.95a3 3 0 0 1 3.22 2.763c.405 5.3 2.815 9.412 9.414 12.405l.348.15.357.14.244.087.25.082.256.078.396.107.274.066.282.061.291.056.456.075.316.044.328.04.514.05.544.039.574.029.607.018.643.007.449-.001.707-.011.493-.013.777-.029 1.104-.055.884-.054 1.584-.114 2.097-.176 1.922-.18 2.093-.21 4.733-.51 4.358-.495 2.843-.326 2.812-.31 1.977-.208 2.484-.246 1.768-.162 1.14-.098 1.115-.09 1.632-.121 1.068-.071 1.582-.094 1.568-.079 1.57-.064c16.058-.587 28.524 1.512 38.194 7.547 12.21 7.626 18.877 19.078 16.586 30.876a3 3 0 1 1-5.89-1.143c1.756-9.044-3.584-18.217-13.874-24.643-8.301-5.181-19.435-7.121-34.025-6.667l-1.279.045-1.013.043-1.523.077-1.022.059-1.033.066-1.578.113-1.076.084-1.662.141-1.73.159-1.811.178-2.564.268-2.053.225-12.301 1.404-3.362.352-1.586.142-.745.058-1.157.077-1.465.081-.399.02c-6.095.305-10.403-.088-13.546-1.508-8.787-3.985-12.363-10.086-12.922-17.414a2.999 2.999 0 0 1 2.762-3.22Z" fill="#2E186A"/><path fill-rule="evenodd" clip-rule="evenodd" d="M402.508 715.228a3 3 0 0 1 3.486-2.418l.16.031.358.081c.574.142 1.312.378 2.169.732a19.418 19.418 0 0 1 5.399 3.368c4.897 4.298 7.762 10.933 7.66 20.123a3.001 3.001 0 0 1-6-.067c.083-7.465-2.057-12.421-5.618-15.546a13.435 13.435 0 0 0-3.732-2.333l-.375-.148-.331-.12-.148-.05-.258-.08a4.91 4.91 0 0 0-.109-.03l-.177-.044-.066-.013a3 3 0 0 1-2.418-3.486ZM389.223 719.086a3 3 0 0 1 3.773-1.941c.456.146 1.13.425 1.951.867a17.238 17.238 0 0 1 3.85 2.833c3.968 3.864 6.081 9.456 5.411 16.809a3 3 0 1 1-5.976-.545c.505-5.535-.938-9.353-3.621-11.965a11.266 11.266 0 0 0-2.508-1.849 8.625 8.625 0 0 0-.773-.37l-.166-.066a3 3 0 0 1-1.941-3.773ZM116.942 676.682a3 3 0 0 1 2.491 3.277l-.087.616-.064.521-.063.588-.031.319c-.798 8.54.125 18.398 4.086 27.679 4.753 11.138 13.289 19.651 26.539 24.621a2.999 2.999 0 1 1-2.107 5.618c-14.829-5.562-24.571-15.277-29.951-27.884-4.412-10.34-5.423-21.144-4.541-30.592l.082-.812.079-.675.073-.534.043-.275a3 3 0 0 1 3.451-2.467Z" fill="#2E186A"/><path fill-rule="evenodd" clip-rule="evenodd" d="M1180.81 734.001c1.29 0 2.33 1.344 2.33 3 0 1.598-.97 2.904-2.19 2.995l-.14.005H2.468c-1.285 0-2.327-1.343-2.327-3 0-1.597.969-2.903 2.19-2.994l.137-.006H1180.81Z" fill="#2E186A"/></svg>