<svg width="78" height="25" viewBox="0 0 78 25" fill="none" xmlns="http://www.w3.org/2000/svg">
<path d="M45.2109 20.2067C46.0033 20.0239 46.5518 19.5363 46.9175 18.7439C47.1004 18.3172 47.2223 17.7687 47.3442 17.0372C47.4661 16.3058 47.4661 15.6963 47.4661 15.1477V14.4773H43.809C43.809 14.782 43.809 15.0258 43.809 15.3306C43.809 15.5744 43.809 15.8792 43.809 16.123C43.809 16.4887 43.748 16.8544 43.6871 17.2201C43.6261 17.5858 43.3214 17.7687 42.8338 17.7687C42.3461 17.7687 42.0414 17.5858 41.9804 17.2201C41.9195 16.8544 41.8585 16.4887 41.8585 16.123C41.8585 14.9649 41.8585 13.7458 41.7976 12.5268C41.7976 11.3078 41.7976 10.1497 41.8585 8.93063C41.8585 8.01635 42.1633 7.58969 42.7728 7.58969C43.3823 7.58969 43.6871 8.01635 43.6871 8.93063C43.6871 9.17444 43.6871 9.4792 43.6871 9.72301C43.6871 9.96681 43.6871 10.2716 43.6871 10.5154H47.2833C47.2223 9.96681 47.1614 9.41825 47.1004 8.74777C47.0395 8.0773 46.9175 7.58969 46.7956 7.22397C46.4909 6.30969 45.9423 5.70017 45.1499 5.39541C44.3576 5.15161 43.5652 4.96875 42.7119 4.96875C41.8585 4.96875 41.0052 5.09065 40.2738 5.39541C39.4814 5.63922 38.9328 6.24874 38.6281 7.22397C38.4452 7.65064 38.3233 8.26016 38.2014 8.99158C38.0795 9.72301 38.0186 10.3935 38.0186 11.1859V14.6601C38.0186 15.4525 38.0795 16.1839 38.2014 16.9763C38.3233 17.7687 38.5062 18.3172 38.689 18.7439C39.0547 19.5363 39.6033 20.0239 40.3957 20.1458C41.1881 20.3287 41.9195 20.3896 42.7119 20.3896C43.6871 20.4506 44.4185 20.3896 45.2109 20.2067Z" fill="#666666"/>
<path d="M52.2819 14.4166L53.1352 7.59002H53.1961L54.0495 14.4166H52.2819ZM54.4152 17.1595L54.8418 20.329H58.499L55.878 5.21289H50.5142L47.8933 20.268H51.5504L51.9771 17.0985H54.4152V17.1595Z" fill="#666666"/>
<path d="M59.2915 20.2706H62.8877V14.663H63.4972C64.1067 14.663 64.4724 14.7849 64.6553 15.0287C64.8381 15.2725 64.8991 15.6382 64.8991 16.0649V20.2706H68.5562V16.7963C68.5562 15.882 68.3733 15.0896 67.9467 14.4801C67.52 13.8706 66.9105 13.5049 66.1181 13.322V13.2611C66.9105 13.1392 67.4591 12.8344 67.8248 12.3468C68.1295 11.9811 68.3124 11.4935 68.3733 11.0059C68.4343 10.4573 68.4343 9.96967 68.4343 9.48205C68.4343 8.81158 68.3733 8.20206 68.3124 7.59254C68.2514 6.98302 67.9467 6.43446 67.3981 6.06874C66.9105 5.70303 66.301 5.45922 65.5696 5.39827C64.8991 5.33732 64.2286 5.27637 63.6191 5.27637H59.1086V20.2706H59.2915ZM62.8877 7.8973H63.741C64.2286 7.8973 64.5334 8.01921 64.7162 8.20206C64.8991 8.38492 64.96 8.75063 64.96 9.17729C64.96 9.4211 64.96 9.60396 64.96 9.78681C64.96 9.96967 64.96 10.1525 64.96 10.3354C64.96 10.7011 64.8991 11.0059 64.8381 11.2497C64.7772 11.4935 64.5943 11.6763 64.4115 11.7982C64.2286 11.9201 63.9848 11.9811 63.5581 11.9811H62.8877V7.8973Z" fill="#666666"/>
<path d="M69.3485 8.13859H71.7866V20.268H75.3828V8.13859H77.8209V5.21289H69.2876V8.13859H69.3485Z" fill="#666666"/>
<path d="M32.6561 10.6986L31.4371 5.21289H27.719L29.9742 12.4052L27.5361 20.329H31.3152L32.5342 14.4166H32.5952L33.8751 20.329H37.6542L35.2161 12.4662L37.4713 5.27384H33.7532L32.6561 10.6986Z" fill="#666666"/>
<path d="M3.39442 0.929688H20.6825C22.3869 0.929688 23.8479 2.32978 23.8479 4.09511V21.3832C23.8479 23.0876 22.4478 24.5486 20.6825 24.5486H3.39442C1.68997 24.5486 0.229004 23.1485 0.229004 21.3832V4.09511C0.289877 2.32978 1.68997 0.929688 3.39442 0.929688Z" fill="#666666"/>
<path d="M18.7585 12.6955C18.3928 13.0612 17.7223 13.7316 17.1128 14.3412C17.6614 14.8897 18.3928 15.6212 18.6975 15.9259C18.8195 16.0478 18.9414 16.2916 18.9414 16.4745C18.9414 17.3278 18.9414 18.4859 18.9414 19.3392C18.9414 19.644 18.8804 19.7049 18.5756 19.7049C17.4785 19.7049 17.4785 19.7049 17.2347 19.7049C17.2347 19.1564 17.2347 18.364 17.2347 17.5107C17.2347 17.2059 17.1737 17.084 16.9909 16.9011C16.6861 16.5964 15.8328 15.7431 15.528 15.4383C15.3452 15.2554 15.1014 15.1945 14.9185 15.1945C13.8214 15.1945 10.8957 15.1945 10.1033 15.1945C9.85951 15.1945 9.6157 15.2554 9.4938 15.4383C9.18904 15.7431 8.33571 16.5964 8.03095 16.9011C7.84809 17.084 7.78714 17.2059 7.78714 17.5107C7.78714 18.1811 7.78714 18.6687 7.78714 19.2783C7.78714 19.583 7.72619 19.7049 7.36047 19.7049C7.17762 19.7049 7.11667 19.7049 6.01953 19.7049C6.01953 19.0345 6.01953 17.5107 6.01953 16.4745C6.01953 16.2916 6.14144 16.0478 6.26334 15.9259C6.62905 15.5602 7.29952 14.8897 7.90904 14.2802C7.36048 13.7316 6.62905 13.0002 6.32429 12.6955C6.20239 12.5735 6.08048 12.3297 6.08048 12.1469C6.08048 11.1107 6.08048 7.02692 6.08048 6.35645C7.66523 6.35645 7.54333 6.35645 7.84809 6.35645C7.84809 6.90501 7.84809 10.2574 7.84809 11.1107C7.84809 11.4155 7.90904 11.5374 8.0919 11.7202C8.39666 12.025 9.24999 12.8783 9.55475 13.1831C9.7376 13.3659 9.98141 13.4269 10.1643 13.4269C11.2005 13.4269 14.1871 13.4269 14.9795 13.4269C15.2233 13.4269 15.4671 13.3659 15.589 13.1831C15.8938 12.8783 16.7471 12.025 17.0518 11.7202C17.2347 11.5374 17.2957 11.4155 17.2957 11.1107C17.2957 10.3183 17.2957 6.90501 17.2957 6.35645C17.5395 6.35645 17.4785 6.35645 19.0633 6.35645C19.0633 7.02692 19.0633 11.1107 19.0633 12.1469C19.0023 12.3907 18.8804 12.5735 18.7585 12.6955Z" fill="white"/>
<path d="M9.61523 9.70605H10.8952V10.986H9.61523V9.70605Z" fill="white"/>
<path d="M14.3682 9.70605H15.6482V10.986H14.3682V9.70605Z" fill="white"/>
<path d="M9.61523 7.33301H10.8952V8.613H9.61523V7.33301Z" fill="white"/>
<path d="M14.3682 7.33301H15.6482V8.613H14.3682V7.33301Z" fill="white"/>
<path d="M11.9944 9.70605H13.2744V10.986H11.9944V9.70605Z" fill="white"/>
<path d="M11.9944 7.33301H13.2744V8.613H11.9944V7.33301Z" fill="white"/>
<path d="M7.84803 20.9816C7.29946 20.9816 6.81185 20.555 6.68994 20.0673H7.66517C7.90898 20.0673 8.15279 19.8235 8.15279 19.5797V18.6045C8.70136 18.7264 9.06707 19.214 9.06707 19.7626C9.06707 20.4331 8.5185 20.9816 7.84803 20.9816Z" fill="#666666"/>
<path d="M19.0634 20.9816C18.5148 20.9816 18.0272 20.6159 17.9053 20.0673H18.8805C19.1243 20.0673 19.3681 19.8235 19.3681 19.5797V18.6045C19.9167 18.7264 20.2824 19.214 20.2824 19.7626C20.2824 20.4331 19.7338 20.9816 19.0634 20.9816Z" fill="#666666"/>
</svg>
